<svg width="32" height="32" viewBox="0 0 32 32" fill="none" xmlns="http://www.w3.org/2000/svg">
<path d="M27.4912 14.034C27.2533 14.034 27.0246 14.1284 26.8561 14.2969C26.6876 14.4654 26.5931 14.6941 26.5931 14.932V32H5.03391V14.932C5.03391 14.6941 4.93947 14.4654 4.77097 14.2969C4.60247 14.1284 4.37286 14.034 4.13584 14.034H1L15.8135 0L30.6271 14.034H27.4912Z" fill="#333F48"/>
<path d="M18.7068 27.7754H13.4295C12.7008 27.7754 12.1101 28.3661 12.1101 29.0947C12.1101 29.8233 12.7008 30.414 13.4295 30.414H18.7068C19.4354 30.414 20.0261 29.8233 20.0261 29.0947C20.0261 28.3661 19.4354 27.7754 18.7068 27.7754ZM21.1492 15.0469C20.4104 14.2997 19.4271 13.8877 18.3828 13.8877C17.4282 13.8877 16.5255 14.2312 15.8135 14.8608C15.1006 14.2312 14.1989 13.8877 13.2443 13.8877C12.199 13.8877 11.2167 14.2997 10.4779 15.0469C9.73998 15.794 9.33261 16.7874 9.33261 17.8448C9.33261 18.9011 9.73998 19.8955 10.4779 20.6427L15.6163 25.8413C15.6691 25.8941 15.7395 25.9237 15.8135 25.9237C15.8876 25.9237 15.958 25.8941 16.0098 25.8413L21.1483 20.6427C21.888 19.8955 22.2944 18.9021 22.2944 17.8448C22.2944 16.7874 21.8871 15.794 21.1492 15.0469V15.0469ZM12.7851 15.3153C12.2444 15.3153 11.7352 15.5255 11.3528 15.9079C10.9704 16.2903 10.7603 16.7995 10.7603 17.3402C10.7603 17.4791 10.6473 17.5911 10.5094 17.5911C10.3705 17.5911 10.2585 17.479 10.2585 17.3411C10.2585 16.6652 10.5214 16.031 10.9991 15.5542C11.4759 15.0765 12.1101 14.8135 12.786 14.8135C12.924 14.8135 13.036 14.9256 13.036 15.0635C13.036 15.2024 12.924 15.3144 12.786 15.3144L12.7851 15.3153Z" fill="#F6BE00"/>
</svg>
