<svg width="32" height="30" viewBox="0 0 32 30" fill="none" xmlns="http://www.w3.org/2000/svg">
<path d="M20.75 7.75H10.75C10.35 7.75 10 7.4 10 7V2.25C10 1.15 10.9 0.25 12 0.25H19.5C20.6 0.25 21.5 1.15 21.5 2.25V7C21.5 7.4 21.15 7.75 20.75 7.75ZM12 5.75H19.5V2.75C19.5 2.45 19.3 2.25 19 2.25H12.5C12.2 2.25 12 2.45 12 2.75V5.75Z" fill="#535E66"/>
<path d="M29.25 29.75H2.75C1.35 29.75 0.25 28.65 0.25 27.25V8.25C0.25 6.85 1.35 5.75 2.75 5.75H29.25C30.65 5.75 31.75 6.85 31.75 8.25V27.25C31.75 28.65 30.65 29.75 29.25 29.75Z" fill="#333F48"/>
<path d="M2.75 29.75H4.25C2.85 29.75 1.75 28.65 1.75 27.25V8.25C1.75 6.85 2.85 5.75 4.25 5.75H2.75C1.35 5.75 0.25 6.85 0.25 8.25V27.25C0.25 28.65 1.35 29.75 2.75 29.75ZM29.25 5.75H27.75C29.15 5.75 30.25 6.85 30.25 8.25V27.25C30.25 28.65 29.15 29.75 27.75 29.75H29.25C30.65 29.75 31.75 28.65 31.75 27.25V8.25C31.75 6.85 30.65 5.75 29.25 5.75Z" fill="#535E66"/>
<path d="M12.7695 17.7637H16.167V22.624C15.6383 22.7926 15.1006 22.9202 14.5537 23.0068C14.0068 23.0934 13.3734 23.1367 12.6533 23.1367C11.1403 23.1367 9.96224 22.6878 9.11914 21.79C8.27604 20.8877 7.85449 19.6253 7.85449 18.0029C7.85449 16.9639 8.06185 16.0547 8.47656 15.2754C8.89583 14.4915 9.4974 13.8945 10.2812 13.4844C11.0651 13.0697 11.9834 12.8623 13.0361 12.8623C14.1025 12.8623 15.096 13.0583 16.0166 13.4502L15.5654 14.4756C14.6631 14.0928 13.7949 13.9014 12.9609 13.9014C11.7441 13.9014 10.7939 14.2637 10.1104 14.9883C9.42676 15.7129 9.08496 16.7178 9.08496 18.0029C9.08496 19.3519 9.41309 20.375 10.0693 21.0723C10.7301 21.7695 11.6986 22.1182 12.9746 22.1182C13.6673 22.1182 14.3441 22.0384 15.0049 21.8789V18.8027H12.7695V17.7637Z" fill="white"/>
<path d="M24.9102 15.918C24.9102 16.9297 24.5638 17.709 23.8711 18.2559C23.1829 18.7982 22.1963 19.0693 20.9111 19.0693H19.7354V23H18.5732V13.0059H21.1641C23.6615 13.0059 24.9102 13.9766 24.9102 15.918ZM19.7354 18.0713H20.7812C21.8112 18.0713 22.5563 17.9049 23.0166 17.5723C23.4769 17.2396 23.707 16.7064 23.707 15.9727C23.707 15.3118 23.4906 14.8197 23.0576 14.4961C22.6247 14.1725 21.9502 14.0107 21.0342 14.0107H19.7354V18.0713Z" fill="white"/>
</svg>
