<svg width="32" height="32" viewBox="0 0 32 32" fill="none" xmlns="http://www.w3.org/2000/svg">
<path d="M20.8254 8.61905H10.6667C10.2603 8.61905 9.90475 8.26349 9.90475 7.85714V3.03175C9.90475 1.91429 10.819 1 11.9365 1H19.5555C20.673 1 21.5873 1.91429 21.5873 3.03175V7.85714C21.5873 8.26349 21.2317 8.61905 20.8254 8.61905ZM11.9365 6.5873H19.5555V3.53968C19.5555 3.23492 19.3524 3.03175 19.0476 3.03175H12.4444C12.1397 3.03175 11.9365 3.23492 11.9365 3.53968V6.5873Z" fill="#535E66"/>
<path d="M29.4603 30.9683H2.53968C1.11746 30.9683 0 29.8508 0 28.4286V9.12699C0 7.70477 1.11746 6.58731 2.53968 6.58731H29.4603C30.8825 6.58731 32 7.70477 32 9.12699V28.4286C32 29.8508 30.8825 30.9683 29.4603 30.9683Z" fill="#333F48"/>
<path d="M2.53968 30.9683H4.06349C2.64127 30.9683 1.52381 29.8508 1.52381 28.4286V9.12699C1.52381 7.70477 2.64127 6.58731 4.06349 6.58731H2.53968C1.11746 6.58731 0 7.70477 0 9.12699V28.4286C0 29.8508 1.11746 30.9683 2.53968 30.9683ZM29.4603 6.58731H27.9365C29.3587 6.58731 30.4762 7.70477 30.4762 9.12699V28.4286C30.4762 29.8508 29.3587 30.9683 27.9365 30.9683H29.4603C30.8825 30.9683 32 29.8508 32 28.4286V9.12699C32 7.70477 30.8825 6.58731 29.4603 6.58731Z" fill="#535E66"/>
<path d="M11.8268 24.0583C12.5267 24.0583 13.0682 23.9659 14.0058 23.7017C14.653 23.5169 14.9435 23.464 15.5642 23.4112C15.5378 22.9886 15.5246 22.7773 15.5246 22.0906V20.968C15.5246 20.1889 15.5642 19.9379 15.7227 19.7927C15.8679 19.6474 16.0792 19.5946 16.5547 19.5814V19.238H12.6588V19.5814C13.7051 19.6189 13.8606 19.7297 13.8728 20.6805L13.8738 23.081C13.6889 23.2527 13.5832 23.3188 13.3323 23.4112C12.8965 23.5961 12.4343 23.6885 12.0381 23.6885C11.3778 23.6885 10.7835 23.4508 10.3609 23.0282C9.59492 22.2358 9.1327 20.6643 9.1327 18.8286C9.1327 17.5608 9.344 16.4779 9.7534 15.6195C10.2156 14.6554 11.0212 14.1403 12.0513 14.1403C12.9229 14.1403 13.6889 14.5365 14.2039 15.2629C14.5473 15.7383 14.7322 16.2666 14.8643 17.059L15.3529 17.0457V13.9819C15.0227 14.1139 14.8246 14.1536 14.5737 14.1536C14.3756 14.1536 14.1775 14.1271 13.9794 14.0743C12.9361 13.8234 12.6192 13.7706 11.9457 13.7706C9.07988 13.7706 7.23099 15.844 7.23099 19.0795C7.23099 22.2094 8.94781 24.0583 11.8268 24.0583V24.0583ZM21.4278 23.847V23.5036C20.2789 23.464 20.16 23.3452 20.16 22.1434V19.687H20.8071C21.9164 19.687 22.8805 19.5549 23.4616 19.3436C24.5973 18.921 25.152 18.0626 25.152 16.7156C25.152 14.8007 23.9766 13.9687 21.2825 13.9687H17.3074V14.312C18.3375 14.3649 18.4432 14.4837 18.4432 15.6855V22.1434C18.4432 23.3452 18.3375 23.464 17.2546 23.5036V23.847H21.4278ZM20.8467 19.304H20.16V14.3516H21.0052C22.5371 14.3516 23.3163 15.1704 23.3163 16.7948C23.3163 17.6532 23.0918 18.3532 22.6692 18.7626C22.2862 19.1191 21.6655 19.304 20.8467 19.304Z" fill="#F6BE00"/>
</svg>
