<svg width="32" height="32" viewBox="0 0 32 32" fill="none" xmlns="http://www.w3.org/2000/svg"><path d="M17.6773 26.7608C17.9282 26.967 18.0594 27.284 18.0273 27.6068V29.7265L17.3759 29.6779L17.2106 29.2598C17.0939 29.4212 16.9412 29.5515 16.7633 29.639C16.5727 29.7197 16.3666 29.7557 16.1604 29.746C15.8979 29.7605 15.6431 29.6623 15.4574 29.4766C15.2727 29.2919 15.1735 29.0352 15.1881 28.7736C15.1686 28.478 15.3048 28.1941 15.5479 28.0249C15.8726 27.8363 16.2421 27.7429 16.6174 27.7526H17.1717V27.6068C17.1882 27.4716 17.1406 27.3365 17.0433 27.2412C16.9461 27.1459 16.81 27.1012 16.6758 27.1206C16.3617 27.1352 16.0535 27.2149 15.7715 27.354L15.4895 26.7706C15.8639 26.5742 16.282 26.474 16.705 26.4789C17.0521 26.4594 17.3953 26.5586 17.6773 26.7608V26.7608ZM25.4658 25.2926V29.7168H24.8046L24.6588 29.2598C24.4672 29.5875 24.1026 29.7732 23.7253 29.7362C23.3753 29.7498 23.0417 29.5855 22.8405 29.2987C22.6042 28.9428 22.4904 28.5189 22.5196 28.093C22.4953 27.6642 22.6071 27.2383 22.8405 26.8775C23.0515 26.5917 23.3899 26.4283 23.7448 26.44C24.0705 26.4244 24.3816 26.5625 24.5868 26.8095L24.6588 26.9067C24.6199 26.6947 24.5965 26.4798 24.5907 26.2649V25.2926H25.4658V25.2926ZM12.4947 26.8192C12.7524 27.1138 12.8846 27.4979 12.8642 27.8888V28.2874H10.8125C10.8115 28.5004 10.8913 28.7055 11.0362 28.8611C11.1878 29.0118 11.3959 29.0896 11.6098 29.075C11.7926 29.075 11.9754 29.0556 12.1544 29.0167C12.3391 28.97 12.518 28.9049 12.6892 28.8222V29.4931C12.5355 29.5709 12.3722 29.6302 12.203 29.6682C11.9949 29.708 11.7829 29.7304 11.571 29.7362C11.1295 29.7635 10.6958 29.6137 10.3652 29.3181C10.0619 28.9934 9.90629 28.5558 9.93741 28.1124C9.90532 27.6651 10.0483 27.2217 10.3361 26.8775C10.6229 26.5751 11.0284 26.4147 11.4445 26.44C11.8315 26.4176 12.2108 26.5547 12.4947 26.8192V26.8192ZM9.54847 26.44L9.4804 27.3151C9.16633 27.2412 8.83573 27.3083 8.57612 27.4998C8.41471 27.6574 8.32914 27.8771 8.34275 28.1027V29.7168H7.47736V26.4983H8.13856L8.26496 27.0331C8.38456 26.8484 8.55278 26.7006 8.75114 26.6053C8.90088 26.5041 9.0759 26.4468 9.25676 26.44H9.54847V26.44ZM14.4783 25.2537L14.4394 29.6779H13.6129V25.2537H14.4783V25.2537ZM21.5278 26.7414C21.7378 26.9787 21.8428 27.2908 21.8195 27.6068V29.6779H20.9444V27.8207C20.957 27.6408 20.9162 27.4619 20.8277 27.3054C20.7363 27.1848 20.5895 27.1187 20.4388 27.1303C20.2336 27.1148 20.0343 27.2072 19.9137 27.3734C19.7815 27.6204 19.7241 27.9014 19.7484 28.1805V29.6779H18.883V26.4983H19.5442L19.6609 26.9067H19.7095C19.8029 26.7511 19.9429 26.6296 20.1082 26.5567C20.2919 26.475 20.4913 26.4351 20.6916 26.44C21.0008 26.4147 21.3061 26.5246 21.5278 26.7414V26.7414ZM6.49529 25.5162V29.6779H5.61045V25.5162H6.49529ZM17.1231 28.2096H16.7827C16.5854 28.2019 16.3909 28.2485 16.2188 28.3458C16.0924 28.4294 16.0224 28.5743 16.034 28.725C16.034 28.9681 16.1799 29.0945 16.4521 29.0945C16.6311 29.1042 16.807 29.041 16.9383 28.9195C17.0637 28.8008 17.1308 28.6346 17.1231 28.4625V28.2096ZM24.0073 27.1401C23.8235 27.1391 23.6534 27.2354 23.56 27.3929C23.4385 27.6087 23.3811 27.8547 23.3947 28.1027C23.3782 28.3506 23.4356 28.5976 23.56 28.8125C23.6641 28.9661 23.842 29.0546 24.0267 29.0459C24.2105 29.0595 24.3894 28.9875 24.5129 28.8514C24.6393 28.655 24.7015 28.4236 24.6879 28.1902V28.1027C24.7074 27.845 24.65 27.5873 24.5226 27.3637C24.3991 27.2081 24.2057 27.1235 24.0073 27.1401V27.1401ZM11.4445 27.0526C11.2822 27.0419 11.1237 27.106 11.0167 27.2276C10.902 27.3676 10.8368 27.5426 10.832 27.7235H12.0571C12.06 27.5426 11.9978 27.3666 11.8821 27.2276C11.7683 27.108 11.6098 27.0438 11.4445 27.0526V27.0526ZM22.0626 19.8183C22.3251 20.11 22.4583 20.496 22.4321 20.8879V21.306H20.4193C20.4184 21.5189 20.4981 21.7241 20.643 21.8797C20.7947 22.0294 21.0037 22.1072 21.2167 22.0936C21.3995 22.0936 21.5823 22.0741 21.7612 22.0352C21.9459 21.9886 22.1248 21.9234 22.296 21.8408V22.5117C22.1423 22.5895 21.979 22.6488 21.8098 22.6867C21.5881 22.7227 21.3635 22.7382 21.1389 22.7353C20.6935 22.7849 20.2511 22.6303 19.9332 22.3143C19.6162 21.9993 19.4586 21.5559 19.5053 21.1115C19.4732 20.6642 19.6162 20.2208 19.904 19.8766C20.5068 19.3165 21.4306 19.2913 22.0626 19.8183V19.8183ZM14.2935 18.8168V19.5363H15.1881V20.1878H14.2935V21.7241C14.2819 21.8271 14.3217 21.9283 14.4005 21.9963C14.4822 22.045 14.5794 22.0615 14.6727 22.045C14.8575 22.0401 15.0422 22.007 15.2173 21.9477V22.5895C14.9644 22.6935 14.6922 22.7431 14.4199 22.7353C14.1409 22.7616 13.8647 22.6653 13.6615 22.4728C13.4865 22.2491 13.3999 21.9691 13.4184 21.6852V20.1489H13.01V19.7794L13.4865 19.4877L13.7393 18.8168H14.2935V18.8168ZM8.43026 19.4391C8.71127 19.4352 8.98839 19.5023 9.23731 19.6335C9.46776 19.7697 9.65348 19.968 9.77211 20.2072C9.90435 20.4795 9.97046 20.7799 9.96658 21.0823C9.98894 21.5267 9.84017 21.9623 9.54847 22.2978C9.24995 22.6002 8.83573 22.7596 8.41082 22.7353C8.12884 22.7402 7.85172 22.6731 7.60377 22.5409C7.36846 22.4047 7.17885 22.2015 7.05925 21.9574C6.9309 21.6842 6.8677 21.3838 6.87451 21.0823C6.84923 20.6399 6.99508 20.2043 7.28289 19.8669C7.58821 19.5694 8.00438 19.4138 8.43026 19.4391V19.4391ZM12.7475 19.4391L12.6892 20.2558C12.6016 20.2442 12.5141 20.2442 12.4266 20.2558C12.1933 20.2481 11.9667 20.3239 11.7849 20.4697C11.6235 20.6273 11.5379 20.847 11.5515 21.0726V22.6867H10.6958V19.5363H11.357L11.4834 20.0711H11.5321C11.6244 19.8961 11.7625 19.7483 11.9307 19.6433C12.0814 19.5246 12.2642 19.4536 12.4558 19.4391H12.7475V19.4391ZM28.4412 19.7794C28.6512 20.0166 28.7562 20.3288 28.7329 20.6448V22.677H27.8675V20.8198C27.8772 20.6389 27.8335 20.46 27.7411 20.3045C27.6507 20.1829 27.5039 20.1168 27.3522 20.1294C27.147 20.1139 26.9477 20.2062 26.8271 20.3725C26.6949 20.6195 26.6375 20.9005 26.6618 21.1796V22.677H25.7964V19.5363H26.4576L26.5743 19.9447H26.6229C26.7163 19.7891 26.8563 19.6676 27.0216 19.5946C27.2053 19.513 27.4047 19.4731 27.605 19.478C27.9142 19.4527 28.2195 19.5625 28.4412 19.7794V19.7794ZM3.51018 18.5639L5.31875 21.6852V18.5639H6.11607L6.0869 22.677H4.9687L3.15041 19.5363V22.677H2.39198V18.5639H3.51018ZM16.7341 18.2528V19.9058C16.9266 19.5849 17.2854 19.4041 17.6579 19.4391C17.9729 19.4138 18.284 19.5237 18.5135 19.7405C18.7216 19.9787 18.8266 20.2899 18.8052 20.6059V22.677H17.9301V20.8198C17.9301 20.3628 17.7648 20.1294 17.4245 20.1294C17.2145 20.1148 17.0112 20.2101 16.8897 20.3822C16.7662 20.6292 16.7127 20.9044 16.7341 21.1796V22.677H15.859V18.2528H16.7341V18.2528ZM25.213 19.4391L25.1449 20.2558C24.8309 20.1819 24.5003 20.249 24.2407 20.4406C24.0792 20.5981 23.9937 20.8178 24.0073 21.0434V22.6575H23.1419V19.5363H23.8031L23.9295 20.0711C24.0248 19.898 24.1629 19.7502 24.3282 19.6433C24.4983 19.512 24.7074 19.4391 24.9213 19.4391H25.213ZM8.52847 20.1392H8.43026C8.23579 20.1216 8.04521 20.2111 7.93437 20.3725C7.81379 20.5884 7.75934 20.8354 7.77879 21.0823C7.76129 21.3322 7.81574 21.5811 7.93437 21.8019C8.0491 21.9652 8.24066 22.0576 8.43999 22.045C8.63737 22.0595 8.82698 21.9672 8.93589 21.8019C9.05451 21.5811 9.10896 21.3322 9.09146 21.0823C9.10896 20.8354 9.05548 20.5893 8.93589 20.3725C8.84059 20.2364 8.69085 20.1518 8.52847 20.1392V20.1392ZM21.0125 20.0516C20.8501 20.0409 20.6916 20.1051 20.5846 20.2267C20.4699 20.3667 20.4047 20.5417 20.3999 20.7226H21.625C21.628 20.5417 21.5657 20.3657 21.45 20.2267C21.3362 20.1071 21.1778 20.0429 21.0125 20.0516ZM28.3342 3.00636C29.608 3.01803 30.8624 3.32043 32 3.8912L31.1152 6.04009C30.6562 5.82131 30.1856 5.62587 29.7053 5.45668C29.2648 5.30111 28.801 5.21846 28.3342 5.2136C27.4241 5.1747 26.5548 5.59378 26.0201 6.3318C25.425 7.26331 25.1391 8.35914 25.2033 9.46276C25.2033 12.2563 26.2466 13.6507 28.3342 13.6439C29.4262 13.605 30.5036 13.3842 31.5235 12.9924V15.2093C30.4345 15.6498 29.2667 15.8686 28.0912 15.8511C26.5237 15.9522 24.9933 15.3455 23.9198 14.1981C22.8765 12.8456 22.364 11.1576 22.4807 9.45304C22.4535 8.2765 22.6927 7.10968 23.1808 6.04009C23.6203 5.1008 24.3311 4.31417 25.2227 3.78424C26.1717 3.2514 27.2452 2.98206 28.3342 3.00636V3.00636ZM16.9967 3.00636C17.6228 3.00248 18.2471 3.08124 18.8538 3.23973C19.4888 3.40892 20.1091 3.62672 20.711 3.8912L19.8554 5.92341C19.3157 5.69977 18.7644 5.50822 18.2024 5.34973C17.7794 5.24568 17.3448 5.19415 16.9091 5.19415C16.4969 5.16498 16.0885 5.29138 15.7618 5.54419C15.4915 5.76978 15.3407 6.10719 15.3534 6.4582C15.3582 6.68476 15.4292 6.90451 15.5576 7.09023C15.6937 7.29151 15.8687 7.46361 16.0729 7.59585C16.316 7.75143 16.8703 8.04313 17.7551 8.47096C18.6672 8.84726 19.4868 9.41803 20.1568 10.1434C20.5846 10.7463 20.8005 11.4755 20.7694 12.2145C20.8131 13.2481 20.3571 14.2389 19.5442 14.8787C18.5621 15.5827 17.3662 15.926 16.1604 15.8511C14.945 15.8705 13.7422 15.6138 12.6405 15.1024V12.6423C13.3338 12.9564 14.0485 13.2199 14.7797 13.4299C15.3019 13.5768 15.8415 13.6555 16.3841 13.6633C16.8547 13.6944 17.3234 13.5797 17.7259 13.3327C18.0332 13.1062 18.2082 12.7415 18.1926 12.3604C18.1975 12.1251 18.1226 11.8956 17.9787 11.7089C17.8163 11.4862 17.6112 11.2986 17.3759 11.1546C16.8547 10.8406 16.316 10.5586 15.7618 10.3087C15.1453 10.0374 14.5668 9.68835 14.0407 9.26829C13.6683 8.94547 13.3581 8.55653 13.1267 8.12092C12.8933 7.6435 12.7767 7.11648 12.7864 6.58461C12.7349 5.59184 13.1442 4.63019 13.8949 3.97871C14.7787 3.29224 15.8794 2.94802 16.9967 3.00636V3.00636ZM2.64479 3.18139V8.04313H7.59404V3.18139H10.2388V15.6469H7.59404V10.2893H2.64479V15.6469H0V3.18139H2.64479V3.18139Z" fill="#333F48"/></svg>