<svg xmlns="http://www.w3.org/2000/svg" viewBox="0 0 33 30"><g fill="#333F48" stroke="#333F48" stroke-linejoin="round"><path stroke-linecap="round" stroke-width=".98" d="M30.22 5.99v4h-28v-4l14-5.5z"/><path stroke-width=".8" d="M32.05 27.03v2.29H.4v-2.29h2.29v-2.28h2.36v-2.18h22.36v2.18h2.35v2.28z"/><path stroke-width=".81" d="M27.26 11.83h-1.02l.28 9.45h-3l.33-9.45h-1.07v-.55h4.48zm-5.87 0h-1.02l.29 9.45h-3l.32-9.45h-1.06v-.55h4.47zm-5.86 0H14.5l.29 9.45h-3l.33-9.45h-1.07v-.55h4.48zm-5.87 0H8.64l.28 9.45h-3l.33-9.45H5.19v-.55h4.47z"/></g></svg>