<svg width="32" height="32" viewBox="0 0 32 32" fill="none" xmlns="http://www.w3.org/2000/svg">
<path d="M28 0H4C1.79086 0 0 1.79086 0 4V28C0 30.2091 1.79086 32 4 32H28C30.2091 32 32 30.2091 32 28V4C32 1.79086 30.2091 0 28 0Z" fill="#333F48"/>
<path d="M11.5249 21H10.2935L5.22168 13.2114H5.1709C5.23861 14.1255 5.27246 14.9634 5.27246 15.7251V21H4.27588V11.7197H5.49463L10.5537 19.4766H10.6045C10.596 19.3623 10.577 18.9963 10.5474 18.3784C10.5177 17.7563 10.5072 17.312 10.5156 17.0454V11.7197H11.5249V21Z" fill="white"/>
<path d="M21.1226 21H20.0435V16.6328H15.1558V21H14.0767V11.7197H15.1558V15.668H20.0435V11.7197H21.1226V21Z" fill="white"/>
<path d="M28.9111 18.5308C28.9111 19.3475 28.6149 19.9844 28.0225 20.4414C27.43 20.8984 26.626 21.127 25.6104 21.127C24.5101 21.127 23.6637 20.9852 23.0713 20.7017V19.6606C23.4521 19.8215 23.8669 19.9484 24.3154 20.0415C24.764 20.1346 25.2083 20.1812 25.6484 20.1812C26.3678 20.1812 26.9095 20.0457 27.2734 19.7749C27.6374 19.4998 27.8193 19.119 27.8193 18.6323C27.8193 18.3107 27.7537 18.0483 27.6226 17.8452C27.4956 17.6379 27.2798 17.4474 26.9751 17.2739C26.6746 17.1004 26.2155 16.9036 25.5977 16.6836C24.7344 16.3747 24.1165 16.0086 23.7441 15.5854C23.376 15.1623 23.1919 14.61 23.1919 13.9287C23.1919 13.2135 23.4606 12.6444 23.998 12.2212C24.5355 11.798 25.2464 11.5864 26.1309 11.5864C27.0534 11.5864 27.9019 11.7557 28.6763 12.0942L28.3398 13.0337C27.5739 12.7121 26.8291 12.5513 26.1055 12.5513C25.5342 12.5513 25.0877 12.674 24.7661 12.9194C24.4445 13.1649 24.2837 13.5055 24.2837 13.9414C24.2837 14.263 24.3429 14.5275 24.4614 14.7349C24.5799 14.938 24.7788 15.1263 25.0581 15.2998C25.3416 15.4691 25.7733 15.6574 26.353 15.8647C27.3263 16.2118 27.995 16.5841 28.3589 16.9819C28.7271 17.3797 28.9111 17.896 28.9111 18.5308Z" fill="white"/>
</svg>
