<svg xmlns="http://www.w3.org/2000/svg" width="31" height="33" viewBox="0 0 31 33">
    <g fill="none">
        <path fill="#333F48" d="M30.328 21.446l-2.841 4.923c-.362.622-1.137.829-1.757.466l-24.593-14.2c-.62-.362-.827-1.14-.465-1.761L3.513 5.95c.362-.622 1.137-.829 1.757-.466l24.593 14.251c.62.311.827 1.089.465 1.71z"/>
        <path fill="#333F48" d="M.672 21.41l2.841 4.955c.362.625 1.137.834 1.757.469l24.593-14.342c.62-.365.827-1.147.465-1.773l-2.841-4.955c-.362-.625-1.137-.834-1.757-.469L1.137 19.637c-.62.365-.827 1.147-.465 1.773z"/>
        <path fill="#333F48" d="M18.447 32.32h-5.894c-.75 0-1.34-.574-1.34-1.304V1.303c0-.73.59-1.303 1.34-1.303h5.894c.75 0 1.34.573 1.34 1.303v29.713c0 .73-.59 1.303-1.34 1.303z"/>
        <path fill="#FFF" d="M19.128 16.03c0-1.406-1.269-2.082-2.537-2.603v-3.122c1.268-.52 2.537-1.197 2.537-2.602 0-.416-.355-.78-.761-.78s-.761.364-.761.78c0 .312-.457.625-1.015.885V5.986c.76-.312 1.268-1.041 1.268-1.926 0-1.145-.913-2.081-2.03-2.081-1.115 0-2.029.936-2.029 2.081 0 .885.508 1.614 1.269 1.926v3.278c-1.269.52-2.537 1.197-2.537 2.602 0 1.405 1.268 2.082 2.537 2.602v3.123c-1.269.52-2.537 1.197-2.537 2.602 0 1.405 1.268 2.081 2.537 2.602v3.122c-1.269.52-2.537 1.197-2.537 2.602 0 .416.355.78.761.78s.761-.364.761-.78c0-.312.457-.624 1.015-.885v1.926c0 .416.355.78.76.78.407 0 .762-.364.762-.78v-2.602c1.268-.52 2.537-1.197 2.537-2.602 0-1.405-1.269-2.082-2.537-2.602V18.63c1.268-.52 2.537-1.196 2.537-2.602zm-1.522 0c0 .312-.457.624-1.015.884v-1.821c.558.312 1.015.624 1.015.936zm-3.552-4.164c0-.312.457-.624 1.015-.884v1.821c-.558-.312-1.015-.624-1.015-.937zm0 8.327c0-.313.457-.625 1.015-.885v1.821c-.558-.312-1.015-.624-1.015-.936zm3.552 4.163c0 .312-.457.624-1.015.885v-1.822c.558.312 1.015.625 1.015.937z"/>
    </g>
</svg>
