<svg xmlns="http://www.w3.org/2000/svg" viewBox="0 0 100 100">
  <path fill="none" d="M0 0h96v96H0z"/>
  <g transform="translate(-1514 -293)">
    <g transform="translate(14661.412 -4139.588)">
      <path d="M-13079.792 4457.647h-8.011v-5.199a1.86 1.86 0 00-1.892-1.86.282.282 0 00-.2.067.258.258 0 00-.139-.067h-19.093a1.832 1.832 0 00-1.86 1.86v5.2h-8.048a4.041 4.041 0 00-4.091 4.1v6.706h3.551v38.079a3.985 3.985 0 004.055 4.055h32.213a4.013 4.013 0 004.091-4.055v-38.1h3.529v-6.703a4.041 4.041 0 00-4.1-4.084zm-27.48-3.343h15.72v3.343h-15.72zm24.3 52.235c0 .236-.1.353-.353.353h-32.2c-.236 0-.353-.1-.353-.353v-38.1h32.896zm3.515-41.834h-39.917v-2.961c0-.236.1-.371.353-.371h39.229a.324.324 0 01.353.371v2.961z"/>
      <path d="M-13092.6 4472.799h3.752v30.759h-3.752zM-13101.254 4472.799h3.752v30.759h-3.752zM-13109.908 4472.799h3.752v30.759h-3.752z"/>
    </g>
  </g>
</svg>
