<svg width="32" height="32" viewBox="0 0 32 32" fill="none" xmlns="http://www.w3.org/2000/svg">
<path d="M30.5387 21.2337L27.7259 26.1079C27.3674 26.7238 26.6001 26.9287 25.9862 26.5693L1.63674 12.5099C1.02288 12.1515 0.817932 11.3812 1.17635 10.7664L3.98922 5.8911C4.34764 5.27526 5.11496 5.07031 5.72882 5.42972L30.0783 19.5396C30.6922 19.8475 30.8971 20.6178 30.5387 21.2327V21.2337Z" fill="#333F48"/>
<path d="M1.17635 21.198L3.98922 26.1039C4.34764 26.7228 5.11496 26.9297 5.72882 26.5683L30.0783 12.3683C30.6922 12.0069 30.8971 11.2327 30.5387 10.6129L27.7259 5.70692C27.3674 5.0881 26.6001 4.88117 25.9862 5.24256L1.63674 19.4426C1.02288 19.8039 0.817932 20.5782 1.17635 21.198V21.198Z" fill="#333F48"/>
<path d="M18.7754 32H12.9397C12.1971 32 11.613 31.4317 11.613 30.7089V1.2901C11.613 0.567327 12.1971 0 12.9397 0H18.7754C19.5179 0 20.1021 0.567327 20.1021 1.2901V30.7089C20.1021 31.4317 19.5179 31.999 18.7754 31.999V32Z" fill="#333F48"/>
<path d="M19.4496 15.8713C19.4496 14.4792 18.1932 13.8099 16.9377 13.2941V10.203C18.1932 9.68812 19.4496 9.01783 19.4496 7.62674C19.4496 7.21486 19.0981 6.85446 18.6961 6.85446C18.2942 6.85446 17.9427 7.21486 17.9427 7.62674C17.9427 7.93565 17.4902 8.24555 16.9377 8.50298V5.92674C17.6902 5.61783 18.1932 4.89605 18.1932 4.01981C18.1932 2.88614 17.2892 1.95941 16.1833 1.95941C15.0793 1.95941 14.1744 2.88614 14.1744 4.01981C14.1744 4.89605 14.6773 5.61783 15.4308 5.92674V9.17228C14.1744 9.68713 12.9189 10.3574 12.9189 11.7485C12.9189 13.1396 14.1744 13.8099 15.4308 14.3248V17.4168C14.1744 17.9317 12.9189 18.602 12.9189 19.9931C12.9189 21.3842 14.1744 22.0535 15.4308 22.5693V25.6604C14.1744 26.1753 12.9189 26.8455 12.9189 28.2366C12.9189 28.6485 13.2704 29.0089 13.6724 29.0089C14.0744 29.0089 14.4258 28.6485 14.4258 28.2366C14.4258 27.9277 14.8783 27.6188 15.4308 27.3604V29.2673C15.4308 29.6792 15.7823 30.0396 16.1833 30.0396C16.5862 30.0396 16.9377 29.6792 16.9377 29.2673V26.6911C18.1932 26.1762 19.4496 25.5059 19.4496 24.1149C19.4496 22.7238 18.1932 22.0535 16.9377 21.5386V18.4455C18.1932 17.9307 19.4496 17.2614 19.4496 15.8693V15.8713ZM17.9427 15.8713C17.9427 16.1802 17.4902 16.4891 16.9377 16.7465V14.9436C17.4902 15.2525 17.9427 15.5614 17.9427 15.8703V15.8713ZM14.4258 11.7485C14.4258 11.4396 14.8783 11.1307 15.4308 10.8733V12.6762C14.8783 12.3673 14.4258 12.0584 14.4258 11.7485ZM14.4258 19.9931C14.4258 19.6832 14.8783 19.3743 15.4308 19.1168V20.9198C14.8783 20.6109 14.4258 20.302 14.4258 19.9931ZM17.9427 24.1149C17.9427 24.4238 17.4902 24.7327 16.9377 24.9911V23.1871C17.4902 23.496 17.9427 23.8059 17.9427 24.1149V24.1149Z" fill="#F6BE00"/>
</svg>
