<svg width="24" height="24" viewBox="0 0 24 24" fill="none" xmlns="http://www.w3.org/2000/svg">
<path d="M12 24C18.6274 24 24 18.6274 24 12C24 5.37258 18.6274 0 12 0C5.37258 0 0 5.37258 0 12C0 18.6274 5.37258 24 12 24Z" fill="#FFAB00"/>
<path d="M9.6 12C10.9255 12 12 10.9255 12 9.6C12 8.27452 10.9255 7.2 9.6 7.2C8.27451 7.2 7.2 8.27452 7.2 9.6C7.2 10.9255 8.27451 12 9.6 12Z" fill="white"/>
<path d="M14.4 16.8C15.7255 16.8 16.8 15.7255 16.8 14.4C16.8 13.0745 15.7255 12 14.4 12C13.0745 12 12 13.0745 12 14.4C12 15.7255 13.0745 16.8 14.4 16.8Z" fill="white"/>
</svg>
