<svg width="30" height="30" viewBox="0 0 30 30" fill="none" xmlns="http://www.w3.org/2000/svg">
<g clip-path="url(#clip0)">
<path d="M15.3157 6.3161C18.8037 6.3161 21.6314 9.16491 21.6314 12.679V29.5184C21.6314 29.7845 21.4175 30 21.1531 30H9.47831C9.21389 30 9 29.7845 9 29.5184V12.679C9 9.16491 11.8278 6.3161 15.3157 6.3161Z" fill="#333F48"/>
<path opacity="0.5" d="M20.8424 0.341387C20.775 0.623489 20.6133 0.871907 20.3851 1.04454C20.1552 1.16075 19.9835 0.984748 19.7553 0.868539C19.298 0.868539 19.0681 0.984748 18.7245 0.984748C18.381 0.984748 16.637 1.16748 16.493 1.18264V2.10052H17.2349C17.2685 2.10052 17.2946 2.12831 17.2955 2.162V2.92157H17.981C18.0113 2.92073 18.0399 2.93252 18.0618 2.95441C18.0837 2.9763 18.0955 3.00578 18.0955 3.03694V6.19816C18.0955 6.263 18.045 6.31606 17.981 6.31606H13.0606C13.0303 6.31606 13.0016 6.30342 12.9798 6.28153C12.9587 6.25879 12.9461 6.22932 12.9478 6.19732V3.03609C12.9478 2.97209 12.9983 2.91988 13.0606 2.91988H13.8631V2.16116C13.8631 2.12663 13.8901 2.09884 13.9237 2.09884H14.5519V0.631068C14.5519 0.610858 14.5629 0.593174 14.5806 0.583911H14.5519C14.5519 0.583911 13.6366 0.583911 13.6366 0.468544V0.223494C13.6366 0.162021 13.6618 0.103074 13.7048 0.0609692C13.7486 0.0188645 13.8075 -0.00303003 13.8673 0.000338351C13.8673 0.000338351 15.0109 0.118232 15.5827 0.118232C16.1545 0.118232 18.5586 0.000338351 18.9005 0.000338351H20.0458C20.0458 0.000338351 20.8416 0.223494 20.8416 0.341387H20.8424Z" fill="#333F48"/>
<path opacity="0.5" d="M17.8378 11.8427H12.7936C11.5705 11.8427 10.5789 12.8343 10.5789 14.0574V25.4173C10.5789 26.6404 11.5705 27.632 12.7936 27.632H17.8378C19.0609 27.632 20.0525 26.6404 20.0525 25.4173V14.0574C20.0525 12.8343 19.0609 11.8427 17.8378 11.8427Z" fill="white"/>
</g>
<defs>
<clipPath id="clip0">
<rect width="30" height="30" fill="white"/>
</clipPath>
</defs>
</svg>
