<svg width="30" height="30" viewBox="0 0 30 30" fill="none" xmlns="http://www.w3.org/2000/svg">
<path d="M26.46 2.38125C25.3725 1.42875 19.1456 0 19.1456 0C19.1456 0.9525 18.1706 2.8575 15 2.8575C11.8312 2.8575 10.8553 0.9525 10.8553 0C10.8553 0 4.6275 1.42875 3.54 2.38125C2.69156 3.12469 0.795 7.63313 0 9.58125L0.0140625 9.58594L4.905 12.4237L5.97844 10.0003V29.5238C5.97844 29.7863 6.19781 30 6.46594 30H23.5341C23.8022 30 24.0216 29.7853 24.0216 29.5238V10.0003L25.0941 12.4237L30 9.58125C29.2059 7.63313 27.3094 3.12469 26.46 2.38125V2.38125Z" fill="#333F48"/>
</svg>
