<svg width="30" height="30" viewBox="0 0 30 30" fill="none" xmlns="http://www.w3.org/2000/svg">
<path d="M10.421 0.273C10.421 0.109 10.264 0 10.108 0H3.788C3.63 0 3.474 0.11 3.474 0.273V8.571H10.421V0.273ZM15.072 6.857C14.918 6.857 14.763 6.967 14.763 7.134V8.57H20.843V7.134C20.843 6.968 20.688 6.857 20.533 6.857H15.073H15.072ZM27.326 3.429L22.579 8.571H24.837L28.658 4.426L27.326 3.429Z" fill="#333F48"/>
<path d="M13.358 7.29803C13.358 6.61203 14.029 6.07303 14.812 6.07303H20.682C21.465 6.07303 22.136 6.61303 22.136 7.29803V7.49403L24.316 5.19203C24.204 5.14203 24.092 5.14203 24.092 5.14203H11.29V8.57203H13.358V7.29703V7.29803ZM2 30H27.184V10.286H2V30ZM17.168 13.501H22.988C23.156 13.501 23.324 13.607 23.324 13.765V16.189C23.324 16.348 23.156 16.453 22.988 16.453H17.168V13.501V13.501ZM13.978 13.501H16.048V16.453H13.978V13.501ZM5.863 13.765C5.863 13.607 6.031 13.501 6.198 13.501H12.858V16.453H6.198C6.031 16.453 5.863 16.348 5.863 16.189V13.765V13.765Z" fill="#333F48"/>
</svg>
