<svg width="24" height="24" viewBox="0 0 24 24" fill="none"
  xmlns="http://www.w3.org/2000/svg">
  <path fill-rule="evenodd" clip-rule="evenodd" d="M19.9085 9.56495C19.6286 8.89944 19.2682 8.27118 18.8405 7.69096C18.4105 7.10715 17.9108 6.57378 17.3546 6.10529C16.5281 5.40494 15.5767 4.84635 14.5388 4.46675C13.5417 4.10157 12.463 3.90216 11.3422 3.90216C10.225 3.90216 9.1559 4.09916 8.17086 4.46195C7.14377 4.83915 6.20558 5.39413 5.39111 6.08847C4.84574 6.55336 4.35562 7.08072 3.93157 7.66093C3.51113 8.23634 3.15435 8.8598 2.87685 9.5217L2.04918 9.17333C2.3567 8.44296 2.74592 7.75703 3.206 7.12997C3.67089 6.4945 4.20906 5.91669 4.8073 5.40495C5.70345 4.64094 6.73414 4.03189 7.85973 3.61745C8.94568 3.21863 10.1181 3 11.3422 3C12.5687 3 13.7508 3.21983 14.8487 3.62226C15.9839 4.0379 17.0278 4.65055 17.936 5.41816C18.5438 5.9323 19.0916 6.51732 19.5661 7.16C20.0322 7.79067 20.4262 8.4814 20.7362 9.21658L19.9085 9.56495V9.56495Z" fill="currentColor"/>
  <path fill-rule="evenodd" clip-rule="evenodd" d="M9.47172 16.9297L8.95518 16.0203C8.16954 16.4228 7.60375 17.0522 7.20252 17.8294C6.78808 18.6355 6.65354 19.5316 6.69679 20.4302L6.72081 20.9299H16.0715L16.0955 20.4278C16.1352 19.5292 16.0006 18.6331 15.585 17.827C15.1862 17.0534 14.5819 16.4636 13.8371 16.0251L13.3182 16.9285L13.3939 16.9729L13.3927 16.9765C13.9248 17.3069 14.3657 17.7417 14.6564 18.3063C14.8847 18.7496 15.0036 19.2349 15.0432 19.7311L15.0552 19.8824H7.73589L7.7479 19.7311C7.78634 19.2361 7.90406 18.7508 8.13231 18.3075C8.42421 17.7429 8.86628 17.3057 9.40085 16.9741L9.39965 16.9705L9.47172 16.9297V16.9297Z" fill="currentColor"/>
  <path fill-rule="evenodd" clip-rule="evenodd" d="M11.3938 16.2883C12.201 16.2883 12.9674 15.9663 13.5356 15.3969C14.105 14.8275 14.4246 14.0623 14.4246 13.2563C14.4246 12.4502 14.1062 11.6838 13.5356 11.1144C12.9674 10.545 12.2022 10.2255 11.3962 10.2255C10.5889 10.2255 9.8237 10.5474 9.2543 11.118C8.68489 11.6874 8.36536 12.4514 8.36536 13.2575C8.36536 14.0635 8.68369 14.8299 9.2543 15.3993C9.8237 15.9687 10.5889 16.2883 11.3962 16.2883H11.3938ZM9.99428 14.6594C9.62189 14.287 9.41286 13.7848 9.41286 13.2575C9.41286 12.7289 9.62068 12.2268 9.99428 11.852C10.3667 11.4796 10.8688 11.2742 11.3962 11.2742C11.9235 11.2742 12.4245 11.482 12.7968 11.8556C13.1692 12.228 13.3783 12.7289 13.3783 13.2563C13.3783 13.7848 13.1704 14.287 12.7968 14.6618C12.4245 15.0342 11.9223 15.2408 11.3962 15.2408C10.8676 15.2408 10.3667 15.0317 9.99428 14.6594V14.6594Z" fill="currentColor"/>
  <path d="M3.28593 14.2738C2.6925 14.2738 2.15673 14.0323 1.76632 13.6431C1.37711 13.2539 1.13565 12.7157 1.13565 12.1235C1.13565 11.5313 1.37711 10.9943 1.76632 10.6051C2.15673 10.2147 2.6937 9.97321 3.28593 9.97321C3.87815 9.97321 4.41512 10.2135 4.80553 10.6027C5.19475 10.9919 5.4362 11.5301 5.4362 12.1223C5.4362 12.7145 5.19475 13.2515 4.80553 13.6407C4.41512 14.0311 3.87695 14.2738 3.28593 14.2738ZM2.40299 13.0064C2.63003 13.2323 2.94116 13.3728 3.28593 13.3728C3.63069 13.3728 3.94302 13.2323 4.16886 13.0076C4.3947 12.7806 4.53525 12.467 4.53525 12.1223C4.53525 11.7787 4.3947 11.4664 4.16886 11.2405C3.94182 11.0135 3.62949 10.8742 3.28593 10.8742C2.93996 10.8742 2.62883 11.0135 2.40299 11.2381C2.17715 11.4652 2.0366 11.7787 2.0366 12.1235C2.0366 12.467 2.17715 12.7794 2.40299 13.0064Z" fill="currentColor"/>
  <path d="M2.11228 14.6486L2.06062 14.6774C1.63778 14.9237 1.34346 15.2336 1.15967 15.5904C1.01552 15.8691 0.935032 16.1814 0.907403 16.5189H5.66324C5.63681 16.1814 5.55512 15.8679 5.41097 15.5892C5.22838 15.2324 4.93406 14.9225 4.51002 14.6786V14.6774L4.45836 14.6474L4.90523 13.8701L4.95929 13.9002H4.96049C5.54071 14.2365 5.94914 14.669 6.20981 15.1783C6.48971 15.7189 6.59662 16.3315 6.56659 16.9886L6.54737 17.4211H0.02567L0.00524843 16.991C-0.0259846 16.3327 0.0809285 15.7201 0.359623 15.1795C0.621501 14.6714 1.02993 14.2365 1.61015 13.9002L1.61375 13.899L1.66781 13.8677L2.11228 14.6486V14.6486Z" fill="currentColor"/>
  <path fill-rule="evenodd" clip-rule="evenodd" d="M20.8962 11.9111V19.1187H19.8962V11.9111H20.8962Z" fill="currentColor"/>
  <path fill-rule="evenodd" clip-rule="evenodd" d="M24 16.0149H16.7924V15.0149H24V16.0149Z" fill="currentColor"/>
</svg>
