<svg xmlns="http://www.w3.org/2000/svg" width="24" height="24" viewBox="0 0 24 24">
  <defs>
    <filter id="3sy19rivra" color-interpolation-filters="auto">
      <feColorMatrix in="SourceGraphic" values="0 0 0 0 0.000000 0 0 0 0 0.000000 0 0 0 0 0.000000 0 0 0 1.000000 0"/>
    </filter>
    <filter id="5rn1yf1llb" color-interpolation-filters="auto">
      <feColorMatrix in="SourceGraphic" values="0 0 0 0 0.000000 0 0 0 0 0.000000 0 0 0 0 0.000000 0 0 0 1.000000 0"/>
    </filter>
  </defs>
  <g fill="none" fill-rule="evenodd">
    <g>
      <g>
        <g>
          <path d="M0 0H24V24H0z" transform="translate(-3.000000, -3.000000) translate(3.000000, 3.000000)"/>
        </g>
        <path fill="currentColor" d="M19.094 9.547c-.233-.554-.533-1.077-.889-1.56-.358-.486-.774-.93-1.237-1.32-.688-.583-1.48-1.048-2.344-1.364-.83-.304-1.728-.47-2.661-.47-.93 0-1.82.164-2.64.466-.855.314-1.636.776-2.314 1.354-.454.387-.862.826-1.215 1.309-.35.479-.647.998-.878 1.549l-.689-.29c.256-.608.58-1.179.963-1.701.387-.529.835-1.01 1.333-1.436.746-.636 1.604-1.143 2.541-1.488.904-.332 1.88-.514 2.899-.514 1.021 0 2.005.183 2.919.518.945.346 1.814.856 2.57 1.495.506.428.962.915 1.357 1.45.388.525.716 1.1.974 1.712l-.689.29z" transform="translate(-3.000000, -3.000000) translate(3.000000, 3.000000)"/>
        <g filter="url(#3sy19rivra)" transform="translate(-3.000000, -3.000000) translate(3.000000, 3.000000)">
          <g fill="currentColor">
            <path d="M2.32 5.588l-.43-.757C1.236 5.166.765 5.69.431 6.337.086 7.008-.026 7.754.01 8.502l.02.416h7.784l.02-.418c.033-.748-.079-1.494-.425-2.165-.332-.644-.835-1.135-1.455-1.5l-.432.752.063.037-.001.003c.443.275.81.637 1.052 1.107.19.369.289.773.322 1.186l.01.126H.875l.01-.126c.032-.412.13-.816.32-1.185.243-.47.611-.834 1.056-1.11l-.001-.003.06-.034z" transform="translate(8.085938, 10.089844)"/>
            <path d="M3.92 5.054c.672 0 1.31-.268 1.783-.742.474-.474.74-1.111.74-1.782s-.265-1.309-.74-1.783C5.23.273 4.593.007 3.922.007c-.672 0-1.309.268-1.783.743-.474.474-.74 1.11-.74 1.781 0 .671.265 1.309.74 1.783.474.474 1.111.74 1.783.74zM2.755 3.698c-.31-.31-.484-.728-.484-1.167 0-.44.173-.858.484-1.17.31-.31.728-.481 1.167-.481.439 0 .856.173 1.166.484.31.31.484.727.484 1.166 0 .44-.173.858-.484 1.17-.31.31-.728.482-1.166.482-.44 0-.857-.174-1.167-.484z" transform="translate(8.085938, 10.089844)"/>
          </g>
        </g>
        <g filter="url(#5rn1yf1llb)" transform="translate(-3.000000, -3.000000) translate(3.000000, 3.000000)">
          <g fill="currentColor" fill-rule="nonzero">
            <path fill="currentColor" d="M2.737 3.588c-.494 0-.94-.201-1.265-.525-.324-.324-.525-.772-.525-1.265 0-.493.201-.94.525-1.264.325-.325.772-.526 1.265-.526.493 0 .94.2 1.265.524.324.324.525.772.525 1.265 0 .493-.201.94-.525 1.264-.325.325-.773.527-1.265.527zm-.735-1.055c.189.188.448.305.735.305s.547-.117.735-.304c.188-.189.305-.45.305-.737 0-.286-.117-.546-.305-.734-.189-.189-.449-.305-.735-.305-.288 0-.547.116-.735.303-.188.189-.305.45-.305.737 0 .286.117.546.305.735z" transform="translate(2.519531, 9.878906)"/>
            <path d="M1.76 3.9l-.043.024c-.352.205-.597.463-.75.76-.12.232-.187.492-.21.773h3.959c-.022-.281-.09-.542-.21-.774-.152-.297-.397-.555-.75-.758v-.001l-.043-.025.372-.647.045.025h.001c.483.28.823.64 1.04 1.064.233.45.322.96.297 1.507l-.016.36H.023L.006 5.85c-.026-.548.063-1.058.295-1.508.218-.423.558-.785 1.041-1.065l.003-.001.045-.026.37.65z" transform="translate(2.519531, 9.878906)"/>
          </g>
        </g>
        <path fill="currentColor" stroke="currentColor" d="M19.5 17.5L19.5 11.5" transform="translate(-3.000000, -3.000000) translate(3.000000, 3.000000)"/>
        <path fill="currentColor" stroke="currentColor" d="M19.5 17.5L19.5 11.5" transform="translate(-3.000000, -3.000000) translate(3.000000, 3.000000) translate(19.500000, 14.500000) rotate(90.000000) translate(-19.500000, -14.500000)"/>
      </g>
    </g>
  </g>
</svg>
