<svg xmlns="http://www.w3.org/2000/svg" xmlns:xlink="http://www.w3.org/1999/xlink" viewBox="0 0 512 512"><path fill="currentColor" d="M394 336.247V235l9 7.714V344z"/><path fill="#F6BE00" d="M374.158 297.34c-3.92-4.982-9.053-8.302-15.402-9.964 5.132-2.3 9.187-5.748 12.16-10.346 3.107-4.6 4.662-9.645 4.662-15.139 0-8.43-3.448-15.646-10.337-21.652-7.027-6.005-15.402-9.007-25.13-9.007h-28.906l6.44 7.334s15.3.139 22.465.139c7.429 0 13.781 2.236 19.05 6.708 5.27 4.598 7.906 10.092 7.906 16.478 0 6.133-1.895 11.305-5.676 15.521-3.784 4.346-8.308 6.516-13.58 6.516h-12.97l6.224 7.092 6.747-.002c6.618 0 12.226 2.298 16.822 6.897 4.728 4.474 7.094 9.966 7.094 16.48 0 7.41-2.908 13.797-8.713 19.163-5.95 5.24-13.044 7.95-21.284 7.856-10.805-.12-16.218-1.821-22.85-6.368-4.036-2.766-10.477-10.014-17.416-17.982L272.21 283.47l10.318.031c10.41 0 14.116-1.358 20.197-6.031 8.534-6.559 10.83-23.183 6.264-31.53-3.49-6.38-9.829-14.95-24.122-14.815l-59.468.138 5.375 6.152 53.655.102c8.78 0 15.726 5.533 18.238 11.672 1.311 3.2 4.044 13.846-3.322 21.465-4.77 4.934-8.582 6.686-17.164 6.686l-15.812.02h-8.981l37.514 42.784a443.729 443.729 0 004.663 5.317l2.533 2.889h.081c6.031 6.56 8.866 8.829 12.005 11.068 5.95 4.248 16.872 8.32 27.546 8.32 10.671 0 19.727-3.257 27.157-9.773 7.566-6.514 11.35-14.37 11.35-23.569 0-6.386-2.026-12.072-6.079-17.054"/><path fill="currentColor" d="M489.66 290.666c-2.135-2.931-2.871-3.472-4.977-5.3-1.736-1.505-4.108-3.054-6.78-4.345-3.448-1.667-7.447-2.974-13.143-2.852l-13.212.046-4.548-.006c-8.58 0-12.393-1.784-17.164-6.812-7.366-7.761-4.632-18.609-3.321-21.869 2.513-6.254 9.459-11.89 18.239-11.89l36.864-.085-5.567-6.43-31.735.002c-14.294-.137-20.633 8.593-24.122 15.094-4.567 8.504-2.272 25.441 6.262 32.124 6.08 4.759 9.784 6.145 20.197 6.145l2.649-.01 14.352.169c6.148 0 12.462 2.406 16.729 6.76 4.393 4.232 6.589 9.428 6.589 15.593 0 7.013-2.7 13.056-8.092 18.133-5.525 4.957-12.114 7.522-19.766 7.434-10.036-.115-15.063-1.722-21.223-6.026-3.326-2.32-9.326-9.118-14.926-15.629h-8.647c10.625 12.532 15.316 16.936 19.211 19.766 5.527 4.019 15.67 7.873 25.585 7.873 9.911 0 18.322-3.082 25.223-9.248 7.026-6.165 10.54-13.599 10.54-22.303 0-6.043-1.684-11.488-5.217-16.334"/><path fill="#F6BE00" d="M150.115 303.412c-10.561 0-19.123-8.467-19.123-18.91 0-10.444 8.562-18.911 19.123-18.911 10.562 0 19.124 8.467 19.124 18.91 0 10.444-8.562 18.91-19.124 18.91z"/><path fill="#FCBA12" d="M216.213 326.115c1.052 4.165-1.507 8.385-5.719 9.425-4.211 1.042-8.478-1.49-9.53-5.655-1.052-4.165 1.507-8.383 5.718-9.425 4.212-1.04 8.479 1.492 9.53 5.655"/><g transform="translate(73.465 208.678)"><mask fill="currentColor"><path d="M.496.515h152.31v150.618H.495z"/></mask><path fill="#F6BE00" d="M123.194 127.486c-12.369 10.904-28.67 17.54-46.544 17.54-38.648 0-69.979-30.982-69.979-69.203 0-38.22 31.33-69.202 69.979-69.202 38.648 0 69.98 30.983 69.98 69.202a68.304 68.304 0 01-6.93 30.06 14.42 14.42 0 015.283 3.193 74.299 74.299 0 007.822-33.253c0-41.59-34.096-75.308-76.155-75.308C34.59.515.496 34.233.496 75.823c0 41.592 34.094 75.31 76.154 75.31 19.673 0 37.601-7.379 51.116-19.488a14.387 14.387 0 01-4.572-4.16" mask="url(#b)"/></g><path fill="currentColor" d="M191.713 170.604c-4.332-.28-7.615-3.978-7.33-8.264.28-4.284 4.02-7.529 8.354-7.251 4.332.28 7.614 3.98 7.333 8.264-.283 4.284-4.025 7.53-8.357 7.251z"/><g transform="translate(18 152)"><mask fill="currentColor"><path d="M.001.253H160.6v195.485H0z"/></mask><path fill="currentColor" d="M160.599 3.695C95.849-11.394 28.838 24.291 6.853 87.838a128.217 128.217 0 00-6.852 34.361c.248 31.795 9.381 52.31 24.91 73.539C5.454 165.187-.381 126.523 12.357 89.7 33.325 29.1 97.141-4.99 158.897 9.207a15.07 15.07 0 011.702-5.512" mask="url(#d)"/></g><path fill="currentColor" d="M207.315 165.981a15.079 15.079 0 01-2.255 5.328c18.717 9.32 34.25 22.881 45.784 39.062h7.02a129.758 129.758 0 00-50.549-44.39"/><path fill="currentColor" d="M62.196 252.274c-.28 4.283-4.023 7.53-8.357 7.25-4.33-.279-7.613-3.978-7.33-8.263.283-4.284 4.023-7.531 8.355-7.251 4.333.28 7.615 3.98 7.332 8.264m-9.594 14.301c.04-.225.1-.444.142-.667a14.472 14.472 0 01-4.419-1.212c-.068.354-.157.698-.224 1.053a100.797 100.797 0 00-1.35 27.509c3.878 24.706 13.36 39.632 27.902 54.388-18.68-21.565-27.698-50.982-22.051-81.07m115.5-82.352c-45.848-8.412-90.213 14.64-110.419 53.698a14.35 14.35 0 014.242 1.728c19.385-37.12 61.662-58.993 105.345-50.978 17.625 3.235 33.242 10.96 45.936 21.723h6.844c-13.923-13.066-31.669-22.45-51.948-26.17"/></svg>