<svg xmlns="http://www.w3.org/2000/svg" xmlns:xlink="http://www.w3.org/1999/xlink" viewBox="0 0 271 100"><defs/><defs><path id="a" d="M.188.43h57.688v57.31H.188z"/><path id="c" d="M0 .331h60.828v74.38H0z"/></defs><g fill="none" fill-rule="evenodd"><path fill="currentColor" d="M188.306 78.727V40.735l2.556 2.895v38.006z"/><path fill="#FCBA12" d="M180.064 65.9c-1.485-1.896-3.43-3.16-5.834-3.792 1.944-.875 3.48-2.187 4.606-3.936 1.177-1.75 1.766-3.67 1.766-5.76 0-3.208-1.306-5.954-3.916-8.239-2.661-2.284-5.833-3.427-9.518-3.427H156.22l2.439 2.79s5.795.053 8.509.053c2.813 0 5.22.851 7.215 2.553 1.996 1.75 2.995 3.84 2.995 6.27 0 2.333-.718 4.3-2.15 5.905-1.434 1.654-3.147 2.48-5.144 2.48h-4.913l2.358 2.698h2.555c2.507 0 4.631.874 6.372 2.623 1.79 1.702 2.687 3.792 2.687 6.27 0 2.82-1.102 5.25-3.3 7.292-2.254 1.994-4.94 3.025-8.062 2.99-4.092-.047-6.142-.694-8.654-2.424-1.529-1.052-3.969-3.81-6.597-6.842l-11.08-12.782 3.908.012c3.943 0 5.347-.517 7.65-2.295 3.232-2.496 4.102-8.821 2.372-11.997-1.322-2.428-3.722-5.688-9.136-5.637l-22.524.052 2.036 2.341 20.322.04c3.326 0 5.957 2.104 6.908 4.44.497 1.218 1.532 5.268-1.258 8.167-1.807 1.878-3.25 2.544-6.501 2.544l-5.989.008h-3.402l14.21 16.279c.652.758 1.236 1.427 1.765 2.023l.96 1.099h.03c2.285 2.496 3.358 3.36 4.547 4.211 2.254 1.616 6.39 3.166 10.433 3.166 4.042 0 7.472-1.24 10.286-3.719 2.866-2.478 4.3-5.467 4.3-8.967 0-2.43-.768-4.594-2.303-6.49"/><path fill="currentColor" d="M223.81 63.36c-.808-1.115-1.087-1.321-1.884-2.017-.658-.572-1.556-1.162-2.568-1.653-1.306-.634-2.82-1.131-4.978-1.085l-5.004.018-1.723-.003c-3.25 0-4.694-.679-6.501-2.592-2.79-2.953-1.754-7.08-1.258-8.32.952-2.38 3.583-4.525 6.908-4.525l13.963-.032-2.109-2.446h-12.02c-5.413-.052-7.815 3.27-9.136 5.744-1.73 3.235-.86 9.68 2.372 12.222 2.303 1.811 3.706 2.338 7.65 2.338l1.003-.003 5.436.064c2.328 0 4.72.915 6.336 2.572 1.664 1.61 2.496 3.587 2.496 5.933 0 2.668-1.023 4.968-3.065 6.9-2.093 1.885-4.588 2.861-7.487 2.828-3.8-.044-5.705-.655-8.038-2.293-1.26-.883-3.532-3.47-5.653-5.946h-3.275c4.024 4.768 5.8 6.443 7.276 7.52 2.093 1.53 5.935 2.996 9.69 2.996 3.754 0 6.94-1.173 9.554-3.519 2.66-2.346 3.992-5.174 3.992-8.486 0-2.3-.638-4.37-1.976-6.215"/><path fill="#FCBA12" d="M102.45 61.014c0 3.974-3.244 7.196-7.244 7.196-4 0-7.243-3.222-7.243-7.196 0-3.973 3.243-7.195 7.243-7.195s7.243 3.222 7.243 7.195m17.792 15.834a2.956 2.956 0 01-2.166 3.586 2.977 2.977 0 01-3.61-2.151 2.956 2.956 0 012.166-3.587 2.978 2.978 0 013.61 2.152"/><g transform="translate(66.174 31.93)"><mask id="b" fill="#fff"><use xlink:href="#a"/></mask><path fill="#FCBA12" d="M46.66 48.742a26.502 26.502 0 01-17.628 6.674c-14.639 0-26.505-11.789-26.505-26.331s11.866-26.33 26.505-26.33c14.638 0 26.505 11.788 26.505 26.33a26.08 26.08 0 01-2.625 11.437c.757.26 1.437.676 2.001 1.215a28.375 28.375 0 002.963-12.652C57.876 13.26 44.962.43 29.032.43 13.102.43.188 13.26.188 29.085S13.1 57.739 29.032 57.739a28.845 28.845 0 0019.36-7.415 5.458 5.458 0 01-1.731-1.582" mask="url(#b)"/></g><path fill="currentColor" d="M114.127 14.919a2.971 2.971 0 01-3.165 2.759 2.964 2.964 0 01-2.777-3.144c.106-1.63 1.523-2.865 3.164-2.76a2.965 2.965 0 012.778 3.145"/><g transform="translate(45.167 10.365)"><mask id="d" fill="#fff"><use xlink:href="#c"/></mask><path fill="currentColor" d="M60.828 1.64C36.303-4.1 10.922 9.478 2.596 33.657A48.98 48.98 0 000 46.73c.094 12.098 3.554 19.903 9.435 27.98-7.37-11.624-9.58-26.335-4.755-40.345C12.622 11.307 36.793-1.664 60.183 3.738a5.753 5.753 0 01.645-2.097" mask="url(#d)"/></g><path fill="currentColor" d="M116.871 15.919a5.751 5.751 0 01-.854 2.027 47.036 47.036 0 0117.34 14.863h2.66a49.218 49.218 0 00-19.146-16.89"/><path fill="#A0AAB1" d="M61.906 48.752c-.106 1.63-1.524 2.866-3.165 2.76a2.965 2.965 0 01-2.776-3.145 2.97 2.97 0 013.164-2.76 2.965 2.965 0 012.777 3.145m-3.634 5.442c.016-.086.038-.17.054-.254a5.462 5.462 0 01-1.673-.461c-.026.135-.06.265-.085.4a38.525 38.525 0 00-.511 10.467c1.468 9.4 5.06 15.08 10.567 20.694-7.075-8.205-10.49-19.398-8.352-30.846m43.747-31.334c-17.365-3.2-34.169 5.57-41.822 20.432a5.421 5.421 0 011.606.657c7.343-14.124 23.355-22.446 39.9-19.396a37.118 37.118 0 0117.399 8.265h2.592a38.842 38.842 0 00-19.675-9.958"/></g></svg>