<svg xmlns="http://www.w3.org/2000/svg" xmlns:xlink="http://www.w3.org/1999/xlink" viewBox="0 0 183 90"><defs><path id="a" d="M.187.43h57.475v57.31H.187z"/><path id="c" d="M0 .331h60.603v74.38H0z"/></defs><g fill="none" fill-rule="evenodd"><path fill="#787C82" d="M144.61 73.727V35.735l2.547 2.895v38.006z"/><path fill="#F6BE00" d="M136.4 60.9c-1.48-1.896-3.417-3.16-5.813-3.792 1.937-.875 3.467-2.187 4.589-3.936 1.172-1.75 1.76-3.67 1.76-5.76 0-3.208-1.302-5.954-3.902-8.239-2.651-2.284-5.812-3.427-9.483-3.427h-10.907l2.43 2.79s5.774.053 8.477.053c2.803 0 5.2.851 7.189 2.553 1.988 1.75 2.983 3.84 2.983 6.27 0 2.333-.715 4.3-2.142 5.905-1.428 1.654-3.135 2.48-5.124 2.48h-4.895l2.349 2.698h2.546c2.497 0 4.614.874 6.348 2.623 1.784 1.702 2.677 3.792 2.677 6.27 0 2.82-1.098 5.25-3.288 7.292-2.245 1.994-4.922 3.025-8.032 2.99-4.077-.047-6.12-.694-8.622-2.424-1.523-1.052-3.954-3.81-6.572-6.842l-11.04-12.782 3.894.012c3.929 0 5.327-.517 7.621-2.295 3.22-2.496 4.087-8.821 2.364-11.997-1.317-2.428-3.709-5.688-9.103-5.637l-22.44.052 2.028 2.341 20.247.04c3.313 0 5.935 2.104 6.883 4.44.494 1.218 1.526 5.268-1.254 8.167-1.8 1.878-3.239 2.544-6.477 2.544l-5.967.008h-3.389l14.156 16.279c.65.758 1.233 1.427 1.76 2.023l.956 1.099h.03c2.276 2.496 3.346 3.36 4.53 4.211 2.246 1.616 6.367 3.166 10.395 3.166 4.027 0 7.444-1.24 10.248-3.719 2.855-2.478 4.283-5.467 4.283-8.967 0-2.43-.764-4.594-2.294-6.49"/><path fill="#787C82" d="M179.985 58.36c-.806-1.115-1.084-1.321-1.878-2.017-.655-.572-1.55-1.162-2.559-1.653-1.3-.634-2.81-1.131-4.96-1.085l-4.985.018-1.716-.003c-3.238 0-4.677-.679-6.477-2.592-2.78-2.953-1.748-7.08-1.253-8.32.948-2.38 3.569-4.525 6.882-4.525l13.911-.032-2.1-2.446h-11.976c-5.394-.052-7.786 3.27-9.103 5.744-1.723 3.235-.857 9.68 2.363 12.222 2.295 1.811 3.692 2.338 7.622 2.338l1-.003 5.415.064c2.32 0 4.703.915 6.313 2.572 1.658 1.61 2.487 3.587 2.487 5.933 0 2.668-1.019 4.968-3.054 6.9-2.085 1.885-4.571 2.861-7.459 2.828-3.787-.044-5.684-.655-8.009-2.293-1.255-.883-3.519-3.47-5.632-5.946h-3.263c4.01 4.768 5.78 6.443 7.25 7.52 2.085 1.53 5.912 2.996 9.654 2.996 3.74 0 6.914-1.173 9.518-3.519 2.652-2.346 3.978-5.174 3.978-8.486 0-2.3-.636-4.37-1.969-6.215"/><path fill="#F6BE00" d="M51.855 63.21c-3.986 0-7.216-3.222-7.216-7.196 0-3.973 3.23-7.195 7.216-7.195 3.985 0 7.216 3.222 7.216 7.195 0 3.974-3.23 7.196-7.216 7.196z"/><path fill="#FCBA12" d="M76.797 71.848a2.956 2.956 0 01-2.158 3.586 2.957 2.957 0 11-1.439-5.738c1.59-.395 3.2.568 3.597 2.152"/><g transform="translate(22.93 26.93)"><mask id="b" fill="#fff"><use xlink:href="#a"/></mask><path fill="#F6BE00" d="M46.488 48.742a26.35 26.35 0 01-17.564 6.674c-14.584 0-26.407-11.789-26.407-26.331S14.34 2.755 28.924 2.755c14.585 0 26.408 11.788 26.408 26.33 0 4.098-.94 7.978-2.615 11.437.754.26 1.431.676 1.993 1.215a28.462 28.462 0 002.952-12.652C57.662 13.26 44.796.43 28.924.43 13.053.43.187 13.26.187 29.085s12.866 28.654 28.737 28.654a28.68 28.68 0 0019.29-7.415 5.445 5.445 0 01-1.726-1.582" mask="url(#b)"/></g><path fill="#787C82" d="M67.552 12.678a2.96 2.96 0 01-2.766-3.144 2.963 2.963 0 013.153-2.76 2.962 2.962 0 012.767 3.145 2.964 2.964 0 01-3.154 2.759z"/><g transform="translate(2 5.365)"><mask id="d" fill="#fff"><use xlink:href="#c"/></mask><path fill="#787C82" d="M60.603 1.64C36.17-4.1 10.883 9.478 2.586 33.657A49.14 49.14 0 000 46.73c.094 12.098 3.54 19.903 9.4 27.98C2.058 63.087-.144 48.376 4.663 34.366c7.912-23.059 31.994-36.03 55.298-30.628a5.768 5.768 0 01.642-2.097" mask="url(#d)"/></g><path fill="#787C82" d="M73.44 10.919a5.763 5.763 0 01-.851 2.027A46.91 46.91 0 0189.866 27.81h2.649A49.095 49.095 0 0073.44 10.92"/><path fill="#A0AAB1" d="M18.678 43.752a2.963 2.963 0 01-3.154 2.76 2.96 2.96 0 01-2.766-3.145 2.963 2.963 0 013.153-2.76 2.96 2.96 0 012.767 3.145m-3.621 5.442c.016-.086.038-.17.054-.254a5.426 5.426 0 01-1.668-.461c-.025.135-.059.265-.084.4a38.665 38.665 0 00-.51 10.467c1.464 9.4 5.042 15.08 10.53 20.694-7.05-8.205-10.453-19.398-8.322-30.846M58.642 17.86c-17.3-3.2-34.042 5.57-41.667 20.432a5.39 5.39 0 011.6.657c7.315-14.124 23.27-22.446 39.753-19.396a36.923 36.923 0 0117.335 8.265h2.582a38.648 38.648 0 00-19.603-9.958"/></g></svg>