<svg viewBox="0 0 30 30" fill="currentColor" 
  xmlns="http://www.w3.org/2000/svg">
  <path fill-rule="evenodd" clip-rule="evenodd" d="M15 30C23.2843 30 30 23.2843 30 15C30 6.71573 23.2843 0 15 0C6.71573 0 0 6.71573 0 15C0 23.2843 6.71573 30 15 30ZM3.306 18.077L3.72 16.717H5.802L6.216 18.077H7.521L5.498 12.343H4.018L2 18.076H3.305L3.306 18.077ZM4.025 15.702H5.513C5.13 14.47 4.915 13.774 4.867 13.612C4.819 13.45 4.784 13.323 4.763 13.23C4.677 13.562 4.431 14.387 4.025 15.702ZM10.767 17.512C10.496 17.942 10.084 18.156 9.529 18.156C9.016 18.156 8.613 17.957 8.32 17.559C8.027 17.16 7.88 16.608 7.88 15.902C7.88 15.186 8.029 14.629 8.328 14.229C8.626 13.829 9.037 13.629 9.56 13.629C10.11 13.629 10.529 13.843 10.817 14.269H10.857C10.797 13.944 10.767 13.654 10.767 13.399V12H11.962V18.078H11.048L10.817 17.512H10.767ZM9.947 17.207C9.671 17.207 9.459 17.1 9.31 16.885C9.162 16.67 9.087 16.348 9.087 15.918C9.087 15.488 9.161 15.161 9.308 14.936C9.455 14.71 9.662 14.598 9.928 14.598C10.253 14.598 10.488 14.699 10.632 14.902C10.777 15.106 10.849 15.442 10.849 15.91V16.04C10.836 16.464 10.759 16.764 10.617 16.942C10.475 17.119 10.251 17.207 9.947 17.207ZM14.4 18.078V16.024C14.4 15.511 14.469 15.142 14.607 14.918C14.745 14.694 14.967 14.582 15.271 14.582C15.498 14.582 15.664 14.661 15.769 14.818C15.875 14.976 15.927 15.212 15.927 15.528V18.078H17.119V15.886C17.119 15.433 17.191 15.102 17.335 14.894C17.48 14.685 17.698 14.581 17.99 14.581C18.216 14.581 18.382 14.66 18.488 14.817C18.593 14.975 18.646 15.211 18.646 15.527V18.077H19.841V15.23C19.841 14.67 19.714 14.263 19.461 14.009C19.207 13.755 18.832 13.628 18.337 13.628C18.051 13.628 17.794 13.684 17.566 13.796C17.338 13.908 17.166 14.066 17.048 14.269H16.943C16.711 13.842 16.268 13.628 15.615 13.628C15.328 13.628 15.075 13.685 14.853 13.798C14.632 13.911 14.463 14.068 14.345 14.268H14.279L14.119 13.71H13.209V18.077H14.399L14.4 18.078ZM22.255 13.711V18.078H21.064V13.711H22.255ZM21.662 13.168C21.878 13.168 22.04 13.117 22.148 13.014C22.256 12.911 22.31 12.767 22.31 12.582C22.31 12.194 22.094 12 21.662 12C21.229 12 21.013 12.194 21.013 12.582C21.013 12.972 21.229 13.168 21.662 13.168ZM24.697 16.024V18.078H23.506V13.711H24.416L24.576 14.27H24.642C24.775 14.059 24.958 13.899 25.191 13.791C25.424 13.683 25.689 13.629 25.986 13.629C26.494 13.629 26.879 13.766 27.142 14.041C27.405 14.316 27.537 14.712 27.537 15.231V18.078H26.345V15.528C26.345 15.212 26.289 14.976 26.177 14.818C26.065 14.661 25.887 14.582 25.642 14.582C25.309 14.582 25.068 14.693 24.919 14.916C24.771 15.139 24.697 15.508 24.697 16.024Z"/>
</svg>
