<svg width="24" height="24" viewBox="0 0 24 24" fill="none" xmlns="http://www.w3.org/2000/svg">
<path d="M24 5.472V24H2.812V5.472H24ZM0 4.768C0.4416 5.0976 0.9784 5.3256 1.5632 5.4216V23.912C0.664 23.6744 0 22.9296 0 22.04V4.7688V4.768ZM19.392 8.8H7.008C6.6728 8.8 6.4 9.1656 6.4 9.6192V19.9824C6.4 20.4336 6.6728 20.8 7.008 20.8H19.392C19.7272 20.8 20 20.4344 20 19.9824V9.6192C20 9.1656 19.7272 8.8 19.392 8.8V8.8ZM19.2 9.6V20H7.2V9.6H19.2ZM14.256 13.596H12.944V18.4H14.256V13.596ZM13.6024 11.7144C12.8888 11.7144 12.8888 11.7144 12.8888 12.3544C12.8888 12.9992 12.8888 12.9992 13.6024 12.9992C13.9584 12.9992 13.9584 12.9992 14.1368 12.8288C14.3152 12.6592 14.3152 12.6592 14.3152 12.3544C14.3152 11.7144 14.3152 11.7144 13.6024 11.7144ZM23.576 0C22.8776 1.512 22.8936 2.7864 23.6296 4.344H2.168C0.972 4.344 0 3.4624 0 2.3816V1.9608C0 0.8792 0.972 0 2.168 0H23.576ZM20.9792 1.6H3.0192C2.6768 1.6 2.4 1.9248 2.4 2.3264C2.4 2.7288 2.6768 3.0544 3.0192 3.0544H20.98C21.3224 3.0544 21.6 2.7296 21.6 2.3264C21.6 1.9248 21.3224 1.6 20.98 1.6H20.9792Z" fill="currentColor"/>
</svg>
