<svg xmlns="http://www.w3.org/2000/svg"
  xmlns:xlink="http://www.w3.org/1999/xlink" width="50" height="50" viewBox="0 0 50 50">
  <defs>
    <path id="dci6bhl47c" d="M32.573 18.291H4.403c-2.138 0-3.871 2.17-3.871 4.846v12.468c0 2.676 1.733 4.845 3.87 4.845h28.172c2.137 0 3.87-2.17 3.87-4.845V23.137c0-2.676-1.733-4.846-3.87-4.846z"/>
    <path id="17oatiofod" d="M0.03 0.031L9.116 0.031 9.116 9.087 0.03 9.087z"/>
    <path id="pk7urha1df" d="M0 0.015L9.581 0.015 9.581 11.77 0 11.77z"/>
    <filter id="68l0icefea" width="124.5%" height="102.6%" x="-12.3%" y="-1.3%" filterUnits="objectBoundingBox">
      <feOffset dx="3" dy="2" in="SourceAlpha" result="shadowOffsetOuter1"/>
      <feGaussianBlur in="shadowOffsetOuter1" result="shadowBlurOuter1" stdDeviation="2"/>
      <feColorMatrix in="shadowBlurOuter1" result="shadowMatrixOuter1" values="0 0 0 0 0.0819730304 0 0 0 0 0.0889130016 0 0 0 0 0.0941179801 0 0 0 0.5 0"/>
      <feMerge>
        <feMergeNode in="shadowMatrixOuter1"/>
        <feMergeNode in="SourceGraphic"/>
      </feMerge>
    </filter>
    <filter id="p7yvgsvgpb" width="139%" height="163.2%" x="-19.5%" y="-22.6%" filterUnits="objectBoundingBox">
      <feOffset dy="2" in="SourceAlpha" result="shadowOffsetOuter1"/>
      <feGaussianBlur in="shadowOffsetOuter1" result="shadowBlurOuter1" stdDeviation="2"/>
      <feColorMatrix in="shadowBlurOuter1" values="0 0 0 0 0.0618206522 0 0 0 0 0.0602456862 0 0 0 0 0.0602456862 0 0 0 0.5 0"/>
    </filter>
  </defs>
  <g fill="none" fill-rule="evenodd" opacity=".55">
    <g filter="url(#68l0icefea)" transform="translate(-30 -894)">
      <g>
        <g>
          <path fill="#FFF" fill-rule="nonzero" d="M19.471 21.635c0 .542-.44.983-.983.983-.543 0-.984-.44-.984-.983V3.934c0-.543.44-.984.984-.984.543 0 .983.44.983.984v17.7z" transform="translate(30 894) translate(6.25 2.5)"/>
          <path fill="#FFF" fill-rule="nonzero" d="M23.732 21.831c0 .869-.704 1.574-1.573 1.574h-7.343c-.868 0-1.573-.705-1.573-1.574v-4.327c0-.868.705-1.573 1.573-1.573h7.343c.869 0 1.573.705 1.573 1.573v4.327z" transform="translate(30 894) translate(6.25 2.5)"/>
          <path fill="#FFF" fill-rule="nonzero" d="M36.444 42.491c0 1.822-1.733 3.3-3.87 3.3H4.401c-2.137 0-3.87-1.478-3.87-3.3v-20.9c0-1.822 1.733-3.3 3.87-3.3h28.172c2.137 0 3.87 1.478 3.87 3.3v20.9z" transform="translate(30 894) translate(6.25 2.5)"/>
          <g fill-rule="nonzero" transform="translate(30 894) translate(6.25 2.5)">
            <use fill="#000" filter="url(#p7yvgsvgpb)" xlink:href="#dci6bhl47c"/>
            <use fill="#FFF" xlink:href="#dci6bhl47c"/>
          </g>
          <g>
            <path fill="#333F48" d="M7.882 9.104c-.63 0-1.141-.509-1.141-1.137s.51-1.137 1.14-1.137c.631 0 1.142.51 1.142 1.137 0 .628-.511 1.137-1.141 1.137zM11.825 10.47c.063.25-.09.504-.341.566-.251.063-.506-.09-.569-.34-.062-.25.09-.504.342-.567.25-.062.505.09.568.34z" transform="translate(30 894) translate(6.25 2.5) translate(3.41 23.068)"/>
            <g transform="translate(30 894) translate(6.25 2.5) translate(3.41 23.068) translate(3.309 3.408)">
              <mask id="lox22x9mbe" fill="#fff">
                <use xlink:href="#17oatiofod"/>
              </mask>
              <path fill="#333F48" d="M7.35 7.666C6.612 8.32 5.64 8.72 4.573 8.72 2.267 8.72.398 6.857.398 4.56.398 2.26 2.268.397 4.573.397c2.306 0 4.175 1.863 4.175 4.161 0 .648-.149 1.261-.414 1.808.12.04.227.106.316.192.298-.603.466-1.282.466-2 0-2.5-2.034-4.528-4.543-4.528C2.063.03.03 2.058.03 4.559c0 2.501 2.034 4.528 4.543 4.528 1.174 0 2.243-.443 3.05-1.171-.109-.063-.202-.148-.273-.25z" mask="url(#lox22x9mbe)"/>
            </g>
            <path fill="#333F48" d="M10.364 1.119c-.259-.017-.455-.24-.438-.497.017-.258.24-.453.499-.436.258.017.454.24.437.497-.017.257-.24.452-.498.436z" transform="translate(30 894) translate(6.25 2.5) translate(3.41 23.068)"/>
            <g transform="translate(30 894) translate(6.25 2.5) translate(3.41 23.068)">
              <mask id="1rfijnw69g" fill="#fff">
                <use xlink:href="#pk7urha1df"/>
              </mask>
              <path fill="#333F48" d="M9.581.222C5.718-.685 1.721 1.461.41 5.282.174 5.966.04 6.66 0 7.348c.015 1.911.56 3.145 1.486 4.422C.326 9.933-.023 7.608.737 5.394 1.988 1.75 5.795-.3 9.48.554c.013-.12.048-.231.101-.332z" mask="url(#1rfijnw69g)"/>
            </g>
            <path fill="#333F48" d="M11.294.84c-.024.118-.07.226-.134.321 1.116.56 2.043 1.376 2.731 2.349h.42c-.737-1.113-1.763-2.045-3.017-2.67zM2.637 6.03c-.017.257-.24.452-.499.435-.258-.016-.454-.239-.437-.497.017-.257.24-.452.498-.436.259.017.455.24.438.497zM2.064 6.89l.009-.04c-.094-.011-.182-.036-.264-.074-.004.022-.01.042-.013.064-.104.559-.128 1.114-.08 1.654.23 1.485.796 2.383 1.664 3.27-1.115-1.297-1.653-3.066-1.316-4.875zM8.955 1.938c-2.735-.506-5.382.88-6.588 3.228.092.022.177.057.254.104 1.156-2.232 3.678-3.547 6.284-3.065 1.052.195 1.983.659 2.74 1.306h.41c-.832-.785-1.89-1.35-3.1-1.573z" transform="translate(30 894) translate(6.25 2.5) translate(3.41 23.068)"/>
          </g>
          <path fill="#FFF" fill-rule="nonzero" d="M4.402 18.291c-1.01 0-1.924.397-2.613 1.032.69.636 1.603 1.032 2.613 1.032h28.172c1.01 0 1.924-.397 2.613-1.032-.689-.635-1.602-1.032-2.613-1.032H4.402z" transform="translate(30 894) translate(6.25 2.5)"/>
          <g fill-rule="nonzero">
            <path fill="#FFF" d="M6.785 12.013c3.11 0 5.63-2.52 5.63-5.63 0-3.109-2.52-5.63-5.63-5.63-3.109 0-5.63 2.521-5.63 5.63 0 3.11 2.521 5.63 5.63 5.63z" transform="translate(30 894) translate(6.25 2.5) translate(20.455 23.864)"/>
            <path fill="#333F48" d="M6.785 12.407c-3.322 0-6.023-2.702-6.023-6.023 0-3.32 2.702-6.023 6.023-6.023 3.322 0 6.023 2.702 6.023 6.023 0 3.32-2.701 6.023-6.023 6.023zm0-11.26c-2.887 0-5.236 2.35-5.236 5.236 0 2.888 2.35 5.237 5.236 5.237 2.888 0 5.237-2.35 5.237-5.237s-2.35-5.236-5.237-5.236z" transform="translate(30 894) translate(6.25 2.5) translate(20.455 23.864)"/>
            <path fill="#333F48" d="M9.642 5.221H7.948V3.527c0-.295-.237-.532-.532-.532H6.154c-.294 0-.532.237-.532.532V5.22H3.927c-.293 0-.53.237-.53.532v1.263c0 .293.237.532.53.532h1.695v1.694c0 .293.238.53.532.53h1.262c.295 0 .532-.237.532-.53V7.548h1.694c.295 0 .532-.24.532-.532V5.753c0-.295-.237-.532-.532-.532z" transform="translate(30 894) translate(6.25 2.5) translate(20.455 23.864)"/>
          </g>
          <path fill="#FFF" fill-rule="nonzero" d="M18.488 4.917c1.195 0 2.163-.969 2.163-2.164 0-1.194-.968-2.163-2.163-2.163-1.195 0-2.164.969-2.164 2.163 0 1.195.969 2.164 2.164 2.164z" transform="translate(30 894) translate(6.25 2.5)"/>
        </g>
      </g>
    </g>
  </g>
</svg>
