<svg width="24" height="24" viewBox="0 0 24 24" fill="none" xmlns="http://www.w3.org/2000/svg">
<path d="M13 11.457C13 11.771 12.763 12 12.5 12C12.21 12 12 11.743 12 11.457V1.543C12 1.229 12.237 1 12.5 1C12.79 1 13 1.257 13 1.543V11.457V11.457Z" fill="currentColor"/>
<path d="M15 12.156C15 12.619 14.66 13 14.248 13H10.752C10.34 13 10 12.619 10 12.156V9.844C10 9.38 10.34 9 10.752 9H14.248C14.66 9 15 9.381 15 9.844V12.156V12.156Z" fill="currentColor"/>
<path d="M12.5 3C13.3284 3 14 2.32843 14 1.5C14 0.671573 13.3284 0 12.5 0C11.6716 0 11 0.671573 11 1.5C11 2.32843 11.6716 3 12.5 3Z" fill="currentColor"/>
<path d="M20.3792 10.2857H3.35921C2.06221 10.2857 1.01221 11.6127 1.01221 13.2877V20.9977C1.01221 22.6407 2.06221 23.9997 3.35921 23.9997H20.3792C21.6762 23.9997 22.7262 22.6727 22.7262 20.9977V13.2877C22.6962 11.6447 21.6462 10.2857 20.3792 10.2857ZM9.04221 13.3507C9.19621 13.3507 9.32021 13.5087 9.32021 13.6667C9.32021 13.8247 9.16521 13.9517 9.01121 13.9517C8.85721 13.9517 8.73321 13.7937 8.73321 13.6357C8.76321 13.4777 8.88721 13.3507 9.04221 13.3507ZM4.31621 16.5107C4.25421 16.4797 4.22321 16.4477 4.16221 16.4477C4.90221 14.9937 6.47821 14.1407 8.14621 14.4577C8.88721 14.5837 9.50621 14.9307 10.0302 15.4367H9.78321C9.32021 15.0257 8.76321 14.7417 8.11521 14.6147C6.54021 14.2987 5.02621 15.1207 4.31621 16.5107V16.5107ZM4.34621 16.9847C4.34621 17.1427 4.19221 17.2697 4.03821 17.2697C3.88421 17.2697 3.76021 17.1117 3.76021 16.9537C3.76021 16.7957 3.91421 16.6687 4.06921 16.6687C4.22321 16.6687 4.34721 16.8267 4.34721 16.9847H4.34621ZM2.74121 17.7747C2.77121 17.3647 2.83321 16.9217 2.98821 16.5107C3.79121 14.1407 6.20021 12.8137 8.51721 13.3827C8.48621 13.4457 8.45521 13.5087 8.45521 13.5727C6.23121 13.0347 3.91521 14.2987 3.17321 16.5737C2.71021 17.9337 2.92621 19.3867 3.63621 20.5237C3.08021 19.7337 2.74121 18.9757 2.74121 17.7747V17.7747ZM3.79121 18.5017C3.76021 18.1537 3.79121 17.8377 3.85321 17.4907V17.4587C3.91421 17.4907 3.94521 17.4907 4.00721 17.4907V17.5217C3.79121 18.6277 4.13121 19.7337 4.81021 20.5237C4.25421 19.9867 3.91421 19.4177 3.79021 18.5017H3.79121ZM9.69121 20.0817C9.53621 20.1137 9.38121 20.0187 9.35121 19.8607C9.32021 19.7027 9.41321 19.5447 9.56721 19.5127C9.72121 19.4817 9.87621 19.5757 9.90721 19.7337C9.93721 19.8607 9.84521 20.0187 9.69121 20.0817ZM9.96921 19.4177C9.90721 19.3547 9.84521 19.3237 9.78321 19.2917C9.93821 18.9437 10.0302 18.5647 10.0302 18.1857C10.0302 16.7637 8.88721 15.6257 7.49721 15.6257C6.10721 15.6257 4.96621 16.7637 4.96621 18.1857C4.96621 19.6077 6.10921 20.7457 7.49821 20.7457C8.14821 20.7457 8.73421 20.4927 9.16621 20.0817C9.19721 20.1447 9.25921 20.2077 9.32121 20.2397C8.82721 20.6817 8.17821 20.9667 7.46821 20.9667C5.95421 20.9667 4.71821 19.7027 4.71821 18.1537C4.71821 16.6057 5.95421 15.3417 7.46821 15.3417C8.98121 15.3417 10.2172 16.6057 10.2172 18.1537C10.2472 18.6277 10.1552 19.0387 9.97021 19.4177H9.96921ZM8.20921 18.1857C8.20921 18.5657 7.90021 18.8807 7.52921 18.8807C7.15921 18.8807 6.84921 18.5647 6.84921 18.1857C6.84921 17.8057 7.15921 17.4907 7.52921 17.4907C7.90021 17.4587 8.20921 17.7747 8.20921 18.1857ZM11.1432 15.4057C10.7422 14.8047 10.1552 14.2987 9.50621 13.9517L9.59921 13.7617C10.3712 14.1417 10.9892 14.7097 11.4212 15.4047H11.1432V15.4057ZM17.1972 21.4087C15.2202 21.4087 13.6142 19.7657 13.6142 17.7437C13.6142 15.7207 15.2202 14.0777 17.1972 14.0777C19.1742 14.0777 20.7802 15.7207 20.7802 17.7437C20.7802 19.7657 19.1742 21.4087 17.1972 21.4087Z" fill="currentColor"/>
<path d="M17.1972 14.5517C15.4672 14.5517 14.0772 15.9737 14.0772 17.7437C14.0772 19.5137 15.4672 20.9347 17.1972 20.9347C18.9272 20.9347 20.3172 19.5127 20.3172 17.7437C20.3172 15.9737 18.9272 14.5517 17.1972 14.5517V14.5517ZM19.2052 18.1217C19.2052 18.3117 19.0512 18.4387 18.8962 18.4387H17.8762V19.4817C17.8762 19.6717 17.7222 19.7977 17.5682 19.7977H16.8272C16.6412 19.7977 16.5172 19.6397 16.5172 19.4817V18.4387H15.4982C15.3132 18.4387 15.1902 18.2807 15.1902 18.1227V17.3637C15.1902 17.1737 15.3442 17.0477 15.4982 17.0477H16.5182V16.0057C16.5182 15.8157 16.6722 15.6897 16.8272 15.6897H17.5682C17.7532 15.6897 17.8772 15.8477 17.8772 16.0057V17.0477H18.8972C19.0812 17.0477 19.2052 17.2057 19.2052 17.3637V18.1227V18.1217Z" fill="currentColor"/>
</svg>
