<svg width="20" height="20" viewBox="0 0 20 20" fill="none" xmlns="http://www.w3.org/2000/svg">
<g clip-path="url(#clip0)">
<path d="M1.37436 3.30719L16.8326 19.4528C17.5439 20.1957 18.7136 20.1793 19.4426 19.4179C20.1726 18.6555 20.1873 17.4349 19.4761 16.692L4.0178 0.546386C3.30652 -0.195446 2.13679 -0.180034 1.40781 0.58132C0.677837 1.3437 0.663081 2.56433 1.37436 3.30719V3.30719Z" fill="black"/>
<path d="M3.16697 19.4528L18.6262 3.30821C19.3375 2.56535 19.3217 1.34369 18.5928 0.582334C17.8628 -0.180048 16.6941 -0.195459 15.9828 0.547401L0.523533 16.692C-0.187746 17.4349 -0.172005 18.6565 0.556981 19.4179C1.28695 20.1803 2.45569 20.1957 3.16697 19.4528Z" fill="black"/>
</g>
<defs>
<clipPath id="clip0">
<rect width="20" height="20" fill="white"/>
</clipPath>
</defs>
</svg>
