<svg viewBox="0 0 20 20" 
  xmlns="http://www.w3.org/2000/svg" fill="currentColor">
  <path d="M1.37436 3.30719L16.8326 19.4528c.7113.7429 1.881.7265 2.61-.0349.73-.7624.7447-1.983.0335-2.7259L4.0178.546386c-.71128-.741832-1.88101-.72642-2.60999.034934-.729973.76238-.744729 1.98301-.03345 2.72587z"/>
  <path d="M3.16697 19.4528L18.6262 3.30821c.7113-.74286.6955-1.96452-.0334-2.725876-.73-.762382-1.8987-.777793-2.61-.034933L.523533 16.692c-.711279.7429-.695538 1.9645.033448 2.7259.729969.7624 1.898709.7778 2.609989.0349z"/>
</svg>