<svg width="24" height="24" viewBox="0 0 24 24" fill="none" xmlns="http://www.w3.org/2000/svg">
<path d="M20.6184 10.5255C20.44 10.5255 20.2685 10.5963 20.1421 10.7227C20.0157 10.849 19.9448 11.0206 19.9448 11.199V24H3.77543V11.199C3.77543 11.0206 3.7046 10.849 3.57823 10.7227C3.45185 10.5963 3.27964 10.5255 3.10188 10.5255H0.75L11.8601 0L22.9703 10.5255H20.6184Z" fill="#333F48"/>
<path d="M14.0301 20.8315H10.0721C9.52559 20.8315 9.08257 21.2746 9.08257 21.821C9.08257 22.3675 9.52559 22.8105 10.0721 22.8105H14.0301C14.5765 22.8105 15.0196 22.3675 15.0196 21.821C15.0196 21.2746 14.5765 20.8315 14.0301 20.8315ZM15.8619 11.2852C15.3078 10.7248 14.5703 10.4158 13.7871 10.4158C13.0711 10.4158 12.3941 10.6734 11.8601 11.1456C11.3254 10.6734 10.6492 10.4158 9.93322 10.4158C9.14924 10.4158 8.41252 10.7248 7.85842 11.2852C7.30498 11.8455 6.99945 12.5905 6.99945 13.3836C6.99945 14.1758 7.30498 14.9216 7.85842 15.482L11.7122 19.381C11.7518 19.4206 11.8046 19.4428 11.8601 19.4428C11.9157 19.4428 11.9685 19.4206 12.0073 19.381L15.8612 15.482C16.416 14.9216 16.7208 14.1766 16.7208 13.3836C16.7208 12.5905 16.4153 11.8455 15.8619 11.2852ZM9.58882 11.4865C9.18329 11.4865 8.80139 11.6441 8.51459 11.9309C8.22779 12.2177 8.07022 12.5996 8.07022 13.0051C8.07022 13.1093 7.98547 13.1933 7.88204 13.1933C7.77787 13.1933 7.69387 13.1092 7.69387 13.0058C7.69387 12.4989 7.89104 12.0232 8.24932 11.6656C8.60692 11.3074 9.08257 11.1101 9.58949 11.1101C9.69299 11.1101 9.77699 11.1942 9.77699 11.2976C9.77699 11.4018 9.69299 11.4858 9.58949 11.4858L9.58882 11.4865Z" fill="#F6BE00"/>
</svg>
