<svg width="24" height="24" viewBox="0 0 24 24" fill="none" xmlns="http://www.w3.org/2000/svg">
<path d="M15.619 6.46429H8.00002C7.69522 6.46429 7.42856 6.19762 7.42856 5.89286V2.27381C7.42856 1.43572 8.11425 0.75 8.95237 0.75H14.6666C15.5047 0.75 16.1905 1.43572 16.1905 2.27381V5.89286C16.1905 6.19762 15.9238 6.46429 15.619 6.46429ZM8.95237 4.94048H14.6666V2.65476C14.6666 2.42619 14.5143 2.27381 14.2857 2.27381H9.3333C9.10477 2.27381 8.95237 2.42619 8.95237 2.65476V4.94048Z" fill="#535E66"/>
<path d="M22.0952 23.2262H1.90476C0.838095 23.2262 0 22.3881 0 21.3215V6.84525C0 5.77859 0.838095 4.94049 1.90476 4.94049H22.0952C23.1619 4.94049 24 5.77859 24 6.84525V21.3215C24 22.3881 23.1619 23.2262 22.0952 23.2262Z" fill="#333F48"/>
<path d="M1.90476 23.2262H3.04762C1.98095 23.2262 1.14286 22.3881 1.14286 21.3215V6.84525C1.14286 5.77859 1.98095 4.94049 3.04762 4.94049H1.90476C0.838095 4.94049 0 5.77859 0 6.84525V21.3215C0 22.3881 0.838095 23.2262 1.90476 23.2262ZM22.0952 4.94049H20.9524C22.019 4.94049 22.8572 5.77859 22.8572 6.84525V21.3215C22.8572 22.3881 22.019 23.2262 20.9524 23.2262H22.0952C23.1619 23.2262 24 22.3881 24 21.3215V6.84525C24 5.77859 23.1619 4.94049 22.0952 4.94049Z" fill="#535E66"/>
<path d="M8.87011 18.0437C9.39503 18.0437 9.80116 17.9744 10.5044 17.7763C10.9898 17.6377 11.2076 17.598 11.6732 17.5584C11.6534 17.2414 11.6435 17.083 11.6435 16.5679V15.726C11.6435 15.1417 11.6732 14.9534 11.792 14.8445C11.9009 14.7355 12.0594 14.6959 12.416 14.686V14.4285H9.49411V14.686C10.2788 14.7142 10.3955 14.7973 10.4046 15.5104L10.4054 17.3107C10.2667 17.4395 10.1874 17.4891 9.99923 17.5584C9.67238 17.6971 9.32573 17.7664 9.02858 17.7664C8.53336 17.7664 8.08763 17.5881 7.77068 17.2711C7.1962 16.6768 6.84953 15.4982 6.84953 14.1214C6.84953 13.1706 7.00801 12.3584 7.31506 11.7146C7.66171 10.9915 8.26591 10.6052 9.03848 10.6052C9.69218 10.6052 10.2667 10.9024 10.6529 11.4472C10.9105 11.8037 11.0492 12.1999 11.1482 12.7942L11.5147 12.7843V10.4864C11.267 10.5854 11.1185 10.6152 10.9303 10.6152C10.7817 10.6152 10.6331 10.5953 10.4846 10.5557C9.70208 10.3675 9.46441 10.3279 8.95928 10.3279C6.80992 10.3279 5.42325 11.883 5.42325 14.3096C5.42325 16.657 6.71086 18.0437 8.87011 18.0437ZM16.0709 17.8852V17.6277C15.2092 17.598 15.12 17.5089 15.12 16.6075V14.7652H15.6053C16.4373 14.7652 17.1604 14.6662 17.5962 14.5077C18.448 14.1907 18.864 13.5469 18.864 12.5367C18.864 11.1005 17.9825 10.4765 15.9619 10.4765H12.9806V10.734C13.7531 10.7737 13.8324 10.8628 13.8324 11.7641V16.6075C13.8324 17.5089 13.7531 17.598 12.941 17.6277V17.8852H16.0709ZM15.635 14.478H15.12V10.7637H15.7539C16.9028 10.7637 17.4872 11.3778 17.4872 12.5961C17.4872 13.2399 17.3189 13.7649 17.0019 14.0719C16.7147 14.3393 16.2491 14.478 15.635 14.478Z" fill="#F6BE00"/>
</svg>
