<svg width="24" height="24" viewBox="0 0 24 24" fill="none" xmlns="http://www.w3.org/2000/svg">
<path d="M13.258 20.0706C13.4461 20.2253 13.5445 20.463 13.5205 20.7051V22.2949L13.0319 22.2584L12.9079 21.9449C12.8204 22.0659 12.7059 22.1636 12.5725 22.2293C12.4295 22.2898 12.275 22.3168 12.1203 22.3095C11.9234 22.3204 11.7323 22.2467 11.5931 22.1075C11.4545 21.9689 11.3801 21.7764 11.3911 21.5802C11.3764 21.3585 11.4786 21.1456 11.6609 21.0187C11.9045 20.8772 12.1816 20.8072 12.463 20.8145H12.8788V20.7051C12.8911 20.6037 12.8555 20.5024 12.7825 20.4309C12.7096 20.3594 12.6075 20.3259 12.5069 20.3405C12.2713 20.3514 12.0401 20.4112 11.8286 20.5155L11.6171 20.078C11.8979 19.9307 12.2115 19.8555 12.5287 19.8592C12.7891 19.8446 13.0465 19.919 13.258 20.0706ZM19.0993 18.9695V22.2876H18.6034L18.4941 21.9449C18.3504 22.1906 18.0769 22.3299 17.794 22.3022C17.5315 22.3124 17.2813 22.1891 17.1304 21.974C16.9531 21.7071 16.8678 21.3892 16.8897 21.0698C16.8715 20.7482 16.9553 20.4287 17.1304 20.1581C17.2886 19.9438 17.5424 19.8212 17.8086 19.83C18.0529 19.8183 18.2862 19.9219 18.4401 20.1071L18.4941 20.18C18.4649 20.021 18.4474 19.8599 18.443 19.6987V18.9695H19.0993ZM9.37103 20.1144C9.5643 20.3354 9.66345 20.6234 9.64815 20.9166V21.2156H8.10938C8.10862 21.3753 8.16847 21.5291 8.27715 21.6458C8.39085 21.7589 8.54693 21.8172 8.70735 21.8063C8.84445 21.8063 8.98155 21.7917 9.1158 21.7625C9.25432 21.7275 9.3885 21.6787 9.5169 21.6167V22.1198C9.40163 22.1782 9.27915 22.2227 9.15225 22.2512C8.99618 22.281 8.83718 22.2978 8.67825 22.3022C8.34713 22.3226 8.02185 22.2103 7.7739 21.9886C7.54643 21.7451 7.42972 21.4169 7.45306 21.0843C7.42899 20.7488 7.53622 20.4163 7.75207 20.1581C7.96717 19.9313 8.2713 19.811 8.58337 19.83C8.87362 19.8132 9.1581 19.916 9.37103 20.1144ZM7.16135 19.83L7.1103 20.4863C6.87475 20.4309 6.6268 20.4812 6.43209 20.6249C6.31103 20.7431 6.24685 20.9078 6.25706 21.077V22.2876H5.60802V19.8737H6.10392L6.19872 20.2748C6.28842 20.1363 6.41458 20.0255 6.56335 19.954C6.67566 19.8781 6.80692 19.8351 6.94257 19.83H7.16135ZM10.8587 18.9403L10.8295 22.2584H10.2097V18.9403H10.8587ZM16.1458 20.0561C16.3033 20.234 16.3821 20.4681 16.3646 20.7051V22.2584H15.7083V20.8655C15.7178 20.7306 15.6871 20.5964 15.6208 20.4791C15.5522 20.3886 15.4421 20.339 15.3291 20.3477C15.1752 20.3361 15.0257 20.4054 14.9353 20.5301C14.8361 20.7153 14.7931 20.9261 14.8113 21.1354V22.2584H14.1622V19.8737H14.6582L14.7457 20.18H14.7821C14.8522 20.0633 14.9572 19.9722 15.0812 19.9175C15.2189 19.8563 15.3685 19.8263 15.5187 19.83C15.7506 19.811 15.9796 19.8935 16.1458 20.0561ZM4.87147 19.1372V22.2584H4.20784V19.1372H4.87147ZM12.8423 21.1572H12.587C12.439 21.1514 12.2932 21.1864 12.1641 21.2594C12.0693 21.3221 12.0168 21.4307 12.0255 21.5438C12.0255 21.7261 12.1349 21.8209 12.3391 21.8209C12.4733 21.8282 12.6052 21.7808 12.7037 21.6896C12.7978 21.6006 12.8481 21.476 12.8423 21.3469V21.1572ZM18.0055 20.3551C17.8676 20.3543 17.74 20.4266 17.67 20.5447C17.5789 20.7065 17.5358 20.891 17.546 21.077C17.5336 21.263 17.5767 21.4482 17.67 21.6094C17.7481 21.7246 17.8815 21.791 18.02 21.7844C18.1579 21.7946 18.292 21.7406 18.3847 21.6386C18.4795 21.4913 18.5261 21.3177 18.5159 21.1427V21.077C18.5306 20.8838 18.4875 20.6905 18.392 20.5228C18.2993 20.4061 18.1543 20.3426 18.0055 20.3551ZM8.58337 20.2895C8.46165 20.2814 8.34277 20.3295 8.26252 20.4207C8.1765 20.5257 8.1276 20.657 8.124 20.7926H9.04283C9.045 20.657 8.99835 20.525 8.91158 20.4207C8.82623 20.331 8.70735 20.2829 8.58337 20.2895ZM16.5469 14.8637C16.7438 15.0825 16.8437 15.372 16.8241 15.6659V15.9795H15.3145C15.3138 16.1392 15.3736 16.2931 15.4822 16.4098C15.596 16.5221 15.7528 16.5804 15.9125 16.5702C16.0496 16.5702 16.1867 16.5556 16.3209 16.5264C16.4594 16.4915 16.5936 16.4426 16.722 16.3806V16.8838C16.6067 16.9421 16.4842 16.9866 16.3573 17.015C16.1911 17.042 16.0226 17.0537 15.8542 17.0515C15.5201 17.0887 15.1883 16.9727 14.9499 16.7357C14.7122 16.4995 14.594 16.1669 14.629 15.8336C14.6049 15.4982 14.7121 15.1656 14.928 14.9075C15.3801 14.4874 16.0729 14.4685 16.5469 14.8637ZM10.7201 14.1126V14.6522H11.3911V15.1409H10.7201V16.2931C10.7114 16.3703 10.7413 16.4462 10.8004 16.4972C10.8617 16.5338 10.9345 16.5461 11.0045 16.5338C11.1431 16.5301 11.2817 16.5053 11.413 16.4608V16.9421C11.2233 17.0201 11.0191 17.0573 10.8149 17.0515C10.6057 17.0712 10.3985 16.999 10.2461 16.8546C10.1149 16.6868 10.0499 16.4768 10.0638 16.2639V15.1117H9.7575V14.8346L10.1149 14.6158L10.3045 14.1126H10.7201ZM6.32269 14.5793C6.53345 14.5764 6.74129 14.6267 6.92798 14.7251C7.10082 14.8273 7.24011 14.976 7.32908 15.1554C7.42826 15.3596 7.47785 15.5849 7.47494 15.8117C7.49171 16.145 7.38013 16.4717 7.16135 16.7234C6.93746 16.9502 6.6268 17.0697 6.30812 17.0515C6.09663 17.0552 5.88879 17.0048 5.70283 16.9057C5.52634 16.8035 5.38414 16.6511 5.29444 16.4681C5.19817 16.2632 5.15077 16.0379 5.15588 15.8117C5.13692 15.4799 5.24631 15.1532 5.46217 14.9002C5.69116 14.6771 6.00328 14.5604 6.32269 14.5793ZM9.56063 14.5793L9.5169 15.1919C9.4512 15.1832 9.38558 15.1832 9.31995 15.1919C9.14498 15.1861 8.97502 15.2429 8.83867 15.3523C8.71762 15.4705 8.65343 15.6353 8.66363 15.8045V17.015H8.02185V14.6522H8.51775L8.61255 15.0533H8.64907C8.7183 14.9221 8.82188 14.8112 8.94803 14.7325C9.06105 14.6435 9.19815 14.5902 9.34185 14.5793H9.56063ZM21.3309 14.8346C21.4884 15.0125 21.5672 15.2466 21.5497 15.4836V17.0078H20.9006V15.6149C20.9079 15.4792 20.8751 15.345 20.8058 15.2284C20.738 15.1372 20.6279 15.0876 20.5141 15.0971C20.3602 15.0854 20.2108 15.1547 20.1203 15.2794C20.0212 15.4646 19.9781 15.6754 19.9964 15.8847V17.0078H19.3473V14.6522H19.8432L19.9307 14.9585H19.9672C20.0372 14.8418 20.1422 14.7507 20.2662 14.696C20.404 14.6348 20.5535 14.6048 20.7037 14.6085C20.9356 14.5895 21.1646 14.6719 21.3309 14.8346ZM2.63263 13.9229L3.98906 16.2639V13.9229H4.58705L4.56518 17.0078H3.72652L2.36281 14.6522V17.0078H1.79398V13.9229H2.63263ZM12.5506 13.6896V14.9294C12.695 14.6887 12.964 14.5531 13.2434 14.5793C13.4797 14.5604 13.713 14.6428 13.8851 14.8054C14.0412 14.984 14.12 15.2174 14.1039 15.4544V17.0078H13.4476V15.6149C13.4476 15.2721 13.3236 15.0971 13.0684 15.0971C12.9109 15.0861 12.7584 15.1576 12.6673 15.2867C12.5746 15.4719 12.5345 15.6783 12.5506 15.8847V17.0078H11.8943V13.6896H12.5506ZM18.9097 14.5793L18.8587 15.1919C18.6232 15.1364 18.3752 15.1868 18.1805 15.3305C18.0594 15.4486 17.9953 15.6134 18.0055 15.7826V16.9931H17.3564V14.6522H17.8523L17.9471 15.0533C18.0186 14.9235 18.1222 14.8127 18.2461 14.7325C18.3737 14.634 18.5306 14.5793 18.691 14.5793H18.9097ZM6.39635 15.1044H6.32269C6.17684 15.0912 6.03391 15.1583 5.95078 15.2794C5.86034 15.4413 5.8195 15.6266 5.83409 15.8117C5.82097 15.9992 5.86181 16.1858 5.95078 16.3514C6.03683 16.4739 6.1805 16.5432 6.32999 16.5338C6.47803 16.5446 6.62024 16.4754 6.70192 16.3514C6.79088 16.1858 6.83172 15.9992 6.8186 15.8117C6.83172 15.6266 6.79161 15.442 6.70192 15.2794C6.63044 15.1773 6.51814 15.1139 6.39635 15.1044ZM15.7594 15.0387C15.6376 15.0307 15.5187 15.0788 15.4385 15.17C15.3524 15.275 15.3035 15.4063 15.2999 15.542H16.2188C16.221 15.4063 16.1743 15.2743 16.0875 15.17C16.0022 15.0803 15.8834 15.0322 15.7594 15.0387ZM21.2506 2.25477C22.206 2.26353 23.1468 2.49033 24 2.9184L23.3364 4.53007C22.9922 4.36599 22.6392 4.21941 22.279 4.09251C21.9486 3.97584 21.6007 3.91385 21.2506 3.9102C20.5681 3.88103 19.9161 4.19534 19.5151 4.74885C19.0687 5.44749 18.8543 6.26936 18.9025 7.09707C18.9025 9.19223 19.6849 10.238 21.2506 10.2329C22.0696 10.2038 22.8777 10.0382 23.6426 9.7443V11.407C22.8259 11.7374 21.95 11.9015 21.0684 11.8883C19.8928 11.9642 18.745 11.5091 17.9398 10.6486C17.1574 9.6342 16.773 8.3682 16.8605 7.08978C16.8401 6.20738 17.0195 5.33226 17.3856 4.53007C17.7152 3.8256 18.2483 3.23563 18.917 2.83818C19.6288 2.43855 20.4339 2.23655 21.2506 2.25477ZM12.7475 2.25477C13.2171 2.25186 13.6853 2.31093 14.1403 2.4298C14.6166 2.55669 15.0818 2.72004 15.5333 2.9184L14.8916 4.44256C14.4868 4.27483 14.0733 4.13117 13.6518 4.0123C13.3346 3.93426 13.0086 3.89562 12.6818 3.89562C12.3727 3.87374 12.0664 3.96854 11.8213 4.15815C11.6186 4.32734 11.5055 4.5804 11.5151 4.84365C11.5187 5.01357 11.5719 5.17839 11.6682 5.31768C11.7703 5.46864 11.9015 5.59771 12.0547 5.69689C12.237 5.81358 12.6527 6.03235 13.3163 6.35322C14.0004 6.63545 14.6151 7.06353 15.1176 7.60755C15.4384 8.05973 15.6004 8.60663 15.577 9.16088C15.6098 9.93608 15.2678 10.6792 14.6582 11.159C13.9216 11.687 13.0247 11.9445 12.1203 11.8883C11.2088 11.9029 10.3067 11.7104 9.48038 11.3268V9.48173C10.0004 9.7173 10.5364 9.91493 11.0848 10.0724C11.4764 10.1826 11.8811 10.2416 12.2881 10.2475C12.641 10.2708 12.9926 10.1848 13.2944 9.99953C13.5249 9.82965 13.6562 9.55613 13.6445 9.2703C13.6481 9.09383 13.592 8.9217 13.484 8.78168C13.3622 8.61465 13.2084 8.47395 13.0319 8.36595C12.641 8.13045 12.237 7.91895 11.8213 7.73153C11.359 7.52805 10.9251 7.26627 10.5305 6.95122C10.2512 6.70911 10.0186 6.4174 9.84503 6.09069C9.66998 5.73263 9.58252 5.33736 9.5898 4.93846C9.55117 4.19388 9.85815 3.47265 10.4212 2.98404C11.084 2.46918 11.9096 2.21102 12.7475 2.25477ZM1.98359 2.38605V6.03235H5.69553V2.38605H7.6791V11.7352H5.69553V7.71698H1.98359V11.7352H0V2.38605H1.98359Z" fill="#333F48"/>
</svg>
