<svg width="24" height="24" viewBox="0 0 24 24" fill="none" xmlns="http://www.w3.org/2000/svg">
<path d="M21 0H3C1.34315 0 0 1.34315 0 3V21C0 22.6569 1.34315 24 3 24H21C22.6569 24 24 22.6569 24 21V3C24 1.34315 22.6569 0 21 0Z" fill="#333F48"/>
<path d="M11.115 17.7V17.31C9.91276 17.2665 9.75976 17.139 9.75001 15.888V11.985H14.73V15.75C14.73 17.13 14.61 17.265 13.365 17.31V17.7H18.03V17.31C16.8428 17.2665 16.6898 17.139 16.68 15.888V8.41498C16.68 7.06498 16.8 6.91498 17.985 6.86998V6.47998H13.425V6.86998C14.61 6.91498 14.73 7.06498 14.73 8.41498V11.49H9.75001V8.41498C9.75001 7.06498 9.87001 6.91498 11.055 6.86998V6.47998H6.51001V6.86998C7.68001 6.91498 7.80001 7.06498 7.80001 8.41498V15.75C7.80001 17.13 7.68001 17.265 6.45001 17.31V17.7H11.115V17.7Z" fill="#F6BE00"/>
</svg>
