<svg width="24" height="24" viewBox="0 0 24 24" fill="none" xmlns="http://www.w3.org/2000/svg">
<path d="M21 0H3C1.34315 0 0 1.34315 0 3V21C0 22.6569 1.34315 24 3 24H21C22.6569 24 24 22.6569 24 21V3C24 1.34315 22.6569 0 21 0Z" fill="#333F48"/>
<path d="M7.77824 15.594V10.1437C7.77824 9.51974 7.83674 9.12974 7.98299 8.89574C8.13899 8.64224 8.34374 8.54474 8.81174 8.52524V8.26199H6.34499V8.52524C6.84224 8.55449 7.04699 8.64224 7.19324 8.89574C7.32974 9.11999 7.37849 9.48074 7.37849 10.212V13.878L3.40049 8.26199H1.36274V8.51549C2.14274 8.57399 2.30849 8.77874 2.30849 9.73424V13.605C2.30849 14.931 2.10374 15.2527 1.27499 15.2917V15.555H3.72224V15.2917C2.88374 15.243 2.70824 14.97 2.70824 13.683V9.37349L7.05674 15.594H7.77824V15.594ZM12.2925 15.555V15.3015C11.4832 15.2722 11.4052 15.1845 11.4052 14.2875V11.8402H14.6422V14.2875C14.6422 15.1845 14.5642 15.2722 13.755 15.3015V15.555H16.7872V15.3015C16.0222 15.2737 15.9172 15.192 15.9097 14.4V9.51974C15.9097 8.64224 15.9877 8.54474 16.758 8.51549V8.26199H13.794V8.51549C14.5642 8.54474 14.6422 8.64224 14.6422 9.51974V11.5185H11.4052V9.51974C11.4052 8.64224 11.4832 8.54474 12.2535 8.51549V8.26199H9.29924V8.51549C10.0597 8.54474 10.1377 8.64224 10.1377 9.51974V14.2875C10.1377 15.1845 10.0597 15.2722 9.26024 15.3015V15.555H12.2925V15.555ZM19.9462 15.7012C20.658 15.7012 21.2722 15.5062 21.7305 15.1455C22.1692 14.8042 22.413 14.2387 22.413 13.5757C22.413 13.0102 22.2375 12.5617 21.906 12.2205C21.5745 11.889 21.1552 11.6257 20.2875 11.226C19.5075 10.8555 19.2637 10.7092 19.02 10.4752C18.8055 10.2607 18.6982 9.97799 18.6982 9.65624C18.6982 8.90549 19.215 8.38874 19.9657 8.38874C20.541 8.38874 21.0187 8.66174 21.3112 9.15899C21.516 9.49049 21.6037 9.82199 21.6427 10.3777H22.0327L22.1107 8.19374C21.8182 8.30099 21.6817 8.33024 21.5257 8.33024C21.4282 8.33024 21.321 8.32049 21.1845 8.29124C20.4532 8.14499 20.3167 8.12549 19.995 8.12549C19.4685 8.12549 19.0785 8.19374 18.747 8.34974C18.0352 8.68124 17.5965 9.37349 17.5965 10.173C17.5965 10.8457 17.8402 11.3137 18.396 11.7232C18.6202 11.889 18.8445 12.0157 19.6732 12.4155C20.892 13.0102 21.2722 13.41 21.2722 14.073C21.2722 14.9115 20.7555 15.4185 19.8975 15.4185C18.8055 15.4185 18.2205 14.7262 18.084 13.2637H17.694L17.616 15.594C17.967 15.5257 18.0937 15.5062 18.2595 15.5062C18.3862 15.5062 18.513 15.516 18.63 15.5355C19.3222 15.672 19.5562 15.7012 19.9462 15.7012V15.7012Z" fill="#F6BE00"/>
</svg>
