<svg width="24" height="24" viewBox="0 0 24 24" fill="none" xmlns="http://www.w3.org/2000/svg">
<path d="M22.904 15.9253L20.7944 19.5809C20.5256 20.0429 19.9501 20.1965 19.4897 19.927L1.22755 9.38244C0.76716 9.11364 0.613449 8.53592 0.882262 8.07482L2.99191 4.41834C3.26073 3.95646 3.83622 3.80275 4.29661 4.07231L22.5587 14.6547C23.0192 14.8856 23.1728 15.4634 22.904 15.9245V15.9253Z" fill="#333F48"/>
<path d="M0.882262 15.8985L2.99191 19.5779C3.26073 20.0421 3.83622 20.1972 4.29661 19.9262L22.5587 9.2762C23.0192 9.00515 23.1728 8.4245 22.904 7.95965L20.7944 4.28016C20.5256 3.81605 19.9501 3.66085 19.4897 3.93189L1.22755 14.5819C0.76716 14.8529 0.613449 15.4336 0.882262 15.8985Z" fill="#333F48"/>
<path d="M14.0815 24H9.70477C9.14782 24 8.70975 23.5738 8.70975 23.0317V0.967575C8.70975 0.425495 9.14782 0 9.70477 0H14.0815C14.6384 0 15.0766 0.425495 15.0766 0.967575V23.0317C15.0766 23.5738 14.6384 23.9993 14.0815 23.9993V24Z" fill="#333F48"/>
<path d="M14.5872 11.9035C14.5872 10.8594 13.6449 10.3574 12.7033 9.97056V7.65224C13.6449 7.26608 14.5872 6.76336 14.5872 5.72004C14.5872 5.41113 14.3236 5.14083 14.0221 5.14083C13.7207 5.14083 13.457 5.41113 13.457 5.72004C13.457 5.95172 13.1177 6.18415 12.7033 6.37722V4.44504C13.2677 4.21336 13.6449 3.67202 13.6449 3.01484C13.6449 2.16459 12.9669 1.46954 12.1375 1.46954C11.3095 1.46954 10.6308 2.16459 10.6308 3.01484C10.6308 3.67202 11.008 4.21336 11.5731 4.44504V6.8792C10.6308 7.26533 9.68918 7.76804 9.68918 8.81136C9.68918 9.85469 10.6308 10.3574 11.5731 10.7436V13.0626C10.6308 13.4488 9.68918 13.9515 9.68918 14.9948C9.68918 16.0381 10.6308 16.5401 11.5731 16.927V19.2453C10.6308 19.6315 9.68918 20.1341 9.68918 21.1774C9.68918 21.4864 9.9528 21.7567 10.2543 21.7567C10.5558 21.7567 10.8194 21.4864 10.8194 21.1774C10.8194 20.9458 11.1587 20.7141 11.5731 20.5203V21.9505C11.5731 22.2594 11.8367 22.5297 12.1375 22.5297C12.4397 22.5297 12.7033 22.2594 12.7033 21.9505V20.0183C13.6449 19.6321 14.5872 19.1294 14.5872 18.0862C14.5872 17.0428 13.6449 16.5401 12.7033 16.1539V13.8341C13.6449 13.448 14.5872 12.946 14.5872 11.902V11.9035ZM13.457 11.9035C13.457 12.1351 13.1177 12.3668 12.7033 12.5599V11.2077C13.1177 11.4394 13.457 11.671 13.457 11.9027V11.9035ZM10.8194 8.81136C10.8194 8.57969 11.1587 8.34801 11.5731 8.15496V9.50714C11.1587 9.27546 10.8194 9.04379 10.8194 8.81136ZM10.8194 14.9948C10.8194 14.7624 11.1587 14.5307 11.5731 14.3376V15.6898C11.1587 15.4582 10.8194 15.2265 10.8194 14.9948ZM13.457 18.0862C13.457 18.3178 13.1177 18.5495 12.7033 18.7433V17.3903C13.1177 17.622 13.457 17.8544 13.457 18.0862Z" fill="#F6BE00"/>
</svg>
