<svg width="117" height="88" viewBox="0 0 117 88" fill="none" xmlns="http://www.w3.org/2000/svg">
  <g id="pin">
    <path d="M23.027 36.2839C23.027 38.3337 19.209 40 14.5012 40C9.7934 40 5.9754 38.3337 5.9754 36.2839C5.9754 34.2353 9.7934 32.5689 14.5012 32.5689C19.209 32.5689 23.027 34.2353 23.027 36.285V36.2839Z" fill="#A851C1" fill-opacity="0.55"/>
    <path d="M29 14.5357C29.0012 12.5677 28.603 10.6199 27.8296 8.81061C27.0562 7.00133 25.9238 5.36828 24.501 4.01056C23.0782 2.65285 21.3947 1.59878 19.5528 0.912325C17.7108 0.225874 15.7488 -0.0786421 13.7857 0.017258C6.88233 0.352456 0.477284 6.62483 0.0355934 13.529C-0.128355 15.864 0.275748 18.204 1.21324 20.3483C2.15074 22.4925 3.59365 24.3771 5.41823 25.8403C8.86573 28.5331 11.713 31.9178 13.7772 35.7774L14.1943 36.6105C14.224 36.6662 14.2682 36.7128 14.3223 36.7452C14.3763 36.7777 14.4382 36.7948 14.5012 36.7947C14.6296 36.7947 14.7472 36.7241 14.8092 36.6105L15.0499 36.1351C17.1246 32.1426 20.0188 28.6343 23.5425 25.8403C25.2423 24.4882 26.6157 22.7698 27.5606 20.8127C28.5055 18.8557 28.9975 16.7105 29 14.5368V14.5357Z" fill="#A851C1"/>
    <path d="M14.5012 32.5689C13.6446 32.5711 12.7879 32.6289 11.9388 32.7445C12.6168 33.7137 13.2317 34.7257 13.7782 35.7752L14.1932 36.6095C14.2231 36.6652 14.2676 36.7118 14.3218 36.7442C14.376 36.7767 14.438 36.7938 14.5012 36.7938C14.5644 36.7938 14.6264 36.7767 14.6806 36.7442C14.7348 36.7118 14.7793 36.6652 14.8092 36.6095L15.0498 36.134C15.6588 34.9821 16.3396 33.8697 17.0882 32.8034C16.2327 32.6674 15.3675 32.5893 14.5012 32.5689V32.5689Z" fill="#A851C1"/>
    <path d="M22.9675 16.3889C23.983 11.7091 21.0177 7.091 16.3443 6.07406C11.6709 5.05713 7.05903 8.02645 6.04348 12.7062C5.02792 17.386 7.99322 22.0041 12.6666 23.021C17.3401 24.0379 21.9519 21.0686 22.9675 16.3889Z" fill="white"/>
  </g>
  <path id="Blank" d="M73 88C97.3005 88 117 68.3005 117 44C117 19.6995 97.3005 0 73 0C48.6995 0 29 19.6995 29 44C29 68.3005 48.6995 88 73 88Z" fill="#F6BE00"/>
</svg>
