<svg  width="135" height="88" fill="none" xmlns="http://www.w3.org/2000/svg">
  <g id="iconAtlas">
     <g id='pin' fill="none"><path fill="#A851C1" fill-opacity=".55" d="M21.972 34.642c0 1.914-3.57 3.47-7.972 3.47-4.402 0-7.972-1.556-7.972-3.47 0-1.913 3.57-3.469 7.972-3.469 4.402 0 7.972 1.556 7.972 3.47z"/><path fill="#A851C1" d="M27.557 14.334A13.565 13.565 0 0013.331.777C6.876 1.09.887 6.947.474 13.394A13.514 13.514 0 005.507 24.89a29.329 29.329 0 017.816 9.279l.39.778a.325.325 0 00.287.172c.12 0 .23-.066.288-.172l.225-.444a29.82 29.82 0 017.941-9.613 13.5 13.5 0 005.103-10.555z"/><path fill="#A851C1" d="M14 31.173c-.801.002-1.602.056-2.396.164.634.905 1.209 1.85 1.72 2.83l.388.779a.327.327 0 00.576 0l.225-.444a28.984 28.984 0 011.906-3.11c-.8-.127-1.609-.2-2.419-.219z"/><circle cx="14.004" cy="14.345" r="8.097" fill="#FFF" transform="rotate(-77.74 14.004 14.345)"/>
    </g>
    <g>
    <g>
      <circle id="Blank" cx="88" cy="44" r="44" fill="#F6BE00"/>
    </g>
    </g>
  </g>
</svg>
