<svg width="204
" height="88" viewBox="0 0 204
 88" fill="none"
  xmlns="http://www.w3.org/2000/svg">
  <g id="iconAtlas">
    <g id="pin">
      <path id="Vector" d="M23.027 36.2839C23.027 38.3337 19.209 40 14.5012 40C9.7934 40 5.9754 38.3337 5.9754 36.2839C5.9754 34.2353 9.7934 32.5689 14.5012 32.5689C19.209 32.5689 23.027 34.2353 23.027 36.285V36.2839Z" fill="#FF0000" fill-opacity="0.55"/>
      <path id="Vector_2" d="M29 14.5357C29.0012 12.5677 28.603 10.6199 27.8296 8.81061C27.0562 7.00133 25.9238 5.36828 24.501 4.01056C23.0782 2.65285 21.3947 1.59878 19.5528 0.912325C17.7108 0.225874 15.7488 -0.0786421 13.7857 0.017258C6.88233 0.352456 0.477284 6.62483 0.0355935 13.529C-0.128355 15.864 0.275748 18.204 1.21324 20.3483C2.15074 22.4925 3.59365 24.3771 5.41823 25.8403C8.86573 28.5331 11.713 31.9178 13.7772 35.7774L14.1943 36.6105C14.224 36.6662 14.2682 36.7128 14.3223 36.7452C14.3763 36.7777 14.4382 36.7948 14.5012 36.7947C14.6296 36.7947 14.7472 36.7241 14.8092 36.6105L15.0499 36.1351C17.1246 32.1426 20.0188 28.6343 23.5425 25.8403C25.2423 24.4882 26.6157 22.7698 27.5606 20.8127C28.5055 18.8557 28.9975 16.7105 29 14.5368V14.5357Z" fill="#FF0000"/>
      <path id="Vector_3" d="M14.5012 32.5689C13.6446 32.5711 12.7879 32.6289 11.9388 32.7445C12.6168 33.7137 13.2317 34.7257 13.7782 35.7752L14.1932 36.6095C14.2231 36.6652 14.2676 36.7118 14.3218 36.7442C14.376 36.7767 14.438 36.7938 14.5012 36.7938C14.5644 36.7938 14.6264 36.7767 14.6806 36.7442C14.7348 36.7118 14.7793 36.6652 14.8092 36.6095L15.0498 36.134C15.6588 34.9821 16.3396 33.8697 17.0882 32.8034C16.2327 32.6674 15.3675 32.5893 14.5012 32.5689Z" fill="#FF0000"/>
      <path id="Vector_4" d="M22.9675 16.3889C23.983 11.7091 21.0177 7.091 16.3443 6.07406C11.6709 5.05713 7.05903 8.02645 6.04348 12.7062C5.02792 17.386 7.99322 22.0041 12.6666 23.021C17.3401 24.0379 21.9519 21.0686 22.9675 16.3889Z" fill="white"/>
    </g>

    <path d="M81.027 36.2839C81.027 38.3337 77.209 40 72.5012 40C67.7934 40 63.9754 38.3337 63.9754 36.2839C63.9754 34.2353 67.7934 32.5689 72.5012 32.5689C77.209 32.5689 81.027 34.2353 81.027 36.285V36.2839Z" fill="#51c16a" fill-opacity="0.55"/>
    <path d="M87 14.5357C87.0012 12.5677 86.603 10.6199 85.8296 8.81061C85.0562 7.00133 83.9238 5.36828 82.501 4.01056C81.0782 2.65285 79.3947 1.59878 77.5528 0.912325C75.7108 0.225874 73.7488 -0.0786421 71.7857 0.017258C64.8823 0.352456 58.4773 6.62483 58.0356 13.529C57.8716 15.864 58.2757 18.204 59.2132 20.3483C60.1507 22.4925 61.5937 24.3771 63.4182 25.8403C66.8657 28.5331 69.713 31.9178 71.7772 35.7774L72.1943 36.6105C72.224 36.6662 72.2682 36.7128 72.3223 36.7452C72.3763 36.7777 72.4382 36.7948 72.5012 36.7947C72.6296 36.7947 72.7472 36.7241 72.8092 36.6105L73.0499 36.1351C75.1246 32.1426 78.0188 28.6343 81.5425 25.8403C83.2423 24.4882 84.6157 22.7698 85.5606 20.8127C86.5055 18.8557 86.9975 16.7105 87 14.5368V14.5357Z" fill="#51c16a"/>
    <path d="M72.5012 32.5689C71.6446 32.5711 70.7879 32.6289 69.9388 32.7445C70.6168 33.7137 71.2317 34.7257 71.7782 35.7752L72.1932 36.6095C72.2231 36.6652 72.2676 36.7118 72.3218 36.7442C72.376 36.7767 72.438 36.7938 72.5012 36.7938C72.5644 36.7938 72.6264 36.7767 72.6806 36.7442C72.7348 36.7118 72.7793 36.6652 72.8092 36.6095L73.0498 36.134C73.6588 34.9821 74.3396 33.8697 75.0882 32.8034C74.2327 32.6674 73.3675 32.5893 72.5012 32.5689Z" fill="#51c16a"/>
    <path d="M80.9675 16.3889C81.983 11.7091 79.0177 7.09099 74.3443 6.07405C69.6709 5.05712 65.059 8.02644 64.0435 12.7062C63.0279 17.386 65.9932 22.0041 70.6666 23.021C75.3401 24.0379 79.9519 21.0686 80.9675 16.3889Z" fill="white"/>
    <path d="M110.027 36.2839C110.027 38.3337 106.209 40 101.501 40C96.7934 40 92.9754 38.3337 92.9754 36.2839C92.9754 34.2353 96.7934 32.5689 101.501 32.5689C106.209 32.5689 110.027 34.2353 110.027 36.285V36.2839Z" fill="#51c16a" fill-opacity="0.55"/>
    <path d="M116 14.5357C116.001 12.5677 115.603 10.6199 114.83 8.81061C114.056 7.00133 112.924 5.36828 111.501 4.01056C110.078 2.65285 108.395 1.59878 106.553 0.912325C104.711 0.225874 102.749 -0.0786421 100.786 0.017258C93.8823 0.352456 87.4773 6.62483 87.0356 13.529C86.8717 15.864 87.2758 18.204 88.2132 20.3483C89.1507 22.4925 90.5937 24.3771 92.4182 25.8403C95.8657 28.5331 98.713 31.9178 100.777 35.7774L101.194 36.6105C101.224 36.6662 101.268 36.7128 101.322 36.7452C101.376 36.7777 101.438 36.7948 101.501 36.7947C101.63 36.7947 101.747 36.7241 101.809 36.6105L102.05 36.1351C104.125 32.1426 107.019 28.6343 110.543 25.8403C112.242 24.4882 113.616 22.7698 114.561 20.8127C115.506 18.8557 115.998 16.7105 116 14.5368V14.5357Z" fill="#51c16a"/>
    <path d="M101.501 32.5689C100.645 32.5711 99.7879 32.6289 98.9388 32.7445C99.6168 33.7137 100.232 34.7257 100.778 35.7752L101.193 36.6095C101.223 36.6652 101.268 36.7118 101.322 36.7442C101.376 36.7767 101.438 36.7938 101.501 36.7938C101.564 36.7938 101.626 36.7767 101.681 36.7442C101.735 36.7118 101.779 36.6652 101.809 36.6095L102.05 36.134C102.659 34.9821 103.34 33.8697 104.088 32.8034C103.233 32.6674 102.368 32.5893 101.501 32.5689Z" fill="#51c16a"/>
    <path d="M109.968 16.3889C110.983 11.7091 108.018 7.09099 103.344 6.07405C98.6709 5.05712 94.059 8.02644 93.0435 12.7062C92.0279 17.386 94.9932 22.0041 99.6666 23.021C104.34 24.0379 108.952 21.0686 109.968 16.3889Z" fill="white"/>
    <g opacity="0.719">
      <path opacity="0.719" d="M109.818 14.5293C109.818 13.7415 109.499 12.9885 108.935 12.445C108.37 11.9015 107.61 11.6154 106.83 11.6537C105.475 11.7198 104.218 12.9624 104.131 14.3285C104.065 15.2676 104.46 16.1789 105.188 16.7676C105.865 17.3006 106.424 17.9711 106.83 18.7354L106.911 18.9006C106.923 18.9232 106.946 18.9372 106.971 18.9372C106.997 18.9372 107.019 18.9232 107.033 18.9006L107.079 18.8067C107.487 18.0154 108.055 17.3206 108.747 16.7676C109.423 16.225 109.817 15.4006 109.818 14.5285V14.5293Z" fill="#333F48"/>
      <path opacity="0.719" d="M108.584 15.0187C108.786 14.0998 108.227 13.1996 107.337 13.0081C106.446 12.8166 105.56 13.4062 105.359 14.3251C105.157 15.244 105.715 16.1442 106.606 16.3357C107.497 16.5272 108.382 15.9375 108.584 15.0187Z" fill="white"/>
    </g>
    <g opacity="0.719">
      <path opacity="0.719" d="M99.6946 14.5293C99.6946 13.7415 99.3756 12.9885 98.8115 12.445C98.2464 11.9015 97.4862 11.6154 96.7068 11.6537C95.3517 11.7198 94.0941 12.9624 94.0071 14.3285C93.9412 15.2676 94.3367 16.1789 95.0643 16.7676C95.741 17.3006 96.2999 17.9711 96.7059 18.7354L96.7876 18.9006C96.799 18.9232 96.8228 18.9372 96.8474 18.9372C96.8728 18.9372 96.8957 18.9232 96.9089 18.9006L96.9555 18.8067C97.3632 18.0154 97.9309 17.3206 98.6234 16.7676C99.2992 16.225 99.6938 15.4006 99.6946 14.5285V14.5293Z" fill="#333F48"/>
      <path opacity="0.719" d="M98.4603 15.0187C98.6621 14.0998 98.1036 13.1996 97.2129 13.0081C96.3223 12.8166 95.4366 13.4062 95.2348 14.3251C95.033 15.244 95.5915 16.1442 96.4822 16.3357C97.3729 16.5272 98.2585 15.9375 98.4603 15.0187Z" fill="white"/>
    </g>
    <path d="M106.514 14.1745C106.515 13.0328 106.034 11.9397 105.184 11.1519C104.333 10.3641 103.188 9.94931 102.014 10.005C99.9715 10.1006 98.0777 11.9024 97.9467 13.8858C97.8483 15.2467 98.4433 16.5684 99.5382 17.4215C100.558 18.1954 101.401 19.1676 102.011 20.2763L102.134 20.5154C102.152 20.5476 102.187 20.5676 102.226 20.5676C102.263 20.5676 102.299 20.5476 102.317 20.5154L102.387 20.3789C103.002 19.2319 103.858 18.2241 104.901 17.4224C105.918 16.6345 106.513 15.4397 106.514 14.1754V14.1745Z" fill="#333F48"/>
    <path d="M104.728 14.7167C105.023 13.3717 104.143 12.0406 102.761 11.7435C101.38 11.4464 100.02 12.296 99.7249 13.641C99.4296 14.986 100.31 16.3171 101.692 16.6142C103.073 16.9113 104.433 16.0617 104.728 14.7167Z" fill="white"/>


    <g id="group" clip-path="url(#clip0)">
      <path id="Vector_5" d="M52.7273 36.5217C52.7273 38.44 48.7921 40 43.9394 40C39.0867 40 35.1515 38.44 35.1515 36.5217C35.1515 34.6035 39.0867 33.0435 43.9394 33.0435C48.7921 33.0435 52.7273 34.6035 52.7273 36.5217Z" fill="#FF0000" fill-opacity="0.51"/>
      <path id="Vector_6" d="M58 14.4287C58.0026 10.4809 56.376 6.70434 53.5006 3.98086C50.627 1.25738 46.7542 -0.175662 42.7864 0.017381C35.8818 0.347816 29.4763 6.5739 29.036 13.4278C28.7021 18.1322 30.7145 22.7 34.4177 25.6478C37.8652 28.3209 40.7125 31.6809 42.7776 35.5122L43.1933 36.3383C43.2548 36.4513 43.3726 36.5217 43.5009 36.5217C43.6301 36.5217 43.7478 36.4522 43.8085 36.3391L44.0501 35.8678C46.1249 31.9043 49.0188 28.4217 52.5436 25.6478C55.9858 22.9287 57.9947 18.7991 58 14.4287V14.4287Z" fill="#FF0000"/>
      <path id="Vector_7" d="M52.0523 16.1266C53.09 11.4018 50.1041 6.74861 45.3832 5.73351C40.6622 4.7184 35.994 7.72575 34.9564 12.4506C33.9188 17.1755 36.9047 21.8286 41.6256 22.8437C46.3465 23.8589 51.0147 20.8515 52.0523 16.1266Z" fill="white"/>
      <g id="Group">
        <g id="Group_2" opacity="0.719">
          <path id="Vector_8" opacity="0.719" d="M51.8485 13.4591C51.8485 12.6713 51.5295 11.9183 50.9653 11.3748C50.4002 10.8313 49.6401 10.5452 48.8606 10.5835C47.5055 10.6496 46.2479 11.8922 46.1609 13.2583C46.095 14.1974 46.4905 15.1087 47.2181 15.6974C47.8948 16.2304 48.4537 16.9009 48.8597 17.6652L48.9414 17.8304C48.9529 17.853 48.9766 17.867 49.0012 17.867C49.0267 17.867 49.0495 17.853 49.0627 17.8304L49.1093 17.7365C49.517 16.9452 50.0847 16.2504 50.7772 15.6974C51.453 15.1548 51.8476 14.3304 51.8485 13.4583V13.4591Z" fill="#333F48"/>
          <path id="Vector_9" opacity="0.719" d="M50.6141 13.9485C50.8159 13.0296 50.2575 12.1294 49.3668 11.9379C48.4761 11.7464 47.5905 12.336 47.3887 13.2549C47.1869 14.1738 47.7453 15.074 48.636 15.2655C49.5267 15.457 50.4123 14.8673 50.6141 13.9485Z" fill="white"/>
        </g>
        <g id="Group_3" opacity="0.719">
          <path id="Vector_10" opacity="0.719" d="M41.7248 13.4591C41.7248 12.6713 41.4058 11.9183 40.8417 11.3748C40.2766 10.8313 39.5164 10.5452 38.737 10.5835C37.3819 10.6496 36.1243 11.8922 36.0373 13.2583C35.9714 14.1974 36.3669 15.1087 37.0945 15.6974C37.7712 16.2304 38.3301 16.9009 38.7361 17.6652L38.8178 17.8304C38.8292 17.853 38.853 17.867 38.8776 17.867C38.903 17.867 38.9259 17.853 38.9391 17.8304L38.9857 17.7365C39.3934 16.9452 39.9611 16.2504 40.6536 15.6974C41.3294 15.1548 41.724 14.3304 41.7248 13.4583V13.4591Z" fill="#333F48"/>
          <path id="Vector_11" opacity="0.719" d="M40.4905 13.9485C40.6923 13.0296 40.1338 12.1294 39.2431 11.9379C38.3525 11.7464 37.4668 12.336 37.265 13.2549C37.0632 14.1738 37.6217 15.074 38.5124 15.2655C39.4031 15.457 40.2887 14.8673 40.4905 13.9485Z" fill="white"/>
        </g>
        <g id="Group_4">
          <path id="Vector_12" d="M48.5443 13.1043C48.5451 11.9626 48.0644 10.8695 47.2138 10.0817C46.3631 9.2939 45.218 8.87912 44.044 8.93477C42.0017 9.03042 40.1079 10.8322 39.9769 12.8156C39.8785 14.1765 40.4735 15.4982 41.5684 16.3513C42.5878 17.1252 43.4315 18.0974 44.0413 19.2061L44.1644 19.4452C44.1819 19.4774 44.2171 19.4974 44.2558 19.4974C44.2936 19.4974 44.3287 19.4774 44.3472 19.4452L44.4175 19.3087C45.0326 18.1617 45.8877 17.1539 46.9308 16.3522C47.9484 15.5643 48.5434 14.3695 48.5443 13.1052V13.1043Z" fill="#333F48"/>
          <path id="Vector_13" d="M46.7582 13.6465C47.0536 12.3015 46.173 10.9704 44.7915 10.6733C43.4099 10.3762 42.0505 11.2258 41.7551 12.5708C41.4598 13.9158 42.3403 15.2469 43.7218 15.544C45.1034 15.8411 46.4628 14.9915 46.7582 13.6465Z" fill="white"/>
        </g>
      </g>
    </g>
    <path d="M102 88C126.301 88 146 68.3005 146 44C146 19.6995 126.301 0 102 0C77.6995 0 58 19.6995 58 44C58 68.3005 77.6995 88 102 88Z" fill="#F6BE00"/>
  </g>
  <defs>
    <clipPath id="clip0">
      <rect width="29" height="40" fill="white" transform="translate(29)"/>
    </clipPath>
  </defs>
</svg>
