<svg width="435" height="85" viewBox="0 0 435 85" fill="none" xmlns="http://www.w3.org/2000/svg">
<path d="M30 60C46.5685 60 60 46.5685 60 30C60 13.4315 46.5685 0 30 0C13.4315 0 0 13.4315 0 30C0 46.5685 13.4315 60 30 60Z" fill="#00E676"/>
<path d="M30 36C33.3137 36 36 33.3137 36 30C36 26.6863 33.3137 24 30 24C26.6863 24 24 26.6863 24 30C24 33.3137 26.6863 36 30 36Z" fill="white"/>
<path d="M90 60C106.569 60 120 46.5685 120 30C120 13.4315 106.569 0 90 0C73.4315 0 60 13.4315 60 30C60 46.5685 73.4315 60 90 60Z" fill="#FFAB00"/>
<path d="M84 30C87.3137 30 90 27.3137 90 24C90 20.6863 87.3137 18 84 18C80.6863 18 78 20.6863 78 24C78 27.3137 80.6863 30 84 30Z" fill="white"/>
<path d="M96 42C99.3137 42 102 39.3137 102 36C102 32.6863 99.3137 30 96 30C92.6863 30 90 32.6863 90 36C90 39.3137 92.6863 42 96 42Z" fill="white"/>
<path d="M150 60C166.569 60 180 46.5685 180 30C180 13.4315 166.569 0 150 0C133.431 0 120 13.4315 120 30C120 46.5685 133.431 60 150 60Z" fill="#F50057"/>
<path d="M150 30C153.314 30 156 27.3137 156 24C156 20.6863 153.314 18 150 18C146.686 18 144 20.6863 144 24C144 27.3137 146.686 30 150 30Z" fill="white"/>
<path d="M142 44C145.314 44 148 41.3137 148 38C148 34.6863 145.314 32 142 32C138.686 32 136 34.6863 136 38C136 41.3137 138.686 44 142 44Z" fill="white"/>
<path d="M158 44C161.314 44 164 41.3137 164 38C164 34.6863 161.314 32 158 32C154.686 32 152 34.6863 152 38C152 41.3137 154.686 44 158 44Z" fill="white"/>
<path d="M222.5 85C245.972 85 265 65.9721 265 42.5C265 19.0279 245.972 0 222.5 0C199.028 0 180 19.0279 180 42.5C180 65.9721 199.028 85 222.5 85Z" fill="#00E676" fill-opacity="0.5"/>
<path d="M222.5 72.5C239.069 72.5 252.5 59.0685 252.5 42.5C252.5 25.9315 239.069 12.5 222.5 12.5C205.931 12.5 192.5 25.9315 192.5 42.5C192.5 59.0685 205.931 72.5 222.5 72.5Z" fill="#00E676"/>
<path d="M222.5 48.5C225.814 48.5 228.5 45.8137 228.5 42.5C228.5 39.1863 225.814 36.5 222.5 36.5C219.186 36.5 216.5 39.1863 216.5 42.5C216.5 45.8137 219.186 48.5 222.5 48.5Z" fill="white"/>
<path d="M307.5 85C330.972 85 350 65.9721 350 42.5C350 19.0279 330.972 0 307.5 0C284.028 0 265 19.0279 265 42.5C265 65.9721 284.028 85 307.5 85Z" fill="#FFAB00" fill-opacity="0.5"/>
<path d="M307.5 72.5C324.069 72.5 337.5 59.0685 337.5 42.5C337.5 25.9315 324.069 12.5 307.5 12.5C290.931 12.5 277.5 25.9315 277.5 42.5C277.5 59.0685 290.931 72.5 307.5 72.5Z" fill="#FFAB00"/>
<path d="M301.5 42.5C304.814 42.5 307.5 39.8137 307.5 36.5C307.5 33.1863 304.814 30.5 301.5 30.5C298.186 30.5 295.5 33.1863 295.5 36.5C295.5 39.8137 298.186 42.5 301.5 42.5Z" fill="white"/>
<path d="M313.5 54.5C316.814 54.5 319.5 51.8137 319.5 48.5C319.5 45.1863 316.814 42.5 313.5 42.5C310.186 42.5 307.5 45.1863 307.5 48.5C307.5 51.8137 310.186 54.5 313.5 54.5Z" fill="white"/>
<path d="M392.5 85C415.972 85 435 65.9721 435 42.5C435 19.0279 415.972 0 392.5 0C369.028 0 350 19.0279 350 42.5C350 65.9721 369.028 85 392.5 85Z" fill="#F50057" fill-opacity="0.5"/>
<path d="M392.5 72.5C409.069 72.5 422.5 59.0685 422.5 42.5C422.5 25.9315 409.069 12.5 392.5 12.5C375.931 12.5 362.5 25.9315 362.5 42.5C362.5 59.0685 375.931 72.5 392.5 72.5Z" fill="#F50057"/>
<path d="M392.5 42.5C395.814 42.5 398.5 39.8137 398.5 36.5C398.5 33.1863 395.814 30.5 392.5 30.5C389.186 30.5 386.5 33.1863 386.5 36.5C386.5 39.8137 389.186 42.5 392.5 42.5Z" fill="white"/>
<path d="M384.5 56.5C387.814 56.5 390.5 53.8137 390.5 50.5C390.5 47.1863 387.814 44.5 384.5 44.5C381.186 44.5 378.5 47.1863 378.5 50.5C378.5 53.8137 381.186 56.5 384.5 56.5Z" fill="white"/>
<path d="M400.5 56.5C403.814 56.5 406.5 53.8137 406.5 50.5C406.5 47.1863 403.814 44.5 400.5 44.5C397.186 44.5 394.5 47.1863 394.5 50.5C394.5 53.8137 397.186 56.5 400.5 56.5Z" fill="white"/>
</svg>
