<svg width="180" height="60" viewBox="0 0 180 60" fill="none" xmlns="http://www.w3.org/2000/svg">
<path d="M30 60C46.5685 60 60 46.5685 60 30C60 13.4315 46.5685 0 30 0C13.4315 0 0 13.4315 0 30C0 46.5685 13.4315 60 30 60Z" fill="#00E676"/>
<path d="M30 36C33.3137 36 36 33.3137 36 30C36 26.6863 33.3137 24 30 24C26.6863 24 24 26.6863 24 30C24 33.3137 26.6863 36 30 36Z" fill="white"/>
<path d="M90 60C106.569 60 120 46.5685 120 30C120 13.4315 106.569 0 90 0C73.4315 0 60 13.4315 60 30C60 46.5685 73.4315 60 90 60Z" fill="#FFAB00"/>
<path d="M84 30C87.3137 30 90 27.3137 90 24C90 20.6863 87.3137 18 84 18C80.6863 18 78 20.6863 78 24C78 27.3137 80.6863 30 84 30Z" fill="white"/>
<path d="M96 42C99.3137 42 102 39.3137 102 36C102 32.6863 99.3137 30 96 30C92.6863 30 90 32.6863 90 36C90 39.3137 92.6863 42 96 42Z" fill="white"/>
<path d="M150 60C166.569 60 180 46.5685 180 30C180 13.4315 166.569 0 150 0C133.431 0 120 13.4315 120 30C120 46.5685 133.431 60 150 60Z" fill="#F50057"/>
<path d="M150 30C153.314 30 156 27.3137 156 24C156 20.6863 153.314 18 150 18C146.686 18 144 20.6863 144 24C144 27.3137 146.686 30 150 30Z" fill="white"/>
<path d="M142 44C145.314 44 148 41.3137 148 38C148 34.6863 145.314 32 142 32C138.686 32 136 34.6863 136 38C136 41.3137 138.686 44 142 44Z" fill="white"/>
<path d="M158 44C161.314 44 164 41.3137 164 38C164 34.6863 161.314 32 158 32C154.686 32 152 34.6863 152 38C152 41.3137 154.686 44 158 44Z" fill="white"/>
</svg>