<svg width="96" height="24" viewBox="0 0 96 24" fill="none" xmlns="http://www.w3.org/2000/svg">
<path d="M12 24C18.6274 24 24 18.6274 24 12C24 5.37258 18.6274 0 12 0C5.37258 0 0 5.37258 0 12C0 18.6274 5.37258 24 12 24Z" fill="#00E676"/>
<path d="M12 14.4C13.3255 14.4 14.4 13.3255 14.4 12C14.4 10.6745 13.3255 9.60001 12 9.60001C10.6745 9.60001 9.60001 10.6745 9.60001 12C9.60001 13.3255 10.6745 14.4 12 14.4Z" fill="white"/>
<path d="M36 24C42.6274 24 48 18.6274 48 12C48 5.37258 42.6274 0 36 0C29.3726 0 24 5.37258 24 12C24 18.6274 29.3726 24 36 24Z" fill="#FFAB00"/>
<path d="M33.6 12C34.9255 12 36 10.9255 36 9.60001C36 8.27453 34.9255 7.20001 33.6 7.20001C32.2745 7.20001 31.2 8.27453 31.2 9.60001C31.2 10.9255 32.2745 12 33.6 12Z" fill="white"/>
<path d="M38.4 16.8C39.7255 16.8 40.8 15.7255 40.8 14.4C40.8 13.0745 39.7255 12 38.4 12C37.0745 12 36 13.0745 36 14.4C36 15.7255 37.0745 16.8 38.4 16.8Z" fill="white"/>
<path d="M60 24C66.6274 24 72 18.6274 72 12C72 5.37258 66.6274 0 60 0C53.3726 0 48 5.37258 48 12C48 18.6274 53.3726 24 60 24Z" fill="#F50057"/>
<path d="M60 12C61.3255 12 62.4 10.9255 62.4 9.60001C62.4 8.27453 61.3255 7.20001 60 7.20001C58.6745 7.20001 57.6 8.27453 57.6 9.60001C57.6 10.9255 58.6745 12 60 12Z" fill="white"/>
<path d="M56.8 17.6C58.1255 17.6 59.2 16.5255 59.2 15.2C59.2 13.8745 58.1255 12.8 56.8 12.8C55.4745 12.8 54.4 13.8745 54.4 15.2C54.4 16.5255 55.4745 17.6 56.8 17.6Z" fill="white"/>
<path d="M63.2 17.6C64.5255 17.6 65.6 16.5255 65.6 15.2C65.6 13.8745 64.5255 12.8 63.2 12.8C61.8745 12.8 60.8 13.8745 60.8 15.2C60.8 16.5255 61.8745 17.6 63.2 17.6Z" fill="white"/>
<circle cx="84" cy="12" r="12" fill="#C4C4C4"/>
</svg>
