<svg width="120" height="300" viewBox="0 0 120 300" fill="none" xmlns="http://www.w3.org/2000/svg">
<path d="M40 19.7524C40.0017 17.0781 39.4524 14.4313 38.3857 11.9727C37.3189 9.51405 35.757 7.29491 33.7945 5.44992C31.832 3.60494 29.5099 2.17257 26.9694 1.23975C24.4287 0.306938 21.7225 -0.106866 19.0148 0.0234517C9.49287 0.478949 0.658323 9.00242 0.0490942 18.3844C-0.177041 21.5575 0.380342 24.7373 1.67343 27.6511C2.96654 30.5649 4.95676 33.1258 7.47342 35.1142C12.2286 38.7734 16.1559 43.3728 19.003 48.6176L19.5783 49.7497C19.6193 49.8254 19.6803 49.8887 19.7549 49.9327C19.8294 49.9769 19.9148 50.0001 20.0017 50C20.1788 50 20.341 49.9041 20.4265 49.7497L20.7585 49.1037C23.6201 43.6783 27.6121 38.9109 32.4724 35.1142C34.817 33.2768 36.7113 30.9417 38.0146 28.2822C39.3179 25.6228 39.9965 22.7078 40 19.7539V19.7524Z" fill="#6EBC5C"/>
<path fill-rule="evenodd" clip-rule="evenodd" d="M15.4832 28.0447L14.7313 26.8272L12.8418 25.4278H10.8117L8.62166 27.8048V30.2812H13.4402L15.4832 28.0447ZM18.5877 30.2863L19.5138 28.1299L15.9205 28.3285L14.1316 30.2863H18.5877ZM19.7472 27.5959L20.3611 26.2545L15.3504 26.8556L15.9398 27.8074L19.7472 27.5959ZM20.6616 25.6948L21.874 24.3276L16.4802 23.9845L15.353 26.3319L20.6616 25.6948ZM21.9192 23.8104L20.1316 21.089H14.9248L16.4686 23.4622L21.9192 23.8104ZM28.2261 25.2421L24.9347 21.089H20.7442L22.5731 23.8723L28.2261 25.2421ZM16.0984 24.0555L13.4041 21.089H9.21495L10.9742 24.0555L14.8177 25.362L16.0984 24.0555ZM11.1019 24.5121L8.54041 21.4398V27.5856L11.1019 24.5121ZM28.8723 25.2292L31.3732 21.3302V21.0813H25.5847L28.8723 25.2292ZM31.3732 26.7563V22.2808L29.258 25.5774L31.3732 26.7563ZM31.3732 30.2863V27.347L28.8904 25.9643L25.2777 27.859L27.0963 30.2863H31.3732ZM26.4553 30.2863L24.7657 28.0318L20.08 28.1041L19.1436 30.2863H26.4553ZM24.8276 27.5121L28.1642 25.7618L22.5047 24.3908L20.9996 26.0869L20.316 27.5817L24.8276 27.5121Z" fill="white"/>
<path d="M13.4273 16.1698L13.2984 24.0555L14.3315 24.6913V19.7605L15.4329 18.187L18.0924 17.2816C18.2067 17.2409 18.3004 17.1571 18.3537 17.0482C18.407 16.9392 18.4155 16.8138 18.3775 16.6986C18.3596 16.6416 18.3306 16.5887 18.2921 16.543C18.2536 16.4973 18.2064 16.4597 18.1532 16.4325C18.1 16.4052 18.0419 16.3888 17.9823 16.3843C17.9227 16.3797 17.8628 16.387 17.8061 16.4059L16.3267 16.9089L18.7683 13.42C18.8379 13.3202 18.866 13.1972 18.8465 13.0771C18.827 12.9569 18.7615 12.8491 18.6638 12.7764C18.6156 12.7411 18.5608 12.7157 18.5026 12.7019C18.4445 12.6881 18.3841 12.6862 18.3251 12.6961C18.2662 12.7061 18.2099 12.7279 18.1595 12.76C18.1091 12.7922 18.0657 12.8342 18.0318 12.8835L17.0439 14.2971V13.1518C17.0449 13.0309 16.9979 12.9145 16.9133 12.8282C16.8287 12.7419 16.7133 12.6927 16.5924 12.6913C16.3422 12.6913 16.141 12.8977 16.141 13.1518V15.5894L14.3302 18.1741V9.46174C14.3309 9.40178 14.3197 9.34227 14.2974 9.28662C14.2751 9.23096 14.242 9.18025 14.2001 9.13737C14.1582 9.09449 14.1082 9.06029 14.0531 9.03672C13.998 9.01315 13.9387 9.00067 13.8788 9C13.6286 9 13.4261 9.20636 13.4261 9.46174V15.0593L11.5456 13.7799L10.6892 11.1617C10.6712 11.1047 10.6421 11.052 10.6035 11.0064C10.5649 10.9608 10.5177 10.9234 10.4645 10.8963C10.4113 10.8692 10.3533 10.8529 10.2938 10.8484C10.2343 10.8439 10.1744 10.8513 10.1178 10.8702C10.0033 10.9106 9.90926 10.9943 9.85574 11.1033C9.80222 11.2122 9.79351 11.3378 9.83147 11.4531L10.319 12.9467L8.70292 11.8465C8.65357 11.813 8.59799 11.7897 8.53947 11.778C8.48096 11.7664 8.4207 11.7666 8.36226 11.7786C8.30382 11.7906 8.24839 11.8142 8.19923 11.8481C8.15008 11.8819 8.10821 11.9252 8.0761 11.9755C8.00981 12.0773 7.98579 12.2009 8.00915 12.3201C8.03251 12.4393 8.1014 12.5447 8.2012 12.6139L11.0284 14.5383H8.45271C8.20249 14.5383 8 14.7446 8 15C8 15.2541 8.20249 15.4605 8.45142 15.4605H12.3865L13.4273 16.1698Z" fill="white"/>
<path d="M80 19.7524C80.0017 17.0781 79.4524 14.4313 78.3857 11.9727C77.3189 9.51405 75.757 7.29491 73.7945 5.44992C71.832 3.60494 69.5099 2.17257 66.9694 1.23975C64.4287 0.306938 61.7225 -0.106866 59.0148 0.0234517C49.4929 0.478949 40.6583 9.00242 40.0491 18.3844C39.823 21.5575 40.3803 24.7373 41.6734 27.6511C42.9665 30.5649 44.9568 33.1258 47.4734 35.1142C52.2286 38.7734 56.1559 43.3728 59.003 48.6176L59.5783 49.7497C59.6193 49.8254 59.6803 49.8887 59.7549 49.9327C59.8294 49.9769 59.9148 50.0001 60.0017 50C60.1788 50 60.341 49.9041 60.4265 49.7497L60.7585 49.1037C63.6201 43.6783 67.6121 38.9109 72.4724 35.1142C74.817 33.2768 76.7113 30.9417 78.0146 28.2822C79.3179 25.6228 79.9965 22.7078 80 19.7539V19.7524Z" fill="#EEA043"/>
<path fill-rule="evenodd" clip-rule="evenodd" d="M55.4832 28.0447L54.7313 26.8272L52.8418 25.4278H50.8117L48.6217 27.8048V30.2812H53.4402L55.4832 28.0447ZM58.5877 30.2863L59.5138 28.1299L55.9205 28.3285L54.1316 30.2863H58.5877ZM59.7472 27.5959L60.3611 26.2545L55.3504 26.8556L55.9398 27.8074L59.7472 27.5959ZM60.6616 25.6948L61.874 24.3276L56.4802 23.9845L55.353 26.3319L60.6616 25.6948ZM61.9192 23.8104L60.1316 21.089H54.9248L56.4686 23.4622L61.9192 23.8104ZM68.2261 25.2421L64.9347 21.089H60.7442L62.5731 23.8723L68.2261 25.2421ZM56.0984 24.0555L53.4041 21.089H49.215L50.9742 24.0555L54.8177 25.362L56.0984 24.0555ZM51.1019 24.5121L48.5404 21.4398V27.5856L51.1019 24.5121ZM68.8723 25.2292L71.3732 21.3302V21.0813H65.5847L68.8723 25.2292ZM71.3732 26.7563V22.2808L69.258 25.5774L71.3732 26.7563ZM71.3732 30.2863V27.347L68.8904 25.9643L65.2777 27.859L67.0963 30.2863H71.3732ZM66.4553 30.2863L64.7657 28.0318L60.08 28.1041L59.1436 30.2863H66.4553ZM64.8276 27.5121L68.1642 25.7618L62.5047 24.3908L60.9996 26.0869L60.316 27.5817L64.8276 27.5121Z" fill="white"/>
<path d="M53.4273 16.1698L53.2984 24.0555L54.3315 24.6913V19.7605L55.4329 18.187L58.0924 17.2816C58.2067 17.2409 58.3004 17.1571 58.3537 17.0482C58.407 16.9392 58.4155 16.8138 58.3775 16.6986C58.3596 16.6416 58.3306 16.5887 58.2921 16.543C58.2536 16.4973 58.2064 16.4597 58.1532 16.4325C58.1 16.4052 58.0419 16.3888 57.9823 16.3843C57.9227 16.3797 57.8628 16.387 57.8061 16.4059L56.3267 16.9089L58.7683 13.42C58.8379 13.3202 58.866 13.1972 58.8465 13.0771C58.827 12.9569 58.7615 12.8491 58.6638 12.7764C58.6156 12.7411 58.5608 12.7157 58.5026 12.7019C58.4445 12.6881 58.3841 12.6862 58.3251 12.6961C58.2662 12.7061 58.2099 12.7279 58.1595 12.76C58.1091 12.7922 58.0657 12.8342 58.0318 12.8835L57.0439 14.2971V13.1518C57.0449 13.0309 56.9979 12.9145 56.9133 12.8282C56.8287 12.7419 56.7133 12.6927 56.5924 12.6913C56.3422 12.6913 56.141 12.8977 56.141 13.1518V15.5894L54.3302 18.1741V9.46174C54.3309 9.40178 54.3197 9.34227 54.2974 9.28662C54.2751 9.23096 54.242 9.18025 54.2001 9.13737C54.1582 9.09449 54.1082 9.06029 54.0531 9.03672C53.998 9.01315 53.9387 9.00067 53.8788 9C53.6286 9 53.4261 9.20636 53.4261 9.46174V15.0593L51.5456 13.7799L50.6892 11.1617C50.6712 11.1047 50.6421 11.052 50.6035 11.0064C50.5649 10.9608 50.5177 10.9234 50.4645 10.8963C50.4113 10.8692 50.3533 10.8529 50.2938 10.8484C50.2343 10.8439 50.1744 10.8513 50.1178 10.8702C50.0033 10.9106 49.9093 10.9943 49.8557 11.1033C49.8022 11.2122 49.7935 11.3378 49.8315 11.4531L50.319 12.9467L48.7029 11.8465C48.6536 11.813 48.598 11.7897 48.5395 11.778C48.481 11.7664 48.4207 11.7666 48.3623 11.7786C48.3038 11.7906 48.2484 11.8142 48.1992 11.8481C48.1501 11.8819 48.1082 11.9252 48.0761 11.9755C48.0098 12.0773 47.9858 12.2009 48.0091 12.3201C48.0325 12.4393 48.1014 12.5447 48.2012 12.6139L51.0284 14.5383H48.4527C48.2025 14.5383 48 14.7446 48 15C48 15.2541 48.2025 15.4605 48.4514 15.4605H52.3865L53.4273 16.1698Z" fill="white"/>
<path d="M120 19.7524C120.002 17.0781 119.452 14.4313 118.386 11.9727C117.319 9.51405 115.757 7.29491 113.794 5.44992C111.832 3.60494 109.51 2.17257 106.969 1.23975C104.429 0.306938 101.722 -0.106866 99.0148 0.0234517C89.4929 0.478949 80.6583 9.00242 80.0491 18.3844C79.823 21.5575 80.3803 24.7373 81.6734 27.6511C82.9665 30.5649 84.9568 33.1258 87.4734 35.1142C92.2286 38.7734 96.1559 43.3728 99.003 48.6176L99.5783 49.7497C99.6193 49.8254 99.6803 49.8887 99.7549 49.9327C99.8294 49.9769 99.9148 50.0001 100.002 50C100.179 50 100.341 49.9041 100.427 49.7497L100.758 49.1037C103.62 43.6783 107.612 38.9109 112.472 35.1142C114.817 33.2768 116.711 30.9417 118.015 28.2822C119.318 25.6228 119.996 22.7078 120 19.7539V19.7524Z" fill="#E53435"/>
<path fill-rule="evenodd" clip-rule="evenodd" d="M95.4832 28.0447L94.7313 26.8272L92.8418 25.4278H90.8117L88.6217 27.8048V30.2812H93.4402L95.4832 28.0447ZM98.5877 30.2863L99.5138 28.1299L95.9205 28.3285L94.1316 30.2863H98.5877ZM99.7472 27.5959L100.361 26.2545L95.3504 26.8556L95.9398 27.8074L99.7472 27.5959ZM100.662 25.6948L101.874 24.3276L96.4802 23.9845L95.353 26.3319L100.662 25.6948ZM101.919 23.8104L100.132 21.089H94.9248L96.4686 23.4622L101.919 23.8104ZM108.226 25.2421L104.935 21.089H100.744L102.573 23.8723L108.226 25.2421ZM96.0984 24.0555L93.4041 21.089H89.215L90.9742 24.0555L94.8177 25.362L96.0984 24.0555ZM91.1019 24.5121L88.5404 21.4398V27.5856L91.1019 24.5121ZM108.872 25.2292L111.373 21.3302V21.0813H105.585L108.872 25.2292ZM111.373 26.7563V22.2808L109.258 25.5774L111.373 26.7563ZM111.373 30.2863V27.347L108.89 25.9643L105.278 27.859L107.096 30.2863H111.373ZM106.455 30.2863L104.766 28.0318L100.08 28.1041L99.1436 30.2863H106.455ZM104.828 27.5121L108.164 25.7618L102.505 24.3908L101 26.0869L100.316 27.5817L104.828 27.5121Z" fill="white"/>
<path d="M93.4273 16.1698L93.2984 24.0555L94.3315 24.6913V19.7605L95.4329 18.187L98.0924 17.2816C98.2067 17.2409 98.3004 17.1571 98.3537 17.0482C98.407 16.9392 98.4155 16.8138 98.3775 16.6986C98.3596 16.6416 98.3306 16.5887 98.2921 16.543C98.2536 16.4973 98.2064 16.4597 98.1532 16.4325C98.1 16.4052 98.0419 16.3888 97.9823 16.3843C97.9227 16.3797 97.8628 16.387 97.8061 16.4059L96.3267 16.9089L98.7683 13.42C98.8379 13.3202 98.866 13.1972 98.8465 13.0771C98.827 12.9569 98.7615 12.8491 98.6638 12.7764C98.6156 12.7411 98.5608 12.7157 98.5026 12.7019C98.4445 12.6881 98.3841 12.6862 98.3251 12.6961C98.2662 12.7061 98.2099 12.7279 98.1595 12.76C98.1091 12.7922 98.0657 12.8342 98.0318 12.8835L97.0439 14.2971V13.1518C97.0449 13.0309 96.9979 12.9145 96.9133 12.8282C96.8287 12.7419 96.7133 12.6927 96.5924 12.6913C96.3422 12.6913 96.141 12.8977 96.141 13.1518V15.5894L94.3302 18.1741V9.46174C94.3309 9.40178 94.3197 9.34227 94.2974 9.28662C94.2751 9.23096 94.242 9.18025 94.2001 9.13737C94.1582 9.09449 94.1082 9.06029 94.0531 9.03672C93.998 9.01315 93.9387 9.00067 93.8788 9C93.6286 9 93.4261 9.20636 93.4261 9.46174V15.0593L91.5456 13.7799L90.6892 11.1617C90.6712 11.1047 90.6421 11.052 90.6035 11.0064C90.5649 10.9608 90.5177 10.9234 90.4645 10.8963C90.4113 10.8692 90.3533 10.8529 90.2938 10.8484C90.2343 10.8439 90.1744 10.8513 90.1178 10.8702C90.0033 10.9106 89.9093 10.9943 89.8557 11.1033C89.8022 11.2122 89.7935 11.3378 89.8315 11.4531L90.319 12.9467L88.7029 11.8465C88.6536 11.813 88.598 11.7897 88.5395 11.778C88.481 11.7664 88.4207 11.7666 88.3623 11.7786C88.3038 11.7906 88.2484 11.8142 88.1992 11.8481C88.1501 11.8819 88.1082 11.9252 88.0761 11.9755C88.0098 12.0773 87.9858 12.2009 88.0091 12.3201C88.0325 12.4393 88.1014 12.5447 88.2012 12.6139L91.0284 14.5383H88.4527C88.2025 14.5383 88 14.7446 88 15C88 15.2541 88.2025 15.4605 88.4514 15.4605H92.3865L93.4273 16.1698Z" fill="white"/>
<path d="M40 69.7524C40.0017 67.0781 39.4524 64.4313 38.3857 61.9727C37.3189 59.514 35.757 57.2949 33.7945 55.4499C31.832 53.6049 29.5099 52.1726 26.9694 51.2398C24.4287 50.3069 21.7225 49.8931 19.0148 50.0235C9.49287 50.4789 0.658323 59.0024 0.0490942 68.3844C-0.177041 71.5575 0.380342 74.7373 1.67343 77.6511C2.96654 80.5649 4.95676 83.1258 7.47342 85.1142C12.2286 88.7734 16.1559 93.3728 19.003 98.6176L19.5783 99.7497C19.6193 99.8254 19.6803 99.8887 19.7549 99.9327C19.8294 99.9769 19.9148 100 20.0017 100C20.1788 100 20.341 99.9041 20.4265 99.7497L20.7585 99.1037C23.6201 93.6783 27.6121 88.9109 32.4724 85.1142C34.817 83.2768 36.7113 80.9417 38.0146 78.2822C39.3179 75.6228 39.9965 72.7078 40 69.7539V69.7524Z" fill="#6EBC5C"/>
<path fill-rule="evenodd" clip-rule="evenodd" d="M22.4145 62.0001C22.6943 61.9949 22.9368 62.1931 22.9872 62.4685L24.3555 69.9381L24.652 69.5697C24.7604 69.435 24.9241 69.3566 25.0971 69.3566H31.4286C31.7442 69.3566 32 69.6124 32 69.928C32 70.2436 31.7442 70.4994 31.4286 70.4994H25.3708L24.4635 71.6268C24.3233 71.801 24.0945 71.8774 23.8779 71.8225C23.6612 71.7676 23.4965 71.5914 23.4562 71.3715L22.4911 66.103L21.7312 71.3505C21.6958 71.5951 21.5071 71.7892 21.2635 71.8316C21.02 71.8739 20.7768 71.7548 20.661 71.5364L19.714 69.752L18.3711 77.5258C18.3237 77.8001 18.0856 78.0003 17.8073 78C17.529 77.9997 17.2914 77.7988 17.2447 77.5244L15.8741 69.4707L14.557 70.3956C14.4608 70.4632 14.3461 70.4994 14.2286 70.4994H8.57143C8.25584 70.4994 8 70.2436 8 69.928C8 69.6124 8.25584 69.3566 8.57143 69.3566H14.048L15.9573 68.0158C16.1177 67.9031 16.3247 67.8806 16.5056 67.956C16.6865 68.0314 16.8162 68.1943 16.849 68.3876L17.8122 74.0473L18.8723 67.9107C18.9139 67.67 19.104 67.4823 19.3453 67.4437C19.5866 67.4052 19.8257 67.5243 19.9402 67.7401L20.8508 69.4561L21.8596 62.4895C21.8997 62.2125 22.1346 62.0053 22.4145 62.0001Z" fill="white"/>
<path d="M80 69.7524C80.0017 67.0781 79.4524 64.4313 78.3857 61.9727C77.3189 59.514 75.757 57.2949 73.7945 55.4499C71.832 53.6049 69.5099 52.1726 66.9694 51.2398C64.4287 50.3069 61.7225 49.8931 59.0148 50.0235C49.4929 50.4789 40.6583 59.0024 40.0491 68.3844C39.823 71.5575 40.3803 74.7373 41.6734 77.6511C42.9665 80.5649 44.9568 83.1258 47.4734 85.1142C52.2286 88.7734 56.1559 93.3728 59.003 98.6176L59.5783 99.7497C59.6193 99.8254 59.6803 99.8887 59.7549 99.9327C59.8294 99.9769 59.9148 100 60.0017 100C60.1788 100 60.341 99.9041 60.4265 99.7497L60.7585 99.1037C63.6201 93.6783 67.6121 88.9109 72.4724 85.1142C74.817 83.2768 76.7113 80.9417 78.0146 78.2822C79.3179 75.6228 79.9965 72.7078 80 69.7539V69.7524Z" fill="#EEA043"/>
<path fill-rule="evenodd" clip-rule="evenodd" d="M62.4145 62.0001C62.6943 61.9949 62.9368 62.1931 62.9872 62.4685L64.3555 69.9381L64.652 69.5697C64.7604 69.435 64.9241 69.3566 65.0971 69.3566H71.4286C71.7442 69.3566 72 69.6124 72 69.928C72 70.2436 71.7442 70.4994 71.4286 70.4994H65.3708L64.4635 71.6268C64.3233 71.801 64.0945 71.8774 63.8779 71.8225C63.6612 71.7676 63.4965 71.5914 63.4562 71.3715L62.4911 66.103L61.7312 71.3505C61.6958 71.5951 61.5071 71.7892 61.2635 71.8316C61.02 71.8739 60.7768 71.7548 60.661 71.5364L59.714 69.752L58.3711 77.5258C58.3237 77.8001 58.0856 78.0003 57.8073 78C57.529 77.9997 57.2914 77.7988 57.2447 77.5244L55.8741 69.4707L54.557 70.3956C54.4608 70.4632 54.3461 70.4994 54.2286 70.4994H48.5714C48.2558 70.4994 48 70.2436 48 69.928C48 69.6124 48.2558 69.3566 48.5714 69.3566H54.048L55.9573 68.0158C56.1177 67.9031 56.3247 67.8806 56.5056 67.956C56.6865 68.0314 56.8162 68.1943 56.849 68.3876L57.8122 74.0473L58.8723 67.9107C58.9139 67.67 59.104 67.4823 59.3453 67.4437C59.5866 67.4052 59.8257 67.5243 59.9402 67.7401L60.8508 69.4561L61.8596 62.4895C61.8997 62.2125 62.1346 62.0053 62.4145 62.0001Z" fill="white"/>
<path d="M120 69.7524C120.002 67.0781 119.452 64.4313 118.386 61.9727C117.319 59.514 115.757 57.2949 113.794 55.4499C111.832 53.6049 109.51 52.1726 106.969 51.2398C104.429 50.3069 101.722 49.8931 99.0148 50.0235C89.4929 50.4789 80.6583 59.0024 80.0491 68.3844C79.823 71.5575 80.3803 74.7373 81.6734 77.6511C82.9665 80.5649 84.9568 83.1258 87.4734 85.1142C92.2286 88.7734 96.1559 93.3728 99.003 98.6176L99.5783 99.7497C99.6193 99.8254 99.6803 99.8887 99.7549 99.9327C99.8294 99.9769 99.9148 100 100.002 100C100.179 100 100.341 99.9041 100.427 99.7497L100.758 99.1037C103.62 93.6783 107.612 88.9109 112.472 85.1142C114.817 83.2768 116.711 80.9417 118.015 78.2822C119.318 75.6228 119.996 72.7078 120 69.7539V69.7524Z" fill="#E53435"/>
<path fill-rule="evenodd" clip-rule="evenodd" d="M102.414 62.0001C102.694 61.9949 102.937 62.1931 102.987 62.4685L104.356 69.9381L104.652 69.5697C104.76 69.435 104.924 69.3566 105.097 69.3566H111.429C111.744 69.3566 112 69.6124 112 69.928C112 70.2436 111.744 70.4994 111.429 70.4994H105.371L104.463 71.6268C104.323 71.801 104.095 71.8774 103.878 71.8225C103.661 71.7676 103.496 71.5914 103.456 71.3715L102.491 66.103L101.731 71.3505C101.696 71.5951 101.507 71.7892 101.264 71.8316C101.02 71.8739 100.777 71.7548 100.661 71.5364L99.714 69.752L98.3711 77.5258C98.3237 77.8001 98.0856 78.0003 97.8073 78C97.529 77.9997 97.2914 77.7988 97.2447 77.5244L95.8741 69.4707L94.557 70.3956C94.4608 70.4632 94.3461 70.4994 94.2286 70.4994H88.5714C88.2558 70.4994 88 70.2436 88 69.928C88 69.6124 88.2558 69.3566 88.5714 69.3566H94.048L95.9573 68.0158C96.1177 67.9031 96.3247 67.8806 96.5056 67.956C96.6865 68.0314 96.8162 68.1943 96.849 68.3876L97.8122 74.0473L98.8723 67.9107C98.9139 67.67 99.104 67.4823 99.3453 67.4437C99.5866 67.4052 99.8257 67.5243 99.9402 67.7401L100.851 69.4561L101.86 62.4895C101.9 62.2125 102.135 62.0053 102.414 62.0001Z" fill="white"/>
<path d="M40 119.752C40.0017 117.078 39.4524 114.431 38.3857 111.973C37.3189 109.514 35.757 107.295 33.7945 105.45C31.832 103.605 29.5099 102.173 26.9694 101.24C24.4287 100.307 21.7225 99.8931 19.0148 100.023C9.49287 100.479 0.658323 109.002 0.0490942 118.384C-0.177041 121.557 0.380342 124.737 1.67343 127.651C2.96654 130.565 4.95676 133.126 7.47342 135.114C12.2286 138.773 16.1559 143.373 19.003 148.618L19.5783 149.75C19.6193 149.825 19.6803 149.889 19.7549 149.933C19.8294 149.977 19.9148 150 20.0017 150C20.1788 150 20.341 149.904 20.4265 149.75L20.7585 149.104C23.6201 143.678 27.6121 138.911 32.4724 135.114C34.817 133.277 36.7113 130.942 38.0146 128.282C39.3179 125.623 39.9965 122.708 40 119.754V119.752Z" fill="#6EBC5C"/>
<path d="M22.0507 125.73V119.134H16.0354V125.73C16.9798 125.385 21.1051 125.385 22.0507 125.73Z" fill="white"/>
<path d="M15.1211 126.136L15.1752 126.103V117.735C15.1752 117.563 15.243 117.399 15.3638 117.277C15.4846 117.155 15.6486 117.086 15.82 117.085H22.2649C22.35 117.085 22.4344 117.101 22.5131 117.134C22.5918 117.166 22.6633 117.214 22.7233 117.275C22.7833 117.335 22.8307 117.407 22.8627 117.486C22.8947 117.565 22.9107 117.649 22.9097 117.735V126.103C22.9314 126.115 22.9554 126.131 22.9771 126.142C23.1287 126.077 27.6209 124.938 28.0275 125.062C28.0501 125.001 28.0631 124.936 28.066 124.871V115.138C28.0659 115.039 28.043 114.941 27.9992 114.852C27.9554 114.763 27.8919 114.685 27.8134 114.625L19.4353 108.134C19.3228 108.047 19.1846 108 19.0425 108C18.9003 108 18.7621 108.047 18.6497 108.134L10.2715 114.625C10.193 114.685 10.1293 114.763 10.0855 114.852C10.0418 114.941 10.0189 115.039 10.0189 115.138V124.871C10.022 124.937 10.0354 125.002 10.0586 125.064C10.464 124.938 14.9274 126.062 15.1211 126.134V126.136Z" fill="white"/>
<path fill-rule="evenodd" clip-rule="evenodd" d="M10.9849 127.422C11.6815 127.973 12.4527 128.412 13.3069 128.682C14.0579 128.916 14.8428 129.022 15.6288 128.995C17.3937 128.951 19.1417 128.349 20.7971 127.787C21.7476 127.464 22.7076 127.135 23.6881 126.903C24.6145 126.683 25.5709 126.549 26.5249 126.629C27.3911 126.701 28.1948 126.945 28.9479 127.369C29.2366 127.532 29.3341 127.892 29.1669 128.172C29.0837 128.308 28.9513 128.406 28.7974 128.446C28.6435 128.486 28.4801 128.464 28.3416 128.386C27.8556 128.113 27.3234 127.93 26.7716 127.849C25.8813 127.714 24.9658 127.825 24.0923 128.021C23.1106 128.241 22.1458 128.574 21.1954 128.897C20.7105 129.061 20.2245 129.225 19.736 129.38C18.5209 129.764 17.2673 130.09 15.9861 130.171C13.7893 130.309 11.9269 129.682 10.2234 128.334C10.1621 128.286 10.111 128.227 10.0732 128.159C10.0354 128.091 10.0116 128.016 10.0033 127.939C9.99501 127.862 10.0023 127.784 10.0248 127.71C10.0474 127.636 10.0846 127.567 10.1344 127.507C10.2379 127.386 10.3842 127.31 10.5427 127.294C10.7012 127.278 10.8597 127.324 10.9849 127.423V127.422Z" fill="white"/>
<path fill-rule="evenodd" clip-rule="evenodd" d="M10.9849 129.232C11.6815 129.783 12.4527 130.221 13.3069 130.493C14.0579 130.726 14.8428 130.832 15.6288 130.806C17.3937 130.76 19.1417 130.159 20.7971 129.597C21.7476 129.274 22.7076 128.946 23.6881 128.714C24.6145 128.494 25.5709 128.359 26.5249 128.438C27.3911 128.51 28.1948 128.756 28.9479 129.179C29.2366 129.342 29.3341 129.701 29.1669 129.982C29.0837 130.117 28.9513 130.215 28.7974 130.255C28.6435 130.295 28.4801 130.274 28.3416 130.196C27.8556 129.922 27.3234 129.74 26.7716 129.658C25.8813 129.523 24.9658 129.634 24.0923 129.83C23.1106 130.052 22.1458 130.384 21.1954 130.706C20.7105 130.871 20.2245 131.036 19.736 131.19C18.5209 131.575 17.2673 131.901 15.9861 131.981C13.7893 132.12 11.9269 131.492 10.2234 130.143C10.1623 130.095 10.1114 130.036 10.0737 129.968C10.036 129.901 10.0122 129.826 10.0039 129.749C9.99564 129.672 10.0029 129.594 10.0253 129.52C10.0477 129.446 10.0848 129.377 10.1344 129.318C10.2377 129.196 10.3839 129.12 10.5425 129.104C10.701 129.088 10.8596 129.134 10.9849 129.232Z" fill="white"/>
<path d="M80 119.752C80.0017 117.078 79.4524 114.431 78.3857 111.973C77.3189 109.514 75.757 107.295 73.7945 105.45C71.832 103.605 69.5099 102.173 66.9694 101.24C64.4287 100.307 61.7225 99.8931 59.0148 100.023C49.4929 100.479 40.6583 109.002 40.0491 118.384C39.823 121.557 40.3803 124.737 41.6734 127.651C42.9665 130.565 44.9568 133.126 47.4734 135.114C52.2286 138.773 56.1559 143.373 59.003 148.618L59.5783 149.75C59.6193 149.825 59.6803 149.889 59.7549 149.933C59.8294 149.977 59.9148 150 60.0017 150C60.1788 150 60.341 149.904 60.4265 149.75L60.7585 149.104C63.6201 143.678 67.6121 138.911 72.4724 135.114C74.817 133.277 76.7113 130.942 78.0146 128.282C79.3179 125.623 79.9965 122.708 80 119.754V119.752Z" fill="#EEA043"/>
<path d="M62.0507 125.73V119.134H56.0354V125.73C56.9798 125.385 61.1051 125.385 62.0507 125.73Z" fill="white"/>
<path d="M55.1211 126.136L55.1752 126.103V117.735C55.1752 117.563 55.243 117.399 55.3638 117.277C55.4846 117.155 55.6486 117.086 55.82 117.085H62.2649C62.35 117.085 62.4344 117.101 62.5131 117.134C62.5918 117.166 62.6633 117.214 62.7233 117.275C62.7833 117.335 62.8307 117.407 62.8627 117.486C62.8947 117.565 62.9107 117.649 62.9097 117.735V126.103C62.9314 126.115 62.9554 126.131 62.9771 126.142C63.1287 126.077 67.6209 124.938 68.0275 125.062C68.0501 125.001 68.0631 124.936 68.066 124.871V115.138C68.0659 115.039 68.043 114.941 67.9992 114.852C67.9554 114.763 67.8919 114.685 67.8134 114.625L59.4353 108.134C59.3228 108.047 59.1846 108 59.0425 108C58.9003 108 58.7621 108.047 58.6497 108.134L50.2715 114.625C50.193 114.685 50.1293 114.763 50.0855 114.852C50.0418 114.941 50.0189 115.039 50.0189 115.138V124.871C50.022 124.937 50.0354 125.002 50.0586 125.064C50.464 124.938 54.9274 126.062 55.1211 126.134V126.136Z" fill="white"/>
<path fill-rule="evenodd" clip-rule="evenodd" d="M50.9849 127.422C51.6815 127.973 52.4527 128.412 53.3069 128.682C54.0579 128.916 54.8428 129.022 55.6288 128.995C57.3937 128.951 59.1417 128.349 60.7971 127.787C61.7476 127.464 62.7076 127.135 63.6881 126.903C64.6145 126.683 65.5709 126.549 66.5249 126.629C67.3911 126.701 68.1948 126.945 68.9479 127.369C69.2366 127.532 69.3341 127.892 69.1669 128.172C69.0837 128.308 68.9513 128.406 68.7974 128.446C68.6435 128.486 68.4801 128.464 68.3416 128.386C67.8556 128.113 67.3234 127.93 66.7716 127.849C65.8813 127.714 64.9658 127.825 64.0923 128.021C63.1106 128.241 62.1458 128.574 61.1954 128.897C60.7105 129.061 60.2245 129.225 59.736 129.38C58.5209 129.764 57.2673 130.09 55.9861 130.171C53.7893 130.309 51.9269 129.682 50.2234 128.334C50.1621 128.286 50.111 128.227 50.0732 128.159C50.0354 128.091 50.0116 128.016 50.0033 127.939C49.995 127.862 50.0023 127.784 50.0248 127.71C50.0474 127.636 50.0846 127.567 50.1344 127.507C50.2379 127.386 50.3842 127.31 50.5427 127.294C50.7012 127.278 50.8597 127.324 50.9849 127.423V127.422Z" fill="white"/>
<path fill-rule="evenodd" clip-rule="evenodd" d="M50.9849 129.232C51.6815 129.783 52.4527 130.221 53.3069 130.493C54.0579 130.726 54.8428 130.832 55.6288 130.806C57.3937 130.76 59.1417 130.159 60.7971 129.597C61.7476 129.274 62.7076 128.946 63.6881 128.714C64.6145 128.494 65.5709 128.359 66.5249 128.438C67.3911 128.51 68.1948 128.756 68.9479 129.179C69.2366 129.342 69.3341 129.701 69.1669 129.982C69.0837 130.117 68.9513 130.215 68.7974 130.255C68.6435 130.295 68.4801 130.274 68.3416 130.196C67.8556 129.922 67.3234 129.74 66.7716 129.658C65.8813 129.523 64.9658 129.634 64.0923 129.83C63.1106 130.052 62.1458 130.384 61.1954 130.706C60.7105 130.871 60.2245 131.036 59.736 131.19C58.5209 131.575 57.2673 131.901 55.9861 131.981C53.7893 132.12 51.9269 131.492 50.2234 130.143C50.1623 130.095 50.1114 130.036 50.0737 129.968C50.036 129.901 50.0122 129.826 50.0039 129.749C49.9956 129.672 50.0029 129.594 50.0253 129.52C50.0477 129.446 50.0848 129.377 50.1344 129.318C50.2377 129.196 50.3839 129.12 50.5425 129.104C50.701 129.088 50.8596 129.134 50.9849 129.232Z" fill="white"/>
<path d="M120 119.752C120.002 117.078 119.452 114.431 118.386 111.973C117.319 109.514 115.757 107.295 113.794 105.45C111.832 103.605 109.51 102.173 106.969 101.24C104.429 100.307 101.722 99.8931 99.0148 100.023C89.4929 100.479 80.6583 109.002 80.0491 118.384C79.823 121.557 80.3803 124.737 81.6734 127.651C82.9665 130.565 84.9568 133.126 87.4734 135.114C92.2286 138.773 96.1559 143.373 99.003 148.618L99.5783 149.75C99.6193 149.825 99.6803 149.889 99.7549 149.933C99.8294 149.977 99.9148 150 100.002 150C100.179 150 100.341 149.904 100.427 149.75L100.758 149.104C103.62 143.678 107.612 138.911 112.472 135.114C114.817 133.277 116.711 130.942 118.015 128.282C119.318 125.623 119.996 122.708 120 119.754V119.752Z" fill="#E53435"/>
<path d="M102.051 125.73V119.134H96.0354V125.73C96.9798 125.385 101.105 125.385 102.051 125.73Z" fill="white"/>
<path d="M95.1211 126.136L95.1752 126.103V117.735C95.1752 117.563 95.243 117.399 95.3638 117.277C95.4846 117.155 95.6486 117.086 95.82 117.085H102.265C102.35 117.085 102.434 117.101 102.513 117.134C102.592 117.166 102.663 117.214 102.723 117.275C102.783 117.335 102.831 117.407 102.863 117.486C102.895 117.565 102.911 117.649 102.91 117.735V126.103C102.931 126.115 102.955 126.131 102.977 126.142C103.129 126.077 107.621 124.938 108.028 125.062C108.05 125.001 108.063 124.936 108.066 124.871V115.138C108.066 115.039 108.043 114.941 107.999 114.852C107.955 114.763 107.892 114.685 107.813 114.625L99.4353 108.134C99.3228 108.047 99.1846 108 99.0425 108C98.9003 108 98.7621 108.047 98.6497 108.134L90.2715 114.625C90.193 114.685 90.1293 114.763 90.0855 114.852C90.0418 114.941 90.0189 115.039 90.0189 115.138V124.871C90.022 124.937 90.0354 125.002 90.0586 125.064C90.464 124.938 94.9274 126.062 95.1211 126.134V126.136Z" fill="white"/>
<path fill-rule="evenodd" clip-rule="evenodd" d="M90.9849 127.422C91.6815 127.973 92.4527 128.412 93.3069 128.682C94.0579 128.916 94.8428 129.022 95.6288 128.995C97.3937 128.951 99.1417 128.349 100.797 127.787C101.748 127.464 102.708 127.135 103.688 126.903C104.614 126.683 105.571 126.549 106.525 126.629C107.391 126.701 108.195 126.945 108.948 127.369C109.237 127.532 109.334 127.892 109.167 128.172C109.084 128.308 108.951 128.406 108.797 128.446C108.643 128.486 108.48 128.464 108.342 128.386C107.856 128.113 107.323 127.93 106.772 127.849C105.881 127.714 104.966 127.825 104.092 128.021C103.111 128.241 102.146 128.574 101.195 128.897C100.711 129.061 100.224 129.225 99.736 129.38C98.5209 129.764 97.2673 130.09 95.9861 130.171C93.7893 130.309 91.9269 129.682 90.2234 128.334C90.1621 128.286 90.111 128.227 90.0732 128.159C90.0354 128.091 90.0116 128.016 90.0033 127.939C89.995 127.862 90.0023 127.784 90.0248 127.71C90.0474 127.636 90.0846 127.567 90.1344 127.507C90.2379 127.386 90.3842 127.31 90.5427 127.294C90.7012 127.278 90.8597 127.324 90.9849 127.423V127.422Z" fill="white"/>
<path fill-rule="evenodd" clip-rule="evenodd" d="M90.9849 129.232C91.6815 129.783 92.4527 130.221 93.3069 130.493C94.0579 130.726 94.8428 130.832 95.6288 130.806C97.3937 130.76 99.1417 130.159 100.797 129.597C101.748 129.274 102.708 128.946 103.688 128.714C104.614 128.494 105.571 128.359 106.525 128.438C107.391 128.51 108.195 128.756 108.948 129.179C109.237 129.342 109.334 129.701 109.167 129.982C109.084 130.117 108.951 130.215 108.797 130.255C108.643 130.295 108.48 130.274 108.342 130.196C107.856 129.922 107.323 129.74 106.772 129.658C105.881 129.523 104.966 129.634 104.092 129.83C103.111 130.052 102.146 130.384 101.195 130.706C100.711 130.871 100.224 131.036 99.736 131.19C98.5209 131.575 97.2673 131.901 95.9861 131.981C93.7893 132.12 91.9269 131.492 90.2234 130.143C90.1623 130.095 90.1114 130.036 90.0737 129.968C90.036 129.901 90.0122 129.826 90.0039 129.749C89.9956 129.672 90.0029 129.594 90.0253 129.52C90.0477 129.446 90.0848 129.377 90.1344 129.318C90.2377 129.196 90.3839 129.12 90.5425 129.104C90.701 129.088 90.8596 129.134 90.9849 129.232Z" fill="white"/>
<path d="M40 169.752C40.0017 167.078 39.4524 164.431 38.3857 161.973C37.3189 159.514 35.757 157.295 33.7945 155.45C31.832 153.605 29.5099 152.173 26.9694 151.24C24.4287 150.307 21.7225 149.893 19.0148 150.023C9.49287 150.479 0.658323 159.002 0.0490942 168.384C-0.177041 171.557 0.380342 174.737 1.67343 177.651C2.96654 180.565 4.95676 183.126 7.47342 185.114C12.2286 188.773 16.1559 193.373 19.003 198.618L19.5783 199.75C19.6193 199.825 19.6803 199.889 19.7549 199.933C19.8294 199.977 19.9148 200 20.0017 200C20.1788 200 20.341 199.904 20.4265 199.75L20.7585 199.104C23.6201 193.678 27.6121 188.911 32.4724 185.114C34.817 183.277 36.7113 180.942 38.0146 178.282C39.3179 175.623 39.9965 172.708 40 169.754V169.752Z" fill="#6EBC5C"/>
<g clip-path="url(#clip0)">
<path fill-rule="evenodd" clip-rule="evenodd" d="M12.9984 163.986C12.2964 165.39 12.0672 166.813 12.054 168.04C10.8924 164.872 11.3532 162.622 11.4084 162.379C11.4436 162.253 11.4278 162.118 11.3642 162.003C11.3006 161.889 11.1945 161.804 11.0688 161.767C10.9398 161.726 10.8 161.737 10.679 161.798C10.558 161.858 10.4653 161.963 10.4208 162.091C9.10798 166.064 9.30358 169.01 10.1964 171.182C11.1144 173.414 12.7596 174.817 14.274 175.682C10.8876 175.08 9.10798 173.591 8.89198 173.4C8.7975 173.304 8.67021 173.249 8.536 173.244C8.4018 173.239 8.27077 173.285 8.16958 173.374C8.11955 173.417 8.07878 173.469 8.04974 173.529C8.02071 173.588 8.004 173.653 8.00063 173.719C7.99727 173.785 8.00732 173.851 8.03017 173.913C8.05302 173.974 8.0882 174.031 8.13358 174.079H8.13478C11.862 178.051 15.3119 179.082 18.1163 178.883C19.7243 178.769 21.1127 178.247 22.2179 177.644C20.0099 180.154 17.8139 180.913 17.4947 181.013C17.4293 181.025 17.3671 181.051 17.3116 181.087C17.2561 181.124 17.2086 181.172 17.1717 181.227C17.1348 181.283 17.1094 181.345 17.0968 181.41C17.0843 181.476 17.085 181.543 17.0987 181.608C17.1304 181.74 17.2128 181.854 17.328 181.926C17.4432 181.997 17.582 182.021 17.7143 181.991C23.1311 180.851 25.7783 178.471 27.0023 176.018C27.7031 174.613 27.9323 173.19 27.9455 171.965C29.1071 175.133 28.6463 177.382 28.5911 177.625C28.5558 177.751 28.5717 177.886 28.6353 178.001C28.6988 178.115 28.805 178.2 28.9307 178.237C29.2019 178.321 29.4923 178.177 29.5787 177.913C31.2695 172.798 30.4631 169.387 28.8803 167.135C27.9743 165.846 26.8163 164.944 25.7267 164.321C29.1107 164.923 30.8915 166.414 31.1075 166.603C31.2019 166.699 31.3293 166.755 31.4638 166.761C31.5983 166.766 31.7297 166.719 31.8311 166.631C31.881 166.588 31.9217 166.535 31.9506 166.475C31.9796 166.416 31.9962 166.351 31.9994 166.285C32.0027 166.219 31.9925 166.154 31.9696 166.092C31.9466 166.03 31.9113 165.973 31.8659 165.925H31.8647C28.1387 161.953 24.6875 160.921 21.8843 161.122C20.2751 161.236 18.8867 161.756 17.7815 162.36C19.9895 159.85 22.1855 159.091 22.5047 158.99C22.57 158.978 22.6321 158.953 22.6875 158.916C22.7429 158.879 22.7904 158.832 22.8273 158.776C22.8641 158.721 22.8896 158.659 22.9022 158.594C22.9148 158.529 22.9143 158.461 22.9007 158.396C22.8693 158.265 22.7872 158.15 22.6722 158.078C22.5573 158.007 22.4186 157.983 22.2863 158.012V158.014C16.8683 159.154 14.2212 161.533 12.9984 163.986ZM21.4583 167.633C22.091 167.993 22.5559 168.588 22.7519 169.289C22.9403 169.969 22.8599 170.719 22.4663 171.379L22.4675 171.382C22.0824 172.022 21.46 172.483 20.7359 172.667C20.0073 172.857 19.2334 172.758 18.5759 172.391C18.2543 172.214 17.9713 171.974 17.7434 171.686C17.5155 171.398 17.3473 171.068 17.2487 170.714C17.1517 170.365 17.1269 169.999 17.1758 169.64C17.2247 169.28 17.3463 168.935 17.5331 168.624L17.5319 168.623C17.9171 167.983 18.5394 167.521 19.2635 167.338C19.9922 167.148 20.7661 167.246 21.4235 167.614L21.4247 167.612L21.4583 167.633Z" fill="white"/>
</g>
<path d="M80 169.752C80.0017 167.078 79.4524 164.431 78.3857 161.973C77.3189 159.514 75.757 157.295 73.7945 155.45C71.832 153.605 69.5099 152.173 66.9694 151.24C64.4287 150.307 61.7225 149.893 59.0148 150.023C49.4929 150.479 40.6583 159.002 40.0491 168.384C39.823 171.557 40.3803 174.737 41.6734 177.651C42.9665 180.565 44.9568 183.126 47.4734 185.114C52.2286 188.773 56.1559 193.373 59.003 198.618L59.5783 199.75C59.6193 199.825 59.6803 199.889 59.7549 199.933C59.8294 199.977 59.9148 200 60.0017 200C60.1788 200 60.341 199.904 60.4265 199.75L60.7585 199.104C63.6201 193.678 67.6121 188.911 72.4724 185.114C74.817 183.277 76.7113 180.942 78.0146 178.282C79.3179 175.623 79.9965 172.708 80 169.754V169.752Z" fill="#EEA043"/>
<g clip-path="url(#clip1)">
<path fill-rule="evenodd" clip-rule="evenodd" d="M52.9984 163.986C52.2964 165.39 52.0672 166.813 52.054 168.04C50.8924 164.872 51.3532 162.622 51.4084 162.379C51.4436 162.253 51.4278 162.118 51.3642 162.003C51.3006 161.889 51.1945 161.804 51.0688 161.767C50.9398 161.726 50.8 161.737 50.679 161.798C50.558 161.858 50.4653 161.963 50.4208 162.091C49.108 166.064 49.3036 169.01 50.1964 171.182C51.1144 173.414 52.7596 174.817 54.274 175.682C50.8876 175.08 49.108 173.591 48.892 173.4C48.7975 173.304 48.6702 173.249 48.536 173.244C48.4018 173.239 48.2708 173.285 48.1696 173.374C48.1195 173.417 48.0788 173.469 48.0497 173.529C48.0207 173.588 48.004 173.653 48.0006 173.719C47.9973 173.785 48.0073 173.851 48.0302 173.913C48.053 173.974 48.0882 174.031 48.1336 174.079H48.1348C51.862 178.051 55.3119 179.082 58.1163 178.883C59.7243 178.769 61.1127 178.247 62.2179 177.644C60.0099 180.154 57.8139 180.913 57.4947 181.013C57.4293 181.025 57.3671 181.051 57.3116 181.087C57.2561 181.124 57.2086 181.172 57.1717 181.227C57.1348 181.283 57.1094 181.345 57.0968 181.41C57.0843 181.476 57.085 181.543 57.0987 181.608C57.1304 181.74 57.2128 181.854 57.328 181.926C57.4432 181.997 57.582 182.021 57.7143 181.991C63.1311 180.851 65.7783 178.471 67.0023 176.018C67.7031 174.613 67.9323 173.19 67.9455 171.965C69.1071 175.133 68.6463 177.382 68.5911 177.625C68.5558 177.751 68.5717 177.886 68.6353 178.001C68.6988 178.115 68.805 178.2 68.9307 178.237C69.2019 178.321 69.4923 178.177 69.5787 177.913C71.2695 172.798 70.4631 169.387 68.8803 167.135C67.9743 165.846 66.8163 164.944 65.7267 164.321C69.1107 164.923 70.8915 166.414 71.1075 166.603C71.2019 166.699 71.3293 166.755 71.4638 166.761C71.5983 166.766 71.7297 166.719 71.8311 166.631C71.881 166.588 71.9217 166.535 71.9506 166.475C71.9796 166.416 71.9962 166.351 71.9994 166.285C72.0027 166.219 71.9925 166.154 71.9696 166.092C71.9466 166.03 71.9113 165.973 71.8659 165.925H71.8647C68.1387 161.953 64.6875 160.921 61.8843 161.122C60.2751 161.236 58.8867 161.756 57.7815 162.36C59.9895 159.85 62.1855 159.091 62.5047 158.99C62.57 158.978 62.6321 158.953 62.6875 158.916C62.7429 158.879 62.7904 158.832 62.8273 158.776C62.8641 158.721 62.8896 158.659 62.9022 158.594C62.9148 158.529 62.9143 158.461 62.9007 158.396C62.8693 158.265 62.7872 158.15 62.6722 158.078C62.5573 158.007 62.4186 157.983 62.2863 158.012V158.014C56.8683 159.154 54.2212 161.533 52.9984 163.986ZM61.4583 167.633C62.091 167.993 62.5559 168.588 62.7519 169.289C62.9403 169.969 62.8599 170.719 62.4663 171.379L62.4675 171.382C62.0824 172.022 61.46 172.483 60.7359 172.667C60.0073 172.857 59.2334 172.758 58.5759 172.391C58.2543 172.214 57.9713 171.974 57.7434 171.686C57.5155 171.398 57.3473 171.068 57.2487 170.714C57.1517 170.365 57.1269 169.999 57.1758 169.64C57.2247 169.28 57.3463 168.935 57.5331 168.624L57.5319 168.623C57.9171 167.983 58.5394 167.521 59.2635 167.338C59.9922 167.148 60.7661 167.246 61.4235 167.614L61.4247 167.612L61.4583 167.633Z" fill="white"/>
</g>
<path d="M120 169.752C120.002 167.078 119.452 164.431 118.386 161.973C117.319 159.514 115.757 157.295 113.794 155.45C111.832 153.605 109.51 152.173 106.969 151.24C104.429 150.307 101.722 149.893 99.0148 150.023C89.4929 150.479 80.6583 159.002 80.0491 168.384C79.823 171.557 80.3803 174.737 81.6734 177.651C82.9665 180.565 84.9568 183.126 87.4734 185.114C92.2286 188.773 96.1559 193.373 99.003 198.618L99.5783 199.75C99.6193 199.825 99.6803 199.889 99.7549 199.933C99.8294 199.977 99.9148 200 100.002 200C100.179 200 100.341 199.904 100.427 199.75L100.758 199.104C103.62 193.678 107.612 188.911 112.472 185.114C114.817 183.277 116.711 180.942 118.015 178.282C119.318 175.623 119.996 172.708 120 169.754V169.752Z" fill="#E53435"/>
<g clip-path="url(#clip2)">
<path fill-rule="evenodd" clip-rule="evenodd" d="M92.9984 163.986C92.2964 165.39 92.0672 166.813 92.054 168.04C90.8924 164.872 91.3532 162.622 91.4084 162.379C91.4436 162.253 91.4278 162.118 91.3642 162.003C91.3006 161.889 91.1945 161.804 91.0688 161.767C90.9398 161.726 90.8 161.737 90.679 161.798C90.558 161.858 90.4653 161.963 90.4208 162.091C89.108 166.064 89.3036 169.01 90.1964 171.182C91.1144 173.414 92.7596 174.817 94.274 175.682C90.8876 175.08 89.108 173.591 88.892 173.4C88.7975 173.304 88.6702 173.249 88.536 173.244C88.4018 173.239 88.2708 173.285 88.1696 173.374C88.1195 173.417 88.0788 173.469 88.0497 173.529C88.0207 173.588 88.004 173.653 88.0006 173.719C87.9973 173.785 88.0073 173.851 88.0302 173.913C88.053 173.974 88.0882 174.031 88.1336 174.079H88.1348C91.862 178.051 95.3119 179.082 98.1163 178.883C99.7243 178.769 101.113 178.247 102.218 177.644C100.01 180.154 97.8139 180.913 97.4947 181.013C97.4293 181.025 97.3671 181.051 97.3116 181.087C97.2561 181.124 97.2086 181.172 97.1717 181.227C97.1348 181.283 97.1094 181.345 97.0968 181.41C97.0843 181.476 97.085 181.543 97.0987 181.608C97.1304 181.74 97.2128 181.854 97.328 181.926C97.4432 181.997 97.582 182.021 97.7143 181.991C103.131 180.851 105.778 178.471 107.002 176.018C107.703 174.613 107.932 173.19 107.945 171.965C109.107 175.133 108.646 177.382 108.591 177.625C108.556 177.751 108.572 177.886 108.635 178.001C108.699 178.115 108.805 178.2 108.931 178.237C109.202 178.321 109.492 178.177 109.579 177.913C111.269 172.798 110.463 169.387 108.88 167.135C107.974 165.846 106.816 164.944 105.727 164.321C109.111 164.923 110.891 166.414 111.107 166.603C111.202 166.699 111.329 166.755 111.464 166.761C111.598 166.766 111.73 166.719 111.831 166.631C111.881 166.588 111.922 166.535 111.951 166.475C111.98 166.416 111.996 166.351 111.999 166.285C112.003 166.219 111.993 166.154 111.97 166.092C111.947 166.03 111.911 165.973 111.866 165.925H111.865C108.139 161.953 104.688 160.921 101.884 161.122C100.275 161.236 98.8867 161.756 97.7815 162.36C99.9895 159.85 102.186 159.091 102.505 158.99C102.57 158.978 102.632 158.953 102.688 158.916C102.743 158.879 102.79 158.832 102.827 158.776C102.864 158.721 102.89 158.659 102.902 158.594C102.915 158.529 102.914 158.461 102.901 158.396C102.869 158.265 102.787 158.15 102.672 158.078C102.557 158.007 102.419 157.983 102.286 158.012V158.014C96.8683 159.154 94.2212 161.533 92.9984 163.986ZM101.458 167.633C102.091 167.993 102.556 168.588 102.752 169.289C102.94 169.969 102.86 170.719 102.466 171.379L102.468 171.382C102.082 172.022 101.46 172.483 100.736 172.667C100.007 172.857 99.2334 172.758 98.5759 172.391C98.2543 172.214 97.9713 171.974 97.7434 171.686C97.5155 171.398 97.3473 171.068 97.2487 170.714C97.1517 170.365 97.1269 169.999 97.1758 169.64C97.2247 169.28 97.3463 168.935 97.5331 168.624L97.5319 168.623C97.9171 167.983 98.5394 167.521 99.2635 167.338C99.9922 167.148 100.766 167.246 101.424 167.614L101.425 167.612L101.458 167.633Z" fill="white"/>
</g>
<path d="M40 219.752C40.0017 217.078 39.4524 214.431 38.3857 211.973C37.3189 209.514 35.757 207.295 33.7945 205.45C31.832 203.605 29.5099 202.173 26.9694 201.24C24.4287 200.307 21.7225 199.893 19.0148 200.023C9.49287 200.479 0.658323 209.002 0.0490942 218.384C-0.177041 221.557 0.380342 224.737 1.67343 227.651C2.96654 230.565 4.95676 233.126 7.47342 235.114C12.2286 238.773 16.1559 243.373 19.003 248.618L19.5783 249.75C19.6193 249.825 19.6803 249.889 19.7549 249.933C19.8294 249.977 19.9148 250 20.0017 250C20.1788 250 20.341 249.904 20.4265 249.75L20.7585 249.104C23.6201 243.678 27.6121 238.911 32.4724 235.114C34.817 233.277 36.7113 230.942 38.0146 228.282C39.3179 225.623 39.9965 222.708 40 219.754V219.752Z" fill="#6EBC5C"/>
<path d="M30.4417 231.11C26.6377 227.433 24.2113 223.418 23.0233 218.83C22.9922 218.715 22.924 218.614 22.8293 218.543C22.7346 218.471 22.6188 218.433 22.5001 218.434H17.1001C16.9813 218.433 16.8655 218.471 16.7709 218.543C16.6762 218.614 16.6079 218.715 16.5769 218.83C15.3889 223.416 12.9637 227.434 9.15848 231.11C9.08318 231.181 9.03156 231.274 9.01054 231.376C8.98952 231.477 9.0001 231.583 9.04088 231.678C9.08356 231.775 9.15358 231.857 9.2423 231.914C9.33102 231.971 9.43455 232.001 9.54008 232H30.0601C30.1656 232.001 30.2691 231.971 30.3578 231.914C30.4465 231.857 30.5166 231.775 30.5593 231.678C30.6 231.583 30.6106 231.477 30.5896 231.376C30.5686 231.274 30.517 231.181 30.4417 231.11ZM22.0825 219.478C22.1881 219.862 22.3117 220.239 22.4353 220.616C21.5161 220.874 20.8837 221.684 20.8801 222.608V224.174C20.8801 224.462 20.6389 224.696 20.3401 224.696C20.1993 224.698 20.0633 224.644 19.9621 224.546C19.8609 224.448 19.8026 224.314 19.8001 224.174V222.609C19.7989 221.457 18.8329 220.523 17.6401 220.521H17.1949C17.3065 220.175 17.4217 219.831 17.5189 219.478H22.0825ZM15.7969 210.396C15.8965 209.056 17.0833 208 18.5329 208C19.6813 208 20.6641 208.664 21.0721 209.606C21.4561 209.378 21.9109 209.244 22.3981 209.244C22.7581 209.244 23.1013 209.316 23.4109 209.447L23.3917 209.44C23.6677 209.363 23.9617 209.321 24.2641 209.321C25.9729 209.321 27.3577 210.624 27.3577 212.231C27.3577 213.839 25.9729 215.141 24.2641 215.141C23.6581 215.141 23.0917 214.977 22.6141 214.692L22.6573 214.658C22.2647 214.984 21.783 215.185 21.2749 215.234V217.811H19.0057V214.794C18.6745 214.929 18.3097 215.003 17.9257 215.003C17.3235 215.006 16.7361 214.817 16.2481 214.464C15.8807 214.658 15.4715 214.758 15.0565 214.756C13.6873 214.756 12.5773 213.712 12.5773 212.423C12.5773 211.134 13.6873 210.09 15.0565 210.09C15.3229 210.09 15.5785 210.13 15.8197 210.203C15.8 210.328 15.79 210.454 15.7897 210.58L15.7969 210.396Z" fill="white"/>
<path d="M80 219.752C80.0017 217.078 79.4524 214.431 78.3857 211.973C77.3189 209.514 75.757 207.295 73.7945 205.45C71.832 203.605 69.5099 202.173 66.9694 201.24C64.4287 200.307 61.7225 199.893 59.0148 200.023C49.4929 200.479 40.6583 209.002 40.0491 218.384C39.823 221.557 40.3803 224.737 41.6734 227.651C42.9665 230.565 44.9568 233.126 47.4734 235.114C52.2286 238.773 56.1559 243.373 59.003 248.618L59.5783 249.75C59.6193 249.825 59.6803 249.889 59.7549 249.933C59.8294 249.977 59.9148 250 60.0017 250C60.1788 250 60.341 249.904 60.4265 249.75L60.7585 249.104C63.6201 243.678 67.6121 238.911 72.4724 235.114C74.817 233.277 76.7113 230.942 78.0146 228.282C79.3179 225.623 79.9965 222.708 80 219.754V219.752Z" fill="#EEA043"/>
<path d="M70.4417 231.11C66.6377 227.433 64.2113 223.418 63.0233 218.83C62.9922 218.715 62.924 218.614 62.8293 218.543C62.7346 218.471 62.6188 218.433 62.5001 218.434H57.1001C56.9813 218.433 56.8655 218.471 56.7709 218.543C56.6762 218.614 56.6079 218.715 56.5769 218.83C55.3889 223.416 52.9637 227.434 49.1585 231.11C49.0832 231.181 49.0316 231.274 49.0105 231.376C48.9895 231.477 49.0001 231.583 49.0409 231.678C49.0836 231.775 49.1536 231.857 49.2423 231.914C49.331 231.971 49.4345 232.001 49.5401 232H70.0601C70.1656 232.001 70.2691 231.971 70.3578 231.914C70.4465 231.857 70.5166 231.775 70.5593 231.678C70.6 231.583 70.6106 231.477 70.5896 231.376C70.5686 231.274 70.517 231.181 70.4417 231.11ZM62.0825 219.478C62.1881 219.862 62.3117 220.239 62.4353 220.616C61.5161 220.874 60.8837 221.684 60.8801 222.608V224.174C60.8801 224.462 60.6389 224.696 60.3401 224.696C60.1993 224.698 60.0633 224.644 59.9621 224.546C59.8609 224.448 59.8026 224.314 59.8001 224.174V222.609C59.7989 221.457 58.8329 220.523 57.6401 220.521H57.1949C57.3065 220.175 57.4217 219.831 57.5189 219.478H62.0825ZM55.7969 210.396C55.8965 209.056 57.0833 208 58.5329 208C59.6813 208 60.6641 208.664 61.0721 209.606C61.4561 209.378 61.9109 209.244 62.3981 209.244C62.7581 209.244 63.1013 209.316 63.4109 209.447L63.3917 209.44C63.6677 209.363 63.9617 209.321 64.2641 209.321C65.9729 209.321 67.3577 210.624 67.3577 212.231C67.3577 213.839 65.9729 215.141 64.2641 215.141C63.6581 215.141 63.0917 214.977 62.6141 214.692L62.6573 214.658C62.2647 214.984 61.783 215.185 61.2749 215.234V217.811H59.0057V214.794C58.6745 214.929 58.3097 215.003 57.9257 215.003C57.3235 215.006 56.7361 214.817 56.2481 214.464C55.8807 214.658 55.4715 214.758 55.0565 214.756C53.6873 214.756 52.5773 213.712 52.5773 212.423C52.5773 211.134 53.6873 210.09 55.0565 210.09C55.3229 210.09 55.5785 210.13 55.8197 210.203C55.8 210.328 55.79 210.454 55.7897 210.58L55.7969 210.396Z" fill="white"/>
<path d="M120 219.752C120.002 217.078 119.452 214.431 118.386 211.973C117.319 209.514 115.757 207.295 113.794 205.45C111.832 203.605 109.51 202.173 106.969 201.24C104.429 200.307 101.722 199.893 99.0148 200.023C89.4929 200.479 80.6583 209.002 80.0491 218.384C79.823 221.557 80.3803 224.737 81.6734 227.651C82.9665 230.565 84.9568 233.126 87.4734 235.114C92.2286 238.773 96.1559 243.373 99.003 248.618L99.5783 249.75C99.6193 249.825 99.6803 249.889 99.7549 249.933C99.8294 249.977 99.9148 250 100.002 250C100.179 250 100.341 249.904 100.427 249.75L100.758 249.104C103.62 243.678 107.612 238.911 112.472 235.114C114.817 233.277 116.711 230.942 118.015 228.282C119.318 225.623 119.996 222.708 120 219.754V219.752Z" fill="#E53435"/>
<path d="M110.442 231.11C106.638 227.433 104.211 223.418 103.023 218.83C102.992 218.715 102.924 218.614 102.829 218.543C102.735 218.471 102.619 218.433 102.5 218.434H97.1001C96.9813 218.433 96.8655 218.471 96.7709 218.543C96.6762 218.614 96.6079 218.715 96.5769 218.83C95.3889 223.416 92.9637 227.434 89.1585 231.11C89.0832 231.181 89.0316 231.274 89.0105 231.376C88.9895 231.477 89.0001 231.583 89.0409 231.678C89.0836 231.775 89.1536 231.857 89.2423 231.914C89.331 231.971 89.4345 232.001 89.5401 232H110.06C110.166 232.001 110.269 231.971 110.358 231.914C110.447 231.857 110.517 231.775 110.559 231.678C110.6 231.583 110.611 231.477 110.59 231.376C110.569 231.274 110.517 231.181 110.442 231.11ZM102.082 219.478C102.188 219.862 102.312 220.239 102.435 220.616C101.516 220.874 100.884 221.684 100.88 222.608V224.174C100.88 224.462 100.639 224.696 100.34 224.696C100.199 224.698 100.063 224.644 99.9621 224.546C99.8609 224.448 99.8026 224.314 99.8001 224.174V222.609C99.7989 221.457 98.8329 220.523 97.6401 220.521H97.1949C97.3065 220.175 97.4217 219.831 97.5189 219.478H102.082ZM95.7969 210.396C95.8965 209.056 97.0833 208 98.5329 208C99.6813 208 100.664 208.664 101.072 209.606C101.456 209.378 101.911 209.244 102.398 209.244C102.758 209.244 103.101 209.316 103.411 209.447L103.392 209.44C103.668 209.363 103.962 209.321 104.264 209.321C105.973 209.321 107.358 210.624 107.358 212.231C107.358 213.839 105.973 215.141 104.264 215.141C103.658 215.141 103.092 214.977 102.614 214.692L102.657 214.658C102.265 214.984 101.783 215.185 101.275 215.234V217.811H99.0057V214.794C98.6745 214.929 98.3097 215.003 97.9257 215.003C97.3235 215.006 96.7361 214.817 96.2481 214.464C95.8807 214.658 95.4715 214.758 95.0565 214.756C93.6873 214.756 92.5773 213.712 92.5773 212.423C92.5773 211.134 93.6873 210.09 95.0565 210.09C95.3229 210.09 95.5785 210.13 95.8197 210.203C95.8 210.328 95.79 210.454 95.7897 210.58L95.7969 210.396Z" fill="white"/>
<path d="M40 269.752C40.0017 267.078 39.4524 264.431 38.3857 261.973C37.3189 259.514 35.757 257.295 33.7945 255.45C31.832 253.605 29.5099 252.173 26.9694 251.24C24.4287 250.307 21.7225 249.893 19.0148 250.023C9.49287 250.479 0.658323 259.002 0.0490942 268.384C-0.177041 271.557 0.380342 274.737 1.67343 277.651C2.96654 280.565 4.95676 283.126 7.47342 285.114C12.2286 288.773 16.1559 293.373 19.003 298.618L19.5783 299.75C19.6193 299.825 19.6803 299.889 19.7549 299.933C19.8294 299.977 19.9148 300 20.0017 300C20.1788 300 20.341 299.904 20.4265 299.75L20.7585 299.104C23.6201 293.678 27.6121 288.911 32.4724 285.114C34.817 283.277 36.7113 280.942 38.0146 278.282C39.3179 275.623 39.9965 272.708 40 269.754V269.752Z" fill="#6EBC5C"/>
<path d="M23.8208 275.77C25.3748 271.36 23.3432 268.717 23.12 268.446C23.0451 268.368 22.9974 268.268 22.9842 268.161C22.971 268.054 22.993 267.946 23.0468 267.852C23.1848 267.612 23.492 267.528 23.7332 267.666C26.1812 269.054 27.5276 270.763 28.2548 272.076C28.5236 271.315 28.958 271.004 29.102 270.919C29.1607 270.882 29.2264 270.858 29.2949 270.848C29.3635 270.837 29.4334 270.841 29.5004 270.859C29.7692 270.931 29.9276 271.206 29.8556 271.471C29.762 271.82 30.1196 272.674 30.542 273.679C31.496 275.957 32.7368 278.915 30.5048 280.736C30.3224 280.886 30.1328 281.02 29.9372 281.138C28.7468 281.858 27.2588 282.096 25.8512 281.885C24.4388 281.674 23.0948 281.009 22.2008 279.926C22.0587 279.756 21.9288 279.575 21.812 279.386C20.2148 276.785 22.2248 273.574 22.4456 273.235C22.5015 273.136 22.5891 273.059 22.6942 273.017C22.7993 272.974 22.9158 272.968 23.0248 272.999C23.1338 273.031 23.2289 273.099 23.2948 273.191C23.3606 273.283 23.3933 273.395 23.3876 273.509H23.3852C23.3192 274.74 23.5736 275.413 23.8208 275.77ZM14.9996 258H14L8 279H11.5004L12.5 273H13.4996V282H15.5V279H20.9996L14.9996 258Z" fill="white"/>
<path d="M80 269.752C80.0017 267.078 79.4524 264.431 78.3857 261.973C77.3189 259.514 75.757 257.295 73.7945 255.45C71.832 253.605 69.5099 252.173 66.9694 251.24C64.4287 250.307 61.7225 249.893 59.0148 250.023C49.4929 250.479 40.6583 259.002 40.0491 268.384C39.823 271.557 40.3803 274.737 41.6734 277.651C42.9665 280.565 44.9568 283.126 47.4734 285.114C52.2286 288.773 56.1559 293.373 59.003 298.618L59.5783 299.75C59.6193 299.825 59.6803 299.889 59.7549 299.933C59.8294 299.977 59.9148 300 60.0017 300C60.1788 300 60.341 299.904 60.4265 299.75L60.7585 299.104C63.6201 293.678 67.6121 288.911 72.4724 285.114C74.817 283.277 76.7113 280.942 78.0146 278.282C79.3179 275.623 79.9965 272.708 80 269.754V269.752Z" fill="#EEA043"/>
<path d="M63.8208 275.77C65.3748 271.36 63.3432 268.717 63.12 268.446C63.0451 268.368 62.9974 268.268 62.9842 268.161C62.971 268.054 62.993 267.946 63.0468 267.852C63.1848 267.612 63.492 267.528 63.7332 267.666C66.1812 269.054 67.5276 270.763 68.2548 272.076C68.5236 271.315 68.958 271.004 69.102 270.919C69.1607 270.882 69.2264 270.858 69.2949 270.848C69.3635 270.837 69.4334 270.841 69.5004 270.859C69.7692 270.931 69.9276 271.206 69.8556 271.471C69.762 271.82 70.1196 272.674 70.542 273.679C71.496 275.957 72.7368 278.915 70.5048 280.736C70.3224 280.886 70.1328 281.02 69.9372 281.138C68.7468 281.858 67.2588 282.096 65.8512 281.885C64.4388 281.674 63.0948 281.009 62.2008 279.926C62.0587 279.756 61.9288 279.575 61.812 279.386C60.2148 276.785 62.2248 273.574 62.4456 273.235C62.5015 273.136 62.5891 273.059 62.6942 273.017C62.7993 272.974 62.9158 272.968 63.0248 272.999C63.1338 273.031 63.2289 273.099 63.2948 273.191C63.3606 273.283 63.3933 273.395 63.3876 273.509H63.3852C63.3192 274.74 63.5736 275.413 63.8208 275.77ZM54.9996 258H54L48 279H51.5004L52.5 273H53.4996V282H55.5V279H60.9996L54.9996 258Z" fill="white"/>
<path d="M120 269.752C120.002 267.078 119.452 264.431 118.386 261.973C117.319 259.514 115.757 257.295 113.794 255.45C111.832 253.605 109.51 252.173 106.969 251.24C104.429 250.307 101.722 249.893 99.0148 250.023C89.4929 250.479 80.6583 259.002 80.0491 268.384C79.823 271.557 80.3803 274.737 81.6734 277.651C82.9665 280.565 84.9568 283.126 87.4734 285.114C92.2286 288.773 96.1559 293.373 99.003 298.618L99.5783 299.75C99.6193 299.825 99.6803 299.889 99.7549 299.933C99.8294 299.977 99.9148 300 100.002 300C100.179 300 100.341 299.904 100.427 299.75L100.758 299.104C103.62 293.678 107.612 288.911 112.472 285.114C114.817 283.277 116.711 280.942 118.015 278.282C119.318 275.623 119.996 272.708 120 269.754V269.752Z" fill="#E53435"/>
<path d="M103.821 275.77C105.375 271.36 103.343 268.717 103.12 268.446C103.045 268.368 102.997 268.268 102.984 268.161C102.971 268.054 102.993 267.946 103.047 267.852C103.185 267.612 103.492 267.528 103.733 267.666C106.181 269.054 107.528 270.763 108.255 272.076C108.524 271.315 108.958 271.004 109.102 270.919C109.161 270.882 109.226 270.858 109.295 270.848C109.363 270.837 109.433 270.841 109.5 270.859C109.769 270.931 109.928 271.206 109.856 271.471C109.762 271.82 110.12 272.674 110.542 273.679C111.496 275.957 112.737 278.915 110.505 280.736C110.322 280.886 110.133 281.02 109.937 281.138C108.747 281.858 107.259 282.096 105.851 281.885C104.439 281.674 103.095 281.009 102.201 279.926C102.059 279.756 101.929 279.575 101.812 279.386C100.215 276.785 102.225 273.574 102.446 273.235C102.501 273.136 102.589 273.059 102.694 273.017C102.799 272.974 102.916 272.968 103.025 272.999C103.134 273.031 103.229 273.099 103.295 273.191C103.361 273.283 103.393 273.395 103.388 273.509H103.385C103.319 274.74 103.574 275.413 103.821 275.77ZM94.9996 258H94L88 279H91.5004L92.5 273H93.4996V282H95.5V279H101L94.9996 258Z" fill="white"/>
<defs>
<clipPath id="clip0">
<rect width="24" height="24" fill="white" transform="translate(8 158)"/>
</clipPath>
<clipPath id="clip1">
<rect width="24" height="24" fill="white" transform="translate(48 158)"/>
</clipPath>
<clipPath id="clip2">
<rect width="24" height="24" fill="white" transform="translate(88 158)"/>
</clipPath>
</defs>
</svg>
