<svg width="146" height="88" viewBox="0 0 146 88" fill="none"
  xmlns="http://www.w3.org/2000/svg">
  <g id="iconAtlas">
    <g id="pin">
      <path id="Vector" d="M23.027 36.2839C23.027 38.3337 19.209 40 14.5012 40C9.7934 40 5.9754 38.3337 5.9754 36.2839C5.9754 34.2353 9.7934 32.5689 14.5012 32.5689C19.209 32.5689 23.027 34.2353 23.027 36.285V36.2839Z" fill="#A851C1" fill-opacity="0.55"/>
      <path id="Vector_2" d="M29 14.5357C29.0012 12.5677 28.603 10.6199 27.8296 8.81061C27.0562 7.00133 25.9238 5.36828 24.501 4.01056C23.0782 2.65285 21.3947 1.59878 19.5528 0.912325C17.7108 0.225874 15.7488 -0.0786421 13.7857 0.017258C6.88233 0.352456 0.477284 6.62483 0.0355935 13.529C-0.128355 15.864 0.275748 18.204 1.21324 20.3483C2.15074 22.4925 3.59365 24.3771 5.41823 25.8403C8.86573 28.5331 11.713 31.9178 13.7772 35.7774L14.1943 36.6105C14.224 36.6662 14.2682 36.7128 14.3223 36.7452C14.3763 36.7777 14.4382 36.7948 14.5012 36.7947C14.6296 36.7947 14.7472 36.7241 14.8092 36.6105L15.0499 36.1351C17.1246 32.1426 20.0188 28.6343 23.5425 25.8403C25.2423 24.4882 26.6157 22.7698 27.5606 20.8127C28.5055 18.8557 28.9975 16.7105 29 14.5368V14.5357Z" fill="#A851C1"/>
      <path id="Vector_3" d="M14.5012 32.5689C13.6446 32.5711 12.7879 32.6289 11.9388 32.7445C12.6168 33.7137 13.2317 34.7257 13.7782 35.7752L14.1932 36.6095C14.2231 36.6652 14.2676 36.7118 14.3218 36.7442C14.376 36.7767 14.438 36.7938 14.5012 36.7938C14.5644 36.7938 14.6264 36.7767 14.6806 36.7442C14.7348 36.7118 14.7793 36.6652 14.8092 36.6095L15.0498 36.134C15.6588 34.9821 16.3396 33.8697 17.0882 32.8034C16.2327 32.6674 15.3675 32.5893 14.5012 32.5689Z" fill="#A851C1"/>
      <path id="Vector_4" d="M22.9675 16.3889C23.983 11.7091 21.0177 7.091 16.3443 6.07406C11.6709 5.05713 7.05903 8.02645 6.04348 12.7062C5.02792 17.386 7.99322 22.0041 12.6666 23.021C17.3401 24.0379 21.9519 21.0686 22.9675 16.3889Z" fill="white"/>
    </g>
    <g id="group" clip-path="url(#clip0)">
      <path id="Vector_5" d="M52.7273 36.5217C52.7273 38.44 48.7921 40 43.9394 40C39.0867 40 35.1515 38.44 35.1515 36.5217C35.1515 34.6035 39.0867 33.0435 43.9394 33.0435C48.7921 33.0435 52.7273 34.6035 52.7273 36.5217Z" fill="#A851C1" fill-opacity="0.51"/>
      <path id="Vector_6" d="M58 14.4287C58.0026 10.4809 56.376 6.70434 53.5006 3.98086C50.627 1.25738 46.7542 -0.175662 42.7864 0.017381C35.8818 0.347816 29.4763 6.5739 29.036 13.4278C28.7021 18.1322 30.7145 22.7 34.4177 25.6478C37.8652 28.3209 40.7125 31.6809 42.7776 35.5122L43.1933 36.3383C43.2548 36.4513 43.3726 36.5217 43.5009 36.5217C43.6301 36.5217 43.7478 36.4522 43.8085 36.3391L44.0501 35.8678C46.1249 31.9043 49.0188 28.4217 52.5436 25.6478C55.9858 22.9287 57.9947 18.7991 58 14.4287V14.4287Z" fill="#A851C1"/>
      <path id="Vector_7" d="M52.0523 16.1266C53.09 11.4018 50.1041 6.74861 45.3832 5.73351C40.6622 4.7184 35.994 7.72575 34.9564 12.4506C33.9188 17.1755 36.9047 21.8286 41.6256 22.8437C46.3465 23.8589 51.0147 20.8515 52.0523 16.1266Z" fill="white"/>
      <g id="Group">
        <g id="Group_2" opacity="0.719">
          <path id="Vector_8" opacity="0.719" d="M51.8485 13.4591C51.8485 12.6713 51.5295 11.9183 50.9653 11.3748C50.4002 10.8313 49.6401 10.5452 48.8606 10.5835C47.5055 10.6496 46.2479 11.8922 46.1609 13.2583C46.095 14.1974 46.4905 15.1087 47.2181 15.6974C47.8948 16.2304 48.4537 16.9009 48.8597 17.6652L48.9414 17.8304C48.9529 17.853 48.9766 17.867 49.0012 17.867C49.0267 17.867 49.0495 17.853 49.0627 17.8304L49.1093 17.7365C49.517 16.9452 50.0847 16.2504 50.7772 15.6974C51.453 15.1548 51.8476 14.3304 51.8485 13.4583V13.4591Z" fill="#333F48"/>
          <path id="Vector_9" opacity="0.719" d="M50.6141 13.9485C50.8159 13.0296 50.2575 12.1294 49.3668 11.9379C48.4761 11.7464 47.5905 12.336 47.3887 13.2549C47.1869 14.1738 47.7453 15.074 48.636 15.2655C49.5267 15.457 50.4123 14.8673 50.6141 13.9485Z" fill="white"/>
        </g>
        <g id="Group_3" opacity="0.719">
          <path id="Vector_10" opacity="0.719" d="M41.7248 13.4591C41.7248 12.6713 41.4058 11.9183 40.8417 11.3748C40.2766 10.8313 39.5164 10.5452 38.737 10.5835C37.3819 10.6496 36.1243 11.8922 36.0373 13.2583C35.9714 14.1974 36.3669 15.1087 37.0945 15.6974C37.7712 16.2304 38.3301 16.9009 38.7361 17.6652L38.8178 17.8304C38.8292 17.853 38.853 17.867 38.8776 17.867C38.903 17.867 38.9259 17.853 38.9391 17.8304L38.9857 17.7365C39.3934 16.9452 39.9611 16.2504 40.6536 15.6974C41.3294 15.1548 41.724 14.3304 41.7248 13.4583V13.4591Z" fill="#333F48"/>
          <path id="Vector_11" opacity="0.719" d="M40.4905 13.9485C40.6923 13.0296 40.1338 12.1294 39.2431 11.9379C38.3525 11.7464 37.4668 12.336 37.265 13.2549C37.0632 14.1738 37.6217 15.074 38.5124 15.2655C39.4031 15.457 40.2887 14.8673 40.4905 13.9485Z" fill="white"/>
        </g>
        <g id="Group_4">
          <path id="Vector_12" d="M48.5443 13.1043C48.5451 11.9626 48.0644 10.8695 47.2138 10.0817C46.3631 9.2939 45.218 8.87912 44.044 8.93477C42.0017 9.03042 40.1079 10.8322 39.9769 12.8156C39.8785 14.1765 40.4735 15.4982 41.5684 16.3513C42.5878 17.1252 43.4315 18.0974 44.0413 19.2061L44.1644 19.4452C44.1819 19.4774 44.2171 19.4974 44.2558 19.4974C44.2936 19.4974 44.3287 19.4774 44.3472 19.4452L44.4175 19.3087C45.0326 18.1617 45.8877 17.1539 46.9308 16.3522C47.9484 15.5643 48.5434 14.3695 48.5443 13.1052V13.1043Z" fill="#333F48"/>
          <path id="Vector_13" d="M46.7582 13.6465C47.0536 12.3015 46.173 10.9704 44.7915 10.6733C43.4099 10.3762 42.0505 11.2258 41.7551 12.5708C41.4598 13.9158 42.3403 15.2469 43.7218 15.544C45.1034 15.8411 46.4628 14.9915 46.7582 13.6465Z" fill="white"/>
        </g>
      </g>
    </g>
    <path id="Blank" d="M102 88C126.301 88 146 68.3005 146 44C146 19.6995 126.301 0 102 0C77.6995 0 58 19.6995 58 44C58 68.3005 77.6995 88 102 88Z" fill="#F6BE00"/>
  </g>
  <defs>
    <clipPath id="clip0">
      <rect width="29" height="40" fill="white" transform="translate(29)"/>
    </clipPath>
  </defs>
</svg>
