<svg width="320" height="88" viewBox="0 0 320 88" fill="none"
  xmlns="http://www.w3.org/2000/svg">
  <g clip-path="url(#clip0)">
    <path d="M23.027 36.2839C23.027 38.3337 19.209 40 14.5012 40C9.7934 40 5.9754 38.3337 5.9754 36.2839C5.9754 34.2353 9.7934 32.5689 14.5012 32.5689C19.209 32.5689 23.027 34.2353 23.027 36.285V36.2839Z" fill="#A851C1" fill-opacity="0.55"/>
    <path d="M29 14.5357C29.0012 12.5677 28.603 10.6199 27.8296 8.81061C27.0562 7.00133 25.9238 5.36828 24.501 4.01056C23.0782 2.65285 21.3947 1.59878 19.5528 0.912325C17.7108 0.225874 15.7488 -0.0786421 13.7857 0.017258C6.88233 0.352456 0.477284 6.62483 0.0355934 13.529C-0.128355 15.864 0.275748 18.204 1.21324 20.3483C2.15074 22.4925 3.59365 24.3771 5.41823 25.8403C8.86573 28.5331 11.713 31.9178 13.7772 35.7774L14.1943 36.6105C14.224 36.6662 14.2682 36.7128 14.3223 36.7452C14.3763 36.7777 14.4382 36.7948 14.5012 36.7947C14.6296 36.7947 14.7472 36.7241 14.8092 36.6105L15.0499 36.1351C17.1246 32.1426 20.0188 28.6343 23.5425 25.8403C25.2423 24.4882 26.6157 22.7698 27.5606 20.8127C28.5055 18.8557 28.9975 16.7105 29 14.5368V14.5357Z" fill="#A851C1"/>
    <path d="M14.5012 32.5689C13.6446 32.5711 12.7879 32.6289 11.9388 32.7445C12.6168 33.7137 13.2317 34.7257 13.7782 35.7752L14.1932 36.6095C14.2231 36.6652 14.2676 36.7118 14.3218 36.7442C14.376 36.7767 14.438 36.7938 14.5012 36.7938C14.5644 36.7938 14.6264 36.7767 14.6806 36.7442C14.7348 36.7118 14.7793 36.6652 14.8092 36.6095L15.0498 36.134C15.6588 34.9821 16.3396 33.8697 17.0882 32.8034C16.2327 32.6674 15.3675 32.5893 14.5012 32.5689Z" fill="#A851C1"/>
    <path d="M22.9675 16.3889C23.983 11.7091 21.0177 7.09099 16.3443 6.07405C11.6709 5.05712 7.05903 8.02644 6.04348 12.7062C5.02792 17.386 7.99322 22.0041 12.6666 23.021C17.3401 24.0379 21.9519 21.0686 22.9675 16.3889Z" fill="white"/>
    <path d="M52.027 36.2839C52.027 38.3337 48.209 40 43.5012 40C38.7934 40 34.9754 38.3337 34.9754 36.2839C34.9754 34.2353 38.7934 32.5689 43.5012 32.5689C48.209 32.5689 52.027 34.2353 52.027 36.285V36.2839Z" fill="#A851C1" fill-opacity="0.55"/>
    <path d="M58 14.5357C58.0012 12.5677 57.603 10.6199 56.8296 8.81061C56.0562 7.00133 54.9238 5.36828 53.501 4.01056C52.0782 2.65285 50.3947 1.59878 48.5528 0.912325C46.7108 0.225874 44.7488 -0.0786421 42.7857 0.017258C35.8823 0.352456 29.4773 6.62483 29.0356 13.529C28.8716 15.864 29.2757 18.204 30.2132 20.3483C31.1507 22.4925 32.5937 24.3771 34.4182 25.8403C37.8657 28.5331 40.713 31.9178 42.7772 35.7774L43.1943 36.6105C43.224 36.6662 43.2682 36.7128 43.3223 36.7452C43.3763 36.7777 43.4382 36.7948 43.5012 36.7947C43.6296 36.7947 43.7472 36.7241 43.8092 36.6105L44.0499 36.1351C46.1246 32.1426 49.0188 28.6343 52.5425 25.8403C54.2423 24.4882 55.6157 22.7698 56.5606 20.8127C57.5055 18.8557 57.9975 16.7105 58 14.5368V14.5357Z" fill="#A851C1"/>
    <path d="M43.5012 32.5689C42.6446 32.5711 41.7879 32.6289 40.9388 32.7445C41.6168 33.7137 42.2317 34.7257 42.7782 35.7752L43.1932 36.6095C43.2231 36.6652 43.2676 36.7118 43.3218 36.7442C43.376 36.7767 43.438 36.7938 43.5012 36.7938C43.5644 36.7938 43.6264 36.7767 43.6806 36.7442C43.7348 36.7118 43.7793 36.6652 43.8092 36.6095L44.0498 36.134C44.6588 34.9821 45.3396 33.8697 46.0882 32.8034C45.2327 32.6674 44.3675 32.5893 43.5012 32.5689Z" fill="#A851C1"/>
    <path d="M51.9675 16.3889C52.983 11.7091 50.0177 7.09099 45.3443 6.07405C40.6709 5.05712 36.059 8.02644 35.0435 12.7062C34.0279 17.386 36.9932 22.0041 41.6666 23.021C46.3401 24.0379 50.9519 21.0686 51.9675 16.3889Z" fill="white"/>
    <g opacity="0.719">
      <path opacity="0.719" d="M51.8183 14.5293C51.8183 13.7415 51.4993 12.9885 50.9351 12.445C50.37 11.9015 49.6099 11.6154 48.8304 11.6537C47.4753 11.7198 46.2177 12.9624 46.1307 14.3285C46.0648 15.2676 46.4603 16.1789 47.1879 16.7676C47.8646 17.3006 48.4235 17.9711 48.8295 18.7354L48.9112 18.9006C48.9227 18.9232 48.9464 18.9372 48.971 18.9372C48.9965 18.9372 49.0193 18.9232 49.0325 18.9006L49.0791 18.8067C49.4868 18.0154 50.0545 17.3206 50.747 16.7676C51.4228 16.225 51.8174 15.4006 51.8183 14.5285V14.5293Z" fill="#333F48"/>
      <path opacity="0.719" d="M50.5839 15.0187C50.7857 14.0998 50.2273 13.1996 49.3366 13.0081C48.4459 12.8166 47.5603 13.4062 47.3585 14.3251C47.1567 15.244 47.7151 16.1442 48.6058 16.3357C49.4965 16.5272 50.3821 15.9375 50.5839 15.0187Z" fill="white"/>
    </g>
    <g opacity="0.719">
      <path opacity="0.719" d="M41.6946 14.5293C41.6946 13.7415 41.3756 12.9885 40.8115 12.445C40.2464 11.9015 39.4862 11.6154 38.7068 11.6537C37.3517 11.7198 36.0941 12.9624 36.0071 14.3285C35.9412 15.2676 36.3367 16.1789 37.0643 16.7676C37.741 17.3006 38.2999 17.9711 38.7059 18.7354L38.7876 18.9006C38.799 18.9232 38.8228 18.9372 38.8474 18.9372C38.8728 18.9372 38.8957 18.9232 38.9089 18.9006L38.9555 18.8067C39.3632 18.0154 39.9309 17.3206 40.6234 16.7676C41.2992 16.225 41.6938 15.4006 41.6946 14.5285V14.5293Z" fill="#333F48"/>
      <path opacity="0.719" d="M40.4603 15.0187C40.6621 14.0998 40.1036 13.1996 39.2129 13.0081C38.3223 12.8166 37.4366 13.4062 37.2348 14.3251C37.033 15.244 37.5915 16.1442 38.4822 16.3357C39.3729 16.5272 40.2585 15.9375 40.4603 15.0187Z" fill="white"/>
    </g>
    <path d="M48.5141 14.1745C48.5149 13.0328 48.0342 11.9397 47.1836 11.1519C46.3329 10.3641 45.1878 9.94931 44.0138 10.005C41.9715 10.1006 40.0777 11.9024 39.9467 13.8858C39.8483 15.2467 40.4433 16.5684 41.5382 17.4215C42.5576 18.1954 43.4013 19.1676 44.0111 20.2763L44.1342 20.5154C44.1517 20.5476 44.1869 20.5676 44.2256 20.5676C44.2634 20.5676 44.2985 20.5476 44.317 20.5154L44.3873 20.3789C45.0024 19.2319 45.8575 18.2241 46.9006 17.4224C47.9182 16.6345 48.5132 15.4397 48.5141 14.1754V14.1745Z" fill="#333F48"/>
    <path d="M46.728 14.7167C47.0234 13.3717 46.1428 12.0406 44.7613 11.7435C43.3797 11.4464 42.0203 12.296 41.7249 13.641C41.4296 14.986 42.3101 16.3171 43.6916 16.6142C45.0732 16.9113 46.4326 16.0617 46.728 14.7167Z" fill="white"/>
    <path d="M81.027 36.2839C81.027 38.3337 77.209 40 72.5012 40C67.7934 40 63.9754 38.3337 63.9754 36.2839C63.9754 34.2353 67.7934 32.5689 72.5012 32.5689C77.209 32.5689 81.027 34.2353 81.027 36.285V36.2839Z" fill="#46AAC4" fill-opacity="0.55"/>
    <path d="M87 14.5357C87.0012 12.5677 86.603 10.6199 85.8296 8.81061C85.0562 7.00133 83.9238 5.36828 82.501 4.01056C81.0782 2.65285 79.3947 1.59878 77.5528 0.912325C75.7108 0.225874 73.7488 -0.0786421 71.7857 0.017258C64.8823 0.352456 58.4773 6.62483 58.0356 13.529C57.8716 15.864 58.2757 18.204 59.2132 20.3483C60.1507 22.4925 61.5937 24.3771 63.4182 25.8403C66.8657 28.5331 69.713 31.9178 71.7772 35.7774L72.1943 36.6105C72.224 36.6662 72.2682 36.7128 72.3223 36.7452C72.3763 36.7777 72.4382 36.7948 72.5012 36.7947C72.6296 36.7947 72.7472 36.7241 72.8092 36.6105L73.0499 36.1351C75.1246 32.1426 78.0188 28.6343 81.5425 25.8403C83.2423 24.4882 84.6157 22.7698 85.5606 20.8127C86.5055 18.8557 86.9975 16.7105 87 14.5368V14.5357Z" fill="#46AAC4"/>
    <path d="M72.5012 32.5689C71.6446 32.5711 70.7879 32.6289 69.9388 32.7445C70.6168 33.7137 71.2317 34.7257 71.7782 35.7752L72.1932 36.6095C72.2231 36.6652 72.2676 36.7118 72.3218 36.7442C72.376 36.7767 72.438 36.7938 72.5012 36.7938C72.5644 36.7938 72.6264 36.7767 72.6806 36.7442C72.7348 36.7118 72.7793 36.6652 72.8092 36.6095L73.0498 36.134C73.6588 34.9821 74.3396 33.8697 75.0882 32.8034C74.2327 32.6674 73.3675 32.5893 72.5012 32.5689Z" fill="#46AAC4"/>
    <path d="M80.9675 16.3889C81.983 11.7091 79.0177 7.09099 74.3443 6.07405C69.6709 5.05712 65.059 8.02644 64.0435 12.7062C63.0279 17.386 65.9932 22.0041 70.6666 23.021C75.3401 24.0379 79.9519 21.0686 80.9675 16.3889Z" fill="white"/>
    <path d="M110.027 36.2839C110.027 38.3337 106.209 40 101.501 40C96.7934 40 92.9754 38.3337 92.9754 36.2839C92.9754 34.2353 96.7934 32.5689 101.501 32.5689C106.209 32.5689 110.027 34.2353 110.027 36.285V36.2839Z" fill="#46AAC4" fill-opacity="0.55"/>
    <path d="M116 14.5357C116.001 12.5677 115.603 10.6199 114.83 8.81061C114.056 7.00133 112.924 5.36828 111.501 4.01056C110.078 2.65285 108.395 1.59878 106.553 0.912325C104.711 0.225874 102.749 -0.0786421 100.786 0.017258C93.8823 0.352456 87.4773 6.62483 87.0356 13.529C86.8717 15.864 87.2758 18.204 88.2132 20.3483C89.1507 22.4925 90.5937 24.3771 92.4182 25.8403C95.8657 28.5331 98.713 31.9178 100.777 35.7774L101.194 36.6105C101.224 36.6662 101.268 36.7128 101.322 36.7452C101.376 36.7777 101.438 36.7948 101.501 36.7947C101.63 36.7947 101.747 36.7241 101.809 36.6105L102.05 36.1351C104.125 32.1426 107.019 28.6343 110.543 25.8403C112.242 24.4882 113.616 22.7698 114.561 20.8127C115.506 18.8557 115.998 16.7105 116 14.5368V14.5357Z" fill="#46AAC4"/>
    <path d="M101.501 32.5689C100.645 32.5711 99.7879 32.6289 98.9388 32.7445C99.6168 33.7137 100.232 34.7257 100.778 35.7752L101.193 36.6095C101.223 36.6652 101.268 36.7118 101.322 36.7442C101.376 36.7767 101.438 36.7938 101.501 36.7938C101.564 36.7938 101.626 36.7767 101.681 36.7442C101.735 36.7118 101.779 36.6652 101.809 36.6095L102.05 36.134C102.659 34.9821 103.34 33.8697 104.088 32.8034C103.233 32.6674 102.368 32.5893 101.501 32.5689Z" fill="#46AAC4"/>
    <path d="M109.968 16.3889C110.983 11.7091 108.018 7.09099 103.344 6.07405C98.6709 5.05712 94.059 8.02644 93.0435 12.7062C92.0279 17.386 94.9932 22.0041 99.6666 23.021C104.34 24.0379 108.952 21.0686 109.968 16.3889Z" fill="white"/>
    <g opacity="0.719">
      <path opacity="0.719" d="M109.818 14.5293C109.818 13.7415 109.499 12.9885 108.935 12.445C108.37 11.9015 107.61 11.6154 106.83 11.6537C105.475 11.7198 104.218 12.9624 104.131 14.3285C104.065 15.2676 104.46 16.1789 105.188 16.7676C105.865 17.3006 106.424 17.9711 106.83 18.7354L106.911 18.9006C106.923 18.9232 106.946 18.9372 106.971 18.9372C106.997 18.9372 107.019 18.9232 107.033 18.9006L107.079 18.8067C107.487 18.0154 108.055 17.3206 108.747 16.7676C109.423 16.225 109.817 15.4006 109.818 14.5285V14.5293Z" fill="#333F48"/>
      <path opacity="0.719" d="M108.584 15.0187C108.786 14.0998 108.227 13.1996 107.337 13.0081C106.446 12.8166 105.56 13.4062 105.359 14.3251C105.157 15.244 105.715 16.1442 106.606 16.3357C107.497 16.5272 108.382 15.9375 108.584 15.0187Z" fill="white"/>
    </g>
    <g opacity="0.719">
      <path opacity="0.719" d="M99.6946 14.5293C99.6946 13.7415 99.3756 12.9885 98.8115 12.445C98.2464 11.9015 97.4862 11.6154 96.7068 11.6537C95.3517 11.7198 94.0941 12.9624 94.0071 14.3285C93.9412 15.2676 94.3367 16.1789 95.0643 16.7676C95.741 17.3006 96.2999 17.9711 96.7059 18.7354L96.7876 18.9006C96.799 18.9232 96.8228 18.9372 96.8474 18.9372C96.8728 18.9372 96.8957 18.9232 96.9089 18.9006L96.9555 18.8067C97.3632 18.0154 97.9309 17.3206 98.6234 16.7676C99.2992 16.225 99.6938 15.4006 99.6946 14.5285V14.5293Z" fill="#333F48"/>
      <path opacity="0.719" d="M98.4603 15.0187C98.6621 14.0998 98.1036 13.1996 97.2129 13.0081C96.3223 12.8166 95.4366 13.4062 95.2348 14.3251C95.033 15.244 95.5915 16.1442 96.4822 16.3357C97.3729 16.5272 98.2585 15.9375 98.4603 15.0187Z" fill="white"/>
    </g>
    <path d="M106.514 14.1745C106.515 13.0328 106.034 11.9397 105.184 11.1519C104.333 10.3641 103.188 9.94931 102.014 10.005C99.9715 10.1006 98.0777 11.9024 97.9467 13.8858C97.8483 15.2467 98.4433 16.5684 99.5382 17.4215C100.558 18.1954 101.401 19.1676 102.011 20.2763L102.134 20.5154C102.152 20.5476 102.187 20.5676 102.226 20.5676C102.263 20.5676 102.299 20.5476 102.317 20.5154L102.387 20.3789C103.002 19.2319 103.858 18.2241 104.901 17.4224C105.918 16.6345 106.513 15.4397 106.514 14.1754V14.1745Z" fill="#333F48"/>
    <path d="M104.728 14.7167C105.023 13.3717 104.143 12.0406 102.761 11.7435C101.38 11.4464 100.02 12.296 99.7249 13.641C99.4296 14.986 100.31 16.3171 101.692 16.6142C103.073 16.9113 104.433 16.0617 104.728 14.7167Z" fill="white"/>
    <path d="M139.027 36.2839C139.027 38.3337 135.209 40 130.501 40C125.793 40 121.975 38.3337 121.975 36.2839C121.975 34.2353 125.793 32.5689 130.501 32.5689C135.209 32.5689 139.027 34.2353 139.027 36.285V36.2839Z" fill="#FF0000" fill-opacity="0.55"/>
    <path d="M145 14.5357C145.001 12.5677 144.603 10.6199 143.83 8.81061C143.056 7.00133 141.924 5.36828 140.501 4.01056C139.078 2.65285 137.395 1.59878 135.553 0.912325C133.711 0.225874 131.749 -0.0786421 129.786 0.017258C122.882 0.352456 116.477 6.62483 116.036 13.529C115.872 15.864 116.276 18.204 117.213 20.3483C118.151 22.4925 119.594 24.3771 121.418 25.8403C124.866 28.5331 127.713 31.9178 129.777 35.7774L130.194 36.6105C130.224 36.6662 130.268 36.7128 130.322 36.7452C130.376 36.7777 130.438 36.7948 130.501 36.7947C130.63 36.7947 130.747 36.7241 130.809 36.6105L131.05 36.1351C133.125 32.1426 136.019 28.6343 139.543 25.8403C141.242 24.4882 142.616 22.7698 143.561 20.8127C144.506 18.8557 144.998 16.7105 145 14.5368V14.5357Z" fill="#FF0000"/>
    <path d="M130.501 32.5689C129.645 32.5711 128.788 32.6289 127.939 32.7445C128.617 33.7137 129.232 34.7257 129.778 35.7752L130.193 36.6095C130.223 36.6652 130.268 36.7118 130.322 36.7442C130.376 36.7767 130.438 36.7938 130.501 36.7938C130.564 36.7938 130.626 36.7767 130.681 36.7442C130.735 36.7118 130.779 36.6652 130.809 36.6095L131.05 36.134C131.659 34.9821 132.34 33.8697 133.088 32.8034C132.233 32.6674 131.368 32.5893 130.501 32.5689Z" fill="#FF0000"/>
    <path d="M138.968 16.3889C139.983 11.7091 137.018 7.09099 132.344 6.07405C127.671 5.05712 123.059 8.02644 122.043 12.7062C121.028 17.386 123.993 22.0041 128.667 23.021C133.34 24.0379 137.952 21.0686 138.968 16.3889Z" fill="white"/>
    <path d="M168.027 36.2839C168.027 38.3337 164.209 40 159.501 40C154.793 40 150.975 38.3337 150.975 36.2839C150.975 34.2353 154.793 32.5689 159.501 32.5689C164.209 32.5689 168.027 34.2353 168.027 36.285V36.2839Z" fill="#FF0000" fill-opacity="0.55"/>
    <path d="M174 14.5357C174.001 12.5677 173.603 10.6199 172.83 8.81061C172.056 7.00133 170.924 5.36828 169.501 4.01056C168.078 2.65285 166.395 1.59878 164.553 0.912325C162.711 0.225874 160.749 -0.0786421 158.786 0.017258C151.882 0.352456 145.477 6.62483 145.036 13.529C144.872 15.864 145.276 18.204 146.213 20.3483C147.151 22.4925 148.594 24.3771 150.418 25.8403C153.866 28.5331 156.713 31.9178 158.777 35.7774L159.194 36.6105C159.224 36.6662 159.268 36.7128 159.322 36.7452C159.376 36.7777 159.438 36.7948 159.501 36.7947C159.63 36.7947 159.747 36.7241 159.809 36.6105L160.05 36.1351C162.125 32.1426 165.019 28.6343 168.543 25.8403C170.242 24.4882 171.616 22.7698 172.561 20.8127C173.506 18.8557 173.998 16.7105 174 14.5368V14.5357Z" fill="#FF0000"/>
    <path d="M159.501 32.5689C158.645 32.5711 157.788 32.6289 156.939 32.7445C157.617 33.7137 158.232 34.7257 158.778 35.7752L159.193 36.6095C159.223 36.6652 159.268 36.7118 159.322 36.7442C159.376 36.7767 159.438 36.7938 159.501 36.7938C159.564 36.7938 159.626 36.7767 159.681 36.7442C159.735 36.7118 159.779 36.6652 159.809 36.6095L160.05 36.134C160.659 34.9821 161.34 33.8697 162.088 32.8034C161.233 32.6674 160.368 32.5893 159.501 32.5689Z" fill="#FF0000"/>
    <path d="M167.968 16.3889C168.983 11.7091 166.018 7.09099 161.344 6.07405C156.671 5.05712 152.059 8.02644 151.043 12.7062C150.028 17.386 152.993 22.0041 157.667 23.021C162.34 24.0379 166.952 21.0686 167.968 16.3889Z" fill="white"/>
    <g opacity="0.719">
      <path opacity="0.719" d="M167.818 14.5293C167.818 13.7415 167.499 12.9885 166.935 12.445C166.37 11.9015 165.61 11.6154 164.83 11.6537C163.475 11.7198 162.218 12.9624 162.131 14.3285C162.065 15.2676 162.46 16.1789 163.188 16.7676C163.865 17.3006 164.424 17.9711 164.83 18.7354L164.911 18.9006C164.923 18.9232 164.946 18.9372 164.971 18.9372C164.997 18.9372 165.019 18.9232 165.033 18.9006L165.079 18.8067C165.487 18.0154 166.055 17.3206 166.747 16.7676C167.423 16.225 167.817 15.4006 167.818 14.5285V14.5293Z" fill="#333F48"/>
      <path opacity="0.719" d="M166.584 15.0187C166.786 14.0998 166.227 13.1996 165.337 13.0081C164.446 12.8166 163.56 13.4062 163.359 14.3251C163.157 15.244 163.715 16.1442 164.606 16.3357C165.497 16.5272 166.382 15.9375 166.584 15.0187Z" fill="white"/>
    </g>
    <g opacity="0.719">
      <path opacity="0.719" d="M157.695 14.5293C157.695 13.7415 157.376 12.9885 156.812 12.445C156.246 11.9015 155.486 11.6154 154.707 11.6537C153.352 11.7198 152.094 12.9624 152.007 14.3285C151.941 15.2676 152.337 16.1789 153.064 16.7676C153.741 17.3006 154.3 17.9711 154.706 18.7354L154.788 18.9006C154.799 18.9232 154.823 18.9372 154.847 18.9372C154.873 18.9372 154.896 18.9232 154.909 18.9006L154.956 18.8067C155.363 18.0154 155.931 17.3206 156.623 16.7676C157.299 16.225 157.694 15.4006 157.695 14.5285V14.5293Z" fill="#333F48"/>
      <path opacity="0.719" d="M156.46 15.0187C156.662 14.0998 156.104 13.1996 155.213 13.0081C154.322 12.8166 153.437 13.4062 153.235 14.3251C153.033 15.244 153.592 16.1442 154.482 16.3357C155.373 16.5272 156.259 15.9375 156.46 15.0187Z" fill="white"/>
    </g>
    <path d="M164.514 14.1745C164.515 13.0328 164.034 11.9397 163.184 11.1519C162.333 10.3641 161.188 9.94931 160.014 10.005C157.972 10.1006 156.078 11.9024 155.947 13.8858C155.848 15.2467 156.443 16.5684 157.538 17.4215C158.558 18.1954 159.401 19.1676 160.011 20.2763L160.134 20.5154C160.152 20.5476 160.187 20.5676 160.226 20.5676C160.263 20.5676 160.299 20.5476 160.317 20.5154L160.387 20.3789C161.002 19.2319 161.858 18.2241 162.901 17.4224C163.918 16.6345 164.513 15.4397 164.514 14.1754V14.1745Z" fill="#333F48"/>
    <path d="M162.728 14.7167C163.023 13.3717 162.143 12.0406 160.761 11.7435C159.38 11.4464 158.02 12.296 157.725 13.641C157.43 14.986 158.31 16.3171 159.692 16.6142C161.073 16.9113 162.433 16.0617 162.728 14.7167Z" fill="white"/>
    <path d="M197.027 36.2839C197.027 38.3337 193.209 40 188.501 40C183.793 40 179.975 38.3337 179.975 36.2839C179.975 34.2353 183.793 32.5689 188.501 32.5689C193.209 32.5689 197.027 34.2353 197.027 36.285V36.2839Z" fill="#51C16A" fill-opacity="0.55"/>
    <path d="M203 14.5357C203.001 12.5677 202.603 10.6199 201.83 8.81061C201.056 7.00133 199.924 5.36828 198.501 4.01056C197.078 2.65285 195.395 1.59878 193.553 0.912325C191.711 0.225874 189.749 -0.0786421 187.786 0.017258C180.882 0.352456 174.477 6.62483 174.036 13.529C173.872 15.864 174.276 18.204 175.213 20.3483C176.151 22.4925 177.594 24.3771 179.418 25.8403C182.866 28.5331 185.713 31.9178 187.777 35.7774L188.194 36.6105C188.224 36.6662 188.268 36.7128 188.322 36.7452C188.376 36.7777 188.438 36.7948 188.501 36.7947C188.63 36.7947 188.747 36.7241 188.809 36.6105L189.05 36.1351C191.125 32.1426 194.019 28.6343 197.543 25.8403C199.242 24.4882 200.616 22.7698 201.561 20.8127C202.506 18.8557 202.998 16.7105 203 14.5368V14.5357Z" fill="#51C16A"/>
    <path d="M188.501 32.5689C187.645 32.5711 186.788 32.6289 185.939 32.7445C186.617 33.7137 187.232 34.7257 187.778 35.7752L188.193 36.6095C188.223 36.6652 188.268 36.7118 188.322 36.7442C188.376 36.7767 188.438 36.7938 188.501 36.7938C188.564 36.7938 188.626 36.7767 188.681 36.7442C188.735 36.7118 188.779 36.6652 188.809 36.6095L189.05 36.134C189.659 34.9821 190.34 33.8697 191.088 32.8034C190.233 32.6674 189.368 32.5893 188.501 32.5689Z" fill="#51C16A"/>
    <path d="M196.968 16.3889C197.983 11.7091 195.018 7.09099 190.344 6.07405C185.671 5.05712 181.059 8.02644 180.043 12.7062C179.028 17.386 181.993 22.0041 186.667 23.021C191.34 24.0379 195.952 21.0686 196.968 16.3889Z" fill="white"/>
    <path d="M226.027 36.2839C226.027 38.3337 222.209 40 217.501 40C212.793 40 208.975 38.3337 208.975 36.2839C208.975 34.2353 212.793 32.5689 217.501 32.5689C222.209 32.5689 226.027 34.2353 226.027 36.285V36.2839Z" fill="#51C16A" fill-opacity="0.55"/>
    <path d="M232 14.5357C232.001 12.5677 231.603 10.6199 230.83 8.81061C230.056 7.00133 228.924 5.36828 227.501 4.01056C226.078 2.65285 224.395 1.59878 222.553 0.912325C220.711 0.225874 218.749 -0.0786421 216.786 0.017258C209.882 0.352456 203.477 6.62483 203.036 13.529C202.872 15.864 203.276 18.204 204.213 20.3483C205.151 22.4925 206.594 24.3771 208.418 25.8403C211.866 28.5331 214.713 31.9178 216.777 35.7774L217.194 36.6105C217.224 36.6662 217.268 36.7128 217.322 36.7452C217.376 36.7777 217.438 36.7948 217.501 36.7947C217.63 36.7947 217.747 36.7241 217.809 36.6105L218.05 36.1351C220.125 32.1426 223.019 28.6343 226.543 25.8403C228.242 24.4882 229.616 22.7698 230.561 20.8127C231.506 18.8557 231.998 16.7105 232 14.5368V14.5357Z" fill="#51C16A"/>
    <path d="M217.501 32.5689C216.645 32.5711 215.788 32.6289 214.939 32.7445C215.617 33.7137 216.232 34.7257 216.778 35.7752L217.193 36.6095C217.223 36.6652 217.268 36.7118 217.322 36.7442C217.376 36.7767 217.438 36.7938 217.501 36.7938C217.564 36.7938 217.626 36.7767 217.681 36.7442C217.735 36.7118 217.779 36.6652 217.809 36.6095L218.05 36.134C218.659 34.9821 219.34 33.8697 220.088 32.8034C219.233 32.6674 218.368 32.5893 217.501 32.5689Z" fill="#51C16A"/>
    <path d="M225.968 16.3889C226.983 11.7091 224.018 7.09099 219.344 6.07405C214.671 5.05712 210.059 8.02644 209.043 12.7062C208.028 17.386 210.993 22.0041 215.667 23.021C220.34 24.0379 224.952 21.0686 225.968 16.3889Z" fill="white"/>
    <g opacity="0.719">
      <path opacity="0.719" d="M225.818 14.5293C225.818 13.7415 225.499 12.9885 224.935 12.445C224.37 11.9015 223.61 11.6154 222.83 11.6537C221.475 11.7198 220.218 12.9624 220.131 14.3285C220.065 15.2676 220.46 16.1789 221.188 16.7676C221.865 17.3006 222.424 17.9711 222.83 18.7354L222.911 18.9006C222.923 18.9232 222.946 18.9372 222.971 18.9372C222.997 18.9372 223.019 18.9232 223.033 18.9006L223.079 18.8067C223.487 18.0154 224.055 17.3206 224.747 16.7676C225.423 16.225 225.817 15.4006 225.818 14.5285V14.5293Z" fill="#333F48"/>
      <path opacity="0.719" d="M224.584 15.0187C224.786 14.0998 224.227 13.1996 223.337 13.0081C222.446 12.8166 221.56 13.4062 221.359 14.3251C221.157 15.244 221.715 16.1442 222.606 16.3357C223.497 16.5272 224.382 15.9375 224.584 15.0187Z" fill="white"/>
    </g>
    <g opacity="0.719">
      <path opacity="0.719" d="M215.695 14.5293C215.695 13.7415 215.376 12.9885 214.812 12.445C214.246 11.9015 213.486 11.6154 212.707 11.6537C211.352 11.7198 210.094 12.9624 210.007 14.3285C209.941 15.2676 210.337 16.1789 211.064 16.7676C211.741 17.3006 212.3 17.9711 212.706 18.7354L212.788 18.9006C212.799 18.9232 212.823 18.9372 212.847 18.9372C212.873 18.9372 212.896 18.9232 212.909 18.9006L212.956 18.8067C213.363 18.0154 213.931 17.3206 214.623 16.7676C215.299 16.225 215.694 15.4006 215.695 14.5285V14.5293Z" fill="#333F48"/>
      <path opacity="0.719" d="M214.46 15.0187C214.662 14.0998 214.104 13.1996 213.213 13.0081C212.322 12.8166 211.437 13.4062 211.235 14.3251C211.033 15.244 211.592 16.1442 212.482 16.3357C213.373 16.5272 214.259 15.9375 214.46 15.0187Z" fill="white"/>
    </g>
    <path d="M222.514 14.1745C222.515 13.0328 222.034 11.9397 221.184 11.1519C220.333 10.3641 219.188 9.94931 218.014 10.005C215.972 10.1006 214.078 11.9024 213.947 13.8858C213.848 15.2467 214.443 16.5684 215.538 17.4215C216.558 18.1954 217.401 19.1676 218.011 20.2763L218.134 20.5154C218.152 20.5476 218.187 20.5676 218.226 20.5676C218.263 20.5676 218.299 20.5476 218.317 20.5154L218.387 20.3789C219.002 19.2319 219.858 18.2241 220.901 17.4224C221.918 16.6345 222.513 15.4397 222.514 14.1754V14.1745Z" fill="#333F48"/>
    <path d="M220.728 14.7167C221.023 13.3717 220.143 12.0406 218.761 11.7435C217.38 11.4464 216.02 12.296 215.725 13.641C215.43 14.986 216.31 16.3171 217.692 16.6142C219.073 16.9113 220.433 16.0617 220.728 14.7167Z" fill="white"/>
    <path d="M276 88C300.301 88 320 68.3005 320 44C320 19.6995 300.301 0 276 0C251.7 0 232 19.6995 232 44C232 68.3005 251.7 88 276 88Z" fill="#F6BE00"/>
  </g>
  <defs>
    <clipPath id="clip0">
      <rect width="320" height="88" fill="white"/>
    </clipPath>
  </defs>
</svg>
