<svg width="120" height="200" viewBox="0 0 120 200" fill="none" xmlns="http://www.w3.org/2000/svg">
<path d="M40 19.7524C40.0017 17.0781 39.4524 14.4313 38.3857 11.9727C37.3189 9.51405 35.757 7.29491 33.7945 5.44992C31.832 3.60494 29.5099 2.17257 26.9694 1.23975C24.4287 0.306938 21.7225 -0.106866 19.0148 0.0234517C9.49287 0.478949 0.658323 9.00242 0.0490942 18.3844C-0.177041 21.5575 0.380342 24.7373 1.67343 27.6511C2.96654 30.5649 4.95676 33.1258 7.47342 35.1142C12.2286 38.7734 16.1559 43.3728 19.003 48.6176L19.5783 49.7497C19.6193 49.8254 19.6803 49.8887 19.7549 49.9327C19.8294 49.9769 19.9148 50.0001 20.0017 50C20.1788 50 20.341 49.9041 20.4265 49.7497L20.7585 49.1037C23.6201 43.6783 27.6121 38.9109 32.4724 35.1142C34.817 33.2768 36.7113 30.9417 38.0146 28.2822C39.3179 25.6228 39.9965 22.7078 40 19.7539V19.7524Z" fill="#8AEA73"/>
<path d="M18.5599 27.5177V30.8777C18.5599 30.9413 18.5347 31.0024 18.4897 31.0474C18.4446 31.0924 18.3836 31.1177 18.3199 31.1177H12.5599C12.4963 31.1177 12.4352 31.0924 12.3902 31.0474C12.3452 31.0024 12.3199 30.9413 12.3199 30.8777V27.5177H18.5599ZM12.3199 18.8777C12.3199 18.814 12.3452 18.753 12.3902 18.708C12.4352 18.663 12.4963 18.6377 12.5599 18.6377H18.3199C18.3836 18.6377 18.4446 18.663 18.4897 18.708C18.5347 18.753 18.5599 18.814 18.5599 18.8777V27.0377H12.3199V18.8777Z" fill="white"/>
<path d="M27.1999 9.27759C27.3273 9.27759 27.4493 9.32816 27.5394 9.41818C27.6294 9.50819 27.6799 9.63028 27.6799 9.75759V30.6376C27.6799 30.7649 27.6294 30.887 27.5394 30.977C27.4493 31.067 27.3273 31.1176 27.1999 31.1176H25.0399V25.8376C25.0399 25.7252 25.0004 25.6165 24.9284 25.5302C24.8564 25.444 24.7565 25.3857 24.6459 25.3656L24.5599 25.3576H21.6799C21.5526 25.3576 21.4306 25.4082 21.3405 25.4982C21.2505 25.5882 21.1999 25.7103 21.1999 25.8376V31.1176H18.3199V9.75759C18.3199 9.63028 18.3705 9.50819 18.4605 9.41818C18.5506 9.32816 18.6726 9.27759 18.7999 9.27759H27.1999ZM26.2399 16.2376H19.9999C19.9475 16.2377 19.8965 16.2549 19.8548 16.2867C19.8131 16.3185 19.7829 16.363 19.7689 16.4136L19.7599 16.4776V17.1976C19.7599 17.3076 19.8349 17.4006 19.9359 17.4286L19.9999 17.4376H26.2399C26.2924 17.4375 26.3434 17.4203 26.3851 17.3885C26.4268 17.3567 26.457 17.3121 26.4709 17.2616L26.4799 17.1976V16.4776C26.4799 16.4461 26.4737 16.4149 26.4617 16.3857C26.4496 16.3566 26.4319 16.3302 26.4097 16.3079C26.3874 16.2856 26.3609 16.2679 26.3318 16.2559C26.3027 16.2438 26.2715 16.2376 26.2399 16.2376ZM26.2399 14.3176H19.9999C19.9475 14.3177 19.8965 14.3349 19.8548 14.3667C19.8131 14.3985 19.7829 14.443 19.7689 14.4936L19.7599 14.5576V15.2776C19.7599 15.3876 19.8349 15.4806 19.9359 15.5086L19.9999 15.5176H26.2399C26.2924 15.5175 26.3434 15.5003 26.3851 15.4685C26.4268 15.4367 26.457 15.3921 26.4709 15.3416L26.4799 15.2776V14.5576C26.4799 14.4939 26.4547 14.4329 26.4097 14.3879C26.3646 14.3429 26.3036 14.3176 26.2399 14.3176V14.3176ZM26.2399 12.3976H19.9999C19.9475 12.3977 19.8965 12.4149 19.8548 12.4467C19.8131 12.4785 19.7829 12.523 19.7689 12.5736L19.7599 12.6376V13.3576C19.7599 13.4676 19.8349 13.5606 19.9359 13.5886L19.9999 13.5976H26.2399C26.2924 13.5975 26.3434 13.5803 26.3851 13.5485C26.4268 13.5167 26.457 13.4721 26.4709 13.4216L26.4799 13.3576V12.6376C26.4799 12.5739 26.4547 12.5129 26.4097 12.4679C26.3646 12.4229 26.3036 12.3976 26.2399 12.3976ZM26.2399 10.4776H19.9999C19.9475 10.4777 19.8965 10.4949 19.8548 10.5267C19.8131 10.5585 19.7829 10.603 19.7689 10.6536L19.7599 10.7176V11.4376C19.7599 11.5476 19.8349 11.6406 19.9359 11.6686L19.9999 11.6776H26.2399C26.2924 11.6775 26.3434 11.6603 26.3851 11.6285C26.4268 11.5967 26.457 11.5521 26.4709 11.5016L26.4799 11.4376V10.7176C26.4799 10.6861 26.4737 10.6549 26.4617 10.6257C26.4496 10.5966 26.4319 10.5702 26.4097 10.5479C26.3874 10.5256 26.3609 10.5079 26.3318 10.4959C26.3027 10.4838 26.2715 10.4776 26.2399 10.4776V10.4776Z" fill="white"/>
<path d="M80 19.7524C80.0017 17.0781 79.4524 14.4313 78.3857 11.9727C77.3189 9.51405 75.757 7.29491 73.7945 5.44992C71.832 3.60494 69.5099 2.17257 66.9694 1.23975C64.4287 0.306938 61.7225 -0.106866 59.0148 0.0234517C49.4929 0.478949 40.6583 9.00242 40.0491 18.3844C39.823 21.5575 40.3803 24.7373 41.6734 27.6511C42.9665 30.5649 44.9568 33.1258 47.4734 35.1142C52.2286 38.7734 56.1559 43.3728 59.003 48.6176L59.5783 49.7497C59.6193 49.8254 59.6803 49.8887 59.7549 49.9327C59.8294 49.9769 59.9148 50.0001 60.0017 50C60.1788 50 60.341 49.9041 60.4265 49.7497L60.7585 49.1037C63.6201 43.6783 67.6121 38.9109 72.4724 35.1142C74.817 33.2768 76.7113 30.9417 78.0146 28.2822C79.3179 25.6228 79.9965 22.7078 80 19.7539V19.7524Z" fill="#75B7B2"/>
<path d="M58.5601 27.4759V30.8359C58.5601 30.8996 58.5348 30.9606 58.4898 31.0057C58.4448 31.0507 58.3837 31.0759 58.3201 31.0759H52.5601C52.4964 31.0759 52.4354 31.0507 52.3904 31.0057C52.3454 30.9606 52.3201 30.8996 52.3201 30.8359V27.4759H58.5601ZM52.3201 18.8359C52.3201 18.7723 52.3454 18.7113 52.3904 18.6662C52.4354 18.6212 52.4964 18.5959 52.5601 18.5959H58.3201C58.3837 18.5959 58.4448 18.6212 58.4898 18.6662C58.5348 18.7113 58.5601 18.7723 58.5601 18.8359V26.9959H52.3201V18.8359Z" fill="white"/>
<path d="M67.2001 9.23584C67.3274 9.23584 67.4495 9.28641 67.5395 9.37643C67.6295 9.46645 67.6801 9.58854 67.6801 9.71584V30.5958C67.6801 30.7231 67.6295 30.8452 67.5395 30.9353C67.4495 31.0253 67.3274 31.0758 67.2001 31.0758H65.0401V25.7958C65.04 25.6835 65.0006 25.5747 64.9286 25.4885C64.8566 25.4022 64.7566 25.344 64.6461 25.3238L64.5601 25.3158H61.6801C61.5528 25.3158 61.4307 25.3664 61.3407 25.4564C61.2506 25.5464 61.2001 25.6685 61.2001 25.7958V31.0758H58.3201V9.71584C58.3201 9.58854 58.3706 9.46645 58.4607 9.37643C58.5507 9.28641 58.6728 9.23584 58.8001 9.23584H67.2001ZM66.2401 16.1958H60.0001C59.9476 16.1959 59.8966 16.2132 59.8549 16.2449C59.8132 16.2767 59.7831 16.3213 59.7691 16.3718L59.7601 16.4358V17.1558C59.7601 17.2658 59.8351 17.3588 59.9361 17.3868L60.0001 17.3958H66.2401C66.2925 17.3958 66.3435 17.3785 66.3852 17.3467C66.4269 17.315 66.4571 17.2704 66.4711 17.2198L66.4801 17.1558V16.4358C66.4801 16.4043 66.4739 16.3731 66.4618 16.344C66.4497 16.3149 66.4321 16.2884 66.4098 16.2661C66.3875 16.2438 66.361 16.2262 66.3319 16.2141C66.3028 16.202 66.2716 16.1958 66.2401 16.1958ZM66.2401 14.2758H60.0001C59.9476 14.2759 59.8966 14.2932 59.8549 14.3249C59.8132 14.3567 59.7831 14.4013 59.7691 14.4518L59.7601 14.5158V15.2358C59.7601 15.3458 59.8351 15.4388 59.9361 15.4668L60.0001 15.4758H66.2401C66.2925 15.4758 66.3435 15.4585 66.3852 15.4267C66.4269 15.395 66.4571 15.3504 66.4711 15.2998L66.4801 15.2358V14.5158C66.4801 14.4522 66.4548 14.3911 66.4098 14.3461C66.3648 14.3011 66.3037 14.2758 66.2401 14.2758V14.2758ZM66.2401 12.3558H60.0001C59.9476 12.3559 59.8966 12.3732 59.8549 12.4049C59.8132 12.4367 59.7831 12.4813 59.7691 12.5318L59.7601 12.5958V13.3158C59.7601 13.4258 59.8351 13.5188 59.9361 13.5468L60.0001 13.5558H66.2401C66.2925 13.5558 66.3435 13.5385 66.3852 13.5067C66.4269 13.475 66.4571 13.4304 66.4711 13.3798L66.4801 13.3158V12.5958C66.4801 12.5322 66.4548 12.4711 66.4098 12.4261C66.3648 12.3811 66.3037 12.3558 66.2401 12.3558ZM66.2401 10.4358H60.0001C59.9476 10.4359 59.8966 10.4532 59.8549 10.4849C59.8132 10.5167 59.7831 10.5613 59.7691 10.6118L59.7601 10.6758V11.3958C59.7601 11.5058 59.8351 11.5988 59.9361 11.6268L60.0001 11.6358H66.2401C66.2925 11.6358 66.3435 11.6185 66.3852 11.5867C66.4269 11.555 66.4571 11.5104 66.4711 11.4598L66.4801 11.3958V10.6758C66.4801 10.6443 66.4739 10.6131 66.4618 10.584C66.4497 10.5549 66.4321 10.5284 66.4098 10.5061C66.3875 10.4838 66.361 10.4662 66.3319 10.4541C66.3028 10.442 66.2716 10.4358 66.2401 10.4358V10.4358Z" fill="white"/>
<path d="M120 19.7524C120.002 17.0781 119.452 14.4313 118.386 11.9727C117.319 9.51405 115.757 7.29491 113.794 5.44992C111.832 3.60494 109.51 2.17257 106.969 1.23975C104.429 0.306938 101.722 -0.106866 99.0148 0.0234517C89.4929 0.478949 80.6583 9.00242 80.0491 18.3844C79.823 21.5575 80.3803 24.7373 81.6734 27.6511C82.9665 30.5649 84.9568 33.1258 87.4734 35.1142C92.2286 38.7734 96.1559 43.3728 99.003 48.6176L99.5783 49.7497C99.6193 49.8254 99.6803 49.8887 99.7549 49.9327C99.8294 49.9769 99.9148 50.0001 100.002 50C100.179 50 100.341 49.9041 100.427 49.7497L100.758 49.1037C103.62 43.6783 107.612 38.9109 112.472 35.1142C114.817 33.2768 116.711 30.9417 118.015 28.2822C119.318 25.6228 119.996 22.7078 120 19.7539V19.7524Z" fill="#F52455"/>
<path d="M98.5601 27.5592V30.9192C98.5601 30.9828 98.5348 31.0439 98.4898 31.0889C98.4448 31.1339 98.3837 31.1592 98.3201 31.1592H92.5601C92.4964 31.1592 92.4354 31.1339 92.3904 31.0889C92.3454 31.0439 92.3201 30.9828 92.3201 30.9192V27.5592H98.5601ZM92.3201 18.9192C92.3201 18.8555 92.3454 18.7945 92.3904 18.7495C92.4354 18.7045 92.4964 18.6792 92.5601 18.6792H98.3201C98.3837 18.6792 98.4448 18.7045 98.4898 18.7495C98.5348 18.7945 98.5601 18.8555 98.5601 18.9192V27.0792H92.3201V18.9192Z" fill="white"/>
<path d="M107.2 9.31909C107.327 9.31909 107.449 9.36966 107.539 9.45968C107.629 9.5497 107.68 9.67179 107.68 9.79909V30.6791C107.68 30.8064 107.629 30.9285 107.539 31.0185C107.449 31.1085 107.327 31.1591 107.2 31.1591H105.04V25.8791C105.04 25.7667 105.001 25.658 104.929 25.5717C104.857 25.4855 104.757 25.4272 104.646 25.4071L104.56 25.3991H101.68C101.553 25.3991 101.431 25.4497 101.341 25.5397C101.251 25.6297 101.2 25.7518 101.2 25.8791V31.1591H98.3201V9.79909C98.3201 9.67179 98.3706 9.5497 98.4607 9.45968C98.5507 9.36966 98.6728 9.31909 98.8001 9.31909H107.2ZM106.24 16.2791H100C99.9476 16.2792 99.8966 16.2964 99.8549 16.3282C99.8132 16.36 99.7831 16.4045 99.7691 16.4551L99.7601 16.5191V17.2391C99.7601 17.3491 99.8351 17.4421 99.9361 17.4701L100 17.4791H106.24C106.293 17.479 106.343 17.4618 106.385 17.43C106.427 17.3982 106.457 17.3536 106.471 17.3031L106.48 17.2391V16.5191C106.48 16.4876 106.474 16.4564 106.462 16.4272C106.45 16.3981 106.432 16.3717 106.41 16.3494C106.387 16.3271 106.361 16.3094 106.332 16.2974C106.303 16.2853 106.272 16.2791 106.24 16.2791ZM106.24 14.3591H100C99.9476 14.3592 99.8966 14.3764 99.8549 14.4082C99.8132 14.44 99.7831 14.4845 99.7691 14.5351L99.7601 14.5991V15.3191C99.7601 15.4291 99.8351 15.5221 99.9361 15.5501L100 15.5591H106.24C106.293 15.559 106.343 15.5418 106.385 15.51C106.427 15.4782 106.457 15.4336 106.471 15.3831L106.48 15.3191V14.5991C106.48 14.5354 106.455 14.4744 106.41 14.4294C106.365 14.3844 106.304 14.3591 106.24 14.3591V14.3591ZM106.24 12.4391H100C99.9476 12.4392 99.8966 12.4564 99.8549 12.4882C99.8132 12.52 99.7831 12.5645 99.7691 12.6151L99.7601 12.6791V13.3991C99.7601 13.5091 99.8351 13.6021 99.9361 13.6301L100 13.6391H106.24C106.293 13.639 106.343 13.6218 106.385 13.59C106.427 13.5582 106.457 13.5136 106.471 13.4631L106.48 13.3991V12.6791C106.48 12.6154 106.455 12.5544 106.41 12.5094C106.365 12.4644 106.304 12.4391 106.24 12.4391ZM106.24 10.5191H100C99.9476 10.5192 99.8966 10.5364 99.8549 10.5682C99.8132 10.6 99.7831 10.6445 99.7691 10.6951L99.7601 10.7591V11.4791C99.7601 11.5891 99.8351 11.6821 99.9361 11.7101L100 11.7191H106.24C106.293 11.719 106.343 11.7018 106.385 11.67C106.427 11.6382 106.457 11.5936 106.471 11.5431L106.48 11.4791V10.7591C106.48 10.7276 106.474 10.6964 106.462 10.6672C106.45 10.6381 106.432 10.6117 106.41 10.5894C106.387 10.5671 106.361 10.5494 106.332 10.5374C106.303 10.5253 106.272 10.5191 106.24 10.5191V10.5191Z" fill="white"/>
<path d="M40 69.7523C40.0017 67.0783 39.4524 64.4313 38.3857 61.9733C37.3189 59.5143 35.757 57.2953 33.7945 55.4503C31.832 53.6053 29.5099 52.1733 26.9694 51.2403C24.4287 50.3073 21.7225 49.8934 19.0148 50.0233C9.49287 50.4793 0.658323 59.0023 0.0490942 68.3843C-0.177041 71.5573 0.380342 74.7373 1.67343 77.6513C2.96654 80.5653 4.95676 83.1263 7.47342 85.1143C12.2286 88.7733 16.1559 93.3733 19.003 98.6183L19.5783 99.7503C19.6193 99.8253 19.6803 99.8893 19.7549 99.9333C19.8294 99.9773 19.9148 100 20.0017 100C20.1788 100 20.341 99.9043 20.4265 99.7503L20.7585 99.1043C23.6201 93.6783 27.6121 88.9113 32.4724 85.1143C34.817 83.2773 36.7113 80.9423 38.0146 78.2823C39.3179 75.6233 39.9965 72.7083 40 69.7543V69.7523Z" fill="#8AEA73"/>
<path d="M24.4075 70.6394L23.0255 69.2374V67.3954C23.0255 67.1024 22.7915 67.0854 22.5025 67.0854C22.2135 67.0854 21.9795 67.1024 21.9795 67.3954V68.1754L20.9505 67.1324C20.6964 66.8841 20.3552 66.7451 20 66.7451C19.6447 66.7451 19.3035 66.8841 19.0495 67.1324L15.5935 70.6394C15.4954 70.7396 15.4404 70.8742 15.4404 71.0144C15.4404 71.1546 15.4954 71.2892 15.5935 71.3894C15.6416 71.4388 15.6992 71.478 15.7627 71.5048C15.8262 71.5315 15.8945 71.5453 15.9635 71.5453C16.0324 71.5453 16.1007 71.5315 16.1642 71.5048C16.2277 71.478 16.2853 71.4388 16.3335 71.3894L19.7885 67.8834C19.8453 67.8287 19.9211 67.7982 20 67.7982C20.0788 67.7982 20.1546 67.8287 20.2115 67.8834L23.6675 71.3894C23.7157 71.4386 23.7733 71.4777 23.8368 71.5044C23.9003 71.5311 23.9685 71.5449 24.0375 71.5449C24.1064 71.5449 24.1746 71.5311 24.2381 71.5044C24.3017 71.4777 24.3592 71.4386 24.4075 71.3894C24.5055 71.2892 24.5605 71.1546 24.5605 71.0144C24.5605 70.8742 24.5055 70.7396 24.4075 70.6394V70.6394Z" fill="white"/>
<path d="M20.0595 68.7414C20.0364 68.7174 20.0086 68.6983 19.978 68.6853C19.9473 68.6722 19.9143 68.6655 19.881 68.6655C19.8477 68.6655 19.8147 68.6722 19.784 68.6853C19.7534 68.6983 19.7256 68.7174 19.7025 68.7414L16.7145 71.7914C16.6668 71.8403 16.6403 71.906 16.6405 71.9744V74.1994C16.6405 75.1454 16.6405 75.1454 17.5665 75.1454H19.0455V72.8054H20.7155V75.1454H22.1955C23.1205 75.1454 23.1205 75.1454 23.1205 74.1994V71.9754C23.1206 71.9073 23.094 71.842 23.0465 71.7934L20.0605 68.7414H20.0595Z" fill="white"/>
<path d="M17.2125 76.6884C17.2661 76.4228 17.2121 76.1468 17.0622 75.921C16.9124 75.6952 16.6791 75.5382 16.4135 75.4844L11.6095 74.5844C11.4781 74.5586 11.3429 74.5589 11.2116 74.5854C11.0803 74.6118 10.9555 74.664 10.8444 74.7387C10.7333 74.8135 10.6381 74.9095 10.5641 75.0211C10.4902 75.1328 10.439 75.258 10.4135 75.3894L9.52047 80.2254C9.49417 80.3564 9.49393 80.4913 9.51978 80.6224C9.54562 80.7535 9.59704 80.8783 9.67109 80.9895C9.74514 81.1007 9.84038 81.1963 9.95137 81.2707C10.0624 81.3451 10.1869 81.3969 10.3179 81.4232C10.4489 81.4494 10.5838 81.4496 10.7149 81.4238C10.846 81.3979 10.9707 81.3464 11.0819 81.2724C11.1931 81.1983 11.2887 81.103 11.3631 80.992C11.4374 80.881 11.4892 80.7564 11.5155 80.6254L11.8955 78.3794C12.91 79.6802 14.2072 80.7331 15.6889 81.4583C17.1706 82.1836 18.7978 82.5622 20.4475 82.5654C24.7715 82.5654 28.6835 79.9884 30.4155 75.9994C30.5238 75.751 30.5293 75.4697 30.431 75.2172C30.3326 74.9646 30.1383 74.7612 29.8905 74.6514C29.768 74.5977 29.636 74.5687 29.5022 74.5661C29.3685 74.5636 29.2355 74.5876 29.111 74.6367C28.9866 74.6857 28.873 74.759 28.777 74.8521C28.681 74.9453 28.6043 75.0565 28.5515 75.1794C27.8684 76.7626 26.7373 78.1115 25.2974 79.0601C23.8575 80.0087 22.1717 80.5156 20.4475 80.5184C19.0901 80.5156 17.7516 80.2002 16.5358 79.5967C15.32 78.9932 14.2595 78.1178 13.4365 77.0384L16.0165 77.4924C16.5675 77.6024 17.1025 77.2424 17.2125 76.6884V76.6884ZM22.7885 65.4424C22.7348 65.708 22.7889 65.9841 22.9387 66.2099C23.0885 66.4356 23.3219 66.5927 23.5875 66.6464L28.3915 67.5464C28.9425 67.6564 29.4775 67.2964 29.5875 66.7414L30.4805 61.9054C30.5333 61.64 30.4789 61.3645 30.3292 61.1391C30.1794 60.9137 29.9466 60.7567 29.6815 60.7024C29.1315 60.5924 28.5955 60.9524 28.4865 61.5064L28.1045 63.7514C27.0901 62.4509 25.7932 61.3982 24.3119 60.673C22.8306 59.9477 21.2038 59.569 19.5545 59.5654C17.4334 59.5685 15.3595 60.1916 13.5881 61.3583C11.8167 62.5249 10.425 64.184 9.58447 66.1314C9.47618 66.3799 9.47061 66.6611 9.56897 66.9137C9.66734 67.1663 9.86165 67.3696 10.1095 67.4794C10.232 67.5332 10.3639 67.5622 10.4977 67.5647C10.6315 67.5673 10.7644 67.5433 10.8889 67.4942C11.0134 67.4451 11.1269 67.3719 11.2229 67.2787C11.319 67.1856 11.3956 67.0743 11.4485 66.9514C12.1316 65.3683 13.2627 64.0194 14.7025 63.0708C16.1424 62.1222 17.8282 61.6153 19.5525 61.6124C20.9098 61.6153 22.2483 61.9307 23.4641 62.5342C24.6799 63.1377 25.7405 64.013 26.5635 65.0924L23.9835 64.6384C23.8521 64.6126 23.717 64.6128 23.5858 64.6392C23.4545 64.6657 23.3298 64.7177 23.2187 64.7924C23.1076 64.8671 23.0124 64.9629 22.9384 65.0745C22.8644 65.186 22.8131 65.311 22.7875 65.4424H22.7885Z" fill="white"/>
<path d="M80 69.7523C80.0017 67.0783 79.4524 64.4313 78.3857 61.9733C77.3189 59.5143 75.757 57.2953 73.7945 55.4503C71.832 53.6053 69.5099 52.1733 66.9694 51.2403C64.4287 50.3073 61.7225 49.8934 59.0148 50.0233C49.4929 50.4793 40.6583 59.0023 40.0491 68.3843C39.823 71.5573 40.3803 74.7373 41.6734 77.6513C42.9665 80.5653 44.9568 83.1263 47.4734 85.1143C52.2286 88.7733 56.1559 93.3733 59.003 98.6183L59.5783 99.7503C59.6193 99.8253 59.6803 99.8893 59.7549 99.9333C59.8294 99.9773 59.9148 100 60.0017 100C60.1788 100 60.341 99.9043 60.4265 99.7503L60.7585 99.1043C63.6201 93.6783 67.6121 88.9113 72.4724 85.1143C74.817 83.2773 76.7113 80.9423 78.0146 78.2823C79.3179 75.6233 79.9965 72.7083 80 69.7543V69.7523Z" fill="#75B7B2"/>
<path d="M64.4075 70.958L63.0255 69.556V67.714C63.0255 67.421 62.7915 67.404 62.5025 67.404C62.2135 67.404 61.9795 67.421 61.9795 67.714V68.494L60.9505 67.451C60.6964 67.2027 60.3552 67.0637 60 67.0637C59.6447 67.0637 59.3035 67.2027 59.0495 67.451L55.5935 70.958C55.4954 71.0582 55.4404 71.1928 55.4404 71.333C55.4404 71.4732 55.4954 71.6078 55.5935 71.708C55.6416 71.7574 55.6992 71.7966 55.7627 71.8234C55.8262 71.8501 55.8945 71.8639 55.9635 71.8639C56.0324 71.8639 56.1007 71.8501 56.1642 71.8234C56.2277 71.7966 56.2853 71.7574 56.3335 71.708L59.7885 68.202C59.8453 68.1473 59.9211 68.1168 60 68.1168C60.0788 68.1168 60.1546 68.1473 60.2115 68.202L63.6675 71.708C63.7157 71.7572 63.7733 71.7963 63.8368 71.823C63.9003 71.8497 63.9685 71.8635 64.0375 71.8635C64.1064 71.8635 64.1746 71.8497 64.2381 71.823C64.3017 71.7963 64.3592 71.7572 64.4075 71.708C64.5055 71.6078 64.5605 71.4732 64.5605 71.333C64.5605 71.1928 64.5055 71.0582 64.4075 70.958V70.958Z" fill="white"/>
<path d="M60.0595 69.06C60.0364 69.036 60.0086 69.0169 59.978 69.0039C59.9473 68.9908 59.9143 68.9841 59.881 68.9841C59.8477 68.9841 59.8147 68.9908 59.784 69.0039C59.7534 69.0169 59.7256 69.036 59.7025 69.06L56.7145 72.11C56.6668 72.1589 56.6403 72.2246 56.6405 72.293V74.518C56.6405 75.464 56.6405 75.464 57.5665 75.464H59.0455V73.124H60.7155V75.464H62.1955C63.1205 75.464 63.1205 75.464 63.1205 74.518V72.294C63.1206 72.226 63.094 72.1606 63.0465 72.112L60.0605 69.06H60.0595Z" fill="white"/>
<path d="M57.2125 77.007C57.2661 76.7414 57.2121 76.4654 57.0622 76.2396C56.9124 76.0138 56.6791 75.8568 56.4135 75.803L51.6095 74.903C51.4781 74.8772 51.3429 74.8775 51.2116 74.904C51.0803 74.9304 50.9555 74.9826 50.8444 75.0573C50.7333 75.1321 50.6381 75.2281 50.5641 75.3397C50.4902 75.4514 50.439 75.5766 50.4135 75.708L49.5205 80.544C49.4942 80.675 49.4939 80.8099 49.5198 80.941C49.5456 81.0721 49.597 81.1969 49.6711 81.3081C49.7451 81.4193 49.8404 81.5149 49.9514 81.5893C50.0624 81.6637 50.1869 81.7155 50.3179 81.7418C50.4489 81.768 50.5838 81.7682 50.7149 81.7424C50.846 81.7165 50.9707 81.665 51.0819 81.591C51.1931 81.5169 51.2887 81.4216 51.3631 81.3106C51.4374 81.1996 51.4892 81.0751 51.5155 80.944L51.8955 78.698C52.91 79.9988 54.2072 81.0517 55.6889 81.7769C57.1706 82.5022 58.7978 82.8808 60.4475 82.884C64.7715 82.884 68.6835 80.307 70.4155 76.318C70.5238 76.0696 70.5293 75.7883 70.431 75.5358C70.3326 75.2832 70.1383 75.0798 69.8905 74.97C69.768 74.9163 69.636 74.8873 69.5022 74.8847C69.3685 74.8822 69.2355 74.9062 69.111 74.9553C68.9866 75.0043 68.873 75.0776 68.777 75.1707C68.681 75.2639 68.6043 75.3751 68.5515 75.498C67.8684 77.0812 66.7373 78.4301 65.2974 79.3787C63.8575 80.3273 62.1717 80.8342 60.4475 80.837C59.0901 80.8342 57.7516 80.5188 56.5358 79.9153C55.32 79.3118 54.2595 78.4364 53.4365 77.357L56.0165 77.811C56.5675 77.921 57.1025 77.561 57.2125 77.007V77.007ZM62.7885 65.761C62.7348 66.0266 62.7889 66.3027 62.9387 66.5285C63.0885 66.7542 63.3219 66.9113 63.5875 66.965L68.3915 67.865C68.9425 67.975 69.4775 67.615 69.5875 67.06L70.4805 62.224C70.5333 61.9586 70.4789 61.6831 70.3292 61.4577C70.1794 61.2323 69.9466 61.0753 69.6815 61.021C69.1315 60.911 68.5955 61.271 68.4865 61.825L68.1045 64.07C67.0901 62.7695 65.7932 61.7168 64.3119 60.9916C62.8306 60.2664 61.2038 59.8876 59.5545 59.884C57.4334 59.8871 55.3595 60.5102 53.5881 61.6769C51.8167 62.8435 50.425 64.5026 49.5845 66.45C49.4762 66.6985 49.4706 66.9797 49.569 67.2323C49.6673 67.4849 49.8617 67.6883 50.1095 67.798C50.232 67.8518 50.3639 67.8808 50.4977 67.8833C50.6315 67.8859 50.7644 67.8619 50.8889 67.8128C51.0134 67.7637 51.1269 67.6905 51.2229 67.5973C51.319 67.5042 51.3956 67.3929 51.4485 67.27C52.1316 65.6869 53.2627 64.338 54.7025 63.3894C56.1424 62.4408 57.8282 61.9339 59.5525 61.931C60.9098 61.9339 62.2483 62.2493 63.4641 62.8528C64.6799 63.4563 65.7405 64.3316 66.5635 65.411L63.9835 64.957C63.8521 64.9312 63.717 64.9314 63.5858 64.9578C63.4545 64.9843 63.3298 65.0363 63.2187 65.111C63.1076 65.1857 63.0124 65.2815 62.9384 65.3931C62.8644 65.5046 62.8131 65.6296 62.7875 65.761H62.7885Z" fill="white"/>
<path d="M120 69.7523C120.002 67.0783 119.452 64.4313 118.386 61.9733C117.319 59.5143 115.757 57.2953 113.794 55.4503C111.832 53.6053 109.51 52.1733 106.969 51.2403C104.429 50.3073 101.722 49.8934 99.0148 50.0233C89.4929 50.4793 80.6583 59.0023 80.0491 68.3843C79.823 71.5573 80.3803 74.7373 81.6734 77.6513C82.9665 80.5653 84.9568 83.1263 87.4734 85.1143C92.2286 88.7733 96.1559 93.3733 99.003 98.6183L99.5783 99.7503C99.6193 99.8253 99.6803 99.8893 99.7549 99.9333C99.8294 99.9773 99.9148 100 100.002 100C100.179 100 100.341 99.9043 100.427 99.7503L100.758 99.1043C103.62 93.6783 107.612 88.9113 112.472 85.1143C114.817 83.2773 116.711 80.9423 118.015 78.2823C119.318 75.6233 119.996 72.7083 120 69.7543V69.7523Z" fill="#F52455"/>
<path d="M104.407 70.3211L103.025 68.9191V67.0771C103.025 66.7841 102.791 66.7671 102.502 66.7671C102.213 66.7671 101.979 66.7841 101.979 67.0771V67.8571L100.95 66.8141C100.696 66.5658 100.355 66.4268 100 66.4268C99.6447 66.4268 99.3035 66.5658 99.0495 66.8141L95.5935 70.3211C95.4954 70.4212 95.4404 70.5559 95.4404 70.6961C95.4404 70.8363 95.4954 70.9709 95.5935 71.0711C95.6416 71.1204 95.6992 71.1596 95.7627 71.1864C95.8262 71.2132 95.8945 71.227 95.9635 71.227C96.0324 71.227 96.1007 71.2132 96.1642 71.1864C96.2277 71.1596 96.2853 71.1204 96.3335 71.0711L99.7885 67.5651C99.8453 67.5104 99.9211 67.4798 100 67.4798C100.079 67.4798 100.155 67.5104 100.211 67.5651L103.667 71.0711C103.716 71.1203 103.773 71.1594 103.837 71.1861C103.9 71.2128 103.969 71.2265 104.037 71.2265C104.106 71.2265 104.175 71.2128 104.238 71.1861C104.302 71.1594 104.359 71.1203 104.407 71.0711C104.506 70.9709 104.56 70.8363 104.56 70.6961C104.56 70.5559 104.506 70.4212 104.407 70.3211V70.3211Z" fill="white"/>
<path d="M100.06 68.423C100.036 68.399 100.009 68.3799 99.978 68.3669C99.9473 68.3539 99.9143 68.3472 99.881 68.3472C99.8477 68.3472 99.8147 68.3539 99.784 68.3669C99.7534 68.3799 99.7256 68.399 99.7025 68.423L96.7145 71.473C96.6668 71.522 96.6403 71.5877 96.6405 71.656V73.881C96.6405 74.827 96.6405 74.827 97.5665 74.827H99.0455V72.487H100.716V74.827H102.196C103.121 74.827 103.121 74.827 103.121 73.881V71.657C103.121 71.589 103.094 71.5237 103.047 71.475L100.061 68.423H100.06Z" fill="white"/>
<path d="M97.2125 76.3701C97.2661 76.1045 97.2121 75.8284 97.0622 75.6026C96.9124 75.3769 96.6791 75.2198 96.4135 75.1661L91.6095 74.2661C91.4781 74.2402 91.3429 74.2405 91.2116 74.267C91.0803 74.2935 90.9555 74.3456 90.8444 74.4204C90.7333 74.4952 90.6381 74.5911 90.5641 74.7028C90.4902 74.8144 90.439 74.9396 90.4135 75.0711L89.5205 79.9071C89.4942 80.0381 89.4939 80.173 89.5198 80.3041C89.5456 80.4352 89.597 80.5599 89.6711 80.6711C89.7451 80.7824 89.8404 80.8779 89.9514 80.9523C90.0624 81.0267 90.1869 81.0785 90.3179 81.1048C90.4489 81.1311 90.5838 81.1313 90.7149 81.1054C90.846 81.0795 90.9707 81.0281 91.0819 80.954C91.1931 80.8799 91.2887 80.7847 91.3631 80.6737C91.4374 80.5627 91.4892 80.4381 91.5155 80.3071L91.8955 78.0611C92.91 79.3618 94.2072 80.4147 95.6889 81.14C97.1706 81.8652 98.7978 82.2438 100.447 82.2471C104.771 82.2471 108.683 79.6701 110.415 75.6811C110.524 75.4326 110.529 75.1514 110.431 74.8988C110.333 74.6462 110.138 74.4429 109.89 74.3331C109.768 74.2793 109.636 74.2503 109.502 74.2478C109.368 74.2452 109.236 74.2692 109.111 74.3183C108.987 74.3674 108.873 74.4406 108.777 74.5338C108.681 74.6269 108.604 74.7382 108.551 74.8611C107.868 76.4442 106.737 77.7931 105.297 78.7417C103.858 79.6903 102.172 80.1972 100.447 80.2001C99.0901 80.1972 97.7516 79.8818 96.5358 79.2783C95.32 78.6748 94.2595 77.7995 93.4365 76.7201L96.0165 77.1741C96.5675 77.2841 97.1025 76.9241 97.2125 76.3701V76.3701ZM102.788 65.1241C102.735 65.3897 102.789 65.6657 102.939 65.8915C103.089 66.1173 103.322 66.2743 103.587 66.3281L108.391 67.2281C108.942 67.3381 109.477 66.9781 109.587 66.4231L110.48 61.5871C110.533 61.3217 110.479 61.0462 110.329 60.8207C110.179 60.5953 109.947 60.4383 109.681 60.3841C109.131 60.2741 108.595 60.6341 108.486 61.1881L108.104 63.4331C107.09 62.1326 105.793 61.0798 104.312 60.3546C102.831 59.6294 101.204 59.2506 99.5545 59.2471C97.4334 59.2501 95.3595 59.8733 93.5881 61.0399C91.8167 62.2065 90.425 63.8657 89.5845 65.8131C89.4762 66.0615 89.4706 66.3428 89.569 66.5953C89.6673 66.8479 89.8617 67.0513 90.1095 67.1611C90.232 67.2148 90.3639 67.2438 90.4977 67.2464C90.6315 67.2489 90.7644 67.2249 90.8889 67.1758C91.0134 67.1268 91.1269 67.0535 91.2229 66.9604C91.319 66.8672 91.3956 66.756 91.4485 66.6331C92.1316 65.0499 93.2627 63.701 94.7025 62.7524C96.1424 61.8038 97.8282 61.2969 99.5525 61.2941C100.91 61.2969 102.248 61.6123 103.464 62.2158C104.68 62.8193 105.74 63.6947 106.563 64.7741L103.983 64.3201C103.852 64.2942 103.717 64.2945 103.586 64.3209C103.455 64.3473 103.33 64.3993 103.219 64.474C103.108 64.5487 103.012 64.6446 102.938 64.7561C102.864 64.8676 102.813 64.9927 102.787 65.1241H102.788Z" fill="white"/>
<path d="M40 119.753C40.0017 117.079 39.4524 114.432 38.3857 111.974C37.3189 109.515 35.757 107.296 33.7945 105.451C31.832 103.606 29.5099 102.174 26.9694 101.241C24.4287 100.308 21.7225 99.8936 19.0148 100.024C9.49287 100.48 0.658323 109.003 0.0490942 118.385C-0.177041 121.558 0.380342 124.738 1.67343 127.652C2.96654 130.566 4.95676 133.127 7.47342 135.115C12.2286 138.774 16.1559 143.374 19.003 148.619L19.5783 149.751C19.6193 149.826 19.6803 149.89 19.7549 149.934C19.8294 149.978 19.9148 150.001 20.0017 150.001C20.1788 150.001 20.341 149.905 20.4265 149.751L20.7585 149.105C23.6201 143.679 27.6121 138.912 32.4724 135.115C34.817 133.278 36.7113 130.943 38.0146 128.283C39.3179 125.624 39.9965 122.709 40 119.755V119.753Z" fill="#8AEA73"/>
<path d="M22.6366 114.683C22.5886 114.923 22.6376 115.171 22.7728 115.374C22.908 115.577 23.1184 115.718 23.3576 115.766L27.6956 116.576C28.1926 116.676 28.6756 116.351 28.7756 115.852L29.5816 111.5C29.6053 111.382 29.6054 111.26 29.582 111.142C29.5586 111.024 29.5121 110.911 29.4452 110.811C29.3783 110.71 29.2923 110.624 29.1921 110.557C29.0918 110.49 28.9794 110.443 28.8611 110.42C28.7429 110.396 28.6211 110.396 28.5028 110.419C28.3845 110.443 28.272 110.489 28.1716 110.556C28.0713 110.623 27.9851 110.709 27.918 110.809C27.851 110.91 27.8043 111.022 27.7806 111.14L27.4366 113.161C26.519 111.99 25.3473 111.042 24.01 110.39C22.6727 109.737 21.2046 109.397 19.7166 109.394C17.8039 109.396 15.9333 109.956 14.3344 111.006C12.7356 112.056 11.4782 113.55 10.7166 115.304C10.619 115.528 10.614 115.781 10.7029 116.008C10.7918 116.236 10.9672 116.418 11.1906 116.516C11.3012 116.565 11.4202 116.591 11.5408 116.593C11.6615 116.595 11.7814 116.574 11.8937 116.53C12.006 116.486 12.1086 116.42 12.1954 116.336C12.2822 116.252 12.3516 116.152 12.3996 116.041C13.0188 114.615 14.0411 113.4 15.3409 112.547C16.6408 111.693 18.1616 111.238 19.7166 111.236C20.9412 111.238 22.1489 111.522 23.2465 112.065C24.344 112.608 25.3021 113.396 26.0466 114.368L23.7166 113.96C23.5982 113.937 23.4763 113.937 23.3579 113.96C23.2396 113.984 23.127 114.031 23.0267 114.098C22.9263 114.165 22.8403 114.251 22.7733 114.352C22.7064 114.452 22.6599 114.565 22.6366 114.683V114.683Z" fill="white"/>
<path d="M20.1866 123.352L18.6226 121.739V119.622C18.6226 119.285 18.3576 119.266 18.0306 119.266C17.7036 119.266 17.4396 119.286 17.4396 119.622V120.519L16.2746 119.319C15.9893 119.034 15.6025 118.874 15.1991 118.874C14.7958 118.874 14.409 119.034 14.1236 119.319L10.2136 123.352C10.1025 123.468 10.0404 123.623 10.0404 123.784C10.0404 123.945 10.1025 124.099 10.2136 124.215C10.2677 124.272 10.3326 124.317 10.4044 124.347C10.4763 124.378 10.5535 124.394 10.6316 124.394C10.7097 124.394 10.787 124.378 10.8589 124.347C10.9307 124.317 10.9956 124.272 11.0496 124.215L14.9596 120.182C15.0236 120.12 15.1096 120.084 15.1991 120.084C15.2887 120.084 15.3747 120.12 15.4386 120.182L19.3486 124.215C19.4029 124.272 19.4679 124.317 19.5399 124.347C19.6119 124.378 19.6894 124.394 19.7676 124.394C19.8459 124.394 19.9234 124.378 19.9954 124.347C20.0674 124.317 20.1324 124.272 20.1866 124.215C20.2978 124.099 20.3599 123.945 20.3599 123.784C20.3599 123.623 20.2978 123.468 20.1866 123.352V123.352Z" fill="white"/>
<path d="M15.4046 121.121C15.378 121.094 15.3462 121.072 15.311 121.057C15.2757 121.042 15.2379 121.034 15.1996 121.034C15.1614 121.034 15.1235 121.042 15.0883 121.057C15.053 121.072 15.0212 121.094 14.9946 121.121L11.5646 124.624C11.5099 124.681 11.4794 124.756 11.4796 124.834V127.388C11.4796 128.474 11.4796 128.474 12.5426 128.474H14.2396V125.787H16.1596V128.474H17.8576C18.9206 128.474 18.9206 128.474 18.9206 127.388V124.833C18.9209 124.755 18.8904 124.68 18.8356 124.623L15.4056 121.121H15.4046Z" fill="white"/>
<path d="M29.4796 117.914C29.6069 117.914 29.729 117.965 29.8191 118.055C29.9091 118.145 29.9596 118.267 29.9596 118.394V127.994C29.9596 128.122 29.9091 128.244 29.8191 128.334C29.729 128.424 29.6069 128.474 29.4796 128.474H23.2396C23.1123 128.474 22.9902 128.424 22.9002 128.334C22.8102 128.244 22.7596 128.122 22.7596 127.994V118.394C22.7596 118.267 22.8102 118.145 22.9002 118.055C22.9902 117.965 23.1123 117.914 23.2396 117.914H29.4796ZM25.8796 125.594H24.1996C24.136 125.594 24.0749 125.62 24.0299 125.665C23.9849 125.71 23.9596 125.771 23.9596 125.834V126.794C23.9596 126.926 24.0666 127.034 24.1996 127.034H25.8796C25.9433 127.034 26.0043 127.009 26.0493 126.964C26.0944 126.919 26.1196 126.858 26.1196 126.794V125.834C26.1196 125.771 26.0944 125.71 26.0493 125.665C26.0043 125.62 25.9433 125.594 25.8796 125.594V125.594ZM28.5196 125.594H26.8396C26.776 125.594 26.7149 125.62 26.6699 125.665C26.6249 125.71 26.5996 125.771 26.5996 125.834V126.794C26.5996 126.926 26.7066 127.034 26.8396 127.034H28.5196C28.5833 127.034 28.6443 127.009 28.6893 126.964C28.7344 126.919 28.7596 126.858 28.7596 126.794V125.834C28.7596 125.771 28.7344 125.71 28.6893 125.665C28.6443 125.62 28.5833 125.594 28.5196 125.594ZM25.8796 123.434H24.1996C24.136 123.434 24.0749 123.46 24.0299 123.505C23.9849 123.55 23.9596 123.611 23.9596 123.674V124.634C23.9596 124.766 24.0666 124.874 24.1996 124.874H25.8796C25.9433 124.874 26.0043 124.849 26.0493 124.804C26.0944 124.759 26.1196 124.698 26.1196 124.634V123.674C26.1196 123.611 26.0944 123.55 26.0493 123.505C26.0043 123.46 25.9433 123.434 25.8796 123.434V123.434ZM28.5196 123.434H26.8396C26.776 123.434 26.7149 123.46 26.6699 123.505C26.6249 123.55 26.5996 123.611 26.5996 123.674V124.634C26.5996 124.766 26.7066 124.874 26.8396 124.874H28.5196C28.5833 124.874 28.6443 124.849 28.6893 124.804C28.7344 124.759 28.7596 124.698 28.7596 124.634V123.674C28.7596 123.611 28.7344 123.55 28.6893 123.505C28.6443 123.46 28.5833 123.434 28.5196 123.434ZM25.8796 121.514H24.1996C24.136 121.514 24.0749 121.54 24.0299 121.585C23.9849 121.63 23.9596 121.691 23.9596 121.754V122.714C23.9596 122.846 24.0666 122.954 24.1996 122.954H25.8796C25.9433 122.954 26.0043 122.929 26.0493 122.884C26.0944 122.839 26.1196 122.778 26.1196 122.714V121.754C26.1196 121.691 26.0944 121.63 26.0493 121.585C26.0043 121.54 25.9433 121.514 25.8796 121.514V121.514ZM28.5196 121.514H26.8396C26.776 121.514 26.7149 121.54 26.6699 121.585C26.6249 121.63 26.5996 121.691 26.5996 121.754V122.714C26.5996 122.846 26.7066 122.954 26.8396 122.954H28.5196C28.5833 122.954 28.6443 122.929 28.6893 122.884C28.7344 122.839 28.7596 122.778 28.7596 122.714V121.754C28.7596 121.691 28.7344 121.63 28.6893 121.585C28.6443 121.54 28.5833 121.514 28.5196 121.514V121.514ZM25.8796 119.354H24.1996C24.136 119.354 24.0749 119.38 24.0299 119.425C23.9849 119.47 23.9596 119.531 23.9596 119.594V120.554C23.9596 120.686 24.0666 120.794 24.1996 120.794H25.8796C25.9433 120.794 26.0043 120.769 26.0493 120.724C26.0944 120.679 26.1196 120.618 26.1196 120.554V119.594C26.1196 119.531 26.0944 119.47 26.0493 119.425C26.0043 119.38 25.9433 119.354 25.8796 119.354V119.354ZM28.5196 119.354H26.8396C26.776 119.354 26.7149 119.38 26.6699 119.425C26.6249 119.47 26.5996 119.531 26.5996 119.594V120.554C26.5996 120.686 26.7066 120.794 26.8396 120.794H28.5196C28.5833 120.794 28.6443 120.769 28.6893 120.724C28.7344 120.679 28.7596 120.618 28.7596 120.554V119.594C28.7596 119.531 28.7344 119.47 28.6893 119.425C28.6443 119.38 28.5833 119.354 28.5196 119.354V119.354Z" fill="white"/>
<path d="M80 119.753C80.0017 117.079 79.4524 114.432 78.3857 111.974C77.3189 109.515 75.757 107.296 73.7945 105.451C71.832 103.606 69.5099 102.174 66.9694 101.241C64.4287 100.308 61.7225 99.8936 59.0148 100.024C49.4929 100.48 40.6583 109.003 40.0491 118.385C39.823 121.558 40.3803 124.738 41.6734 127.652C42.9665 130.566 44.9568 133.127 47.4734 135.115C52.2286 138.774 56.1559 143.374 59.003 148.619L59.5783 149.751C59.6193 149.826 59.6803 149.89 59.7549 149.934C59.8294 149.978 59.9148 150.001 60.0017 150.001C60.1788 150.001 60.341 149.905 60.4265 149.751L60.7585 149.105C63.6201 143.679 67.6121 138.912 72.4724 135.115C74.817 133.278 76.7113 130.943 78.0146 128.283C79.3179 125.624 79.9965 122.709 80 119.755V119.753Z" fill="#75B7B2"/>
<path d="M62.6366 114.198C62.5886 114.437 62.6376 114.686 62.7728 114.889C62.908 115.092 63.1184 115.233 63.3576 115.281L67.6956 116.091C68.1926 116.191 68.6756 115.866 68.7756 115.367L69.5816 111.015C69.6053 110.897 69.6054 110.775 69.582 110.657C69.5586 110.539 69.5121 110.426 69.4452 110.326C69.3783 110.225 69.2923 110.139 69.1921 110.072C69.0918 110.005 68.9794 109.958 68.8611 109.935C68.7429 109.911 68.6211 109.911 68.5028 109.934C68.3845 109.958 68.272 110.004 68.1716 110.071C68.0713 110.138 67.9851 110.224 67.918 110.324C67.851 110.424 67.8043 110.537 67.7806 110.655L67.4366 112.676C66.519 111.505 65.3473 110.557 64.01 109.905C62.6727 109.252 61.2046 108.912 59.7166 108.909C57.8039 108.911 55.9333 109.471 54.3344 110.521C52.7356 111.571 51.4782 113.065 50.7166 114.819C50.619 115.043 50.614 115.296 50.7029 115.523C50.7918 115.75 50.9672 115.933 51.1906 116.031C51.3012 116.08 51.4202 116.106 51.5408 116.108C51.6615 116.11 51.7814 116.089 51.8937 116.045C52.006 116.001 52.1086 115.935 52.1954 115.851C52.2822 115.767 52.3516 115.667 52.3996 115.556C53.0188 114.13 54.0411 112.915 55.3409 112.062C56.6408 111.208 58.1616 110.753 59.7166 110.751C60.9412 110.753 62.1489 111.037 63.2465 111.58C64.344 112.123 65.3021 112.911 66.0466 113.883L63.7166 113.475C63.5982 113.452 63.4763 113.452 63.3579 113.475C63.2396 113.499 63.127 113.546 63.0267 113.613C62.9263 113.68 62.8403 113.766 62.7733 113.867C62.7064 113.967 62.6599 114.08 62.6366 114.198V114.198Z" fill="white"/>
<path d="M60.1866 122.867L58.6226 121.254V119.137C58.6226 118.8 58.3576 118.781 58.0306 118.781C57.7036 118.781 57.4396 118.801 57.4396 119.137V120.034L56.2746 118.834C55.9893 118.549 55.6025 118.389 55.1991 118.389C54.7958 118.389 54.409 118.549 54.1236 118.834L50.2136 122.867C50.1025 122.983 50.0404 123.138 50.0404 123.299C50.0404 123.46 50.1025 123.614 50.2136 123.73C50.2677 123.787 50.3326 123.831 50.4044 123.862C50.4763 123.893 50.5535 123.909 50.6316 123.909C50.7097 123.909 50.787 123.893 50.8589 123.862C50.9307 123.831 50.9956 123.787 51.0496 123.73L54.9596 119.697C55.0236 119.635 55.1096 119.599 55.1991 119.599C55.2887 119.599 55.3747 119.635 55.4386 119.697L59.3486 123.73C59.4029 123.787 59.4679 123.832 59.5399 123.862C59.6119 123.893 59.6894 123.909 59.7676 123.909C59.8459 123.909 59.9234 123.893 59.9954 123.862C60.0674 123.832 60.1324 123.787 60.1866 123.73C60.2978 123.614 60.3599 123.46 60.3599 123.299C60.3599 123.138 60.2978 122.983 60.1866 122.867V122.867Z" fill="white"/>
<path d="M55.4046 120.636C55.378 120.609 55.3462 120.587 55.311 120.572C55.2757 120.557 55.2379 120.549 55.1996 120.549C55.1614 120.549 55.1235 120.557 55.0883 120.572C55.053 120.587 55.0212 120.609 54.9946 120.636L51.5646 124.139C51.5099 124.196 51.4794 124.271 51.4796 124.349V126.903C51.4796 127.989 51.4796 127.989 52.5426 127.989H54.2396V125.302H56.1596V127.989H57.8576C58.9206 127.989 58.9206 127.989 58.9206 126.903V124.348C58.9209 124.27 58.8904 124.194 58.8356 124.138L55.4056 120.636H55.4046Z" fill="white"/>
<path d="M69.4796 117.429C69.6069 117.429 69.729 117.48 69.8191 117.57C69.9091 117.66 69.9596 117.782 69.9596 117.909V127.509C69.9596 127.637 69.9091 127.759 69.8191 127.849C69.729 127.939 69.6069 127.989 69.4796 127.989H63.2396C63.1123 127.989 62.9902 127.939 62.9002 127.849C62.8102 127.759 62.7596 127.637 62.7596 127.509V117.909C62.7596 117.782 62.8102 117.66 62.9002 117.57C62.9902 117.48 63.1123 117.429 63.2396 117.429H69.4796ZM65.8796 125.109H64.1996C64.136 125.109 64.0749 125.134 64.0299 125.179C63.9849 125.225 63.9596 125.286 63.9596 125.349V126.309C63.9596 126.441 64.0666 126.549 64.1996 126.549H65.8796C65.9433 126.549 66.0043 126.524 66.0493 126.479C66.0944 126.434 66.1196 126.373 66.1196 126.309V125.349C66.1196 125.286 66.0944 125.225 66.0493 125.179C66.0043 125.134 65.9433 125.109 65.8796 125.109V125.109ZM68.5196 125.109H66.8396C66.776 125.109 66.7149 125.134 66.6699 125.179C66.6249 125.225 66.5996 125.286 66.5996 125.349V126.309C66.5996 126.441 66.7066 126.549 66.8396 126.549H68.5196C68.5833 126.549 68.6443 126.524 68.6893 126.479C68.7344 126.434 68.7596 126.373 68.7596 126.309V125.349C68.7596 125.286 68.7344 125.225 68.6893 125.179C68.6443 125.134 68.5833 125.109 68.5196 125.109ZM65.8796 122.949H64.1996C64.136 122.949 64.0749 122.974 64.0299 123.019C63.9849 123.065 63.9596 123.126 63.9596 123.189V124.149C63.9596 124.281 64.0666 124.389 64.1996 124.389H65.8796C65.9433 124.389 66.0043 124.364 66.0493 124.319C66.0944 124.274 66.1196 124.213 66.1196 124.149V123.189C66.1196 123.126 66.0944 123.065 66.0493 123.019C66.0043 122.974 65.9433 122.949 65.8796 122.949V122.949ZM68.5196 122.949H66.8396C66.776 122.949 66.7149 122.974 66.6699 123.019C66.6249 123.065 66.5996 123.126 66.5996 123.189V124.149C66.5996 124.281 66.7066 124.389 66.8396 124.389H68.5196C68.5833 124.389 68.6443 124.364 68.6893 124.319C68.7344 124.274 68.7596 124.213 68.7596 124.149V123.189C68.7596 123.126 68.7344 123.065 68.6893 123.019C68.6443 122.974 68.5833 122.949 68.5196 122.949ZM65.8796 121.029H64.1996C64.136 121.029 64.0749 121.054 64.0299 121.099C63.9849 121.145 63.9596 121.206 63.9596 121.269V122.229C63.9596 122.361 64.0666 122.469 64.1996 122.469H65.8796C65.9433 122.469 66.0043 122.444 66.0493 122.399C66.0944 122.354 66.1196 122.293 66.1196 122.229V121.269C66.1196 121.206 66.0944 121.145 66.0493 121.099C66.0043 121.054 65.9433 121.029 65.8796 121.029V121.029ZM68.5196 121.029H66.8396C66.776 121.029 66.7149 121.054 66.6699 121.099C66.6249 121.145 66.5996 121.206 66.5996 121.269V122.229C66.5996 122.361 66.7066 122.469 66.8396 122.469H68.5196C68.5833 122.469 68.6443 122.444 68.6893 122.399C68.7344 122.354 68.7596 122.293 68.7596 122.229V121.269C68.7596 121.206 68.7344 121.145 68.6893 121.099C68.6443 121.054 68.5833 121.029 68.5196 121.029V121.029ZM65.8796 118.869H64.1996C64.136 118.869 64.0749 118.894 64.0299 118.939C63.9849 118.985 63.9596 119.046 63.9596 119.109V120.069C63.9596 120.201 64.0666 120.309 64.1996 120.309H65.8796C65.9433 120.309 66.0043 120.284 66.0493 120.239C66.0944 120.194 66.1196 120.133 66.1196 120.069V119.109C66.1196 119.046 66.0944 118.985 66.0493 118.939C66.0043 118.894 65.9433 118.869 65.8796 118.869V118.869ZM68.5196 118.869H66.8396C66.776 118.869 66.7149 118.894 66.6699 118.939C66.6249 118.985 66.5996 119.046 66.5996 119.109V120.069C66.5996 120.201 66.7066 120.309 66.8396 120.309H68.5196C68.5833 120.309 68.6443 120.284 68.6893 120.239C68.7344 120.194 68.7596 120.133 68.7596 120.069V119.109C68.7596 119.046 68.7344 118.985 68.6893 118.939C68.6443 118.894 68.5833 118.869 68.5196 118.869V118.869Z" fill="white"/>
<path d="M120 119.753C120.002 117.079 119.452 114.432 118.386 111.974C117.319 109.515 115.757 107.296 113.794 105.451C111.832 103.606 109.51 102.174 106.969 101.241C104.429 100.308 101.722 99.8936 99.0148 100.024C89.4929 100.48 80.6583 109.003 80.0491 118.385C79.823 121.558 80.3803 124.738 81.6734 127.652C82.9665 130.566 84.9568 133.127 87.4734 135.115C92.2286 138.774 96.1559 143.374 99.003 148.619L99.5783 149.751C99.6193 149.826 99.6803 149.89 99.7549 149.934C99.8294 149.978 99.9148 150.001 100.002 150.001C100.179 150.001 100.341 149.905 100.427 149.751L100.758 149.105C103.62 143.679 107.612 138.912 112.472 135.115C114.817 133.278 116.711 130.943 118.015 128.283C119.318 125.624 119.996 122.709 120 119.755V119.753Z" fill="#F52455"/>
<path d="M102.637 115.169C102.589 115.408 102.638 115.656 102.773 115.859C102.908 116.063 103.118 116.204 103.358 116.252L107.696 117.062C108.193 117.162 108.676 116.837 108.776 116.338L109.582 111.986C109.605 111.867 109.605 111.746 109.582 111.627C109.559 111.509 109.512 111.396 109.445 111.296C109.378 111.196 109.292 111.11 109.192 111.043C109.092 110.975 108.979 110.929 108.861 110.905C108.743 110.881 108.621 110.881 108.503 110.905C108.385 110.928 108.272 110.975 108.172 111.042C108.071 111.108 107.985 111.194 107.918 111.295C107.851 111.395 107.804 111.507 107.781 111.626L107.437 113.647C106.519 112.475 105.347 111.528 104.01 110.875C102.673 110.223 101.205 109.882 99.7166 109.88C97.8039 109.881 95.9333 110.441 94.3344 111.491C92.7356 112.541 91.4782 114.035 90.7166 115.79C90.619 116.013 90.614 116.266 90.7029 116.494C90.7918 116.721 90.9672 116.904 91.1906 117.002C91.3012 117.05 91.4202 117.076 91.5408 117.078C91.6615 117.081 91.7814 117.059 91.8937 117.015C92.006 116.971 92.1086 116.905 92.1954 116.821C92.2822 116.737 92.3516 116.637 92.3996 116.527C93.0188 115.1 94.0411 113.886 95.3409 113.032C96.6408 112.178 98.1616 111.723 99.7166 111.722C100.941 111.724 102.149 112.007 103.246 112.55C104.344 113.093 105.302 113.881 106.047 114.854L103.717 114.446C103.598 114.422 103.476 114.422 103.358 114.446C103.24 114.469 103.127 114.516 103.027 114.583C102.926 114.65 102.84 114.737 102.773 114.837C102.706 114.938 102.66 115.05 102.637 115.169V115.169Z" fill="white"/>
<path d="M100.187 123.838L98.6226 122.225V120.108C98.6226 119.771 98.3576 119.752 98.0306 119.752C97.7036 119.752 97.4396 119.772 97.4396 120.108V121.005L96.2746 119.805C95.9893 119.52 95.6025 119.36 95.1991 119.36C94.7958 119.36 94.409 119.52 94.1236 119.805L90.2136 123.838C90.1025 123.954 90.0404 124.108 90.0404 124.269C90.0404 124.43 90.1025 124.585 90.2136 124.701C90.2677 124.757 90.3326 124.802 90.4044 124.833C90.4763 124.863 90.5535 124.879 90.6316 124.879C90.7097 124.879 90.787 124.863 90.8589 124.833C90.9307 124.802 90.9956 124.757 91.0496 124.701L94.9596 120.668C95.0236 120.605 95.1096 120.57 95.1991 120.57C95.2887 120.57 95.3747 120.605 95.4386 120.668L99.3486 124.701C99.4029 124.757 99.4679 124.802 99.5399 124.833C99.6119 124.863 99.6894 124.879 99.7676 124.879C99.8459 124.879 99.9234 124.863 99.9954 124.833C100.067 124.802 100.132 124.757 100.187 124.701C100.298 124.585 100.36 124.43 100.36 124.269C100.36 124.108 100.298 123.954 100.187 123.838V123.838Z" fill="white"/>
<path d="M95.4046 121.607C95.378 121.579 95.3462 121.557 95.311 121.542C95.2757 121.527 95.2379 121.52 95.1996 121.52C95.1614 121.52 95.1235 121.527 95.0883 121.542C95.053 121.557 95.0212 121.579 94.9946 121.607L91.5646 125.11C91.5099 125.166 91.4794 125.241 91.4796 125.32V127.874C91.4796 128.96 91.4796 128.96 92.5426 128.96H94.2396V126.273H96.1596V128.96H97.8576C98.9206 128.96 98.9206 128.96 98.9206 127.874V125.319C98.9209 125.24 98.8904 125.165 98.8356 125.109L95.4056 121.607H95.4046Z" fill="white"/>
<path d="M109.48 118.4C109.607 118.4 109.729 118.45 109.819 118.54C109.909 118.63 109.96 118.752 109.96 118.88V128.48C109.96 128.607 109.909 128.729 109.819 128.819C109.729 128.909 109.607 128.96 109.48 128.96H103.24C103.112 128.96 102.99 128.909 102.9 128.819C102.81 128.729 102.76 128.607 102.76 128.48V118.88C102.76 118.752 102.81 118.63 102.9 118.54C102.99 118.45 103.112 118.4 103.24 118.4H109.48ZM105.88 126.08H104.2C104.136 126.08 104.075 126.105 104.03 126.15C103.985 126.195 103.96 126.256 103.96 126.32V127.28C103.96 127.412 104.067 127.52 104.2 127.52H105.88C105.943 127.52 106.004 127.494 106.049 127.449C106.094 127.404 106.12 127.343 106.12 127.28V126.32C106.12 126.256 106.094 126.195 106.049 126.15C106.004 126.105 105.943 126.08 105.88 126.08V126.08ZM108.52 126.08H106.84C106.776 126.08 106.715 126.105 106.67 126.15C106.625 126.195 106.6 126.256 106.6 126.32V127.28C106.6 127.412 106.707 127.52 106.84 127.52H108.52C108.583 127.52 108.644 127.494 108.689 127.449C108.734 127.404 108.76 127.343 108.76 127.28V126.32C108.76 126.256 108.734 126.195 108.689 126.15C108.644 126.105 108.583 126.08 108.52 126.08ZM105.88 123.92H104.2C104.136 123.92 104.075 123.945 104.03 123.99C103.985 124.035 103.96 124.096 103.96 124.16V125.12C103.96 125.252 104.067 125.36 104.2 125.36H105.88C105.943 125.36 106.004 125.334 106.049 125.289C106.094 125.244 106.12 125.183 106.12 125.12V124.16C106.12 124.096 106.094 124.035 106.049 123.99C106.004 123.945 105.943 123.92 105.88 123.92V123.92ZM108.52 123.92H106.84C106.776 123.92 106.715 123.945 106.67 123.99C106.625 124.035 106.6 124.096 106.6 124.16V125.12C106.6 125.252 106.707 125.36 106.84 125.36H108.52C108.583 125.36 108.644 125.334 108.689 125.289C108.734 125.244 108.76 125.183 108.76 125.12V124.16C108.76 124.096 108.734 124.035 108.689 123.99C108.644 123.945 108.583 123.92 108.52 123.92ZM105.88 122H104.2C104.136 122 104.075 122.025 104.03 122.07C103.985 122.115 103.96 122.176 103.96 122.24V123.2C103.96 123.332 104.067 123.44 104.2 123.44H105.88C105.943 123.44 106.004 123.414 106.049 123.369C106.094 123.324 106.12 123.263 106.12 123.2V122.24C106.12 122.176 106.094 122.115 106.049 122.07C106.004 122.025 105.943 122 105.88 122V122ZM108.52 122H106.84C106.776 122 106.715 122.025 106.67 122.07C106.625 122.115 106.6 122.176 106.6 122.24V123.2C106.6 123.332 106.707 123.44 106.84 123.44H108.52C108.583 123.44 108.644 123.414 108.689 123.369C108.734 123.324 108.76 123.263 108.76 123.2V122.24C108.76 122.176 108.734 122.115 108.689 122.07C108.644 122.025 108.583 122 108.52 122V122ZM105.88 119.84H104.2C104.136 119.84 104.075 119.865 104.03 119.91C103.985 119.955 103.96 120.016 103.96 120.08V121.04C103.96 121.172 104.067 121.28 104.2 121.28H105.88C105.943 121.28 106.004 121.254 106.049 121.209C106.094 121.164 106.12 121.103 106.12 121.04V120.08C106.12 120.016 106.094 119.955 106.049 119.91C106.004 119.865 105.943 119.84 105.88 119.84V119.84ZM108.52 119.84H106.84C106.776 119.84 106.715 119.865 106.67 119.91C106.625 119.955 106.6 120.016 106.6 120.08V121.04C106.6 121.172 106.707 121.28 106.84 121.28H108.52C108.583 121.28 108.644 121.254 108.689 121.209C108.734 121.164 108.76 121.103 108.76 121.04V120.08C108.76 120.016 108.734 119.955 108.689 119.91C108.644 119.865 108.583 119.84 108.52 119.84V119.84Z" fill="white"/>
<path d="M40 169.753C40.0017 167.079 39.4524 164.432 38.3857 161.973C37.3189 159.515 35.757 157.296 33.7945 155.451C31.832 153.606 29.5099 152.173 26.9694 151.241C24.4287 150.308 21.7225 149.894 19.0148 150.024C9.49287 150.48 0.658323 159.003 0.0490942 168.385C-0.177041 171.558 0.380342 174.738 1.67343 177.652C2.96654 180.566 4.95676 183.127 7.47342 185.115C12.2286 188.774 16.1559 193.374 19.003 198.618L19.5783 199.75C19.6193 199.826 19.6803 199.889 19.7549 199.933C19.8294 199.978 19.9148 200.001 20.0017 200.001C20.1788 200.001 20.341 199.905 20.4265 199.75L20.7585 199.104C23.6201 193.679 27.6121 188.912 32.4724 185.115C34.817 183.278 36.7113 180.942 38.0146 178.283C39.3179 175.624 39.9965 172.709 40 169.755V169.753Z" fill="#8AEA73"/>
<path d="M25.61 168.423L23.173 165.969V162.747C23.173 162.234 22.761 162.205 22.251 162.205C21.742 162.205 21.33 162.234 21.33 162.747V164.112L19.515 162.284C18.618 161.381 17.058 161.383 16.163 162.286L10.07 168.423C9.89698 168.598 9.79993 168.834 9.79993 169.08C9.79993 169.326 9.89698 169.562 10.07 169.736C10.1553 169.823 10.2568 169.891 10.3687 169.938C10.4806 169.985 10.6007 170.009 10.722 170.009C10.8433 170.009 10.9633 169.985 11.0752 169.938C11.1872 169.891 11.2887 169.823 11.374 169.736L17.467 163.598C17.5675 163.503 17.7009 163.45 17.8395 163.45C17.9781 163.45 18.1114 163.503 18.212 163.598L24.306 169.735C24.3912 169.822 24.4927 169.89 24.6046 169.937C24.7166 169.984 24.8367 170.008 24.958 170.008C25.0793 170.008 25.1994 169.984 25.3113 169.937C25.4233 169.89 25.5248 169.822 25.61 169.735C25.783 169.561 25.88 169.325 25.88 169.079C25.88 168.833 25.783 168.597 25.61 168.422V168.423Z" fill="white"/>
<path d="M17.403 165.34C17.4446 165.299 17.4941 165.265 17.5486 165.243C17.603 165.22 17.6615 165.208 17.7205 165.208C17.7795 165.208 17.8379 165.22 17.8924 165.243C17.9469 165.265 17.9963 165.299 18.038 165.34L23.348 170.65C23.411 170.713 26.959 170.65 28.894 170.65C29.957 170.65 30.2 170.968 30.2 171.86V176.488H19.205V172.415H16.235V176.488H13.288C12.058 176.481 11.968 176.39 11.961 175.16L11.96 170.968C11.9601 170.85 12.0072 170.736 12.091 170.651L17.403 165.34ZM27.234 171.93H26.327V173.167H25.072V174.071H26.327V175.289H27.234V174.071H28.489V173.167H27.234V171.929V171.93Z" fill="white"/>
<path d="M80 169.753C80.0017 167.079 79.4524 164.432 78.3857 161.973C77.3189 159.515 75.757 157.296 73.7945 155.451C71.832 153.606 69.5099 152.173 66.9694 151.241C64.4287 150.308 61.7225 149.894 59.0148 150.024C49.4929 150.48 40.6583 159.003 40.0491 168.385C39.823 171.558 40.3803 174.738 41.6734 177.652C42.9665 180.566 44.9568 183.127 47.4734 185.115C52.2286 188.774 56.1559 193.374 59.003 198.618L59.5783 199.75C59.6193 199.826 59.6803 199.889 59.7549 199.933C59.8294 199.978 59.9148 200.001 60.0017 200.001C60.1788 200.001 60.341 199.905 60.4265 199.75L60.7585 199.104C63.6201 193.679 67.6121 188.912 72.4724 185.115C74.817 183.278 76.7113 180.942 78.0146 178.283C79.3179 175.624 79.9965 172.709 80 169.755V169.753Z" fill="#75B7B2"/>
<path d="M65.61 168.51L63.173 166.056V162.834C63.173 162.321 62.761 162.292 62.251 162.292C61.742 162.292 61.33 162.321 61.33 162.834V164.199L59.515 162.371C58.618 161.468 57.058 161.47 56.163 162.373L50.07 168.51C49.897 168.685 49.7999 168.921 49.7999 169.167C49.7999 169.412 49.897 169.648 50.07 169.823C50.1553 169.909 50.2568 169.978 50.3687 170.024C50.4806 170.071 50.6007 170.095 50.722 170.095C50.8433 170.095 50.9633 170.071 51.0752 170.024C51.1872 169.978 51.2887 169.909 51.374 169.823L57.467 163.685C57.5675 163.59 57.7009 163.536 57.8395 163.536C57.9781 163.536 58.1114 163.59 58.212 163.685L64.306 169.822C64.3912 169.908 64.4927 169.977 64.6046 170.024C64.7166 170.071 64.8367 170.095 64.958 170.095C65.0793 170.095 65.1994 170.071 65.3113 170.024C65.4233 169.977 65.5248 169.908 65.61 169.822C65.783 169.647 65.88 169.411 65.88 169.166C65.88 168.92 65.783 168.684 65.61 168.509V168.51Z" fill="white"/>
<path d="M57.403 165.427C57.4446 165.385 57.4941 165.352 57.5486 165.329C57.603 165.307 57.6615 165.295 57.7205 165.295C57.7795 165.295 57.8379 165.307 57.8924 165.329C57.9469 165.352 57.9963 165.385 58.038 165.427L63.348 170.737C63.411 170.8 66.959 170.737 68.894 170.737C69.957 170.737 70.2 171.055 70.2 171.947V176.575H59.205V172.502H56.235V176.575H53.288C52.058 176.568 51.968 176.477 51.961 175.247L51.96 171.055C51.9601 170.936 52.0072 170.822 52.091 170.738L57.403 165.427ZM67.234 172.017H66.327V173.254H65.072V174.158H66.327V175.376H67.234V174.158H68.489V173.254H67.234V172.016V172.017Z" fill="white"/>
<path d="M120 169.753C120.002 167.079 119.452 164.432 118.386 161.973C117.319 159.515 115.757 157.296 113.794 155.451C111.832 153.606 109.51 152.173 106.969 151.241C104.429 150.308 101.722 149.894 99.0148 150.024C89.4929 150.48 80.6583 159.003 80.0491 168.385C79.823 171.558 80.3803 174.738 81.6734 177.652C82.9665 180.566 84.9568 183.127 87.4734 185.115C92.2286 188.774 96.1559 193.374 99.003 198.618L99.5783 199.75C99.6193 199.826 99.6803 199.889 99.7549 199.933C99.8294 199.978 99.9148 200.001 100.002 200.001C100.179 200.001 100.341 199.905 100.427 199.75L100.758 199.104C103.62 193.679 107.612 188.912 112.472 185.115C114.817 183.278 116.711 180.942 118.015 178.283C119.318 175.624 119.996 172.709 120 169.755V169.753Z" fill="#F52455"/>
<path d="M105.61 168.337L103.173 165.883V162.661C103.173 162.148 102.761 162.119 102.251 162.119C101.742 162.119 101.33 162.148 101.33 162.661V164.026L99.515 162.198C98.618 161.295 97.058 161.297 96.163 162.2L90.07 168.337C89.897 168.512 89.7999 168.748 89.7999 168.993C89.7999 169.239 89.897 169.475 90.07 169.65C90.1553 169.736 90.2568 169.805 90.3687 169.851C90.4806 169.898 90.6007 169.922 90.722 169.922C90.8433 169.922 90.9633 169.898 91.0752 169.851C91.1872 169.805 91.2887 169.736 91.374 169.65L97.467 163.512C97.5675 163.417 97.7009 163.363 97.8395 163.363C97.9781 163.363 98.1114 163.417 98.212 163.512L104.306 169.649C104.391 169.735 104.493 169.804 104.605 169.851C104.717 169.897 104.837 169.922 104.958 169.922C105.079 169.922 105.199 169.897 105.311 169.851C105.423 169.804 105.525 169.735 105.61 169.649C105.783 169.474 105.88 169.238 105.88 168.992C105.88 168.747 105.783 168.511 105.61 168.336V168.337Z" fill="white"/>
<path d="M97.403 165.254C97.4446 165.212 97.4941 165.179 97.5486 165.156C97.603 165.134 97.6615 165.122 97.7205 165.122C97.7795 165.122 97.8379 165.134 97.8924 165.156C97.9469 165.179 97.9963 165.212 98.038 165.254L103.348 170.564C103.411 170.627 106.959 170.564 108.894 170.564C109.957 170.564 110.2 170.882 110.2 171.774V176.402H99.205V172.329H96.235V176.402H93.288C92.058 176.395 91.968 176.304 91.961 175.074L91.96 170.882C91.9601 170.763 92.0072 170.649 92.091 170.565L97.403 165.254ZM107.234 171.844H106.327V173.081H105.072V173.985H106.327V175.203H107.234V173.985H108.489V173.081H107.234V171.843V171.844Z" fill="white"/>
</svg>
