<svg width="120" height="200" viewBox="0 0 120 200" fill="none" xmlns="http://www.w3.org/2000/svg">
  <path
     d="M 40,19.7524 C 40.0017,17.0781 39.4524,14.4313 38.3857,11.9727 37.3189,9.51405 35.757,7.29491 33.7945,5.44992 31.832,3.60494 29.5099,2.17257 26.9694,1.23975 24.4287,0.30693802 21.7225,-0.10686598 19.0148,0.02345172 9.49287,0.47894902 0.65832297,9.00242 0.04909417,18.3844 c -0.2261352,3.1731 0.3312478,6.3529 1.62433583,9.2667 1.29311,2.9138 3.28333,5.4747 5.79999,7.4631 4.75518,3.6592 8.68248,8.2586 11.52958,13.5034 l 0.5753,1.1321 c 0.041,0.0757 0.102,0.139 0.1766,0.183 0.0745,0.0442 0.1599,0.0674 0.2468,0.0673 0.1771,0 0.3393,-0.0959 0.4248,-0.2503 l 0.332,-0.646 c 2.8616,-5.4254 6.8536,-10.1928 11.7139,-13.9895 2.3446,-1.8374 4.2389,-4.1725 5.5422,-6.832 1.3033,-2.6594 1.9819,-5.5744 1.9854,-8.5283 z" fill="#8aea73" />
  <g
     fill="#ffffff"
     transform="translate(8.000002,8.0774848)">
    <path
       d="m 10.56,19.44 v 3.36 a 0.24,0.24 0 0 1 -0.24,0.24 H 4.56 A 0.24,0.24 0 0 1 4.32,22.8 V 19.44 Z M 4.32,10.8 a 0.24,0.24 0 0 1 0.24,-0.24 h 5.76 a 0.24,0.24 0 0 1 0.24,0.24 v 8.16 H 4.32 Z" />
    <path
       d="m 19.2,1.2 a 0.48,0.48 0 0 1 0.48,0.48 V 22.56 A 0.48,0.48 0 0 1 19.2,23.04 H 17.04 V 17.76 A 0.48,0.48 0 0 0 16.646,17.288 L 16.56,17.28 h -2.88 a 0.48,0.48 0 0 0 -0.48,0.48 v 5.28 H 10.32 V 1.68 A 0.48,0.48 0 0 1 10.8,1.2 Z M 18.24,8.16 H 12 A 0.24,0.24 0 0 0 11.769,8.336 L 11.76,8.4 v 0.72 c 0,0.11 0.075,0.203 0.176,0.231 L 12,9.36 h 6.24 A 0.24,0.24 0 0 0 18.471,9.184 L 18.48,9.12 V 8.4 A 0.24,0.24 0 0 0 18.24,8.16 Z m 0,-1.92 H 12 A 0.24,0.24 0 0 0 11.769,6.416 L 11.76,6.48 V 7.2 c 0,0.11 0.075,0.203 0.176,0.231 L 12,7.44 h 6.24 A 0.24,0.24 0 0 0 18.471,7.264 L 18.48,7.2 V 6.48 A 0.24,0.24 0 0 0 18.24,6.24 Z m 0,-1.92 H 12 A 0.24,0.24 0 0 0 11.769,4.496 L 11.76,4.56 v 0.72 c 0,0.11 0.075,0.203 0.176,0.231 L 12,5.52 h 6.24 A 0.24,0.24 0 0 0 18.471,5.344 L 18.48,5.28 V 4.56 A 0.24,0.24 0 0 0 18.24,4.32 Z m 0,-1.92 H 12 A 0.24,0.24 0 0 0 11.769,2.576 L 11.76,2.64 v 0.72 c 0,0.11 0.075,0.203 0.176,0.231 L 12,3.6 h 6.24 A 0.24,0.24 0 0 0 18.471,3.424 L 18.48,3.36 V 2.64 A 0.24,0.24 0 0 0 18.24,2.4 Z" />
  </g>
  <path
     d="M 80,19.7524 C 80.0017,17.0781 79.4524,14.4313 78.3857,11.9727 77.3189,9.51405 75.757,7.29491 73.7945,5.44992 71.832,3.60494 69.5099,2.17257 66.9694,1.23975 64.4287,0.30693802 61.7225,-0.10686598 59.0148,0.02345172 49.4929,0.47894902 40.6583,9.00242 40.0491,18.3844 c -0.2261,3.1731 0.3312,6.3529 1.6243,9.2667 1.2931,2.9138 3.2834,5.4747 5.8,7.4631 4.7552,3.6592 8.6825,8.2586 11.5296,13.5034 l 0.5753,1.1321 c 0.041,0.0757 0.102,0.139 0.1766,0.183 0.0745,0.0442 0.1599,0.0674 0.2468,0.0673 0.1771,0 0.3393,-0.0959 0.4248,-0.2503 l 0.332,-0.646 c 2.8616,-5.4254 6.8536,-10.1928 11.7139,-13.9895 2.3446,-1.8374 4.2389,-4.1725 5.5422,-6.832 1.3033,-2.6594 1.9819,-5.5744 1.9854,-8.5283 z" fill="#75b7b2" />
  <path
     d="m 120,19.7524 c 0.002,-2.6743 -0.548,-5.3211 -1.614,-7.7797 C 117.319,9.51405 115.757,7.29491 113.794,5.44992 111.832,3.60494 109.51,2.17257 106.969,1.23975 104.429,0.30693802 101.722,-0.10686598 99.0148,0.02345172 89.4929,0.47894902 80.6583,9.00242 80.0491,18.3844 c -0.2261,3.1731 0.3312,6.3529 1.6243,9.2667 1.2931,2.9138 3.2834,5.4747 5.8,7.4631 4.7552,3.6592 8.6825,8.2586 11.5296,13.5034 l 0.5753,1.1321 c 0.041,0.0757 0.102,0.139 0.1766,0.183 0.0745,0.0442 0.1599,0.0674 0.2471,0.0673 0.177,0 0.339,-0.0959 0.425,-0.2503 l 0.331,-0.646 c 2.862,-5.4254 6.854,-10.1928 11.714,-13.9895 2.345,-1.8374 4.239,-4.1725 5.543,-6.832 1.303,-2.6594 1.981,-5.5744 1.985,-8.5283 z" fill="#f52455" />
  <path
     d="M 40,69.7524 C 40.0017,67.0781 39.4524,64.4313 38.3857,61.9727 37.3189,59.514 35.757,57.2949 33.7945,55.4499 31.832,53.6049 29.5099,52.1726 26.9694,51.2398 24.4287,50.3069 21.7225,49.8931 19.0148,50.0235 9.49287,50.4789 0.65832297,59.0024 0.04909417,68.3844 c -0.2261352,3.1731 0.3312478,6.3529 1.62433583,9.2667 1.29311,2.9138 3.28333,5.4747 5.79999,7.4631 4.75518,3.6592 8.68248,8.2586 11.52958,13.5034 l 0.5753,1.1321 c 0.041,0.0757 0.102,0.139 0.1766,0.183 0.0745,0.0442 0.1599,0.0673 0.2468,0.0673 0.1771,0 0.3393,-0.0959 0.4248,-0.2503 l 0.332,-0.646 c 2.8616,-5.4254 6.8536,-10.1928 11.7139,-13.9895 2.3446,-1.8374 4.2389,-4.1725 5.5422,-6.832 1.3033,-2.6594 1.9819,-5.5744 1.9854,-8.5283 z"
     fill="#8aea73" />
  <g
     fill="#ffffff"
     transform="translate(7.8800292,57.047744)">
    <path
       d="M 17.73,11.375 15.293,8.921 V 5.699 c 0,-0.513 -0.412,-0.542 -0.922,-0.542 -0.509,0 -0.921,0.029 -0.921,0.542 V 7.064 L 11.635,5.236 C 10.738,4.333 9.178,4.335 8.283,5.238 L 2.19,11.375 a 0.933,0.933 0 0 0 0,1.313 0.917,0.917 0 0 0 1.304,0 L 9.587,6.55 a 0.541,0.541 0 0 1 0.745,0 l 6.094,6.137 a 0.916,0.916 0 0 0 1.304,0 0.933,0.933 0 0 0 0,-1.313 z" />
    <path
       d="m 9.523,8.292 a 0.448,0.448 0 0 1 0.635,0 l 5.31,5.31 c 0.063,0.063 3.611,0 5.546,0 1.063,0 1.306,0.318 1.306,1.21 V 19.44 H 11.325 V 15.367 H 8.355 V 19.44 H 5.408 C 4.178,19.433 4.088,19.342 4.081,18.112 L 4.08,13.92 a 0.45,0.45 0 0 1 0.131,-0.317 z m 9.831,6.59 h -0.907 v 1.237 h -1.255 v 0.904 h 1.255 v 1.218 h 0.907 v -1.218 h 1.255 v -0.904 h -1.255 v -1.238 z" />
  </g>
  <path
     d="m 80,69.7524 c 0.0017,-2.6743 -0.5476,-5.3211 -1.6143,-7.7797 -1.0668,-2.4587 -2.6287,-4.6778 -4.5912,-6.5228 -1.9625,-1.845 -4.2846,-3.2773 -6.8251,-4.2101 -2.5407,-0.9329 -5.2469,-1.3467 -7.9546,-1.2163 -9.5219,0.4554 -18.3565,8.9789 -18.9657,18.3609 -0.2261,3.1731 0.3312,6.3529 1.6243,9.2667 1.2931,2.9138 3.2834,5.4747 5.8,7.4631 4.7552,3.6592 8.6825,8.2586 11.5296,13.5034 l 0.5753,1.1321 c 0.041,0.0757 0.102,0.139 0.1766,0.183 0.0745,0.0442 0.1599,0.0673 0.2468,0.0673 0.1771,0 0.3393,-0.0959 0.4248,-0.2503 l 0.332,-0.646 c 2.8616,-5.4254 6.8536,-10.1928 11.7139,-13.9895 2.3446,-1.8374 4.2389,-4.1725 5.5422,-6.832 1.3033,-2.6594 1.9819,-5.5744 1.9854,-8.5283 z" fill="#75b7b2" />
  <path
     d="m 120,69.7524 c 0.002,-2.6743 -0.548,-5.3211 -1.614,-7.7797 -1.067,-2.4587 -2.629,-4.6778 -4.592,-6.5228 -1.962,-1.845 -4.284,-3.2773 -6.825,-4.2101 -2.54,-0.9329 -5.247,-1.3467 -7.9542,-1.2163 -9.5219,0.4554 -18.3565,8.9789 -18.9657,18.3609 -0.2261,3.1731 0.3312,6.3529 1.6243,9.2667 1.2931,2.9138 3.2834,5.4747 5.8,7.4631 4.7552,3.6592 8.6825,8.2586 11.5296,13.5034 l 0.5753,1.1321 c 0.041,0.0757 0.102,0.139 0.1766,0.183 0.0745,0.0442 0.1599,0.0673 0.2471,0.0673 0.177,0 0.339,-0.0959 0.425,-0.2503 l 0.331,-0.646 c 2.862,-5.4254 6.854,-10.1928 11.714,-13.9895 2.345,-1.8374 4.239,-4.1725 5.543,-6.832 1.303,-2.6594 1.981,-5.5744 1.985,-8.5283 z" fill="#f52455" />
  <path
     d="m 40,119.752 c 0.0017,-2.674 -0.5476,-5.321 -1.6143,-7.779 -1.0668,-2.459 -2.6287,-4.678 -4.5912,-6.523 -1.9625,-1.845 -4.2846,-3.277 -6.8251,-4.21 -2.5407,-0.933 -5.2469,-1.3469 -7.9546,-1.217 -9.52193,0.456 -18.35647703,8.979 -18.96570583,18.361 -0.2261352,3.173 0.3312478,6.353 1.62433583,9.267 1.29311,2.914 3.28333,5.475 5.79999,7.463 4.75518,3.659 8.68248,8.259 11.52958,13.504 l 0.5753,1.132 c 0.041,0.075 0.102,0.139 0.1766,0.183 0.0745,0.044 0.1599,0.067 0.2468,0.067 0.1771,0 0.3393,-0.096 0.4248,-0.25 l 0.332,-0.646 c 2.8616,-5.426 6.8536,-10.193 11.7139,-13.99 2.3446,-1.837 4.2389,-4.172 5.5422,-6.832 1.3033,-2.659 1.9819,-5.574 1.9854,-8.528 z" fill="#8aea73" />
  <path
     d="m 80,119.752 c 0.0017,-2.674 -0.5476,-5.321 -1.6143,-7.779 -1.0668,-2.459 -2.6287,-4.678 -4.5912,-6.523 -1.9625,-1.845 -4.2846,-3.277 -6.8251,-4.21 -2.5407,-0.933 -5.2469,-1.3469 -7.9546,-1.217 -9.5219,0.456 -18.3565,8.979 -18.9657,18.361 -0.2261,3.173 0.3312,6.353 1.6243,9.267 1.2931,2.914 3.2834,5.475 5.8,7.463 4.7552,3.659 8.6825,8.259 11.5296,13.504 l 0.5753,1.132 c 0.041,0.075 0.102,0.139 0.1766,0.183 0.0745,0.044 0.1599,0.067 0.2468,0.067 0.1771,0 0.3393,-0.096 0.4248,-0.25 l 0.332,-0.646 c 2.8616,-5.426 6.8536,-10.193 11.7139,-13.99 2.3446,-1.837 4.2389,-4.172 5.5422,-6.832 1.3033,-2.659 1.9819,-5.574 1.9854,-8.528 z" fill="#75b7b2" />
  <path
     d="m 120,119.752 c 0.002,-2.674 -0.548,-5.321 -1.614,-7.779 -1.067,-2.459 -2.629,-4.678 -4.592,-6.523 -1.962,-1.845 -4.284,-3.277 -6.825,-4.21 -2.54,-0.933 -5.247,-1.3469 -7.9542,-1.217 -9.5219,0.456 -18.3565,8.979 -18.9657,18.361 -0.2261,3.173 0.3312,6.353 1.6243,9.267 1.2931,2.914 3.2834,5.475 5.8,7.463 4.7552,3.659 8.6825,8.259 11.5296,13.504 l 0.5753,1.132 c 0.041,0.075 0.102,0.139 0.1766,0.183 0.0745,0.044 0.1599,0.067 0.2471,0.067 0.177,0 0.339,-0.096 0.425,-0.25 l 0.331,-0.646 c 2.862,-5.426 6.854,-10.193 11.714,-13.99 2.345,-1.837 4.239,-4.172 5.543,-6.832 1.303,-2.659 1.981,-5.574 1.985,-8.528 z" fill="#f52455" />
  <path
     d="m 40,169.752 c 0.0017,-2.674 -0.5476,-5.321 -1.6143,-7.779 -1.0668,-2.459 -2.6287,-4.678 -4.5912,-6.523 -1.9625,-1.845 -4.2846,-3.277 -6.8251,-4.21 -2.5407,-0.933 -5.2469,-1.347 -7.9546,-1.217 -9.52193,0.456 -18.35647703,8.979 -18.96570583,18.361 -0.2261352,3.173 0.3312478,6.353 1.62433583,9.267 1.29311,2.914 3.28333,5.475 5.79999,7.463 4.75518,3.659 8.68248,8.259 11.52958,13.504 l 0.5753,1.132 c 0.041,0.075 0.102,0.139 0.1766,0.183 0.0745,0.044 0.1599,0.067 0.2468,0.067 0.1771,0 0.3393,-0.096 0.4248,-0.25 l 0.332,-0.646 c 2.8616,-5.426 6.8536,-10.193 11.7139,-13.99 2.3446,-1.837 4.2389,-4.172 5.5422,-6.832 1.3033,-2.659 1.9819,-5.574 1.9854,-8.528 z" fill="#8aea73" />
  <path
     d="m 80,169.752 c 0.0017,-2.674 -0.5476,-5.321 -1.6143,-7.779 -1.0668,-2.459 -2.6287,-4.678 -4.5912,-6.523 -1.9625,-1.845 -4.2846,-3.277 -6.8251,-4.21 -2.5407,-0.933 -5.2469,-1.347 -7.9546,-1.217 -9.5219,0.456 -18.3565,8.979 -18.9657,18.361 -0.2261,3.173 0.3312,6.353 1.6243,9.267 1.2931,2.914 3.2834,5.475 5.8,7.463 4.7552,3.659 8.6825,8.259 11.5296,13.504 l 0.5753,1.132 c 0.041,0.075 0.102,0.139 0.1766,0.183 0.0745,0.044 0.1599,0.067 0.2468,0.067 0.1771,0 0.3393,-0.096 0.4248,-0.25 l 0.332,-0.646 c 2.8616,-5.426 6.8536,-10.193 11.7139,-13.99 2.3446,-1.837 4.2389,-4.172 5.5422,-6.832 1.3033,-2.659 1.9819,-5.574 1.9854,-8.528 z" fill="#75b7b2" />
  <path
     d="m 120,169.752 c 0.002,-2.674 -0.548,-5.321 -1.614,-7.779 -1.067,-2.459 -2.629,-4.678 -4.592,-6.523 -1.962,-1.845 -4.284,-3.277 -6.825,-4.21 -2.54,-0.933 -5.247,-1.347 -7.9542,-1.217 -9.5219,0.456 -18.3565,8.979 -18.9657,18.361 -0.2261,3.173 0.3312,6.353 1.6243,9.267 1.2931,2.914 3.2834,5.475 5.8,7.463 4.7552,3.659 8.6825,8.259 11.5296,13.504 l 0.5753,1.132 c 0.041,0.075 0.102,0.139 0.1766,0.183 0.0745,0.044 0.1599,0.067 0.2471,0.067 0.177,0 0.339,-0.096 0.425,-0.25 l 0.331,-0.646 c 2.862,-5.426 6.854,-10.193 11.714,-13.99 2.345,-1.837 4.239,-4.172 5.543,-6.832 1.303,-2.659 1.981,-5.574 1.985,-8.528 z" fill="#f52455" />
  <g
     fill="#ffffff"
     transform="translate(48.000009,8.0358828)">
    <path
       d="m 10.56,19.44 v 3.36 a 0.24,0.24 0 0 1 -0.24,0.24 H 4.56 A 0.24,0.24 0 0 1 4.32,22.8 V 19.44 Z M 4.32,10.8 a 0.24,0.24 0 0 1 0.24,-0.24 h 5.76 a 0.24,0.24 0 0 1 0.24,0.24 v 8.16 H 4.32 Z" />
    <path
       d="m 19.2,1.2 a 0.48,0.48 0 0 1 0.48,0.48 V 22.56 A 0.48,0.48 0 0 1 19.2,23.04 H 17.04 V 17.76 A 0.48,0.48 0 0 0 16.646,17.288 L 16.56,17.28 h -2.88 a 0.48,0.48 0 0 0 -0.48,0.48 v 5.28 H 10.32 V 1.68 A 0.48,0.48 0 0 1 10.8,1.2 Z M 18.24,8.16 H 12 A 0.24,0.24 0 0 0 11.769,8.336 L 11.76,8.4 v 0.72 c 0,0.11 0.075,0.203 0.176,0.231 L 12,9.36 h 6.24 A 0.24,0.24 0 0 0 18.471,9.184 L 18.48,9.12 V 8.4 A 0.24,0.24 0 0 0 18.24,8.16 Z m 0,-1.92 H 12 A 0.24,0.24 0 0 0 11.769,6.416 L 11.76,6.48 V 7.2 c 0,0.11 0.075,0.203 0.176,0.231 L 12,7.44 h 6.24 A 0.24,0.24 0 0 0 18.471,7.264 L 18.48,7.2 V 6.48 A 0.24,0.24 0 0 0 18.24,6.24 Z m 0,-1.92 H 12 A 0.24,0.24 0 0 0 11.769,4.496 L 11.76,4.56 v 0.72 c 0,0.11 0.075,0.203 0.176,0.231 L 12,5.52 h 6.24 A 0.24,0.24 0 0 0 18.471,5.344 L 18.48,5.28 V 4.56 A 0.24,0.24 0 0 0 18.24,4.32 Z m 0,-1.92 H 12 A 0.24,0.24 0 0 0 11.769,2.576 L 11.76,2.64 v 0.72 c 0,0.11 0.075,0.203 0.176,0.231 L 12,3.6 h 6.24 A 0.24,0.24 0 0 0 18.471,3.424 L 18.48,3.36 V 2.64 A 0.24,0.24 0 0 0 18.24,2.4 Z" />
  </g>
  <g
     fill="#ffffff"
     transform="translate(88.00001,8.1190868)">
    <path
       d="m 10.56,19.44 v 3.36 a 0.24,0.24 0 0 1 -0.24,0.24 H 4.56 A 0.24,0.24 0 0 1 4.32,22.8 V 19.44 Z M 4.32,10.8 a 0.24,0.24 0 0 1 0.24,-0.24 h 5.76 a 0.24,0.24 0 0 1 0.24,0.24 v 8.16 H 4.32 Z" />
    <path
       d="m 19.2,1.2 a 0.48,0.48 0 0 1 0.48,0.48 V 22.56 A 0.48,0.48 0 0 1 19.2,23.04 H 17.04 V 17.76 A 0.48,0.48 0 0 0 16.646,17.288 L 16.56,17.28 h -2.88 a 0.48,0.48 0 0 0 -0.48,0.48 v 5.28 H 10.32 V 1.68 A 0.48,0.48 0 0 1 10.8,1.2 Z M 18.24,8.16 H 12 A 0.24,0.24 0 0 0 11.769,8.336 L 11.76,8.4 v 0.72 c 0,0.11 0.075,0.203 0.176,0.231 L 12,9.36 h 6.24 A 0.24,0.24 0 0 0 18.471,9.184 L 18.48,9.12 V 8.4 A 0.24,0.24 0 0 0 18.24,8.16 Z m 0,-1.92 H 12 A 0.24,0.24 0 0 0 11.769,6.416 L 11.76,6.48 V 7.2 c 0,0.11 0.075,0.203 0.176,0.231 L 12,7.44 h 6.24 A 0.24,0.24 0 0 0 18.471,7.264 L 18.48,7.2 V 6.48 A 0.24,0.24 0 0 0 18.24,6.24 Z m 0,-1.92 H 12 A 0.24,0.24 0 0 0 11.769,4.496 L 11.76,4.56 v 0.72 c 0,0.11 0.075,0.203 0.176,0.231 L 12,5.52 h 6.24 A 0.24,0.24 0 0 0 18.471,5.344 L 18.48,5.28 V 4.56 A 0.24,0.24 0 0 0 18.24,4.32 Z m 0,-1.92 H 12 A 0.24,0.24 0 0 0 11.769,2.576 L 11.76,2.64 v 0.72 c 0,0.11 0.075,0.203 0.176,0.231 L 12,3.6 h 6.24 A 0.24,0.24 0 0 0 18.471,3.424 L 18.48,3.36 V 2.64 A 0.24,0.24 0 0 0 18.24,2.4 Z" />
  </g>
  <g
     fill="#ffffff"
     transform="translate(47.880036,57.13432)">
    <path
       d="M 17.73,11.375 15.293,8.921 V 5.699 c 0,-0.513 -0.412,-0.542 -0.922,-0.542 -0.509,0 -0.921,0.029 -0.921,0.542 V 7.064 L 11.635,5.236 C 10.738,4.333 9.178,4.335 8.283,5.238 L 2.19,11.375 a 0.933,0.933 0 0 0 0,1.313 0.917,0.917 0 0 0 1.304,0 L 9.587,6.55 a 0.541,0.541 0 0 1 0.745,0 l 6.094,6.137 a 0.916,0.916 0 0 0 1.304,0 0.933,0.933 0 0 0 0,-1.313 z" />
    <path
       d="m 9.523,8.292 a 0.448,0.448 0 0 1 0.635,0 l 5.31,5.31 c 0.063,0.063 3.611,0 5.546,0 1.063,0 1.306,0.318 1.306,1.21 V 19.44 H 11.325 V 15.367 H 8.355 V 19.44 H 5.408 C 4.178,19.433 4.088,19.342 4.081,18.112 L 4.08,13.92 a 0.45,0.45 0 0 1 0.131,-0.317 z m 9.831,6.59 h -0.907 v 1.237 h -1.255 v 0.904 h 1.255 v 1.218 h 0.907 v -1.218 h 1.255 v -0.904 h -1.255 v -1.238 z" />
  </g>
  <g
     fill="#ffffff"
     transform="translate(87.880037,56.961168)">
    <path
       d="M 17.73,11.375 15.293,8.921 V 5.699 c 0,-0.513 -0.412,-0.542 -0.922,-0.542 -0.509,0 -0.921,0.029 -0.921,0.542 V 7.064 L 11.635,5.236 C 10.738,4.333 9.178,4.335 8.283,5.238 L 2.19,11.375 a 0.933,0.933 0 0 0 0,1.313 0.917,0.917 0 0 0 1.304,0 L 9.587,6.55 a 0.541,0.541 0 0 1 0.745,0 l 6.094,6.137 a 0.916,0.916 0 0 0 1.304,0 0.933,0.933 0 0 0 0,-1.313 z" />
    <path
       d="m 9.523,8.292 a 0.448,0.448 0 0 1 0.635,0 l 5.31,5.31 c 0.063,0.063 3.611,0 5.546,0 1.063,0 1.306,0.318 1.306,1.21 V 19.44 H 11.325 V 15.367 H 8.355 V 19.44 H 5.408 C 4.178,19.433 4.088,19.342 4.081,18.112 L 4.08,13.92 a 0.45,0.45 0 0 1 0.131,-0.317 z m 9.831,6.59 h -0.907 v 1.237 h -1.255 v 0.904 h 1.255 v 1.218 h 0.907 v -1.218 h 1.255 v -0.904 h -1.255 v -1.238 z" />
  </g>
  <g
     fill="#ffffff"
     transform="translate(8.000502,109.06527)">
    <path
       d="M 16.407,11.574 15.025,10.172 V 8.33 c 0,-0.293 -0.234,-0.31 -0.523,-0.31 -0.289,0 -0.523,0.017 -0.523,0.31 V 9.11 L 12.95,8.067 a 1.36,1.36 0 0 0 -1.901,0 l -3.456,3.507 a 0.536,0.536 0 0 0 0,0.75 0.517,0.517 0 0 0 0.74,0 l 3.455,-3.506 a 0.305,0.305 0 0 1 0.423,0 l 3.456,3.506 a 0.518,0.518 0 0 0 0.74,0 0.536,0.536 0 0 0 0,-0.75 z" />
    <path
       d="m 12.059,9.676 a 0.248,0.248 0 0 0 -0.357,0 l -2.988,3.05 A 0.261,0.261 0 0 0 8.64,12.909 v 2.225 c 0,0.946 0,0.946 0.926,0.946 h 1.479 v -2.34 h 1.67 v 2.34 h 1.48 c 0.925,0 0.925,0 0.925,-0.946 V 12.91 A 0.26,0.26 0 0 0 15.046,12.728 L 12.06,9.676 Z" />
    <path
       d="M 9.212,17.623 A 1.022,1.022 0 0 0 8.413,16.419 l -4.804,-0.9 A 1.018,1.018 0 0 0 2.413,16.324 L 1.52,21.16 a 1.0173526,1.0173526 0 1 0 1.995,0.4 l 0.38,-2.246 a 10.873,10.873 0 0 0 8.552,4.186 c 4.324,0 8.236,-2.577 9.968,-6.566 a 1.026,1.026 0 0 0 -0.525,-1.348 1.014,1.014 0 0 0 -1.339,0.528 8.842,8.842 0 0 1 -8.104,5.339 8.84,8.84 0 0 1 -7.011,-3.48 l 2.58,0.454 c 0.551,0.11 1.086,-0.25 1.196,-0.804 z M 14.788,6.377 a 1.022,1.022 0 0 0 0.799,1.204 l 4.804,0.9 c 0.551,0.11 1.086,-0.25 1.196,-0.805 L 22.48,2.84 A 1.024,1.024 0 0 0 21.681,1.637 c -0.55,-0.11 -1.086,0.25 -1.195,0.804 L 20.104,4.686 A 10.873,10.873 0 0 0 11.554,0.5 10.876,10.876 0 0 0 1.584,7.066 1.026,1.026 0 0 0 2.109,8.414 1.014,1.014 0 0 0 3.448,7.886 a 8.842,8.842 0 0 1 8.104,-5.339 8.84,8.84 0 0 1 7.011,3.48 l -2.58,-0.454 a 1.018,1.018 0 0 0 -1.196,0.804 z" />
  </g>
  <g
     fill="#ffffff"
     transform="translate(48.000509,109.38371)">
    <path
       d="M 16.407,11.574 15.025,10.172 V 8.33 c 0,-0.293 -0.234,-0.31 -0.523,-0.31 -0.289,0 -0.523,0.017 -0.523,0.31 V 9.11 L 12.95,8.067 a 1.36,1.36 0 0 0 -1.901,0 l -3.456,3.507 a 0.536,0.536 0 0 0 0,0.75 0.517,0.517 0 0 0 0.74,0 l 3.455,-3.506 a 0.305,0.305 0 0 1 0.423,0 l 3.456,3.506 a 0.518,0.518 0 0 0 0.74,0 0.536,0.536 0 0 0 0,-0.75 z" />
    <path
       d="m 12.059,9.676 a 0.248,0.248 0 0 0 -0.357,0 l -2.988,3.05 A 0.261,0.261 0 0 0 8.64,12.909 v 2.225 c 0,0.946 0,0.946 0.926,0.946 h 1.479 v -2.34 h 1.67 v 2.34 h 1.48 c 0.925,0 0.925,0 0.925,-0.946 V 12.91 A 0.26,0.26 0 0 0 15.046,12.728 L 12.06,9.676 Z" />
    <path
       d="M 9.212,17.623 A 1.022,1.022 0 0 0 8.413,16.419 l -4.804,-0.9 A 1.018,1.018 0 0 0 2.413,16.324 L 1.52,21.16 a 1.0173526,1.0173526 0 1 0 1.995,0.4 l 0.38,-2.246 a 10.873,10.873 0 0 0 8.552,4.186 c 4.324,0 8.236,-2.577 9.968,-6.566 a 1.026,1.026 0 0 0 -0.525,-1.348 1.014,1.014 0 0 0 -1.339,0.528 8.842,8.842 0 0 1 -8.104,5.339 8.84,8.84 0 0 1 -7.011,-3.48 l 2.58,0.454 c 0.551,0.11 1.086,-0.25 1.196,-0.804 z M 14.788,6.377 a 1.022,1.022 0 0 0 0.799,1.204 l 4.804,0.9 c 0.551,0.11 1.086,-0.25 1.196,-0.805 L 22.48,2.84 A 1.024,1.024 0 0 0 21.681,1.637 c -0.55,-0.11 -1.086,0.25 -1.195,0.804 L 20.104,4.686 A 10.873,10.873 0 0 0 11.554,0.5 10.876,10.876 0 0 0 1.584,7.066 1.026,1.026 0 0 0 2.109,8.414 1.014,1.014 0 0 0 3.448,7.886 a 8.842,8.842 0 0 1 8.104,-5.339 8.84,8.84 0 0 1 7.011,3.48 l -2.58,-0.454 a 1.018,1.018 0 0 0 -1.196,0.804 z" />
  </g>
  <g
     fill="#ffffff"
     transform="translate(88.00051,108.74682)">
    <path
       d="M 16.407,11.574 15.025,10.172 V 8.33 c 0,-0.293 -0.234,-0.31 -0.523,-0.31 -0.289,0 -0.523,0.017 -0.523,0.31 V 9.11 L 12.95,8.067 a 1.36,1.36 0 0 0 -1.901,0 l -3.456,3.507 a 0.536,0.536 0 0 0 0,0.75 0.517,0.517 0 0 0 0.74,0 l 3.455,-3.506 a 0.305,0.305 0 0 1 0.423,0 l 3.456,3.506 a 0.518,0.518 0 0 0 0.74,0 0.536,0.536 0 0 0 0,-0.75 z" />
    <path
       d="m 12.059,9.676 a 0.248,0.248 0 0 0 -0.357,0 l -2.988,3.05 A 0.261,0.261 0 0 0 8.64,12.909 v 2.225 c 0,0.946 0,0.946 0.926,0.946 h 1.479 v -2.34 h 1.67 v 2.34 h 1.48 c 0.925,0 0.925,0 0.925,-0.946 V 12.91 A 0.26,0.26 0 0 0 15.046,12.728 L 12.06,9.676 Z" />
    <path
       d="M 9.212,17.623 A 1.022,1.022 0 0 0 8.413,16.419 l -4.804,-0.9 A 1.018,1.018 0 0 0 2.413,16.324 L 1.52,21.16 a 1.0173526,1.0173526 0 1 0 1.995,0.4 l 0.38,-2.246 a 10.873,10.873 0 0 0 8.552,4.186 c 4.324,0 8.236,-2.577 9.968,-6.566 a 1.026,1.026 0 0 0 -0.525,-1.348 1.014,1.014 0 0 0 -1.339,0.528 8.842,8.842 0 0 1 -8.104,5.339 8.84,8.84 0 0 1 -7.011,-3.48 l 2.58,0.454 c 0.551,0.11 1.086,-0.25 1.196,-0.804 z M 14.788,6.377 a 1.022,1.022 0 0 0 0.799,1.204 l 4.804,0.9 c 0.551,0.11 1.086,-0.25 1.196,-0.805 L 22.48,2.84 A 1.024,1.024 0 0 0 21.681,1.637 c -0.55,-0.11 -1.086,0.25 -1.195,0.804 L 20.104,4.686 A 10.873,10.873 0 0 0 11.554,0.5 10.876,10.876 0 0 0 1.584,7.066 1.026,1.026 0 0 0 2.109,8.414 1.014,1.014 0 0 0 3.448,7.886 a 8.842,8.842 0 0 1 8.104,-5.339 8.84,8.84 0 0 1 7.011,3.48 l -2.58,-0.454 a 1.018,1.018 0 0 0 -1.196,0.804 z" />
  </g>
  <g
     fill="#ffffff"
     transform="translate(8.1196224,156.00789)">
    <path
       d="m 14.517,8.675 a 0.92,0.92 0 0 0 0.721,1.083 l 4.338,0.81 c 0.497,0.1 0.98,-0.225 1.08,-0.724 l 0.806,-4.352 a 0.91831381,0.91831381 0 1 0 -1.801,-0.36 l -0.344,2.021 a 9.828,9.828 0 0 0 -7.72,-3.767 9.82,9.82 0 0 0 -9,5.91 0.921,0.921 0 0 0 0.474,1.212 0.917,0.917 0 0 0 1.209,-0.475 7.984,7.984 0 0 1 7.317,-4.805 7.99,7.99 0 0 1 6.33,3.132 l -2.33,-0.408 a 0.918,0.918 0 0 0 -1.08,0.723 z" />
    <g>
      <path
         d="m 12.067,17.344 -1.564,-1.613 v -2.117 c 0,-0.337 -0.265,-0.356 -0.592,-0.356 -0.327,0 -0.591,0.02 -0.591,0.356 v 0.897 l -1.165,-1.2 a 1.522,1.522 0 0 0 -2.151,0 l -3.91,4.033 a 0.624,0.624 0 0 0 0,0.863 0.579,0.579 0 0 0 0.836,0 l 3.91,-4.033 a 0.342,0.342 0 0 1 0.479,0 l 3.91,4.033 a 0.581,0.581 0 0 0 0.838,0 0.624,0.624 0 0 0 0,-0.863 z" />
      <path
         d="m 7.285,15.113 a 0.285,0.285 0 0 0 -0.41,0 l -3.43,3.503 a 0.3,0.3 0 0 0 -0.085,0.21 v 2.554 c 0,1.086 0,1.086 1.063,1.086 H 6.12 v -2.687 h 1.92 v 2.687 h 1.698 c 1.063,0 1.063,0 1.063,-1.086 v -2.555 a 0.299,0.299 0 0 0 -0.085,-0.21 l -3.43,-3.502 z" />
    </g>
    <path
       d="m 21.36,11.906 a 0.48,0.48 0 0 1 0.48,0.48 v 9.6 a 0.48,0.48 0 0 1 -0.48,0.48 h -6.24 a 0.48,0.48 0 0 1 -0.48,-0.48 v -9.6 a 0.48,0.48 0 0 1 0.48,-0.48 z m -3.6,7.68 h -1.68 a 0.24,0.24 0 0 0 -0.24,0.24 v 0.96 c 0,0.132 0.107,0.24 0.24,0.24 h 1.68 A 0.24,0.24 0 0 0 18,20.786 v -0.96 a 0.24,0.24 0 0 0 -0.24,-0.24 z m 2.64,0 h -1.68 a 0.24,0.24 0 0 0 -0.24,0.24 v 0.96 c 0,0.132 0.107,0.24 0.24,0.24 h 1.68 a 0.24,0.24 0 0 0 0.24,-0.24 v -0.96 a 0.24,0.24 0 0 0 -0.24,-0.24 z m -2.64,-2.16 h -1.68 a 0.24,0.24 0 0 0 -0.24,0.24 v 0.96 c 0,0.132 0.107,0.24 0.24,0.24 h 1.68 A 0.24,0.24 0 0 0 18,18.626 v -0.96 a 0.24,0.24 0 0 0 -0.24,-0.24 z m 2.64,0 h -1.68 a 0.24,0.24 0 0 0 -0.24,0.24 v 0.96 c 0,0.132 0.107,0.24 0.24,0.24 h 1.68 a 0.24,0.24 0 0 0 0.24,-0.24 v -0.96 a 0.24,0.24 0 0 0 -0.24,-0.24 z m -2.64,-1.92 h -1.68 a 0.24,0.24 0 0 0 -0.24,0.24 v 0.96 c 0,0.132 0.107,0.24 0.24,0.24 h 1.68 A 0.24,0.24 0 0 0 18,16.706 v -0.96 a 0.24,0.24 0 0 0 -0.24,-0.24 z m 2.64,0 h -1.68 a 0.24,0.24 0 0 0 -0.24,0.24 v 0.96 c 0,0.132 0.107,0.24 0.24,0.24 h 1.68 a 0.24,0.24 0 0 0 0.24,-0.24 v -0.96 a 0.24,0.24 0 0 0 -0.24,-0.24 z m -2.64,-2.16 h -1.68 a 0.24,0.24 0 0 0 -0.24,0.24 v 0.96 c 0,0.132 0.107,0.24 0.24,0.24 h 1.68 A 0.24,0.24 0 0 0 18,14.546 v -0.96 a 0.24,0.24 0 0 0 -0.24,-0.24 z m 2.64,0 h -1.68 a 0.24,0.24 0 0 0 -0.24,0.24 v 0.96 c 0,0.132 0.107,0.24 0.24,0.24 h 1.68 a 0.24,0.24 0 0 0 0.24,-0.24 v -0.96 a 0.24,0.24 0 0 0 -0.24,-0.24 z" />
  </g>
  <g
     fill="#ffffff"
     transform="translate(48.11963,155.52268)">
    <path
       d="m 14.517,8.675 a 0.92,0.92 0 0 0 0.721,1.083 l 4.338,0.81 c 0.497,0.1 0.98,-0.225 1.08,-0.724 l 0.806,-4.352 a 0.91831381,0.91831381 0 1 0 -1.801,-0.36 l -0.344,2.021 a 9.828,9.828 0 0 0 -7.72,-3.767 9.82,9.82 0 0 0 -9,5.91 0.921,0.921 0 0 0 0.474,1.212 0.917,0.917 0 0 0 1.209,-0.475 7.984,7.984 0 0 1 7.317,-4.805 7.99,7.99 0 0 1 6.33,3.132 l -2.33,-0.408 a 0.918,0.918 0 0 0 -1.08,0.723 z" />
    <g>
      <path
         d="m 12.067,17.344 -1.564,-1.613 v -2.117 c 0,-0.337 -0.265,-0.356 -0.592,-0.356 -0.327,0 -0.591,0.02 -0.591,0.356 v 0.897 l -1.165,-1.2 a 1.522,1.522 0 0 0 -2.151,0 l -3.91,4.033 a 0.624,0.624 0 0 0 0,0.863 0.579,0.579 0 0 0 0.836,0 l 3.91,-4.033 a 0.342,0.342 0 0 1 0.479,0 l 3.91,4.033 a 0.581,0.581 0 0 0 0.838,0 0.624,0.624 0 0 0 0,-0.863 z" />
      <path
         d="m 7.285,15.113 a 0.285,0.285 0 0 0 -0.41,0 l -3.43,3.503 a 0.3,0.3 0 0 0 -0.085,0.21 v 2.554 c 0,1.086 0,1.086 1.063,1.086 H 6.12 v -2.687 h 1.92 v 2.687 h 1.698 c 1.063,0 1.063,0 1.063,-1.086 v -2.555 a 0.299,0.299 0 0 0 -0.085,-0.21 l -3.43,-3.502 z" />
    </g>
    <path
       d="m 21.36,11.906 a 0.48,0.48 0 0 1 0.48,0.48 v 9.6 a 0.48,0.48 0 0 1 -0.48,0.48 h -6.24 a 0.48,0.48 0 0 1 -0.48,-0.48 v -9.6 a 0.48,0.48 0 0 1 0.48,-0.48 z m -3.6,7.68 h -1.68 a 0.24,0.24 0 0 0 -0.24,0.24 v 0.96 c 0,0.132 0.107,0.24 0.24,0.24 h 1.68 A 0.24,0.24 0 0 0 18,20.786 v -0.96 a 0.24,0.24 0 0 0 -0.24,-0.24 z m 2.64,0 h -1.68 a 0.24,0.24 0 0 0 -0.24,0.24 v 0.96 c 0,0.132 0.107,0.24 0.24,0.24 h 1.68 a 0.24,0.24 0 0 0 0.24,-0.24 v -0.96 a 0.24,0.24 0 0 0 -0.24,-0.24 z m -2.64,-2.16 h -1.68 a 0.24,0.24 0 0 0 -0.24,0.24 v 0.96 c 0,0.132 0.107,0.24 0.24,0.24 h 1.68 A 0.24,0.24 0 0 0 18,18.626 v -0.96 a 0.24,0.24 0 0 0 -0.24,-0.24 z m 2.64,0 h -1.68 a 0.24,0.24 0 0 0 -0.24,0.24 v 0.96 c 0,0.132 0.107,0.24 0.24,0.24 h 1.68 a 0.24,0.24 0 0 0 0.24,-0.24 v -0.96 a 0.24,0.24 0 0 0 -0.24,-0.24 z m -2.64,-1.92 h -1.68 a 0.24,0.24 0 0 0 -0.24,0.24 v 0.96 c 0,0.132 0.107,0.24 0.24,0.24 h 1.68 A 0.24,0.24 0 0 0 18,16.706 v -0.96 a 0.24,0.24 0 0 0 -0.24,-0.24 z m 2.64,0 h -1.68 a 0.24,0.24 0 0 0 -0.24,0.24 v 0.96 c 0,0.132 0.107,0.24 0.24,0.24 h 1.68 a 0.24,0.24 0 0 0 0.24,-0.24 v -0.96 a 0.24,0.24 0 0 0 -0.24,-0.24 z m -2.64,-2.16 h -1.68 a 0.24,0.24 0 0 0 -0.24,0.24 v 0.96 c 0,0.132 0.107,0.24 0.24,0.24 h 1.68 A 0.24,0.24 0 0 0 18,14.546 v -0.96 a 0.24,0.24 0 0 0 -0.24,-0.24 z m 2.64,0 h -1.68 a 0.24,0.24 0 0 0 -0.24,0.24 v 0.96 c 0,0.132 0.107,0.24 0.24,0.24 h 1.68 a 0.24,0.24 0 0 0 0.24,-0.24 v -0.96 a 0.24,0.24 0 0 0 -0.24,-0.24 z" />
  </g>
  <g
     fill="#ffffff"
     transform="translate(88.11963,156.49311)">
    <path
       d="m 14.517,8.675 a 0.92,0.92 0 0 0 0.721,1.083 l 4.338,0.81 c 0.497,0.1 0.98,-0.225 1.08,-0.724 l 0.806,-4.352 a 0.91831381,0.91831381 0 1 0 -1.801,-0.36 l -0.344,2.021 a 9.828,9.828 0 0 0 -7.72,-3.767 9.82,9.82 0 0 0 -9,5.91 0.921,0.921 0 0 0 0.474,1.212 0.917,0.917 0 0 0 1.209,-0.475 7.984,7.984 0 0 1 7.317,-4.805 7.99,7.99 0 0 1 6.33,3.132 l -2.33,-0.408 a 0.918,0.918 0 0 0 -1.08,0.723 z" />
    <g>
      <path
         d="m 12.067,17.344 -1.564,-1.613 v -2.117 c 0,-0.337 -0.265,-0.356 -0.592,-0.356 -0.327,0 -0.591,0.02 -0.591,0.356 v 0.897 l -1.165,-1.2 a 1.522,1.522 0 0 0 -2.151,0 l -3.91,4.033 a 0.624,0.624 0 0 0 0,0.863 0.579,0.579 0 0 0 0.836,0 l 3.91,-4.033 a 0.342,0.342 0 0 1 0.479,0 l 3.91,4.033 a 0.581,0.581 0 0 0 0.838,0 0.624,0.624 0 0 0 0,-0.863 z" />
      <path
         d="m 7.285,15.113 a 0.285,0.285 0 0 0 -0.41,0 l -3.43,3.503 a 0.3,0.3 0 0 0 -0.085,0.21 v 2.554 c 0,1.086 0,1.086 1.063,1.086 H 6.12 v -2.687 h 1.92 v 2.687 h 1.698 c 1.063,0 1.063,0 1.063,-1.086 v -2.555 a 0.299,0.299 0 0 0 -0.085,-0.21 l -3.43,-3.502 z" />
    </g>
    <path
       d="m 21.36,11.906 a 0.48,0.48 0 0 1 0.48,0.48 v 9.6 a 0.48,0.48 0 0 1 -0.48,0.48 h -6.24 a 0.48,0.48 0 0 1 -0.48,-0.48 v -9.6 a 0.48,0.48 0 0 1 0.48,-0.48 z m -3.6,7.68 h -1.68 a 0.24,0.24 0 0 0 -0.24,0.24 v 0.96 c 0,0.132 0.107,0.24 0.24,0.24 h 1.68 A 0.24,0.24 0 0 0 18,20.786 v -0.96 a 0.24,0.24 0 0 0 -0.24,-0.24 z m 2.64,0 h -1.68 a 0.24,0.24 0 0 0 -0.24,0.24 v 0.96 c 0,0.132 0.107,0.24 0.24,0.24 h 1.68 a 0.24,0.24 0 0 0 0.24,-0.24 v -0.96 a 0.24,0.24 0 0 0 -0.24,-0.24 z m -2.64,-2.16 h -1.68 a 0.24,0.24 0 0 0 -0.24,0.24 v 0.96 c 0,0.132 0.107,0.24 0.24,0.24 h 1.68 A 0.24,0.24 0 0 0 18,18.626 v -0.96 a 0.24,0.24 0 0 0 -0.24,-0.24 z m 2.64,0 h -1.68 a 0.24,0.24 0 0 0 -0.24,0.24 v 0.96 c 0,0.132 0.107,0.24 0.24,0.24 h 1.68 a 0.24,0.24 0 0 0 0.24,-0.24 v -0.96 a 0.24,0.24 0 0 0 -0.24,-0.24 z m -2.64,-1.92 h -1.68 a 0.24,0.24 0 0 0 -0.24,0.24 v 0.96 c 0,0.132 0.107,0.24 0.24,0.24 h 1.68 A 0.24,0.24 0 0 0 18,16.706 v -0.96 a 0.24,0.24 0 0 0 -0.24,-0.24 z m 2.64,0 h -1.68 a 0.24,0.24 0 0 0 -0.24,0.24 v 0.96 c 0,0.132 0.107,0.24 0.24,0.24 h 1.68 a 0.24,0.24 0 0 0 0.24,-0.24 v -0.96 a 0.24,0.24 0 0 0 -0.24,-0.24 z m -2.64,-2.16 h -1.68 a 0.24,0.24 0 0 0 -0.24,0.24 v 0.96 c 0,0.132 0.107,0.24 0.24,0.24 h 1.68 A 0.24,0.24 0 0 0 18,14.546 v -0.96 a 0.24,0.24 0 0 0 -0.24,-0.24 z m 2.64,0 h -1.68 a 0.24,0.24 0 0 0 -0.24,0.24 v 0.96 c 0,0.132 0.107,0.24 0.24,0.24 h 1.68 a 0.24,0.24 0 0 0 0.24,-0.24 v -0.96 a 0.24,0.24 0 0 0 -0.24,-0.24 z" />
  </g>
</svg>
