<svg width="24" height="24" viewBox="0 0 24 24" fill="none">
  <defs>
    <filter id="a" color-interpolation-filters="auto">
      <feColorMatrix in="SourceGraphic" values="0 0 0 0 0.000000 0 0 0 0 0.000000 0 0 0 0 0.000000 0 0 0 1.000000 0"/>
    </filter>
    <path id="b" d="M0 0h24v24H0z"/>
  </defs>
  <g filter="url(#a)" fill="currentColor" fill-rule="evenodd">
    <g transform="translate(8 8)">
      <mask id="c" fill="currentColor">
        <use xlink:href="#b"/>
      </mask>
      <g fill="currentColor" mask="url(#c)">
        <path d="M17.912 0v3.864l3.897-.001-.007 2.861-.082-.004H6.44a1 1 0 00-.993.883l-.007.117V24H2.6a1 1 0 01-1-1V.5a.5.5 0 01.5-.5h15.812zm1.907 1.67l.043.043 1.227 1.19h-2.217V.631l.947 1.038z"/>
        <path d="M8.319 7.68l.001 5.28.007.139a1.44 1.44 0 001.294 1.294l.139.007h8.64l.139-.007a1.44 1.44 0 001.294-1.294l.007-.139-.001-5.28h1.421a.5.5 0 01.5.5V23.5a.5.5 0 01-.5.5h-1.421l.001-5.28c0-.749-.571-1.364-1.301-1.433l-.139-.007H9.76c-.749 0-1.364.571-1.433 1.301l-.007.139L8.319 24H6.9a.5.5 0 01-.5-.5V8.18a.5.5 0 01.5-.5h1.419zM18.88 21.12V24h-9.6v-2.88h9.6zm-.48-2.88a.48.48 0 01.472.394l.008.086v1.44h-9.6v-1.44a.48.48 0 01.313-.45l.08-.022.087-.008h8.64zm.479-10.56l.001 5.28-.008.086a.48.48 0 01-.386.386l-.086.008-1.441-.001.001-5.759h1.919zm-2.88 5.759l-6.239.001-.086-.008a.48.48 0 01-.386-.386l-.008-.086V7.68H16l-.001 5.759z"/>
        <path d="M8.319 7.68l.001 5.28.007.139a1.44 1.44 0 001.294 1.294l.139.007h8.64l.139-.007a1.44 1.44 0 001.294-1.294l.007-.139-.001-5.28h1.421a.5.5 0 01.5.5V23.5a.5.5 0 01-.5.5h-1.421l.001-5.28c0-.749-.571-1.364-1.301-1.433l-.139-.007H9.76c-.749 0-1.364.571-1.433 1.301l-.007.139L8.319 24H6.9a.5.5 0 01-.5-.5V8.18a.5.5 0 01.5-.5h1.419zM18.88 21.12V24h-9.6v-2.88h9.6zm-.48-2.88a.48.48 0 01.472.394l.008.086v1.44h-9.6v-1.44a.48.48 0 01.313-.45l.08-.022.087-.008h8.64zm.479-10.56l.001 5.28-.008.086a.48.48 0 01-.386.386l-.086.008-1.441-.001.001-5.759h1.919zm-2.88 5.759l-6.239.001-.086-.008a.48.48 0 01-.386-.386l-.008-.086V7.68H16l-.001 5.759z"/>
      </g>
    </g>
  </g>
</svg>
