<svg width="24" height="24" viewBox="0 0 24 24" fill="none"
  xmlns="http://www.w3.org/2000/svg">
  <path d="M20.6028 5.17462C19.6728 4.64934 18.7636 4.43284 17.6489 4.43284C17.299 4.43284 16.8991 4.48229 16.5492 4.53174C16.1993 4.5812 15.8494 4.6801 15.4995 4.82845C14.9996 4.33394 14.4498 3.88887 13.7999 3.59216C12.7502 3.09764 11.5506 2.89983 10.3509 3.04818C8.85131 3.19654 7.4517 3.98777 6.50196 5.17462C5.85214 5.96585 5.40226 6.95489 5.25231 7.99338C4.05264 7.89448 2.85297 8.14174 1.85325 8.78461C0.953498 9.37804 0.303678 10.3176 0.103734 11.4056C0.0537477 11.7517 0.00376155 12.0484 0.00376155 12.3946C-0.0462246 13.5815 0.403651 14.7188 1.25342 15.5595C2.15317 16.4002 3.35283 16.8947 4.60249 16.8947H6.95184V15.6584H4.60249C3.70274 15.6584 2.80299 15.3123 2.15317 14.6694C1.55333 14.0265 1.25342 13.1858 1.25342 12.3452C1.25342 12.0979 1.25342 11.8012 1.35339 11.5539C1.50335 10.8121 1.90324 10.1693 2.55305 9.7242C3.20287 9.32858 4.00265 9.08132 4.75244 9.13078C5.10235 9.13078 5.40226 9.18023 5.75217 9.22968L6.60193 9.37804L6.50196 8.5868C6.50196 8.53735 6.50196 8.43845 6.50196 8.389C6.55195 7.49886 6.90185 6.60873 7.50168 5.9164C8.25147 4.97681 9.30118 4.38339 10.5009 4.23503C10.7008 4.18558 10.9507 4.18558 11.1507 4.18558C11.9005 4.18558 12.6003 4.38339 13.2501 4.6801C13.8499 4.92736 14.3498 5.37243 14.7497 5.86695L15.0496 6.36147L15.5495 6.11421C15.9493 5.9164 16.3492 5.81749 16.7491 5.71859C17.049 5.66914 17.349 5.66914 17.6489 5.66914C18.4133 5.66914 18.9831 5.78358 19.6471 6.10568L20.6028 5.17462ZM21.2337 7.1799C22.1834 8.11948 22.6975 9.32858 22.6975 10.6638C22.7475 11.9001 22.2976 13.1364 21.3978 14.0265L21.2979 14.076C20.2981 15.0156 18.9985 15.609 17.5989 15.6584H17.4989V16.8947H17.6489C19.3484 16.8453 20.9979 16.153 22.2476 14.9661L22.2976 14.9167C23.4473 13.7793 24.0471 12.1968 23.9971 10.6143C23.9971 9.03187 23.3331 7.47661 22.1335 6.28976" fill="currentColor"/>
  <path fill-rule="evenodd" clip-rule="evenodd" d="M9.54192 16.6694C10.4876 16.9881 11.4333 17.1474 12.379 17.1474C13.3247 17.1474 14.2703 16.9881 15.216 16.6693C15.7559 16.4874 16.3411 16.7776 16.523 17.3175C16.5295 17.3366 16.5354 17.356 16.5407 17.3755L17.5066 20.917C17.5815 21.1918 17.4195 21.4753 17.1446 21.5503C17.1004 21.5623 17.0548 21.5685 17.0089 21.5685H7.749C7.46414 21.5685 7.23322 21.3375 7.23322 21.0527C7.23322 21.0068 7.23933 20.9612 7.25139 20.917L8.21726 17.3754C8.3672 16.8258 8.93428 16.5018 9.4839 16.6517C9.50341 16.657 9.52276 16.6629 9.54192 16.6694Z" fill="currentColor"/>
  <path d="M12.3789 16.2631C13.844 16.2631 15.0316 15.0755 15.0316 13.6105C15.0316 12.1455 13.844 10.9579 12.3789 10.9579C10.9139 10.9579 9.72632 12.1455 9.72632 13.6105C9.72632 15.0755 10.9139 16.2631 12.3789 16.2631Z" fill="currentColor"/>
  <path fill-rule="evenodd" clip-rule="evenodd" d="M23.4367 3.69084C23.7388 3.99298 23.7388 4.48285 23.4367 4.78499L17.1075 11.1141L15.3219 9.66371C14.9903 9.39431 14.9398 8.90705 15.2092 8.57538C15.4786 8.24372 15.9659 8.19324 16.2975 8.46265L17 9.03329L22.3425 3.69084C22.6446 3.3887 23.1345 3.3887 23.4367 3.69084Z" fill="currentColor"/>
</svg>
