<svg xmlns="http://www.w3.org/2000/svg"
  xmlns:xlink="http://www.w3.org/1999/xlink" width="40" height="40">
  <defs>
    <filter id="a" color-interpolation-filters="auto">
      <feColorMatrix in="SourceGraphic" values="0 0 0 0 0.000000 0 0 0 0 0.000000 0 0 0 0 0.000000 0 0 0 1.000000 0"/>
    </filter>
    <path id="b" d="M0 0h24v24H0z"/>
  </defs>
  <g filter="url(#a)" fill="none" fill-rule="evenodd">
    <g transform="translate(8 8)">
      <mask id="c" fill="#fff">
        <use xlink:href="#b"/>
      </mask>
      <g mask="url(#c)">
        <path fill="#currentColor" fill-rule="nonzero" d="M19.972 5.308c-.901-.51-1.783-.719-2.863-.719-.34 0-.727.048-1.066.096-.34.048-.679.144-1.018.287-.485-.479-1.018-.91-1.648-1.198a6.093 6.093 0 00-3.343-.527c-1.454.144-2.81.91-3.731 2.061a5.61 5.61 0 00-1.211 2.733c-1.163-.096-2.326.143-3.295.767A3.9 3.9 0 00.1 11.348c-.049.336-.097.623-.097.959a4.054 4.054 0 001.211 3.068 4.778 4.778 0 003.247 1.294h2.277v-1.198H4.462a3.396 3.396 0 01-2.375-.959 3.298 3.298 0 01-.872-2.253c0-.24 0-.527.097-.767a2.77 2.77 0 011.163-1.774c.63-.383 1.405-.623 2.132-.575.34 0 .63.048.97.096l.823.144-.097-.767v-.192a4.042 4.042 0 01.969-2.397 4.366 4.366 0 012.907-1.63c.194-.048.437-.048.63-.048.727 0 1.406.192 2.035.48.582.24 1.067.67 1.454 1.15l.29.48.485-.24c.388-.192.776-.288 1.163-.384.291-.048.582-.048.873-.048.74 0 1.293.111 1.937.424m1.538 1.04a4.679 4.679 0 011.419 3.378c.048 1.199-.388 2.397-1.26 3.26l-.097.048c-.97.91-2.23 1.486-3.586 1.534h-.097v1.198h.146a6.794 6.794 0 004.458-1.87l.048-.047a5.642 5.642 0 001.648-4.17c0-1.535-.644-3.042-1.807-4.193"/>
      </g>
      <g fill="#currentColor" mask="url(#c)">
        <g transform="translate(6.857 10.914)">
          <path d="M2.393 5.537c.916.309 1.833.463 2.75.463s1.833-.154 2.75-.463a1 1 0 011.267.628l.017.056.936 3.433a.5.5 0 01-.482.632H.655a.5.5 0 01-.483-.632l.937-3.433a1 1 0 011.227-.702l.057.018z"/>
          <circle cx="5.143" cy="2.571" r="2.571"/>
        </g>
      </g>
      <path stroke="#currentColor" stroke-linecap="round" stroke-width="1.5" d="M15.326 9.078l1.206.979L22.189 4.4" mask="url(#c)"/>
    </g>
  </g>
</svg>
