<svg width="24" height="24" viewBox="0 0 24 24" fill="none" xmlns="http://www.w3.org/2000/svg">
<path fill-rule="evenodd" clip-rule="evenodd" d="M12.178 0C14.6326 0 16.6224 1.98985 16.6224 4.44444L16.6215 8H7.73352V4.44444C7.73352 1.98985 9.72337 0 12.178 0ZM12.178 1.14286C10.337 1.14286 8.84463 2.63524 8.84463 4.47619V7.99986H15.5106L15.5113 4.47619C15.5113 2.63524 14.0189 1.14286 12.178 1.14286Z" fill="currentColor"/>
<path fill-rule="evenodd" clip-rule="evenodd" d="M20.1576 5.33331C20.6731 5.33331 21.1042 5.72527 21.1531 6.2385L22.7404 22.9052C22.7927 23.455 22.3895 23.9431 21.8397 23.9955C21.8082 23.9985 21.7765 24 21.7449 24H2.61108C2.0588 24 1.61108 23.5523 1.61108 23C1.61108 22.9683 1.61259 22.9367 1.61559 22.9052L3.20289 6.2385C3.25177 5.72527 3.68283 5.33331 4.19839 5.33331H20.1576ZM12.9906 11.9148C10.1851 11.9148 7.91084 14.2252 7.91084 17.0751C7.91084 19.9251 10.1851 22.2355 12.9906 22.2355C14.303 22.2355 15.4989 21.7298 16.4004 20.9001C16.2794 20.8285 16.1752 20.7312 16.0954 20.6151C15.2703 21.3623 14.183 21.817 12.9906 21.817C10.4126 21.817 8.32275 19.694 8.32275 17.0751C8.32275 14.4563 10.4126 12.3333 12.9906 12.3333C15.5687 12.3333 17.6587 14.4563 17.6587 17.0751C17.6587 17.8132 17.4925 18.5119 17.1964 19.1348C17.3296 19.1815 17.4494 19.2566 17.5488 19.3537C17.8824 18.6664 18.0706 17.8932 18.0706 17.0751C18.0706 14.2252 15.7962 11.9148 12.9906 11.9148ZM6.2008 15.718C6.19624 15.7423 6.19032 15.7659 6.18588 15.7902C6.06958 16.4271 6.04282 17.0597 6.09585 17.6751C6.35447 19.368 6.987 20.3908 7.95696 21.4019C6.711 19.9242 6.10942 17.9085 6.48605 15.8468L6.49555 15.8011L6.39293 15.7837C6.32588 15.7686 6.26164 15.7465 6.2008 15.718ZM14.8907 8.24912C10.5715 7.21519 6.10157 9.66038 4.6351 14.0147C4.37254 14.7942 4.22344 15.5851 4.17805 16.3692C4.19458 18.5478 4.80381 19.9536 5.83963 21.4082L5.835 21.4013L5.68826 21.1543C4.56158 19.1885 4.21516 16.7753 4.9062 14.4457L5.00224 14.1424C6.40088 9.98987 10.6577 7.65404 14.7772 8.62683C14.7916 8.4909 14.8308 8.3635 14.8907 8.24912ZM16.8574 19.5242L16.764 19.5391C16.483 19.6105 16.3123 19.8995 16.3825 20.1849C16.4527 20.4703 16.7373 20.6438 17.0183 20.5724C17.2992 20.5011 17.4699 20.212 17.3997 19.9266C17.3295 19.6413 17.0449 19.4678 16.764 19.5391L16.8574 19.5242ZM12.9906 15.7794C12.2862 15.7794 11.7151 16.3595 11.7151 17.0751C11.7151 17.7907 12.2862 18.3709 12.9906 18.3709C13.6952 18.3709 14.2663 17.7907 14.2663 17.0751C14.2663 16.3595 13.6952 15.7794 12.9906 15.7794ZM6.63694 14.3006C6.34799 14.2814 6.0985 14.5039 6.07963 14.7974C6.06076 15.0911 6.27979 15.3445 6.56862 15.3637C6.8577 15.3829 7.10731 15.1604 7.12606 14.8668C7.14492 14.5733 6.92602 14.3197 6.63694 14.3006ZM14.1904 10.204C11.1322 9.62756 8.17287 11.2071 6.82504 13.8834C6.92691 13.9078 7.02212 13.9478 7.10795 14.0018C8.40103 11.4583 11.2211 9.95955 14.135 10.5088C15.3106 10.7304 16.3524 11.2597 17.1991 11.9972H17.6557L17.4368 11.7952C16.5438 11.0053 15.4392 10.4393 14.1904 10.204ZM16.8062 8.95394C16.7788 9.08711 16.7271 9.21026 16.6557 9.319C17.9043 9.95767 18.9404 10.8869 19.7098 11.9956H20.1781L19.9824 11.7067C19.1769 10.5663 18.1004 9.6109 16.8062 8.95394ZM15.8338 8.20759C15.5447 8.18854 15.2952 8.41091 15.2765 8.70444C15.2575 8.9981 15.4765 9.25154 15.7654 9.2707C16.0544 9.28987 16.304 9.06738 16.3229 8.77385C16.3416 8.48032 16.1227 8.22675 15.8338 8.20759Z" fill="currentColor"/>
</svg>
