<svg width="24" height="24" viewBox="0 0 24 24" fill="none" xmlns="http://www.w3.org/2000/svg">
<path fill-rule="evenodd" clip-rule="evenodd" d="M0 7.18128C0.33001 7.55599 0.813355 7.79241 1.35192 7.79241H20.2607C20.7988 7.79241 21.2817 7.55643 21.6117 7.18232L21.6114 12.2945H8.10506C6.86184 12.2945 5.85401 13.3023 5.85401 14.5456L5.85323 20.7089L2.02723 20.7096C0.908334 20.7096 0.00128874 19.8026 0.00128874 18.6837L0 7.18128ZM3.81771 16.6798H2.21952L2.1386 16.6879C1.92858 16.7308 1.76931 16.9376 1.76931 17.1863C1.76931 17.4349 1.92858 17.6417 2.1386 17.6846L2.21952 17.6928H3.81771L3.89863 17.6846C4.10866 17.6417 4.26792 17.4349 4.26792 17.1863C4.26792 16.9065 4.06635 16.6798 3.81771 16.6798ZM3.81771 13.0781H2.21952L2.1386 13.0863C1.92858 13.1292 1.76931 13.3359 1.76931 13.5846C1.76931 13.8332 1.92858 14.04 2.1386 14.0829L2.21952 14.0911H3.81771L3.89863 14.0829C4.10866 14.04 4.26792 13.8332 4.26792 13.5846C4.26792 13.3049 4.06635 13.0781 3.81771 13.0781ZM8.3198 9.47643H6.72162L6.64069 9.48459C6.43067 9.52747 6.27141 9.73427 6.27141 9.98291C6.27141 10.2316 6.43067 10.4384 6.64069 10.4812L6.72162 10.4894H8.3198L8.40073 10.4812C8.61075 10.4384 8.77001 10.2316 8.77001 9.98291C8.77001 9.70319 8.56845 9.47643 8.3198 9.47643ZM13.7223 9.47643H12.1241L12.0432 9.48459C11.8332 9.52747 11.6739 9.73427 11.6739 9.98291C11.6739 10.2316 11.8332 10.4384 12.0432 10.4812L12.1241 10.4894H13.7223L13.8032 10.4812C14.0133 10.4384 14.1725 10.2316 14.1725 9.98291C14.1725 9.70319 13.971 9.47643 13.7223 9.47643ZM19.1248 9.47643H17.5266L17.4457 9.48459C17.2357 9.52747 17.0764 9.73427 17.0764 9.98291C17.0764 10.2316 17.2357 10.4384 17.4457 10.4812L17.5266 10.4894H19.1248L19.2058 10.4812C19.4158 10.4384 19.575 10.2316 19.575 9.98291C19.575 9.70319 19.3735 9.47643 19.1248 9.47643ZM20.2607 2.38989C20.758 2.38989 21.1611 2.79302 21.1611 3.29031V5.99157C21.1611 6.48886 20.758 6.89199 20.2607 6.89199H1.35192C0.85463 6.89199 0.451498 6.48886 0.451498 5.99157V3.29031C0.451498 2.79302 0.85463 2.38989 1.35192 2.38989H20.2607Z" fill="currentColor"/>
<path d="M16.4426 0C16.6912 0 16.898 0.159262 16.9409 0.369284L16.9491 0.45021V3.3393C16.9491 3.58794 16.7223 3.78951 16.4426 3.78951C16.1939 3.78951 15.9871 3.63025 15.9443 3.42022L15.9361 3.3393V0.45021C15.9361 0.201566 16.1629 0 16.4426 0Z" fill="currentColor"/>
<path d="M5.63753 0C5.88617 0 6.09297 0.159262 6.13585 0.369284L6.14401 0.45021V3.3393C6.14401 3.58794 5.91725 3.78951 5.63753 3.78951C5.38888 3.78951 5.18209 3.63025 5.1392 3.42022L5.13104 3.3393V0.45021C5.13104 0.201566 5.3578 0 5.63753 0Z" fill="currentColor"/>
<path fill-rule="evenodd" clip-rule="evenodd" d="M22.3429 13.1949C23.1821 13.1949 23.8624 13.8752 23.8624 14.7144V22.4805C23.8624 23.3197 23.1821 24 22.3429 24H8.27388C7.43471 24 6.75443 23.3197 6.75443 22.4805V14.7144C6.75443 13.8752 7.43471 13.1949 8.27388 13.1949H22.3429ZM20.2607 19.9481C19.5148 19.9481 18.9101 20.5528 18.9101 21.2987C18.9101 22.0447 19.5148 22.6493 20.2607 22.6493C21.0066 22.6493 21.6113 22.0447 21.6113 21.2987C21.6113 20.5528 21.0066 19.9481 20.2607 19.9481ZM14.8582 19.9481H8.55526C8.30662 19.9481 8.10505 20.1497 8.10505 20.3983C8.10505 20.6193 8.26432 20.8031 8.47434 20.8413L8.55526 20.8485H14.8582C15.1068 20.8485 15.3084 20.6469 15.3084 20.3983C15.3084 20.1497 15.1068 19.9481 14.8582 19.9481ZM23.4122 15.446H7.20463V18.1473H23.4122V15.446Z" fill="currentColor"/>
</svg>
