<svg width="24" height="24" viewBox="0 0 24 24" fill="none" xmlns="http://www.w3.org/2000/svg">
<path fill-rule="evenodd" clip-rule="evenodd" d="M15.78 0.799988C16.608 0.799988 17.28 1.47199 17.28 2.29999V11.78C17.28 12.608 16.608 13.28 15.78 13.28H6.72L3.513 15.956C3.301 16.133 2.985 16.104 2.808 15.892C2.733 15.802 2.692 15.689 2.692 15.572V13.28H1.5C0.672 13.28 0 12.608 0 11.78V2.29999C0 1.47199 0.672 0.799988 1.5 0.799988H15.78ZM8.253 9.05599C7.743 9.05599 7.488 9.30899 7.488 9.81599C7.488 10.062 7.554 10.252 7.686 10.388C7.818 10.524 8.006 10.592 8.253 10.592C8.5 10.592 8.69 10.522 8.823 10.383C8.957 10.243 9.024 10.055 9.024 9.81599C9.024 9.57499 8.958 9.38799 8.826 9.25499C8.694 9.12199 8.503 9.05599 8.253 9.05599ZM8.66 3.67999C8.056 3.67999 7.486 3.80799 6.948 4.06399L6.72 4.18099L7.095 4.96099C7.324 4.84899 7.558 4.75299 7.799 4.67299C8.04 4.59299 8.302 4.55299 8.584 4.55299C8.896 4.55299 9.136 4.61999 9.302 4.75299C9.469 4.88599 9.552 5.07699 9.552 5.32499C9.552 5.53799 9.501 5.72199 9.398 5.87499C9.296 6.02899 9.068 6.24499 8.714 6.52299C8.416 6.75299 8.208 6.97699 8.089 7.19299C7.994 7.36499 7.937 7.57299 7.918 7.81599L7.911 8.00399V8.28799H8.785V8.08799C8.785 7.84799 8.832 7.65799 8.925 7.51599C9.019 7.37399 9.205 7.19599 9.481 6.97999C9.805 6.72799 10.033 6.52399 10.165 6.36799C10.298 6.21099 10.396 6.04599 10.462 5.87299C10.527 5.69999 10.56 5.50299 10.56 5.28099C10.56 4.78099 10.389 4.38999 10.047 4.10599C9.705 3.82199 9.243 3.67999 8.66 3.67999V3.67999Z" fill="currentColor"/>
<path fill-rule="evenodd" clip-rule="evenodd" d="M21.6 14.24C21.865 14.24 22.08 14.025 22.08 13.76C22.08 13.495 21.865 13.28 21.6 13.28H17.948C18.133 12.977 18.24 12.621 18.24 12.24V11.359L21.6 11.36C21.865 11.36 22.08 11.145 22.08 10.88C22.08 10.615 21.865 10.4 21.6 10.4L18.24 10.399V7.51898L22.5 7.51998C23.28 7.51998 23.92 8.11498 23.993 8.87598L24 9.01998V18.5C24 19.28 23.405 19.92 22.644 19.993L22.5 20H21.308V22.292C21.308 22.409 21.267 22.522 21.192 22.612C21.034 22.801 20.768 22.844 20.562 22.727L20.487 22.676L17.28 20H8.22C7.44 20 6.8 19.405 6.727 18.644L6.72 18.5V14.239L21.6 14.24ZM21.6 16.16H9.12C8.855 16.16 8.64 16.375 8.64 16.64C8.64 16.876 8.81 17.072 9.034 17.112L9.12 17.12H21.6C21.865 17.12 22.08 16.905 22.08 16.64C22.08 16.375 21.865 16.16 21.6 16.16Z" fill="currentColor"/>
</svg>
