<svg xmlns="http://www.w3.org/2000/svg"
  xmlns:xlink="http://www.w3.org/1999/xlink" width="24" height="24">
  <defs>
    <path id="a" d="M0 0h24v24H0z"/>
  </defs>
  <g fill="none" fill-rule="evenodd">
    <mask id="b" fill="#fff">
      <use xlink:href="#a"/>
    </mask>
    <path fill="currentColor" d="M5.3 11.94a1.5 1.5 0 01.161.05c1.917.677 3.833 1.016 5.749 1.016 1.916 0 3.832-.339 5.748-1.017a2.001 2.001 0 012.603 1.38l.43 1.65h-6.498a.5.5 0 00-.492.41l-.008.09v5.504a.5.5 0 00.5.5h8.08a1 1 0 01-.974.774H1.82a1 1 0 01-.968-1.253l2.006-7.675a2.002 2.002 0 012.441-1.43z" mask="url(#b)"/>
    <circle cx="11.134" cy="5.574" r="5.574" fill="currentColor" mask="url(#b)"/>
    <rect width="8.361" height="4.645" x="13.922" y="15.948" fill="currentColor" mask="url(#b)" rx="1.5"/>
    <path fill="currentColor" d="M22.852 21.213a.5.5 0 01.474.342l.596 1.787a.5.5 0 01-.475.658h-3.951v-.429a.5.5 0 00-.5-.5h-1.787a.5.5 0 00-.5.5V24h-3.952a.5.5 0 01-.474-.658l.596-1.787a.5.5 0 01.474-.342h9.499z" mask="url(#b)"/>
  </g>
</svg>
