<svg width="44" height="44" viewBox="0 0 44 44" fill="none" xmlns="http://www.w3.org/2000/svg">
<g clip-path="url(#clip0)">
<path d="M39 0H5C2.23858 0 0 2.23858 0 5V39C0 41.7614 2.23858 44 5 44H39C41.7614 44 44 41.7614 44 39V5C44 2.23858 41.7614 0 39 0Z" fill="#F50057"/>
<path d="M22.5 21C25.5376 21 28 18.5376 28 15.5C28 12.4624 25.5376 10 22.5 10C19.4624 10 17 12.4624 17 15.5C17 18.5376 19.4624 21 22.5 21Z" fill="white"/>
<path d="M16 34C19.0376 34 21.5 31.5376 21.5 28.5C21.5 25.4624 19.0376 23 16 23C12.9624 23 10.5 25.4624 10.5 28.5C10.5 31.5376 12.9624 34 16 34Z" fill="white"/>
<path d="M29 34C32.0376 34 34.5 31.5376 34.5 28.5C34.5 25.4624 32.0376 23 29 23C25.9624 23 23.5 25.4624 23.5 28.5C23.5 31.5376 25.9624 34 29 34Z" fill="white"/>
</g>
<defs>
<clipPath id="clip0">
<rect width="44" height="44" fill="white"/>
</clipPath>
</defs>
</svg>
