<svg xmlns="http://www.w3.org/2000/svg" width="32" height="32" viewBox="0 0 32 32">
    <g fill="none" fill-rule="evenodd">
        <rect width="32" height="32" fill="#333F48" rx="4"/>
        <path fill="#F6BE00" fill-rule="nonzero" d="M10.371 20.792v-7.267c0-.832.078-1.352.273-1.664.208-.338.481-.468 1.105-.494v-.351H8.46v.351c.663.039.936.156 1.131.494.182.299.247.78.247 1.755v4.888l-5.304-7.488H1.817v.338c1.04.078 1.261.351 1.261 1.625v5.161c0 1.768-.273 2.197-1.378 2.249v.351h3.263v-.351c-1.118-.065-1.352-.429-1.352-2.145v-5.746l5.798 8.294h.962zm6.019-.052v-.338c-1.079-.039-1.183-.156-1.183-1.352v-3.263h4.316v3.263c0 1.196-.104 1.313-1.183 1.352v.338h4.043v-.338c-1.02-.037-1.16-.146-1.17-1.202v-6.507c0-1.17.104-1.3 1.131-1.339v-.338h-3.952v.338c1.027.039 1.131.169 1.131 1.339v2.665h-4.316v-2.665c0-1.17.104-1.3 1.131-1.339v-.338h-3.939v.338c1.014.039 1.118.169 1.118 1.339v6.357c0 1.196-.104 1.313-1.17 1.352v.338h4.043zm10.205.195c.949 0 1.768-.26 2.379-.741.585-.455.91-1.209.91-2.093 0-.754-.234-1.352-.676-1.807-.442-.442-1.001-.793-2.158-1.326-1.04-.494-1.365-.689-1.69-1.001-.286-.286-.429-.663-.429-1.092 0-1.001.689-1.69 1.69-1.69.767 0 1.404.364 1.794 1.027.273.442.39.884.442 1.625h.52l.104-2.912c-.39.143-.572.182-.78.182-.13 0-.273-.013-.455-.052-.975-.195-1.157-.221-1.586-.221-.702 0-1.222.091-1.664.299-.949.442-1.534 1.365-1.534 2.431 0 .897.325 1.521 1.066 2.067.299.221.598.39 1.703.923 1.625.793 2.132 1.326 2.132 2.21 0 1.118-.689 1.794-1.833 1.794-1.456 0-2.236-.923-2.418-2.873h-.52l-.104 3.107c.468-.091.637-.117.858-.117.169 0 .338.013.494.039.923.182 1.235.221 1.755.221z"/>
    </g>
</svg>
