<svg xmlns="http://www.w3.org/2000/svg" viewBox="0 0 50 50"><defs/><g fill="none"><path stroke="currentColor" stroke-linecap="round" stroke-linejoin="round" d="M14.673 17.95l6.655 1.375 7.49-1.699 7.381 1.699v19.784l-7.506-1.484-7.365 1.639-7.215-1.64V17.95h.56zm6.591 1.696v19.15m7.697-20.845v19.674"/><path fill="currentColor" d="M33.572 20.232c.14-.133 3.403-3.305 3.403-6.597 0-2.005-1.698-3.635-3.785-3.635s-3.784 1.63-3.784 3.635c0 3.292 3.263 6.464 3.402 6.597a.55.55 0 00.382.153.55.55 0 00.382-.153zm-3.085-6.597c0-1.432 1.213-2.597 2.703-2.597 1.49 0 2.703 1.165 2.703 2.597 0 2.241-1.877 4.553-2.703 5.462-.826-.909-2.703-3.22-2.703-5.462z"/><path fill="currentColor" d="M34.812 14.038c0-.954-.728-1.73-1.622-1.73-.894 0-1.622.776-1.622 1.73 0 .955.728 1.731 1.622 1.731.894 0 1.622-.776 1.622-1.73zm-2.162 0c0-.317.242-.576.54-.576.298 0 .54.259.54.576 0 .318-.242.577-.54.577-.298 0-.54-.259-.54-.577z"/></g></svg>