<svg xmlns="http://www.w3.org/2000/svg" xmlns:xlink="http://www.w3.org/1999/xlink" viewBox="0 0 50 50"><defs/><defs><path id="a" d="M0 .147h27.981V34.63H0z"/></defs><g fill="none" fill-rule="evenodd" transform="translate(11 8)"><mask id="b" fill="#fff"><use xlink:href="#a"/></mask><path fill="currentColor" d="M25.766 32.733H2.216a.317.317 0 01-.317-.316V2.363c0-.175.142-.317.317-.317H19.65l.06.065v5.7c0 .722.584 1.307 1.305 1.307h5.067v23.299a.318.318 0 01-.316.316m1.966-24.68L20.768.454a.949.949 0 00-.7-.308H2.216A2.218 2.218 0 000 2.363v30.054c0 1.22.994 2.214 2.216 2.214h23.55a2.218 2.218 0 002.215-2.214V8.694a.948.948 0 00-.25-.642" mask="url(#b)"/><g mask="url(#b)"><path stroke="#A2AAAD" stroke-width=".1" d="M12.321 15l.679.393-.321.607-.679-.394zm3.001 2l.678.393-.322.607-.678-.393zm-2.923 2l.601.317-.398.683-.602-.317z"/><g fill="currentColor"><path d="M10.177 23.105c.142.074.32.026.4-.109a.272.272 0 00-.115-.38.302.302 0 00-.4.11.272.272 0 00.113.38h.002zm-.427.732c-.568-.298-.773-.978-.458-1.517.314-.54 1.03-.735 1.597-.436.567.3.773.979.458 1.518-.314.539-1.03.734-1.597.436z"/><path d="M7.863 23.53a.416.416 0 01.302-.518.444.444 0 01.545.286c.122.407.41.75.8.954.388.205.846.255 1.272.137a.445.445 0 01.545.288.416.416 0 01-.302.518 2.667 2.667 0 01-1.944-.21 2.45 2.45 0 01-1.218-1.456z"/><path d="M6.593 23.875a.416.416 0 01.302-.518.444.444 0 01.545.287c.218.727.732 1.34 1.428 1.705a3.127 3.127 0 002.28.247.445.445 0 01.544.287.416.416 0 01-.302.519c-.988.27-2.05.156-2.95-.32a3.712 3.712 0 01-1.847-2.207zm.47-12.818l5.27 2.775a.271.271 0 01.114.38l-1.39 2.382a.302.302 0 01-.399.108l-5.27-2.776a.271.271 0 01-.114-.379l1.39-2.381a.302.302 0 01.399-.11zm-.143.244l-1.389 2.382 5.27 2.775 1.39-2.382-5.27-2.775z"/><path d="M7.063 11.057l5.27 2.775a.271.271 0 01.114.38l-1.39 2.382a.302.302 0 01-.399.108l-5.27-2.776a.271.271 0 01-.114-.379l1.39-2.381a.302.302 0 01.399-.11zm-.143.244l-1.389 2.382 5.27 2.775 1.39-2.382-5.27-2.775zm10.417 5.167l5.27 2.776a.271.271 0 01.114.378l-1.39 2.383a.302.302 0 01-.399.108l-5.269-2.775a.271.271 0 01-.114-.38l1.389-2.382a.302.302 0 01.399-.108zm-.142.244l-1.39 2.382 5.27 2.775 1.39-2.382-5.27-2.775z"/><path d="M17.337 16.468l5.27 2.776a.271.271 0 01.114.378l-1.39 2.383a.302.302 0 01-.399.108l-5.269-2.775a.271.271 0 01-.114-.38l1.389-2.382a.302.302 0 01.399-.108zm-.142.244l-1.39 2.382 5.27 2.775 1.39-2.382-5.27-2.775zm-1.309-3.365c.763.401 1.039 1.315.616 2.04l-1.971 3.38a.37.37 0 01-.49.133l-2.134-1.124a.334.334 0 01-.14-.466l1.971-3.378c.423-.726 1.385-.987 2.148-.585zm-3.394 5.818c1.229.647 1.511 1.54.847 2.677l-3.684-1.94c.664-1.138 1.61-1.384 2.837-.737z"/></g></g></g></svg>