<svg xmlns="http://www.w3.org/2000/svg" viewBox="0 0 583 584">
  <g transform="rotate(-45 452.918 247.266)">
    <rect width="25.09" height="30" x="228.645" y="114.66" fill="#252C46"/>
    <rect width="25.09" height="90" x="34.645" y="84.66" fill="#252C46"/>
    <rect width="25.09" height="90" x="84.645" y="84.66" fill="#252C46"/>
    <rect width="25.09" height="90" x="504.645" y="84.66" fill="#252C46"/>
    <rect width="25.09" height="90" x="554.645" y="84.66" fill="#252C46"/>
    <rect width="25.09" height="30" x="365.434" y="114.66" fill="#252C46"/>
    <rect width="30" height="35.843" x="292.539" y="199.139" fill="#252C46"/>
    <rect width="30" height="35.843" x="292.539" y="337.139" fill="#252C46"/>
    <circle cx="307" cy="390" r="25" stroke="#252C46" stroke-width="30"/>
    <path stroke="#252C46" stroke-linecap="round" stroke-width="30" d="M256.088312 440.911688C269.117749 453.941125 287.117749 462 307 462 326.882251 462 344.882251 453.941125 357.911688 440.911688M224.268507 472.731493C245.441342 493.904329 274.691342 507 307 507 339.308658 507 368.558658 493.904329 389.731493 472.731493"/>
    <rect width="215.06" height="107.53" y="78.855" stroke="#252C46" stroke-width="30" rx="5"/>
    <rect width="215.06" height="107.53" x="399.94" y="78.855" stroke="#252C46" stroke-width="30" rx="5"/>
    <path stroke="#252C46" stroke-width="30" d="M307.5 0L307.5 0C337.193623-5.45463003e-15 361.26506 24.0714374 361.26506 53.7650602L361.26506 199.307229C361.26506 202.068653 359.026484 204.307229 356.26506 204.307229L258.73494 204.307229C255.973516 204.307229 253.73494 202.068653 253.73494 199.307229L253.73494 53.7650602C253.73494 24.0714374 277.806377 5.45463003e-15 307.5 0zM307.5 238.358434C353.478308 238.358434 377.339507 259.922615 379.083597 303.050978L379.083598 303.050978C379.195178 305.810147 377.048882 308.137349 374.289713 308.248929 374.222403 308.251651 374.155045 308.253012 374.08768 308.253012L240.912318 308.25301C238.150895 308.25301 235.91232 306.014435 235.91232 303.253012 235.91232 303.185647 235.913681 303.11829 235.916403 303.05098 237.660492 259.922616 261.521691 238.358434 307.5 238.358434z"/>
  </g>
</svg>
