<svg xmlns="http://www.w3.org/2000/svg" viewBox="0 0 50 50"><defs/><g fill="none" fill-rule="evenodd"><path fill="currentColor" d="M24.954 36.388c-1.047-.688-3.161-1.843-5.55-1.843-2.55 0-5.336.48-6.466.696V12.9c.983-.17 3.893-.633 6.466-.633 2.592 0 4.912 1.405 5.55 1.827v22.295z"/><path d="M19.404 11.844c3.216 0 5.974 2.027 5.974 2.027v23.34s-2.758-2.244-5.974-2.244-6.89.79-6.89.79v-23.21s3.674-.704 6.889-.704m0 .844c-2.283 0-4.844.37-6.042.567v21.478c1.342-.24 3.782-.61 6.042-.61 2.063 0 3.926.82 5.126 1.51v-21.31c-.795-.498-2.86-1.635-5.126-1.635"/><path fill="currentColor" d="M25.045 36.388V14.093c.638-.422 2.96-1.827 5.55-1.827 2.576 0 5.485.463 6.467.633V35.24c-1.13-.217-3.917-.696-6.467-.696-2.387 0-4.503 1.155-5.55 1.843"/><path d="M30.596 11.844c3.216 0 6.891.702 6.891.702v23.211s-3.675-.79-6.891-.79-5.975 2.245-5.975 2.245V13.871s2.759-2.027 5.975-2.027m0 .844c-2.267 0-4.331 1.137-5.126 1.634v21.31c1.2-.689 3.063-1.51 5.126-1.51 2.26 0 4.7.372 6.042.611V13.255c-1.198-.196-3.755-.567-6.042-.567"/></g></svg>