<svg viewBox="0 0 24 24" fill="none" xmlns="http://www.w3.org/2000/svg">
<path fill-rule="evenodd" clip-rule="evenodd" d="M1.46994 11.7646H21.6665C21.926 11.7646 22.1364 11.975 22.1364 12.2345V19.7652C22.1364 20.0247 21.926 20.2351 21.6665 20.2351H1.46994C1.2104 20.2351 1 20.0247 1 19.7652V12.2345C1 11.975 1.2104 11.7646 1.46994 11.7646ZM9.20193 18.2081C8.83368 18.3476 8.41633 18.4172 7.94971 18.4172C7.26248 18.4172 6.73482 18.2085 6.36673 17.7915C5.99848 17.3744 5.81444 16.7777 5.81444 16.0013C5.81444 15.5124 5.90389 15.0844 6.0825 14.7178C6.26126 14.351 6.5198 14.0701 6.85797 13.875C7.19615 13.6797 7.59325 13.5821 8.04914 13.5821C8.5286 13.5821 8.97179 13.6831 9.37842 13.8846L9.10235 14.5249C8.94399 14.4496 8.77656 14.3837 8.59977 14.3269C8.42328 14.2701 8.23757 14.2417 8.04279 14.2417C7.60187 14.2417 7.25508 14.3983 7.00243 14.7112C6.74993 15.0244 6.62361 15.4566 6.62361 16.0077C6.62361 16.5846 6.7451 17.0212 6.98807 17.317C7.2309 17.6129 7.58253 17.761 8.04279 17.761C8.23701 17.7615 8.43074 17.7415 8.62077 17.7014C8.81668 17.6592 9.01059 17.6083 9.20193 17.5487V18.2081ZM11.2181 18.4172C11.7491 18.4172 12.1656 18.2981 12.4673 18.0602C12.7691 17.8222 12.92 17.494 12.92 17.0757C12.92 16.8634 12.8826 16.679 12.8076 16.5225C12.7327 16.366 12.615 16.2254 12.4545 16.1009C12.2939 15.9767 12.0414 15.8425 11.6967 15.699C11.3905 15.5723 11.1787 15.4705 11.061 15.3933C10.9431 15.3162 10.8587 15.234 10.8073 15.1473C10.7559 15.0604 10.7302 14.9558 10.7302 14.8336C10.7302 14.6556 10.7944 14.5125 10.9229 14.4041C11.0513 14.2958 11.2397 14.2417 11.488 14.2417C11.8155 14.2417 12.1879 14.3297 12.6053 14.5054L12.8493 13.8781C12.4042 13.6808 11.9567 13.5821 11.5072 13.5821C11.0385 13.5821 10.6649 13.6949 10.3866 13.92C10.1084 14.1452 9.96924 14.454 9.96924 14.8464C9.96924 15.1595 10.0569 15.4276 10.2325 15.6506C10.4081 15.8737 10.71 16.0722 11.138 16.2458C11.5533 16.4131 11.8272 16.5579 11.9601 16.6801C12.0927 16.8023 12.1591 16.9513 12.1591 17.1274C12.1591 17.3223 12.0868 17.4779 11.9422 17.5937C11.7978 17.7094 11.5735 17.7675 11.2697 17.7675C11.062 17.7675 10.8378 17.7384 10.5969 17.6806C10.362 17.6247 10.1334 17.5449 9.91469 17.4424V18.1696C10.2529 18.3347 10.6873 18.4172 11.2181 18.4172ZM17.2997 13.6498L15.6557 18.3528H14.8465L13.209 13.6498H13.9989L14.9781 16.5739C15.0295 16.7133 15.084 16.893 15.1419 17.1127C15.1996 17.3326 15.2371 17.4961 15.2543 17.6034C15.2884 17.4127 15.3312 17.2238 15.3828 17.0372C15.4405 16.8227 15.4876 16.6639 15.524 16.561L16.5034 13.6498H17.2997Z" fill="currentColor"/>
<path fill-rule="evenodd" clip-rule="evenodd" d="M20.2576 20.7059V23.5301C20.2576 23.6547 20.2081 23.7742 20.12 23.8624C20.0318 23.9505 19.9123 24 19.7877 24H3.34885C3.22421 24 3.10468 23.9505 3.01655 23.8624C2.92842 23.7742 2.87891 23.6547 2.87891 23.5301V20.7059H20.2576ZM15.6496 0V4.721H20.2574V11.2941H2.87891V0.469939C2.87891 0.345304 2.92842 0.225773 3.01655 0.137642C3.10468 0.0495114 3.22421 0 3.34885 0H15.6496ZM8.77733 5.21738H5.15834C5.03564 5.21738 4.935 5.31107 4.92412 5.4309L4.92322 5.45235V6.0258C4.92322 6.14835 5.01705 6.24899 5.13688 6.25986L5.15819 6.26077H8.77733C8.90002 6.26077 9.00066 6.16709 9.01154 6.04726L9.01245 6.0258V5.45235C9.01245 5.32255 8.90713 5.21738 8.77733 5.21738ZM16.6974 0L18.5315 1.913L20.2574 3.67777L16.6714 3.67716L16.6719 0H16.6974ZM12.8666 2.08677H5.15834C5.03594 2.08677 4.93516 2.18076 4.92443 2.30044L4.92337 2.32189V2.89534C4.92337 3.01789 5.01721 3.11868 5.13703 3.12955L5.15834 3.13031H12.8667C12.9893 3.13031 13.0899 3.03662 13.1008 2.9168L13.1017 2.89534V2.32189C13.1017 2.19209 12.9964 2.08677 12.8666 2.08677Z" fill="currentColor"/>
</svg>
