<svg viewBox="0 0 24 24" fill="currentColor" xmlns="http://www.w3.org/2000/svg">
<path fill-rule="evenodd" clip-rule="evenodd" d="M6.50116 24H16.6335C17.5375 24.0002 18.4089 23.6624 19.0766 23.0529C19.7443 22.4435 20.1599 21.6063 20.2419 20.706H2.89388C2.97584 21.6061 3.39132 22.4431 4.05875 23.0526C4.72618 23.662 5.59734 23.9999 6.50116 24ZM15.6492 4.7208V0H6.50116C5.54044 0 4.61906 0.381647 3.93972 1.06098C3.26039 1.74032 2.87874 2.6617 2.87874 3.62242V11.2936H20.257V4.7208H15.6492ZM5.44472 5.21815H8.49058V5.21699C8.62898 5.21699 8.7617 5.27196 8.85956 5.36982C8.95742 5.46768 9.0124 5.60041 9.0124 5.7388C9.0124 5.8772 8.95742 6.00992 8.85956 6.10778C8.7617 6.20564 8.62898 6.26062 8.49058 6.26062H5.44472L5.35154 6.25246C5.2244 6.22814 5.11083 6.15742 5.03291 6.05406C4.95499 5.95069 4.91827 5.82205 4.92988 5.69312C4.9415 5.5642 5.00062 5.44419 5.09576 5.35641C5.1909 5.26864 5.31528 5.21936 5.44472 5.21815ZM18.5309 1.91371L16.6975 0H16.6719L16.6707 3.67717H20.257L18.5309 1.91371ZM5.44472 2.08726H12.5801C12.7185 2.08726 12.8512 2.14224 12.9491 2.2401C13.0469 2.33796 13.1019 2.47068 13.1019 2.60908C13.1019 2.74747 13.0469 2.8802 12.9491 2.97805C12.8512 3.07591 12.7185 3.13089 12.5801 3.13089H5.44472L5.35154 3.12157C5.2244 3.09725 5.11083 3.02653 5.03291 2.92317C4.95499 2.8198 4.91827 2.69116 4.92988 2.56223C4.9415 2.43331 5.00062 2.3133 5.09576 2.22552C5.1909 2.13775 5.31528 2.08847 5.44472 2.08726Z"/>
<path fill-rule="evenodd" clip-rule="evenodd" d="M3.32953 11.7642H19.8063C19.9605 11.7642 20.1112 11.7791 20.257 11.8077C21.3279 12.0177 22.1358 12.9613 22.1358 14.0937V17.9048C22.1358 19.0372 21.3279 19.9808 20.257 20.1908C20.1146 20.2187 19.9676 20.2336 19.8172 20.2343L19.8063 20.2343H3.32953L3.31867 20.2343C3.16823 20.2336 3.02116 20.2187 2.87874 20.1908C1.80791 19.9808 1 19.0371 1 17.9048V14.0937C1 12.9614 1.80791 12.0177 2.87874 11.8077C3.02459 11.7791 3.17531 11.7642 3.32953 11.7642ZM9.20111 18.2077C8.8342 18.3474 8.41489 18.4173 7.94898 18.4173C7.26234 18.4171 6.73392 18.2086 6.36606 17.7918C5.998 17.3748 5.81396 16.7773 5.81396 16.0016C5.81396 15.5124 5.90365 15.0849 6.08186 14.718C6.26123 14.3511 6.51981 14.0704 6.85759 13.8747C7.22173 13.6731 7.63304 13.5722 8.04915 13.5824C8.52787 13.5824 8.97048 13.6837 9.37815 13.884L9.10093 14.5247C8.94369 14.4501 8.77596 14.3849 8.60008 14.3267C8.42304 14.2707 8.23668 14.2416 8.04216 14.2416C7.60188 14.2416 7.25478 14.3989 7.00203 14.711C6.74927 15.0243 6.62348 15.4565 6.62348 16.0074C6.62348 16.5851 6.74461 17.0208 6.98805 17.3166C7.23032 17.6136 7.58208 17.7615 8.04216 17.7615C8.24134 17.7615 8.43352 17.7417 8.61989 17.701C8.81581 17.6588 9.00975 17.6079 9.20111 17.5484V18.2077ZM11.2185 18.4173C11.7484 18.4173 12.1654 18.2985 12.4671 18.0597C12.7688 17.8221 12.9202 17.4937 12.9202 17.0755C12.9202 16.8635 12.8818 16.6795 12.8072 16.5222C12.7244 16.3559 12.6034 16.2115 12.4543 16.1006C12.2936 15.9771 12.0408 15.8432 11.6972 15.6987C11.4768 15.6147 11.2637 15.5127 11.0601 15.3936C10.9583 15.3318 10.8719 15.2478 10.8073 15.1478C10.7536 15.0519 10.7271 14.9432 10.7304 14.8333C10.7304 14.6551 10.7945 14.513 10.9226 14.4047C11.0508 14.2964 11.2394 14.2416 11.4875 14.2416C11.8148 14.2416 12.1876 14.3301 12.6057 14.506L12.8492 13.8782C12.4277 13.6862 11.9705 13.5854 11.5073 13.5824C11.0379 13.5824 10.6641 13.6954 10.3868 13.9202C10.1073 14.145 9.96869 14.4536 9.96869 14.8461C9.96869 15.1606 10.0572 15.4285 10.2319 15.6498C10.4066 15.8735 10.7095 16.0726 11.1381 16.2462C11.5528 16.4128 11.8265 16.5583 11.9593 16.6806C12.0921 16.8029 12.1584 16.952 12.1584 17.1279C12.1615 17.2171 12.1435 17.3058 12.1059 17.3868C12.0683 17.4678 12.012 17.5387 11.9418 17.5938C11.7974 17.7103 11.5737 17.7685 11.2697 17.7685C11.0427 17.766 10.8167 17.7367 10.5965 17.6812C10.3614 17.6251 10.1327 17.5451 9.91394 17.4424V18.1692C10.2517 18.3346 10.6873 18.4173 11.2185 18.4173ZM16.503 13.6499H17.2986L15.6562 18.3533H14.8456L13.2091 13.6499H13.9988L14.9783 16.5735C15.0411 16.751 15.0955 16.9314 15.1414 17.1139C15.1863 17.2752 15.224 17.4385 15.2544 17.6031C15.2883 17.4126 15.3311 17.2237 15.3825 17.0371C15.4244 16.8771 15.4718 16.7186 15.5246 16.5618L16.503 13.6499Z"/>
</svg>
