<svg  viewBox="0 0 24 24" fill="none" xmlns="http://www.w3.org/2000/svg">
<path fill-rule="evenodd" clip-rule="evenodd" d="M18.6136 15.4853L21.0173 21.494C20.9173 21.503 20.817 21.5076 20.7167 21.5075H5.03595L11.8743 17.8372C12.6556 19.3278 13.8333 20.5933 14.8353 20.5933C16.3574 20.5933 18.2803 17.6796 18.6136 15.4853V15.4853ZM2.49943 8.41956C2.49943 10.6352 4.65541 14.1535 6.32729 14.1535C7.01855 14.1535 7.79088 13.5534 8.46076 12.6933L10.0245 17.8575L3.22672 21.5052L3.08937 21.5018C2.60884 21.4734 2.14043 21.3397 1.71732 21.1102C1.29422 20.8806 0.926777 20.5608 0.641024 20.1734C0.355272 19.7861 0.158203 19.3406 0.0637793 18.8686C-0.0306443 18.3966 -0.0201121 17.9095 0.0946295 17.4421L2.16955 8.98135C2.24499 8.67738 2.36095 8.39141 2.51068 8.12909C2.50393 8.22479 2.49943 8.32161 2.49943 8.41956V8.41956ZM22.5912 12.0864L23.905 17.4421C24.0975 18.2246 23.9953 19.0506 23.6181 19.7627C23.2409 20.4748 22.6149 21.0233 21.8594 21.3037L18.9525 14.0398L22.5912 12.0864V12.0864ZM18.1959 14.4451L18.2195 14.5014C18.2319 14.6184 18.2387 14.7378 18.2387 14.8594C18.2387 15.6936 17.8582 16.8296 17.3065 17.835L17.1815 18.0556C16.5004 19.2231 15.6008 20.1632 14.8353 20.1632C14.0697 20.1632 13.1713 19.2231 12.489 18.0556L12.3652 17.835L12.2571 17.6323L18.1959 14.4451V14.4451ZM14.5459 6.47974C15.0447 8.6042 16.8167 11.1475 18.2387 11.1475C19.3308 11.1475 20.63 9.6456 21.4 7.98611C21.5948 8.28446 21.7412 8.61996 21.8301 8.98135L22.3795 11.2263L18.3693 13.38C18.0798 12.6808 17.5896 12.0831 16.9606 11.6623C16.3316 11.2415 15.592 11.0165 14.8353 11.0158C14.3316 11.0168 13.833 11.117 13.368 11.3107C12.903 11.5045 12.4807 11.7879 12.1253 12.1448C11.7698 12.5017 11.4882 12.9251 11.2964 13.3909C11.1046 13.8567 11.0064 14.3557 11.0074 14.8594C11.0074 15.5191 11.1988 16.2948 11.5118 17.0593L10.7901 17.4466L9.07546 11.7836C9.71382 10.6926 10.1563 9.42269 10.1563 8.41956C10.1563 7.71141 9.966 7.04829 9.63388 6.47974H14.5459V6.47974ZM14.8353 11.4447C16.2651 11.4447 17.4877 12.3285 17.9921 13.5804L11.8979 16.851C11.6097 16.1383 11.433 15.429 11.433 14.8582C11.4318 13.9546 11.7895 13.0875 12.4276 12.4476C13.0656 11.8076 13.9316 11.4473 14.8353 11.4458V11.4447ZM6.57835 6.47974L8.30764 12.19C7.68955 13.076 6.96339 13.7234 6.32841 13.7234C5.56284 13.7234 4.66329 12.7822 3.98216 11.6158L3.85719 11.394C3.30553 10.3887 2.92499 9.25381 2.92499 8.41956C2.92499 8.06492 2.97903 7.72267 3.07923 7.40067C3.69069 6.81003 4.5078 6.4802 5.35794 6.48086H6.57835V6.47974ZM9.7307 8.41956C9.7307 9.20089 9.39633 10.2479 8.90096 11.2049L7.46889 6.48086L9.12838 6.47974C9.50891 7.03027 9.7307 7.69902 9.7307 8.41956V8.41956ZM18.6417 6.48086C19.6066 6.48086 20.4915 6.9008 21.0994 7.58756C20.9846 7.85777 20.8518 8.12797 20.7099 8.38916L20.5849 8.60983C19.9027 9.77732 19.0043 10.7185 18.2387 10.7185C17.4731 10.7185 16.5736 9.77732 15.8924 8.60983L15.7675 8.38916C15.433 7.78611 15.1721 7.14504 14.9906 6.47974H18.6417V6.48086Z" fill="currentColor"/>
<path fill-rule="evenodd" clip-rule="evenodd" d="M18.2387 10.7185C19.6978 10.7185 21.641 7.29821 21.641 5.41355C21.6417 4.96602 21.5543 4.52272 21.3837 4.10897C21.2131 3.69521 20.9627 3.31911 20.6468 3.00214C20.3309 2.68516 19.9556 2.43351 19.5424 2.26157C19.1292 2.08962 18.6862 2.00074 18.2387 2C17.7911 2.00059 17.3479 2.08936 16.9346 2.26124C16.5213 2.43312 16.1459 2.68475 15.8298 3.00174C15.5138 3.31873 15.2633 3.69488 15.0926 4.10871C14.922 4.52253 14.8345 4.96592 14.8353 5.41355C14.8353 7.29821 16.7785 10.7185 18.2387 10.7185Z" fill="#48A9C5"/>
<path d="M18.2387 7.12144C19.1783 7.12144 19.9399 6.35729 19.9399 5.41466C19.9399 4.47204 19.1783 3.70789 18.2387 3.70789C17.2992 3.70789 16.5376 4.47204 16.5376 5.41466C16.5376 6.35729 17.2992 7.12144 18.2387 7.12144Z" fill="currentColor"/>
<path fill-rule="evenodd" clip-rule="evenodd" d="M6.32841 13.7246C7.7875 13.7246 9.7307 10.3043 9.7307 8.41965C9.73144 7.97212 9.64403 7.52882 9.47345 7.11507C9.30286 6.70132 9.05246 6.32522 8.73653 6.00824C8.4206 5.69126 8.04532 5.43962 7.63214 5.26767C7.21895 5.09572 6.77594 5.00684 6.32841 5.0061C5.88078 5.00669 5.43765 5.09547 5.02434 5.26735C4.61102 5.43923 4.23562 5.69085 3.91957 6.00784C3.60351 6.32483 3.35301 6.70099 3.18236 7.11481C3.01171 7.52863 2.92425 7.97202 2.92499 8.41965C2.92499 10.3043 4.86819 13.7246 6.32841 13.7246Z" fill="#48A9C5"/>
<path d="M6.3284 10.1274C7.26792 10.1274 8.02955 9.36327 8.02955 8.42064C8.02955 7.47802 7.26792 6.71387 6.3284 6.71387C5.38889 6.71387 4.62726 7.47802 4.62726 8.42064C4.62726 9.36327 5.38889 10.1274 6.3284 10.1274Z" fill="currentColor"/>
<path fill-rule="evenodd" clip-rule="evenodd" d="M14.8363 20.1643C16.2954 20.1643 18.2386 16.744 18.2386 14.8594C18.2394 14.4118 18.152 13.9685 17.9814 13.5548C17.8108 13.141 17.5604 12.7649 17.2445 12.4479C16.9285 12.131 16.5533 11.8793 16.1401 11.7074C15.7269 11.5354 15.2839 11.4465 14.8363 11.4458C14.3887 11.4464 13.9456 11.5352 13.5323 11.707C13.119 11.8789 12.7436 12.1305 12.4275 12.4475C12.1114 12.7645 11.8609 13.1407 11.6903 13.5545C11.5196 13.9683 11.4322 14.4117 11.4329 14.8594C11.4329 16.744 13.3761 20.1643 14.8363 20.1643Z" fill="#48A9C5"/>
<path d="M14.8364 16.5672C15.7759 16.5672 16.5375 15.8031 16.5375 14.8605C16.5375 13.9178 15.7759 13.1537 14.8364 13.1537C13.8969 13.1537 13.1353 13.9178 13.1353 14.8605C13.1353 15.8031 13.8969 16.5672 14.8364 16.5672Z" fill="currentColor"/>
</svg>
