<svg viewBox="0 0 24 24" fill="none" xmlns="http://www.w3.org/2000/svg">
<path fill-rule="evenodd" clip-rule="evenodd" d="M3.08397 9.02457C3.08397 11.1045 5.10726 14.406 6.67695 14.406C7.3252 14.406 8.05076 13.843 8.67926 13.0355L10.1474 17.8829L3.76471 21.3084H0.399693C0.339109 21.3084 0.279318 21.2946 0.224839 21.2681C0.170361 21.2416 0.12262 21.203 0.085226 21.1553C0.0478316 21.1077 0.0217619 21.0521 0.00898714 20.9929C-0.00378766 20.9337 -0.00293328 20.8723 0.0114857 20.8135L3.27534 7.50944C3.2927 7.43872 3.32905 7.37408 3.38045 7.32251C3.43186 7.27093 3.49638 7.23437 3.56704 7.21677C3.24955 7.76624 3.08291 8.38984 3.08397 9.02444V9.02457ZM21.9408 12.4665L23.9885 20.8135C24.0029 20.8723 24.0038 20.9337 23.991 20.9929C23.9782 21.0521 23.9522 21.1077 23.9148 21.1553C23.8774 21.203 23.8296 21.2416 23.7752 21.2681C23.7207 21.2946 23.6609 21.3084 23.6003 21.3084H21.3306L18.5251 14.2995L21.9408 12.4665V12.4665ZM18.2073 15.6569L20.4694 21.3084H5.46545L11.8825 17.8642C12.6159 19.2633 13.7203 20.4502 14.6615 20.4502C16.0899 20.4502 17.8941 17.7163 18.2073 15.6569V15.6569ZM17.8163 14.68L17.8382 14.7351C17.8496 14.8448 17.8555 14.9561 17.8555 15.0688C17.8555 15.8521 17.4981 16.9173 16.9809 17.8614L16.8634 18.069C16.2237 19.1643 15.3802 20.0474 14.6615 20.0474C13.9431 20.0474 13.0995 19.1642 12.4598 18.069L12.3423 17.8614C12.3079 17.7986 12.2743 17.7354 12.2414 17.6718L17.8163 14.68V14.68ZM9.78001 7.20485L14.3901 7.20499C14.8581 9.19839 16.5207 11.5852 17.8555 11.5852C18.9363 11.5852 20.2324 10.0198 20.9348 8.3655L21.7429 11.6599L17.9787 13.68C17.4367 12.3772 16.1553 11.4621 14.6615 11.4621C12.6777 11.4621 11.0685 13.0764 11.0685 15.0688C11.0685 15.6888 11.2483 16.4172 11.5422 17.1344L10.8657 17.4974L9.25554 12.1814C9.85526 11.1585 10.2701 9.96617 10.2701 9.02444C10.2701 8.3607 10.0914 7.73905 9.78001 7.20485V7.20485ZM14.6615 11.8651C16.003 11.8651 17.1513 12.6946 17.6243 13.8702L11.9049 16.9395C11.6344 16.27 11.4677 15.6037 11.4677 15.0688C11.4677 13.2995 12.8977 11.8651 14.6617 11.8651H14.6615ZM6.91327 7.20499L8.53615 12.5624C7.95562 13.3951 7.27338 14.003 6.67709 14.003C5.95866 14.003 5.11507 13.1198 4.47532 12.0247L4.35785 11.817C3.84065 10.8729 3.48328 9.8077 3.48328 9.02444C3.48328 8.34864 3.69192 7.72164 4.04805 7.20485H6.91327V7.20499ZM7.74808 7.20499L9.30612 7.20485C9.675 7.73985 9.87201 8.37459 9.87089 9.02444C9.87089 9.75877 9.55684 10.7411 9.09132 11.6391L7.74795 7.20499H7.74808ZM20.3366 7.20499C20.5207 7.20499 20.6809 7.33069 20.7248 7.50944L20.7639 7.66776C20.6131 8.11039 20.4106 8.56591 20.1748 8.99633L20.0574 9.20401C19.4178 10.2993 18.5742 11.1823 17.8556 11.1823C17.137 11.1823 16.2935 10.2991 15.6537 9.20401L15.5362 8.99633C15.2171 8.41375 14.9588 7.78497 14.8078 7.20471L20.3366 7.20499V7.20499Z" fill="currentColor"/>
<path fill-rule="evenodd" clip-rule="evenodd" d="M17.8555 11.1822C19.2252 11.1822 21.0492 7.97323 21.0492 6.20367C21.0492 4.43439 19.6193 3 17.8555 3C16.0917 3 14.6616 4.43439 14.6616 6.20367C14.6616 7.97309 16.4857 11.1824 17.8555 11.1824V11.1822Z" fill="#48A9C5"/>
<path d="M17.8553 7.80696C18.7373 7.80696 19.4523 7.08976 19.4523 6.20505C19.4523 5.32035 18.7373 4.60315 17.8553 4.60315C16.9733 4.60315 16.2584 5.32035 16.2584 6.20505C16.2584 7.08976 16.9733 7.80696 17.8553 7.80696Z" fill="currentColor"/>
<path fill-rule="evenodd" clip-rule="evenodd" d="M6.67709 14.003C8.04679 14.003 9.87076 10.794 9.87076 9.02447C9.87076 7.2552 8.44089 5.8208 6.67709 5.8208C4.9133 5.8208 3.48315 7.2552 3.48315 9.02447C3.48315 10.7939 5.30726 14.0032 6.67709 14.0032V14.003Z" fill="#48A9C5"/>
<path d="M6.67693 10.6277C7.55891 10.6277 8.2739 9.9105 8.2739 9.02579C8.2739 8.14109 7.55891 7.42389 6.67693 7.42389C5.79494 7.42389 5.07996 8.14109 5.07996 9.02579C5.07996 9.9105 5.79494 10.6277 6.67693 10.6277Z" fill="currentColor"/>
<path fill-rule="evenodd" clip-rule="evenodd" d="M14.6617 20.0474C16.0313 20.0474 17.8553 16.8384 17.8553 15.0688C17.8553 13.2996 16.4254 11.8652 14.6617 11.8652C12.8979 11.8652 11.4677 13.2996 11.4677 15.0688C11.4677 16.8383 13.2918 20.0476 14.6617 20.0476V20.0474Z" fill="#48A9C5"/>
<path d="M14.6615 16.6721C15.5435 16.6721 16.2585 15.9549 16.2585 15.0702C16.2585 14.1855 15.5435 13.4683 14.6615 13.4683C13.7796 13.4683 13.0646 14.1855 13.0646 15.0702C13.0646 15.9549 13.7796 16.6721 14.6615 16.6721Z" fill="currentColor"/>
</svg>
