<svg xmlns="http://www.w3.org/2000/svg" viewBox="0 0 914 708"><defs/><g fill="none" fill-rule="evenodd"><path fill="#F4F5F7" d="M4.647 550.1c44.585-125.112 274.198-117.316 270.947-194.804-3.252-77.488-129.375-121.716-46.98-216.065 60.555-69.341 248.47-127.99 356.988-90.66 108.52 37.33 95.44 114.657 141.895 114.657 46.456 0 58.006-51.08 119.538-47.996 52.914 2.653 109.391 184.173 17.452 282.061-115.051 122.495 44.315 196.728-19.8 280.835-59.176 77.625-522.651-24.65-680.663-7.13C6.012 688.517-11.005 594.02 4.647 550.1"/><path fill="#F8BF24" d="M423.061 45.585c1.655 17.841-11.465 33.646-29.306 35.301-17.84 1.656-33.646-11.465-35.3-29.305-1.657-17.84 11.463-33.646 29.304-35.302 17.841-1.655 33.646 11.465 35.302 29.306"/><path fill="#EAAC0F" d="M409.569 22.152a32.297 32.297 0 015.753 15.655c1.656 17.84-11.465 33.646-29.306 35.302a32.316 32.316 0 01-21.81-5.873c6.473 9.194 17.55 14.765 29.55 13.65 17.84-1.654 30.96-17.46 29.305-35.3-.908-9.784-6.071-18.148-13.492-23.434"/><path fill="#EAAC0F" d="M408.125 62.454c.803 3.027-1.261 6.2-4.61 7.088-3.348.888-6.713-.846-7.516-3.873-.803-3.027 1.262-6.2 4.61-7.088 3.349-.888 6.713.846 7.516 3.873"/><path fill="#EAAC0F" d="M409.915 56.301c1.382.811 1.775 2.708.878 4.237-.898 1.53-2.745 2.111-4.128 1.3-1.382-.81-1.774-2.708-.878-4.237.898-1.529 2.745-2.11 4.128-1.3m.531-8.087c1.332.782 1.71 2.61.847 4.084-.866 1.474-2.647 2.035-3.98 1.253-1.331-.782-1.71-2.61-.845-4.084.865-1.474 2.646-2.035 3.978-1.253m-33.672-23.896c.917 1.114-.146 3.502-2.373 5.336-2.227 1.833-4.775 2.416-5.691 1.303-.917-1.114.145-3.503 2.373-5.336 2.226-1.833 4.775-2.416 5.691-1.303"/><path fill="#EAAC0F" d="M381.813 22.156c.348.845-.74 2.095-2.43 2.79-1.69.697-3.342.577-3.69-.27-.349-.843.739-2.093 2.43-2.79 1.689-.695 3.341-.575 3.69.27m9.695-3.134c.513.231.918.593 1.15 1.082.701 1.477-.43 3.525-2.526 4.574-2.097 1.05-4.364.703-5.065-.774-.23-.486-.262-1.035-.126-1.589-.608 1.056-.76 2.188-.312 3.133.876 1.845 3.71 2.278 6.327.968 2.618-1.31 4.031-3.87 3.156-5.715-.45-.947-1.416-1.52-2.604-1.679m-13.193 52.449c-.406-.542-.624-1.16-.585-1.812.118-1.967 2.504-3.473 5.329-3.362 2.824.111 5.018 1.796 4.9 3.764-.04.648-.326 1.245-.79 1.751 1.254-.762 2.075-1.869 2.15-3.128.148-2.458-2.592-4.564-6.121-4.702-3.529-.138-6.509 1.742-6.656 4.201-.077 1.262.61 2.431 1.773 3.288M365.164 37.14c.49-.11.977-.072 1.407.152 1.3.677 1.6 2.754.668 4.638-.931 1.884-2.74 2.863-4.041 2.186-.428-.223-.747-.598-.95-1.067.138 1.083.64 1.975 1.473 2.408 1.624.846 3.884-.377 5.047-2.73 1.165-2.355.79-4.949-.833-5.795-.835-.434-1.836-.32-2.771.208"/><path fill="#4954DB" d="M372.976 49.722c6.506 33.33-15.24 65.625-48.57 72.13-33.33 6.506-65.625-15.24-72.13-48.571-6.507-33.33 15.24-65.624 48.57-72.13s65.624 15.24 72.13 48.57"/><path fill="#2F44AD" d="M369.687 84.387c-15.334 13.205-42.104 27.667-76.897 14.619-34.363-12.886-40.885-45.273-41.048-46.108a61.328 61.328 0 00.533 20.383c6.506 33.33 38.8 55.077 72.131 48.57 21.243-4.145 37.764-18.775 45.281-37.464m-20.841-60.741l2.093 2.67a5.288 5.288 0 006.757 1.347l4.51-2.54a61.516 61.516 0 00-10.023-10.685l-2.294 1.676a5.288 5.288 0 00-1.043 7.532m-3.49 5.416l-5.926-7.417a5.286 5.286 0 00-5.329-1.85l-20.44 4.756a5.284 5.284 0 00-3.873 3.653l-4.667 15.806c-1 3.387 1.539 6.785 5.071 6.785h3.158c.78 0 1.55-.172 2.256-.505l27.874-13.145c3.089-1.456 4.007-5.415 1.876-8.083M317.712 16.76l25.882-8.363C333.9 2.738 322.637-.3 310.916.04a835.144 835.144 0 01-.116 11.607c-.06 3.625 3.464 6.228 6.912 5.113"/><path fill="#2F44AD" d="M321.033 53.31l-7.167 3.07a5.288 5.288 0 00-3.206 4.861V74.5a5.288 5.288 0 005.288 5.288h10.762c3.378 0 5.89-3.125 5.164-6.425l-3.595-16.327c-.713-3.24-4.197-5.03-7.246-3.724M277.86 76.827l17.949 7.422c3.482 1.44 7.309-1.12 7.309-4.887V61.264a5.29 5.29 0 00-2.166-4.269l-.891-.65a5.29 5.29 0 01-2.165-4.268V44.94c0-4.25-4.764-6.764-8.273-4.364a5.286 5.286 0 01-6.045-.053l-20.911-14.84c-8.486 11.84-12.775 26.645-11.213 41.98l10.9 11.41a5.288 5.288 0 006.736.76l3.837-2.532a5.289 5.289 0 014.933-.473m94.603-1.186c-.013-.004-.024-.011-.037-.016l-23.695-7.706c-3.948-1.282-7.767 2.275-6.768 6.302l6.291 25.358a5.288 5.288 0 006.43 3.853l3.781-.957a61.69 61.69 0 0013.998-26.834m-5.555-43.046L344.967 43.26a5.286 5.286 0 00-2.976 4.756v6.652a5.288 5.288 0 003.739 5.056l15.476 4.738a5.292 5.292 0 003.319-.074l9.58-3.406a61.471 61.471 0 00-7.198-28.387m-92.777-19.04l7.996 14.592a5.288 5.288 0 006.957 2.211l10.945-5.342a5.289 5.289 0 002.965-4.942l-.69-19.17c-.486.083-.97.151-1.457.247a61.19 61.19 0 00-26.716 12.404m62.059 76.853l-19.312-3.45c-3.241-.58-6.217 1.913-6.217 5.206v20.115l29.009-7.543-3.48-14.328z"/><path fill="#A0CAF3" d="M298.88 4.344c33.33-6.506 65.624 15.24 72.13 48.57 2.958 15.155.06 30.087-7.096 42.486 8.58-12.98 12.28-29.2 9.062-45.678-6.506-33.331-38.8-55.077-72.13-48.571-18.176 3.547-32.89 14.772-41.474 29.642 8.775-13.274 22.656-23.16 39.508-26.45"/><path fill="#E4E8EC" d="M735.688 414.668c-122.407 93.997-283.227 133.968-283.227 133.968v-11.61s145.92-39.501 249.077-110.217c110.333-75.637 94.207-124.222 37.653-159.25 0 0 119.966 52.296-3.503 147.109m55.648-118.57c-47.286-63.948-128.715-61.73-274.506-82.745-.937-.135-1.869-.273-2.794-.413-20.981-3.172-41.017-11.122-58.054-23.77-19.991-14.84-30.14-31.6-12.939-47.71 34.605-32.411 171.691-53.96 216.11-60.202l-.06-.092c-47.895 6.356-203.322 29.32-228.104 62.575-14.507 19.467-2.863 36.78 12.631 49.322-67.787-33.776-26.927-92.354 211.219-118.513a417.66 417.66 0 00-6.186-9.374c-35.666 2.55-144.72 13.179-258.669 52.646-100.042 34.65-126.465 129.862 16.066 155.017 109.466 19.319 237.337 21.798 226.269 71.745-11.069 49.947-339.57 128.983-355.842 136.75-16.272 7.769 197.957 88.507 197.957 88.507s417.707-137.416 316.902-273.742"/><path fill="#D0D8E2" d="M401.793 544.318l-.591-1.648c.79-.285 80.134-28.889 160.832-66.88 106.601-50.187 167.131-93.845 175.043-126.253 1.975-8.082.553-15.903-4.223-23.24-25.952-39.867-146.464-61.453-234.459-77.213-44.505-7.972-82.94-14.856-98.674-22.118-29.24-13.495-43.89-30.974-41.248-49.219 2.861-19.759 25.806-39.367 66.354-56.705 46.817-20.017 115.367-36.699 203.754-49.58l.252 1.733c-88.235 12.86-156.641 29.5-203.315 49.457-39.957 17.086-62.541 36.224-65.311 55.346-2.522 17.41 11.772 34.236 40.247 47.378 15.53 7.168 53.863 14.033 98.25 21.984 45.617 8.17 97.32 17.431 141.584 29.801 51.548 14.404 82.304 30.164 94.031 48.178 5.053 7.762 6.553 16.042 4.46 24.614-4.504 18.445-25.08 40.148-61.16 64.504-28.752 19.41-67.392 40.58-114.85 62.922-80.772 38.026-160.183 66.655-160.976 66.94"/><path fill="#4954DB" d="M63.95 533.91s67.918-33.304 105.908-11.388c37.34 21.542-31.839 90.501-84.447 88.811-52.608-1.69-21.462-77.424-21.462-77.424"/><path fill="#A0CAF3" d="M41.333 562.912c4.52-21.896 25.932-35.98 47.828-31.461 21.894 4.52 35.98 25.933 31.46 47.827-4.52 21.895-25.933 35.981-47.828 31.461-21.894-4.519-35.98-25.932-31.46-47.827"/><path fill="#2F44AD" d="M46.977 564.077c3.876-18.778 22.24-30.858 41.02-26.98 18.776 3.875 30.856 22.24 26.98 41.016-3.876 18.777-22.24 30.858-41.019 26.982-18.777-3.876-30.857-22.24-26.98-41.018"/><path fill="#A0CAF3" d="M97.939 574.597c-1.934 9.367-11.096 15.395-20.464 13.46-9.367-1.934-15.394-11.095-13.46-20.463 1.934-9.368 11.096-15.394 20.463-13.461 9.368 1.934 15.395 11.096 13.461 20.464"/><path fill="#2F44AD" d="M84.198 561.474a10.377 10.377 0 00-1.17-.313c-5.478-1.131-10.855 2.406-11.986 7.883-1.13 5.479 2.41 10.86 7.885 11.987a10.08 10.08 0 007.625-1.46 10.08 10.08 0 004.36-6.424 10.086 10.086 0 00-1.46-7.626 10.076 10.076 0 00-5.254-4.047m-7.548 22.549a13.534 13.534 0 01-7.06-5.437 13.535 13.535 0 01-1.961-10.246c1.519-7.361 8.744-12.112 16.103-10.593a13.53 13.53 0 018.632 5.858 13.545 13.545 0 011.962 10.246 13.54 13.54 0 01-5.858 8.632 13.54 13.54 0 01-10.247 1.96 13.75 13.75 0 01-1.571-.42"/><path fill="#A0CAF3" d="M85.999 558.366l5.998-18.04-7.447-2.477.724 10.258 1.012 1.296-1.471 8.57zM75.67 592.787l1.47-8.569-1.183-.394-5.998 18.041 7.447 2.476-.725-10.258zm-4.569-41.721l4.381 7.51 1.16-.46-7.002-17.675-7.296 2.89 7.15 7.392zm19.753 40.058l-4.38-7.51-1.16.459 7.001 17.676 7.296-2.89-7.149-7.392zM60.537 562.1l8.183 2.938.593-1.097-16.724-9.04-3.732 6.904 10.228 1.067zm42.333 17.218l-1.452.771-8.183-2.936-.593 1.097 16.724 9.04 3.733-6.905zm-43.332-1.974l8.156-3.011-.25-1.22-18.623 3.825 1.578 7.687 8.522-5.757zm42.879-12.497l-8.155 3.01.25 1.22 18.623-3.824-1.58-7.687-8.521 5.757zM90.05 560.85l11.806-14.9-6.152-4.874-2.827 9.886.507 1.566-4.313 7.548zm-18.144 20.49l-11.807 14.9 6.15 4.874 2.829-9.886-.507-1.565 4.313-7.55zm1.057-42.707l4.19 9.392 1.393.872 1.55 8.554 1.245-.035-.533-19.004zm10.446 54.661l-1.55-8.555-1.245.035.533 19.004 7.845-.22-4.19-9.392zm13.7-6.756l-6.686-5.559-.931.829 12.623 14.214 5.868-5.211-9.246-4.502zm-32.263-30.886l6.686 5.56.931-.83-12.623-14.215-5.869 5.212 9.247 4.502zm38.415 16.904l-8.693.04-.183 1.233 18.808 2.775 1.145-7.764-9.976 2.494zm-55.645.794l9.977-2.495 1.101-1.22 8.693-.04.183-1.234-18.808-2.774zm21.987 5.332l-.654-1.062-16.19 9.963 4.112 6.684 6.04-8.323.057-1.644zm22.749-15.173l.653 1.062 16.192-9.963-4.114-6.684-6.039 8.323-.057 1.644z"/><path fill="#4954DB" d="M89.492 581.808l5.528 6.226a20.304 20.304 0 001.95-1.611l-6.546-5.443-.932.827zm-17.96-20.598l.932-.827-2.737-3.082a20.65 20.65 0 00-1.3 1.329l3.105 2.58zm1.684-6.518l2.266 3.884 1.16-.46-1.714-4.324c-.585.272-1.157.573-1.712.9m-4.496 10.345l.593-1.097-3.375-1.824a19.665 19.665 0 00-.816 1.63l3.598 1.291zm17.279-6.672l1.955-5.88c-.196-.048-.392-.098-.591-.139a21.145 21.145 0 00-1.54-.25l-1.008 5.876 1.184.393zm-5.385 26.409l.192 6.88c.784.101 1.563.157 2.335.166l-1.281-7.08-1.246.034zm-17.092-15.162l3.866-.018.181-1.233-3.76-.555a19.794 19.794 0 00-.288 1.806m8.385 11.728l-3.222 4.066c.47.509.966.995 1.489 1.454l2.71-4.746-.977-.774zm9.435-23.924l-.15-5.367c-.68.073-1.353.182-2.016.324l.92 5.078 1.246-.035zm5.132 26.198l-1.159.46 2.836 7.16a20 20 0 002.335-.744l-4.012-6.876zm7.912-9.785l8.623 1.272c.14-.853.223-1.702.252-2.545l-8.692.04-.183 1.233zm-.124-5.973l.251 1.222 8.248-1.695a19.891 19.891 0 00-.717-2.399l-7.782 2.872zm7.157 12.233l-8.184-2.936-.591 1.097 7.645 4.134a19.69 19.69 0 001.243-2.355l-.114.06zm-8.413-15.518l6.673-4.106a19.903 19.903 0 00-1.494-1.895l-5.832 4.94.653 1.061zm-25.311 9.762l-.251-1.221-3.953.812c.065.626.158 1.246.28 1.858l3.924-1.45zm1.256 3.287l-3.837 2.36c.267.6.563 1.184.887 1.752l3.603-3.05-.653-1.063zm8.19 6.598l-1.184-.394-1.897 5.709c.647.34 1.318.647 2.012.916l1.07-6.231zm12.91-23.368l4.387-5.538a19.67 19.67 0 00-1.979-1.164l-3.387 5.928.978.774zm-49.735 58.396s7.475-13.287 26.89-13.771c19.415-.485 8.229 49.832 8.229 49.832s-14.44 1.111-25.131-3.227c-8.407-3.412-9.988-32.834-9.988-32.834"/><path fill="#2F44AD" d="M36.366 629.072c1.48-11.528 12.026-19.674 23.555-18.193 11.528 1.48 19.673 12.025 18.193 23.553-1.48 11.53-12.026 19.674-23.555 18.194-11.528-1.48-19.673-12.026-18.193-23.554"/><path fill="#F8BF24" d="M38.903 630.241c1.156-9.002 9.39-15.362 18.393-14.206 9.002 1.156 15.362 9.391 14.206 18.393-1.156 9.001-9.391 15.362-18.392 14.206-9.002-1.157-15.363-9.39-14.207-18.393"/><path fill="#FFF" d="M40.334 630.426c-.969 7.548 4.364 14.452 11.912 15.422.405.052.808.077 1.21.094-6.908-1.506-11.638-8.065-10.72-15.208m0-.001c.917-7.143 7.15-12.293 14.214-12.006a14.087 14.087 0 00-1.193-.214c-7.548-.969-14.453 4.364-15.422 11.912"/><path fill="#2F44AD" d="M85.177 676.049s16.087 21.667 91.16 22.645c86.388 1.124 160.076-19.42 210.03-53.104 49.955-33.683 106.472-96.942 103.375-137.438L85.177 676.049z"/><path fill="#4954DB" d="M87.37 529.765c-55.433 44.042-20.362 137.037-2.192 146.284 18.17 9.247 180.397 15.58 276.742-44.66 75.19-47.012 123.319-98.928 127.823-123.237 4.505-24.311-116.25-41.2-161.767-31.834-45.516 9.364-185.174 9.406-240.606 53.447"/><path fill="#FFF" d="M89.857 531.928c55.433-44.041 195.09-44.083 240.606-53.447 38.704-7.963 131.787 3.057 156.025 21.479-19.468-19.707-118.318-31.913-158.512-23.642-45.516 9.364-185.175 9.406-240.606 53.447-53.947 42.86-22.18 132.074-3.691 145.35-18.611-18.813-45.414-102.197 6.178-143.187"/><path fill="#A0CAF3" d="M100.724 666.7c-9.735-1.25-14.66-6.462-14.96-6.79l-.335-.365-.153-.469c-11.215-34.273-9.784-65.225 4.252-91.996 25.524-48.686 84.852-66.787 85.448-66.965l1.303 4.382c-.577.173-58.112 17.765-82.717 64.733-13.356 25.496-14.738 55.07-4.11 87.9 1.781 1.651 10.846 8.851 28.071 3.025 10.251-3.467 49.148-21.51 92.61-47.513 37.66-22.532 88.203-56.83 115.12-92.27l3.64 2.764c-27.359 36.023-78.407 70.691-116.413 93.43-43.754 26.178-83.085 44.401-93.493 47.92-7.308 2.471-13.389 2.84-18.263 2.213m122.763-24.042s16.997-13.72 51.237-21.92c0 0-40.151 19.067-46.746 24.417l-4.491-2.497z"/><path fill="#2F44AD" d="M209.875 649.249s24.99-24.413 64.85-28.513c0 0-37.298 8.979-56.79 26.325l-8.06 2.188z"/><path fill="#2F44AD" d="M247.015 666.98c-1.523 11.867-12.378 20.251-24.245 18.728-11.866-1.525-20.25-12.379-18.727-24.246 1.524-11.866 12.38-20.25 24.245-18.727 11.867 1.524 20.251 12.38 18.727 24.245"/><path fill="#F8BF24" d="M240.21 666.976c-1.19 9.265-9.667 15.813-18.934 14.622-9.264-1.19-15.812-9.665-14.623-18.933 1.192-9.264 9.667-15.811 18.934-14.622 9.266 1.19 15.812 9.665 14.623 18.933"/><path fill="#FFF" d="M210.6 663.173c.943-7.353 7.36-12.654 14.63-12.357a14.446 14.446 0 00-1.228-.222c-7.769-.997-14.877 4.492-15.874 12.262-.998 7.769 4.492 14.877 12.261 15.875.418.053.832.079 1.244.095-7.109-1.55-11.978-8.3-11.034-15.653"/><path fill="#2F44AD" d="M350.084 641.676s-8.813-31.874 38.779-57.906c36.259-19.834 70.342-29.558 70.342-29.558l3.196 26.402-112.317 61.062z"/><path fill="#4954DB" d="M370.098 599.083s66.617-50.557 112.488-34.846c45.087 15.442-15.323 104.95-72.759 114.29-57.437 9.339-39.729-79.444-39.729-79.444"/><path fill="#A0CAF3" d="M441.22 636.271c-.254 24.715-20.495 44.544-45.21 44.291-24.715-.254-44.544-20.495-44.29-45.21.253-24.715 20.494-44.544 45.21-44.29 24.714.253 44.544 20.494 44.29 45.21"/><path fill="#2F44AD" d="M434.85 636.206c-.219 21.196-17.578 38.202-38.774 37.985-21.196-.217-38.203-17.577-37.985-38.773.217-21.196 17.576-38.202 38.773-37.985 21.196.217 38.203 17.577 37.985 38.773"/><path fill="#1D258E" d="M415.617 636.009c-.108 10.574-8.77 19.059-19.344 18.95-10.574-.108-19.058-8.77-18.95-19.344.109-10.574 8.77-19.058 19.344-18.95 10.574.109 19.058 8.769 18.95 19.344"/><path fill="#2F44AD" d="M397.92 624.69a11.57 11.57 0 00-1.334-.094c-6.185-.062-11.268 4.916-11.33 11.101-.063 6.182 4.922 11.268 11.1 11.33a11.145 11.145 0 007.962-3.204 11.147 11.147 0 003.368-7.896 11.146 11.146 0 00-3.204-7.964 11.127 11.127 0 00-6.562-3.274m-3.399 26.067a14.963 14.963 0 01-8.816-4.399 14.974 14.974 0 01-4.303-10.7c.084-8.309 6.915-14.998 15.223-14.913a14.965 14.965 0 0110.608 4.522 14.97 14.97 0 014.305 10.7 14.97 14.97 0 01-4.523 10.61 14.973 14.973 0 01-10.7 4.303 15.027 15.027 0 01-1.793-.123"/><path fill="#A0CAF3" d="M407.2 625.165l.936 1.014 15.45-14.249-5.882-6.378-4.784 10.313.286 1.796-6.005 7.504zm-21.46 21.293l-.934-1.013-15.451 14.248 5.882 6.379 4.785-10.313-.286-1.796 6.005-7.505zm-13.757-7.498l9.425-1.89-.064-1.377-20.996.984.407 8.667 10.294-4.825.934-1.559zm48.975-6.296l-9.424 1.89.064 1.377 20.996-.984-.407-8.667-10.294 4.825-.935 1.559zm-45.27-10.181l8.435 4.611.836-1.097-16.716-12.741-5.26 6.899 10.988 2.921 1.718-.593zm41.565 26.658l-8.434-4.611-.836 1.097 16.715 12.741 5.26-6.9-10.987-2.92-1.718.593zm-13.43 10.24l-3.497-8.953-1.345.302 4.615 20.505 8.464-1.904-6.54-9.301-1.697-.649zm-22.941-57.088l6.539 9.301 1.698.649 3.497 8.953 1.345-.302-4.614-20.505-8.465 1.904zm7.923 46.56l-9.646 18.674 7.708 3.982.969-11.327-.883-1.59 3.076-9.106-1.224-.633zm15.333-26.083l9.645-18.673-7.71-3.983-.967 11.328.882 1.589-3.075 9.107 1.225.632zm14.267 1.709l-8.21 4.998.53 1.272 19.394-8.105-3.346-8.005-8.023 8.055-.345 1.785zm-43.868 22.665l8.21-4.998-.532-1.272-19.392 8.105 3.346 8.005 8.022-8.054.346-1.786zm47.433-7.06l-1.413 1.145-9.502-1.448-.41 1.317 20.066 6.255 2.583-8.283-11.324 1.014zm-49.586-9.69l9.502 1.449.41-1.317-20.065-6.256-2.583 8.284 11.324-1.014 1.412-1.146zm39.056 25.05l-6.347-7.217-1.162.745 11.35 17.69 7.303-4.684-9.326-6.503-1.818-.031zm-29.938-39.264l6.347 7.216 1.16-.745-11.35-17.69-7.301 4.685 9.325 6.503 1.819.031zm13.816 44.294l-.223-9.61-1.368-.175-2.676 20.847 8.605 1.105-2.965-10.976-1.373-1.191zm3.897-39.539l2.676-20.847-8.605-1.106 2.964 10.977 1.373 1.191.224 9.609 1.368.176z"/><path fill="#4954DB" d="M407.983 645.627l7.321 5.58a22.173 22.173 0 001.773-2.162l-8.258-4.515-.836 1.097zm-23.86-18.533l.836-1.097-3.623-2.761a22.364 22.364 0 00-1.128 1.717l3.915 2.14zm.443-7.431l3.283 3.733 1.16-.745-2.776-4.328c-.577.42-1.134.867-1.667 1.34m-2.681 12.18l.41-1.316-4.049-1.263a22.084 22.084 0 00-.539 1.942l4.178.637zm17.329-10.909l.873-6.795c-.224-.01-.445-.022-.67-.024-.58-.006-1.154.018-1.724.055l.154 6.589 1.367.175zm-.233 29.796l1.67 7.424a21.93 21.93 0 002.569-.317l-2.894-7.41-1.345.303zm-21.765-12.82l4.191-.84-.064-1.377-4.197.196-.002.045c-.007.666.021 1.325.072 1.976m11.588 10.943l-2.632 5.096c.617.453 1.26.874 1.923 1.261l1.934-5.724-1.225-.633zm5.156-27.959l-1.303-5.793c-.722.226-1.428.486-2.118.78l2.077 5.316 1.345-.303zm11.132 27.333l-1.16.745 4.598 7.167a21.912 21.912 0 002.374-1.303l-5.812-6.609zm6.506-12.297l9.625-.45a21.958 21.958 0 00-.267-2.816l-9.422 1.89.064 1.377zm-1.403-6.453l.53 1.272 8.59-3.59a21.818 21.818 0 00-1.287-2.452l-7.833 4.77zm10.362 11.753l-9.502-1.449-.41 1.316 9.175 2.861c.344-.912.625-1.854.847-2.819l-.11.09zm-12.422-15.051l6.367-5.872a22.023 22.023 0 00-2.023-1.737l-5.279 6.595.935 1.014zm-25.388 15.967l-.532-1.272-4.116 1.72c.203.666.435 1.32.698 1.957l3.95-2.405zm2.059 3.299l-3.66 3.376c.416.593.861 1.165 1.333 1.713l3.262-4.076-.935-1.013zm10.288 5.419l-1.367-.175-.848 6.596c.776.231 1.57.422 2.378.567l-.163-6.988zm9.043-28.094l3.585-6.94a21.417 21.417 0 00-2.395-.844l-2.415 7.151 1.225.633zm-5.012-135.003s4.435-5.551 8.171-19.84l59.87-14.031s-24.154 14.97-23.313 30.623l-20.202 6.674-24.526-3.425z"/><path fill="#2F44AD" d="M467.166 453.895l-59.87 14.032c-.234.896-.47 1.757-.71 2.584.002 0 17.143.25 30.799-1.262 5.088-.564 8.919.002 11.725.934 6.883-9.357 18.056-16.288 18.056-16.288"/><path fill="#4954DB" d="M396.963 394.153s66.39-22.338 98.608 2.39c31.667 24.301-40.202 79.22-88.293 71.291-48.09-7.93-10.315-73.68-10.315-73.68"/><path fill="#A0CAF3" d="M443.489 442.676c-6.804 19.552-28.17 29.887-47.722 23.083-19.552-6.804-29.886-28.17-23.083-47.722 6.804-19.552 28.17-29.887 47.722-23.084 19.553 6.805 29.887 28.17 23.083 47.723"/><path fill="#2F44AD" d="M438.449 440.922c-5.835 16.769-24.16 25.632-40.928 19.797-16.768-5.836-25.632-24.16-19.797-40.928 5.835-16.768 24.16-25.632 40.928-19.797 16.769 5.835 25.632 24.159 19.797 40.928"/><path fill="#1D258E" d="M423.234 435.627c-2.911 8.366-12.053 12.787-20.418 9.876-8.366-2.91-12.788-12.052-9.877-20.418 2.91-8.365 12.053-12.787 20.419-9.876 8.365 2.91 12.787 12.053 9.876 20.418"/><path fill="#2F44AD" d="M412.21 421.914a9.712 9.712 0 00-1.035-.43c-4.894-1.702-10.259.893-11.96 5.784-1.701 4.893.896 10.262 5.784 11.96a9.33 9.33 0 007.178-.416 9.323 9.323 0 004.781-5.369 9.336 9.336 0 00-.415-7.177 9.324 9.324 0 00-4.334-4.352m-9.663 19.785a12.52 12.52 0 01-5.822-5.847 12.539 12.539 0 01-.558-9.644c2.288-6.573 9.495-10.06 16.069-7.773a12.539 12.539 0 017.214 6.425 12.539 12.539 0 01.558 9.644 12.543 12.543 0 01-6.425 7.215 12.539 12.539 0 01-9.644.557 12.808 12.808 0 01-1.392-.577"/><path fill="#A0CAF3" d="M419.45 424.771l.47 1.054 16.073-7.184-2.966-6.635-6.553 6.91-.253 1.501-6.771 4.354zm-22.725 11.17l-.471-1.054-16.073 7.184 2.966 6.635 6.553-6.91.253-1.502 6.772-4.353zm-8.918-9.628l7.986 1.018.317-1.11-16.93-4.829-1.993 6.99 9.46-1.082 1.16-.987zm40.56 8.086l-7.985-1.019-.318 1.111 16.93 4.828 1.993-6.988-9.461 1.08-1.16.988zm-33.217-20.176l5.464 5.913.956-.647-9.865-14.58-6.02 4.072 7.943 5.254 1.522-.012zm25.874 32.266l-5.464-5.913-.956.647 9.866 14.58 6.019-4.072-7.942-5.254-1.523.012zm-13.396 4.541l-.385-8.04-1.148-.12-1.815 17.51 7.229.75-2.707-9.13-1.174-.97zm-2.962-51.447l2.707 9.13 1.174.97.384 8.04 1.149.12 1.814-17.51-7.228-.75zm-6.15 39.078l-12.645 12.248 5.057 5.22 3.794-8.734-.276-1.498 4.874-6.406-.803-.83zm19.14-16.61l12.648-12.248-5.057-5.22-3.795 8.734.276 1.497-4.874 6.407.803.83zm10.87 5.167l-7.851 1.776.082 1.151 17.56-1.253-.517-7.249-8.522 4.251-.751 1.324zm-40.88 6.275l7.854-1.775-.082-1.152-17.561 1.254.518 7.25 8.52-4.252.752-1.325zm39.542 7.066l-1.426.532-7.157-3.688-.677.935 14.257 10.328 4.264-5.886-9.261-2.22zm-36.775-20.938l7.156 3.687.678-.934-14.258-10.328-4.263 5.886 9.26 2.221 1.427-.532zm24.313 30.32l-3.111-7.426-1.12.281 4.283 17.076 7.049-1.769-5.666-7.653-1.435-.51zm-13.278-39.17l3.112 7.425 1.119-.28-4.283-17.077-7.05 1.77 5.667 7.652 1.435.51zm-.864 38.854l2.389-7.687-1.04-.505-7.693 15.834 6.537 3.177.579-9.506-.772-1.313zm13.656-30.346l7.694-15.835-6.537-3.176-.578 9.505.772 1.312-2.39 7.69 1.039.504z"/><path fill="#4954DB" d="M414.604 441.224l4.321 6.386a18.58 18.58 0 001.986-1.243l-5.35-5.79-.957.647zm-13.99-21.087l.956-.647-2.14-3.161a18.37 18.37 0 00-1.352 1.063l2.536 2.745zm2.336-5.781l1.61 3.84 1.12-.28-1.048-4.178a18.66 18.66 0 00-1.681.618m-5.382 8.952l.678-.935-2.878-2.084a18.23 18.23 0 00-.946 1.399l3.146 1.62zm16.671-4.028l2.508-5.163c-.175-.067-.348-.137-.526-.198-.46-.16-.92-.294-1.382-.416l-1.64 5.271 1.04.505zm-8.146 23.59l-.657 6.34c.706.187 1.415.333 2.124.434l-.319-6.655-1.148-.119zm-13.852-15.991l3.55.452.318-1.11-3.385-.965c-.004.012-.01.023-.013.035a18.53 18.53 0 00-.47 1.588m6.275 11.782l-3.45 3.343c.368.524.765 1.03 1.188 1.514l3.065-4.027-.803-.83zm11.563-20.818l.513-4.946a18.573 18.573 0 00-1.89.053l.229 4.774 1.148.119zm1.535 24.673l-1.12.28 1.735 6.918c.755-.086 1.5-.222 2.234-.4l-2.85-6.798zm8.45-8.024l7.761 2.213c.232-.766.411-1.535.54-2.306l-7.985-1.018-.316 1.111zm.609-5.498l.082 1.151 7.778-.554a18.265 18.265 0 00-.368-2.29l-7.492 1.693zm5.087 12.098l-7.156-3.688-.678.935 6.52 4.722c.516-.631.991-1.305 1.425-2.011l-.11.042zm-5.841-15.267l6.625-2.96a18.678 18.678 0 00-1.144-1.92l-5.952 3.826.471 1.054zm-24.42 5.894l-.082-1.152-3.728.266c-.016.582-.006 1.163.032 1.74l3.778-.854zm.753 3.169l-3.808 1.7c.173.584.373 1.156.601 1.718l3.68-2.364-.473-1.054zm6.72 7.05l-1.039-.505-2.435 5.011c.554.39 1.133.753 1.737 1.085l1.737-5.59zm14.684-19.888l4.7-4.551a18.34 18.34 0 00-1.675-1.31l-3.828 5.033.803.829z"/><path fill="#1D258E" d="M360.628 526.062s49.147-9.439 66.332-25.372c17.186-15.932-72.512-17.67-100.381-13.49-27.87 4.177 34.05 38.862 34.05 38.862"/><path fill="#EAAC0F" d="M249.034 345.58s8.138-4.038 5.252-9.012c-2.887-4.974-7.083-6.65-13.007-6.953-5.923-.302-18.386-3.612-22.582 2.37-4.195 5.984-6.442 31.982-6.442 31.982l14.388 7.091s19.877-15.694 22.39-25.478"/><path fill="#F8BF24" d="M245.134 342.371c.034-.076 3.185-7.472-3.16-12.709.87.063 1.704.154 2.498.289 5.147 5.785 2.098 12.956 2.062 13.037a.764.764 0 01-1.008.392.767.767 0 01-.392-1.009m-23.265 2.203c.25-.099.49-.22.715-.356.04.42.113.815.219 1.183a24.703 24.703 0 00-.934-.827m-2.866-.219l.094.06c.685.44 6.157 4.124 8.116 10.63a.763.763 0 00.943.513l.009-.002a.766.766 0 00.513-.953c-.734-2.435-1.898-4.489-3.145-6.159a6.23 6.23 0 001.503.376c.986.126 1.826-.035 2.522-.45a4.304 4.304 0 002.056 1.15c.87.208 1.81.167 2.814-.12.848-.245 1.74-.667 2.672-1.265a.765.765 0 10-.826-1.288c-1.654 1.063-3.092 1.462-4.272 1.192a2.809 2.809 0 01-1.347-.728c.655-1.013.716-2.15.718-2.212.005-.516.059-10.522-1.967-16.653a33.508 33.508 0 00-1.615-.008c2.114 5.751 2.055 16.504 2.054 16.627-.001.001-.07 1.201-.835 1.845-.434.364-1.014.491-1.78.393-2.342-.299-3.387-1.863-3.107-4.645a.764.764 0 00-1.341-.575c-.015.016-1.573 1.786-2.871 1.035a4.532 4.532 0 01-.094-.058.766.766 0 00-.814 1.295m19.523-2.455a.765.765 0 01-.975-.792c.006-.084.524-7.56-2.267-12.16.638.078 1.263.158 1.865.235 2.415 4.974 1.953 11.698 1.928 12.038a.765.765 0 01-.551.678"/><path fill="#F8BF24" d="M237.673 367.883s3.722-4.86 9.151-10.334c5.43-5.475 9.576-12.315 6.946-15.495-2.63-3.18-14.762-7.424-17.766-3.111-3.003 4.313-3.049 6 2.271 9.733 0 0-12.166 4.076-13.49 13.17-1.326 9.094 10.517 8.952 12.888 6.037"/><path fill="#FFF" d="M236.695 368.165s3.723-4.86 9.15-10.335c5.43-5.475 9.577-12.315 6.947-15.495-2.094-2.531-10.207-5.732-14.945-4.758 4.5-1.727 13.676 1.761 15.923 4.477 2.63 3.179-1.516 10.02-6.945 15.495-5.43 5.474-9.151 10.334-9.151 10.334-.556.682-1.633 1.21-2.935 1.505.854-.304 1.548-.721 1.956-1.223"/><path fill="#F8BF24" d="M290.395 478.104s9.244-4.729 9.322-18.55c.067-11.853-10.988-15.827-10.988-15.827-.319.013-32.13 1.146-51.04-16.867-2.243-2.136-5.186-10.928-1.989-30.332 1.446-8.789 3.662-16.853 5.257-22.049a6.627 6.627 0 00-4.04-8.17l-19.89-7.318c-3.55-1.307-7.477.616-8.607 4.226-1.974 6.31-4.833 16.496-6.68 27.718-4.649 28.228-3.548 49.732 9.203 61.88 29.744 28.332 58.591 33.908 79.452 25.29"/><path fill="#EAAC0F" d="M210.943 452.814c29.744 28.333 58.59 33.91 79.452 25.29 0 0 9.244-4.728 9.322-18.55a17.199 17.199 0 00-.365-3.658c-.637 12.8-9.285 17.225-9.285 17.225-20.861 8.62-49.707 3.043-79.451-25.29-6.736-6.416-10.22-15.447-11.322-26.697.5 13.585 3.947 24.342 11.649 31.68"/><path fill="#F9D375" d="M200.734 433.349a59.495 59.495 0 01-.684-3.752c13.288-1.973 28.876-12.646 34.254-16.581.032 1.67.13 3.174.279 4.525-5.831 4.12-17.097 11.366-28.28 14.583a44.06 44.06 0 01-5.57 1.225m34.487-33.652a108.038 108.038 0 00-.47 3.88c-8.093.712-23.204 2.536-35.497 11.532.034-1.562.104-3.159.201-4.786 13.025-8.427 28.042-9.97 35.766-10.626m33.186 42c1.396.294 2.756.546 4.069.762 1.146 6.402 2.138 20.385-5.17 39.216a59.852 59.852 0 01-3.965-.4c8.002-20.08 6.12-34.629 5.066-39.578m-32.193-48.082c-6.756-1.834-22.843-5.586-34.356-3.369.227-1.346.469-2.676.72-3.985 12.133-1.828 27.49 1.707 34.387 3.583-.262 1.231-.513 2.49-.751 3.771m41.507 87.799c11.21-19.777 5.66-33.21 2.848-37.964 1.715.139 3.22.214 4.455.254 3.073 6.426 6.447 19.292-2.513 36.878-1.564.351-3.16.63-4.79.832m-51.39-15.861c12.419-17 15.52-30.541 16.206-34.668a52.422 52.422 0 003.486 2.319c-.596 2.833-1.686 6.44-2.873 9.612-2.25 6.01-6.385 14.88-13.666 24.895a113.634 113.634 0 01-3.153-2.158m-20.49-19.041c17.352-4.642 27.532-21.772 29.38-25.123.49 2.108 1.121 3.606 1.753 4.579-3.905 6.262-13.554 19.217-28.78 23.847a32.513 32.513 0 01-2.353-3.303m48.409-9.141a70.896 70.896 0 003.868 1.481c.093 8.146-.67 25.707-7.956 39.243a79.158 79.158 0 01-3.634-1.346c7.529-13.608 7.882-32.441 7.722-39.378M240 377.704a178.032 178.032 0 00-1.038 3.769c-5.541-2.799-21.112-9.895-33.432-8.174.363-1.388.722-2.707 1.076-3.962 12.686-1.076 27.267 5.315 33.394 8.367"/><path fill="#F9D375" d="M199.52 424.953s9.87-3.12 12.945 2.152c3.076 5.273 6.363 18.281 9.151 21.643 2.065 2.492 1.25 8.091-2.234 11.524a147.448 147.448 0 01-8.439-7.458c-6.966-6.635-10.448-16.07-11.423-27.86"/><path fill="#EAAC0F" d="M354.755 427.941s-.33 9.484 3.462 14.188c3.103 3.851 24.64 25.16 33.719 42.297 2.85 5.383 13.382 27.661 8.103 30.7-20.125 11.583-55.162 16.301-80.738 16.044-36.52-.367-72.995-15.745-72.995-15.745s26.17-72.966 51.547-74.964c8.383-.66 52.856-17.073 56.901-12.52"/><path fill="#F8BF24" d="M392.04 484.653c-9.202.79-22.945 1.573-30.368.074-5.132-1.037-11.215-6.559-15.877-14.412-4.491-7.567-6.52-15.285-5.165-19.662 1.737-5.616 9.48-10.212 15.367-12.98a24.245 24.245 0 01-.594-2.357c-6.306 2.923-14.993 8.023-17.038 14.637-1.872 6.054 1.558 15.113 5.392 21.572 5.068 8.538 11.59 14.343 17.445 15.526 2.365.478 5.3.738 8.503.845 7.563.253 16.608-.344 23.147-.923a9.892 9.892 0 00-.812-2.32"/><path fill="#F9D375" d="M279.037 396.077c1.374 8.473-.593 15.841-4.394 16.457-3.8.616-7.994-5.752-9.368-14.225-1.374-8.472.593-15.84 4.393-16.457 3.8-.616 7.994 5.753 9.369 14.225"/><path fill="#F8BF24" d="M288.318 436.313s-19.121-18.517-19.483-53.214c-.266-25.354 20.07-42.48 50.085-41.66 28.165.77 47.026 21.93 44.356 53.084-1.972 23.01-8.521 33.418-8.521 33.418s-41.08 20.042-66.437 8.372"/><path fill="#FFF" d="M269.648 383.912c-.266-25.355 20.071-42.481 50.085-41.661 12.774.349 23.624 4.904 31.43 12.672-7.857-8.269-19.025-13.122-32.244-13.484-30.014-.82-50.35 16.306-50.084 41.661.362 34.697 19.483 53.213 19.483 53.213.021.01.044.019.065.03-3.522-3.835-18.415-21.84-18.735-52.431"/><path fill="#F9D375" d="M280.584 415.622s-10.264-19.436-5.909-33.959c4.356-14.523 54.678-18.692 64.022-11.142 9.344 7.552 6.757 35.534 3.805 38.341-2.954 2.809-39.817 18.401-61.918 6.76"/><path fill="#FFF" d="M299.368 419.874l3.514-26.541-6.31-5.37 4.22-19.532c-5.605.968-10.945 2.373-15.341 4.2-.855 6.809-2.535 20.843-2.348 24.55l7.176-.008-3.65 20.883c4.03 1.198 8.349 1.745 12.739 1.818"/><path fill="#FFF" d="M309.222 419.325l4.413-31.078-6.684-6.464 7.243-14.828c-2.958.146-5.993.42-9.006.811l-5.612 17.754 5.663 5.72-2.484 28.601a76.659 76.659 0 006.467-.516"/><path fill="#EAAC0F" d="M282.167 414.052c21.379 10.644 56.4-4.486 58.877-6.728 2.314-2.904 4.406-28.621-3.68-35.153-5.206-4.21-29.131-4.604-46.46.753-8.1 2.506-13.142 5.824-14.2 9.349-3.654 12.188 3.859 28.513 5.463 31.779m32.16 6.625c-11.7 2.036-24.688 2.109-34.73-3.18a2.124 2.124 0 01-.886-.884c-.436-.826-10.617-20.377-6.065-35.558 1.517-5.062 7.24-9.16 17.007-12.18 16.406-5.074 42.868-6.068 50.377-.001 5.473 4.423 6.966 13.89 7.255 21.053.279 6.922-.567 17.85-3.323 20.472-2.08 1.977-14.824 7.7-29.635 10.278m46.973-13.928c-1.958.062-3.993-1.777-5.586-5.046-1.72-3.531-2.756-8.283-2.918-13.381-.31-9.795 2.816-18.225 6.902-18.888.137-.023.277-.037.416-.041.013 0 .026.002.04 0a43.845 43.845 0 00-.66-1.64c-5.108.764-8.742 9.603-8.39 20.622.168 5.333 1.263 10.329 3.087 14.07 1.917 3.937 4.447 6.064 7.127 5.997.115-.57.227-1.153.337-1.75-.119.02-.237.053-.356.057"/><path fill="#F9D375" d="M369.782 388.243c.272 8.578-2.626 15.632-6.474 15.754-3.848.122-7.188-6.733-7.46-15.313-.272-8.578 2.626-15.63 6.474-15.754 3.849-.122 7.189 6.734 7.46 15.313"/><path fill="#EAAC0F" d="M368.341 387.747c.054 1.696-.52 3.09-1.28 3.114-.76.025-1.42-1.331-1.475-3.026-.054-1.696.52-3.09 1.28-3.114.76-.025 1.42 1.331 1.475 3.026m-1.369-6.569c.042 1.323-.405 2.412-.999 2.43-.594.019-1.109-1.038-1.15-2.362-.043-1.324.404-2.412.998-2.431.593-.02 1.11 1.039 1.151 2.363m-2.902 3.294c.043 1.323-.404 2.412-.998 2.43-.594.019-1.108-1.038-1.15-2.363-.042-1.323.405-2.412.999-2.43.593-.02 1.108 1.039 1.15 2.363m.2 6.309c.042 1.324-.405 2.412-.999 2.431-.594.02-1.108-1.039-1.15-2.363-.042-1.324.405-2.412 1-2.43.592-.02 1.107 1.04 1.15 2.362m3.388 3.789c.043 1.324-.404 2.412-.998 2.432-.594.018-1.108-1.039-1.15-2.364-.042-1.323.405-2.412.999-2.43.593-.019 1.108 1.04 1.15 2.362"/><path fill="#F9D375" d="M321.496 355.919c-1.682.272-3.348.377-4.94.286-8.164-.466-19.224 1.08-25.481 2.77-6.594 1.79-9.383-5.91-9.41-5.99l.8-.28c.1.288 2.573 7.016 8.388 5.452 6.323-1.708 17.496-3.268 25.752-2.8 7.799.448 17.433-3.936 21.479-9.768l.697.48c-3.368 4.856-10.453 8.742-17.285 9.85"/><path fill="#EAAC0F" d="M288.864 372.61a1.272 1.272 0 01-1.477-1.245c-.005-.725.01-17.922 13.162-31.105a1.272 1.272 0 011.8 1.796c-12.378 12.408-12.42 29.122-12.42 29.29a1.273 1.273 0 01-1.065 1.264m26.566-4.308a1.272 1.272 0 01-1.477-1.287c.021-.866.632-21.32 9.7-28.728a1.273 1.273 0 011.61 1.97c-8.165 6.669-8.764 26.622-8.769 26.822a1.271 1.271 0 01-1.065 1.223"/><path fill="#F9D375" d="M296.012 438.843s-7.893-13.746-2.169-13.372c4.716.309 19.416.195 28.33-1.804 6.92-1.552 2.346 14.472 2.346 14.472s-19.656 4.467-28.507.704"/><path fill="#EAAC0F" d="M293.554 433.923c.135.308.271.607.406.902 4.523.523 13.414.897 27.045-1.314 1.495-.242 3.056-.521 4.667-.83.043-.292.085-.587.122-.886-16.96 3.272-27.51 2.73-32.24 2.128m31.501 2.055c.062-.282.127-.58.193-.899-15.208 2.84-25.11 2.584-30.156 2.058.18.346.338.645.474.898 4.801.447 13.335.606 25.902-1.433 1.16-.187 2.358-.396 3.587-.624m-33.288-8.358c-.002.27.016.56.055.863 4.023.582 13.28 1.273 28.257-1.157 1.812-.294 3.712-.636 5.695-1.027a6.197 6.197 0 00-.24-.816c-18.494 3.642-29.493 2.777-33.767 2.136m.574 3.109c.092.295.193.595.3.896 4.197.57 13.344 1.155 27.9-1.206 1.736-.282 3.555-.608 5.446-.979.01-.292.013-.58.01-.863-18.34 3.611-29.305 2.791-33.656 2.152m80.8-95.224s-9.173-1.992-7.535-7.704c1.637-5.711 5.418-8.45 11.276-10.247 5.858-1.797 17.51-8.26 23.223-3.323 5.713 4.934 14.523 30.415 14.523 30.415l-12.626 10.735s-23.874-10.708-28.86-19.876"/><path fill="#F8BF24" d="M376.238 331.306c-.054-.068-5.076-6.683-.04-13.53-.856.28-1.67.584-2.431.919-3.697 7.094 1.168 13.509 1.224 13.582a.788.788 0 001.109.138.79.79 0 00.138-1.11m23.139-2.599a6.566 6.566 0 00-.08-1.241c.26.079.53.14.806.177-.231.32-.476.676-.726 1.064m3.507-3.114a.791.791 0 00-1.107.014c-.012.013-.04.04-.08.083-1.11 1.08-3.118-.3-3.137-.313a.79.79 0 00-1.2.914c.986 2.718.332 4.547-1.94 5.438-.742.292-1.356.311-1.882.056-.93-.451-1.3-1.638-1.3-1.638-.034-.123-2.805-10.88-2.14-17.175-.536.123-1.076.261-1.615.414-.483 6.653 2.096 16.665 2.23 17.181.017.06.366 1.185 1.278 2.035a2.895 2.895 0 01-1.166 1.069c-1.113.569-2.655.531-4.58-.115a.79.79 0 10-.504 1.498c1.084.364 2.086.561 2.998.591 1.077.037 2.03-.16 2.85-.588a4.469 4.469 0 001.769-1.671c.801.24 1.683.189 2.64-.186a6.398 6.398 0 001.41-.756c-.827 1.989-1.476 4.34-1.595 6.965a.79.79 0 00.754.825h.008a.79.79 0 00.817-.754c.32-7.011 4.873-12.083 5.449-12.698.025-.026.053-.054.079-.083a.79.79 0 00-.036-1.106m-20.144 3.573a.79.79 0 00.776-1.039c-.027-.082-2.431-7.442-.796-12.755-.62.24-1.224.478-1.81.706-1.163 5.594.996 12.214 1.107 12.548a.792.792 0 00.723.54"/><path fill="#F8BF24" d="M390.15 354.982s-4.955-3.93-11.775-8.044c-6.821-4.115-12.702-9.923-10.87-13.772 1.834-3.849 12.917-11.163 17.015-7.6 4.097 3.563 4.569 5.241.18 10.325 0 0 13.219 1.014 16.84 9.79 3.623 8.776-8.278 11.622-11.39 9.301"/><path fill="#FFF" d="M391.202 355.017s-4.955-3.93-11.776-8.043c-6.821-4.115-12.701-9.923-10.87-13.772 1.46-3.065 8.78-8.32 13.774-8.538-4.945-.596-13.258 5.214-14.823 8.502-1.833 3.85 4.048 9.658 10.868 13.772 6.82 4.115 11.776 8.045 11.776 8.045.729.543 1.94.8 3.32.767-.933-.09-1.733-.332-2.27-.733"/><path fill="#F8BF24" d="M365.143 478.715s-10.455-2.405-14.02-16.233c-3.058-11.858 7.014-18.63 7.014-18.63.324-.067 32.482-6.96 46.881-29.777 1.708-2.706 2.437-12.257-5.66-30.891-3.669-8.441-7.924-15.961-10.833-20.764a6.846 6.846 0 011.988-9.206l18.08-12.35c3.228-2.205 7.645-1.27 9.69 2.063 3.568 5.822 9.004 15.308 13.686 26.084 11.78 27.107 16.104 48.93 6.394 64.317-22.65 35.893-50.144 48.758-73.22 45.387"/><path fill="#EAAC0F" d="M442.04 398.65c1.733 11.55.523 21.475-4.606 29.603-22.651 35.892-50.144 48.757-73.22 45.386 0 0-9.781-2.25-13.65-14.914.049 1.19.219 2.44.559 3.756 3.565 13.828 14.02 16.233 14.02 16.233 23.077 3.372 50.57-9.494 73.22-45.386 5.866-9.295 6.604-20.942 3.678-34.679"/><path fill="#F9D375" d="M443.68 411.25a61.139 61.139 0 00-.263-3.932c-13.81 1.377-32.122-5.383-38.502-7.968.391 1.682.67 3.212.863 4.604 6.88 2.655 19.997 7.072 32.011 7.475 2.008.067 3.978.005 5.89-.18m-43.043-25.012a112.62 112.62 0 011.45 3.768c8.287-1.328 23.888-3.314 38.474 2.597a132.75 132.75 0 00-1.409-4.744c-15.176-5.156-30.612-2.913-38.515-1.62m-22.649 50.452a96.7 96.7 0 01-3.885 1.79c.468 6.703 3.002 20.964 15.074 37.985a61.292 61.292 0 003.874-1.402c-13.084-18.098-14.872-33.148-15.063-38.373m20.121-56.296c6.305-3.541 21.475-11.36 33.569-12.043a178.263 178.263 0 00-1.727-3.812c-12.617 1.23-27.112 8.647-33.547 12.267a153.002 153.002 0 011.705 3.589m-19.43 98.437c-16.222-16.985-14.053-31.844-12.434-37.316a96.356 96.356 0 01-4.399 1.378c-1.458 7.214-1.592 20.956 11.823 36.314a52.144 52.144 0 005.01-.376m47.484-28.858c-16.732-13.897-23.257-26.683-24.984-30.645a53.841 53.841 0 01-2.908 3.204c1.312 2.688 3.314 6.027 5.304 8.905 3.77 5.455 10.15 13.297 19.974 21.494.876-.957 1.747-1.944 2.614-2.958m15.723-24.248c-18.557-.272-33.079-14.865-35.774-17.757.04 2.236-.214 3.897-.602 5.03 5.493 5.29 18.43 15.832 34.853 16.63a33.68 33.68 0 001.523-3.904m-50.806 3.058a72.316 72.316 0 01-3.501 2.46c1.962 8.186 7.156 25.587 17.873 37.31a81.985 81.985 0 003.302-2.266c-10.977-11.734-16.083-30.514-17.674-37.504m-.782-63.373c.634 1.09 1.302 2.265 1.992 3.513 4.845-4.203 18.654-15.242 31.432-16.625a225.024 225.024 0 00-2.077-3.699c-12.982 2.123-25.978 12.206-31.347 16.81"/><path fill="#F9D375" d="M442.777 402.532s-10.676-.636-12.427 5.423c-1.75 6.057-1.761 19.92-3.706 23.992-1.44 3.02.789 8.422 5.146 10.982a152.339 152.339 0 006.573-9.6c5.305-8.407 6.413-18.737 4.414-30.797"/><path fill="#1D258E" d="M165.744 497.605l34.013-30.309c17.505-15.597 40.65-22.784 63.698-20.3 11.896 1.282 25.65 3.474 40.273 7.165 33.704 8.505 57.858 39.118 60.312 73.541 0 0-122.558 24.924-198.296-30.097"/><path fill="#A0CAF3" d="M161.365 498.481l34.014-30.309c17.504-15.597 40.65-22.784 63.698-20.3 11.895 1.282 25.65 3.474 40.273 7.164 33.704 8.505 57.858 39.118 60.312 73.542 0 0-122.558 24.924-198.297-30.097"/><path fill="#CCE9FC" d="M169.414 499.623c64.372 42.248 160.637 29.32 180.922 25.937-3.982-30.822-25.831-57.556-55.36-64.898-12.59-3.128-25.86-5.424-39.458-6.77-21.021-2.081-42.513 5.02-58.571 20.016l-27.533 25.715z"/><path fill="#FFF" d="M197.517 475.382c16.057-14.996 37.55-22.097 58.57-20.017 13.6 1.347 26.868 3.643 39.46 6.77 22.976 5.714 41.298 23.17 50.176 45.155-8.644-22.675-27.26-40.788-50.747-46.628-12.59-3.128-25.859-5.424-39.459-6.77-21.02-2.08-42.513 5.02-58.569 20.016l-27.535 25.715c.422.278.852.542 1.277.815l26.827-25.056z"/><path fill="#A0CAF3" d="M180.709 510.633l-1.375-1.205c.333-.381 33.808-38.327 70.867-57.104l.826 1.632c-36.747 18.618-69.986 56.298-70.318 56.677M292.006 532.8l-1.796-.347c.067-.341 6.702-34.644 13.77-72.512l1.796.335c-7.068 37.875-13.704 72.182-13.77 72.525"/><path fill="#4954DB" d="M797.585 120.446c0 59.09-47.903 106.992-106.993 106.992-59.09 0-106.991-47.902-106.991-106.992s47.902-106.992 106.99-106.992c59.09 0 106.993 47.902 106.993 106.992"/><path fill="#2F44AD" d="M786.142 123.932c-29.04 22.806-88.926 30.025-138.804 34.619-49.878 4.594-61.327-15.452-61.327-15.452 10.394 48.208 53.265 84.339 104.581 84.339 59.09 0 106.992-47.902 106.992-106.992 0-3.904-.214-7.757-.623-11.553-.727 4.994-1.438 7.672-10.819 15.039"/><path fill="#2F44AD" d="M736.921 112.774c-19.032 4.594-61.034 8.78-74.816 7.671-13.783-1.108-21-2.42-19.033-7.67 0 0 25.915-7.22 48.725-17.064 22.81-9.844 35.936-14.438 56.937-7.875 21 6.563 7.22 20.344-11.813 24.938m44.813-48.385c-7.94 2.677-20.08 6.176-33 7.696-22.314 2.625-48.565 1.072-72.19 11.036-23.628 9.965-37.409 19.153-52.504 15.215-9.872-2.575-25.918-6.554-35.84-8.999a106.36 106.36 0 00-3.1 13.21l.911 2.466s40.654 30.247 93.157 28.52c47.081-1.548 97.78-26.51 114.17-43.008a106.426 106.426 0 00-11.604-26.136M635.197 83.121c17.063-1.848 27.193-16.943 53.301-19.568 26.11-2.625 37.922 3.938 53.673-2.625 9.772-4.072 19.037-10.92 24.664-15.535a107.583 107.583 0 00-7.746-7.136c-2.95 2.896-7.269 6.35-12.98 8.89-11.813 5.25-32.158 4.562-47.252 4.25-15.095-.313-27.565 7.562-39.377 9.531-11.814 1.97-33.47 11.157-39.377 4.594-3.642-4.046-8.03-10.335-10.862-14.565a107.29 107.29 0 00-12.252 17.638c8.942 5.888 26.096 15.84 38.208 14.526m5.907-40.569c14.437-1.313 25.594-16.407 44.627-9.844 17.26 5.952 43.698 4.885 55.323-6.625a106.81 106.81 0 00-9.963-4.69c-5.155 3.692-13.18 7.448-24.359 7.2-21.658-.479-25.595-4.77-43.315 0-17.72 4.771-26.907 8.052-26.907 8.052l-9.73-2.084c-1.23.915-2.437 1.86-3.626 2.825 3.935 2.875 10.057 5.884 17.95 5.166"/><path fill="#A0CAF3" d="M586.745 124.133c0-59.09 47.902-106.992 106.992-106.992 31.749 0 60.263 13.833 79.858 35.796-19.62-24.092-49.511-39.483-83.002-39.483-59.09 0-106.993 47.902-106.993 106.992 0 27.34 10.26 52.282 27.135 71.195-14.995-18.414-23.99-41.91-23.99-67.508"/><path fill="#F8BF24" d="M860.32 108.644c-2.261-15.78-29.845-26.162-70.906-29.479a106.058 106.058 0 014.636 13.713c15.809 2.938 25.562 7.89 26.524 14.605 1.008 7.034-7.781 14.918-23.436 22.493-22.796 11.031-60.151 21.407-103.026 27.55-40.647 5.823-77.603 6.602-102.615 3.1-19.49-2.73-31.728-8.058-32.811-15.624-1.04-7.255 8.345-15.415 24.934-23.207-.007-.522-.02-1.041-.02-1.564 0-4.243.255-8.426.736-12.54-40.656 14.977-65.804 33.308-63.472 49.585 2.539 17.722 37.019 28.635 86.658 30.379 26.56.933 57.454-.756 90.127-5.438 34.392-4.927 65.96-12.482 91.967-21.415 44.877-15.413 73.172-34.934 70.704-52.157"/><path fill="#EAAC0F" d="M793.024 89.257c.362 1.198.705 2.405 1.026 3.621 15.809 2.937 25.562 7.89 26.524 14.605 1.008 7.034-7.781 14.918-23.436 22.493-22.796 11.031-60.151 21.407-103.026 27.55-40.648 5.823-77.603 6.602-102.615 3.1-19.489-2.729-31.727-8.057-32.811-15.624-1.04-7.255 8.345-15.414 24.934-23.207-.007-.52-.02-1.04-.02-1.565 0-2.024.062-4.033.175-6.029-21.336 9.186-33.625 19.353-32.139 28.604 2.058 12.81 30.008 20.698 70.245 21.958 21.53.675 46.573-.547 73.058-3.93 27.878-3.56 53.468-9.022 74.548-15.479 36.378-11.142 59.314-25.252 57.314-37.7-1.353-8.423-13.907-14.715-33.777-18.397"/><path fill="#F9D375" d="M568.256 119.337s-47.253 17.063-42.658 38.721c4.594 21.657 91.827 34.127 177.17 17.063 0 0-146.654 21.986-173.54-16.416-11.38-16.253 39.028-39.368 39.028-39.368"/><path fill="#EAAC0F" d="M793.338 83.121s54.823 3.678 61.714 25.772c6.89 22.094-69.935 51.344-114.686 59.272 0 0 120.103-29.796 112.717-59.272-5.273-21.043-59.745-25.772-59.745-25.772"/><path fill="#EAAC0F" d="M586.011 172.825s124.822 12.797 240-42.331c0 0-99.52 55.62-240 42.33"/><path fill="#2F44AD" d="M798.768 590.831c-1.41 46.95-40.616 83.867-87.566 82.456-46.95-1.411-83.868-40.616-82.456-87.566 1.411-46.952 40.616-83.868 87.566-82.456 46.95 1.411 83.867 40.616 82.456 87.566"/><path fill="#4954DB" d="M771.175 525.534c6.765 12.658 10.413 27.202 9.951 42.577-1.41 46.95-39.649 75.466-86.6 74.055-21.204-.638-41.325-.583-55.83-13.869 13.893 25.997 40.93 44.041 72.505 44.99 46.951 1.411 86.156-35.506 87.567-82.456.774-25.747-9.98-49.164-27.593-65.297m-93.851-14.129a85.054 85.054 0 00-12.54 7.332c-.243.855-.381 1.715-.373 2.571.017 1.863.688 4.535 3.783 6.68 3.26 2.261 7.3 3.048 11.617 2.818 9.928-.528 21.315-6.429 28.022-12.118 5.11-4.334 6.989-10.36 6.437-15.46a86.5 86.5 0 00-5.641.154c.548 3.435-.74 7.868-4.442 11.006-9.707 8.231-25.788 13.816-32.781 8.967-1.192-.826-1.352-1.554-1.357-2.096-.027-2.71 3.78-6.929 7.275-9.854"/><path fill="#4954DB" d="M646.442 597.818c6.889-.366 11.923-1.777 16.416-3.036 5.801-1.626 10.81-3.028 18.803-2.14 14.95 1.658 51.704-2.147 60.734-10.679 8.415-7.952 17.004-16.293 22.825-23.423 1.576-1.93 3.574-3.357 5.688-4.867 4.483-3.2 9.473-6.784 11.446-15.678a85.273 85.273 0 00-4.838-5.998l-.067.796c-.831 9.877-4.995 12.85-9.818 16.293-2.322 1.66-4.725 3.374-6.778 5.888-5.618 6.884-14.052 15.07-22.329 22.89-6.63 6.265-40.177 10.958-56.241 9.174-9.083-1.009-14.846.606-20.946 2.315-4.896 1.372-9.955 2.798-17.371 2.91-6.246.101-11.369-2.865-15.223-6.352a85.372 85.372 0 00.109 7.291c4.138 2.785 9.209 4.796 15.205 4.698a63.903 63.903 0 002.385-.082"/><path fill="#4954DB" d="M795.074 563.282c-2.916 4.54-6.762 9.533-11.056 14.955-9.247 11.677-23.063 27.107-37.211 27.86-.354.02-.711.03-1.067.028-11.333.006-24.534 2.461-44.513 6.18-7.135 1.33-15.222 2.834-24.41 4.45-21.346 3.753-36.867-1.89-45.202-6.368a84.347 84.347 0 002.395 7.495c7.818 3.38 18.982 6.403 33.17 5.648a88.339 88.339 0 0010.613-1.223c9.215-1.62 17.317-3.129 24.465-4.459 19.674-3.663 32.675-6.085 43.484-6.085a26.1 26.1 0 001.402-.038c16.195-.863 30.534-16.403 41.294-29.989 3.145-3.97 6.025-7.682 8.515-11.184a84.738 84.738 0 00-1.88-7.27m-143.757-32.75a85.315 85.315 0 00-4.692 5.526c1.551 4.831 5.65 10.58 16.097 13.074 3.215.766 6.37.994 9.447.831 9.455-.505 18.162-4.697 25.509-8.237 3.796-1.829 7.074-3.407 9.721-4.112 1.451-.386 3.067-.776 4.769-1.186 10.935-2.64 24.545-5.927 25.439-14.898.18-1.792.494-3.69.798-5.527.492-2.977.989-5.996.982-8.845a84.359 84.359 0 00-5.729-1.586c.32 2.62-.22 5.914-.816 9.51-.318 1.925-.648 3.915-.844 5.888-.498 4.99-13.428 8.112-21.154 9.977-1.746.422-3.404.822-4.894 1.22-3.163.841-6.664 2.528-10.718 4.48-8.936 4.305-20.058 9.663-31.201 7.001-11.605-2.769-12.762-10.064-12.714-13.116"/><path fill="#4954DB" d="M640.212 566.824c5.047 3.304 11.235 4.44 17.528 4.105 7.168-.38 14.472-2.67 20.377-5.843 4.314-2.319 11.285-1.6 18.668-.84 8.255.85 17.615 1.815 25.476-1.399 12.038-4.919 15.413-11.45 18.676-17.765.865-1.677 1.76-3.41 2.827-5.138 1.913-3.105 4.582-4.302 7.673-5.685 4.063-1.82 8.67-3.884 10.622-10.578.447-1.536.927-2.994 1.407-4.425a84.513 84.513 0 00-4.856-3.254c-.635 1.868-1.333 3.94-1.962 6.1-1.225 4.193-3.863 5.375-7.515 7.012-3.442 1.542-7.346 3.29-10.17 7.871-1.175 1.91-2.12 3.74-3.035 5.51-3.177 6.146-5.684 11.001-15.798 15.134-6.557 2.681-14.8 1.83-22.769 1.01-8.269-.852-16.074-1.656-21.913 1.48-9.308 5.001-23.34 7.754-32.149 1.99-7.65-5.01-2.843-16.938-2.793-17.057l-.007-.003a84.617 84.617 0 00-6.46 13.52c.904 3.063 2.749 6.014 6.173 8.255m72.209 49.159c.934 5.396-8.622 11.556-21.344 13.758-12.72 2.201-23.792-.389-24.725-5.785-.935-5.397 8.622-11.556 21.343-13.758 12.722-2.2 23.792.39 24.726 5.785"/><path fill="#4954DB" d="M736.733 554.12c1.069 4.213-6.114 9.671-16.045 12.19-9.931 2.521-18.848 1.149-19.917-3.064-1.068-4.212 6.115-9.67 16.046-12.189 9.931-2.521 18.847-1.149 19.916 3.063m-54.341 31.857c1.068 4.214-6.115 9.672-16.046 12.19-9.93 2.521-18.848 1.15-19.916-3.063-1.069-4.213 6.114-9.67 16.045-12.19 9.931-2.52 18.848-1.149 19.917 3.063m22.983-69.265c1.077 3.257-4.273 7.955-11.95 10.494-7.678 2.539-14.775 1.958-15.852-1.3-1.077-3.256 4.274-7.954 11.95-10.494 7.678-2.54 14.775-1.957 15.852 1.3m56.872 45.528c2.049 2.751-1.548 8.896-8.033 13.727-6.487 4.83-13.404 6.515-15.453 3.764-2.05-2.75 1.548-8.897 8.033-13.726 6.485-4.83 13.404-6.516 15.453-3.765"/><path fill="#D0D8E2" d="M870.011 226.6c6.623 17.932-2.544 37.837-20.476 44.461-17.93 6.623-37.837-2.544-44.46-20.475-6.624-17.932 2.543-37.838 20.475-44.461 17.932-6.624 37.837 2.543 44.461 20.475"/><path fill="#AAB4C4" d="M849.647 206.166a34.462 34.462 0 0110.244 14.55c6.623 17.931-3.46 34.52-21.391 41.143-8.098 2.991-15.683 6.078-23.181 3.276 9.205 7.692 22.157 10.38 34.217 5.926 17.931-6.624 27.098-26.53 20.475-44.46-3.633-9.835-11.26-17.032-20.364-20.435"/><path fill="#AAB4C4" d="M847.926 256.17c.812 3.242-1.436 6.597-5.02 7.495-3.585.899-7.15-1-7.962-4.241-.812-3.241 1.435-6.596 5.021-7.494 3.585-.9 7.15 1 7.961 4.24m-14.804 4.566c.095 1.378-1.064 2.58-2.588 2.684-1.524.105-2.837-.927-2.932-2.305-.094-1.378 1.065-2.58 2.589-2.684 1.525-.105 2.836.927 2.93 2.305"/><path fill="#AAB4C4" d="M851.206 251.486c1.21 1.118 1.189 3.11-.048 4.45-1.237 1.34-3.221 1.518-4.431.4-1.211-1.119-1.19-3.11.047-4.45 1.237-1.339 3.22-1.518 4.432-.4m-23.282-41.178c.73 1.355-.878 3.635-3.588 5.093-2.71 1.456-5.498 1.54-6.227.184-.729-1.355.877-3.635 3.587-5.091 2.711-1.458 5.5-1.542 6.228-.186"/><path fill="#AAB4C4" d="M819.793 214.767c.638.738-.042 2.37-1.518 3.644-1.473 1.275-3.187 1.712-3.824.974-.638-.737.04-2.37 1.516-3.644 1.475-1.277 3.188-1.713 3.826-.975m-9.298 11.207c.82.527.632 2.284-.422 3.925-1.054 1.64-2.573 2.544-3.393 2.017-.821-.526-.632-2.284.42-3.924 1.055-1.642 2.575-2.545 3.395-2.018m21.493-14.01c.073.482-.648.992-1.612 1.14-.964.145-1.805-.126-1.88-.608-.072-.482.65-.992 1.614-1.139.964-.146 1.805.125 1.878.607m15.267-3.437c.35.487.53 1.04.481 1.614-.143 1.738-2.283 3.023-4.779 2.87-2.496-.154-4.403-1.688-4.26-3.427.047-.572.312-1.095.734-1.534-1.125.65-1.872 1.613-1.964 2.725-.18 2.172 2.203 4.088 5.321 4.28 3.118.192 5.792-1.413 5.971-3.585.093-1.115-.492-2.162-1.504-2.943m12.055 35.351c-.557.224-1.136.269-1.683.087-1.656-.55-2.399-2.931-1.662-5.321.74-2.39 2.678-3.881 4.334-3.332.545.18.99.56 1.318 1.074-.367-1.246-1.126-2.2-2.185-2.55-2.068-.687-4.492 1.177-5.414 4.162-.922 2.985.008 5.962 2.076 6.648 1.062.352 2.217.03 3.215-.768m-30.888-26.236c.534.271.95.674 1.176 1.206.68 1.606-.619 3.737-2.902 4.76-2.282 1.023-4.683.551-5.363-1.056-.223-.529-.232-1.115-.062-1.699-.696 1.098-.91 2.297-.475 3.325.85 2.007 3.85 2.598 6.7 1.32 2.851-1.278 4.474-3.94 3.624-5.947-.436-1.031-1.439-1.686-2.698-1.909"/><path fill="#D0D8E2" d="M419.601 270.896c-13.049 32.68-50.119 48.594-82.8 35.545-32.679-13.048-48.594-50.119-35.545-82.799 13.05-32.68 50.12-48.594 82.8-35.545 32.68 13.05 48.594 50.12 35.545 82.8"/><path fill="#AAB4C4" d="M412.503 270.298c-21.097 6.2-55.811-3.032-84.41-11.506-28.6-8.474-30.506-22.09-30.506-22.09-4.897 28.958 10.834 58.408 39.214 69.74 32.682 13.048 69.752-2.866 82.8-35.545a64.838 64.838 0 002.207-6.527c-1.505 2.6-2.49 3.925-9.305 5.928"/><path fill="#AAB4C4" d="M387.745 253.258c-11.54-1.662-35.693-8.623-43.071-12.28-7.377-3.656-11.08-5.976-8.831-8.445 0 0 15.926 1.73 30.715 1.324 14.789-.408 23.063-.05 33.228 8.217 10.165 8.267-.5 12.846-12.041 11.184m35.47-16.864c-4.983-.272-12.47-1.018-19.95-3.031-12.921-3.476-27.096-10.131-42.364-9.838-15.266.294-24.918 2.332-32.396-3.18-4.891-3.604-12.887-9.348-17.835-12.891a63.44 63.44 0 00-4.632 6.62l-.04 1.566s15.805 25.706 45.223 36.345c26.38 9.54 59.932 6.93 72.639 1.427a63.36 63.36 0 00-.645-17.018m-85.18-22c9.845 2.746 18.78-3.365 33.8.949 15.019 4.314 20.103 10.552 30.264 10.4 6.303-.093 12.939-1.835 17.07-3.145a64.311 64.311 0 00-2.708-5.657c-2.271.95-5.422 1.907-9.142 2.05-7.692.295-18.792-4.578-27.071-8.084-8.28-3.506-16.914-1.904-23.883-3.424-6.968-1.52-20.974-1.221-22.792-6.155-1.12-3.042-2.158-7.488-2.79-10.453a63.766 63.766 0 00-10.671 7.049c3.645 5.23 10.935 14.522 17.923 16.47m12.226-21.132c8.274 2.462 17.778-3.421 26.855 4.41 8.232 7.104 23.088 12.353 32.059 8.554a63.382 63.382 0 00-4.474-4.794c-3.666.904-8.934 1.209-15.062-1.397-11.872-5.048-13.102-8.291-23.956-9.565-10.853-1.275-16.66-1.49-16.66-1.49l-4.92-3.301c-.881.235-1.757.49-2.63.762 1.543 2.459 4.264 5.475 8.788 6.82"/><path fill="#D0D8E2" d="M464.825 274.387c2.167-8.814-7.111-18.632-27.578-29.18-4.208-2.17-8.783-4.31-13.66-6.403a63.49 63.49 0 01.56 9.567c3.23 1.457 6.3 2.933 9.189 4.422 19.663 10.135 23.774 17.224 23.2 19.557-.573 2.333-7.502 6.71-29.622 6.573-3.485-.022-7.15-.155-10.963-.39-17.94-1.112-39.23-4.559-61.227-9.965-21.602-5.31-41.726-11.979-57.985-19.16a200.287 200.287 0 01-10.778-5.13c-19.663-10.135-23.775-17.224-23.2-19.557.573-2.333 7.502-6.709 29.623-6.573 3.547.022 7.282.16 11.17.403a63.706 63.706 0 014.934-8.2c-5.65-.458-11.026-.708-16.053-.739-23.024-.14-35.797 4.257-37.964 13.071-2.167 8.815 7.112 18.634 27.579 29.183 4.81 2.48 10.1 4.92 15.777 7.295a289.94 289.94 0 004.254 1.743c14.936 5.963 32.272 11.447 50.606 15.953 20.494 5.037 40.448 8.415 57.808 9.84 5.767.472 11.247.73 16.366.761 23.025.142 35.798-4.256 37.964-13.07"/><path fill="#FFF" d="M538.543 336.607c0 6.623-5.37 11.992-11.992 11.992-6.624 0-11.993-5.369-11.993-11.992 0-6.623 5.37-11.992 11.993-11.992 6.622 0 11.991 5.37 11.991 11.992M375.39 152.685a7.867 7.867 0 11-15.735 0 7.868 7.868 0 1115.734 0m121.373-85.494a5.137 5.137 0 11-10.274 0 5.137 5.137 0 0110.274 0m-247.657 103.83a3.403 3.403 0 11-6.805.001 3.403 3.403 0 016.805 0m254.267 11.008a5.873 5.873 0 11-11.747 0 5.873 5.873 0 0111.747 0m358.075 145.623a6.24 6.24 0 11-12.481 0 6.24 6.24 0 0112.48 0m-23.502-151.57a5.062 5.062 0 11-10.125 0 5.062 5.062 0 0110.125 0M579.604 353.59a4.99 4.99 0 11-9.98.001 4.99 4.99 0 019.98-.001M541.8 597.941a4.477 4.477 0 11-8.954.002 4.477 4.477 0 018.954-.002M125.691 486.812a4.995 4.995 0 11-9.99.001 4.995 4.995 0 019.99 0m360.797-150.549c0 5.335-4.325 9.66-9.661 9.66-5.336 0-9.661-4.325-9.661-9.66a9.66 9.66 0 019.66-9.661 9.66 9.66 0 019.662 9.66m28.07-17.567a8.117 8.117 0 11-16.234 0 8.117 8.117 0 1116.234 0m18.288-61.637a3.147 3.147 0 11-6.296 0 3.148 3.148 0 116.296 0m151.964 37.56c0 5.633-4.566 10.2-10.199 10.2-5.634 0-10.2-4.567-10.2-10.2 0-5.633 4.566-10.2 10.2-10.2 5.633 0 10.2 4.567 10.2 10.2m29.473 86.742a6.017 6.017 0 11-12.035.002 6.017 6.017 0 0112.035-.002m84.523 94.577a8.227 8.227 0 01-16.453 0 8.227 8.227 0 1116.453 0M562.9 620.603a6.49 6.49 0 11-12.979 0 6.49 6.49 0 0112.98 0m55.513 59.437a5.847 5.847 0 11-11.695 0 5.847 5.847 0 0111.695 0m-16.771-115.76a6.816 6.816 0 01-6.816 6.816 6.816 6.816 0 110-13.632 6.816 6.816 0 016.816 6.816m218.927 90.486a8.823 8.823 0 01-8.824 8.824 8.823 8.823 0 01-8.824-8.824 8.823 8.823 0 018.824-8.824 8.823 8.823 0 018.824 8.824m5.518-58.542a2.76 2.76 0 11-5.518-.001 2.76 2.76 0 015.518 0m-9.042-37.243a4.23 4.23 0 11-8.46 0 4.23 4.23 0 018.46 0M283.088 180.807a4.723 4.723 0 11-9.446.001 4.723 4.723 0 019.446 0M117.63 499.776a8.977 8.977 0 11-17.953 0 8.977 8.977 0 0117.953 0m387.592 173.99a6.799 6.799 0 11-13.598 0 6.799 6.799 0 0113.598 0m65.499-5.036a3.91 3.91 0 11-7.82 0 3.91 3.91 0 017.82 0m47.693-20.564a8.385 8.385 0 11-8.385-8.385 8.385 8.385 0 018.385 8.385m194.582-120.402a5.038 5.038 0 01-10.074 0 5.037 5.037 0 1110.074 0m26.462-141.684a4.607 4.607 0 11-9.215 0 4.607 4.607 0 019.215 0m-67.022-149.918A7.436 7.436 0 01765 243.6a7.437 7.437 0 117.437-7.437M541.073 471.824a4.113 4.113 0 11-8.227.002 4.113 4.113 0 018.227-.002"/><path fill="#949DAA" d="M736.027 370.121l47.505 40.417 2.53-2.602-46.422-41.531z"/><path fill="#AAB4C4" d="M759.155 368.753l-25.298 26.013-37.305-26.88 34.695-35.674z"/><path fill="#D0D8E2" d="M696.552 367.886l-1.015-16.172 20.48-21.057 15.23 1.555zm25.553 10.388l35.345 84.99 2.7-2.435-24.305-69.192zm21.143-21.739l85.94 32.964-2.36 2.767-69.84-22.368z"/><path fill="#D0D8E2" d="M765.732 456.134c1.439 1.4-.063 5.28-3.356 8.667-3.294 3.386-7.13 4.996-8.57 3.597-1.44-1.401.063-5.281 3.357-8.667 3.293-3.386 7.13-4.996 8.569-3.597m70.112-72.092c1.44 1.399-.063 5.28-3.357 8.666-3.293 3.387-7.13 4.997-8.57 3.597-1.439-1.4.064-5.281 3.357-8.666 3.294-3.387 7.131-4.997 8.57-3.597"/><path fill="#949DAA" d="M789.537 403.47c1.193 1.16-.052 4.377-2.781 7.184-2.73 2.806-5.91 4.14-7.103 2.98-1.193-1.16.052-4.376 2.78-7.183 2.73-2.806 5.912-4.141 7.104-2.98"/><path fill="#AAB4C4" d="M716.846 334.223c5.22 5.075-.044 8.188-5.119 13.406-5.074 5.218-8.04 10.566-13.258 5.49-5.218-5.075-5.334-13.418-.26-18.636 5.075-5.218 13.42-5.334 18.637-.26M544.921 22.941c.862 4.384-3.55 8.943-9.855 10.183-6.306 1.241-12.117-1.308-12.979-5.69-.862-4.384 3.55-8.943 9.855-10.184 6.306-1.24 12.117 1.308 12.98 5.691"/><path fill="#FFF" d="M522.48 27.597c-.863-4.384 3.55-8.943 9.854-10.183 2.992-.588 5.87-.323 8.163.584-2.353-1.038-5.39-1.37-8.554-.747-6.306 1.24-10.718 5.8-9.856 10.183.454 2.305 2.276 4.1 4.817 5.106-2.336-1.03-3.995-2.76-4.425-4.943"/><path fill="#AAB4C4" d="M522.557 53.842l-40.902 8.046-3.124-15.879 40.902-8.046z"/><path stroke="#D0D8E2" stroke-width="3" d="M486.157 44.51l3.124 15.878m5.195-17.515l3.123 15.879m5.196-17.516l3.123 15.879m5.196-17.516l3.124 15.879"/><path fill="#D0D8E2" d="M529.352 45.069l-49.14 9.487-.205-1.04 49.037-10.007z"/><path fill="#AAB4C4" d="M551.208 31.712l40.9-8.046 3.125 15.88-40.902 8.045z"/><path stroke="#D0D8E2" stroke-width="3" d="M587.607 41.045l-3.124-15.879m-5.194 17.516l-3.124-15.879m-5.196 17.515l-3.124-15.878m-5.195 17.515l-3.124-15.879"/><path fill="#D0D8E2" d="M544.412 40.486l49.14-9.487.205 1.04-49.037 10.007z"/><path fill="#E4E8EC" d="M550.098 61.61L531.9 65.19l-7.994-40.634 18.198-3.58z"/><path fill="#AAB4C4" d="M527.566 63.748l4.334 1.443-7.994-40.636-3.413 3.236z"/><path fill="#FFF" d="M523.906 24.556l-3.413 3.236.1.52 3.416-3.236 18.198-3.58-.103-.52z"/><path fill="#AAB4C4" d="M553.563 58.634l-3.465 2.977-7.994-40.636 4.386 1.702zM534.58 61.88l11.265-2.216-6.921-35.183-11.266 2.216 6.922 35.183zm11.68-1.937l-11.958 2.352-7.06-35.876 11.96-2.352 7.058 35.876z"/><path fill="#AAB4C4" d="M531.712 30.22l-3.351.66-.524-2.657 3.352-.66zm4.073-.8l-3.352.658-.522-2.657 3.35-.659zm-1.55 3.868l-3.351.659-.522-2.658 3.35-.659zm4.073-.801l-3.35.659-.524-2.658 3.351-.66zm-1.188 3.797l-3.351.66-.522-2.659 3.35-.659zm4.073-.801l-3.351.659-.523-2.658 3.35-.66z"/></g></svg>