<svg width="704" height="88" viewBox="0 0 704 88" fill="none" xmlns="http://www.w3.org/2000/svg">
<g id="iconAtlas">
<g id="Care Home">
<circle id="Ellipse 1" cx="44" cy="44" r="44" fill="#F6BE00"/>
<g id="care-home 1" clip-path="url(#clip0)">
<path id="Vector" d="M67.6493 36.068C67.1675 36.068 66.7043 36.2568 66.3631 36.5938C66.0218 36.9308 65.8305 37.3882 65.8305 37.864V72H22.1694V37.864C22.1694 37.3882 21.9781 36.9308 21.6369 36.5938C21.2956 36.2568 20.8306 36.068 20.3506 36.068H14L43.9999 8L74 36.068H67.6493Z" fill="#333F48"/>
<path id="Vector_2" d="M49.3572 61.4898H39.5858C38.2365 61.4898 37.1428 62.5835 37.1428 63.9326C37.1428 65.2817 38.2365 66.3754 39.5858 66.3754H49.3572C50.7063 66.3754 51.8 65.2817 51.8 63.9326C51.8 62.5835 50.7063 61.4898 49.3572 61.4898ZM53.8796 37.9218C52.5116 36.5382 50.6909 35.7754 48.7573 35.7754C46.9898 35.7754 45.3183 36.4114 44 37.5772C42.68 36.4114 41.0104 35.7754 39.2429 35.7754C37.3074 35.7754 35.4886 36.5382 34.1206 37.9218C32.7543 39.3051 32 41.1445 32 43.1023C32 45.0582 32.7543 46.8994 34.1206 48.2829L43.6349 57.9086C43.7326 58.0064 43.863 58.0612 44 58.0612C44.1372 58.0612 44.2675 58.0064 44.3635 57.9086L53.8779 48.2829C55.2475 46.8994 56 45.06 56 43.1023C56 41.1445 55.2458 39.3051 53.8796 37.9218ZM38.3926 38.4187C37.3915 38.4187 36.4486 38.8079 35.7406 39.516C35.0325 40.224 34.6435 41.1669 34.6435 42.168C34.6435 42.4252 34.4343 42.6326 34.1789 42.6326C33.9218 42.6326 33.7144 42.425 33.7144 42.1697C33.7144 40.9182 34.2012 39.7439 35.0857 38.8611C35.9685 37.9766 37.1428 37.4896 38.3943 37.4896C38.6498 37.4896 38.8572 37.6972 38.8572 37.9525C38.8572 38.2097 38.6498 38.4171 38.3943 38.4171L38.3926 38.4187Z" fill="#F6BE00"/>
</g>
</g>
<g id="GP">
<circle id="Ellipse 2" cx="132" cy="44" r="44" fill="#F6BE00"/>
<g id="gp-surgeries 1" clip-path="url(#clip1)">
<path id="Vector_3" d="M141.048 30.1607H122C121.238 30.1607 120.571 29.494 120.571 28.7321V19.6845C120.571 17.5893 122.286 15.875 124.381 15.875H138.667C140.762 15.875 142.476 17.5893 142.476 19.6845V28.7321C142.476 29.494 141.809 30.1607 141.048 30.1607ZM124.381 26.3512H138.667V20.6369C138.667 20.0655 138.286 19.6845 137.714 19.6845H125.333C124.762 19.6845 124.381 20.0655 124.381 20.6369V26.3512Z" fill="#535E66"/>
<path id="Vector_4" d="M157.238 72.0656H106.762C104.095 72.0656 102 69.9702 102 67.3036V31.1131C102 28.4464 104.095 26.3512 106.762 26.3512H157.238C159.905 26.3512 162 28.4464 162 31.1131V67.3036C162 69.9702 159.905 72.0656 157.238 72.0656Z" fill="#333F48"/>
<path id="Vector_5" d="M106.762 72.0656H109.619C106.952 72.0656 104.857 69.9702 104.857 67.3036V31.1131C104.857 28.4464 106.952 26.3512 109.619 26.3512H106.762C104.095 26.3512 102 28.4464 102 31.1131V67.3036C102 69.9702 104.095 72.0656 106.762 72.0656ZM157.238 26.3512H154.381C157.048 26.3512 159.143 28.4464 159.143 31.1131V67.3036C159.143 69.9702 157.048 72.0656 154.381 72.0656H157.238C159.905 72.0656 162 69.9702 162 67.3036V31.1131C162 28.4464 159.905 26.3512 157.238 26.3512Z" fill="#535E66"/>
<path id="Vector_6" d="M124.175 59.1093C125.488 59.1093 126.503 58.9361 128.261 58.4407C129.474 58.0942 130.019 57.995 131.183 57.896C131.133 57.1036 131.109 56.7074 131.109 55.4199V53.315C131.109 51.8542 131.183 51.3836 131.48 51.1113C131.752 50.8389 132.149 50.7399 133.04 50.7151V50.0713H125.735V50.7151C127.697 50.7854 127.989 50.9932 128.011 52.7759L128.013 57.2769C127.667 57.5988 127.468 57.7228 126.998 57.896C126.181 58.2427 125.314 58.4159 124.571 58.4159C123.333 58.4159 122.219 57.9703 121.427 57.1779C119.99 55.6921 119.124 52.7456 119.124 49.3036C119.124 46.9265 119.52 44.8961 120.288 43.2866C121.154 41.4789 122.665 40.5131 124.596 40.5131C126.23 40.5131 127.667 41.2559 128.632 42.6179C129.276 43.5093 129.623 44.4999 129.871 45.9856L130.787 45.9607V40.2161C130.168 40.4636 129.796 40.538 129.326 40.538C128.954 40.538 128.583 40.4883 128.211 40.3893C126.255 39.9189 125.661 39.8199 124.398 39.8199C119.025 39.8199 115.558 43.7075 115.558 49.7741C115.558 55.6426 118.777 59.1093 124.175 59.1093ZM142.177 58.7131V58.0693C140.023 57.995 139.8 57.7723 139.8 55.5189V50.9131H141.013C143.093 50.9131 144.901 50.6654 145.99 50.2693C148.12 49.4769 149.16 47.8674 149.16 45.3418C149.16 41.7513 146.956 40.1913 141.905 40.1913H134.451V40.835C136.383 40.9342 136.581 41.1569 136.581 43.4103V55.5189C136.581 57.7723 136.383 57.995 134.352 58.0693V58.7131H142.177ZM141.088 50.195H139.8V40.9093H141.385C144.257 40.9093 145.718 42.4445 145.718 45.4903C145.718 47.0998 145.297 48.4123 144.505 49.1799C143.787 49.8483 142.623 50.195 141.088 50.195Z" fill="#F6BE00"/>
</g>
</g>
<g id="Hospital">
<circle id="Ellipse 2_2" cx="220" cy="44" r="44" fill="#F6BE00"/>
<g id="hospitals 1">
<g id="Group">
<path id="Vector_7" d="M241 16H199C195.134 16 192 19.134 192 23V65C192 68.866 195.134 72 199 72H241C244.866 72 248 68.866 248 65V23C248 19.134 244.866 16 241 16Z" fill="#333F48"/>
<path id="Vector_8" d="M217.935 57.3V56.39C215.13 56.2885 214.773 55.991 214.75 53.072V43.965H226.37V52.75C226.37 55.97 226.09 56.285 223.185 56.39V57.3H234.07V56.39C231.3 56.2885 230.943 55.991 230.92 53.072V35.635C230.92 32.485 231.2 32.135 233.965 32.03V31.12H223.325V32.03C226.09 32.135 226.37 32.485 226.37 35.635V42.81H214.75V35.635C214.75 32.485 215.03 32.135 217.795 32.03V31.12H207.19V32.03C209.92 32.135 210.2 32.485 210.2 35.635V52.75C210.2 55.97 209.92 56.285 207.05 56.39V57.3H217.935Z" fill="#F6BE00"/>
</g>
</g>
</g>
<g id="HSC">
<circle id="Ellipse 2_3" cx="308" cy="44" r="44" fill="#F6BE00"/>
<g id="health-and-social-care-trust 1">
<path id="Vector_9" d="M311.355 65.5216C311.856 65.934 312.119 66.568 312.055 67.2136V71.453L310.752 71.3558L310.421 70.5196C310.188 70.8424 309.882 71.103 309.527 71.278C309.145 71.4394 308.733 71.5114 308.321 71.492C307.796 71.521 307.286 71.3246 306.915 70.9532C306.545 70.5838 306.347 70.0704 306.376 69.5472C306.337 68.956 306.61 68.3882 307.096 68.0498C307.745 67.6726 308.484 67.4858 309.235 67.5052H310.343V67.2136C310.376 66.9432 310.281 66.673 310.087 66.4824C309.892 66.2918 309.62 66.2024 309.352 66.2412C308.723 66.2704 308.107 66.4298 307.543 66.708L306.979 65.5412C307.728 65.1484 308.564 64.948 309.41 64.9578C310.104 64.9188 310.791 65.1172 311.355 65.5216ZM326.932 62.5852V71.4336H325.609L325.318 70.5196C324.934 71.175 324.205 71.5464 323.451 71.4724C322.751 71.4996 322.083 71.171 321.681 70.5974C321.208 69.8856 320.981 69.0378 321.039 68.186C320.991 67.3284 321.214 66.4766 321.681 65.755C322.103 65.1834 322.78 64.8566 323.49 64.88C324.141 64.8488 324.763 65.125 325.174 65.619L325.318 65.8134C325.24 65.3894 325.193 64.9596 325.181 64.5298V62.5852H326.932ZM300.989 65.6384C301.505 66.2276 301.769 66.9958 301.728 67.7776V68.5748H297.625C297.623 69.0008 297.783 69.411 298.072 69.7222C298.376 70.0236 298.792 70.1792 299.22 70.15C299.585 70.15 299.951 70.1112 300.309 70.0334C300.678 69.94 301.036 69.8098 301.378 69.6444V70.9862C301.071 71.1418 300.744 71.2604 300.406 71.3364C299.99 71.416 299.566 71.4608 299.142 71.4724C298.259 71.527 297.392 71.2274 296.73 70.6362C296.124 69.9868 295.813 69.1116 295.875 68.2248C295.811 67.3302 296.097 66.4434 296.672 65.755C297.246 65.1502 298.057 64.8294 298.889 64.88C299.663 64.8352 300.422 65.1094 300.989 65.6384ZM295.097 64.88L294.961 66.6302C294.333 66.4824 293.671 66.6166 293.152 66.9996C292.829 67.3148 292.658 67.7542 292.685 68.2054V71.4336H290.955V64.9966H292.277L292.53 66.0662C292.769 65.6968 293.106 65.4012 293.502 65.2106C293.802 65.0082 294.152 64.8936 294.514 64.88H295.097ZM304.957 62.5074L304.879 71.3558H303.226V62.5074H304.957ZM319.056 65.4828C319.476 65.9574 319.686 66.5816 319.639 67.2136V71.3558H317.889V67.6414C317.914 67.2816 317.832 66.9238 317.655 66.6108C317.473 66.3696 317.179 66.2374 316.878 66.2606C316.467 66.2296 316.069 66.4144 315.827 66.7468C315.563 67.2408 315.448 67.8028 315.497 68.361V71.3558H313.766V64.9966H315.088L315.322 65.8134H315.419C315.606 65.5022 315.886 65.2592 316.216 65.1134C316.584 64.95 316.983 64.8702 317.383 64.88C318.002 64.8294 318.612 65.0492 319.056 65.4828ZM288.991 63.0324V71.3558H287.221V63.0324H288.991ZM310.246 68.4192H309.565C309.171 68.4038 308.782 68.497 308.438 68.6916C308.185 68.8588 308.045 69.1486 308.068 69.45C308.068 69.9362 308.36 70.189 308.904 70.189C309.262 70.2084 309.614 70.082 309.877 69.839C310.127 69.6016 310.262 69.2692 310.246 68.925V68.4192ZM324.015 66.2802C323.647 66.2782 323.307 66.4708 323.12 66.7858C322.877 67.2174 322.762 67.7094 322.789 68.2054C322.756 68.7012 322.871 69.1952 323.12 69.625C323.328 69.9322 323.684 70.1092 324.053 70.0918C324.421 70.119 324.779 69.975 325.026 69.7028C325.279 69.31 325.403 68.8472 325.376 68.3804V68.2054C325.415 67.69 325.3 67.1746 325.045 66.7274C324.798 66.4162 324.411 66.247 324.015 66.2802ZM298.889 66.1052C298.564 66.0838 298.247 66.212 298.033 66.4552C297.804 66.7352 297.674 67.0852 297.664 67.447H300.114C300.12 67.0852 299.996 66.7332 299.764 66.4552C299.537 66.216 299.22 66.0876 298.889 66.1052ZM320.125 51.6366C320.65 52.22 320.917 52.992 320.864 53.7758V54.612H316.839C316.837 55.0378 316.996 55.4482 317.286 55.7594C317.589 56.0588 318.007 56.2144 318.433 56.1872C318.799 56.1872 319.165 56.1482 319.522 56.0704C319.892 55.9772 320.25 55.8468 320.592 55.6816V57.0234C320.285 57.179 319.958 57.2976 319.62 57.3734C319.176 57.4454 318.727 57.4764 318.278 57.4706C317.387 57.5698 316.502 57.2606 315.866 56.6286C315.232 55.9986 314.917 55.1118 315.011 54.223C314.946 53.3284 315.232 52.4416 315.808 51.7532C317.014 50.633 318.861 50.5826 320.125 51.6366ZM304.587 49.6336V51.0726H306.376V52.3756H304.587V55.4482C304.564 55.6542 304.643 55.8566 304.801 55.9926C304.964 56.09 305.159 56.123 305.345 56.09C305.715 56.0802 306.084 56.014 306.435 55.8954V57.179C305.929 57.387 305.384 57.4862 304.84 57.4706C304.282 57.5232 303.729 57.3306 303.323 56.9456C302.973 56.4982 302.8 55.9382 302.837 55.3704V52.2978H302.02V51.5588L302.973 50.9754L303.479 49.6336H304.587ZM292.861 50.8782C293.423 50.8704 293.977 51.0046 294.475 51.267C294.936 51.5394 295.307 51.936 295.544 52.4144C295.809 52.959 295.941 53.5598 295.933 54.1646C295.978 55.0534 295.68 55.9246 295.097 56.5956C294.5 57.2004 293.671 57.5192 292.822 57.4706C292.258 57.4804 291.703 57.3462 291.208 57.0818C290.737 56.8094 290.358 56.403 290.118 55.9148C289.862 55.3684 289.735 54.7676 289.749 54.1646C289.698 53.2798 289.99 52.4086 290.566 51.7338C291.176 51.1388 292.009 50.8276 292.861 50.8782ZM301.495 50.8782L301.378 52.5116C301.203 52.4884 301.028 52.4884 300.853 52.5116C300.387 52.4962 299.933 52.6478 299.57 52.9394C299.247 53.2546 299.076 53.694 299.103 54.1452V57.3734H297.392V51.0726H298.714L298.967 52.1422H299.064C299.249 51.7922 299.525 51.4966 299.861 51.2866C300.163 51.0492 300.528 50.9072 300.912 50.8782H301.495ZM332.882 51.5588C333.302 52.0332 333.512 52.6576 333.466 53.2896V57.354H331.735V53.6396C331.754 53.2778 331.667 52.92 331.482 52.609C331.301 52.3658 331.008 52.2336 330.704 52.2588C330.294 52.2278 329.895 52.4124 329.654 52.745C329.39 53.239 329.275 53.801 329.324 54.3592V57.354H327.593V51.0726H328.915L329.149 51.8894H329.246C329.433 51.5782 329.713 51.3352 330.043 51.1892C330.411 51.026 330.809 50.9462 331.21 50.956C331.828 50.9054 332.439 51.125 332.882 51.5588ZM283.02 49.1278L286.637 55.3704V49.1278H288.232L288.174 57.354H285.937L282.301 51.0726V57.354H280.784V49.1278H283.02ZM309.468 48.5056V51.8116C309.853 51.1698 310.571 50.8082 311.316 50.8782C311.946 50.8276 312.568 51.0474 313.027 51.481C313.443 51.9574 313.653 52.5798 313.61 53.2118V57.354H311.86V53.6396C311.86 52.7256 311.53 52.2588 310.849 52.2588C310.429 52.2296 310.022 52.4202 309.779 52.7644C309.532 53.2584 309.425 53.8088 309.468 54.3592V57.354H307.718V48.5056H309.468ZM326.426 50.8782L326.29 52.5116C325.662 52.3638 325.001 52.498 324.481 52.8812C324.158 53.1962 323.987 53.6356 324.015 54.0868V57.315H322.284V51.0726H323.606L323.859 52.1422C324.05 51.796 324.326 51.5004 324.656 51.2866C324.997 51.024 325.415 50.8782 325.843 50.8782H326.426ZM293.057 52.2784H292.861C292.472 52.2432 292.09 52.4222 291.869 52.745C291.628 53.1768 291.519 53.6708 291.558 54.1646C291.523 54.6644 291.631 55.1622 291.869 55.6038C292.098 55.9304 292.481 56.1152 292.88 56.09C293.275 56.119 293.654 55.9344 293.872 55.6038C294.109 55.1622 294.218 54.6644 294.183 54.1646C294.218 53.6708 294.111 53.1786 293.872 52.745C293.681 52.4728 293.382 52.3036 293.057 52.2784ZM318.025 52.1032C317.7 52.0818 317.383 52.2102 317.169 52.4534C316.94 52.7334 316.809 53.0834 316.8 53.4452H319.25C319.256 53.0834 319.131 52.7314 318.9 52.4534C318.672 52.2142 318.356 52.0858 318.025 52.1032ZM332.668 18.0127C335.216 18.0361 337.725 18.6409 340 19.7824L338.23 24.0802C337.312 23.6426 336.371 23.2517 335.411 22.9134C334.53 22.6022 333.602 22.4369 332.668 22.4272C330.848 22.3494 329.11 23.1876 328.04 24.6636C326.85 26.5266 326.278 28.7183 326.407 30.9255C326.407 36.5126 328.493 39.3014 332.668 39.2878C334.852 39.21 337.007 38.7684 339.047 37.9848V42.4186C336.869 43.2996 334.533 43.7372 332.182 43.7022C329.047 43.9044 325.987 42.691 323.84 40.3962C321.753 37.6912 320.728 34.3152 320.961 30.9061C320.907 28.553 321.385 26.2194 322.362 24.0802C323.241 22.2016 324.662 20.6283 326.445 19.5685C328.343 18.5028 330.49 17.9641 332.668 18.0127ZM309.993 18.0127C311.246 18.005 312.494 18.1625 313.708 18.4795C314.978 18.8178 316.218 19.2534 317.422 19.7824L315.711 23.8468C314.631 23.3995 313.529 23.0164 312.405 22.6995C311.559 22.4914 310.69 22.3883 309.818 22.3883C308.994 22.33 308.177 22.5828 307.524 23.0884C306.983 23.5396 306.681 24.2144 306.707 24.9164C306.716 25.3695 306.858 25.809 307.115 26.1805C307.387 26.583 307.737 26.9272 308.146 27.1917C308.632 27.5029 309.741 28.0863 311.51 28.9419C313.334 29.6945 314.974 30.8361 316.314 32.2868C317.169 33.4926 317.601 34.951 317.539 36.429C317.626 38.4962 316.714 40.4778 315.088 41.7574C313.124 43.1654 310.732 43.852 308.321 43.7022C305.89 43.741 303.484 43.2276 301.281 42.2048V37.2846C302.668 37.9128 304.097 38.4398 305.559 38.8598C306.604 39.1536 307.683 39.311 308.768 39.3266C309.709 39.3888 310.647 39.1594 311.452 38.6654C312.066 38.2124 312.416 37.483 312.385 36.7208C312.395 36.2502 312.245 35.7912 311.957 35.4178C311.633 34.9724 311.222 34.5972 310.752 34.3092C309.709 33.6812 308.632 33.1172 307.524 32.6174C306.291 32.0748 305.134 31.3767 304.081 30.5366C303.337 29.8909 302.716 29.1131 302.253 28.2418C301.787 27.287 301.553 26.233 301.573 25.1692C301.47 23.1837 302.288 21.2604 303.79 19.9574C305.557 18.5845 307.759 17.896 309.993 18.0127ZM281.29 18.3628V28.0863H291.188V18.3628H296.478V43.2938H291.188V32.5786H281.29V43.2938H276V18.3628H281.29Z" fill="#333F48"/>
</g>
</g>
<g id="Local Authority">
<circle id="Ellipse 2_4" cx="396" cy="44" r="44" fill="#F6BE00"/>
<g id="local-authority-agency 1">
<g id="Group_2">
<path id="Vector_10" d="M422.531 22.4265V30.0095H369.45V22.4265L395.991 12L422.531 22.4265Z" fill="#333F48" stroke="#333F48" stroke-width="1.96" stroke-linecap="round" stroke-linejoin="round"/>
<path id="Vector_11" d="M426 62.3128V66.654H366V62.3128H370.341V57.9905H374.815V53.8578H417.204V57.9905H421.659V62.3128H426Z" fill="#333F48" stroke="#333F48" stroke-width="1.6" stroke-linejoin="round"/>
<path id="Vector_12" d="M416.919 33.4976H414.986L415.517 51.4123H409.829L410.455 33.4976H408.427V32.455H416.919V33.4976ZM405.791 33.4976H403.858L404.408 51.4123H398.72L399.327 33.4976H397.318V32.455H405.791V33.4976ZM394.682 33.4976H392.73L393.28 51.4123H387.592L388.218 33.4976H386.19V32.455H394.682V33.4976ZM383.554 33.4976H381.621L382.152 51.4123H376.464L377.09 33.4976H375.081V32.455H383.554V33.4976Z" fill="#333F48" stroke="#333F48" stroke-width="1.62" stroke-linejoin="round"/>
</g>
</g>
</g>
<g id="NHS">
<circle id="Ellipse 2_5" cx="484" cy="44" r="44" fill="#F6BE00"/>
<g id="nhs 1">
<g id="Group_3">
<path id="Vector_13" d="M505 16H463C459.134 16 456 19.134 456 23V65C456 68.866 459.134 72 463 72H505C508.866 72 512 68.866 512 65V23C512 19.134 508.866 16 505 16Z" fill="#333F48"/>
<path id="Vector_14" d="M474.149 52.386V39.6688C474.149 38.2128 474.286 37.3028 474.627 36.7568C474.991 36.1653 475.469 35.9378 476.561 35.8923V35.278H470.805V35.8923C471.965 35.9605 472.443 36.1653 472.784 36.7568C473.103 37.28 473.217 38.1218 473.217 39.828V48.382L463.935 35.278H459.18V35.8695C461 36.006 461.387 36.4838 461.387 38.7133V47.745C461.387 50.839 460.909 51.5898 458.975 51.6808V52.295H464.685V51.6808C462.729 51.567 462.319 50.93 462.319 47.927V37.8715L472.466 52.386H474.149ZM484.683 52.295V51.7035C482.794 51.6353 482.612 51.4305 482.612 49.3375V43.6273H490.165V49.3375C490.165 51.4305 489.983 51.6353 488.095 51.7035V52.295H495.17V51.7035C493.385 51.6388 493.14 51.448 493.123 49.6V38.2128C493.123 36.1653 493.305 35.9378 495.102 35.8695V35.278H488.186V35.8695C489.983 35.9378 490.165 36.1653 490.165 38.2128V42.8765H482.612V38.2128C482.612 36.1653 482.794 35.9378 484.592 35.8695V35.278H477.698V35.8695C479.473 35.9378 479.655 36.1653 479.655 38.2128V49.3375C479.655 51.4305 479.473 51.6353 477.607 51.7035V52.295H484.683ZM502.541 52.6363C504.202 52.6363 505.635 52.1813 506.705 51.3395C507.728 50.5433 508.297 49.2238 508.297 47.6768C508.297 46.3573 507.888 45.3108 507.114 44.5145C506.341 43.741 505.362 43.1268 503.338 42.194C501.518 41.3295 500.949 40.9883 500.38 40.4423C499.88 39.9418 499.629 39.282 499.629 38.5313C499.629 36.7795 500.835 35.5738 502.587 35.5738C503.929 35.5738 505.044 36.2108 505.726 37.371C506.204 38.1445 506.409 38.918 506.5 40.2148H507.41L507.592 35.1188C506.909 35.369 506.591 35.4373 506.227 35.4373C505.999 35.4373 505.749 35.4145 505.431 35.3463C503.724 35.005 503.406 34.9595 502.655 34.9595C501.427 34.9595 500.517 35.1188 499.743 35.4828C498.082 36.2563 497.059 37.8715 497.059 39.737C497.059 41.3068 497.627 42.3988 498.924 43.3543C499.447 43.741 499.971 44.0368 501.904 44.9695C504.748 46.3573 505.635 47.29 505.635 48.837C505.635 50.7935 504.43 51.9765 502.428 51.9765C499.88 51.9765 498.515 50.3613 498.196 46.9488H497.286L497.104 52.386C497.923 52.2268 498.219 52.1813 498.606 52.1813C498.901 52.1813 499.197 52.204 499.47 52.2495C501.085 52.568 501.631 52.6363 502.541 52.6363Z" fill="#F6BE00"/>
</g>
</g>
</g>
<g id="Pharmacies">
<circle id="Ellipse 2_6" cx="572" cy="44" r="44" fill="#F6BE00"/>
<g id="pharmacies 1">
<path id="Vector_15" d="M601.077 54.4674L595.452 64.2158C594.735 65.4476 593.2 65.8574 591.972 65.1386L543.273 37.0198C542.046 36.303 541.636 34.7624 542.353 33.5328L547.978 23.7822C548.695 22.5505 550.23 22.1406 551.458 22.8594L600.157 51.0792C601.384 51.695 601.794 53.2356 601.077 54.4654V54.4674Z" fill="#333F48"/>
<path id="Vector_16" d="M542.353 54.396L547.978 64.2078C548.695 65.4456 550.23 65.8594 551.458 65.1366L600.157 36.7366C601.384 36.0138 601.794 34.4654 601.077 33.2258L595.452 23.4138C594.735 22.1762 593.2 21.7623 591.972 22.4851L543.273 50.8852C542.046 51.6078 541.636 53.1564 542.353 54.396Z" fill="#333F48"/>
<path id="Vector_17" d="M577.551 76H565.879C564.394 76 563.226 74.8634 563.226 73.4178V14.5802C563.226 13.1347 564.394 12 565.879 12H577.551C579.036 12 580.204 13.1347 580.204 14.5802V73.4178C580.204 74.8634 579.036 75.998 577.551 75.998V76Z" fill="#333F48"/>
<path id="Vector_18" d="M578.899 43.7426C578.899 40.9584 576.386 39.6198 573.875 38.5882V32.406C576.386 31.3762 578.899 30.0357 578.899 27.2535C578.899 26.4297 578.196 25.7089 577.392 25.7089C576.588 25.7089 575.885 26.4297 575.885 27.2535C575.885 27.8713 574.98 28.4911 573.875 29.006V23.8535C575.38 23.2357 576.386 21.7921 576.386 20.0396C576.386 17.7723 574.578 15.9188 572.367 15.9188C570.159 15.9188 568.349 17.7723 568.349 20.0396C568.349 21.7921 569.355 23.2357 570.862 23.8535V30.3446C568.349 31.3743 565.838 32.7148 565.838 35.497C565.838 38.2792 568.349 39.6198 570.862 40.6496V46.8336C568.349 47.8634 565.838 49.204 565.838 51.9862C565.838 54.7684 568.349 56.107 570.862 57.1386V63.3208C568.349 64.3506 565.838 65.691 565.838 68.4732C565.838 69.297 566.541 70.0178 567.345 70.0178C568.149 70.0178 568.852 69.297 568.852 68.4732C568.852 67.8554 569.757 67.2376 570.862 66.7208V70.5346C570.862 71.3584 571.565 72.0792 572.367 72.0792C573.172 72.0792 573.875 71.3584 573.875 70.5346V65.3822C576.386 64.3524 578.899 63.0118 578.899 60.2298C578.899 57.4476 576.386 56.107 573.875 55.0772V48.891C576.386 47.8614 578.899 46.5228 578.899 43.7386V43.7426ZM575.885 43.7426C575.885 44.3604 574.98 44.9782 573.875 45.493V41.8872C574.98 42.505 575.885 43.1228 575.885 43.7406V43.7426ZM568.852 35.497C568.852 34.8792 569.757 34.2614 570.862 33.7466V37.3524C569.757 36.7346 568.852 36.1168 568.852 35.497ZM568.852 51.9862C568.852 51.3664 569.757 50.7486 570.862 50.2336V53.8396C569.757 53.2218 568.852 52.604 568.852 51.9862ZM575.885 60.2298C575.885 60.8476 574.98 61.4654 573.875 61.9822V58.3742C574.98 58.992 575.885 59.6118 575.885 60.2298Z" fill="#F6BE00"/>
</g>
</g>
<circle id="Blank" cx="660" cy="44" r="44" fill="#F6BE00"/>
</g>
<defs>
<clipPath id="clip0">
<rect width="64" height="64" fill="white" transform="translate(12 8)"/>
</clipPath>
<clipPath id="clip1">
<rect width="60" height="60" fill="white" transform="translate(102 14)"/>
</clipPath>
</defs>
</svg>
