<svg xmlns="http://www.w3.org/2000/svg" viewBox="0 0 50 51"><g fill="none"><path fill="currentColor" d="M35.766 41.733h-23.55a.317.317 0 01-.317-.316V11.363c0-.175.142-.317.317-.317H29.65l.06.065v5.7c0 .722.584 1.307 1.305 1.307h5.067v23.299a.318.318 0 01-.316.316m1.966-24.68l-6.964-7.599a.949.949 0 00-.7-.308H12.216A2.218 2.218 0 0010 11.363v30.054c0 1.22.994 2.214 2.216 2.214h23.55a2.218 2.218 0 002.215-2.214V17.694a.948.948 0 00-.25-.642"/><path stroke="currentColor" stroke-linecap="square" d="M11.5 15.5h13M11 20h13m-13 5h9m-9 4h21m-21 4h16m-16 4h21"/><g transform="translate(28 7)"><circle cx="6.333" cy="6.333" r="6.333" fill="currentColor"/><path fill="#FFF" d="M10.646 3.293a.399.399 0 00-.582 0L5.132 8.459 3.236 6.473a.399.399 0 00-.582 0 .446.446 0 000 .61l2.187 2.29c.16.17.421.169.582 0l5.223-5.47a.446.446 0 000-.61z"/></g></g></svg>