<?xml version="1.0" encoding="UTF-8" standalone="no"?>
<svg width="920.25403" height="24" viewBox="0 0 920.25403 24" fill="none" version="1.1" id="svg1258"
  xmlns="http://www.w3.org/2000/svg"
  xmlns:svg="http://www.w3.org/2000/svg">
  <path d="M 10.417,6.74 H 8.862 C 8.862,6.484 8.822,6.404 8.714,6.19 8.219,5.263 8.219,4.072 8.714,3.145 8.822,2.931 8.862,2.85 8.862,2.593 8.862,2.335 8.822,2.256 8.714,2.041 8.466,1.591 8.337,1.06 8.343,0.518997 h 1.556 c 0,0.257 0.04,0.337 0.146,0.551003 0.148,0.296 0.372,0.743 0.372,1.523 0.006,0.541 -0.124,1.072 -0.372,1.523 -0.107,0.215 -0.146,0.295 -0.146,0.552 0,0.256 0.04,0.336 0.146,0.55 0.248,0.45 0.378,0.982 0.372,1.523 z" fill="#000000" id="path1078" />
  <path d="m 6.26898,6.74 h -1.555 c 0,-0.256 -0.04,-0.336 -0.148,-0.55 -0.248,-0.45 -0.377,-0.981 -0.37,-1.522 0,-0.78 0.223,-1.227 0.37,-1.523 0.108,-0.214 0.148,-0.295 0.148,-0.552 0,-0.258 -0.04,-0.337 -0.148,-0.552 -0.248,-0.45 -0.377,-0.981 -0.37,-1.522003 h 1.554 c 0,0.257 0.04,0.337 0.147,0.551003 0.147,0.296 0.37,0.743 0.37,1.523 0.007,0.541 -0.122,1.072 -0.37,1.523 -0.107,0.215 -0.147,0.295 -0.147,0.552 0,0.256 0.04,0.336 0.147,0.55 0.147,0.296 0.37,0.743 0.37,1.523 z" fill="#000000" id="path1080" />
  <path fill-rule="evenodd" clip-rule="evenodd" d="m 15.556,7.25999 c 4.15,0 4.145,8.29601 0,8.29601 v 0.471 c 0,4.33 -3.473,7.825 -7.742,7.825 C 3.413,23.852 0,20.298 0,16.027 V 8.25999 c 0,-0.552 0.448,-1 1,-1 z M 4.938,12.401 c -1.187,1.312 -0.982,3.51 0.491,4.984 1.31,1.31 3.193,1.616 4.517,0.834 C 9.629,17.869 9.577,17.537 9.541,17.291 9.51,17.074 9.492,16.955 9.319,16.782 9.147,16.609 9.028,16.592 8.811,16.56 8.549,16.522 8.191,16.47 7.815,16.094 7.439,15.718 7.387,15.36 7.349,15.098 7.317,14.882 7.299,14.762 7.127,14.59 6.955,14.417 6.836,14.4 6.619,14.368 6.357,14.33 5.999,14.278 5.623,13.902 5.247,13.526 5.195,13.168 5.157,12.906 5.125,12.691 5.107,12.572 4.938,12.401 Z m 5.189,0.286 c -1.31,-1.31 -3.193,-1.616 -4.518,-0.834 0.318,0.35 0.37,0.682 0.405,0.928 0.032,0.217 0.05,0.336 0.221,0.508 0.173,0.173 0.292,0.19 0.509,0.222 0.262,0.038 0.62,0.09 0.996,0.466 0.376,0.376 0.428,0.734 0.466,0.996 0.032,0.217 0.05,0.336 0.221,0.509 0.173,0.172 0.292,0.19 0.51,0.221 0.26,0.038 0.62,0.09 0.995,0.466 0.376,0.376 0.428,0.735 0.466,0.996 0.032,0.216 0.05,0.335 0.22,0.506 1.186,-1.312 0.982,-3.51 -0.491,-4.984 z M 15.556,8.56099 V 14.251 c 1.107,0 1.992,-1.133 1.992,-2.527 v -0.636 c 0,-1.39301 -0.885,-2.52701 -1.992,-2.52701 z" fill="#000000" id="path1082" />
  <path fill-rule="evenodd" clip-rule="evenodd" d="m 43.1185,10.5255 c -0.1807,0 -0.3544,0.0708 -0.4823,0.1972 -0.128,0.1263 -0.1998,0.2979 -0.1998,0.4763 V 24 H 26.0635 V 11.199 c 0,-0.1784 -0.0717,-0.35 -0.1997,-0.4763 -0.128,-0.1264 -0.3023,-0.1972 -0.4823,-0.1972 H 23 L 34.25,0 45.5,10.5255 Z m -5.1636,0.6952 c -0.513,-0.5189 -1.1958,-0.8049 -1.9209,-0.8049 -0.6628,0 -1.2896,0.2385 -1.784,0.6757 -0.495,-0.4372 -1.1211,-0.6757 -1.7839,-0.6757 -0.7258,0 -1.4079,0.286 -1.9209,0.8049 -0.5123,0.5187 -0.7952,1.2085 -0.7952,1.9427 0,0.7334 0.2829,1.4239 0.7952,1.9427 l 3.5679,3.6096 c 0.0366,0.0367 0.0855,0.0572 0.1369,0.0572 0.0514,0 0.1003,-0.0205 0.1363,-0.0572 l 3.5679,-3.6096 c 0.5136,-0.5188 0.7958,-1.2086 0.7958,-1.9427 0,-0.7342 -0.2828,-1.424 -0.7951,-1.9427 z m -6.8022,0.5978 c 0.2655,-0.2655 0.6191,-0.4115 0.9945,-0.4115 l 7e-4,-6e-4 c 0.0958,0 0.1736,-0.0778 0.1736,-0.1742 0,-0.0958 -0.0778,-0.1736 -0.1736,-0.1736 -0.4694,0 -0.9097,0.1826 -1.2408,0.5143 -0.3316,0.3311 -0.5142,0.7714 -0.5142,1.2407 0,0.0958 0.0778,0.1736 0.1742,0.1736 0.0958,0 0.1742,-0.0778 0.1742,-0.1742 0,-0.3754 0.1459,-0.729 0.4114,-0.9945 z m 1.442,8.2402 h 3.6643 c 0.5059,0 0.916,0.4101 0.916,0.916 0,0.5059 -0.4101,0.9161 -0.916,0.9161 h -3.6643 c -0.506,0 -0.9162,-0.4102 -0.9162,-0.9161 0,-0.5059 0.4102,-0.916 0.9162,-0.916 z" fill="#000000" id="path1084" />
  <path d="m 70.679,7.069 -11.4,-6 c -0.175,-0.092 -0.383,-0.092 -0.558,0 l -11.4,6 C 47.123,7.172 47,7.377 47,7.599 V 10 c 0,0.21 0.11,0.405 0.29,0.514 0.18,0.108 0.403,0.115 0.589,0.017 L 59,4.678 70.121,10.53 c 0.186,0.098 0.41,0.091 0.59,-0.017 C 70.89,10.404 71,10.209 71,9.999 V 7.6 C 71,7.377 70.877,7.173 70.679,7.07 Z" fill="#000000" id="path1086" />
  <path d="m 58.886,5.571 9.6,5.052 v 12.114 c -0.001,0.298 -0.218,0.545 -0.503,0.592 l -0.097,0.008 h -18 c -0.298,0 -0.545,-0.218 -0.592,-0.502 L 49.286,22.737 V 10.623 Z m 3.747,9.5 -1.983,0.571 c -0.086,0.02 -0.16,0.079 -0.204,0.16 -0.044,0.081 -0.055,0.179 -0.03,0.269 0.024,0.093 0.081,0.172 0.16,0.219 0.078,0.047 0.17,0.058 0.257,0.03 L 62.8,15.75 c 0.146,-0.062 0.309,-0.055 0.45,0.017 0.053,0.057 0.083,0.134 0.083,0.214 0,0.018 -0.017,0.197 -0.517,0.518 l -3.483,2.519 c -0.442,0.314 -1.006,0.355 -1.483,0.107 l -3.067,-1.25 H 54 v 0.696 h 0.6 l 3,1.215 c 0.3,0.139 0.623,0.212 0.95,0.214 0.42,0.001 0.83,-0.143 1.167,-0.41 l 3.45,-2.483 C 63.367,16.982 64,16.589 64,15.981 64.006,15.68 63.876,15.393 63.65,15.213 63.483,15.053 63.15,14.91 62.633,15.07 Z M 56.817,15.017 H 54 v 0.696 h 2.683 L 59,16.446 c 0.175,0.06 0.277,0.255 0.233,0.446 -0.049,0.185 -0.225,0.296 -0.4,0.25 l -1.7,-0.536 c -0.084,-0.033 -0.177,-0.027 -0.256,0.017 -0.08,0.045 -0.138,0.123 -0.16,0.216 -0.055,0.187 0.042,0.386 0.216,0.446 l 1.717,0.536 c 0.08,0.035 0.164,0.053 0.25,0.054 0.455,-0.001 0.853,-0.332 0.967,-0.804 0.07,-0.273 0.037,-0.564 -0.095,-0.81 -0.132,-0.245 -0.35,-0.423 -0.605,-0.494 z M 59.5,9.449 C 58.99,9.029 58.406,8.903 57.896,9.098 57.386,9.293 57,9.848 57,10.51 c 0,1.266 1.25,2.328 2.417,2.776 h 0.166 C 60.75,12.838 62,11.776 62,10.51 62,9.848 61.656,9.312 61.104,9.098 60.552,8.884 60.01,9.03 59.5,9.448 Z" fill="#000000" id="path1088" />
  <path d="m 84.2526,5.05289 c 2.7904,0 5.0525,2.27904 5.0525,5.09031 V 23.6147 C 89.3051,23.8276 89.134,24 88.9225,24 H 79.5827 C 79.3711,24 79.2,23.8276 79.2,23.6147 V 10.1432 c 0,-2.81127 2.2623,-5.09031 5.0526,-5.09031 z" fill="#000000" id="path1090" />
  <path opacity="0.5" d="M 88.6739,0.27311 C 88.62,0.498791 88.4906,0.697526 88.3081,0.835632 88.1241,0.9286 87.9868,0.787798 87.8042,0.694831 c -0.3658,0 -0.5497,0.092967 -0.8246,0.092967 -0.2748,0 -1.67,0.146186 -1.7852,0.158314 V 1.68042 h 0.5935 c 0.0269,0 0.0478,0.02223 0.0485,0.04918 v 0.60766 h 0.5484 c 0.0242,-6.8e-4 0.0471,0.00876 0.0646,0.02627 0.0175,0.01751 0.027,0.04109 0.027,0.06602 v 2.52898 c 0,0.05187 -0.0404,0.09432 -0.0916,0.09432 h -3.9363 c -0.0243,0 -0.0472,-0.01011 -0.0647,-0.02763 C 82.3669,5.00703 82.3569,4.98346 82.3582,4.95786 V 2.42887 c 0,-0.0512 0.0404,-0.09297 0.0903,-0.09297 h 0.642 V 1.72893 c 0,-0.02763 0.0216,-0.04986 0.0484,-0.04986 h 0.5026 V 0.504854 c 0,-0.016168 0.0088,-0.030315 0.023,-0.037725 h -0.023 c 0,0 -0.7322,0 -0.7322,-0.092294 v -0.19604 c 0,-0.049178 0.0201,-0.0963358 0.0545,-0.1300196 0.0351,-0.0336838 0.0822,-0.05119942 0.13,-0.04850472 0,0 0.9149,0.09431492 1.3723,0.09431492 0.4575,0 2.3808,-0.09431492 2.6543,-0.09431492 h 0.9162 c 0,0 0.6367,0.17852432 0.6367,0.27283932 z" fill="#000000" id="path1092" />
  <path opacity="0.5" d="m 86.2702,9.47415 h -4.0354 c -0.9784,0 -1.7717,0.79325 -1.7717,1.77175 v 9.0879 c 0,0.9785 0.7933,1.7718 1.7717,1.7718 h 4.0354 c 0.9785,0 1.7718,-0.7933 1.7718,-1.7718 v -9.0879 c 0,-0.9785 -0.7933,-1.77175 -1.7718,-1.77175 z" fill="#ffffff" id="path1094" />
  <path d="M 118.168,1.905 C 117.298,1.143 112.316,0 112.316,0 c 0,0.762 -0.78,2.286 -3.316,2.286 -2.535,0 -3.316,-1.524 -3.316,-2.286 0,0 -4.982,1.143 -5.852,1.905 C 99.153,2.49975 97.636,6.1065 97,7.665 l 0.011,0.00375 3.913,2.27021 0.859,-1.93872 V 23.619 c 0,0.21 0.175,0.381 0.39,0.381 h 13.654 c 0.215,0 0.39,-0.1718 0.39,-0.381 V 8.00024 L 117.075,9.93896 121,7.665 c -0.635,-1.5585 -2.152,-5.16525 -2.832,-5.76 z" fill="#000000" id="path1096" />
  <path d="m 134.5,7.25 c 1.45,0 2.625,-1.17525 2.625,-2.625 C 137.125,3.17525 135.95,2 134.5,2 c -1.45,0 -2.625,1.17525 -2.625,2.625 0,1.44975 1.175,2.625 2.625,2.625 z" fill="#000000" id="path1098" />
  <path d="m 137.125,8.125 c 0.967,0 1.75,0.783 1.75,1.75 v 0.875 h -8.75 V 9.875 c 0,-0.967 0.783,-1.75 1.75,-1.75 z" fill="#000000" id="path1100" />
  <path d="m 128.375,19.5 c 1.45,0 2.625,-1.1753 2.625,-2.625 0,-1.4497 -1.175,-2.625 -2.625,-2.625 -1.45,0 -2.625,1.1753 -2.625,2.625 0,1.4497 1.175,2.625 2.625,2.625 z" fill="#000000" id="path1102" />
  <path d="m 131,20.375 c 0.967,0 1.75,0.783 1.75,1.75 V 23 H 124 v -0.875 c 0,-0.966 0.784,-1.75 1.75,-1.75 z m 6.918,-13.833 c 1.633,1.1 2.707,2.966 2.707,5.083 0,0.456 -0.054,0.9 -0.148,1.328 0.05,-0.003 0.097,-0.015 0.148,-0.015 0.56,0 1.092,0.12 1.575,0.333 0.113,-0.53 0.175,-1.081 0.175,-1.646 0,-2.92 -1.593,-5.464 -3.955,-6.823 -0.029,0.631 -0.209,1.22 -0.502,1.74 z m -9.543,6.396 c 0.051,0 0.098,0.012 0.149,0.015 -0.095,-0.428 -0.149,-0.871 -0.149,-1.328 0,-2.117 1.074,-3.984 2.707,-5.083 -0.294,-0.52 -0.473,-1.109 -0.501,-1.74 -2.362,1.358 -3.956,3.901 -3.956,6.822 0,0.565 0.061,1.115 0.175,1.646 0.483,-0.212 1.014,-0.333 1.575,-0.333 z m 8.358,4.386 c -0.692,0.271 -1.444,0.426 -2.233,0.426 -0.789,0 -1.54,-0.155 -2.233,-0.426 -0.07,0.602 -0.264,1.164 -0.574,1.651 0.872,0.334 1.817,0.525 2.807,0.525 0.99,0 1.934,-0.19 2.807,-0.525 -0.31,-0.487 -0.505,-1.049 -0.574,-1.651 z" fill="#000000" id="path1104" />
  <path d="m 140.625,19.5 c 1.45,0 2.625,-1.1753 2.625,-2.625 0,-1.4497 -1.175,-2.625 -2.625,-2.625 -1.45,0 -2.625,1.1753 -2.625,2.625 0,1.4497 1.175,2.625 2.625,2.625 z" fill="#000000" id="path1106" />
  <path d="m 143.25,20.375 c 0.966,0 1.75,0.783 1.75,1.75 V 23 h -8.75 v -0.875 c 0,-0.966 0.783,-1.75 1.75,-1.75 z" fill="#000000" id="path1108" />
  <g clip-path="url(#clip0)" id="g1116" transform="translate(-3)">
    <path fill-rule="evenodd" clip-rule="evenodd" d="m 173.292,2.55923 c 0.127,-0.97587 -1.038,-1.44662 -1.67,-0.82609 L 163.6,10 l 4.4,4.4 0.354,-0.4365 c 2.096,-2.9504 4.363,-7.01095 4.938,-11.40427 z m -5.705,9.69967 c 1.531,-2.2766 3.015,-5.0523 3.756,-8.01271 l -5.954,5.82961 z" fill="#000000" id="path1110" />
    <path fill-rule="evenodd" clip-rule="evenodd" d="m 164.837,18.5998 -4.79,-4.91 -6.462,6.588 c -0.846,0.8628 -0.846,2.2566 0,3.1192 0.854,0.8709 2.247,0.8709 3.102,-10e-5 l 5.31,-5.414 0.635,0.6476 0.001,6e-4 c 0.612,0.625 1.613,0.607 2.204,-0.0313 z m -3.399,-2.3317 -0.828,-0.8676 -5.142,5.2422 -0.741,0.7551 c -0.15,0.1532 -0.204,0.3693 -0.164,0.5682 0.023,0.1143 0.078,0.2229 0.164,0.3105 0.227,0.2315 0.59,0.2316 0.817,0 z" fill="#000000" id="path1112" />
    <path fill-rule="evenodd" clip-rule="evenodd" d="m 156.416,0 5.158,5.15921 c 1.093,1.09244 1.224,2.78311 0.395,4.01967 l 11.282,10.68282 c 0.981,0.9282 0.999,2.4821 0.046,3.4359 -0.954,0.9541 -2.508,0.934 -3.435,-0.0466 L 159.178,11.969 c -1.237,0.8293 -2.927,0.6977 -4.02,-0.3948 L 150,6.4158 Z m -4.192,6.41579 4.047,4.04621 c 0.627,0.6278 1.647,0.6278 2.275,0 0.387,-0.3874 1.015,-0.3771 1.39,0.0193 0,5e-4 0,9e-4 0.001,0.0014 l 11.067,11.687 c 0.318,0.3363 0.852,0.3444 1.181,0.0156 0.329,-0.3291 0.321,-0.8633 -0.015,-1.1811 L 160.474,9.92931 c -0.38,-0.36895 -0.403,-0.99162 -0.012,-1.38257 0.627,-0.62776 0.628,-1.64749 0,-2.27527 l -4.046,-4.0469 -0.656,0.65575 3.478,3.47699 -1.113,1.11234 -3.477,-3.4771 -0.656,0.65521 3.478,3.47773 -1.113,1.11214 L 152.88,5.76 Z" fill="#000000" id="path1114" />
  </g>
  <path d="m 196,11 -3.324,11.3417 C 192.52,22.949 191.712,22.9979 191.514,23 h -14.983 c -0.534,0 -1.227,-0.6219 -1.227,-0.6219 L 172,11 Z m -8.963,2 H 181 c 1.006,1.0073 2.012,1.5115 3.019,1.5115 1.547,0 3.018,-1.5115 3.018,-1.5115 z" fill="#000000" id="path1118" />
  <mask id="mask0" mask-type="alpha" maskUnits="userSpaceOnUse" x="175" y="1" width="24" height="10">
    <path d="m 175,1 h 24 v 10 h -24 z" fill="#ffffff" id="path1120" />
  </mask>
  <g mask="url(#mask0)" id="g1129" transform="translate(-3)">
    <path d="m 187.5,2.46666 c -1.932,0 -3.5,2.90938 -3.5,6.49896 0,3.58958 1.568,6.49998 3.5,6.49998 1.932,0 3.5,-2.9104 3.5,-6.49998 0,-3.58958 -1.568,-6.5 -3.5,-6.5 z m 1.87,2.71875 c -0.624,0 -2.437,-0.51041 -3.212,-1.51041 0,0 2.08,0.10729 3.212,1.51041 z m 0.66,2.08542 c -0.624,0 -3.701,-1.19271 -4.476,-2.19271 0,0 3.344,0.78959 4.476,2.19271 z m -4.267,6.07397 c 0,0 1.847,0.1823 2.555,1.1333 -0.389,0 -2.072,-0.4541 -2.555,-1.1333 z m -0.605,-1.6365 c 0,0 2.722,0.2344 3.764,1.6365 -0.573,0 -3.052,-0.6375 -3.764,-1.6365 z m 0,-1.5437 c 0,0 3.08,0.3677 4.212,1.7708 -0.624,0 -3.438,-0.7708 -4.212,-1.7708 z m 0,-1.54273 c 0,0 3.08,0.36771 4.212,1.77083 -0.624,0 -3.438,-0.77187 -4.212,-1.77083 z m 0.094,-1.86041 c 0,0 3.344,0.78958 4.476,2.1927 -0.624,0 -3.701,-1.1927 -4.476,-2.1927 z" fill="#000000" id="path1123" />
    <path d="m 179.715,9.43854 v 4.48436 h 3.514 V 9.43854 Z m 1.753,3.89586 c -0.634,0 -1.153,-0.5375 -1.153,-1.1938 0,-0.6562 0.511,-1.1937 1.153,-1.1937 h 0.015 c -0.137,-0.4167 -0.422,-0.75 -0.422,-0.7584 l 0.115,-0.102 c 0.007,0.0166 0.146,0.1791 0.283,0.4166 0.065,-0.1271 0.285,-0.2291 0.544,-0.2375 0.317,-0.0094 0.585,0.1188 0.585,0.2813 0.008,0.1698 -0.252,0.3156 -0.568,0.3323 -0.171,0.0083 -0.325,-0.0261 -0.43,-0.0855 0.024,0.0521 0.04,0.1105 0.056,0.1625 0.552,0.0844 0.967,0.5875 0.967,1.1844 0,0.6656 -0.512,1.1938 -1.146,1.1938 z m 1.77,-6.81982 h -3.54 l -0.69,0.71563 H 184 Z m 0,-1.04896 -3.532,0.00834 -0.008,0.74166 h 3.531 v -0.75 z M 179,7.54583 v 7.91977 h 5 V 7.54583 Z m 4.521,6.68337 h -4.107 V 9.13229 h 4.107 v 5.09791 z m -3.806,-4.7917 v 4.4865 h 3.514 V 9.43854 h -3.514 z" fill="#000000" id="path1125" />
    <path d="m 192.824,13.3344 c -1.378,0 -2.508,-1.1584 -2.508,-2.5729 0,-1.41462 1.112,-2.57191 2.508,-2.57191 h 0.035 c -0.3,-0.9 -0.918,-1.61667 -0.918,-1.63542 l 0.248,-0.21979 c 0.017,0.03646 0.317,0.38542 0.617,0.9 0.142,-0.27604 0.619,-0.49583 1.185,-0.51458 0.688,-0.01875 1.27,0.25729 1.27,0.60625 0.019,0.36771 -0.546,0.68021 -1.235,0.71666 -0.372,0.01771 -0.707,-0.0552 -0.937,-0.18437 0.054,0.11042 0.088,0.23958 0.125,0.35 1.201,0.18333 2.102,1.26771 2.102,2.55316 0,1.4333 -1.114,2.5729 -2.492,2.5729 z" fill="#000000" id="path1127" />
  </g>
  <path d="M 212.619,6.83928 H 205 c -0.305,0 -0.572,-0.26668 -0.572,-0.57144 V 2.6488 c 0,-0.83808 0.686,-1.5238 1.524,-1.5238 h 5.715 c 0.838,0 1.523,0.68572 1.523,1.5238 v 3.61904 c 0,0.30476 -0.266,0.57144 -0.571,0.57144 z m -6.667,-1.5238 h 5.715 V 3.02976 c 0,-0.22856 -0.153,-0.38096 -0.381,-0.38096 h -4.953 c -0.228,0 -0.381,0.1524 -0.381,0.38096 z" fill="#000000" id="path1131" />
  <path d="m 198.905,23.6012 h 1.143 c -1.067,0 -1.905,-0.8381 -1.905,-1.9048 V 7.22024 c 0,-1.06668 0.838,-1.90476 1.905,-1.90476 h -1.143 c -1.067,0 -1.905,0.83808 -1.905,1.90476 V 21.6964 c 0,1.0667 0.838,1.9048 1.905,1.9048 z m 20.19,-18.28572 h -1.143 c 1.067,0 1.905,0.83808 1.905,1.90476 V 21.6964 c 0,1.0667 -0.838,1.9048 -1.905,1.9048 h 1.143 c 1.067,0 1.905,-0.8381 1.905,-1.9048 V 7.22024 c 0,-1.06668 -0.838,-1.90476 -1.905,-1.90476 z" fill="#000000" id="path1133" />
  <path fill-rule="evenodd" clip-rule="evenodd" d="m 219.095,23.6012 h -20.19 c -1.067,0 -1.905,-0.8381 -1.905,-1.9048 V 7.22024 c 0,-1.06668 0.838,-1.90476 1.905,-1.90476 h 20.19 c 1.067,0 1.905,0.83808 1.905,1.90476 V 21.6964 c 0,1.0667 -0.838,1.9048 -1.905,1.9048 z M 205.87,18.4187 c 0.525,0 0.931,-0.0693 1.634,-0.2674 0.486,-0.1386 0.704,-0.1783 1.169,-0.2179 -0.02,-0.317 -0.029,-0.4754 -0.029,-0.9904 v -0.842 c 0,-0.5843 0.029,-0.7726 0.148,-0.8815 0.109,-0.1089 0.268,-0.1485 0.624,-0.1585 v -0.2575 h -2.922 v 0.2575 c 0.785,0.0282 0.902,0.1113 0.91,0.8244 l 0.001,1.8004 c -0.138,0.1287 -0.218,0.1783 -0.406,0.2476 -0.327,0.1387 -0.673,0.208 -0.971,0.208 -0.495,0 -0.94,-0.1783 -1.257,-0.4952 -0.575,-0.5944 -0.921,-1.773 -0.921,-3.1498 0,-0.9508 0.158,-1.763 0.465,-2.4068 0.347,-0.723 0.951,-1.1094 1.723,-1.1094 0.654,0 1.229,0.2972 1.615,0.842 0.257,0.3565 0.396,0.7528 0.495,1.347 l 0.367,-0.0099 v -2.2979 c -0.248,0.099 -0.397,0.1288 -0.585,0.1288 -0.148,0 -0.297,-0.0199 -0.446,-0.0595 -0.782,-0.1881 -1.02,-0.2277 -1.525,-0.2277 -2.149,0 -3.536,1.555 -3.536,3.9816 0,2.3474 1.288,3.7341 3.447,3.7341 z m 7.201,-0.416 v 0.2575 h -3.13 v -0.2575 c 0.812,-0.0297 0.891,-0.1188 0.891,-1.0201 v -4.8435 c 0,-0.9013 -0.079,-0.9904 -0.852,-1.0301 v -0.2575 h 2.982 c 2.02,0 2.902,0.624 2.902,2.0602 0,1.0103 -0.416,1.6541 -1.268,1.971 -0.436,0.1585 -1.159,0.2575 -1.991,0.2575 h -0.485 v 1.8424 c 0,0.9013 0.089,0.9904 0.951,1.0201 z m -0.436,-3.1497 h -0.515 v -3.7143 h 0.634 c 1.149,0 1.733,0.6141 1.733,1.8324 0,0.6438 -0.168,1.1688 -0.485,1.4759 -0.287,0.2673 -0.753,0.406 -1.367,0.406 z" fill="#000000" id="path1135" />
  <g clip-path="url(#clip1)" id="g1143" transform="translate(-3)">
    <path opacity="0.719" fill-rule="evenodd" clip-rule="evenodd" d="m 247.66,7.74891 c 0.856,0.83333 1.34,1.98799 1.34,3.19599 -0.001,1.3373 -0.6,2.6 -1.625,3.432 -1.051,0.848 -1.912,1.9133 -2.531,3.1266 l -0.071,0.144 c -0.02,0.0347 -0.054,0.056 -0.093,0.056 -0.037,0 -0.073,-0.0213 -0.091,-0.056 l -0.124,-0.2533 c -0.616,-1.172 -1.464,-2.2 -2.49,-3.0173 -1.104,-0.9027 -1.704,-2.3 -1.604,-3.74 0.132,-2.09466 2.04,-3.99999 4.096,-4.10132 1.182,-0.05867 2.336,0.38 3.193,1.21333 z m -0.533,3.94639 c 0.306,-1.4089 -0.541,-2.78917 -1.892,-3.08283 -1.352,-0.29366 -2.695,0.61046 -3.002,2.01943 -0.306,1.4089 0.542,2.7892 1.893,3.0828 1.351,0.2937 2.695,-0.6104 3.001,-2.0194 z" fill="#000000" id="path1137" />
    <path opacity="0.719" fill-rule="evenodd" clip-rule="evenodd" d="m 232.3,7.74894 c 0.856,0.83333 1.34,1.98799 1.34,3.19596 -10e-4,1.3373 -0.6,2.6001 -1.625,3.432 -1.051,0.848 -1.912,1.9133 -2.531,3.1267 l -0.071,0.144 c -0.02,0.0346 -0.054,0.056 -0.093,0.056 -0.037,0 -0.073,-0.0214 -0.091,-0.056 l -0.124,-0.2534 c -0.616,-1.172 -1.464,-2.1999 -2.49,-3.0173 -1.104,-0.9026 -1.704,-2.3 -1.604,-3.74 0.132,-2.09463 2.04,-3.99996 4.096,-4.10129 1.182,-0.05867 2.336,0.38 3.193,1.21333 z m -0.533,3.94636 c 0.306,-1.4089 -0.541,-2.78914 -1.892,-3.0828 -1.352,-0.29366 -2.695,0.61046 -3.001,2.0194 -0.307,1.409 0.541,2.7892 1.892,3.0828 1.351,0.2937 2.695,-0.6104 3.001,-2.0194 z" fill="#000000" id="path1139" />
    <path fill-rule="evenodd" clip-rule="evenodd" d="m 241.968,5.76626 c 1.291,1.208 2.02,2.884 2.019,4.63464 -0.002,1.9387 -0.904,3.772 -2.448,4.98 -1.583,1.2293 -2.88,2.7747 -3.814,4.5333 l -0.106,0.2094 c -0.028,0.0493 -0.082,0.08 -0.139,0.08 -0.059,0 -0.112,-0.0307 -0.139,-0.08 l -0.186,-0.3667 c -0.926,-1.7 -2.206,-3.1907 -3.752,-4.3773 -1.662,-1.308 -2.564,-3.3347 -2.415,-5.42135 0.199,-3.04132 3.072,-5.80398 6.171,-5.95065 1.781,-0.08533 3.518,0.55067 4.809,1.75866 z m -0.691,5.46604 c 0.448,-2.06228 -0.888,-4.10339 -2.984,-4.55889 -2.096,-0.4555 -4.159,0.84709 -4.607,2.90942 -0.448,2.06237 0.888,4.10347 2.984,4.55897 2.096,0.4555 4.159,-0.8471 4.607,-2.9095 z" fill="#000000" id="path1141" />
  </g>
  <path d="m 257,15 h 4.8 v 7.636 H 257 Z" fill="#000000" id="path1145" />
  <path d="m 265.8,2 c 0.331,0 0.6,0.247 0.6,0.553 V 23 h -3.6 v -8.29 c 0,-0.305 -0.269,-0.552 -0.6,-0.552 h -6 c -0.331,0 -0.6,0.247 -0.6,0.553 V 23 H 252 V 2.553 C 252,2.247 252.269,2 252.6,2 Z m -6.93,2.333 h -2.692 v 0.244 c 0.693,0.028 0.764,0.121 0.764,0.964 v 4.576 c 0,0.86 -0.07,0.945 -0.8,0.973 v 0.243 h 2.763 V 11.09 c -0.712,-0.027 -0.802,-0.107 -0.808,-0.887 V 7.768 h 2.949 v 2.349 c 0,0.86 -0.071,0.945 -0.808,0.973 v 0.243 H 263 V 11.09 c -0.703,-0.027 -0.794,-0.107 -0.8,-0.887 V 5.54 c 0,-0.843 0.072,-0.936 0.773,-0.964 V 4.332 h -2.7 v 0.244 c 0.66,0.026 0.762,0.11 0.772,0.823 v 2.059 h -2.948 V 5.541 c 0,-0.843 0.071,-0.936 0.773,-0.964 z" fill="#000000" id="path1147" />
  <path fill-rule="evenodd" clip-rule="evenodd" d="m 247.4,10.59 h 3.04 c 0.22,0 0.4,0.18 0.4,0.4 V 23 H 247 V 10.99 c 0,-0.22 0.18,-0.4 0.4,-0.4 z m 20.16,0 h 3.04 c 0.22,0 0.4,0.18 0.4,0.4 V 23 h -3.84 V 10.99 c 0,-0.22 0.18,-0.4 0.4,-0.4 z" fill="#000000" id="path1149" />
  <path d="m 285.258,19.8206 c 0.188,0.1547 0.287,0.3924 0.263,0.6345 v 1.5898 l -0.489,-0.0364 -0.124,-0.3136 c -0.088,0.121 -0.202,0.2188 -0.335,0.2844 -0.144,0.0605 -0.298,0.0875 -0.453,0.0802 -0.196,0.0109 -0.388,-0.0627 -0.527,-0.202 -0.139,-0.1385 -0.213,-0.3311 -0.202,-0.5273 -0.015,-0.2217 0.088,-0.4346 0.27,-0.5615 0.243,-0.1414 0.52,-0.2115 0.802,-0.2042 h 0.416 v -0.1094 c 0.012,-0.1014 -0.024,-0.2027 -0.096,-0.2742 -0.073,-0.0714 -0.176,-0.105 -0.276,-0.0904 -0.236,0.0109 -0.467,0.0707 -0.678,0.175 l -0.212,-0.4375 c 0.281,-0.1473 0.595,-0.2225 0.912,-0.2188 0.26,-0.0146 0.518,0.0598 0.729,0.2114 z m 5.842,-1.1011 v 3.3181 h -0.497 l -0.109,-0.3427 c -0.144,0.2458 -0.417,0.385 -0.7,0.3573 -0.262,0.0102 -0.513,-0.113 -0.664,-0.3281 -0.177,-0.267 -0.262,-0.5849 -0.24,-0.9043 -0.018,-0.3216 0.065,-0.641 0.24,-0.9116 0.159,-0.2144 0.412,-0.3369 0.679,-0.3282 0.244,-0.0117 0.477,0.0919 0.631,0.2772 l 0.054,0.0729 c -0.029,-0.159 -0.047,-0.3202 -0.051,-0.4814 v -0.7292 z m -9.729,1.1449 c 0.193,0.221 0.292,0.5091 0.277,0.8022 v 0.299 h -1.539 c 0,0.1597 0.06,0.3136 0.168,0.4303 0.114,0.113 0.27,0.1713 0.431,0.1604 0.136,0 0.274,-0.0146 0.408,-0.0437 0.138,-0.0351 0.272,-0.0839 0.401,-0.1459 v 0.5032 c -0.115,0.0583 -0.238,0.1028 -0.365,0.1313 -0.156,0.0298 -0.315,0.0466 -0.474,0.051 -0.331,0.0205 -0.656,-0.0919 -0.904,-0.3136 -0.227,-0.2435 -0.344,-0.5717 -0.321,-0.9043 -0.024,-0.3354 0.083,-0.668 0.299,-0.9261 0.215,-0.2268 0.519,-0.3471 0.831,-0.3282 0.291,-0.0168 0.575,0.0861 0.788,0.2844 z m -2.21,-0.2844 -0.051,0.6564 c -0.235,-0.0555 -0.483,-0.0051 -0.678,0.1385 -0.121,0.1182 -0.185,0.283 -0.175,0.4522 v 1.2105 h -0.649 v -2.4138 h 0.496 l 0.095,0.4011 c 0.089,-0.1386 0.216,-0.2494 0.364,-0.3209 0.113,-0.0759 0.244,-0.1189 0.38,-0.124 z m 3.698,-0.8897 -0.029,3.3182 h -0.62 v -3.3182 z m 5.287,1.1158 c 0.157,0.178 0.236,0.412 0.219,0.649 v 1.5534 h -0.657 v -1.3929 c 0.01,-0.135 -0.021,-0.2691 -0.087,-0.3865 -0.069,-0.0905 -0.179,-0.14 -0.292,-0.1313 -0.154,-0.0117 -0.303,0.0576 -0.394,0.1823 -0.099,0.1852 -0.142,0.396 -0.124,0.6053 v 1.1231 h -0.649 v -2.3847 h 0.496 l 0.088,0.3063 h 0.036 c 0.07,-0.1167 0.175,-0.2079 0.299,-0.2625 0.138,-0.0613 0.288,-0.0912 0.438,-0.0876 0.232,-0.0189 0.46,0.0635 0.627,0.2261 z m -11.274,-0.9189 v 3.1213 h -0.664 v -3.1213 z m 7.97,2.02 h -0.255 c -0.148,-0.0057 -0.294,0.0292 -0.423,0.1022 -0.095,0.0627 -0.147,0.1714 -0.139,0.2844 0,0.1823 0.11,0.2771 0.314,0.2771 0.134,0.0073 0.266,-0.0401 0.365,-0.1312 0.094,-0.0891 0.144,-0.2137 0.138,-0.3428 z m 5.164,-0.8021 c -0.138,-7e-4 -0.266,0.0715 -0.336,0.1896 -0.091,0.1619 -0.134,0.3464 -0.124,0.5324 -0.012,0.1859 0.031,0.3711 0.124,0.5323 0.078,0.1152 0.212,0.1816 0.35,0.1751 0.138,0.0102 0.272,-0.0438 0.365,-0.1459 0.095,-0.1473 0.141,-0.3209 0.131,-0.4959 v -0.0656 c 0.015,-0.1933 -0.028,-0.3866 -0.124,-0.5543 -0.093,-0.1167 -0.238,-0.1801 -0.386,-0.1677 z m -9.423,-0.0656 c -0.121,-0.008 -0.24,0.04 -0.321,0.1312 -0.086,0.105 -0.134,0.2363 -0.138,0.372 h 0.919 c 0.002,-0.1357 -0.044,-0.2677 -0.131,-0.372 -0.086,-0.0897 -0.204,-0.1378 -0.329,-0.1312 z m 7.964,-5.4257 c 0.197,0.2187 0.297,0.5082 0.277,0.8022 v 0.3135 h -1.509 c -10e-4,0.1597 0.059,0.3136 0.167,0.4303 0.114,0.1123 0.271,0.1706 0.43,0.1604 0.138,0 0.275,-0.0146 0.409,-0.0438 0.139,-0.0349 0.273,-0.0838 0.401,-0.1458 v 0.5032 c -0.115,0.0584 -0.238,0.1028 -0.365,0.1313 -0.166,0.027 -0.334,0.0386 -0.503,0.0364 -0.334,0.0372 -0.666,-0.0787 -0.904,-0.3157 -0.238,-0.2363 -0.356,-0.5688 -0.321,-0.9021 -0.024,-0.3355 0.083,-0.6681 0.299,-0.9262 0.452,-0.4201 1.145,-0.439 1.619,-0.0437 z m -5.827,-0.7512 v 0.5397 h 0.671 v 0.4886 h -0.671 v 1.1522 c -0.008,0.0773 0.021,0.1532 0.08,0.2042 0.061,0.0365 0.135,0.0489 0.204,0.0365 0.139,-0.0037 0.277,-0.0285 0.409,-0.073 v 0.4814 c -0.19,0.078 -0.394,0.1152 -0.598,0.1093 -0.209,0.0197 -0.417,-0.0525 -0.569,-0.1969 -0.131,-0.1677 -0.196,-0.3777 -0.182,-0.5907 v -1.1522 h -0.307 v -0.2771 l 0.358,-0.2188 0.19,-0.5032 z m -4.397,0.4668 c 0.211,-0.003 0.418,0.0474 0.605,0.1458 0.173,0.1021 0.312,0.2508 0.401,0.4302 0.099,0.2043 0.149,0.4296 0.146,0.6564 0.017,0.3333 -0.095,0.66 -0.314,0.9116 -0.224,0.2268 -0.534,0.3463 -0.853,0.3281 -0.211,0.0037 -0.419,-0.0466 -0.605,-0.1458 -0.177,-0.1021 -0.319,-0.2545 -0.409,-0.4376 -0.096,-0.2049 -0.143,-0.4302 -0.138,-0.6563 -0.019,-0.3318 0.09,-0.6585 0.306,-0.9116 0.229,-0.2231 0.541,-0.3398 0.861,-0.3208 z m 3.238,0 -0.044,0.6125 c -0.066,-0.0087 -0.132,-0.0087 -0.197,0 -0.175,-0.0058 -0.345,0.0511 -0.481,0.1604 -0.121,0.1182 -0.186,0.283 -0.175,0.4522 v 1.2106 h -0.642 v -2.3628 h 0.496 l 0.095,0.4011 h 0.036 c 0.069,-0.1313 0.173,-0.2421 0.299,-0.3209 0.113,-0.089 0.25,-0.1423 0.394,-0.1531 z m 11.77,0.2552 c 0.157,0.1779 0.236,0.412 0.219,0.649 v 1.5242 h -0.649 v -1.3929 c 0.007,-0.1357 -0.026,-0.2699 -0.095,-0.3865 -0.068,-0.0912 -0.178,-0.1408 -0.292,-0.1313 -0.154,-0.0116 -0.303,0.0576 -0.394,0.1823 -0.099,0.1853 -0.142,0.396 -0.123,0.6053 v 1.1231 h -0.65 v -2.3555 h 0.496 l 0.088,0.3063 h 0.036 c 0.07,-0.1167 0.175,-0.2079 0.299,-0.2626 0.138,-0.0612 0.287,-0.0911 0.438,-0.0875 0.231,-0.0189 0.461,0.0634 0.627,0.2261 z m -18.699,-0.9116 1.357,2.3409 V 13.673 h 0.598 l -0.022,3.0848 h -0.839 l -1.363,-2.3555 v 2.3555 h -0.569 V 13.673 Z m 9.918,-0.2334 v 1.2398 c 0.145,-0.2407 0.414,-0.3763 0.694,-0.35 0.236,-0.019 0.469,0.0634 0.641,0.226 0.156,0.1787 0.235,0.4121 0.219,0.6491 v 1.5533 h -0.657 v -1.3929 c 0,-0.3428 -0.123,-0.5178 -0.379,-0.5178 -0.157,-0.011 -0.31,0.0605 -0.401,0.1896 -0.093,0.1852 -0.133,0.3916 -0.117,0.598 v 1.1231 h -0.656 v -3.3182 z m 6.36,0.8898 -0.051,0.6125 c -0.236,-0.0554 -0.484,-0.0051 -0.679,0.1386 -0.121,0.1181 -0.185,0.2829 -0.174,0.4521 v 1.2106 h -0.65 v -2.3409 h 0.496 l 0.095,0.4011 c 0.072,-0.1299 0.175,-0.2407 0.299,-0.3209 0.128,-0.0985 0.285,-0.1531 0.445,-0.1531 z m -12.514,0.525 h -0.073 c -0.146,-0.0132 -0.289,0.054 -0.372,0.175 -0.091,0.1619 -0.131,0.3472 -0.117,0.5324 -0.013,0.1874 0.028,0.3741 0.117,0.5397 0.086,0.1224 0.229,0.1917 0.379,0.1823 0.148,0.0109 0.29,-0.0584 0.372,-0.1823 0.089,-0.1656 0.13,-0.3523 0.117,-0.5397 0.013,-0.1852 -0.027,-0.3698 -0.117,-0.5324 -0.072,-0.1021 -0.184,-0.1655 -0.306,-0.175 z m 9.363,-0.0657 c -0.122,-0.008 -0.24,0.0402 -0.321,0.1314 -0.085,0.105 -0.135,0.2362 -0.138,0.3719 h 0.919 c 0.002,-0.1357 -0.045,-0.2677 -0.132,-0.3719 -0.085,-0.0897 -0.204,-0.1379 -0.328,-0.1314 z M 293.25,2.0048 c 0.956,0.00878 1.897,0.23558 2.75,0.66364 l -0.664,1.61168 c -0.344,-0.1641 -0.697,-0.31069 -1.057,-0.43755 -0.33,-0.1167 -0.678,-0.17869 -1.029,-0.18233 -0.682,-0.02917 -1.334,0.28515 -1.735,0.83865 -0.446,0.69863 -0.661,1.52052 -0.612,2.34822 0,2.09516 0.782,3.14096 2.347,3.13586 0.819,-0.02918 1.628,-0.19478 2.393,-0.48863 V 11.157 c -0.817,0.3304 -1.693,0.4945 -2.575,0.4814 -1.175,0.0758 -2.323,-0.3792 -3.128,-1.2398 -0.783,-1.01436 -1.167,-2.28036 -1.08,-3.55877 -0.02,-0.88241 0.159,-1.75751 0.526,-2.55971 0.329,-0.70448 0.862,-1.29446 1.531,-1.69189 0.712,-0.39964 1.517,-0.60165 2.333,-0.58343 z m -8.503,0 c 0.47,-0.00288 0.938,0.05618 1.394,0.17506 0.476,0.12686 0.941,0.29021 1.392,0.48858 l -0.641,1.52415 c -0.405,-0.16773 -0.819,-0.3114 -1.24,-0.43024 -0.317,-0.07803 -0.643,-0.11669 -0.97,-0.11669 -0.309,-0.02187 -0.616,0.07293 -0.861,0.26253 -0.202,0.1692 -0.316,0.42225 -0.306,0.6855 0.004,0.16992 0.057,0.33473 0.153,0.47404 0.102,0.15094 0.233,0.28001 0.387,0.3792 0.182,0.1167 0.598,0.33548 1.261,0.65633 0.684,0.28222 1.299,0.71032 1.802,1.25433 0.32,0.45218 0.482,0.99908 0.459,1.55333 0.033,0.7752 -0.309,1.51828 -0.919,1.99818 -0.736,0.528 -1.633,0.7854 -2.538,0.7293 -0.911,0.0145 -1.813,-0.178 -2.64,-0.5616 V 9.23177 c 0.521,0.23557 1.056,0.4332 1.605,0.5907 0.391,0.11017 0.796,0.1692 1.203,0.17505 0.353,0.02328 0.705,-0.0627 1.006,-0.24795 0.231,-0.16988 0.362,-0.4434 0.35,-0.72923 0.004,-0.17647 -0.052,-0.3486 -0.16,-0.48862 -0.122,-0.16703 -0.276,-0.30773 -0.452,-0.41573 -0.391,-0.2355 -0.795,-0.447 -1.211,-0.63442 -0.462,-0.20348 -0.896,-0.46526 -1.291,-0.7803 -0.279,-0.24214 -0.512,-0.53381 -0.685,-0.86055 -0.175,-0.35805 -0.263,-0.7533 -0.255,-1.15223 -0.039,-0.74456 0.268,-1.4658 0.831,-1.95442 0.663,-0.51484 1.489,-0.77303 2.326,-0.72927 z m -10.763,0.13129 v 3.64632 h 3.711 V 2.13609 h 1.984 v 9.34911 h -1.984 V 7.46702 h -3.711 V 11.4852 H 272 V 2.13609 Z" fill="#000000" id="path1151" />
  <path d="m 320.679,7.069 -11.4,-6 c -0.175,-0.092 -0.383,-0.092 -0.558,0 l -11.4,6 C 297.123,7.172 297,7.377 297,7.599 V 10 c 0,0.21 0.11,0.405 0.29,0.514 0.18,0.108 0.403,0.115 0.589,0.017 L 309,4.678 320.121,10.53 c 0.186,0.098 0.41,0.091 0.59,-0.017 C 320.89,10.404 321,10.21 321,10 V 7.6 c 0,-0.223 -0.123,-0.428 -0.321,-0.531 z" fill="#000000" id="path1153" />
  <path d="m 308.886,5.57101 9.6,5.05199 v 12.114 c -10e-4,0.331 -0.27,0.6 -0.6,0.6 h -18 c -0.331,0 -0.6,-0.269 -0.6,-0.6 V 10.623 Z m 2.223,5.71499 -1.905,3.294 c -0.06,0.002 -0.126,0.004 -0.198,0.004 h -0.111 l -1.846,-3.193 -0.11,1.11 -0.636,-0.7 -0.108,0.963 -0.553,-0.396 v 0.625 l -0.224,-0.136 c -0.178,-0.109 -0.406,0.019 -0.406,0.228 v 4.492 c 0,0.083 0.039,0.161 0.105,0.212 l 2.86,2.19 v -5.566 l -2.124,-1.292 v -0.342 l 2.397,1.713 c -0.068,-0.023 -0.096,-0.04 -0.096,-0.04 v 5.527 c 0,0 0.151,0.134 0.852,0.134 0.701,0 0.852,-0.134 0.852,-0.134 v -5.528 c 0,0 -0.027,0.018 -0.097,0.042 l 2.544,-1.82 v 0.352 l -2.283,1.388 v 5.566 l 2.861,-2.19 c 0.066,-0.05 0.105,-0.129 0.105,-0.212 v -4.492 c 0,-0.21 -0.228,-0.337 -0.407,-0.228 l -0.064,0.039 v -0.634 l -0.554,0.396 -0.107,-0.963 -0.636,0.7 -0.11,-1.11 z" fill="#000000" id="path1155" />
  <path fill-rule="evenodd" clip-rule="evenodd" d="m 333.657,1.00643 c 0.09,-0.035248 0.189,-0.035247 0.279,1e-5 l 10.34,4.06227 c 0.146,0.0574 0.243,0.19839 0.243,0.35538 V 8.3785 c 0,0.21088 -0.171,0.38182 -0.382,0.38182 h -20.681 c -0.211,0 -0.382,-0.17094 -0.382,-0.38182 V 5.42409 c 0,-0.15699 0.096,-0.29798 0.242,-0.35538 z" fill="#000000" id="path1157" />
  <path fill-rule="evenodd" clip-rule="evenodd" d="m 325.234,17.6701 c 0,-0.1722 0.14,-0.3117 0.312,-0.3117 h 16.515 c 0.172,0 0.312,0.1395 0.312,0.3117 v 1.2984 h 1.424 c 0.172,0 0.312,0.1396 0.312,0.3117 v 1.3723 h 1.379 c 0.172,0 0.312,0.1396 0.312,0.3117 v 1.6914 c 0,0.1721 -0.14,0.3117 -0.312,0.3117 h -23.376 c -0.172,0 -0.312,-0.1396 -0.312,-0.3117 v -1.6914 c 0,-0.1721 0.14,-0.3117 0.312,-0.3117 h 1.379 v -1.3723 c 0,-0.1721 0.14,-0.3117 0.312,-0.3117 h 1.431 z" fill="#000000" id="path1159" />
  <path fill-rule="evenodd" clip-rule="evenodd" d="m 325.334,9.3313 c 0,-0.17429 0.141,-0.31558 0.316,-0.31558 h 3.301 c 0.174,0 0.316,0.14129 0.316,0.31558 v 0.40621 c 0,0.17429 -0.142,0.31559 -0.316,0.31559 h -0.428 l 0.197,6.6548 c 0.003,0.0853 -0.029,0.168 -0.089,0.2292 -0.059,0.0612 -0.141,0.0957 -0.226,0.0957 h -2.216 c -0.086,0 -0.168,-0.0347 -0.227,-0.0963 -0.06,-0.0616 -0.092,-0.1447 -0.089,-0.2303 l 0.233,-6.6531 h -0.456 c -0.175,0 -0.316,-0.1413 -0.316,-0.31559 z m 4.328,0 c 0,-0.17429 0.142,-0.31558 0.316,-0.31558 h 3.309 c 0.174,0 0.315,0.14129 0.315,0.31558 v 0.40621 c 0,0.17429 -0.141,0.31559 -0.315,0.31559 h -0.436 l 0.205,6.6545 c 0.002,0.0853 -0.03,0.1681 -0.089,0.2294 -0.06,0.0613 -0.141,0.0958 -0.227,0.0958 h -2.216 c -0.085,0 -0.167,-0.0347 -0.227,-0.0963 -0.059,-0.0616 -0.091,-0.1447 -0.088,-0.2303 l 0.232,-6.6531 h -0.463 c -0.174,0 -0.316,-0.1413 -0.316,-0.31559 z m 4.336,0 c 0,-0.17429 0.141,-0.31558 0.316,-0.31558 h 3.301 c 0.174,0 0.315,0.14129 0.315,0.31558 v 0.40621 c 0,0.17429 -0.141,0.31559 -0.315,0.31559 h -0.428 l 0.204,6.6545 c 0.003,0.0853 -0.029,0.1681 -0.089,0.2294 -0.059,0.0613 -0.141,0.0958 -0.226,0.0958 h -2.216 c -0.086,0 -0.168,-0.0347 -0.227,-0.0962 -0.06,-0.0615 -0.092,-0.1445 -0.089,-0.23 l 0.226,-6.6535 h -0.456 c -0.175,0 -0.316,-0.1413 -0.316,-0.31559 z m 4.328,0 c 0,-0.17429 0.141,-0.31558 0.316,-0.31558 h 3.308 c 0.175,0 0.316,0.14129 0.316,0.31558 v 0.40621 c 0,0.17429 -0.141,0.31559 -0.316,0.31559 h -0.428 l 0.197,6.6548 c 0.003,0.0853 -0.029,0.168 -0.089,0.2292 -0.059,0.0612 -0.141,0.0957 -0.226,0.0957 h -2.216 c -0.086,0 -0.168,-0.0347 -0.227,-0.0963 -0.06,-0.0616 -0.091,-0.1447 -0.088,-0.2303 l 0.232,-6.6531 h -0.463 c -0.175,0 -0.316,-0.1413 -0.316,-0.31559 z" fill="#000000" id="path1161" />
  <path fill-rule="evenodd" clip-rule="evenodd" d="m 350,0 h 18 c 1.657,0 3,1.34314 3,3 v 18 c 0,1.6569 -1.343,3 -3,3 h -18 c -1.657,0 -3,-1.3431 -3,-3 V 3 c 0,-1.65686 1.343,-3 3,-3 z m 4.778,10.1438 v 5.4502 h -0.721 l -4.349,-6.2205 v 4.3095 c 0,1.287 0.176,1.56 1.014,1.6088 v 0.2632 h -2.447 v -0.2632 c 0.829,-0.039 1.034,-0.3608 1.034,-1.6868 V 9.73427 c 0,-0.9555 -0.166,-1.16027 -0.946,-1.21877 V 8.262 h 2.038 l 3.978,5.616 v -3.666 c 0,-0.73123 -0.049,-1.092 -0.186,-1.31623 -0.146,-0.2535 -0.351,-0.34127 -0.848,-0.3705 V 8.262 h 2.467 v 0.26327 c -0.468,0.0195 -0.673,0.117 -0.829,0.3705 -0.146,0.234 -0.205,0.624 -0.205,1.24803 z m 4.515,5.4112 v -0.2535 c -0.81,-0.0292 -0.888,-0.117 -0.888,-1.014 v -2.4472 h 3.237 v 2.4472 c 0,0.897 -0.078,0.9848 -0.887,1.014 v 0.2535 h 3.032 V 15.3015 C 363.022,15.2738 362.917,15.192 362.91,14.4 V 9.51977 c 0,-0.8775 0.078,-0.975 0.848,-1.00427 V 8.262 h -2.964 v 0.2535 c 0.77,0.02927 0.848,0.12677 0.848,1.00427 v 1.99873 h -3.237 V 9.51977 c 0,-0.8775 0.078,-0.975 0.849,-1.00427 V 8.262 h -2.955 v 0.2535 c 0.761,0.02927 0.839,0.12677 0.839,1.00427 v 4.76773 c 0,0.897 -0.078,0.9848 -0.878,1.014 v 0.2535 z m 9.438,-0.4095 c -0.459,0.3608 -1.073,0.5558 -1.785,0.5558 -0.39,0 -0.624,-0.0293 -1.316,-0.1658 -0.117,-0.0195 -0.244,-0.0292 -0.37,-0.0292 -0.166,0 -0.293,0.0195 -0.644,0.0877 l 0.078,-2.3302 h 0.39 c 0.137,1.4625 0.722,2.1547 1.814,2.1547 0.858,0 1.374,-0.507 1.374,-1.3455 0,-0.663 -0.38,-1.0627 -1.599,-1.6575 -0.828,-0.3997 -1.053,-0.5265 -1.277,-0.6922 -0.556,-0.4095 -0.799,-0.8775 -0.799,-1.5503 0,-0.7995 0.438,-1.49173 1.15,-1.82323 0.332,-0.156 0.722,-0.22427 1.248,-0.22427 0.322,0 0.458,0.0195 1.19,0.16577 0.136,0.02923 0.243,0.039 0.341,0.039 0.156,0 0.292,-0.02927 0.585,-0.1365 l -0.078,2.18403 h -0.39 c -0.039,-0.5558 -0.127,-0.8873 -0.332,-1.2188 -0.292,-0.49723 -0.77,-0.77023 -1.345,-0.77023 -0.751,0 -1.268,0.51673 -1.268,1.2675 0,0.32173 0.108,0.60453 0.322,0.81903 0.244,0.234 0.488,0.3802 1.268,0.7507 0.867,0.3998 1.287,0.663 1.618,0.9945 0.332,0.3413 0.507,0.7898 0.507,1.3553 0,0.663 -0.244,1.2285 -0.682,1.5697 z" fill="#000000" id="path1163" />
  <path d="m 375.111,15.0226 c 1.719,0 3.112,-1.393 3.112,-3.1113 0,-1.7183 -1.393,-3.1113 -3.112,-3.1113 -1.718,0 -3.111,1.393 -3.111,3.1113 0,1.7183 1.393,3.1113 3.111,3.1113 z" fill="#000000" id="path1165" />
  <path d="m 384,15.0226 c 1.718,0 3.111,-1.393 3.111,-3.1113 C 387.111,10.193 385.718,8.8 384,8.8 c -1.718,0 -3.111,1.393 -3.111,3.1113 0,1.7183 1.393,3.1113 3.111,3.1113 z" fill="#000000" id="path1167" />
  <path d="m 392.889,15.0226 c 1.718,0 3.111,-1.393 3.111,-3.1113 C 396,10.193 394.607,8.8 392.889,8.8 c -1.719,0 -3.112,1.393 -3.112,3.1113 0,1.7183 1.393,3.1113 3.112,3.1113 z" fill="#000000" id="path1169" />
  <g clip-path="url(#clip2)" id="g1175" transform="translate(-3)">
    <path d="m 405.751,4 c -2.135,0 -3.873,1.758 -3.873,3.92 0,0.381 0.054,0.756 0.16,1.117 -1.186,0.428 -2.038,1.576 -2.038,2.921 0,1.71 1.374,3.1 3.064,3.1 0.66,0 1.286,-0.208 1.815,-0.603 -0.039,0.729 -0.078,1.5 -0.117,2.252 -0.05,0.976 -0.104,2.418 -0.155,3.324 -0.004,0.074 0.023,0.146 0.073,0.2 0.05,0.054 0.12,0.084 0.193,0.084 h 1.75 c 0.074,0 0.143,-0.03 0.194,-0.084 0.05,-0.054 0.076,-0.126 0.072,-0.2 -0.05,-0.907 -0.1,-2.349 -0.149,-3.326 -0.038,-0.751 -0.077,-1.522 -0.117,-2.25 0.53,0.395 1.156,0.603 1.816,0.603 1.69,0 3.064,-1.39 3.064,-3.1 0,-1.323 -0.826,-2.488 -2.039,-2.922 0.105,-0.357 0.16,-0.732 0.16,-1.117 C 409.625,5.76 407.888,4 405.752,4 Z" fill="#000000" id="path1171" />
    <path d="m 423.554,16.053 h -0.445 v -2.986 c 0,-0.114 -0.047,-0.222 -0.13,-0.302 -0.084,-0.08 -0.198,-0.125 -0.316,-0.125 h -9.806 c -0.118,0 -0.231,0.045 -0.315,0.125 -0.084,0.08 -0.13,0.188 -0.13,0.302 v 2.986 h -0.446 c -0.119,0 -0.232,0.045 -0.316,0.125 -0.083,0.08 -0.13,0.189 -0.13,0.302 v 3.413 c 0,0.236 0.2,0.427 0.446,0.427 0.246,0 0.445,-0.191 0.445,-0.427 v -1.28 h 10.699 v 1.28 c 0,0.236 0.2,0.427 0.445,0.427 0.246,0 0.446,-0.191 0.446,-0.427 V 16.48 c 0,-0.113 -0.047,-0.222 -0.13,-0.302 -0.084,-0.08 -0.197,-0.125 -0.316,-0.125 z" fill="#000000" id="path1173" />
  </g>
  <path fill-rule="evenodd" clip-rule="evenodd" d="m 431.84,24 h 4.32 v -7e-4 c 0.55,0 0.983,-0.4255 0.983,-0.9676 v -5.6528 l 4.356,2.5481 c 0.454,0.2695 1.023,0.1158 1.288,-0.3461 l 2.082,-3.6556 v -8e-4 c 0.266,-0.4611 0.114,-1.0389 -0.34,-1.2698 l -4.567,-2.6807 4.567,-2.69778 c 0.454,-0.27105 0.606,-0.85169 0.34,-1.31655 l -2.082,-3.6795 c -0.265,-0.4641 -0.834,-0.61931 -1.288,-0.34826 l -4.356,2.57356 V 0.967575 C 437.143,0.425513 436.71,0 436.16,0 h -4.32 c -0.55,0 -0.982,0.425513 -0.982,0.967575 V 6.6295 l -4.357,-2.55722 c -0.454,-0.26956 -1.023,-0.11584 -1.288,0.34604 l -2.082,3.65648 c -0.266,0.4611 -0.114,1.03882 0.34,1.30762 l 4.423,2.58678 -4.423,2.6128 c -0.454,0.2709 -0.606,0.8516 -0.34,1.3165 l 2.082,3.6794 c 0.265,0.4642 0.834,0.6194 1.288,0.3483 l 4.357,-2.5735 v 5.679 c 0,0.5421 0.432,0.9683 0.982,0.9683 z M 431.779,9.67429 c -0.166,-0.23996 -0.265,-0.52269 -0.265,-0.86291 0,-0.60499 0.313,-1.02819 0.757,-1.35229 0.321,-0.23483 0.712,-0.41763 1.103,-0.57986 V 4.44506 c -0.558,-0.23167 -0.93,-0.77302 -0.93,-1.43021 0,-0.85024 0.67,-1.5453 1.487,-1.5453 0.819,0 1.488,0.69506 1.488,1.5453 0,0.65719 -0.372,1.19854 -0.93,1.43021 v 1.93219 c 0.409,-0.19309 0.744,-0.42551 0.744,-0.65719 0,-0.30892 0.261,-0.57922 0.558,-0.57922 0.298,0 0.558,0.2703 0.558,0.57922 0,1.04333 -0.93,1.54601 -1.86,1.93219 v 0.42057 0.68863 1.20913 c 0.93,0.38672 1.86,0.88862 1.86,1.93212 0,1.0436 -0.93,1.5454 -1.86,1.9314 v 1.373 0.62 0.3268 c 0.93,0.3862 1.86,0.889 1.86,1.9323 0,1.0432 -0.93,1.546 -1.86,1.9321 v 1.9322 c 0,0.3089 -0.26,0.5792 -0.558,0.5792 -0.297,0 -0.557,-0.2703 -0.557,-0.5792 v -1.4302 c -0.409,0.1938 -0.744,0.4255 -0.744,0.6571 0,0.309 -0.26,0.5793 -0.558,0.5793 -0.298,0 -0.558,-0.2703 -0.558,-0.5793 0,-1.0433 0.93,-1.5459 1.86,-1.9321 V 16.927 c -0.338,-0.1407 -0.676,-0.2965 -0.97,-0.4881 -0.513,-0.3353 -0.89,-0.7801 -0.89,-1.4441 0,-0.3033 0.079,-0.561 0.213,-0.7834 0.328,-0.5424 0.987,-0.8749 1.647,-1.1488 v -2.319 c -0.627,-0.2602 -1.253,-0.5734 -1.595,-1.06931 z m 1.595,4.66331 v 0.8371 0.5151 c -0.409,-0.2316 -0.744,-0.4633 -0.744,-0.695 0,-0.0694 0.03,-0.1387 0.083,-0.207 0.124,-0.1603 0.374,-0.3147 0.661,-0.4502 z m -0.602,-5.25004 c 0.135,0.13998 0.355,0.27978 0.602,0.41959 V 8.73174 8.15498 c -0.409,0.19305 -0.744,0.42472 -0.744,0.6564 0,0.09216 0.053,0.18421 0.142,0.27618 z m 2.461,2.81594 c 0,0.2316 -0.335,0.4633 -0.744,0.6564 v -1.3522 c 0.409,0.2317 0.744,0.4634 0.744,0.695 z m 0,6.1827 c 0,0.2317 -0.335,0.4633 -0.744,0.6571 v -1.353 c 0.409,0.2317 0.744,0.4641 0.744,0.6959 z" fill="#000000" id="path1177" />
  <path d="m 448.894,19.16 c -0.131,0 -0.244,-0.018 -0.375,-0.094 -0.413,-0.206 -0.581,-0.693 -0.375,-1.087 l 5.869,-11.513 c 0.206,-0.393 0.712,-0.562 1.124,-0.375 0.413,0.207 0.582,0.694 0.375,1.088 l -5.887,11.531 c -0.131,0.281 -0.431,0.45 -0.731,0.45 z m 20.681,-0.094 c 0.413,-0.206 0.581,-0.693 0.375,-1.087 L 464.081,6.485 c -0.206,-0.394 -0.712,-0.562 -1.125,-0.375 -0.412,0.206 -0.581,0.694 -0.375,1.088 l 5.869,11.511 c 0.15,0.281 0.431,0.45 0.75,0.45 0.113,0 0.244,-0.037 0.375,-0.094 z" fill="#000000" id="path1179" />
  <path d="m 467.663,7.985 h -17.326 c -0.637,0 -1.162,-0.506 -1.162,-1.143 0,-0.638 0.525,-1.144 1.163,-1.144 h 17.325 c 0.637,0 1.162,0.506 1.162,1.143 0,0.638 -0.506,1.144 -1.162,1.144 z m 3.337,4.5 c 0,-0.637 -0.525,-1.144 -1.163,-1.144 h -21.674 c -0.638,0 -1.163,0.508 -1.163,1.144 0,0.638 0.525,1.144 1.163,1.144 h 21.674 c 0.638,0 1.163,-0.506 1.163,-1.144 z" fill="#000000" id="path1181" />
  <path d="m 495.679,6.069 -11.4,-6 c -0.175,-0.092 -0.383,-0.092 -0.558,0 l -11.4,6 C 472.123,6.172 472,6.377 472,6.599 V 9 c 0,0.21 0.11,0.405 0.29,0.514 0.18,0.108 0.403,0.115 0.589,0.017 L 484,3.678 495.121,9.53 c 0.186,0.098 0.41,0.091 0.59,-0.017 C 495.89,9.404 496,9.209 496,8.999 V 6.6 c 0,-0.223 -0.123,-0.427 -0.321,-0.53 z" fill="#000000" id="path1183" />
  <path d="m 483.886,4.57101 9.6,5.052 V 21.737 c -10e-4,0.331 -0.27,0.6 -0.6,0.6 h -18 c -0.331,0 -0.6,-0.269 -0.6,-0.6 V 9.62301 Z m 0.366,7.19199 c -0.622,0 -1.184,0.51 -1.68,1.127 -0.562,0.7 -0.456,0.903 -0.75,0.903 -0.294,0 -1.282,-1.588 -1.354,-1.583 -0.264,0.021 -0.551,0.675 -0.446,1.247 0.048,0.256 1.606,1.897 1.846,1.886 0.3,0 1.046,-0.742 1.357,-1.134 l 0.012,3.158 -1.068,1.968 c -0.36,0.856 -0.415,1.222 -0.243,1.447 0.153,0.2 0.444,0.23 0.66,0.233 h 4.56 c 0.03,-0.105 0.102,-0.404 0,-0.742 -0.101,-0.339 -0.412,-0.467 -0.556,-0.51 -0.436,-0.128 -2.802,-0.093 -2.936,-0.128 -0.134,-0.034 1.442,-0.976 1.892,-1.92 0.45,-0.943 0.074,-3.949 0.08,-4.35 0.006,-0.274 -0.295,-1.602 -1.374,-1.602 z m -1.184,-2.76299 c -0.737,0 -1.333,0.596 -1.333,1.33199 0,0.736 0.596,1.332 1.333,1.332 0.736,0 1.333,-0.596 1.333,-1.332 0,-0.73599 -0.597,-1.33199 -1.333,-1.33199 z" fill="#000000" id="path1185" />
  <g clip-path="url(#clip3)" id="g1191" transform="translate(-3)">
    <path d="m 507.553,0.114996 c -0.21,-0.1539995 -0.496,-0.1539995 -0.706,0 l -6.6,3.600004 c -0.21,0.153 -0.298,0.424 -0.218,0.67 0.08,0.248 0.311,0.415 0.571,0.415 h 13.2 c 0.26,0 0.49,-0.167 0.57,-0.414 0.081,-0.247 -0.007,-0.518 -0.217,-0.671 z M 501.2,16.8 h 1.2 v 6.6 c 0,0.331 0.269,0.6 0.6,0.6 0.331,0 0.6,-0.269 0.6,-0.6 v -1.8 h 7.2 v 1.8 c 0,0.331 0.269,0.6 0.6,0.6 0.331,0 0.6,-0.269 0.6,-0.6 v -6.6 h 1.2 v -2.4 h -12 z m 2.4,0 h 7.2 V 18 h -7.2 z m 0,2.4 h 7.2 v 1.2 h -7.2 z m 3.6,-10.8 c -1.325,10e-4 -2.399,1.075 -2.4,2.4 v 2.4 h 4.8 v -2.4 c -0.001,-1.325 -1.075,-2.399 -2.4,-2.4 z" fill="#000000" id="path1187" />
    <path d="m 501.2,13.2 h 2.4 v -2.4 c 0,-1.988 1.612,-3.6 3.6,-3.6 1.988,0 3.6,1.612 3.6,3.6 v 2.4 h 2.4 V 6 h -12 z m 22.2,8.4 c -3,0 -5.4,-6 -9,-6.875 V 17.4 c 2.4,0.6 4.8,6.6 9,6.6 0.16,0 0.312,-0.063 0.424,-0.176 C 523.937,23.712 524,23.559 524,23.4 v -1.2 c 0,-0.16 -0.063,-0.312 -0.176,-0.424 C 523.712,21.663 523.559,21.6 523.4,21.6 Z m -7.8,-9 v 1.358 c 0.423,0.228 0.825,0.493 1.2,0.793 V 12.6 c -0.002,-1.425 -1.004,-2.652 -2.4,-2.94 v 1.25 c 0.717,0.253 1.198,0.93 1.2,1.69 z" fill="#000000" id="path1189" />
  </g>
  <path d="m 538.939,20.76 c -1.438,1.9516 -3.696,3.1453 -6.13,3.24 -0.144,-0.0802 -0.254,-0.2084 -0.311,-0.3619 -0.055,-0.2223 -0.619,-2.1234 -0.9,-2.6791 -0.281,-0.5559 -0.619,-1.4533 -1.011,-1.9011 -0.393,-0.4465 -1.407,-2.3438 -1.576,-2.7948 -0.169,-0.4502 -0.393,-2.009 -0.506,-2.2332 -0.436,-0.6708 -0.924,-1.3073 -1.458,-1.9042 -0.393,-0.3916 -2.588,-2.51178 -2.866,-2.79346 -0.278,-0.28112 -0.674,-0.83688 -0.561,-1.11792 0.113,-0.28169 0.168,-0.50274 0.393,-0.50274 0.224,0 0.619,0 0.787,0.16736 0.168,0.16738 1.295,0.9493 1.463,1.17218 0.169,0.22296 1.854,1.50698 1.914,1.50698 0.058,0 0.505,0.0556 0.56,-0.0568 0.056,-0.1124 0.338,-0.3347 0.227,-0.83754 -0.112,-0.50208 -1.686,-6.5305 -1.686,-6.5305 0,0 -0.169,-1.33957 0.505,-1.33957 0.675,0 0.843,0.38968 0.956,0.38968 0.113,0 2.016,6.08719 2.016,6.08719 0,0 0.111,0.16736 0.169,0.11048 0.057,-0.0568 0.393,-0.16736 0.337,-0.44714 C 531.206,7.65474 530.642,1.34147 530.756,1.00484 530.868,0.66821 530.979,0 531.43,0 c 0.449,0 0.9,0.112421 1.126,0.781894 0.225,0.669476 0.898,6.530526 0.898,6.530526 0,0 0.057,0.33537 0.226,0.33537 0.169,0 0.45,-0.44526 0.505,-0.78189 0.057,-0.33664 0.506,-5.81053 0.564,-5.86106 0.057,-0.050528 0.168,-0.614524 0.619,-0.557682 0.449,0.056842 0.562,0.167368 0.618,0.279789 0.215,0.418113 0.349,0.872213 0.395,1.338953 0.072,0.74336 0.108,1.48989 0.106,2.23579 l -0.28,3.80023 c 0,0 0.056,2.00908 0.224,2.40248 0.156,0.3165 0.344,0.6165 0.561,0.8943 0,0 0.506,0.5027 0.901,0.3916 0.429,-0.1263 0.83,-0.3347 1.18,-0.6139 0.45,-0.3347 1.463,-1.22968 1.8,-1.39704 0.337,-0.16736 0.394,-0.27976 0.843,-0.44712 0.344,-0.1156 0.705,-0.17184 1.068,-0.16736 0.113,0 0.506,-0.05496 0.732,0.22416 0.226,0.27984 0.337,0.27984 0.279,0.61516 -0.056,0.3348 -0.111,0.2792 -0.448,0.5589 -0.337,0.2799 -1.744,1.3965 -1.8,1.452 -0.056,0.055 -3.929,5.7619 -3.929,5.9779 0.033,0.2836 0.09,0.5634 0.168,0.8376 z" fill="#000000" id="path1193" />
  <path d="m 556.6,15.48 h 4.8 v 5.76 h -4.8 z" fill="#000000" id="path1195" />
  <path d="m 565.6,8.76 h -13.2 c -0.331,0 -0.6,0.147 -0.6,0.328 V 21.24 h 3.6 l -0.065,-7.38 c 0,-0.18 0.269,-0.328 0.6,-0.328 h 6 c 0.331,0 0.6,0.147 0.6,0.329 l 0.065,7.379 h 3.6 V 9.088 c 0,-0.181 -0.269,-0.328 -0.6,-0.328 z M 565.773,5.36 559,3 552.228,5.36 c -0.26,0.085 -0.428,0.274 -0.428,0.482 v 1.584 h 14.4 V 5.842 c 0,-0.208 -0.167,-0.397 -0.427,-0.482 z" fill="#000000" id="path1197" />
  <path fill-rule="evenodd" clip-rule="evenodd" d="m 547.4,8.76001 h 3.04 c 0.22,0 0.4,0.18 0.4,0.4 V 21.24 H 547 V 9.16001 c 0,-0.22 0.18,-0.4 0.4,-0.4 z m 20.16,0 h 3.04 c 0.22,0 0.4,0.18 0.4,0.4 V 21.24 h -3.84 V 9.16001 c 0,-0.22 0.18,-0.4 0.4,-0.4 z" fill="#000000" id="path1199" />
  <path d="m 588.302,21.171 c -0.702,-1.46 -1.497,-3.116 -1.497,-5.764 0,-0.851 0.07,-1.222 0.225,-2.034 0.045,-0.234 0.096,-0.503 0.154,-0.827 C 588.485,10.749 590,7.956 590,4.686 590,3.181 589.815,1.733 589.45,0.382 589.39,0.157 589.18,0 588.94,0 h -9.88 c -0.24,0 -0.45,0.157 -0.51,0.382 -0.365,1.351 -0.55,2.8 -0.55,4.304 0,4.194 2.326,7.325 3.187,8.34 0.08,0.451 0.148,0.763 0.205,1.018 0.107,0.482 0.16,0.723 0.16,1.363 0,2.648 -0.795,4.304 -1.497,5.765 -0.13,0.273 -0.258,0.537 -0.376,0.8 -0.202,0.449 -0.157,0.962 0.12,1.372 0.277,0.41 0.745,0.656 1.252,0.656 h 6.256 c 0.507,0 0.976,-0.245 1.253,-0.656 0.277,-0.41 0.32,-0.923 0.119,-1.373 -0.119,-0.262 -0.246,-0.527 -0.377,-0.8 z m -8.83,-20.149 h 9.056 c 0.277,1.157 0.418,2.388 0.418,3.664 0,0.927 -0.136,1.815 -0.358,2.649 h -9.195 c -0.207,-0.816 -0.34,-1.702 -0.34,-2.649 0,-1.276 0.141,-2.506 0.419,-3.664 z" fill="#000000" id="path1201" />
  <path fill-rule="evenodd" clip-rule="evenodd" d="M 603.552,0 C 603.027,0 602.6,0.442498 602.6,0.988158 V 16.5301 c 0,0.545 0.426,0.9882 0.952,0.9882 h 7.828 c 0.525,0 0.952,-0.4426 0.952,-0.9882 V 0.988158 C 612.332,0.443147 611.906,0 611.38,0 Z m 8.131,13.4515 c 0,0.4476 -0.378,0.8564 -0.791,0.8564 h -6.952 c -0.412,0 -0.691,-0.4088 -0.691,-0.8564 V 2.68743 c 0,-0.44768 0.279,-0.81881 0.691,-0.81881 h 6.952 c 0.413,0 0.791,0.37048 0.791,0.81817 z m -3.03,-12.07081 c 0.193,0 0.261,-0.23034 0.261,-0.33934 V 0.956354 c 0,-0.107702 -0.068,-0.307544 -0.26,-0.307544 h -2.492 c -0.193,0 -0.318,0.199194 -0.318,0.308192 V 1.04135 c 0,0.109 0.126,0.33934 0.318,0.33934 z" fill="#000000" id="path1203" />
  <path fill-rule="evenodd" clip-rule="evenodd" d="m 608.952,15.9014 c 0,0.5061 -0.43,0.9155 -0.96,0.9155 -0.531,0 -0.961,-0.4094 -0.961,-0.9149 0,-0.506 0.43,-0.9161 0.96,-0.9161 0.531,0 0.96,0.4101 0.96,0.9155" fill="#ffffff" id="path1205" />
  <path fill-rule="evenodd" clip-rule="evenodd" d="m 608.167,7.56531 c -0.194,0.19334 -0.314,0.46061 -0.314,0.75585 v 6.20794 c -0.153,-0.0681 -0.321,-0.1122 -0.496,-0.1272 -0.045,-0.0045 -0.092,-0.0065 -0.139,-0.0065 -0.524,0 -0.937,0.425 -0.937,0.9331 0,0.0415 0.003,0.0843 0.009,0.1278 0.049,0.3614 -0.058,0.7279 -0.296,1.0057 l -0.409,0.4781 c -0.315,0.3673 -0.385,0.8837 -0.18,1.321 l 1.201,2.5551 c 0.179,0.3802 0.459,0.7046 0.81,0.9369 0.188,0.1246 0.389,0.2492 0.545,0.3225 0.16,0.0752 0.292,0.194 0.384,0.3374 0.092,0.1434 0.142,0.3127 0.142,0.4905 V 24 h 7.15 c 0,-0.3497 0.026,-0.6975 0.075,-1.042 0.049,-0.3452 0.123,-0.6865 0.222,-1.0212 0.069,-0.2362 0.121,-0.4763 0.156,-0.719 0.035,-0.2426 0.052,-0.4885 0.052,-0.7338 v -6.06 c 0,-0.255 -0.104,-0.4866 -0.272,-0.654 -0.171,-0.1706 -0.408,-0.2758 -0.671,-0.2712 -0.51,0.0078 -0.913,0.4373 -0.913,0.9466 v -0.5028 c 0,-0.5904 -0.48,-1.0686 -1.073,-1.0686 -0.295,0 -0.564,0.1193 -0.757,0.3133 -0.195,0.1927 -0.314,0.4607 -0.314,0.7553 v -0.7371 c 0,-0.5904 -0.481,-1.0699 -1.072,-1.0699 -0.297,0 -0.564,0.12 -0.759,0.3134 -0.194,0.194 -0.313,0.4607 -0.313,0.7565 V 8.32116 c 0,-0.59042 -0.48,-1.06925 -1.072,-1.06925 -0.297,0 -0.564,0.12 -0.759,0.3127" fill="#000000" id="path1207" />
  <path d="m 644.08,7.667 h -20.16 l -1.92,16 h 24 z M 638.772,6.053 C 638.772,3.263 636.51,1 633.719,1 c -2.789,0 -5.052,2.262 -5.052,5.053 v 2.526 c 0,0.698 0.06,1.263 0.971,1.263 0.911,0 1.264,-0.565 1.264,-1.263 V 6.053 c 0,-1.396 1.422,-2.96 2.817,-2.96 1.396,0 3.038,1.564 3.038,2.96 v 2.526 c 0,0.698 0.362,1.263 1.06,1.263 0.697,0 0.955,-0.565 0.955,-1.263 z" fill="#000000" id="path1209" />
  <path d="m 670.679,6.069 -11.4,-6 c -0.175,-0.092 -0.383,-0.092 -0.558,0 l -11.4,6 C 647.123,6.172 647,6.377 647,6.599 V 9 c 0,0.21 0.11,0.405 0.29,0.514 0.18,0.108 0.403,0.115 0.589,0.017 L 659,3.678 670.121,9.53 c 0.186,0.098 0.41,0.091 0.59,-0.017 C 670.89,9.404 671,9.21 671,9 V 6.6 c 0,-0.223 -0.123,-0.428 -0.321,-0.531 z" fill="#000000" id="path1211" />
  <path d="m 658.886,4.571 9.6,5.052 v 12.114 c -10e-4,0.331 -0.27,0.6 -0.6,0.6 h -18 c -0.331,0 -0.6,-0.269 -0.6,-0.6 V 9.623 Z m -0.279,9.351 -0.056,0.056 c -0.284,0.284 -0.532,0.544 -0.75,0.783 0.57,0.692 0.65,1.716 0.713,2.55 0.021,0.27 0.042,0.528 0.077,0.746 0.007,0.042 0.014,0.082 0.022,0.12 0.934,0.08 1.89,-0.182 2.668,-0.786 l -0.055,-0.106 c -0.097,-0.185 -0.252,-0.451 -0.486,-0.796 -0.382,-0.562 -1.047,-1.436 -2.133,-2.567 z m -1.035,1.093 c -0.685,0.777 -1.022,1.299 -1.187,1.627 -0.058,0.114 -0.097,0.209 -0.123,0.286 -0.017,0.051 -0.029,0.095 -0.036,0.131 l 0.012,0.013 c 0.573,0.573 1.282,0.925 2.023,1.059 l -0.019,-0.124 c -0.027,-0.201 -0.045,-0.427 -0.064,-0.67 -0.06,-0.768 -0.132,-1.709 -0.606,-2.322 z m 1.75,-1.779 c -0.15,0.138 -0.307,0.288 -0.474,0.45 1.597,1.662 2.332,2.804 2.64,3.372 0.022,0.038 0.041,0.075 0.058,0.108 l 0.098,-0.094 c 0.826,-0.827 1.195,-1.939 1.106,-3.02 l -0.12,-0.022 c -0.22,-0.036 -0.483,-0.057 -0.756,-0.078 -0.835,-0.065 -1.86,-0.144 -2.552,-0.716 z m -1.984,1.534 c -0.456,-0.38 -0.865,-0.18 -1.333,0.048 -0.231,0.113 -0.467,0.228 -0.702,0.252 -0.04,0.005 -0.08,0.006 -0.12,0.004 0.114,0.605 0.373,1.188 0.78,1.692 0.014,-0.04 0.031,-0.082 0.05,-0.126 0.174,-0.396 0.548,-0.992 1.325,-1.87 z m -1.316,-2.87 c -0.685,0.808 -0.98,1.834 -0.887,2.83 0.038,0.007 0.078,0.009 0.12,0.006 0.163,-0.012 0.355,-0.1 0.602,-0.221 0.264,-0.129 0.537,-0.262 0.838,-0.29 0.317,-0.028 0.602,0.069 0.869,0.295 0.22,-0.24 0.468,-0.5 0.749,-0.78 l 0.06,-0.06 c -0.114,-0.115 -0.231,-0.233 -0.353,-0.353 -0.955,-0.943 -1.558,-1.273 -1.875,-1.388 -0.048,-0.017 -0.089,-0.03 -0.123,-0.038 z m 5.597,-0.258 c -0.036,0.007 -0.08,0.019 -0.132,0.037 -0.3,0.102 -0.883,0.413 -1.912,1.328 0.613,0.476 1.555,0.55 2.325,0.609 0.248,0.02 0.477,0.037 0.681,0.065 0.042,0.006 0.084,0.012 0.123,0.02 -0.131,-0.746 -0.485,-1.46 -1.06,-2.035 z m -2.33,-1.08 c -1.074,-0.097 -2.182,0.258 -3.013,1.066 0.037,0.014 0.077,0.03 0.12,0.049 0.395,0.173 1,0.56 1.861,1.41 0.123,0.122 0.241,0.24 0.356,0.357 0.16,-0.157 0.316,-0.305 0.468,-0.444 -0.225,-0.266 -0.321,-0.551 -0.293,-0.867 0.027,-0.302 0.16,-0.574 0.29,-0.838 0.123,-0.252 0.212,-0.447 0.221,-0.613 0.002,-0.042 0,-0.081 -0.01,-0.12 z m 0.348,0.048 c 0.002,0.04 0,0.08 -0.003,0.12 -0.022,0.238 -0.139,0.478 -0.254,0.713 -0.228,0.467 -0.427,0.874 -0.05,1.33 0.705,-0.63 1.296,-1.064 1.767,-1.296 l 0.1,-0.047 c 0.044,-0.02 0.086,-0.036 0.125,-0.051 -0.502,-0.402 -1.083,-0.658 -1.685,-0.769 z" fill="#000000" id="path1213" />
  <path fill-rule="evenodd" clip-rule="evenodd" d="M 683.75,4 H 672.77 C 672.338,4 672,4.325 672,4.741 v 3.266 h 2.087 v 8.014 H 672 v 2.264 c 0,0.416 0.338,0.74 0.769,0.74 h 10.981 v -4.013 c -1.9,-0.124 -3.402,-1.643 -3.402,-3.498 0,-1.856 1.502,-3.375 3.402,-3.498 z M 672,15.541 h 1.587 V 8.487 H 672 Z M 684.25,8.016 V 4 h 10.981 c 0.432,0 0.769,0.326 0.768,0.741 v 3.266 h -2.086 v 8.014 h 2.086 v 2.264 c 0,0.416 -0.338,0.74 -0.769,0.74 h -10.98 v -4.013 c 1.9,-0.124 3.402,-1.643 3.402,-3.498 0,-1.856 -1.502,-3.375 -3.402,-3.498 z m 10.163,0.471 h 1.586 v 7.054 h -1.586 z m -13.565,3.027 c 0,-1.59 1.278,-2.894 2.902,-3.017 v 6.034 c -1.624,-0.123 -2.902,-1.427 -2.902,-3.017 z m 6.304,0 c 0,1.59 -1.278,2.894 -2.902,3.017 V 8.497 c 1.624,0.123 2.902,1.427 2.902,3.017 z" fill="#000000" id="path1215" />
  <path d="m 710.311,1.98545e-6 c 1.809,0 3.544,0.71853001455 4.823,1.99821801455 1.278,1.279 1.996,3.01424 1.995,4.82332 V 17.6278 h -5.066 l 5.643,2.7471 c 0.486,0.1215 0.828,0.5591 0.828,1.0595 V 24 H 700.2 v -2.5656 c 0,-0.4762 0.309,-0.8973 0.764,-1.0402 l 5.683,-2.7699 h -4.96 V 6.82224 c -10e-4,-1.80978 0.718,-3.54502 1.997,-4.82471 1.279,-1.280379 3.014,-1.99890847 4.824,-1.99752801455 z M 711.857,16.4386 c -0.762,0.3499 -1.591,0.5314 -2.43,0.5314 h -0.11 c -0.794,0.0021 -1.58,-0.1581 -2.309,-0.4694 v 1.0637 l 2.422,4.0883 2.427,-4.0917 z m -2.672,-5.9602 -0.112,0.0131 c -0.681,0.1153 -2.149,0.9353 -2.66,1.1237 -0.401,0.1477 -1.881,0.3638 -2.647,0.4707 h -0.049 c 0.433,2.7568 2.809,4.7888 5.6,4.7882 h 0.108 c 2.771,6e-4 5.137,-1.9996 5.598,-4.7315 -0.365,-0.0484 -2.564,-0.3417 -3.067,-0.5274 -0.539,-0.1994 -2.155,-1.1071 -2.771,-1.1368 z m 0.675,-7.58702 h -0.891 l 0.045,0.12493 c 0.029,0.08421 0.053,0.16979 0.075,0.25539 0.274,1.19202 -0.268,2.56558 -1.455,3.39662 -0.526,0.37479 -1.143,0.60118 -1.787,0.65778 h -0.028 c -0.794,0.08008 -1.585,-0.16841 -2.191,-0.68677 V 8.25168 L 703.58,8.23584 c -0.117,-0.03456 -0.238,-0.05176 -0.36,-0.05112 -0.807,0 -1.45,0.71784 -1.45,1.60552 0,0.88756 0.648,1.60826 1.45,1.60826 0.123,0.0021 0.245,-0.0139 0.364,-0.0483 l 0.065,0.6425 c 0.812,-0.1132 2.253,-0.3278 2.655,-0.4755 0.559,-0.2057 2.23,-1.1472 2.867,-1.1775 h 0.01 c 0.634,0.0303 2.308,0.9718 2.866,1.1775 0.487,0.1787 2.501,0.4555 3.074,0.5322 0.037,-0.2272 0.06,-0.4563 0.07,-0.6868 0.1,0.0241 0.204,0.0365 0.307,0.0365 0.797,0 1.45,-0.7178 1.45,-1.6075 0,-0.88904 -0.651,-1.61032 -1.448,-1.61032 -0.102,0 -0.203,0.01176 -0.303,0.03592 V 6.63657 l -0.048,0.04072 c -0.466,0.38791 -1.044,0.61706 -1.65,0.65433 -0.822,0.05108 -1.637,-0.18221 -2.307,-0.66124 -1.187,-0.82275 -1.733,-2.20666 -1.451,-3.398 l 0.032,-0.12907 c 0.024,-0.08559 0.053,-0.1698 0.087,-0.25193 z m -2.699,5.52526 c 0.25,0 0.454,0.29272 0.454,0.65368 0,0.36168 -0.204,0.65432 -0.455,0.65432 -0.251,0 -0.455,-0.29264 -0.455,-0.65432 0,-0.36096 0.204,-0.65368 0.456,-0.65368 z m 4.366,0 c 0.25,0 0.453,0.29272 0.453,0.65368 0,0.36168 -0.203,0.65432 -0.453,0.65432 -0.251,0 -0.454,-0.29264 -0.454,-0.65432 0,-0.36096 0.203,-0.65368 0.454,-0.65368 z" fill="#000000" id="path1217" />
  <path fill-rule="evenodd" clip-rule="evenodd" d="m 709.234,12.8408 -0.667,0.1891 c -0.207,0.0842 -0.445,0.1794 -0.706,0.2686 l -0.016,0.0052 c -0.505,0.1582 -1.017,0.2911 -1.534,0.3988 l -0.008,0.0015 -0.373,0.0731 c -0.335,0.0655 -0.662,-0.1444 -0.741,-0.476 -0.079,-0.3315 0.117,-0.6667 0.445,-0.7599 l 2.519,-0.7159 0.086,-0.0349 c 0.167,-0.0677 0.343,-0.1376 0.501,-0.1858 0.118,-0.036 0.299,-0.0842 0.494,-0.0745 0.199,-0.0103 0.393,0.0422 0.528,0.0852 0.148,0.0471 0.311,0.1118 0.467,0.1754 l 10e-4,5e-4 0.077,0.0314 2.535,0.7185 c 0.326,0.0925 0.523,0.425 0.446,0.7555 -0.077,0.3306 -0.399,0.5427 -0.733,0.4821 -0.654,-0.1185 -1.299,-0.278 -1.933,-0.4754 l -0.015,-0.005 c -0.266,-0.0903 -0.508,-0.1873 -0.713,-0.2706 z m 0.315,1.0491 c 0.266,0.0768 0.521,0.2267 0.7,0.3425 0.242,0.1555 0.461,0.3267 0.59,0.4322 l 0.005,0.0039 0.092,0.0766 0.024,0.0205 c 0.255,0.2109 0.306,0.5827 0.117,0.8543 -0.19,0.2715 -0.556,0.3525 -0.842,0.1861 l -0.981,-0.5708 -0.983,0.5709 c -0.285,0.1654 -0.649,0.0861 -0.839,-0.1827 -0.19,-0.2688 -0.143,-0.6382 0.107,-0.8516 l 0.038,-0.0317 0.091,-0.076 c 0.129,-0.1052 0.349,-0.2763 0.59,-0.4318 0.18,-0.1162 0.437,-0.2666 0.703,-0.3432 0.087,-0.037 0.183,-0.0551 0.281,-0.0503 l 0.013,7e-4 0.002,-2e-4 c 0.103,-0.0065 0.202,0.0119 0.292,0.0506 z" fill="#000000" id="path1219" />
  <path d="M 730.337,0.2184 C 730.337,0.0872 730.211,0 730.086,0 h -5.056 c -0.126,0 -0.251,0.088 -0.251,0.2184 v 6.6384 h 5.558 z m 3.721,5.2672 c -0.124,0 -0.248,0.088 -0.248,0.2216 V 6.856 h 4.864 V 5.7072 c 0,-0.1328 -0.124,-0.2216 -0.248,-0.2216 z m 9.803,-2.7424 -3.798,4.1136 h 1.807 l 3.056,-3.316 z" fill="#000000" id="path1221" />
  <path d="m 732.686,5.83842 c 0,-0.5488 0.537,-0.98 1.164,-0.98 h 4.696 c 0.626,0 1.163,0.432 1.163,0.98 v 0.1568 l 1.744,-1.8416 c -0.09,-0.04 -0.179,-0.04 -0.179,-0.04 h -10.242 v 2.744 h 1.654 v -1.02 z M 723.6,24 h 20.147 V 8.22879 H 723.6 Z m 12.134,-13.1992 h 4.656 c 0.135,0 0.269,0.0848 0.269,0.2112 v 1.9392 c 0,0.1272 -0.134,0.2112 -0.269,0.2112 h -4.656 z m -2.552,0 h 1.656 v 2.3616 h -1.656 z m -6.492,0.2112 c 0,-0.1264 0.135,-0.2112 0.268,-0.2112 h 5.328 v 2.3616 h -5.328 c -0.133,0 -0.268,-0.084 -0.268,-0.2112 z" fill="#000000" id="path1223" />
  <g clip-path="url(#clip4)" id="g1229" transform="translate(-3)">
    <path d="m 769.721,1.50056 c 0.986,0.5805 1.572,1.71377 1.399,2.89803 l -0.015,0.0915 -0.841,5.15856 c 0.144,0.17776 0.216,0.41245 0.177,0.65625 -0.383,2.3497 -1.943,4.0965 -4.341,4.4835 v 3.5393 c 0,3.117 -2.583,5.6723 -5.725,5.6723 -3.143,0 -5.725,-2.5553 -5.725,-5.6723 v -3.4125 c 0.25,0.051 0.506,0.078 0.765,0.078 0.315,0 0.625,-0.039 0.924,-0.114 v 3.4485 c 0,2.2005 1.817,3.9976 4.035,3.9976 2.22,0 4.036,-1.7963 4.036,-3.9976 v -3.516 c -2.471,-0.33 -4.104,-2.0963 -4.497,-4.5075 -0.039,-0.2423 0.032,-0.47779 0.177,-0.65555 l -0.849,-5.20506 c -0.197,-1.20001 0.393,-2.35577 1.391,-2.94377 -0.005,0.12749 0.002,0.25575 0.024,0.38475 0.045,0.27375 0.151,0.528 0.302,0.74775 -0.452,0.3825 -0.705,0.97876 -0.615,1.59752 l 0.013,0.081 0.842,5.16005 c 0.195,0.12448 0.338,0.32696 0.378,0.57221 0.309,1.8953 1.627,3.144 3.601,3.144 1.973,0 3.292,-1.2487 3.601,-3.144 0.04,-0.24525 0.182,-0.44773 0.378,-0.57221 0.283,-1.73477 0.562,-3.47103 0.849,-5.20505 0.104,-0.63226 -0.149,-1.24502 -0.61,-1.63352 0.152,-0.2205 0.257,-0.474 0.302,-0.74775 0.023,-0.12826 0.03,-0.25726 0.024,-0.38401 z" fill="#000000" id="path1225" />
    <path fill-rule="evenodd" clip-rule="evenodd" d="m 768.885,1.68505 c 0.08,-0.51451 -0.16,-1.014759 -0.574,-1.242761 l -0.502,-0.276002 c -0.798,-0.439504 -1.769,0.027 -1.92,0.990013 -0.152,0.96376 0.625,1.73851 1.515,1.59751 l 0.559,-0.09 c 0.461,-0.07275 0.84,-0.46351 0.922,-0.97876 z M 755.393,8.6504 c 1.651,0 2.991,1.4212 2.991,3.1747 0,1.7528 -1.34,3.1748 -2.992,3.1748 -1.652,0 -2.992,-1.422 -2.992,-3.1748 0,-1.7535 1.34,-3.1747 2.993,-3.1747 z m 5.958,-6.96535 c -0.081,-0.51451 0.16,-1.014759 0.574,-1.242761 l 0.501,-0.276002 c 0.8,-0.439504 1.77,0.027 1.922,0.990013 0.15,0.96376 -0.626,1.73851 -1.515,1.59751 l -0.56,-0.09 c -0.46,-0.07275 -0.841,-0.46351 -0.922,-0.97876 z" fill="#000000" id="path1227" />
  </g>
  <g id="g4242" transform="translate(-3)">
    <path d="m 798.751,16.232 c -0.156,-0.114 -0.358,-0.144 -0.54,-0.082 -2.057,0.74 -4.225,1.125 -6.411,1.137 L 781,15.55 c -1.86,-0.035 -3.718,0.16 -5.53,0.584 -0.275,0.061 -0.47,0.305 -0.47,0.586 v 3.6 c 0,0.182 0.083,0.355 0.224,0.469 0.142,0.113 0.328,0.157 0.506,0.117 4.979,-1.107 7.862,-0.378 10.65,0.327 1.813,0.535 3.689,0.83 5.579,0.876 2.262,-0.042 4.502,-0.454 6.63,-1.22 0.246,-0.081 0.411,-0.31 0.411,-0.569 v -3.6 c 0,-0.192 -0.093,-0.374 -0.249,-0.487 z" fill="#000000" id="path1231" />
    <path fill-rule="evenodd" clip-rule="evenodd" d="M 790.79,17.11 V 4.58701 c 0,-0.415 -0.355,-0.752 -0.792,-0.752 h -0.299 c -0.406,0 -0.73,0.295 -0.77,0.684 0.018,0.152 -0.011,0.31 -0.096,0.452 -0.203,0.339 -0.642,0.45 -0.981,0.246 l -0.01,-0.005 c -0.215,-0.13 -0.347,-0.362 -0.347,-0.614 0,-1.21 0.989,-2.194 2.204,-2.194 h 0.299 c 1.225,0 2.222,0.98 2.222,2.183 V 17.11 c 0,0.395 -0.32,0.715 -0.715,0.715 -0.395,0 -0.715,-0.32 -0.715,-0.715 z" fill="#000000" id="path1233" />
    <path fill-rule="evenodd" clip-rule="evenodd" d="m 782.347,17.515 c -0.396,0 -0.716,-0.323 -0.716,-0.723 V 4.612 c 0,-0.42 -0.355,-0.761 -0.791,-0.761 h -0.299 c -0.407,0 -0.73,0.298 -0.77,0.691 0.018,0.154 -0.012,0.315 -0.097,0.457 -0.203,0.343 -0.642,0.455 -0.98,0.25 l -0.011,-0.007 c -0.216,-0.13 -0.347,-0.366 -0.347,-0.62 0,-1.223 0.988,-2.219 2.204,-2.219 h 0.299 c 1.225,0 2.222,0.99 2.222,2.208 v 12.18 c 0,0.4 -0.32,0.723 -0.715,0.723" fill="#000000" id="path1235" />
    <path fill-rule="evenodd" clip-rule="evenodd" d="m 791.487,9.30701 h -9.158 c -0.395,0 -0.716,-0.32 -0.716,-0.715 0,-0.395 0.32,-0.715 0.716,-0.715 h 9.158 c 0.395,0 0.716,0.32 0.716,0.715 0,0.395 -0.32,0.715 -0.716,0.715 z m 0,4.46799 h -9.158 c -0.395,0 -0.716,-0.32 -0.716,-0.716 0,-0.395 0.32,-0.715 0.716,-0.715 h 9.158 c 0.395,0 0.716,0.32 0.716,0.715 0,0.396 -0.32,0.716 -0.716,0.716 z" fill="#000000" id="path1237" />
  </g>
  <path d="M 809,5.8 V 1 h -12 v 21.6 h 24 V 5.8 Z m -7.2,14.4 h -2.4 v -2.4 h 2.4 z m 0,-4.8 h -2.4 V 13 h 2.4 z m 0,-4.8 h -2.4 V 8.2 h 2.4 z m 0,-4.8 h -2.4 V 3.4 h 2.4 z m 4.8,14.4 h -2.4 v -2.4 h 2.4 z m 0,-4.8 h -2.4 V 13 h 2.4 z m 0,-4.8 h -2.4 V 8.2 h 2.4 z m 0,-4.8 h -2.4 V 3.4 h 2.4 z m 12,14.4 H 809 v -2.4 h 2.4 V 15.4 H 809 V 13 h 2.4 V 10.6 H 809 V 8.2 h 9.6 z m -2.4,-9.6 h -2.4 V 13 h 2.4 z m 0,4.8 h -2.4 v 2.4 h 2.4 z" fill="#000000" id="path1239" />
  <g fill="#333f48" fill-rule="evenodd" id="g2203" transform="matrix(1.2048652,0,0,1.1320755,819.52634,-2.334649)" style="fill:#000000;fill-opacity:1">
    <path d="m 14.517,8.675 a 0.92,0.92 0 0 0 0.721,1.083 l 4.338,0.81 c 0.497,0.1 0.98,-0.225 1.08,-0.724 l 0.806,-4.352 a 0.91831381,0.91831381 0 1 0 -1.801,-0.36 l -0.344,2.021 a 9.828,9.828 0 0 0 -7.72,-3.767 9.82,9.82 0 0 0 -9,5.91 0.921,0.921 0 0 0 0.474,1.212 0.917,0.917 0 0 0 1.209,-0.475 7.984,7.984 0 0 1 7.317,-4.805 7.99,7.99 0 0 1 6.33,3.132 l -2.33,-0.408 a 0.918,0.918 0 0 0 -1.08,0.723 z" fill-rule="nonzero" id="path2193" style="fill:#000000;fill-opacity:1" />
    <g fill-rule="nonzero" id="g2199" style="fill:#000000;fill-opacity:1">
      <path d="m 12.067,17.344 -1.564,-1.613 v -2.117 c 0,-0.337 -0.265,-0.356 -0.592,-0.356 -0.327,0 -0.591,0.02 -0.591,0.356 v 0.897 l -1.165,-1.2 a 1.522,1.522 0 0 0 -2.151,0 l -3.91,4.033 a 0.624,0.624 0 0 0 0,0.863 0.579,0.579 0 0 0 0.836,0 l 3.91,-4.033 a 0.342,0.342 0 0 1 0.479,0 l 3.91,4.033 a 0.581,0.581 0 0 0 0.838,0 0.624,0.624 0 0 0 0,-0.863 z" id="path2195" style="fill:#000000;fill-opacity:1" />
      <path d="m 7.285,15.113 a 0.285,0.285 0 0 0 -0.41,0 l -3.43,3.503 a 0.3,0.3 0 0 0 -0.085,0.21 v 2.554 c 0,1.086 0,1.086 1.063,1.086 H 6.12 v -2.687 h 1.92 v 2.687 h 1.698 c 1.063,0 1.063,0 1.063,-1.086 v -2.555 a 0.299,0.299 0 0 0 -0.085,-0.21 l -3.43,-3.502 z" id="path2197" style="fill:#000000;fill-opacity:1" />
    </g>
    <path d="m 21.36,11.906 a 0.48,0.48 0 0 1 0.48,0.48 v 9.6 a 0.48,0.48 0 0 1 -0.48,0.48 h -6.24 a 0.48,0.48 0 0 1 -0.48,-0.48 v -9.6 a 0.48,0.48 0 0 1 0.48,-0.48 z m -3.6,7.68 h -1.68 a 0.24,0.24 0 0 0 -0.24,0.24 v 0.96 c 0,0.132 0.107,0.24 0.24,0.24 h 1.68 A 0.24,0.24 0 0 0 18,20.786 v -0.96 a 0.24,0.24 0 0 0 -0.24,-0.24 z m 2.64,0 h -1.68 a 0.24,0.24 0 0 0 -0.24,0.24 v 0.96 c 0,0.132 0.107,0.24 0.24,0.24 h 1.68 a 0.24,0.24 0 0 0 0.24,-0.24 v -0.96 a 0.24,0.24 0 0 0 -0.24,-0.24 z m -2.64,-2.16 h -1.68 a 0.24,0.24 0 0 0 -0.24,0.24 v 0.96 c 0,0.132 0.107,0.24 0.24,0.24 h 1.68 A 0.24,0.24 0 0 0 18,18.626 v -0.96 a 0.24,0.24 0 0 0 -0.24,-0.24 z m 2.64,0 h -1.68 a 0.24,0.24 0 0 0 -0.24,0.24 v 0.96 c 0,0.132 0.107,0.24 0.24,0.24 h 1.68 a 0.24,0.24 0 0 0 0.24,-0.24 v -0.96 a 0.24,0.24 0 0 0 -0.24,-0.24 z m -2.64,-1.92 h -1.68 a 0.24,0.24 0 0 0 -0.24,0.24 v 0.96 c 0,0.132 0.107,0.24 0.24,0.24 h 1.68 A 0.24,0.24 0 0 0 18,16.706 v -0.96 a 0.24,0.24 0 0 0 -0.24,-0.24 z m 2.64,0 h -1.68 a 0.24,0.24 0 0 0 -0.24,0.24 v 0.96 c 0,0.132 0.107,0.24 0.24,0.24 h 1.68 a 0.24,0.24 0 0 0 0.24,-0.24 v -0.96 a 0.24,0.24 0 0 0 -0.24,-0.24 z m -2.64,-2.16 h -1.68 a 0.24,0.24 0 0 0 -0.24,0.24 v 0.96 c 0,0.132 0.107,0.24 0.24,0.24 h 1.68 A 0.24,0.24 0 0 0 18,14.546 v -0.96 a 0.24,0.24 0 0 0 -0.24,-0.24 z m 2.64,0 h -1.68 a 0.24,0.24 0 0 0 -0.24,0.24 v 0.96 c 0,0.132 0.107,0.24 0.24,0.24 h 1.68 a 0.24,0.24 0 0 0 0.24,-0.24 v -0.96 a 0.24,0.24 0 0 0 -0.24,-0.24 z" id="path2201" style="fill:#000000;fill-opacity:1" />
  </g>
  <defs id="defs1256">
    <clipPath id="clip0">
      <rect width="24" height="24" fill="#ffffff" transform="translate(150)" id="rect1241" x="0" y="0" />
    </clipPath>
    <clipPath id="clip1">
      <rect width="24" height="24" fill="#ffffff" transform="translate(225)" id="rect1244" x="0" y="0" />
    </clipPath>
    <clipPath id="clip2">
      <rect width="24" height="24" fill="#ffffff" transform="translate(400)" id="rect1247" x="0" y="0" />
    </clipPath>
    <clipPath id="clip3">
      <rect width="24" height="24" fill="#ffffff" transform="translate(500)" id="rect1250" x="0" y="0" />
    </clipPath>
    <clipPath id="clip4">
      <rect width="24" height="24" fill="#ffffff" transform="translate(750)" id="rect1253" x="0" y="0" />
    </clipPath>
  </defs>
  <g fill="#333f48" id="g2809" transform="matrix(1.1427541,0,0,0.93913043,844.80848,1.0289934)" style="fill:#000000;fill-opacity:1">
    <path d="M 16.407,11.574 15.025,10.172 V 8.33 c 0,-0.293 -0.234,-0.31 -0.523,-0.31 -0.289,0 -0.523,0.017 -0.523,0.31 V 9.11 L 12.95,8.067 a 1.36,1.36 0 0 0 -1.901,0 l -3.456,3.507 a 0.536,0.536 0 0 0 0,0.75 0.517,0.517 0 0 0 0.74,0 l 3.455,-3.506 a 0.305,0.305 0 0 1 0.423,0 l 3.456,3.506 a 0.518,0.518 0 0 0 0.74,0 0.536,0.536 0 0 0 0,-0.75 z" id="path2803" style="fill:#000000;fill-opacity:1" />
    <path d="m 12.059,9.676 a 0.248,0.248 0 0 0 -0.357,0 l -2.988,3.05 A 0.261,0.261 0 0 0 8.64,12.909 v 2.225 c 0,0.946 0,0.946 0.926,0.946 h 1.479 v -2.34 h 1.67 v 2.34 h 1.48 c 0.925,0 0.925,0 0.925,-0.946 V 12.91 A 0.26,0.26 0 0 0 15.046,12.728 L 12.06,9.676 Z" id="path2805" style="fill:#000000;fill-opacity:1" />
    <path d="M 9.212,17.623 A 1.022,1.022 0 0 0 8.413,16.419 l -4.804,-0.9 A 1.018,1.018 0 0 0 2.413,16.324 L 1.52,21.16 a 1.0173526,1.0173526 0 1 0 1.995,0.4 l 0.38,-2.246 a 10.873,10.873 0 0 0 8.552,4.186 c 4.324,0 8.236,-2.577 9.968,-6.566 a 1.026,1.026 0 0 0 -0.525,-1.348 1.014,1.014 0 0 0 -1.339,0.528 8.842,8.842 0 0 1 -8.104,5.339 8.84,8.84 0 0 1 -7.011,-3.48 l 2.58,0.454 c 0.551,0.11 1.086,-0.25 1.196,-0.804 z M 14.788,6.377 a 1.022,1.022 0 0 0 0.799,1.204 l 4.804,0.9 c 0.551,0.11 1.086,-0.25 1.196,-0.805 L 22.48,2.84 A 1.024,1.024 0 0 0 21.681,1.637 c -0.55,-0.11 -1.086,0.25 -1.195,0.804 L 20.104,4.686 A 10.873,10.873 0 0 0 11.554,0.5 10.876,10.876 0 0 0 1.584,7.066 1.026,1.026 0 0 0 2.109,8.414 1.014,1.014 0 0 0 3.448,7.886 a 8.842,8.842 0 0 1 8.104,-5.339 8.84,8.84 0 0 1 7.011,3.48 l -2.58,-0.454 a 1.018,1.018 0 0 0 -1.196,0.804 z" id="path2807" style="fill:#000000;fill-opacity:1" />
  </g>
  <g fill="#333f48" id="g3201" transform="matrix(1.1764674,0,0,1.4515884,868.86543,-5.618879)" style="fill:#000000;fill-opacity:1">
    <path d="M 17.73,11.375 15.293,8.921 V 5.699 c 0,-0.513 -0.412,-0.542 -0.922,-0.542 -0.509,0 -0.921,0.029 -0.921,0.542 V 7.064 L 11.635,5.236 C 10.738,4.333 9.178,4.335 8.283,5.238 L 2.19,11.375 a 0.933,0.933 0 0 0 0,1.313 0.917,0.917 0 0 0 1.304,0 L 9.587,6.55 a 0.541,0.541 0 0 1 0.745,0 l 6.094,6.137 a 0.916,0.916 0 0 0 1.304,0 0.933,0.933 0 0 0 0,-1.313 z" id="path3197" style="fill:#000000;fill-opacity:1" />
    <path d="m 9.523,8.292 a 0.448,0.448 0 0 1 0.635,0 l 5.31,5.31 c 0.063,0.063 3.611,0 5.546,0 1.063,0 1.306,0.318 1.306,1.21 V 19.44 H 11.325 V 15.367 H 8.355 V 19.44 H 5.408 C 4.178,19.433 4.088,19.342 4.081,18.112 L 4.08,13.92 a 0.45,0.45 0 0 1 0.131,-0.317 z m 9.831,6.59 h -0.907 v 1.237 h -1.255 v 0.904 h 1.255 v 1.218 h 0.907 v -1.218 h 1.255 v -0.904 h -1.255 v -1.238 z" id="path3199" style="fill:#000000;fill-opacity:1" />
  </g>
  <g fill="#333f48" fill-rule="evenodd" id="g3911" transform="matrix(1.5625,0,0,0.98901099,889.50401,0.81030401)" style="fill:#000000;fill-opacity:1">
    <path d="m 10.56,19.44 v 3.36 a 0.24,0.24 0 0 1 -0.24,0.24 H 4.56 A 0.24,0.24 0 0 1 4.32,22.8 V 19.44 Z M 4.32,10.8 a 0.24,0.24 0 0 1 0.24,-0.24 h 5.76 a 0.24,0.24 0 0 1 0.24,0.24 v 8.16 H 4.32 Z" id="path3907" style="fill:#000000;fill-opacity:1" />
    <path d="m 19.2,1.2 a 0.48,0.48 0 0 1 0.48,0.48 V 22.56 A 0.48,0.48 0 0 1 19.2,23.04 H 17.04 V 17.76 A 0.48,0.48 0 0 0 16.646,17.288 L 16.56,17.28 h -2.88 a 0.48,0.48 0 0 0 -0.48,0.48 v 5.28 H 10.32 V 1.68 A 0.48,0.48 0 0 1 10.8,1.2 Z M 18.24,8.16 H 12 A 0.24,0.24 0 0 0 11.769,8.336 L 11.76,8.4 v 0.72 c 0,0.11 0.075,0.203 0.176,0.231 L 12,9.36 h 6.24 A 0.24,0.24 0 0 0 18.471,9.184 L 18.48,9.12 V 8.4 A 0.24,0.24 0 0 0 18.24,8.16 Z m 0,-1.92 H 12 A 0.24,0.24 0 0 0 11.769,6.416 L 11.76,6.48 V 7.2 c 0,0.11 0.075,0.203 0.176,0.231 L 12,7.44 h 6.24 A 0.24,0.24 0 0 0 18.471,7.264 L 18.48,7.2 V 6.48 A 0.24,0.24 0 0 0 18.24,6.24 Z m 0,-1.92 H 12 A 0.24,0.24 0 0 0 11.769,4.496 L 11.76,4.56 v 0.72 c 0,0.11 0.075,0.203 0.176,0.231 L 12,5.52 h 6.24 A 0.24,0.24 0 0 0 18.471,5.344 L 18.48,5.28 V 4.56 A 0.24,0.24 0 0 0 18.24,4.32 Z m 0,-1.92 H 12 A 0.24,0.24 0 0 0 11.769,2.576 L 11.76,2.64 v 0.72 c 0,0.11 0.075,0.203 0.176,0.231 L 12,3.6 h 6.24 A 0.24,0.24 0 0 0 18.471,3.424 L 18.48,3.36 V 2.64 A 0.24,0.24 0 0 0 18.24,2.4 Z" id="path3909" style="fill:#000000;fill-opacity:1" />
  </g>
</svg>
