<svg width="824" height="24" viewBox="0 0 824 24" fill="none" xmlns="http://www.w3.org/2000/svg">
<path d="M13.417 6.74H11.862C11.862 6.484 11.822 6.404 11.714 6.19C11.219 5.263 11.219 4.072 11.714 3.145C11.822 2.931 11.862 2.85 11.862 2.593C11.862 2.335 11.822 2.256 11.714 2.041C11.466 1.591 11.337 1.06 11.343 0.518997H12.899C12.899 0.775997 12.939 0.855997 13.045 1.07C13.193 1.366 13.417 1.813 13.417 2.593C13.423 3.134 13.293 3.665 13.045 4.116C12.938 4.331 12.899 4.411 12.899 4.668C12.899 4.924 12.939 5.004 13.045 5.218C13.293 5.668 13.423 6.2 13.417 6.741V6.74Z" fill="black"/>
<path d="M9.26898 6.74H7.71398C7.71398 6.484 7.67398 6.404 7.56598 6.19C7.31798 5.74 7.18898 5.209 7.19598 4.668C7.19598 3.888 7.41898 3.441 7.56598 3.145C7.67398 2.931 7.71398 2.85 7.71398 2.593C7.71398 2.335 7.67398 2.256 7.56598 2.041C7.31798 1.591 7.18898 1.06 7.19598 0.518997H8.74998C8.74998 0.775997 8.78998 0.855997 8.89698 1.07C9.04398 1.366 9.26698 1.813 9.26698 2.593C9.27398 3.134 9.14498 3.665 8.89698 4.116C8.78998 4.331 8.74998 4.411 8.74998 4.668C8.74998 4.924 8.78998 5.004 8.89698 5.218C9.04398 5.514 9.26698 5.961 9.26698 6.741L9.26898 6.74Z" fill="black"/>
<path fill-rule="evenodd" clip-rule="evenodd" d="M18.556 7.25999C22.706 7.25999 22.701 15.556 18.556 15.556V16.027C18.556 20.357 15.083 23.852 10.814 23.852C6.413 23.852 3 20.298 3 16.027V8.25999C3 7.70799 3.448 7.25999 4 7.25999H18.556ZM7.938 12.401C6.751 13.713 6.956 15.911 8.429 17.385C9.739 18.695 11.622 19.001 12.946 18.219C12.629 17.869 12.577 17.537 12.541 17.291C12.51 17.074 12.492 16.955 12.319 16.782C12.147 16.609 12.028 16.592 11.811 16.56C11.549 16.522 11.191 16.47 10.815 16.094C10.439 15.718 10.387 15.36 10.349 15.098C10.317 14.882 10.299 14.762 10.127 14.59C9.955 14.417 9.836 14.4 9.619 14.368C9.357 14.33 8.999 14.278 8.623 13.902C8.247 13.526 8.195 13.168 8.157 12.906C8.125 12.691 8.107 12.572 7.938 12.401ZM13.127 12.687C11.817 11.377 9.934 11.071 8.609 11.853C8.927 12.203 8.979 12.535 9.014 12.781C9.046 12.998 9.064 13.117 9.235 13.289C9.408 13.462 9.527 13.479 9.744 13.511C10.006 13.549 10.364 13.601 10.74 13.977C11.116 14.353 11.168 14.711 11.206 14.973C11.238 15.19 11.256 15.309 11.427 15.482C11.6 15.654 11.719 15.672 11.937 15.703C12.197 15.741 12.557 15.793 12.932 16.169C13.308 16.545 13.36 16.904 13.398 17.165C13.43 17.381 13.448 17.5 13.618 17.671C14.804 16.359 14.6 14.161 13.127 12.687ZM18.556 8.56099V14.251C19.663 14.251 20.548 13.118 20.548 11.724V11.088C20.548 9.69499 19.663 8.56099 18.556 8.56099Z" fill="black"/>
<path fill-rule="evenodd" clip-rule="evenodd" d="M46.1185 10.5255C45.9378 10.5255 45.7641 10.5963 45.6362 10.7227C45.5082 10.849 45.4364 11.0206 45.4364 11.199V24H29.0635V11.199C29.0635 11.0206 28.9918 10.849 28.8638 10.7227C28.7358 10.5963 28.5615 10.5255 28.3815 10.5255H26L37.25 0L48.5 10.5255H46.1185ZM40.9549 11.2207C40.4419 10.7018 39.7591 10.4158 39.034 10.4158C38.3712 10.4158 37.7444 10.6543 37.25 11.0915C36.755 10.6543 36.1289 10.4158 35.4661 10.4158C34.7403 10.4158 34.0582 10.7018 33.5452 11.2207C33.0329 11.7394 32.75 12.4292 32.75 13.1634C32.75 13.8968 33.0329 14.5873 33.5452 15.1061L37.1131 18.7157C37.1497 18.7524 37.1986 18.7729 37.25 18.7729C37.3014 18.7729 37.3503 18.7524 37.3863 18.7157L40.9542 15.1061C41.4678 14.5873 41.75 13.8975 41.75 13.1634C41.75 12.4292 41.4672 11.7394 40.9549 11.2207ZM34.1527 11.8185C34.4182 11.553 34.7718 11.407 35.1472 11.407L35.1479 11.4064C35.2437 11.4064 35.3215 11.3286 35.3215 11.2322C35.3215 11.1364 35.2437 11.0586 35.1479 11.0586C34.6785 11.0586 34.2382 11.2412 33.9071 11.5729C33.5755 11.904 33.3929 12.3443 33.3929 12.8136C33.3929 12.9094 33.4707 12.9872 33.5671 12.9872C33.6629 12.9872 33.7413 12.9094 33.7413 12.813C33.7413 12.4376 33.8872 12.084 34.1527 11.8185ZM35.5947 20.0587H39.259C39.7649 20.0587 40.175 20.4688 40.175 20.9747C40.175 21.4806 39.7649 21.8908 39.259 21.8908H35.5947C35.0887 21.8908 34.6785 21.4806 34.6785 20.9747C34.6785 20.4688 35.0887 20.0587 35.5947 20.0587Z" fill="black"/>
<path d="M73.679 7.069L62.279 1.069C62.104 0.977 61.896 0.977 61.721 1.069L50.321 7.069C50.123 7.172 50 7.377 50 7.599V10C50 10.21 50.11 10.405 50.29 10.514C50.47 10.622 50.693 10.629 50.879 10.531L62 4.678L73.121 10.53C73.307 10.628 73.531 10.621 73.711 10.513C73.89 10.404 74 10.209 74 9.999V7.6C74 7.377 73.877 7.173 73.679 7.07V7.069Z" fill="black"/>
<path d="M61.886 5.571L71.486 10.623V22.737C71.485 23.035 71.268 23.282 70.983 23.329L70.886 23.337H52.886C52.588 23.337 52.341 23.119 52.294 22.835L52.286 22.737V10.623L61.886 5.571ZM65.633 15.071L63.65 15.642C63.564 15.662 63.49 15.721 63.446 15.802C63.402 15.883 63.391 15.981 63.416 16.071C63.44 16.164 63.497 16.243 63.576 16.29C63.654 16.337 63.746 16.348 63.833 16.32L65.8 15.75C65.946 15.688 66.109 15.695 66.25 15.767C66.303 15.824 66.333 15.901 66.333 15.981C66.333 15.999 66.316 16.178 65.816 16.499L62.333 19.018C61.891 19.332 61.327 19.373 60.85 19.125L57.783 17.875H57V18.571H57.6L60.6 19.786C60.9 19.925 61.223 19.998 61.55 20C61.97 20.001 62.38 19.857 62.717 19.59L66.167 17.107C66.367 16.982 67 16.589 67 15.981C67.006 15.68 66.876 15.393 66.65 15.213C66.483 15.053 66.15 14.91 65.633 15.07V15.071ZM59.817 15.017H57V15.713H59.683L62 16.446C62.175 16.506 62.277 16.701 62.233 16.892C62.184 17.077 62.008 17.188 61.833 17.142L60.133 16.606C60.049 16.573 59.956 16.579 59.877 16.623C59.797 16.668 59.739 16.746 59.717 16.839C59.662 17.026 59.759 17.225 59.933 17.285L61.65 17.821C61.73 17.856 61.814 17.874 61.9 17.875C62.355 17.874 62.753 17.543 62.867 17.071C62.937 16.798 62.904 16.507 62.772 16.261C62.64 16.016 62.422 15.838 62.167 15.767L59.817 15.017ZM62.5 9.449C61.99 9.029 61.406 8.903 60.896 9.098C60.386 9.293 60 9.848 60 10.51C60 11.776 61.25 12.838 62.417 13.286H62.583C63.75 12.838 65 11.776 65 10.51C65 9.848 64.656 9.312 64.104 9.098C63.552 8.884 63.01 9.03 62.5 9.448V9.449Z" fill="black"/>
<path d="M87.2526 5.05289C90.043 5.05289 92.3051 7.33193 92.3051 10.1432V23.6147C92.3051 23.8276 92.134 24 91.9225 24H82.5827C82.3711 24 82.2 23.8276 82.2 23.6147V10.1432C82.2 7.33193 84.4623 5.05289 87.2526 5.05289Z" fill="black"/>
<path opacity="0.5" d="M91.6739 0.27311C91.62 0.498791 91.4906 0.697526 91.3081 0.835632C91.1241 0.9286 90.9868 0.787798 90.8042 0.694831C90.4384 0.694831 90.2545 0.787798 89.9796 0.787798C89.7048 0.787798 88.3096 0.933984 88.1944 0.946112V1.68042H88.7879C88.8148 1.68042 88.8357 1.70265 88.8364 1.7296V2.33726H89.3848C89.409 2.33658 89.4319 2.34602 89.4494 2.36353C89.4669 2.38104 89.4764 2.40462 89.4764 2.42955V4.95853C89.4764 5.0104 89.436 5.05285 89.3848 5.05285H85.4485C85.4242 5.05285 85.4013 5.04274 85.3838 5.02522C85.3669 5.00703 85.3569 4.98346 85.3582 4.95786V2.42887C85.3582 2.37767 85.3986 2.3359 85.4485 2.3359H86.0905V1.72893C86.0905 1.7013 86.1121 1.67907 86.1389 1.67907H86.6415V0.504854C86.6415 0.488686 86.6503 0.474539 86.6645 0.467129H86.6415C86.6415 0.467129 85.9093 0.467129 85.9093 0.374835V0.178795C85.9093 0.129617 85.9294 0.0824592 85.9638 0.0487754C85.9989 0.0150916 86.046 -0.00242402 86.0938 0.00027068C86.0938 0.00027068 87.0087 0.0945856 87.4661 0.0945856C87.9236 0.0945856 89.8469 0.00027068 90.1204 0.00027068H91.0366C91.0366 0.00027068 91.6733 0.178795 91.6733 0.27311H91.6739Z" fill="black"/>
<path opacity="0.5" d="M89.2702 9.47415H85.2348C84.2564 9.47415 83.4631 10.2674 83.4631 11.2459V20.3338C83.4631 21.3123 84.2564 22.1056 85.2348 22.1056H89.2702C90.2487 22.1056 91.042 21.3123 91.042 20.3338V11.2459C91.042 10.2674 90.2487 9.47415 89.2702 9.47415Z" fill="white"/>
<path d="M121.168 1.905C120.298 1.143 115.316 0 115.316 0C115.316 0.762 114.536 2.286 112 2.286C109.465 2.286 108.684 0.762 108.684 0C108.684 0 103.702 1.143 102.832 1.905C102.153 2.49975 100.636 6.1065 100 7.665L100.011 7.66875L103.924 9.93896L104.783 8.00024V23.619C104.783 23.829 104.958 24 105.173 24H118.827C119.042 24 119.217 23.8282 119.217 23.619V8.00024L120.075 9.93896L124 7.665C123.365 6.1065 121.848 2.49975 121.168 1.905Z" fill="black"/>
<path d="M137.5 7.25C138.95 7.25 140.125 6.07475 140.125 4.625C140.125 3.17525 138.95 2 137.5 2C136.05 2 134.875 3.17525 134.875 4.625C134.875 6.07475 136.05 7.25 137.5 7.25Z" fill="black"/>
<path d="M140.125 8.125C141.092 8.125 141.875 8.908 141.875 9.875V10.75H133.125V9.875C133.125 8.908 133.908 8.125 134.875 8.125H140.125Z" fill="black"/>
<path d="M131.375 19.5C132.825 19.5 134 18.3247 134 16.875C134 15.4253 132.825 14.25 131.375 14.25C129.925 14.25 128.75 15.4253 128.75 16.875C128.75 18.3247 129.925 19.5 131.375 19.5Z" fill="black"/>
<path d="M134 20.375C134.967 20.375 135.75 21.158 135.75 22.125V23H127V22.125C127 21.159 127.784 20.375 128.75 20.375H134ZM140.918 6.542C142.551 7.642 143.625 9.508 143.625 11.625C143.625 12.081 143.571 12.525 143.477 12.953C143.527 12.95 143.574 12.938 143.625 12.938C144.185 12.938 144.717 13.058 145.2 13.271C145.313 12.741 145.375 12.19 145.375 11.625C145.375 8.705 143.782 6.161 141.42 4.802C141.391 5.433 141.211 6.022 140.918 6.542ZM131.375 12.938C131.426 12.938 131.473 12.95 131.524 12.953C131.429 12.525 131.375 12.082 131.375 11.625C131.375 9.508 132.449 7.641 134.082 6.542C133.788 6.022 133.609 5.433 133.581 4.802C131.219 6.16 129.625 8.703 129.625 11.624C129.625 12.189 129.686 12.739 129.8 13.27C130.283 13.058 130.814 12.937 131.375 12.937V12.938ZM139.733 17.324C139.041 17.595 138.289 17.75 137.5 17.75C136.711 17.75 135.96 17.595 135.267 17.324C135.197 17.926 135.003 18.488 134.693 18.975C135.565 19.309 136.51 19.5 137.5 19.5C138.49 19.5 139.434 19.31 140.307 18.975C139.997 18.488 139.802 17.926 139.733 17.324Z" fill="black"/>
<path d="M143.625 19.5C145.075 19.5 146.25 18.3247 146.25 16.875C146.25 15.4253 145.075 14.25 143.625 14.25C142.175 14.25 141 15.4253 141 16.875C141 18.3247 142.175 19.5 143.625 19.5Z" fill="black"/>
<path d="M146.25 20.375C147.216 20.375 148 21.158 148 22.125V23H139.25V22.125C139.25 21.159 140.033 20.375 141 20.375H146.25Z" fill="black"/>
<g clip-path="url(#clip0)">
<path fill-rule="evenodd" clip-rule="evenodd" d="M173.292 2.55923C173.419 1.58336 172.254 1.11261 171.622 1.73314L163.6 10L168 14.4L168.354 13.9635C170.45 11.0131 172.717 6.95255 173.292 2.55923ZM167.587 12.2589C169.118 9.9823 170.602 7.2066 171.343 4.24619L165.389 10.0758L167.587 12.2589Z" fill="black"/>
<path fill-rule="evenodd" clip-rule="evenodd" d="M164.837 18.5998L160.047 13.6898L153.585 20.2778C152.739 21.1406 152.739 22.5344 153.585 23.397C154.439 24.2679 155.832 24.2679 156.687 23.3969L161.997 17.9829L162.632 18.6305L162.633 18.6311C163.245 19.2561 164.246 19.2381 164.837 18.5998ZM161.438 16.2681L160.61 15.4005L155.468 20.6427L154.727 21.3978C154.577 21.551 154.523 21.7671 154.563 21.966C154.586 22.0803 154.641 22.1889 154.727 22.2765C154.954 22.508 155.317 22.5081 155.544 22.2765L161.438 16.2681Z" fill="black"/>
<path fill-rule="evenodd" clip-rule="evenodd" d="M156.416 0L161.574 5.15921C162.667 6.25165 162.798 7.94232 161.969 9.17888L173.251 19.8617C174.232 20.7899 174.25 22.3438 173.297 23.2976C172.343 24.2517 170.789 24.2316 169.862 23.251L159.178 11.969C157.941 12.7983 156.251 12.6667 155.158 11.5742L150 6.4158L156.416 0ZM152.224 6.41579L156.271 10.462C156.898 11.0898 157.918 11.0898 158.546 10.462C158.933 10.0746 159.561 10.0849 159.936 10.4813C159.936 10.4818 159.936 10.4822 159.937 10.4827L171.004 22.1697C171.322 22.506 171.856 22.5141 172.185 22.1853C172.514 21.8562 172.506 21.322 172.17 21.0042L160.474 9.92931C160.094 9.56036 160.071 8.93769 160.462 8.54674C161.089 7.91898 161.09 6.89925 160.462 6.27147L156.416 2.22457L155.76 2.88032L159.238 6.35731L158.125 7.46965L154.648 3.99255L153.992 4.64776L157.47 8.12549L156.357 9.23763L152.88 5.76L152.224 6.41579Z" fill="black"/>
</g>
<path d="M199 11L195.676 22.3417C195.52 22.949 194.712 22.9979 194.514 23H179.531C178.997 23 178.304 22.3781 178.304 22.3781L175 11H199ZM190.037 13H184C185.006 14.0073 186.012 14.5115 187.019 14.5115C188.566 14.5115 190.037 13 190.037 13Z" fill="black"/>
<mask id="mask0" mask-type="alpha" maskUnits="userSpaceOnUse" x="175" y="1" width="24" height="10">
<path d="M175 1H199V11H175V1Z" fill="white"/>
</mask>
<g mask="url(#mask0)">
<path d="M187.5 2.46666C185.568 2.46666 184 5.37604 184 8.96562C184 12.5552 185.568 15.4656 187.5 15.4656C189.432 15.4656 191 12.5552 191 8.96562C191 5.37604 189.432 2.46562 187.5 2.46562V2.46666ZM189.37 5.18541C188.746 5.18541 186.933 4.675 186.158 3.675C186.158 3.675 188.238 3.78229 189.37 5.18541ZM190.03 7.27083C189.406 7.27083 186.329 6.07812 185.554 5.07812C185.554 5.07812 188.898 5.86771 190.03 7.27083ZM185.763 13.3448C185.763 13.3448 187.61 13.5271 188.318 14.4781C187.929 14.4781 186.246 14.024 185.763 13.3448ZM185.158 11.7083C185.158 11.7083 187.88 11.9427 188.922 13.3448C188.349 13.3448 185.87 12.7073 185.158 11.7083ZM185.158 10.1646C185.158 10.1646 188.238 10.5323 189.37 11.9354C188.746 11.9354 185.932 11.1646 185.158 10.1646ZM185.158 8.62187C185.158 8.62187 188.238 8.98958 189.37 10.3927C188.746 10.3927 185.932 9.62083 185.158 8.62187ZM185.252 6.76146C185.252 6.76146 188.596 7.55104 189.728 8.95416C189.104 8.95416 186.027 7.76146 185.252 6.76146Z" fill="black"/>
<path d="M179.715 9.43854V13.9229H183.229V9.43854H179.715ZM181.468 13.3344C180.834 13.3344 180.315 12.7969 180.315 12.1406C180.315 11.4844 180.826 10.9469 181.468 10.9469H181.483C181.346 10.5302 181.061 10.1969 181.061 10.1885L181.176 10.0865C181.183 10.1031 181.322 10.2656 181.459 10.5031C181.524 10.376 181.744 10.274 182.003 10.2656C182.32 10.2562 182.588 10.3844 182.588 10.5469C182.596 10.7167 182.336 10.8625 182.02 10.8792C181.849 10.8875 181.695 10.8531 181.59 10.7937C181.614 10.8458 181.63 10.9042 181.646 10.9562C182.198 11.0406 182.613 11.5437 182.613 12.1406C182.613 12.8062 182.101 13.3344 181.467 13.3344H181.468ZM183.238 6.51458H179.698L179.008 7.23021H184L183.238 6.51458ZM183.238 5.46562L179.706 5.47396L179.698 6.21562H183.229V5.46562H183.238V5.46562ZM179 7.54583V15.4656H184V7.54583H179ZM183.521 14.2292H179.414V9.13229H183.521V14.2302V14.2292ZM179.715 9.4375V13.924H183.229V9.43854H179.715V9.4375Z" fill="black"/>
<path d="M192.824 13.3344C191.446 13.3344 190.316 12.176 190.316 10.7615C190.316 9.34688 191.428 8.18959 192.824 8.18959H192.859C192.559 7.28959 191.941 6.57292 191.941 6.55417L192.189 6.33438C192.206 6.37084 192.506 6.7198 192.806 7.23438C192.948 6.95834 193.425 6.73855 193.991 6.7198C194.679 6.70105 195.261 6.97709 195.261 7.32605C195.28 7.69376 194.715 8.00626 194.026 8.04271C193.654 8.06042 193.319 7.98751 193.089 7.85834C193.143 7.96876 193.177 8.09792 193.214 8.20834C194.415 8.39167 195.316 9.47605 195.316 10.7615C195.316 12.1948 194.202 13.3344 192.824 13.3344Z" fill="black"/>
</g>
<path d="M215.619 6.83928H208C207.695 6.83928 207.428 6.5726 207.428 6.26784V2.6488C207.428 1.81072 208.114 1.125 208.952 1.125H214.667C215.505 1.125 216.19 1.81072 216.19 2.6488V6.26784C216.19 6.5726 215.924 6.83928 215.619 6.83928ZM208.952 5.31548H214.667V3.02976C214.667 2.8012 214.514 2.6488 214.286 2.6488H209.333C209.105 2.6488 208.952 2.8012 208.952 3.02976V5.31548Z" fill="black"/>
<path d="M201.905 23.6012H203.048C201.981 23.6012 201.143 22.7631 201.143 21.6964V7.22024C201.143 6.15356 201.981 5.31548 203.048 5.31548H201.905C200.838 5.31548 200 6.15356 200 7.22024V21.6964C200 22.7631 200.838 23.6012 201.905 23.6012ZM222.095 5.31548H220.952C222.019 5.31548 222.857 6.15356 222.857 7.22024V21.6964C222.857 22.7631 222.019 23.6012 220.952 23.6012H222.095C223.162 23.6012 224 22.7631 224 21.6964V7.22024C224 6.15356 223.162 5.31548 222.095 5.31548Z" fill="black"/>
<path fill-rule="evenodd" clip-rule="evenodd" d="M222.095 23.6012H201.905C200.838 23.6012 200 22.7631 200 21.6964V7.22024C200 6.15356 200.838 5.31548 201.905 5.31548H222.095C223.162 5.31548 224 6.15356 224 7.22024V21.6964C224 22.7631 223.162 23.6012 222.095 23.6012ZM208.87 18.4187C209.395 18.4187 209.801 18.3494 210.504 18.1513C210.99 18.0127 211.208 17.973 211.673 17.9334C211.653 17.6164 211.644 17.458 211.644 16.943V16.101C211.644 15.5167 211.673 15.3284 211.792 15.2195C211.901 15.1106 212.06 15.071 212.416 15.061V14.8035H209.494V15.061C210.279 15.0892 210.396 15.1723 210.404 15.8854L210.405 17.6858C210.267 17.8145 210.187 17.8641 209.999 17.9334C209.672 18.0721 209.326 18.1414 209.028 18.1414C208.533 18.1414 208.088 17.9631 207.771 17.6462C207.196 17.0518 206.85 15.8732 206.85 14.4964C206.85 13.5456 207.008 12.7334 207.315 12.0896C207.662 11.3666 208.266 10.9802 209.038 10.9802C209.692 10.9802 210.267 11.2774 210.653 11.8222C210.91 12.1787 211.049 12.575 211.148 13.1692L211.515 13.1593V10.8614C211.267 10.9604 211.118 10.9902 210.93 10.9902C210.782 10.9902 210.633 10.9703 210.484 10.9307C209.702 10.7426 209.464 10.703 208.959 10.703C206.81 10.703 205.423 12.258 205.423 14.6846C205.423 17.032 206.711 18.4187 208.87 18.4187ZM216.071 18.0027V18.2602H212.941V18.0027C213.753 17.973 213.832 17.8839 213.832 16.9826V12.1391C213.832 11.2378 213.753 11.1487 212.98 11.109V10.8515H215.962C217.982 10.8515 218.864 11.4755 218.864 12.9117C218.864 13.922 218.448 14.5658 217.596 14.8827C217.16 15.0412 216.437 15.1402 215.605 15.1402H215.12V16.9826C215.12 17.8839 215.209 17.973 216.071 18.0027ZM215.635 14.853H215.12V11.1387H215.754C216.903 11.1387 217.487 11.7528 217.487 12.9711C217.487 13.6149 217.319 14.1399 217.002 14.447C216.715 14.7143 216.249 14.853 215.635 14.853Z" fill="black"/>
<g clip-path="url(#clip1)">
<path opacity="0.719" fill-rule="evenodd" clip-rule="evenodd" d="M247.66 7.74891C248.516 8.58224 249 9.7369 249 10.9449C248.999 12.2822 248.4 13.5449 247.375 14.3769C246.324 15.2249 245.463 16.2902 244.844 17.5035L244.773 17.6475C244.753 17.6822 244.719 17.7035 244.68 17.7035C244.643 17.7035 244.607 17.6822 244.589 17.6475L244.465 17.3942C243.849 16.2222 243.001 15.1942 241.975 14.3769C240.871 13.4742 240.271 12.0769 240.371 10.6369C240.503 8.54224 242.411 6.63691 244.467 6.53558C245.649 6.47691 246.803 6.91558 247.66 7.74891ZM247.127 11.6953C247.433 10.2864 246.586 8.90613 245.235 8.61247C243.883 8.31881 242.54 9.22293 242.233 10.6319C241.927 12.0408 242.775 13.4211 244.126 13.7147C245.477 14.0084 246.821 13.1043 247.127 11.6953Z" fill="black"/>
<path opacity="0.719" fill-rule="evenodd" clip-rule="evenodd" d="M232.3 7.74894C233.156 8.58227 233.64 9.73693 233.64 10.9449C233.639 12.2822 233.04 13.545 232.015 14.3769C230.964 15.2249 230.103 16.2902 229.484 17.5036L229.413 17.6476C229.393 17.6822 229.359 17.7036 229.32 17.7036C229.283 17.7036 229.247 17.6822 229.229 17.6476L229.105 17.3942C228.489 16.2222 227.641 15.1943 226.615 14.3769C225.511 13.4743 224.911 12.0769 225.011 10.6369C225.143 8.54227 227.051 6.63694 229.107 6.53561C230.289 6.47694 231.443 6.91561 232.3 7.74894ZM231.767 11.6953C232.073 10.2864 231.226 8.90616 229.875 8.6125C228.523 8.31884 227.18 9.22296 226.874 10.6319C226.567 12.0409 227.415 13.4211 228.766 13.7147C230.117 14.0084 231.461 13.1043 231.767 11.6953Z" fill="black"/>
<path fill-rule="evenodd" clip-rule="evenodd" d="M241.968 5.76626C243.259 6.97426 243.988 8.65026 243.987 10.4009C243.985 12.3396 243.083 14.1729 241.539 15.3809C239.956 16.6102 238.659 18.1556 237.725 19.9142L237.619 20.1236C237.591 20.1729 237.537 20.2036 237.48 20.2036C237.421 20.2036 237.368 20.1729 237.341 20.1236L237.155 19.7569C236.229 18.0569 234.949 16.5662 233.403 15.3796C231.741 14.0716 230.839 12.0449 230.988 9.95825C231.187 6.91693 234.06 4.15427 237.159 4.0076C238.94 3.92227 240.677 4.55827 241.968 5.76626ZM241.277 11.2323C241.725 9.17002 240.389 7.12891 238.293 6.67341C236.197 6.21791 234.134 7.5205 233.686 9.58283C233.238 11.6452 234.574 13.6863 236.67 14.1418C238.766 14.5973 240.829 13.2947 241.277 11.2323Z" fill="black"/>
</g>
<path d="M260 15H264.8V22.636H260V15Z" fill="black"/>
<path d="M268.8 2C269.131 2 269.4 2.247 269.4 2.553V23H265.8V14.71C265.8 14.405 265.531 14.158 265.2 14.158H259.2C258.869 14.158 258.6 14.405 258.6 14.711V23H255V2.553C255 2.247 255.269 2 255.6 2H268.8ZM261.87 4.333H259.178V4.577C259.871 4.605 259.942 4.698 259.942 5.541V10.117C259.942 10.977 259.872 11.062 259.142 11.09V11.333H261.905V11.09C261.193 11.063 261.103 10.983 261.097 10.203V7.768H264.046V10.117C264.046 10.977 263.975 11.062 263.238 11.09V11.333H266V11.09C265.297 11.063 265.206 10.983 265.2 10.203V5.54C265.2 4.697 265.272 4.604 265.973 4.576V4.332H263.273V4.576C263.933 4.602 264.035 4.686 264.045 5.399V7.458H261.097V5.541C261.097 4.698 261.168 4.605 261.87 4.577V4.333Z" fill="black"/>
<path fill-rule="evenodd" clip-rule="evenodd" d="M250.4 10.59H253.44C253.66 10.59 253.84 10.77 253.84 10.99V23H250V10.99C250 10.77 250.18 10.59 250.4 10.59ZM270.56 10.59H273.6C273.82 10.59 274 10.77 274 10.99V23H270.16V10.99C270.16 10.77 270.34 10.59 270.56 10.59Z" fill="black"/>
<path d="M288.258 19.8206C288.446 19.9753 288.545 20.213 288.521 20.4551V22.0449L288.032 22.0085L287.908 21.6949C287.82 21.8159 287.706 21.9137 287.573 21.9793C287.429 22.0398 287.275 22.0668 287.12 22.0595C286.924 22.0704 286.732 21.9968 286.593 21.8575C286.454 21.719 286.38 21.5264 286.391 21.3302C286.376 21.1085 286.479 20.8956 286.661 20.7687C286.904 20.6273 287.181 20.5572 287.463 20.5645H287.879V20.4551C287.891 20.3537 287.855 20.2524 287.783 20.1809C287.71 20.1095 287.607 20.0759 287.507 20.0905C287.271 20.1014 287.04 20.1612 286.829 20.2655L286.617 19.828C286.898 19.6807 287.212 19.6055 287.529 19.6092C287.789 19.5946 288.047 19.669 288.258 19.8206ZM294.1 18.7195V22.0376H293.603L293.494 21.6949C293.35 21.9407 293.077 22.0799 292.794 22.0522C292.532 22.0624 292.281 21.9392 292.13 21.7241C291.953 21.4571 291.868 21.1392 291.89 20.8198C291.872 20.4982 291.955 20.1788 292.13 19.9082C292.289 19.6938 292.542 19.5713 292.809 19.58C293.053 19.5683 293.286 19.6719 293.44 19.8572L293.494 19.9301C293.465 19.7711 293.447 19.6099 293.443 19.4487V18.7195H294.1ZM284.371 19.8644C284.564 20.0854 284.663 20.3735 284.648 20.6666V20.9656H283.109C283.109 21.1253 283.169 21.2792 283.277 21.3959C283.391 21.5089 283.547 21.5672 283.708 21.5563C283.844 21.5563 283.982 21.5417 284.116 21.5126C284.254 21.4775 284.388 21.4287 284.517 21.3667V21.8699C284.402 21.9282 284.279 21.9727 284.152 22.0012C283.996 22.031 283.837 22.0478 283.678 22.0522C283.347 22.0727 283.022 21.9603 282.774 21.7386C282.547 21.4951 282.43 21.1669 282.453 20.8343C282.429 20.4989 282.536 20.1663 282.752 19.9082C282.967 19.6814 283.271 19.5611 283.583 19.58C283.874 19.5632 284.158 19.6661 284.371 19.8644ZM282.161 19.58L282.11 20.2364C281.875 20.1809 281.627 20.2313 281.432 20.3749C281.311 20.4931 281.247 20.6579 281.257 20.8271V22.0376H280.608V19.6238H281.104L281.199 20.0249C281.288 19.8863 281.415 19.7755 281.563 19.704C281.676 19.6281 281.807 19.5851 281.943 19.58H282.161ZM285.859 18.6903L285.83 22.0085H285.21V18.6903H285.859ZM291.146 19.8061C291.303 19.9841 291.382 20.2181 291.365 20.4551V22.0085H290.708V20.6156C290.718 20.4806 290.687 20.3465 290.621 20.2291C290.552 20.1386 290.442 20.0891 290.329 20.0978C290.175 20.0861 290.026 20.1554 289.935 20.2801C289.836 20.4653 289.793 20.6761 289.811 20.8854V22.0085H289.162V19.6238H289.658L289.746 19.9301H289.782C289.852 19.8134 289.957 19.7222 290.081 19.6676C290.219 19.6063 290.369 19.5764 290.519 19.58C290.751 19.5611 290.979 19.6435 291.146 19.8061ZM279.872 18.8872V22.0085H279.208V18.8872H279.872ZM287.842 20.9072H287.587C287.439 20.9015 287.293 20.9364 287.164 21.0094C287.069 21.0721 287.017 21.1808 287.025 21.2938C287.025 21.4761 287.135 21.5709 287.339 21.5709C287.473 21.5782 287.605 21.5308 287.704 21.4397C287.798 21.3506 287.848 21.226 287.842 21.0969V20.9072ZM293.006 20.1051C292.868 20.1044 292.74 20.1766 292.67 20.2947C292.579 20.4566 292.536 20.6411 292.546 20.8271C292.534 21.013 292.577 21.1982 292.67 21.3594C292.748 21.4746 292.882 21.541 293.02 21.5345C293.158 21.5447 293.292 21.4907 293.385 21.3886C293.48 21.2413 293.526 21.0677 293.516 20.8927V20.8271C293.531 20.6338 293.488 20.4405 293.392 20.2728C293.299 20.1561 293.154 20.0927 293.006 20.1051ZM283.583 20.0395C283.462 20.0315 283.343 20.0795 283.262 20.1707C283.176 20.2757 283.128 20.407 283.124 20.5427H284.043C284.045 20.407 283.999 20.275 283.912 20.1707C283.826 20.081 283.708 20.0329 283.583 20.0395ZM291.547 14.6138C291.744 14.8325 291.844 15.122 291.824 15.416V15.7295H290.315C290.314 15.8892 290.374 16.0431 290.482 16.1598C290.596 16.2721 290.753 16.3304 290.912 16.3202C291.05 16.3202 291.187 16.3056 291.321 16.2764C291.46 16.2415 291.594 16.1926 291.722 16.1306V16.6338C291.607 16.6922 291.484 16.7366 291.357 16.7651C291.191 16.7921 291.023 16.8037 290.854 16.8015C290.52 16.8387 290.188 16.7228 289.95 16.4858C289.712 16.2495 289.594 15.917 289.629 15.5837C289.605 15.2482 289.712 14.9156 289.928 14.6575C290.38 14.2374 291.073 14.2185 291.547 14.6138ZM285.72 13.8626V14.4023H286.391V14.8909H285.72V16.0431C285.712 16.1204 285.741 16.1963 285.8 16.2473C285.861 16.2838 285.935 16.2962 286.004 16.2838C286.143 16.2801 286.281 16.2553 286.413 16.2108V16.6922C286.223 16.7702 286.019 16.8074 285.815 16.8015C285.606 16.8212 285.398 16.749 285.246 16.6046C285.115 16.4369 285.05 16.2269 285.064 16.0139V14.8617H284.757V14.5846L285.115 14.3658L285.305 13.8626H285.72ZM281.323 14.3294C281.534 14.3264 281.741 14.3768 281.928 14.4752C282.101 14.5773 282.24 14.726 282.329 14.9054C282.428 15.1097 282.478 15.335 282.475 15.5618C282.492 15.8951 282.38 16.2218 282.161 16.4734C281.937 16.7002 281.627 16.8197 281.308 16.8015C281.097 16.8052 280.889 16.7549 280.703 16.6557C280.526 16.5536 280.384 16.4012 280.294 16.2181C280.198 16.0132 280.151 15.7879 280.156 15.5618C280.137 15.23 280.246 14.9033 280.462 14.6502C280.691 14.4271 281.003 14.3104 281.323 14.3294ZM284.561 14.3294L284.517 14.9419C284.451 14.9332 284.385 14.9332 284.32 14.9419C284.145 14.9361 283.975 14.993 283.839 15.1023C283.718 15.2205 283.653 15.3853 283.664 15.5545V16.7651H283.022V14.4023H283.518L283.613 14.8034H283.649C283.718 14.6721 283.822 14.5613 283.948 14.4825C284.061 14.3935 284.198 14.3402 284.342 14.3294H284.561ZM296.331 14.5846C296.488 14.7625 296.567 14.9966 296.55 15.2336V16.7578H295.901V15.3649C295.908 15.2292 295.875 15.095 295.806 14.9784C295.738 14.8872 295.628 14.8376 295.514 14.8471C295.36 14.8355 295.211 14.9047 295.12 15.0294C295.021 15.2147 294.978 15.4254 294.997 15.6347V16.7578H294.347V14.4023H294.843L294.931 14.7086H294.967C295.037 14.5919 295.142 14.5007 295.266 14.446C295.404 14.3848 295.553 14.3549 295.704 14.3585C295.935 14.3396 296.165 14.4219 296.331 14.5846ZM277.632 13.673L278.989 16.0139V13.673H279.587L279.565 16.7578H278.726L277.363 14.4023V16.7578H276.794V13.673H277.632ZM287.55 13.4396V14.6794C287.695 14.4387 287.964 14.3031 288.244 14.3294C288.48 14.3104 288.713 14.3928 288.885 14.5554C289.041 14.7341 289.12 14.9675 289.104 15.2045V16.7578H288.447V15.3649C288.447 15.0221 288.324 14.8471 288.068 14.8471C287.911 14.8361 287.758 14.9076 287.667 15.0367C287.574 15.2219 287.534 15.4283 287.55 15.6347V16.7578H286.894V13.4396H287.55ZM293.91 14.3294L293.859 14.9419C293.623 14.8865 293.375 14.9368 293.18 15.0805C293.059 15.1986 292.995 15.3634 293.006 15.5326V16.7432H292.356V14.4023H292.852L292.947 14.8034C293.019 14.6735 293.122 14.5627 293.246 14.4825C293.374 14.384 293.531 14.3294 293.691 14.3294H293.91ZM281.396 14.8544H281.323C281.177 14.8412 281.034 14.9084 280.951 15.0294C280.86 15.1913 280.82 15.3766 280.834 15.5618C280.821 15.7492 280.862 15.9359 280.951 16.1015C281.037 16.2239 281.18 16.2932 281.33 16.2838C281.478 16.2947 281.62 16.2254 281.702 16.1015C281.791 15.9359 281.832 15.7492 281.819 15.5618C281.832 15.3766 281.792 15.192 281.702 15.0294C281.63 14.9273 281.518 14.8639 281.396 14.8544ZM290.759 14.7887C290.637 14.7807 290.519 14.8289 290.438 14.9201C290.353 15.0251 290.303 15.1563 290.3 15.292H291.219C291.221 15.1563 291.174 15.0243 291.087 14.9201C291.002 14.8304 290.883 14.7822 290.759 14.7887ZM296.25 2.0048C297.206 2.01358 298.147 2.24038 299 2.66844L298.336 4.28012C297.992 4.11602 297.639 3.96943 297.279 3.84257C296.949 3.72587 296.601 3.66388 296.25 3.66024C295.568 3.63107 294.916 3.94539 294.515 4.49889C294.069 5.19752 293.854 6.01941 293.903 6.84711C293.903 8.94227 294.685 9.98807 296.25 9.98297C297.069 9.95379 297.878 9.78819 298.643 9.49434V11.157C297.826 11.4874 296.95 11.6515 296.068 11.6384C294.893 11.7142 293.745 11.2592 292.94 10.3986C292.157 9.38424 291.773 8.11824 291.86 6.83983C291.84 5.95742 292.019 5.08232 292.386 4.28012C292.715 3.57564 293.248 2.98566 293.917 2.58823C294.629 2.18859 295.434 1.98658 296.25 2.0048ZM287.747 2.0048C288.217 2.00192 288.685 2.06098 289.141 2.17986C289.617 2.30672 290.082 2.47007 290.533 2.66844L289.892 4.19259C289.487 4.02486 289.073 3.88119 288.652 3.76235C288.335 3.68432 288.009 3.64566 287.682 3.64566C287.373 3.62379 287.066 3.71859 286.821 3.90819C286.619 4.07739 286.505 4.33044 286.515 4.59369C286.519 4.76361 286.572 4.92842 286.668 5.06773C286.77 5.21867 286.901 5.34774 287.055 5.44693C287.237 5.56363 287.653 5.78241 288.316 6.10326C289 6.38548 289.615 6.81358 290.118 7.35759C290.438 7.80977 290.6 8.35667 290.577 8.91092C290.61 9.68612 290.268 10.4292 289.658 10.9091C288.922 11.4371 288.025 11.6945 287.12 11.6384C286.209 11.6529 285.307 11.4604 284.48 11.0768V9.23177C285.001 9.46734 285.536 9.66497 286.085 9.82247C286.476 9.93264 286.881 9.99167 287.288 9.99752C287.641 10.0208 287.993 9.93482 288.294 9.74957C288.525 9.57969 288.656 9.30617 288.644 9.02034C288.648 8.84387 288.592 8.67174 288.484 8.53172C288.362 8.36469 288.208 8.22399 288.032 8.11599C287.641 7.88049 287.237 7.66899 286.821 7.48157C286.359 7.27809 285.925 7.01631 285.53 6.70127C285.251 6.45913 285.018 6.16746 284.845 5.84072C284.67 5.48267 284.582 5.08742 284.59 4.68849C284.551 3.94393 284.858 3.22269 285.421 2.73407C286.084 2.21923 286.91 1.96104 287.747 2.0048ZM276.984 2.13609V5.78241H280.695V2.13609H282.679V11.4852H280.695V7.46702H276.984V11.4852H275V2.13609H276.984Z" fill="black"/>
<path d="M323.679 7.069L312.279 1.069C312.104 0.977 311.896 0.977 311.721 1.069L300.321 7.069C300.123 7.172 300 7.377 300 7.599V10C300 10.21 300.11 10.405 300.29 10.514C300.47 10.622 300.693 10.629 300.879 10.531L312 4.678L323.121 10.53C323.307 10.628 323.531 10.621 323.711 10.513C323.89 10.404 324 10.21 324 10V7.6C324 7.377 323.877 7.172 323.679 7.069Z" fill="black"/>
<path d="M311.886 5.57101L321.486 10.623V22.737C321.485 23.068 321.216 23.337 320.886 23.337H302.886C302.555 23.337 302.286 23.068 302.286 22.737V10.623L311.886 5.57101ZM314.109 11.286L312.204 14.58C312.144 14.582 312.078 14.584 312.006 14.584H311.895L310.049 11.391L309.939 12.501L309.303 11.801L309.195 12.764L308.642 12.368V12.993L308.418 12.857C308.24 12.748 308.012 12.876 308.012 13.085V17.577C308.012 17.66 308.051 17.738 308.117 17.789L310.977 19.979V14.413L308.853 13.121V12.779L311.25 14.492C311.182 14.469 311.154 14.452 311.154 14.452V19.979C311.154 19.979 311.305 20.113 312.006 20.113C312.707 20.113 312.858 19.979 312.858 19.979V14.451C312.858 14.451 312.831 14.469 312.761 14.493L315.305 12.673V13.025L313.022 14.413V19.979L315.883 17.789C315.949 17.739 315.988 17.66 315.988 17.577V13.085C315.988 12.875 315.76 12.748 315.581 12.857L315.517 12.896V12.262L314.963 12.658L314.856 11.695L314.22 12.395L314.11 11.285L314.109 11.286Z" fill="black"/>
<path fill-rule="evenodd" clip-rule="evenodd" d="M336.657 1.00643C336.747 0.971182 336.846 0.971183 336.936 1.00644L347.276 5.06871C347.422 5.12611 347.519 5.2671 347.519 5.42409V8.3785C347.519 8.58938 347.348 8.76032 347.137 8.76032H326.456C326.245 8.76032 326.074 8.58938 326.074 8.3785V5.42409C326.074 5.2671 326.17 5.12611 326.316 5.06871L336.657 1.00643Z" fill="black"/>
<path fill-rule="evenodd" clip-rule="evenodd" d="M328.234 17.6701C328.234 17.4979 328.374 17.3584 328.546 17.3584H345.061C345.233 17.3584 345.373 17.4979 345.373 17.6701V18.9685H346.797C346.969 18.9685 347.109 19.1081 347.109 19.2802V20.6525H348.488C348.66 20.6525 348.8 20.7921 348.8 20.9642V22.6556C348.8 22.8277 348.66 22.9673 348.488 22.9673H325.112C324.94 22.9673 324.8 22.8277 324.8 22.6556V20.9642C324.8 20.7921 324.94 20.6525 325.112 20.6525H326.491V19.2802C326.491 19.1081 326.631 18.9685 326.803 18.9685H328.234V17.6701Z" fill="black"/>
<path fill-rule="evenodd" clip-rule="evenodd" d="M328.334 9.3313C328.334 9.15701 328.475 9.01572 328.65 9.01572H331.951C332.125 9.01572 332.267 9.15701 332.267 9.3313V9.73751C332.267 9.9118 332.125 10.0531 331.951 10.0531H331.523L331.72 16.7079C331.723 16.7932 331.691 16.8759 331.631 16.9371C331.572 16.9983 331.49 17.0328 331.405 17.0328H329.189C329.103 17.0328 329.021 16.9981 328.962 16.9365C328.902 16.8749 328.87 16.7918 328.873 16.7062L329.106 10.0531H328.65C328.475 10.0531 328.334 9.9118 328.334 9.73751V9.3313ZM332.662 9.3313C332.662 9.15701 332.804 9.01572 332.978 9.01572H336.287C336.461 9.01572 336.602 9.15701 336.602 9.3313V9.73751C336.602 9.9118 336.461 10.0531 336.287 10.0531H335.851L336.056 16.7076C336.058 16.7929 336.026 16.8757 335.967 16.937C335.907 16.9983 335.826 17.0328 335.74 17.0328H333.524C333.439 17.0328 333.357 16.9981 333.297 16.9365C333.238 16.8749 333.206 16.7918 333.209 16.7062L333.441 10.0531H332.978C332.804 10.0531 332.662 9.9118 332.662 9.73751V9.3313ZM336.998 9.3313C336.998 9.15701 337.139 9.01572 337.314 9.01572H340.615C340.789 9.01572 340.93 9.15701 340.93 9.3313V9.73751C340.93 9.9118 340.789 10.0531 340.615 10.0531H340.187L340.391 16.7076C340.394 16.7929 340.362 16.8757 340.302 16.937C340.243 16.9983 340.161 17.0328 340.076 17.0328H337.86C337.774 17.0328 337.692 16.9981 337.633 16.9366C337.573 16.8751 337.541 16.7921 337.544 16.7066L337.77 10.0531H337.314C337.139 10.0531 336.998 9.9118 336.998 9.73751V9.3313ZM341.326 9.3313C341.326 9.15701 341.467 9.01572 341.642 9.01572H344.95C345.125 9.01572 345.266 9.15701 345.266 9.3313V9.73751C345.266 9.9118 345.125 10.0531 344.95 10.0531H344.522L344.719 16.7079C344.722 16.7932 344.69 16.8759 344.63 16.9371C344.571 16.9983 344.489 17.0328 344.404 17.0328H342.188C342.102 17.0328 342.02 16.9981 341.961 16.9365C341.901 16.8749 341.87 16.7918 341.873 16.7062L342.105 10.0531H341.642C341.467 10.0531 341.326 9.9118 341.326 9.73751V9.3313Z" fill="black"/>
<path fill-rule="evenodd" clip-rule="evenodd" d="M353 0H371C372.657 0 374 1.34314 374 3V21C374 22.6569 372.657 24 371 24H353C351.343 24 350 22.6569 350 21V3C350 1.34314 351.343 0 353 0ZM357.778 10.1438V15.594H357.057L352.708 9.3735V13.683C352.708 14.97 352.884 15.243 353.722 15.2918V15.555H351.275V15.2918C352.104 15.2528 352.309 14.931 352.309 13.605V9.73427C352.309 8.77877 352.143 8.574 351.363 8.5155V8.262H353.401L357.379 13.878V10.212C357.379 9.48077 357.33 9.12 357.193 8.89577C357.047 8.64227 356.842 8.5545 356.345 8.52527V8.262H358.812V8.52527C358.344 8.54477 358.139 8.64227 357.983 8.89577C357.837 9.12977 357.778 9.51977 357.778 10.1438ZM362.293 15.555V15.3015C361.483 15.2723 361.405 15.1845 361.405 14.2875V11.8403H364.642V14.2875C364.642 15.1845 364.564 15.2723 363.755 15.3015V15.555H366.787V15.3015C366.022 15.2738 365.917 15.192 365.91 14.4V9.51977C365.91 8.64227 365.988 8.54477 366.758 8.5155V8.262H363.794V8.5155C364.564 8.54477 364.642 8.64227 364.642 9.51977V11.5185H361.405V9.51977C361.405 8.64227 361.483 8.54477 362.254 8.5155V8.262H359.299V8.5155C360.06 8.54477 360.138 8.64227 360.138 9.51977V14.2875C360.138 15.1845 360.06 15.2723 359.26 15.3015V15.555H362.293ZM371.731 15.1455C371.272 15.5063 370.658 15.7013 369.946 15.7013C369.556 15.7013 369.322 15.672 368.63 15.5355C368.513 15.516 368.386 15.5063 368.26 15.5063C368.094 15.5063 367.967 15.5258 367.616 15.594L367.694 13.2638H368.084C368.221 14.7263 368.806 15.4185 369.898 15.4185C370.756 15.4185 371.272 14.9115 371.272 14.073C371.272 13.41 370.892 13.0103 369.673 12.4155C368.845 12.0158 368.62 11.889 368.396 11.7233C367.84 11.3138 367.597 10.8458 367.597 10.173C367.597 9.3735 368.035 8.68127 368.747 8.34977C369.079 8.19377 369.469 8.1255 369.995 8.1255C370.317 8.1255 370.453 8.145 371.185 8.29127C371.321 8.3205 371.428 8.33027 371.526 8.33027C371.682 8.33027 371.818 8.301 372.111 8.19377L372.033 10.3778H371.643C371.604 9.822 371.516 9.4905 371.311 9.159C371.019 8.66177 370.541 8.38877 369.966 8.38877C369.215 8.38877 368.698 8.9055 368.698 9.65627C368.698 9.978 368.806 10.2608 369.02 10.4753C369.264 10.7093 369.508 10.8555 370.288 11.226C371.155 11.6258 371.575 11.889 371.906 12.2205C372.238 12.5618 372.413 13.0103 372.413 13.5758C372.413 14.2388 372.169 14.8043 371.731 15.1455Z" fill="black"/>
<path d="M378.111 15.0226C379.83 15.0226 381.223 13.6296 381.223 11.9113C381.223 10.193 379.83 8.8 378.111 8.8C376.393 8.8 375 10.193 375 11.9113C375 13.6296 376.393 15.0226 378.111 15.0226Z" fill="black"/>
<path d="M387 15.0226C388.718 15.0226 390.111 13.6296 390.111 11.9113C390.111 10.193 388.718 8.8 387 8.8C385.282 8.8 383.889 10.193 383.889 11.9113C383.889 13.6296 385.282 15.0226 387 15.0226Z" fill="black"/>
<path d="M395.889 15.0226C397.607 15.0226 399 13.6296 399 11.9113C399 10.193 397.607 8.8 395.889 8.8C394.17 8.8 392.777 10.193 392.777 11.9113C392.777 13.6296 394.17 15.0226 395.889 15.0226Z" fill="black"/>
<g clip-path="url(#clip2)">
<path d="M405.751 4C403.616 4 401.878 5.758 401.878 7.92C401.878 8.301 401.932 8.676 402.038 9.037C400.852 9.465 400 10.613 400 11.958C400 13.668 401.374 15.058 403.064 15.058C403.724 15.058 404.35 14.85 404.879 14.455C404.84 15.184 404.801 15.955 404.762 16.707C404.712 17.683 404.658 19.125 404.607 20.031C404.603 20.105 404.63 20.177 404.68 20.231C404.73 20.285 404.8 20.315 404.873 20.315H406.623C406.697 20.315 406.766 20.285 406.817 20.231C406.867 20.177 406.893 20.105 406.889 20.031C406.839 19.124 406.789 17.682 406.74 16.705C406.702 15.954 406.663 15.183 406.623 14.455C407.153 14.85 407.779 15.058 408.439 15.058C410.129 15.058 411.503 13.668 411.503 11.958C411.503 10.635 410.677 9.47 409.464 9.036C409.569 8.679 409.624 8.304 409.624 7.919C409.625 5.76 407.888 4 405.752 4H405.751Z" fill="black"/>
<path d="M423.554 16.053H423.109V13.067C423.109 12.953 423.062 12.845 422.979 12.765C422.895 12.685 422.781 12.64 422.663 12.64H412.857C412.739 12.64 412.626 12.685 412.542 12.765C412.458 12.845 412.412 12.953 412.412 13.067V16.053H411.966C411.847 16.053 411.734 16.098 411.65 16.178C411.567 16.258 411.52 16.367 411.52 16.48V19.893C411.52 20.129 411.72 20.32 411.966 20.32C412.212 20.32 412.411 20.129 412.411 19.893V18.613H423.11V19.893C423.11 20.129 423.31 20.32 423.555 20.32C423.801 20.32 424.001 20.129 424.001 19.893V16.48C424.001 16.367 423.954 16.258 423.871 16.178C423.787 16.098 423.674 16.053 423.555 16.053H423.554Z" fill="black"/>
</g>
<path fill-rule="evenodd" clip-rule="evenodd" d="M434.84 24H439.16V23.9993C439.71 23.9993 440.143 23.5738 440.143 23.0317V17.3789L444.499 19.927C444.953 20.1965 445.522 20.0428 445.787 19.5809L447.869 15.9253V15.9245C448.135 15.4634 447.983 14.8856 447.529 14.6547L442.962 11.974L447.529 9.27622C447.983 9.00517 448.135 8.42453 447.869 7.95967L445.787 4.28017C445.522 3.81607 444.953 3.66086 444.499 3.93191L440.143 6.50547V0.967575C440.143 0.425513 439.71 0 439.16 0H434.84C434.29 0 433.858 0.425513 433.858 0.967575V6.6295L429.501 4.07228C429.047 3.80272 428.478 3.95644 428.213 4.41832L426.131 8.0748C425.865 8.5359 426.017 9.11362 426.471 9.38242L430.894 11.9692L426.471 14.582C426.017 14.8529 425.865 15.4336 426.131 15.8985L428.213 19.5779C428.478 20.0421 429.047 20.1973 429.501 19.9262L433.858 17.3527V23.0317C433.858 23.5738 434.29 24 434.84 24ZM434.779 9.67429C434.613 9.43433 434.514 9.1516 434.514 8.81138C434.514 8.20639 434.827 7.78319 435.271 7.45909C435.592 7.22426 435.983 7.04146 436.374 6.87923V4.44506C435.816 4.21339 435.444 3.67204 435.444 3.01485C435.444 2.16461 436.114 1.46955 436.931 1.46955C437.75 1.46955 438.419 2.16461 438.419 3.01485C438.419 3.67204 438.047 4.21339 437.489 4.44506V6.37725C437.898 6.18416 438.233 5.95174 438.233 5.72006C438.233 5.41114 438.494 5.14084 438.791 5.14084C439.089 5.14084 439.349 5.41114 439.349 5.72006C439.349 6.76339 438.419 7.26607 437.489 7.65225V8.07282V8.76145V9.97058C438.419 10.3573 439.349 10.8592 439.349 11.9027C439.349 12.9463 438.419 13.4481 437.489 13.8341V15.2071V15.8271V16.1539C438.419 16.5401 439.349 17.0429 439.349 18.0862C439.349 19.1294 438.419 19.6322 437.489 20.0183V21.9505C437.489 22.2594 437.229 22.5297 436.931 22.5297C436.634 22.5297 436.374 22.2594 436.374 21.9505V20.5203C435.965 20.7141 435.63 20.9458 435.63 21.1774C435.63 21.4864 435.37 21.7567 435.072 21.7567C434.774 21.7567 434.514 21.4864 434.514 21.1774C434.514 20.1341 435.444 19.6315 436.374 19.2453V16.927C436.036 16.7863 435.698 16.6305 435.404 16.4389C434.891 16.1036 434.514 15.6588 434.514 14.9948C434.514 14.6915 434.593 14.4338 434.727 14.2114C435.055 13.669 435.714 13.3365 436.374 13.0626V10.7436C435.747 10.4834 435.121 10.1702 434.779 9.67429ZM436.374 14.3376V15.1747V15.6898C435.965 15.4582 435.63 15.2265 435.63 14.9948C435.63 14.9254 435.66 14.8561 435.713 14.7878C435.837 14.6275 436.087 14.4731 436.374 14.3376ZM435.772 9.08756C435.907 9.22754 436.127 9.36734 436.374 9.50715V8.73174V8.15498C435.965 8.34803 435.63 8.5797 435.63 8.81138C435.63 8.90354 435.683 8.99559 435.772 9.08756ZM438.233 11.9035C438.233 12.1351 437.898 12.3668 437.489 12.5599V11.2077C437.898 11.4394 438.233 11.6711 438.233 11.9027V11.9035ZM438.233 18.0862C438.233 18.3179 437.898 18.5495 437.489 18.7433V17.3903C437.898 17.622 438.233 17.8544 438.233 18.0862Z" fill="black"/>
<path d="M451.894 19.16C451.763 19.16 451.65 19.142 451.519 19.066C451.106 18.86 450.938 18.373 451.144 17.979L457.013 6.466C457.219 6.073 457.725 5.904 458.137 6.091C458.55 6.298 458.719 6.785 458.512 7.179L452.625 18.71C452.494 18.991 452.194 19.16 451.894 19.16ZM472.575 19.066C472.988 18.86 473.156 18.373 472.95 17.979L467.081 6.485C466.875 6.091 466.369 5.923 465.956 6.11C465.544 6.316 465.375 6.804 465.581 7.198L471.45 18.709C471.6 18.99 471.881 19.159 472.2 19.159C472.313 19.159 472.444 19.122 472.575 19.065V19.066Z" fill="black"/>
<path d="M470.663 7.985H453.337C452.7 7.985 452.175 7.479 452.175 6.842C452.175 6.204 452.7 5.698 453.338 5.698H470.663C471.3 5.698 471.825 6.204 471.825 6.841C471.825 7.479 471.319 7.985 470.663 7.985ZM474 12.485C474 11.848 473.475 11.341 472.837 11.341H451.163C450.525 11.341 450 11.849 450 12.485C450 13.123 450.525 13.629 451.163 13.629H472.837C473.475 13.629 474 13.123 474 12.485Z" fill="black"/>
<path d="M498.679 6.069L487.279 0.069C487.104 -0.023 486.896 -0.023 486.721 0.069L475.321 6.069C475.123 6.172 475 6.377 475 6.599V9C475 9.21 475.11 9.405 475.29 9.514C475.47 9.622 475.693 9.629 475.879 9.531L487 3.678L498.121 9.53C498.307 9.628 498.531 9.621 498.711 9.513C498.89 9.404 499 9.209 499 8.999V6.6C499 6.377 498.877 6.173 498.679 6.07V6.069Z" fill="black"/>
<path d="M486.886 4.57101L496.486 9.62301V21.737C496.485 22.068 496.216 22.337 495.886 22.337H477.886C477.555 22.337 477.286 22.068 477.286 21.737V9.62301L486.886 4.57101ZM487.252 11.763C486.63 11.763 486.068 12.273 485.572 12.89C485.01 13.59 485.116 13.793 484.822 13.793C484.528 13.793 483.54 12.205 483.468 12.21C483.204 12.231 482.917 12.885 483.022 13.457C483.07 13.713 484.628 15.354 484.868 15.343C485.168 15.343 485.914 14.601 486.225 14.209L486.237 17.367L485.169 19.335C484.809 20.191 484.754 20.557 484.926 20.782C485.079 20.982 485.37 21.012 485.586 21.015H490.146C490.176 20.91 490.248 20.611 490.146 20.273C490.045 19.934 489.734 19.806 489.59 19.763C489.154 19.635 486.788 19.67 486.654 19.635C486.52 19.601 488.096 18.659 488.546 17.715C488.996 16.772 488.62 13.766 488.626 13.365C488.632 13.091 488.331 11.763 487.252 11.763ZM486.068 9.00001C485.331 9.00001 484.735 9.59601 484.735 10.332C484.735 11.068 485.331 11.664 486.068 11.664C486.804 11.664 487.401 11.068 487.401 10.332C487.401 9.59601 486.804 9.00001 486.068 9.00001Z" fill="black"/>
<g clip-path="url(#clip3)">
<path d="M507.553 0.114996C507.343 -0.0390035 507.057 -0.0390035 506.847 0.114996L500.247 3.715C500.037 3.868 499.949 4.139 500.029 4.385C500.109 4.633 500.34 4.8 500.6 4.8H513.8C514.06 4.8 514.29 4.633 514.37 4.386C514.451 4.139 514.363 3.868 514.153 3.715L507.553 0.114996ZM501.2 16.8H502.4V23.4C502.4 23.731 502.669 24 503 24C503.331 24 503.6 23.731 503.6 23.4V21.6H510.8V23.4C510.8 23.731 511.069 24 511.4 24C511.731 24 512 23.731 512 23.4V16.8H513.2V14.4H501.2V16.8ZM503.6 16.8H510.8V18H503.6V16.8ZM503.6 19.2H510.8V20.4H503.6V19.2ZM507.2 8.4C505.875 8.401 504.801 9.475 504.8 10.8V13.2H509.6V10.8C509.599 9.475 508.525 8.401 507.2 8.4Z" fill="black"/>
<path d="M501.2 13.2H503.6V10.8C503.6 8.812 505.212 7.2 507.2 7.2C509.188 7.2 510.8 8.812 510.8 10.8V13.2H513.2V6H501.2V13.2ZM523.4 21.6C520.4 21.6 518 15.6 514.4 14.725V17.4C516.8 18 519.2 24 523.4 24C523.56 24 523.712 23.937 523.824 23.824C523.937 23.712 524 23.559 524 23.4V22.2C524 22.04 523.937 21.888 523.824 21.776C523.712 21.663 523.559 21.6 523.4 21.6ZM515.6 12.6V13.958C516.023 14.186 516.425 14.451 516.8 14.751V12.6C516.798 11.175 515.796 9.948 514.4 9.66V10.91C515.117 11.163 515.598 11.84 515.6 12.6Z" fill="black"/>
</g>
<path d="M541.939 20.76C540.501 22.7116 538.243 23.9053 535.809 24C535.665 23.9198 535.555 23.7916 535.498 23.6381C535.443 23.4158 534.879 21.5147 534.598 20.959C534.317 20.4031 533.979 19.5057 533.587 19.0579C533.194 18.6114 532.18 16.7141 532.011 16.2631C531.842 15.8129 531.618 14.2541 531.505 14.0299C531.069 13.3591 530.581 12.7226 530.047 12.1257C529.654 11.7341 527.459 9.61392 527.181 9.33224C526.903 9.05112 526.507 8.49536 526.62 8.21432C526.733 7.93263 526.788 7.71158 527.013 7.71158C527.237 7.71158 527.632 7.71158 527.8 7.87894C527.968 8.04632 529.095 8.82824 529.263 9.05112C529.432 9.27408 531.117 10.5581 531.177 10.5581C531.235 10.5581 531.682 10.6137 531.737 10.5013C531.793 10.3889 532.075 10.1666 531.964 9.66376C531.852 9.16168 530.278 3.13326 530.278 3.13326C530.278 3.13326 530.109 1.79369 530.783 1.79369C531.458 1.79369 531.626 2.18337 531.739 2.18337C531.852 2.18337 533.755 8.27056 533.755 8.27056C533.755 8.27056 533.866 8.43792 533.924 8.38104C533.981 8.32424 534.317 8.21368 534.261 7.9339C534.206 7.65474 533.642 1.34147 533.756 1.00484C533.868 0.66821 533.979 0 534.43 0C534.879 0 535.33 0.112421 535.556 0.781894C535.781 1.45137 536.454 7.31242 536.454 7.31242C536.454 7.31242 536.511 7.64779 536.68 7.64779C536.849 7.64779 537.13 7.20253 537.185 6.8659C537.242 6.52926 537.691 1.05537 537.749 1.00484C537.806 0.954312 537.917 0.390316 538.368 0.447158C538.817 0.504 538.93 0.614526 538.986 0.726947C539.201 1.14506 539.335 1.59916 539.381 2.0659C539.453 2.80926 539.489 3.55579 539.487 4.30169L539.207 8.10192C539.207 8.10192 539.263 10.111 539.431 10.5044C539.587 10.8209 539.775 11.1209 539.992 11.3987C539.992 11.3987 540.498 11.9014 540.893 11.7903C541.322 11.664 541.723 11.4556 542.073 11.1764C542.523 10.8417 543.536 9.94672 543.873 9.77936C544.21 9.612 544.267 9.4996 544.716 9.33224C545.06 9.21664 545.421 9.1604 545.784 9.16488C545.897 9.16488 546.29 9.10992 546.516 9.38904C546.742 9.66888 546.853 9.66888 546.795 10.0042C546.739 10.339 546.684 10.2834 546.347 10.5631C546.01 10.843 544.603 11.9596 544.547 12.0151C544.491 12.0701 540.618 17.777 540.618 17.993C540.651 18.2766 540.708 18.5564 540.786 18.8306L541.939 20.76Z" fill="black"/>
<path d="M559.6 15.48H564.4V21.24H559.6V15.48Z" fill="black"/>
<path d="M568.6 8.76H555.4C555.069 8.76 554.8 8.907 554.8 9.088V21.24H558.4L558.335 13.86C558.335 13.68 558.604 13.532 558.935 13.532H564.935C565.266 13.532 565.535 13.679 565.535 13.861L565.6 21.24H569.2V9.088C569.2 8.907 568.931 8.76 568.6 8.76ZM568.773 5.36L562 3L555.228 5.36C554.968 5.445 554.8 5.634 554.8 5.842V7.426H569.2V5.842C569.2 5.634 569.033 5.445 568.773 5.36Z" fill="black"/>
<path fill-rule="evenodd" clip-rule="evenodd" d="M550.4 8.76001H553.44C553.66 8.76001 553.84 8.94001 553.84 9.16001V21.24H550V9.16001C550 8.94001 550.18 8.76001 550.4 8.76001ZM570.56 8.76001H573.6C573.82 8.76001 574 8.94001 574 9.16001V21.24H570.16V9.16001C570.16 8.94001 570.34 8.76001 570.56 8.76001Z" fill="black"/>
<path d="M591.302 21.171C590.6 19.711 589.805 18.055 589.805 15.407C589.805 14.556 589.875 14.185 590.03 13.373C590.075 13.139 590.126 12.87 590.184 12.546C591.485 10.749 593 7.956 593 4.686C593 3.181 592.815 1.733 592.45 0.382C592.39 0.157 592.18 0 591.94 0H582.06C581.82 0 581.61 0.157 581.55 0.382C581.185 1.733 581 3.182 581 4.686C581 8.88 583.326 12.011 584.187 13.026C584.267 13.477 584.335 13.789 584.392 14.044C584.499 14.526 584.552 14.767 584.552 15.407C584.552 18.055 583.757 19.711 583.055 21.172C582.925 21.445 582.797 21.709 582.679 21.972C582.477 22.421 582.522 22.934 582.799 23.344C583.076 23.754 583.544 24 584.051 24H590.307C590.814 24 591.283 23.755 591.56 23.344C591.837 22.934 591.88 22.421 591.679 21.971C591.56 21.709 591.433 21.444 591.302 21.171ZM582.472 1.022H591.528C591.805 2.179 591.946 3.41 591.946 4.686C591.946 5.613 591.81 6.501 591.588 7.335H582.393C582.186 6.519 582.053 5.633 582.053 4.686C582.053 3.41 582.194 2.18 582.472 1.022Z" fill="black"/>
<path fill-rule="evenodd" clip-rule="evenodd" d="M606.552 0C606.027 0 605.6 0.442498 605.6 0.988158V16.5301C605.6 17.0751 606.026 17.5183 606.552 17.5183H614.38C614.905 17.5183 615.332 17.0757 615.332 16.5301V0.988158C615.332 0.443147 614.906 0 614.38 0H606.552ZM614.683 13.4515C614.683 13.8991 614.305 14.3079 613.892 14.3079H606.94C606.528 14.3079 606.249 13.8991 606.249 13.4515V2.68743C606.249 2.23975 606.528 1.86862 606.94 1.86862H613.892C614.305 1.86862 614.683 2.2391 614.683 2.68679V13.4515ZM611.653 1.38069C611.846 1.38069 611.914 1.15035 611.914 1.04135V0.956354C611.914 0.848652 611.846 0.64881 611.654 0.64881H609.162C608.969 0.64881 608.844 0.848004 608.844 0.957002V1.04135C608.844 1.15035 608.97 1.38069 609.162 1.38069H611.653Z" fill="black"/>
<path fill-rule="evenodd" clip-rule="evenodd" d="M611.952 15.9014C611.952 16.4075 611.522 16.8169 610.992 16.8169C610.461 16.8169 610.031 16.4075 610.031 15.902C610.031 15.396 610.461 14.9859 610.991 14.9859C611.522 14.9859 611.951 15.396 611.951 15.9014" fill="white"/>
<path fill-rule="evenodd" clip-rule="evenodd" d="M611.167 7.56531C610.973 7.75865 610.853 8.02592 610.853 8.32116V14.5291C610.7 14.461 610.532 14.4169 610.357 14.4019C610.312 14.3974 610.265 14.3954 610.218 14.3954C609.694 14.3954 609.281 14.8204 609.281 15.3285C609.281 15.37 609.284 15.4128 609.29 15.4563C609.339 15.8177 609.232 16.1842 608.994 16.462L608.585 16.9401C608.27 17.3074 608.2 17.8238 608.405 18.2611L609.606 20.8162C609.785 21.1964 610.065 21.5208 610.416 21.7531C610.604 21.8777 610.805 22.0023 610.961 22.0756C611.121 22.1508 611.253 22.2696 611.345 22.413C611.437 22.5564 611.487 22.7257 611.487 22.9035V24H618.637C618.637 23.6503 618.663 23.3025 618.712 22.958C618.761 22.6128 618.835 22.2715 618.934 21.9368C619.003 21.7006 619.055 21.4605 619.09 21.2178C619.125 20.9752 619.142 20.7293 619.142 20.484V14.424C619.142 14.169 619.038 13.9374 618.87 13.77C618.699 13.5994 618.462 13.4942 618.199 13.4988C617.689 13.5066 617.286 13.9361 617.286 14.4454V13.9426C617.286 13.3522 616.806 12.874 616.213 12.874C615.918 12.874 615.649 12.9933 615.456 13.1873C615.261 13.38 615.142 13.648 615.142 13.9426V13.2055C615.142 12.6151 614.661 12.1356 614.07 12.1356C613.773 12.1356 613.506 12.2556 613.311 12.449C613.117 12.643 612.998 12.9097 612.998 13.2055V8.32116C612.998 7.73074 612.518 7.25191 611.926 7.25191C611.629 7.25191 611.362 7.37191 611.167 7.56461" fill="black"/>
<path d="M647.08 7.667H626.92L625 23.667H649L647.08 7.667ZM641.772 6.053C641.772 3.263 639.51 1 636.719 1C633.93 1 631.667 3.262 631.667 6.053V8.579C631.667 9.277 631.727 9.842 632.638 9.842C633.549 9.842 633.902 9.277 633.902 8.579V6.053C633.902 4.657 635.324 3.093 636.719 3.093C638.115 3.093 639.757 4.657 639.757 6.053V8.579C639.757 9.277 640.119 9.842 640.817 9.842C641.514 9.842 641.772 9.277 641.772 8.579V6.053Z" fill="black"/>
<path d="M673.679 6.069L662.279 0.069C662.104 -0.023 661.896 -0.023 661.721 0.069L650.321 6.069C650.123 6.172 650 6.377 650 6.599V9C650 9.21 650.11 9.405 650.29 9.514C650.47 9.622 650.693 9.629 650.879 9.531L662 3.678L673.121 9.53C673.307 9.628 673.531 9.621 673.711 9.513C673.89 9.404 674 9.21 674 9V6.6C674 6.377 673.877 6.172 673.679 6.069Z" fill="black"/>
<path d="M661.886 4.571L671.486 9.623V21.737C671.485 22.068 671.216 22.337 670.886 22.337H652.886C652.555 22.337 652.286 22.068 652.286 21.737V9.623L661.886 4.571ZM661.607 13.922L661.551 13.978C661.267 14.262 661.019 14.522 660.801 14.761C661.371 15.453 661.451 16.477 661.514 17.311C661.535 17.581 661.556 17.839 661.591 18.057C661.598 18.099 661.605 18.139 661.613 18.177C662.547 18.257 663.503 17.995 664.281 17.391L664.226 17.285C664.129 17.1 663.974 16.834 663.74 16.489C663.358 15.927 662.693 15.053 661.607 13.922ZM660.572 15.015C659.887 15.792 659.55 16.314 659.385 16.642C659.327 16.756 659.288 16.851 659.262 16.928C659.245 16.979 659.233 17.023 659.226 17.059L659.238 17.072C659.811 17.645 660.52 17.997 661.261 18.131L661.242 18.007C661.215 17.806 661.197 17.58 661.178 17.337C661.118 16.569 661.046 15.628 660.572 15.015ZM662.322 13.236C662.172 13.374 662.015 13.524 661.848 13.686C663.445 15.348 664.18 16.49 664.488 17.058C664.51 17.096 664.529 17.133 664.546 17.166L664.644 17.072C665.47 16.245 665.839 15.133 665.75 14.052L665.63 14.03C665.41 13.994 665.147 13.973 664.874 13.952C664.039 13.887 663.014 13.808 662.322 13.236ZM660.338 14.77C659.882 14.39 659.473 14.59 659.005 14.818C658.774 14.931 658.538 15.046 658.303 15.07C658.263 15.075 658.223 15.076 658.183 15.074C658.297 15.679 658.556 16.262 658.963 16.766C658.977 16.726 658.994 16.684 659.013 16.64C659.187 16.244 659.561 15.648 660.338 14.77ZM659.022 11.9C658.337 12.708 658.042 13.734 658.135 14.73C658.173 14.737 658.213 14.739 658.255 14.736C658.418 14.724 658.61 14.636 658.857 14.515C659.121 14.386 659.394 14.253 659.695 14.225C660.012 14.197 660.297 14.294 660.564 14.52C660.784 14.28 661.032 14.02 661.313 13.74L661.373 13.68C661.259 13.565 661.142 13.447 661.02 13.327C660.065 12.384 659.462 12.054 659.145 11.939C659.097 11.922 659.056 11.909 659.022 11.901V11.9ZM664.619 11.642C664.583 11.649 664.539 11.661 664.487 11.679C664.187 11.781 663.604 12.092 662.575 13.007C663.188 13.483 664.13 13.557 664.9 13.616C665.148 13.636 665.377 13.653 665.581 13.681C665.623 13.687 665.665 13.693 665.704 13.701C665.573 12.955 665.219 12.241 664.644 11.666L664.619 11.642ZM662.289 10.562C661.215 10.465 660.107 10.82 659.276 11.628C659.313 11.642 659.353 11.658 659.396 11.677C659.791 11.85 660.396 12.237 661.257 13.087C661.38 13.209 661.498 13.327 661.613 13.444C661.773 13.287 661.929 13.139 662.081 13C661.856 12.734 661.76 12.449 661.788 12.133C661.815 11.831 661.948 11.559 662.078 11.295C662.201 11.043 662.29 10.848 662.299 10.682C662.301 10.64 662.299 10.601 662.289 10.562ZM662.637 10.61C662.639 10.65 662.637 10.69 662.634 10.73C662.612 10.968 662.495 11.208 662.38 11.443C662.152 11.91 661.953 12.317 662.33 12.773C663.035 12.143 663.626 11.709 664.097 11.477L664.197 11.43C664.241 11.41 664.283 11.394 664.322 11.379C663.82 10.977 663.239 10.721 662.637 10.61Z" fill="black"/>
<path fill-rule="evenodd" clip-rule="evenodd" d="M686.75 4H675.77C675.338 4 675 4.325 675 4.741V8.007H677.087V16.021H675V18.285C675 18.701 675.338 19.025 675.769 19.025H686.75V15.012C684.85 14.888 683.348 13.369 683.348 11.514C683.348 9.658 684.85 8.139 686.75 8.016V4ZM675 15.541H676.587V8.487H675V15.541ZM687.25 8.016V4H698.231C698.663 4 699 4.326 698.999 4.741V8.007H696.913V16.021H698.999V18.285C698.999 18.701 698.661 19.025 698.23 19.025H687.25V15.012C689.15 14.888 690.652 13.369 690.652 11.514C690.652 9.658 689.15 8.139 687.25 8.016ZM697.413 8.487H698.999V15.541H697.413V8.487ZM683.848 11.514C683.848 9.924 685.126 8.62 686.75 8.497V14.531C685.126 14.408 683.848 13.104 683.848 11.514ZM690.152 11.514C690.152 13.104 688.874 14.408 687.25 14.531V8.497C688.874 8.62 690.152 9.924 690.152 11.514Z" fill="black"/>
<path d="M713.311 1.98545e-06C715.12 1.98545e-06 716.855 0.718532 718.134 1.99822C719.412 3.27722 720.13 5.01246 720.129 6.82154V17.6278H715.063L720.706 20.3749C721.192 20.4964 721.534 20.934 721.534 21.4344V24H703.2V21.4344C703.2 20.9582 703.509 20.5371 703.964 20.3942L709.647 17.6243H704.687V6.82224C704.686 5.01246 705.405 3.27722 706.684 1.99753C707.963 0.717151 709.698 -0.00137847 711.508 1.98545e-06H713.311ZM714.857 16.4386C714.095 16.7885 713.266 16.97 712.427 16.97H712.317C711.523 16.9721 710.737 16.8119 710.008 16.5006V17.5643L712.43 21.6526L714.857 17.5609V16.4386ZM712.185 10.4784L712.073 10.4915C711.392 10.6068 709.924 11.4268 709.413 11.6152C709.012 11.7629 707.532 11.979 706.766 12.0859H706.717C707.15 14.8427 709.526 16.8747 712.317 16.8741H712.425C715.196 16.8747 717.562 14.8745 718.023 12.1426C717.658 12.0942 715.459 11.8009 714.956 11.6152C714.417 11.4158 712.801 10.5081 712.185 10.4784ZM712.86 2.89138H711.969L712.014 3.01631C712.043 3.10052 712.067 3.1861 712.089 3.2717C712.363 4.46372 711.821 5.83728 710.634 6.66832C710.108 7.04311 709.491 7.2695 708.847 7.3261H708.819C708.025 7.40618 707.234 7.15769 706.628 6.63933V8.25168L706.58 8.23584C706.463 8.20128 706.342 8.18408 706.22 8.18472C705.413 8.18472 704.77 8.90256 704.77 9.79024C704.77 10.6778 705.418 11.3985 706.22 11.3985C706.343 11.4006 706.465 11.3846 706.584 11.3502L706.649 11.9927C707.461 11.8795 708.902 11.6649 709.304 11.5172C709.863 11.3115 711.534 10.37 712.171 10.3397H712.181C712.815 10.37 714.489 11.3115 715.047 11.5172C715.534 11.6959 717.548 11.9727 718.121 12.0494C718.158 11.8222 718.181 11.5931 718.191 11.3626C718.291 11.3867 718.395 11.3991 718.498 11.3991C719.295 11.3991 719.948 10.6813 719.948 9.7916C719.948 8.90256 719.297 8.18128 718.5 8.18128C718.398 8.18128 718.297 8.19304 718.197 8.2172V6.63657L718.149 6.67729C717.683 7.0652 717.105 7.29435 716.499 7.33162C715.677 7.3827 714.862 7.14941 714.192 6.67038C713.005 5.84763 712.459 4.46372 712.741 3.27238L712.773 3.14331C712.797 3.05772 712.826 2.97351 712.86 2.89138ZM710.161 8.41664C710.411 8.41664 710.615 8.70936 710.615 9.07032C710.615 9.432 710.411 9.72464 710.16 9.72464C709.909 9.72464 709.705 9.432 709.705 9.07032C709.705 8.70936 709.909 8.41664 710.161 8.41664ZM714.527 8.41664C714.777 8.41664 714.98 8.70936 714.98 9.07032C714.98 9.432 714.777 9.72464 714.527 9.72464C714.276 9.72464 714.073 9.432 714.073 9.07032C714.073 8.70936 714.276 8.41664 714.527 8.41664Z" fill="black"/>
<path fill-rule="evenodd" clip-rule="evenodd" d="M712.234 12.8408L711.567 13.0299C711.36 13.1141 711.122 13.2093 710.861 13.2985L710.845 13.3037C710.34 13.4619 709.828 13.5948 709.311 13.7025L709.303 13.704L708.93 13.7771C708.595 13.8426 708.268 13.6327 708.189 13.3011C708.11 12.9696 708.306 12.6344 708.634 12.5412L711.153 11.8253L711.239 11.7904C711.406 11.7227 711.582 11.6528 711.74 11.6046C711.858 11.5686 712.039 11.5204 712.234 11.5301C712.433 11.5198 712.627 11.5723 712.762 11.6153C712.91 11.6624 713.073 11.7271 713.229 11.7907L713.23 11.7912L713.307 11.8226L715.842 12.5411C716.168 12.6336 716.365 12.9661 716.288 13.2966C716.211 13.6272 715.889 13.8393 715.555 13.7787C714.901 13.6602 714.256 13.5007 713.622 13.3033L713.607 13.2983C713.341 13.208 713.099 13.111 712.894 13.0277L712.234 12.8408ZM712.549 13.8899C712.815 13.9667 713.07 14.1166 713.249 14.2324C713.491 14.3879 713.71 14.5591 713.839 14.6646L713.844 14.6685L713.936 14.7451L713.96 14.7656C714.215 14.9765 714.266 15.3483 714.077 15.6199C713.887 15.8914 713.521 15.9724 713.235 15.806L712.254 15.2352L711.271 15.8061C710.986 15.9715 710.622 15.8922 710.432 15.6234C710.242 15.3546 710.289 14.9852 710.539 14.7718L710.577 14.7401L710.668 14.6641C710.797 14.5589 711.017 14.3878 711.258 14.2323C711.438 14.1161 711.695 13.9657 711.961 13.8891C712.048 13.8521 712.144 13.834 712.242 13.8388L712.255 13.8395L712.257 13.8393C712.36 13.8328 712.459 13.8512 712.549 13.8899Z" fill="black"/>
<path d="M733.337 0.2184C733.337 0.0872 733.211 0 733.086 0H728.03C727.904 0 727.779 0.088 727.779 0.2184V6.8568H733.337V0.2184ZM737.058 5.4856C736.934 5.4856 736.81 5.5736 736.81 5.7072V6.856H741.674V5.7072C741.674 5.5744 741.55 5.4856 741.426 5.4856H737.058H737.058ZM746.861 2.7432L743.063 6.8568H744.87L747.926 3.5408L746.861 2.7432Z" fill="black"/>
<path d="M735.686 5.83842C735.686 5.28962 736.223 4.85842 736.85 4.85842H741.546C742.172 4.85842 742.709 5.29042 742.709 5.83842V5.99522L744.453 4.15362C744.363 4.11362 744.274 4.11362 744.274 4.11362H734.032V6.85762H735.686V5.83762V5.83842ZM726.6 24H746.747V8.22879H726.6V24ZM738.734 10.8008H743.39C743.525 10.8008 743.659 10.8856 743.659 11.012V12.9512C743.659 13.0784 743.525 13.1624 743.39 13.1624H738.734V10.8008ZM736.182 10.8008H737.838V13.1624H736.182V10.8008ZM729.69 11.012C729.69 10.8856 729.825 10.8008 729.958 10.8008H735.286V13.1624H729.958C729.825 13.1624 729.69 13.0784 729.69 12.9512V11.012Z" fill="black"/>
<g clip-path="url(#clip4)">
<path d="M769.721 1.50056C770.707 2.08106 771.293 3.21433 771.12 4.39859L771.105 4.49009L770.264 9.64865C770.408 9.82641 770.48 10.0611 770.441 10.3049C770.058 12.6546 768.498 14.4014 766.1 14.7884V18.3277C766.1 21.4447 763.517 24 760.375 24C757.232 24 754.65 21.4447 754.65 18.3277V14.9152C754.9 14.9662 755.156 14.9932 755.415 14.9932C755.73 14.9932 756.04 14.9542 756.339 14.8792V18.3277C756.339 20.5282 758.156 22.3253 760.374 22.3253C762.594 22.3253 764.41 20.529 764.41 18.3277V14.8117C761.939 14.4817 760.306 12.7154 759.913 10.3042C759.874 10.0619 759.945 9.82641 760.09 9.64865L759.241 4.44359C759.044 3.24358 759.634 2.08782 760.632 1.49982C760.627 1.62731 760.634 1.75557 760.656 1.88457C760.701 2.15832 760.807 2.41257 760.958 2.63232C760.506 3.01482 760.253 3.61108 760.343 4.22984L760.356 4.31084L761.198 9.47089C761.393 9.59537 761.536 9.79785 761.576 10.0431C761.885 11.9384 763.203 13.1871 765.177 13.1871C767.15 13.1871 768.469 11.9384 768.778 10.0431C768.818 9.79785 768.96 9.59537 769.156 9.47089C769.439 7.73612 769.718 5.99986 770.005 4.26584C770.109 3.63358 769.856 3.02082 769.395 2.63232C769.547 2.41182 769.652 2.15832 769.697 1.88457C769.72 1.75631 769.727 1.62731 769.721 1.50056Z" fill="black"/>
<path fill-rule="evenodd" clip-rule="evenodd" d="M768.885 1.68505C768.965 1.17054 768.725 0.670291 768.311 0.442289L767.809 0.166287C767.011 -0.273217 766.04 0.193287 765.889 1.1563C765.737 2.12006 766.514 2.89481 767.404 2.75381L767.963 2.66381C768.424 2.59106 768.803 2.2003 768.885 1.68505ZM755.393 8.6504C757.044 8.6504 758.384 10.0716 758.384 11.8251C758.384 13.5779 757.044 14.9999 755.392 14.9999C753.74 14.9999 752.4 13.5779 752.4 11.8251C752.4 10.0716 753.74 8.6504 755.393 8.6504ZM761.351 1.68505C761.27 1.17054 761.511 0.670291 761.925 0.442289L762.426 0.166287C763.226 -0.273217 764.196 0.193287 764.348 1.1563C764.498 2.12006 763.722 2.89481 762.833 2.75381L762.273 2.66381C761.813 2.59106 761.432 2.2003 761.351 1.68505Z" fill="black"/>
</g>
<path d="M798.751 16.232C798.595 16.118 798.393 16.088 798.211 16.15C796.154 16.89 793.986 17.275 791.8 17.287L781 15.55C779.14 15.515 777.282 15.71 775.47 16.134C775.195 16.195 775 16.439 775 16.72V20.32C775 20.502 775.083 20.675 775.224 20.789C775.366 20.902 775.552 20.946 775.73 20.906C780.709 19.799 783.592 20.528 786.38 21.233C788.193 21.768 790.069 22.063 791.959 22.109C794.221 22.067 796.461 21.655 798.589 20.889C798.835 20.808 799 20.579 799 20.32V16.72C799 16.528 798.907 16.346 798.751 16.233V16.232Z" fill="black"/>
<path fill-rule="evenodd" clip-rule="evenodd" d="M790.79 17.11V4.58701C790.79 4.17201 790.435 3.83501 789.998 3.83501H789.699C789.293 3.83501 788.969 4.13001 788.929 4.51901C788.947 4.67101 788.918 4.82901 788.833 4.97101C788.63 5.31001 788.191 5.42101 787.852 5.21701L787.842 5.21201C787.627 5.08201 787.495 4.85001 787.495 4.59801C787.495 3.38801 788.484 2.40401 789.699 2.40401H789.998C791.223 2.40401 792.22 3.38401 792.22 4.58701V17.11C792.22 17.505 791.9 17.825 791.505 17.825C791.11 17.825 790.79 17.505 790.79 17.11Z" fill="black"/>
<path fill-rule="evenodd" clip-rule="evenodd" d="M782.347 17.515C781.951 17.515 781.631 17.192 781.631 16.792V4.612C781.631 4.192 781.276 3.851 780.84 3.851H780.541C780.134 3.851 779.811 4.149 779.771 4.542C779.789 4.696 779.759 4.857 779.674 4.999C779.471 5.342 779.032 5.454 778.694 5.249L778.683 5.242C778.467 5.112 778.336 4.876 778.336 4.622C778.336 3.399 779.324 2.403 780.54 2.403H780.839C782.064 2.403 783.061 3.393 783.061 4.611V16.791C783.061 17.191 782.741 17.514 782.346 17.514" fill="black"/>
<path fill-rule="evenodd" clip-rule="evenodd" d="M791.487 9.30701H782.329C781.934 9.30701 781.613 8.98701 781.613 8.59201C781.613 8.19701 781.933 7.87701 782.329 7.87701H791.487C791.882 7.87701 792.203 8.19701 792.203 8.59201C792.203 8.98701 791.883 9.30701 791.487 9.30701ZM791.487 13.775H782.329C781.934 13.775 781.613 13.455 781.613 13.059C781.613 12.664 781.933 12.344 782.329 12.344H791.487C791.882 12.344 792.203 12.664 792.203 13.059C792.203 13.455 791.883 13.775 791.487 13.775Z" fill="black"/>
<path d="M812 5.8V1H800V22.6H824V5.8H812ZM804.8 20.2H802.4V17.8H804.8V20.2ZM804.8 15.4H802.4V13H804.8V15.4ZM804.8 10.6H802.4V8.2H804.8V10.6ZM804.8 5.8H802.4V3.4H804.8V5.8ZM809.6 20.2H807.2V17.8H809.6V20.2ZM809.6 15.4H807.2V13H809.6V15.4ZM809.6 10.6H807.2V8.2H809.6V10.6ZM809.6 5.8H807.2V3.4H809.6V5.8ZM821.6 20.2H812V17.8H814.4V15.4H812V13H814.4V10.6H812V8.2H821.6V20.2ZM819.2 10.6H816.8V13H819.2V10.6ZM819.2 15.4H816.8V17.8H819.2V15.4Z" fill="black"/>
<defs>
<clipPath id="clip0">
<rect width="24" height="24" fill="white" transform="translate(150)"/>
</clipPath>
<clipPath id="clip1">
<rect width="24" height="24" fill="white" transform="translate(225)"/>
</clipPath>
<clipPath id="clip2">
<rect width="24" height="24" fill="white" transform="translate(400)"/>
</clipPath>
<clipPath id="clip3">
<rect width="24" height="24" fill="white" transform="translate(500)"/>
</clipPath>
<clipPath id="clip4">
<rect width="24" height="24" fill="white" transform="translate(750)"/>
</clipPath>
</defs>
</svg>
