<svg width="30" height="30" viewBox="0 0 30 30" fill="none" xmlns="http://www.w3.org/2000/svg">
<g clip-path="url(#clip0)">
<path d="M13.2722 17.8125L5.1947 26.0475C4.51876 26.7375 4.51876 27.8569 5.1947 28.5459C5.87063 29.235 6.96845 29.235 7.64438 28.5459L14.9963 21.0506L16.5056 22.5891C16.8684 22.9603 17.46 22.9509 17.8125 22.5703M22.1269 16.875C24.7088 13.2422 27.4359 8.32499 28.1231 3.06936C28.1513 2.85374 27.885 2.72624 27.7284 2.87999L17.8125 12.5897L22.1269 16.875Z" stroke="#333F48" stroke-width="2" stroke-linecap="round"/>
<path d="M5.44498 3.19779L10.5731 8.32498M0.94873 7.69217L6.80061 13.544C7.98936 14.7328 9.91873 14.7328 11.1075 13.544C11.2012 13.4503 11.3512 13.4531 11.4412 13.5487L25.515 28.4109C26.3072 29.2481 27.6337 29.2659 28.4494 28.4503C29.265 27.6347 29.2481 26.3072 28.4109 25.515L13.5487 11.4422C13.455 11.3512 13.4522 11.2003 13.544 11.1084C14.7328 9.91967 14.7328 7.99029 13.544 6.80154L7.69217 0.94873L0.94873 7.69217ZM3.19779 5.44498L8.32498 10.5731L3.19779 5.44498Z" stroke="#333F48" stroke-width="2" stroke-linecap="round"/>
</g>
<defs>
<clipPath id="clip0">
<rect width="30" height="30" fill="white"/>
</clipPath>
</defs>
</svg>
