<svg width="30" height="30" viewBox="0 0 30 30" fill="none" xmlns="http://www.w3.org/2000/svg">
<g clip-path="url(#clip0)">
<path d="M24.6517 1.87569C25.8836 2.60132 26.6158 4.0179 26.4002 5.49823L26.3814 5.6126L25.3295 12.0608C25.5105 12.283 25.5996 12.5764 25.5508 12.8811C25.0727 15.8183 23.1227 18.0018 20.1245 18.4855V22.9096C20.1245 26.8059 16.8967 30 12.9685 30C9.0394 30 5.8125 26.8059 5.8125 22.9096V18.644C6.12469 18.7077 6.44438 18.7415 6.76876 18.7415C7.16251 18.7415 7.5497 18.6927 7.92377 18.599V22.9096C7.92377 25.6603 10.1944 27.9066 12.9676 27.9066C15.7426 27.9066 18.0123 25.6612 18.0123 22.9096V18.5146C14.9232 18.1021 12.8823 15.8943 12.391 12.8802C12.3422 12.5774 12.4313 12.283 12.6122 12.0608L11.551 5.55448C11.3054 4.05446 12.0422 2.60976 13.2901 1.87476C13.2835 2.03413 13.2929 2.19445 13.3201 2.3557C13.3763 2.69789 13.5085 3.0157 13.6979 3.29039C13.1326 3.76852 12.8157 4.51384 12.9291 5.28729L12.9451 5.38854L13.9979 11.8386C14.2416 11.9942 14.4198 12.2473 14.4695 12.5539C14.8557 14.923 16.5038 16.4839 18.9714 16.4839C21.438 16.4839 23.0861 14.923 23.4723 12.5539C23.522 12.2473 23.7002 11.9942 23.9448 11.8386C24.2983 9.67014 24.648 7.49981 25.0061 5.33229C25.1364 4.54197 24.8205 3.77602 24.2439 3.29039C24.4333 3.01477 24.5645 2.69789 24.6217 2.3557C24.6499 2.19538 24.6592 2.03413 24.6517 1.87569V1.87569Z" fill="#333F48"/>
<path fill-rule="evenodd" clip-rule="evenodd" d="M23.6064 2.10631C23.7067 1.46318 23.4058 0.837864 22.8892 0.552861L22.2611 0.207858C21.2636 -0.341522 20.0495 0.241609 19.8611 1.44537C19.6717 2.65007 20.642 3.61851 21.7549 3.44226L22.4533 3.32976C23.0299 3.23882 23.5042 2.75038 23.6064 2.10631ZM6.74066 10.813C8.80505 10.813 10.4804 12.5895 10.4804 14.7814C10.4804 16.9724 8.80505 18.7499 6.73972 18.7499C4.67533 18.7499 3 16.9724 3 14.7814C3 12.5895 4.67533 10.813 6.74066 10.813V10.813ZM14.1892 2.10631C14.0879 1.46318 14.3889 0.837864 14.9064 0.552861L15.5326 0.207858C16.532 -0.341522 17.7451 0.241609 17.9345 1.44537C18.1229 2.65007 17.1526 3.61851 16.0407 3.44226L15.3414 3.32976C14.7657 3.23882 14.2904 2.75038 14.1892 2.10631V2.10631Z" fill="#333F48"/>
</g>
<defs>
<clipPath id="clip0">
<rect width="30" height="30" fill="white"/>
</clipPath>
</defs>
</svg>
