<svg width="30" height="30" viewBox="0 0 30 30" fill="none" xmlns="http://www.w3.org/2000/svg">
<path d="M3.88909 18.7782C6.03698 18.7782 7.77818 17.037 7.77818 14.8891C7.77818 12.7412 6.03698 11 3.88909 11C1.74121 11 0 12.7412 0 14.8891C0 17.037 1.74121 18.7782 3.88909 18.7782Z" fill="#333F48"/>
<path d="M15 18.7782C17.1479 18.7782 18.8891 17.037 18.8891 14.8891C18.8891 12.7412 17.1479 11 15 11C12.8521 11 11.1109 12.7412 11.1109 14.8891C11.1109 17.037 12.8521 18.7782 15 18.7782Z" fill="#333F48"/>
<path d="M26.1109 18.7782C28.2588 18.7782 30 17.037 30 14.8891C30 12.7412 28.2588 11 26.1109 11C23.963 11 22.2218 12.7412 22.2218 14.8891C22.2218 17.037 23.963 18.7782 26.1109 18.7782Z" fill="#333F48"/>
</svg>
