<svg width="30" height="30" viewBox="0 0 30 30" fill="none" xmlns="http://www.w3.org/2000/svg">
<path d="M21.1742 25.95C19.3766 28.3895 16.5534 29.8816 13.5108 30C13.3316 29.8997 13.1942 29.7395 13.1231 29.5476C13.0537 29.2697 12.3494 26.8934 11.9981 26.1987C11.646 25.5039 11.2244 24.3821 10.7334 23.8224C10.2423 23.2642 8.97445 20.8926 8.76366 20.3289C8.55287 19.7661 8.2726 17.8176 8.13129 17.5374C7.58576 16.6989 6.97629 15.9032 6.30839 15.1571C5.81734 14.6676 3.07392 12.0174 2.72655 11.6653C2.37918 11.3139 1.88339 10.6192 2.02471 10.2679C2.16681 9.91579 2.2355 9.63947 2.51576 9.63947C2.79602 9.63947 3.28945 9.63947 3.50023 9.84868C3.71023 10.0579 5.11866 11.0353 5.32866 11.3139C5.53945 11.5926 7.64655 13.1976 7.72076 13.1976C7.79418 13.1976 8.35234 13.2671 8.42181 13.1266C8.49129 12.9861 8.84339 12.7082 8.70445 12.0797C8.5655 11.4521 6.59734 3.91658 6.59734 3.91658C6.59734 3.91658 6.38655 2.24211 7.22892 2.24211C8.07208 2.24211 8.28287 2.72921 8.42418 2.72921C8.5655 2.72921 10.9442 10.3382 10.9442 10.3382C10.9442 10.3382 11.0831 10.5474 11.155 10.4763C11.226 10.4053 11.646 10.2671 11.5766 9.91737C11.5071 9.56842 10.8029 1.67684 10.945 1.25605C11.0855 0.835263 11.2244 0 11.7873 0C12.3494 0 12.9123 0.140526 13.195 0.977368C13.4768 1.81421 14.3176 9.14053 14.3176 9.14053C14.3176 9.14053 14.3887 9.55974 14.6002 9.55974C14.811 9.55974 15.1623 9.00316 15.2318 8.58237C15.3021 8.16158 15.8642 1.31921 15.936 1.25605C16.0071 1.19289 16.1468 0.487895 16.7097 0.558947C17.2718 0.63 17.4123 0.768158 17.4826 0.908684C17.751 1.43132 17.9184 1.99895 17.976 2.58237C18.0668 3.51158 18.111 4.44474 18.1087 5.37711L17.7589 10.1274C17.7589 10.1274 17.8284 12.6387 18.0392 13.1305C18.2334 13.5261 18.4687 13.9011 18.7402 14.2484C18.7402 14.2484 19.3726 14.8768 19.866 14.7379C20.4029 14.58 20.9042 14.3195 21.3408 13.9705C21.9037 13.5521 23.17 12.4334 23.5908 12.2242C24.0123 12.015 24.0842 11.8745 24.6447 11.6653C25.075 11.5208 25.5266 11.4505 25.9805 11.4561C26.1218 11.4561 26.6121 11.3874 26.8947 11.7363C27.1773 12.0861 27.3163 12.0861 27.2444 12.5053C27.1734 12.9237 27.1055 12.8542 26.6839 13.2039C26.2631 13.5537 24.5034 14.9495 24.4339 15.0189C24.3644 15.0876 19.5226 22.2213 19.5226 22.4913C19.5644 22.8458 19.6347 23.1955 19.7326 23.5382L21.1742 25.95V25.95Z" fill="#333F48"/>
</svg>
