<svg width="30" height="30" viewBox="0 0 30 30" fill="none" xmlns="http://www.w3.org/2000/svg">
<mask id="mask0" mask-type="alpha" maskUnits="userSpaceOnUse" x="7" y="0" width="17" height="30">
<path d="M8.63111 0C7.73111 0 7 0.757778 7 1.69222V28.3078C7 29.2411 7.73 30 8.63111 30H22.0356C22.9356 30 23.6667 29.2422 23.6667 28.3078V1.69222C23.6667 0.758889 22.9367 0 22.0356 0H8.63111Z" fill="white"/>
</mask>
<g mask="url(#mask0)">
<path fill-rule="evenodd" clip-rule="evenodd" d="M8.63111 0C7.73111 0 7 0.757778 7 1.69222V28.3078C7 29.2411 7.73 30 8.63111 30H22.0356C22.9356 30 23.6667 29.2422 23.6667 28.3078V1.69222C23.6667 0.758889 22.9367 0 22.0356 0H8.63111Z" fill="#333F48"/>
<path fill-rule="evenodd" clip-rule="evenodd" d="M22.5555 23.0356C22.5555 23.8022 21.9066 24.5022 21.2 24.5022H9.29553C8.58886 24.5022 8.11108 23.8022 8.11108 23.0356V4.60223C8.11108 3.83557 8.58886 3.20001 9.29553 3.20001H21.2C21.9066 3.20001 22.5555 3.83446 22.5555 4.60112V23.0356Z" fill="#F6BE00"/>
<path fill-rule="evenodd" clip-rule="evenodd" d="M17.8133 1.78331C17.8133 1.96997 17.6955 2.36442 17.3655 2.36442H13.1C12.7711 2.36442 12.5555 1.96997 12.5555 1.78331V1.63886C12.5555 1.4522 12.77 1.11108 13.1 1.11108H17.3667C17.6955 1.11108 17.8133 1.45331 17.8133 1.63775V1.78331Z" fill="white"/>
<path fill-rule="evenodd" clip-rule="evenodd" d="M17.8778 27.2311C17.8778 28.0978 17.1411 28.7989 16.2333 28.7989C15.3244 28.7989 14.5878 28.0978 14.5878 27.2322C14.5878 26.3656 15.3244 25.6633 16.2322 25.6633C17.1411 25.6633 17.8767 26.3656 17.8767 27.2311" fill="#6835FB"/>
<mask id="mask1" mask-type="alpha" maskUnits="userSpaceOnUse" x="11" y="12" width="20" height="30">
<path d="M16.5333 12.9556C16.2011 13.2867 15.9956 13.7444 15.9956 14.25V24.8811C15.7333 24.7644 15.4467 24.6889 15.1467 24.6633C15.0689 24.6555 14.9889 24.6522 14.9089 24.6522C14.0111 24.6522 13.3033 25.38 13.3033 26.25C13.3033 26.3211 13.3089 26.3944 13.32 26.4689C13.4033 27.0878 13.22 27.7155 12.8122 28.1911L12.1111 29.01C11.5722 29.6389 11.4522 30.5233 11.8044 31.2722L13.86 35.6478C14.1667 36.2989 14.6456 36.8544 15.2467 37.2522C15.5689 37.4655 15.9144 37.6789 16.18 37.8044C16.4556 37.9333 16.6811 38.1367 16.8378 38.3822C16.9956 38.6278 17.0822 38.9178 17.0822 39.2222V41.1H29.3267C29.3267 40.5011 29.37 39.9056 29.4544 39.3156C29.5389 38.7244 29.6656 38.14 29.8344 37.5667C29.9522 37.1622 30.0411 36.7511 30.1011 36.3355C30.1611 35.92 30.1911 35.4989 30.1911 35.0789V24.7011C30.1911 24.2644 30.0133 23.8678 29.7256 23.5811C29.4322 23.2889 29.0256 23.1089 28.5767 23.1167C27.7022 23.13 27.0122 23.8656 27.0122 24.7378V23.8767C27.0122 22.8656 26.19 22.0467 25.1756 22.0467C24.6689 22.0467 24.2089 22.2511 23.8778 22.5833C23.5444 22.9133 23.34 23.3722 23.34 23.8767V22.6144C23.34 21.6033 22.5178 20.7822 21.5044 20.7822C20.9967 20.7822 20.5389 20.9878 20.2056 21.3189C19.8733 21.6511 19.6689 22.1078 19.6689 22.6144V14.25C19.6689 13.2389 18.8467 12.4189 17.8333 12.4189C17.3256 12.4189 16.8667 12.6244 16.5333 12.9544" fill="white"/>
</mask>
<g mask="url(#mask1)">
<path fill-rule="evenodd" clip-rule="evenodd" d="M16.5333 12.9556C16.2011 13.2867 15.9956 13.7444 15.9956 14.25V24.8811C15.7333 24.7644 15.4467 24.6889 15.1467 24.6633C15.0689 24.6555 14.9889 24.6522 14.9089 24.6522C14.0111 24.6522 13.3033 25.38 13.3033 26.25C13.3033 26.3211 13.3089 26.3944 13.32 26.4689C13.4033 27.0878 13.22 27.7155 12.8122 28.1911L12.1111 29.01C11.5722 29.6389 11.4522 30.5233 11.8044 31.2722L13.86 35.6478C14.1667 36.2989 14.6456 36.8544 15.2467 37.2522C15.5689 37.4655 15.9144 37.6789 16.18 37.8044C16.4556 37.9333 16.6811 38.1367 16.8378 38.3822C16.9956 38.6278 17.0822 38.9178 17.0822 39.2222V41.1H29.3267C29.3267 40.5011 29.37 39.9056 29.4544 39.3156C29.5389 38.7244 29.6656 38.14 29.8344 37.5667C29.9522 37.1622 30.0411 36.7511 30.1011 36.3355C30.1611 35.92 30.1911 35.4989 30.1911 35.0789V24.7011C30.1911 24.2644 30.0133 23.8678 29.7256 23.5811C29.4322 23.2889 29.0256 23.1089 28.5767 23.1167C27.7022 23.13 27.0122 23.8656 27.0122 24.7378V23.8767C27.0122 22.8656 26.19 22.0467 25.1756 22.0467C24.6689 22.0467 24.2089 22.2511 23.8778 22.5833C23.5444 22.9133 23.34 23.3722 23.34 23.8767V22.6144C23.34 21.6033 22.5178 20.7822 21.5044 20.7822C20.9967 20.7822 20.5389 20.9878 20.2056 21.3189C19.8733 21.6511 19.6689 22.1078 19.6689 22.6144V14.25C19.6689 13.2389 18.8467 12.4189 17.8333 12.4189C17.3256 12.4189 16.8667 12.6244 16.5333 12.9544" fill="#333F48"/>
</g>
<path fill-rule="evenodd" clip-rule="evenodd" d="M15.8889 23.5778V30C15.5822 30 15.3033 29.8933 15.1033 29.7222C14.9022 29.55 14.7778 29.3122 14.7778 29.05V23.3333C15.17 23.3622 15.5444 23.4467 15.8889 23.5778Z" fill="#F6BE00"/>
</g>
</svg>
