<svg width="30" height="30" viewBox="0 0 30 30" fill="none" xmlns="http://www.w3.org/2000/svg">
<g clip-path="url(#clip0)">
<path d="M16.639 2.48183e-06C18.8995 2.48183e-06 21.0685 0.898165 22.6673 2.49777C24.2652 4.09652 25.1625 6.26557 25.1616 8.52693V22.0347H18.8287L25.8829 25.4686C26.4903 25.6205 26.9174 26.1675 26.9174 26.793V30H4V26.793C4 26.1977 4.38653 25.6714 4.95511 25.4928L12.0584 22.0304H5.85845V8.5278C5.85758 6.26557 6.75574 4.09652 8.35449 2.49691C9.9541 0.896439 12.1231 -0.00172309 14.3854 2.48183e-06H16.639ZM18.5708 20.5482C17.6182 20.9856 16.582 21.2125 15.5337 21.2125H15.3957C14.4035 21.2151 13.4216 21.0149 12.5097 20.6258V21.9554L15.5381 27.0657L18.5708 21.9511V20.5482ZM15.2309 13.098L15.0911 13.1144C14.2404 13.2585 12.4053 14.2835 11.7668 14.519C11.2647 14.7036 9.41486 14.9737 8.45716 15.1074H8.39677C8.93774 18.5534 11.9075 21.0934 15.3966 21.0926H15.5312C18.9953 21.0934 21.9529 18.5931 22.5284 15.1782C22.0728 15.1178 19.324 14.7511 18.695 14.519C18.0212 14.2697 16.0014 13.1351 15.2309 13.098V13.098ZM16.0747 3.61422H14.9609L15.0178 3.77039C15.0532 3.87565 15.0842 3.98263 15.111 4.08962C15.4544 5.57965 14.7762 7.2966 13.2931 8.3354C12.6348 8.80389 11.8634 9.08688 11.0585 9.15763H11.024C10.0318 9.25772 9.043 8.94711 8.28547 8.29916V10.3146L8.22507 10.2948C8.07926 10.2516 7.92741 10.2301 7.7747 10.2309C6.7661 10.2309 5.96284 11.1282 5.96284 12.2378C5.96284 13.3473 6.773 14.2481 7.7747 14.2481C7.92827 14.2507 8.08185 14.2308 8.23025 14.1877L8.31135 14.9909C9.32685 14.8494 11.1275 14.5811 11.6296 14.3965C12.3285 14.1394 14.4173 12.9625 15.2137 12.9246H15.2266C16.0186 12.9625 18.1109 14.1394 18.8089 14.3965C19.418 14.6199 21.9356 14.9659 22.6509 15.0617C22.6975 14.7778 22.7268 14.4914 22.7389 14.2032C22.864 14.2334 22.9934 14.2489 23.1228 14.2489C24.1185 14.2489 24.9347 13.3516 24.9347 12.2395C24.9347 11.1282 24.1211 10.2266 23.1246 10.2266C22.9977 10.2266 22.8709 10.2413 22.7467 10.2715V8.29571L22.6863 8.34661C22.1039 8.8315 21.3817 9.11794 20.6242 9.16453C19.5966 9.22838 18.5777 8.93676 17.7399 8.33798C16.2568 7.30954 15.5743 5.57965 15.9263 4.09048L15.966 3.92914C15.9962 3.82215 16.0324 3.71689 16.0747 3.61422V3.61422ZM12.7012 10.5208C13.0144 10.5208 13.2689 10.8867 13.2689 11.3379C13.2689 11.79 13.0144 12.1558 12.7004 12.1558C12.3863 12.1558 12.1318 11.79 12.1318 11.3379C12.1318 10.8867 12.3863 10.5208 12.7012 10.5208V10.5208ZM18.1583 10.5208C18.4715 10.5208 18.7252 10.8867 18.7252 11.3379C18.7252 11.79 18.4715 12.1558 18.1583 12.1558C17.8452 12.1558 17.5915 11.79 17.5915 11.3379C17.5915 10.8867 17.8452 10.5208 18.1583 10.5208Z" fill="#333F48"/>
<path fill-rule="evenodd" clip-rule="evenodd" d="M15.3164 18.0961L15.3716 18.0926L15.3569 18.1013C15.8021 18.172 16.4958 18.7018 16.7961 18.9468L16.9039 19.0365L16.9384 19.0659L16.9436 19.0702L15.3172 18.1245L13.6892 19.0702L13.7288 19.0365L13.8367 18.9468C14.1378 18.7018 14.8315 18.172 15.2775 18.1013L15.2637 18.0926L15.3164 18.0952V18.0961ZM14.1999 15.5345C13.9333 15.6432 13.6391 15.7614 13.319 15.8709C12.7125 16.0608 12.0973 16.2204 11.4761 16.3498L11.0093 16.4412L14.1999 15.5345ZM16.3742 15.531L19.5854 16.4412C18.8012 16.2989 18.0255 16.1074 17.2637 15.8701C16.9436 15.7614 16.6502 15.6432 16.3897 15.537L16.3742 15.531V15.531ZM15.3328 15.2066C15.5312 15.1962 15.8418 15.3144 16.237 15.4749L16.3742 15.531L15.2922 15.2247L14.1999 15.5345L14.3466 15.4749C14.7728 15.3024 15.0981 15.179 15.2939 15.2109L15.3328 15.2066V15.2066Z" stroke="#333F48" stroke-width="1.59" stroke-linecap="round" stroke-linejoin="round"/>
</g>
<defs>
<clipPath id="clip0">
<rect width="30" height="30" fill="white"/>
</clipPath>
</defs>
</svg>
