<svg xmlns="http://www.w3.org/2000/svg" viewBox="0 0 286 148"><g fill="none"><path fill="#fff" d="M225.783 108.115V48.058l4.033 4.573v60.079z"/><path fill="#FCBC00" d="M212.79 87.837c-2.344-2.995-5.41-4.996-9.197-5.997 3.066-1.386 5.484-3.453 7.263-6.225 1.852-2.765 2.783-5.804 2.783-9.102 0-5.07-2.062-9.413-6.177-13.023-4.197-3.61-9.197-5.418-15.009-5.418h-17.256l3.847 4.41s9.138.082 13.417.082c4.435 0 8.23 1.349 11.377 4.032 3.148 2.765 4.718 6.07 4.718 9.91 0 3.69-1.13 6.796-3.386 9.33-2.262 2.617-4.963 3.922-8.11 3.922h-7.747l3.713 4.269h4.026c3.951 0 7.3 1.386 10.046 4.15 2.82 2.69 4.234 5.997 4.234 9.91 0 4.454-1.734 8.301-5.202 11.525-3.55 3.15-7.79 4.78-12.71 4.729-6.45-.074-9.68-1.097-13.647-3.832-2.41-1.66-6.258-6.026-10.402-10.814l-17.466-20.204 6.161.022c6.221 0 8.431-.815 12.063-3.624 5.097-3.943 6.466-13.942 3.743-18.96-2.083-3.839-5.871-8.99-14.407-8.908l-35.509.081 3.209 3.699 32.034.059c5.246 0 9.391 3.328 10.894 7.019.782 1.927 2.411 8.33-1.986 12.911-2.85 2.965-5.127 4.025-10.247 4.025l-9.443.014h-5.365l22.403 25.734c1.027 1.2 1.95 2.253 2.783 3.202l1.511 1.734h.045c3.601 3.943 5.29 5.307 7.166 6.656 3.55 2.557 10.075 5.003 16.445 5.003 6.37 0 11.78-1.957 16.214-5.877 4.517-3.921 6.78-8.643 6.78-14.18.022-3.846-1.184-7.27-3.61-10.264z"/><path fill="#fff" d="M281.763 83.819c-1.272-1.764-1.711-2.09-2.969-3.187-1.034-.904-2.455-1.838-4.048-2.616-2.061-1-4.442-1.786-7.85-1.712l-7.888.03-2.716-.008c-5.127 0-7.404-1.075-10.247-4.099-4.398-4.67-2.768-11.191-1.987-13.156 1.504-3.765 5.648-7.152 10.894-7.152l22.012-.052-3.327-3.869h-18.952c-8.536-.081-12.323 5.166-14.407 9.08-2.723 5.114-1.354 15.298 3.743 19.322 3.632 2.861 5.842 3.699 12.062 3.699l1.578-.008 8.572.104c3.669 0 7.442 1.445 9.994 4.07 2.62 2.541 3.936 5.67 3.936 9.375 0 4.217-1.614 7.849-4.829 10.903-3.296 2.98-7.233 4.52-11.802 4.469-5.99-.067-8.996-1.038-12.672-3.624-1.987-1.394-5.566-5.485-8.915-9.399h-5.164c6.347 7.538 9.145 10.184 11.474 11.889 3.297 2.416 9.354 4.736 15.277 4.736 5.916 0 10.939-1.853 15.061-5.559 4.197-3.706 6.296-8.182 6.296-13.415-.008-3.632-1.02-6.908-3.126-9.82z"/><ellipse cx="79.011" cy="80.114" fill="#FCBC00" rx="11.422" ry="11.377"/><ellipse cx="113.926" cy="106.277" fill="#FCBC00" rx="4.695" ry="4.677"/><path fill="#FCBC00" d="M106.804 111.184a41.72 41.72 0 01-27.793 10.547c-23.075 0-41.79-18.633-41.79-41.625 0-22.984 18.707-41.624 41.79-41.624 23.076 0 41.79 18.633 41.79 41.624a41.334 41.334 0 01-4.137 18.078 8.593 8.593 0 013.155 1.92 44.997 44.997 0 004.673-19.998c0-25.014-20.36-45.293-45.473-45.293-25.115 0-45.474 20.279-45.474 45.293 0 25.015 20.36 45.294 45.474 45.294 11.75 0 22.45-4.44 30.524-11.718a8.418 8.418 0 01-2.739-2.498z"/><g fill="#fff"><ellipse cx="104.155" cy="6.945" rx="4.695" ry="4.677"/><path d="M96.014 2.646C57.35-6.426 17.338 15.031 4.204 53.254A77.685 77.685 0 00.112 73.918C.26 93.04 5.715 105.38 14.987 118.144 3.37 99.77-.12 76.512 7.493 54.365c12.524-36.45 50.63-56.952 87.502-48.413a9.176 9.176 0 011.02-3.306zm17.153 6.181a9.029 9.029 0 01-1.347 3.202 74.226 74.226 0 0127.339 23.496h4.19C135.98 24.4 125.72 15.075 113.166 8.827z"/></g><g fill="#F8F8F8" transform="translate(16.37 18.53)"><ellipse cx="5.454" cy="41.899" rx="4.695" ry="4.677"/><path d="M4.413 50.8c.022-.133.06-.267.082-.4a8.634 8.634 0 01-2.635-.726c-.044.215-.096.422-.134.63a60.952 60.952 0 00-.803 16.543c2.314 14.86 7.977 23.836 16.66 32.708C6.423 86.592 1.035 68.9 4.414 50.8zM73.378 1.275C46.002-3.787 19.511 10.08 7.441 33.568a8.52 8.52 0 012.53 1.038C21.55 12.28 46.791-.874 72.872 3.943a58.382 58.382 0 0127.429 13.067h4.085C96.08 9.154 85.486 3.513 73.378 1.275z"/></g><g fill="#fff"><path d="M157.257 142.482c0 1.49-.469 2.653-1.4 3.489-.93.836-2.204 1.254-3.82 1.254h-6.471V129.92h6.315c1.616 0 2.867.395 3.76 1.193.894.798 1.333 1.923 1.333 3.374 0 .89-.23 1.68-.7 2.387-.469.706-1.117 1.185-1.95 1.451.967.304 1.697.813 2.181 1.528.507.714.752 1.596.752 2.63zm-9.867-4.917h4.297c1.08 0 1.929-.243 2.547-.737.618-.494.923-1.239.923-2.242s-.297-1.763-.9-2.272c-.604-.51-1.453-.768-2.547-.768h-4.32v6.02zm8.043 4.796c0-1.034-.313-1.824-.938-2.356-.626-.54-1.512-.806-2.659-.806h-4.446v6.4h4.424c1.147 0 2.04-.274 2.673-.829.633-.555.946-1.36.946-2.41zm10.373 4.864h-1.824v-7.273l-5.146-10.032h1.974l4.073 8.299 4.096-8.299h1.973l-5.146 10.062v7.243zm14.284-4.165l-1.453 4.165h-1.921l6.27-17.305h1.527l6.27 17.305h-1.921l-1.445-4.165h-7.328zm3.648-10.587l-3.12 9.029h6.27l-3.15-9.029zm8.042 9.865h1.803c.23 2.288 1.601 3.435 4.096 3.435 1.295 0 2.286-.273 2.956-.828.678-.555 1.013-1.353 1.013-2.41 0-.95-.268-1.671-.797-2.158-.536-.486-1.34-.82-2.42-1.003l-1.951-.327c-1.4-.235-2.473-.714-3.225-1.444-.752-.73-1.124-1.748-1.124-3.07 0-1.52.506-2.706 1.526-3.565 1.02-.858 2.354-1.276 4.023-1.276 1.534 0 2.785.395 3.76 1.193.976.798 1.55 1.999 1.735 3.625h-1.802c-.2-2.158-1.437-3.238-3.723-3.238-1.184 0-2.1.282-2.763.844-.655.562-.983 1.322-.983 2.295 0 .851.253 1.52.76 1.991.506.472 1.28.806 2.308.988l1.996.35c1.452.25 2.554.752 3.321 1.505.767.752 1.147 1.816 1.147 3.184 0 1.573-.521 2.79-1.571 3.648-1.05.859-2.487 1.292-4.32 1.292-1.734 0-3.09-.425-4.073-1.277-.983-.85-1.541-2.105-1.69-3.754zm19.735-10.762v15.649h-1.802v-15.649h-4.923v-1.656h11.64v1.656zm8.944 8.049v7.6h-1.825V129.92h6.397c1.616 0 2.882.425 3.813 1.269.93.843 1.385 2.044 1.385 3.602 0 1.239-.328 2.257-.976 3.063-.648.806-1.556 1.338-2.725 1.604l4.073 7.774h-2.1l-3.895-7.6h-4.146v-.007zm4.423-1.581c1.117 0 1.98-.281 2.599-.844.618-.562.923-1.36.923-2.394 0-1.071-.305-1.877-.908-2.424-.61-.54-1.475-.813-2.607-.813h-4.423v6.467h4.416v.008zm8.37 2.759v-4.493c0-2.287.544-3.967 1.624-5.031 1.08-1.064 2.539-1.596 4.37-1.596 1.818 0 3.263.532 4.335 1.596s1.608 2.736 1.608 5.031v4.492c0 2.287-.543 3.967-1.623 5.031-1.08 1.064-2.532 1.596-4.349 1.596-1.832 0-3.284-.532-4.356-1.596-1.073-1.064-1.609-2.736-1.609-5.031zm10.113-4.416c0-3.359-1.37-5.039-4.118-5.039-1.385 0-2.42.396-3.12 1.194-.7.79-1.05 2.074-1.05 3.853v4.514c0 1.687.35 2.919 1.057 3.686.707.768 1.743 1.155 3.113 1.155 2.748 0 4.118-1.61 4.118-4.84v-4.524zm4.297 5.951h1.802c.23 2.288 1.6 3.435 4.096 3.435 1.295 0 2.286-.273 2.956-.828.678-.555 1.013-1.353 1.013-2.41 0-.95-.268-1.671-.797-2.158-.536-.486-1.34-.82-2.42-1.003l-1.951-.327c-1.4-.235-2.473-.714-3.225-1.444-.752-.73-1.124-1.748-1.124-3.07 0-1.52.506-2.706 1.526-3.565 1.02-.858 2.353-1.276 4.022-1.276 1.534 0 2.785.395 3.76 1.193.976.798 1.55 1.999 1.735 3.625h-1.802c-.2-2.158-1.437-3.238-3.723-3.238-1.184 0-2.1.282-2.763.844-.655.562-.983 1.322-.983 2.295 0 .851.253 1.52.76 1.991.506.472 1.28.806 2.308.988l1.996.35c1.452.25 2.554.752 3.321 1.505.767.752 1.147 1.816 1.147 3.184 0 1.573-.521 2.79-1.571 3.648-1.05.859-2.488 1.292-4.32 1.292-1.735 0-3.09-.425-4.073-1.277-.983-.85-1.541-2.105-1.69-3.754zm16.36.722l-1.452 4.165h-1.921l6.27-17.305h1.527l6.27 17.305h-1.921l-1.445-4.165h-7.328zm3.65-10.587l-3.12 9.029h6.27l-3.15-9.029zm12.212-.897v15.649h-1.802v-15.649h-4.922v-1.656h11.639v1.656z"/></g></g></svg>
