<svg xmlns="http://www.w3.org/2000/svg" viewBox="0 0 30 30"><g fill="{currentColor}" fill-rule="evenodd"><path stroke="#f8f8f8" stroke-linecap="square" stroke-width="2" d="M4.5 8.7v16.8m17.4 0H4.5"/><path fill="{currentColor}" fill-rule="nonzero" d="M19.606 12.916a2.139 2.139 0 00-3.37 2.633 2.14 2.14 0 003.37-2.633zm-2.944 2.3a1.598 1.598 0 012.517-1.967 1.597 1.597 0 01-2.516 1.967zm.34 6.125l.265-1.314c2.679-1.71 5.716-4.646 5.231-9.015l-.015-.15a.267.267 0 00-.187-.24c-.035-.011-.083-.03-.142-.051-4.122-1.527-7.706.709-10.014 2.894l-1.338-.06a.27.27 0 00-.237.12L7.67 17.827a.27.27 0 00.155.412l1.5.4-.471.368a.27.27 0 00-.047.38l1.908 2.441a.27.27 0 00.38.046l.47-.368.025 1.553a.275.275 0 00.117.218c.072.05.163.061.246.031l4.874-1.767a.268.268 0 00.174-.2zM9.4 19.267l.473-.37 1.574 2.016-.473.37L9.4 19.267zm2.725 3.404l-.027-1.717c0-.018-.005-.035-.009-.052 0-.006 0-.011-.002-.017a.3.3 0 00-.042-.084l-.005-.008-1.907-2.442-.007-.006a.265.265 0 00-.072-.061l-.015-.007c-.016-.007-.032-.016-.05-.02l-1.658-.442 2.597-3.862 1.302.058a.275.275 0 00.2-.075c2.19-2.102 5.622-4.304 9.53-2.86.457 4.142-2.51 6.939-5.08 8.556a.272.272 0 00-.121.175l-.259 1.278-4.375 1.586zm-2.74-1.427l-.856.67a.272.272 0 01-.38-.047.272.272 0 01.047-.38l.857-.669a.27.27 0 11.332.426zm-.665-.852l-1.71 1.336a.271.271 0 01-.38-.046.272.272 0 01.047-.38l1.71-1.336a.272.272 0 01.38.047.272.272 0 01-.047.38zm1.33 1.704l-1.71 1.336a.271.271 0 01-.379-.047.273.273 0 01.047-.38l1.71-1.335a.271.271 0 01.38.046.272.272 0 01-.047.38z"/></g></svg>
