<svg xmlns="http://www.w3.org/2000/svg" xmlns:xlink="http://www.w3.org/1999/xlink" width="30" height="30" viewBox="0 0 30 30">
    <defs>
        <path id="prefix__a" d="M0 0.088L16.789 0.088 16.789 20.779 0 20.779z"/>
    </defs>
    <g fill="{currentColor}" fill-rule="evenodd" transform="translate(6 4.8)">
        <rect width="16.5" height="18.9" x=".75" y=".75" stroke="#333F48" stroke-width="1.5" rx="2"/>
        <mask id="prefix__b" fill="#fff">
            <use xlink:href="#prefix__a"/>
        </mask>
        <path stroke="#333F48" stroke-linecap="square" d="M.3 3.9L8.1 3.9M0 6.6L7.8 6.6M0 9.6L5.4 9.6M0 12L12.6 12M0 14.4L9.6 14.4M0 16.8L12.6 16.8" mask="url(#prefix__b)"/>
        <g fill="#333F48" fill-rule="nonzero" transform="translate(11.4 1.8)">
            <circle cx="2.4" cy="2.4" r="2.4"/>
            <path d="M1.2 5.779V8.4l1.2-1.2 1.2 1.2V5.779c-.773.295-1.627.295-2.4 0z"/>
        </g>
    </g>
</svg>
