<svg xmlns="http://www.w3.org/2000/svg" xmlns:xlink="http://www.w3.org/1999/xlink" viewBox="0 0 30 30"><defs><path id="a" d="M0 .088h16.789v20.691H0z"/><path id="c" d="M0 0h15v7.8H0z"/></defs><g fill="{currentColor}" fill-rule="evenodd"><g transform="translate(.6 .8)"><mask id="b" fill="{currentColor}"><use xlink:href="#a"/></mask><path fill="{currentColor}" d="M15.46 19.552H1.33a.19.19 0 01-.19-.19V1.329a.19.19 0 01.19-.19h10.46l.036.04v3.42c0 .433.35.783.783.783h3.04v13.98a.19.19 0 01-.19.19m1.18-14.809L12.461.185a.569.569 0 00-.42-.185H1.329C.596 0 0 .597 0 1.33v18.032c0 .732.596 1.329 1.33 1.329h14.13a1.33 1.33 0 001.329-1.329V5.128a.57.57 0 00-.15-.385" mask="url(#b)"/></g><g transform="translate(1.2 8.6)"><mask id="d" fill="{currentColor}"><use xlink:href="#c"/></mask><text fill="{currentColor}" font-family="OpenSans-Semibold, Open Sans" font-size="8" font-weight="500" mask="url(#d)"><tspan x=".664" y="5">Log</tspan></text></g></g></svg>
