<svg xmlns="http://www.w3.org/2000/svg" viewBox="0 0 30 30"><path d="M24 1a3 3 0 013 3v10a3 3 0 01-3 3H5a3 3 0 01-3-3V4a3 3 0 013-3h19zM10.31 9.618l-4.878 5.378a.5.5 0 00.024.693.466.466 0 00.673-.024l4.878-5.381a.5.5 0 00-.043-.672.465.465 0 00-.654.006zm7.486-.025a.5.5 0 00-.023.693l4.876 5.379c.18.198.48.209.673.024a.5.5 0 00.024-.693l-4.877-5.378a.466.466 0 00-.673-.025zm5.21-7.022l-7.96 6.214a.629.629 0 01-.755 0L6.336 2.57a.468.468 0 00-.668.094.5.5 0 00.092.687l7.957 6.214c.566.43 1.338.43 1.904 0l7.96-6.214a.495.495 0 00.183-.324.497.497 0 00-.092-.363.466.466 0 00-.667-.094z"/></svg>
