<svg viewBox="0 0 241 88" fill="none" 
  xmlns="http://www.w3.org/2000/svg">
  <g clip-path="url(#clip0)">
    <path fill-rule="evenodd" clip-rule="evenodd" d="M159.246 75.595V32.931L161.537 36.181V78.862L159.246 75.595Z" fill="currentColor"/>
    <path fill-rule="evenodd" clip-rule="evenodd" d="M149.699 61.504C148.051 59.392 145.893 57.984 143.224 57.28C145.381 56.305 147.086 54.843 148.335 52.894C149.642 50.944 150.295 48.806 150.295 46.477C150.295 42.903 148.845 39.844 145.95 37.297C142.997 34.753 139.476 33.48 135.387 33.48H123.239L125.946 36.589C125.946 36.589 132.377 36.648 135.388 36.648C138.511 36.648 141.181 37.596 143.395 39.491C145.61 41.441 146.718 43.77 146.718 46.477C146.718 49.077 145.922 51.269 144.333 53.057C142.742 54.898 140.84 55.818 138.625 55.818H133.173L135.789 58.825L138.625 58.824C141.407 58.824 143.764 59.798 145.695 61.747C147.683 63.644 148.677 65.972 148.677 68.734C148.677 71.874 147.455 74.582 145.015 76.857C142.515 79.078 139.532 80.227 136.069 80.187C131.528 80.137 129.252 79.415 126.465 77.487C124.768 76.315 122.061 73.243 119.145 69.865L106.849 55.624L111.186 55.637C115.561 55.637 117.119 55.061 119.675 53.08C123.262 50.3 124.227 43.253 122.307 39.715C120.84 37.01 118.177 33.377 112.169 33.435L87.173 33.492L89.433 36.1L111.984 36.144C115.674 36.144 118.594 38.489 119.65 41.092C120.201 42.448 121.35 46.962 118.254 50.191C116.249 52.283 114.647 53.025 111.039 53.025L104.394 53.034H100.619L116.387 71.17C117.111 72.015 117.759 72.76 118.347 73.424L119.411 74.649H119.445C121.98 77.429 123.171 78.391 124.491 79.341C126.991 81.141 131.583 82.867 136.069 82.867C140.554 82.867 144.361 81.487 147.484 78.725C150.664 75.963 152.254 72.633 152.254 68.734C152.254 66.026 151.403 63.616 149.699 61.504" fill="#F6BE00"/>
    <path fill-rule="evenodd" clip-rule="evenodd" d="M198.246 58.674C197.348 57.432 197.039 57.203 196.154 56.428C195.424 55.79 194.427 55.133 193.304 54.586C191.854 53.879 190.174 53.326 187.78 53.377L182.227 53.397L180.315 53.394C176.708 53.394 175.106 52.638 173.1 50.506C170.004 47.216 171.154 42.618 171.705 41.236C172.761 38.585 175.68 36.196 179.371 36.196L194.865 36.159L192.525 33.434H179.187C173.179 33.376 170.514 37.077 169.047 39.834C167.128 43.438 168.093 50.618 171.68 53.451C174.236 55.468 175.792 56.056 180.169 56.056L181.282 56.052L187.315 56.123C189.899 56.123 192.553 57.143 194.346 58.988C196.192 60.783 197.116 62.985 197.116 65.598C197.116 68.572 195.981 71.133 193.714 73.286C191.392 75.386 188.623 76.474 185.406 76.436C181.188 76.388 179.076 75.706 176.486 73.882C175.088 72.899 172.566 70.017 170.213 67.257H166.578C171.044 72.569 173.016 74.437 174.653 75.637C176.976 77.34 181.239 78.974 185.406 78.974C189.572 78.974 193.107 77.667 196.008 75.054C198.961 72.44 200.438 69.289 200.438 65.599C200.438 63.037 199.731 60.729 198.246 58.674" fill="currentColor"/>
    <path fill-rule="evenodd" clip-rule="evenodd" d="M63.567 56.061C63.567 60.488 59.968 64.078 55.529 64.078C51.09 64.078 47.491 60.488 47.491 56.061C47.491 51.634 51.091 48.045 55.529 48.045C59.969 48.045 63.567 51.635 63.567 56.061" fill="#F6BE00"/>
    <path fill-rule="evenodd" clip-rule="evenodd" d="M83.311 73.701C83.753 75.467 82.678 77.256 80.908 77.697C79.138 78.139 77.344 77.066 76.902 75.3C76.46 73.535 77.535 71.746 79.305 71.305C81.075 70.864 82.869 71.937 83.311 73.702" fill="#F6BE00"/>
    <mask id="mask0" mask-type="alpha" maskUnits="userSpaceOnUse" x="23" y="24" width="65" height="64">
      <path d="M23.52 24.137H87.539V87.986H23.52V24.137Z" fill="currentColor"/>
    </mask>
    <g mask="url(#mask0)">
      <path fill-rule="evenodd" clip-rule="evenodd" d="M75.092 77.961C69.894 82.584 63.042 85.397 55.529 85.397C39.285 85.397 26.116 72.263 26.116 56.061C26.116 39.859 39.285 26.725 55.529 26.725C71.774 26.725 84.943 39.859 84.943 56.061C84.943 60.627 83.896 64.95 82.03 68.803C82.87 69.093 83.624 69.557 84.25 70.157C86.353 65.905 87.539 61.122 87.539 56.061C87.539 38.431 73.207 24.137 55.529 24.137C37.852 24.137 23.52 38.43 23.52 56.061C23.52 73.692 37.85 87.986 55.53 87.986C63.798 87.986 71.334 84.858 77.014 79.724C76.252 79.281 75.595 78.68 75.093 77.961" fill="#F6BE00"/>
    </g>
    <path fill-rule="evenodd" clip-rule="evenodd" d="M76.526 4.705C76.407 6.521 74.834 7.898 73.013 7.779C71.193 7.661 69.813 6.093 69.933 4.276C70.05 2.46 71.623 1.084 73.444 1.202C75.264 1.321 76.644 2.889 76.526 4.705" fill="currentColor"/>
    <mask id="mask1" mask-type="alpha" maskUnits="userSpaceOnUse" x="0" y="0" width="68" height="83">
      <path d="M0 0H67.501V82.868H0V0Z" fill="currentColor"/>
    </mask>
    <g mask="url(#mask1)">
      <path fill-rule="evenodd" clip-rule="evenodd" d="M67.501 1.459C40.286 -4.937 12.12 10.189 2.87899 37.128C1.22499 41.95 0.285993 46.843 -0.00100708 51.694C0.103993 65.172 3.94299 73.869 10.469 82.868C2.29099 69.917 -0.161007 53.528 5.19299 37.918C14.006 12.228 40.829 -2.222 66.786 3.796C66.877 2.955 67.124 2.166 67.501 1.459" fill="currentColor"/>
      <path fill-rule="evenodd" clip-rule="evenodd" d="M79.571 5.819C79.399 6.643 79.073 7.405 78.623 8.078C86.491 12.029 93.019 17.778 97.867 24.637H100.818C95.631 16.791 88.406 10.221 79.571 5.819ZM18.575 42.4C18.457 44.216 16.885 45.592 15.063 45.474C13.243 45.355 11.863 43.787 11.982 41.97C12.101 40.154 13.672 38.778 15.493 38.897C17.315 39.015 18.694 40.584 18.575 42.4ZM14.543 48.462C14.56 48.367 14.585 48.274 14.603 48.179C13.943 48.106 13.32 47.929 12.745 47.666C12.716 47.816 12.679 47.962 12.651 48.112C11.918 52.052 11.75 55.966 12.084 59.773C13.714 70.246 17.699 76.573 23.811 82.829C15.96 73.688 12.169 61.217 14.543 48.462V48.462ZM63.089 13.553C43.819 9.987 25.171 19.759 16.679 36.316C17.32 36.466 17.92 36.714 18.461 37.048C26.609 21.313 44.379 12.041 62.739 15.438C70.148 16.81 76.712 20.084 82.047 24.647H84.924C79.072 19.108 71.614 15.13 63.089 13.553" fill="currentColor"/>
    </g>
    <path d="M209.869 72.9536H206.388L205.193 75.977H204.531L207.976 67.3754H208.357L211.732 75.977H211.058L209.869 72.9536ZM206.605 72.4145H209.67L208.504 69.3266C208.406 69.0844 208.289 68.7485 208.152 68.3188C208.047 68.6938 207.931 69.0336 207.806 69.3383L206.605 72.4145ZM219.455 71.6118C219.455 73.0493 219.078 74.1372 218.324 74.8754C217.57 75.6098 216.463 75.977 215.002 75.977H212.951V67.4106H215.265C216.633 67.4106 217.672 67.768 218.383 68.4829C219.097 69.1977 219.455 70.2407 219.455 71.6118ZM218.804 71.6352C218.804 70.4086 218.492 69.4868 217.867 68.8696C217.246 68.2485 216.332 67.9379 215.125 67.9379H213.549V75.4497H214.967C217.525 75.4497 218.804 74.1782 218.804 71.6352ZM225.191 75.977L221.998 68.0668H221.951C221.982 68.5512 221.998 69.0473 221.998 69.5551V75.977H221.424V67.4106H222.349L225.385 74.9458H225.42L228.455 67.4106H229.357V75.977H228.754V69.4848C228.754 69.0317 228.777 68.5629 228.824 68.0786H228.777L225.572 75.977H225.191ZM231.783 75.977V67.4106H232.381V75.977H231.783ZM241.035 75.977H240.431L235.357 68.3715H235.31C235.357 69.2778 235.381 69.9614 235.381 70.4223V75.977H234.806V67.4106H235.404L240.472 75.0043H240.508C240.472 74.3012 240.455 73.6333 240.455 73.0004V67.4106H241.035V75.977Z" fill="#F6BE00"/>
  </g>
  <defs>
    <clipPath id="clip0">
      <rect width="241" height="88" fill="currentColor"/>
    </clipPath>
  </defs>
</svg>
