<svg xmlns="http://www.w3.org/2000/svg" xmlns:xlink="http://www.w3.org/1999/xlink" width="64" height="64"><defs><path id="a" d="M.118.123h36.173v35.868H.118z"/><path id="c" d="M0 .06h38.142v46.553H0z"/></defs><g fill="none" fill-rule="evenodd"><path fill="#FFF" d="M0 0h64v64H0z"/><g transform="translate(4 7)"><path fill="#F6BE00" d="M31.377 36.057c-2.508 0-4.541-2.016-4.541-4.503s2.033-4.504 4.541-4.504c2.509 0 4.542 2.017 4.542 4.504 0 2.487-2.033 4.503-4.542 4.503z"/><path fill="#FCBA12" d="M47.076 41.464a1.85 1.85 0 01-1.359 2.244 1.867 1.867 0 01-2.263-1.347 1.85 1.85 0 011.358-2.244c1-.248 2.014.355 2.264 1.347"/><g transform="translate(13.173 13.497)"><mask id="b" fill="#fff"><use xlink:href="#a"/></mask><path fill="#F6BE00" d="M29.259 30.36a16.642 16.642 0 01-11.055 4.176c-9.179 0-16.62-7.378-16.62-16.48 0-9.101 7.441-16.48 16.62-16.48 9.18 0 16.62 7.379 16.62 16.48 0 2.566-.59 4.994-1.645 7.159.474.162.9.423 1.254.76a17.725 17.725 0 001.858-7.919c0-9.904-8.098-17.933-18.087-17.933C8.215.123.118 8.153.118 18.056c0 9.905 8.097 17.935 18.086 17.935 4.673 0 8.93-1.758 12.14-4.641a3.44 3.44 0 01-1.085-.99" mask="url(#b)"/></g><path fill="#787C82" d="M41.257 4.43a1.855 1.855 0 01-1.741-1.968A1.86 1.86 0 0141.5.736a1.857 1.857 0 011.742 1.968 1.862 1.862 0 01-1.985 1.726z"/><mask id="d" fill="#fff"><use xlink:href="#c"/></mask><path fill="#787C82" d="M38.142.88C22.764-2.713 6.85 5.785 1.628 20.918A30.612 30.612 0 000 29.1c.06 7.572 2.228 12.457 5.916 17.513C1.296 39.337-.09 30.13 2.935 21.36 7.915 6.93 23.07-1.189 37.738 2.193c.052-.473.191-.916.404-1.313" mask="url(#d)"/><path fill="#787C82" d="M44.962 3.33c-.097.462-.281.89-.535 1.268A29.5 29.5 0 0155.301 13.9h1.667A30.838 30.838 0 0044.962 3.33"/><path fill="#A0AAB1" d="M10.497 23.88a1.862 1.862 0 01-1.985 1.726 1.857 1.857 0 01-1.741-1.968 1.861 1.861 0 011.984-1.727 1.857 1.857 0 011.742 1.968m-2.279 3.406c.01-.054.024-.106.034-.16a3.403 3.403 0 01-1.05-.288c-.016.085-.037.167-.053.251a24.018 24.018 0 00-.32 6.55c.92 5.884 3.172 9.439 6.626 12.953-4.436-5.135-6.578-12.141-5.237-19.306M35.65 7.674C24.76 5.67 14.223 11.16 9.424 20.46c.363.085.701.224 1.007.412 4.604-8.84 14.645-14.049 25.02-12.14 4.185.77 7.895 2.61 10.91 5.173h1.625a24.374 24.374 0 00-12.338-6.232"/></g></g></svg>
