<svg width="30" height="30" viewBox="0 0 30 30" fill="none" xmlns="http://www.w3.org/2000/svg">
<path d="M29.5118 27.1546L23.8666 21.5103C25.686 19.1732 26.6717 16.2948 26.6669 13.333C26.6661 5.97008 20.6968 0 13.333 0C5.97008 0 0 5.97008 0 13.333C0 20.696 5.97008 26.6669 13.333 26.6669C16.2948 26.6717 19.1732 25.686 21.5103 23.8666L27.1546 29.5118C27.3094 29.6666 27.4932 29.7894 27.6954 29.8731C27.8976 29.9569 28.1143 30 28.3332 30C28.5521 30 28.7689 29.9569 28.9711 29.8731C29.1733 29.7894 29.357 29.6666 29.5118 29.5118C29.6666 29.357 29.7894 29.1733 29.8731 28.9711C29.9569 28.7689 30 28.5521 30 28.3332C30 28.1143 29.9569 27.8976 29.8731 27.6954C29.7894 27.4932 29.6666 27.3094 29.5118 27.1546V27.1546ZM13.333 23.3334C7.81039 23.3334 3.33347 18.8565 3.33347 13.333C3.33347 7.81039 7.81039 3.33347 13.333 3.33347C18.8565 3.33347 23.3334 7.81039 23.3334 13.333C23.3334 18.8565 18.8565 23.3334 13.333 23.3334Z" fill="black"/>
</svg>
