

<svg xmlns="http://www.w3.org/2000/svg" viewBox="0 0 50 51"><path fill="currentColor" d="M36.766 41.733h-23.55a.317.317 0 01-.317-.316V11.363c0-.175.142-.317.317-.317H30.65l.06.065v5.7c0 .722.584 1.307 1.305 1.307h5.067v23.299a.318.318 0 01-.316.316m1.966-24.68l-6.964-7.599a.949.949 0 00-.7-.308H13.216A2.218 2.218 0 0011 11.363v30.054c0 1.22.994 2.214 2.216 2.214h23.55a2.218 2.218 0 002.215-2.214V17.694a.948.948 0 00-.25-.642"/><path fill="currentColor" d="M29.364 29.876a.904.904 0 01-.886.786.884.884 0 01-.782-.494.9.9 0 01-.104-.426.91.91 0 01.724-.9h.042a.679.679 0 01.128 0 .906.906 0 01.896.914v.002a.73.73 0 01-.026.118h.008zm-7.881-2.76h-.013a.983.983 0 01-.154 0 .906.906 0 01-.896-.914v-.003a.77.77 0 010-.11.898.898 0 011.01-.78c.488.07.829.535.76 1.036a.907.907 0 01-.707.771zm-5.276 5.696a.895.895 0 01-1.054.716.917.917 0 01-.697-1.082.902.902 0 01.79-.73h.086a.908.908 0 01.875 1.088v.008zm19.157-10.697L32.39 22a.5.5 0 00-.511.491.517.517 0 00.141.373l1.076 1.105-3.564 3.65a2.276 2.276 0 00-2.746.479l-3.173-1.565a2.6 2.6 0 00.02-.318c.044-1.32-.963-2.425-2.25-2.47-1.285-.044-2.362.99-2.405 2.31a2.727 2.727 0 000 .16c0 .4.097.792.284 1.142l-2.89 3.129a2.255 2.255 0 00-1.041-.268c-1.286-.001-2.329 1.068-2.331 2.389-.001 1.32 1.04 2.391 2.327 2.393 1.286.002 2.33-1.068 2.331-2.388v-.005a2.409 2.409 0 00-.26-1.102l2.91-3.148a2.28 2.28 0 002.683-.503l3.181 1.567a2.66 2.66 0 00-.02.321c-.044 1.32.964 2.426 2.25 2.47 1.285.044 2.362-.99 2.405-2.31a2.338 2.338 0 000-.16 2.394 2.394 0 00-.26-1.07l3.569-3.65 1.042 1.07c.191.198.503.2.696.003A.513.513 0 0036 25.71l-.147-3.087a.497.497 0 00-.484-.508h-.005z"/></svg>