<svg xmlns="http://www.w3.org/2000/svg" viewBox="0 0 50 50">
  <g fill="#f6be00">
    <path d="M12.73 18.437v.024l11.196 5.897.011-.004c.32.167.678.271 1.063.271.385 0 .743-.104 1.064-.271l.012.004 11.196-5.897v-.024A1.22 1.22 0 0038 17.312c0-.51-.305-.945-.74-1.126l-11.178-5.915h-.02A2.281 2.281 0 0025 10c-.383 0-.741.104-1.061.271h-.021l-11.179 5.915c-.433.18-.739.616-.739 1.126 0 .507.3.941.73 1.125z"/>
    <path d="M37.26 23.499l-2.187-1.159a2138.126 2138.126 0 01-8.173 4.3 4.493 4.493 0 01-3.806-.002c-.052-.02-4.734-2.484-8.167-4.298l-2.188 1.16c-.434.18-.739.616-.739 1.126 0 .507.3.94.73 1.124v.025l11.196 5.897.011-.005c.32.167.678.271 1.063.271.385 0 .743-.104 1.064-.27l.012.004 11.196-5.897v-.025c.427-.183.728-.617.728-1.124 0-.51-.305-.946-.74-1.126z"/>
    <path d="M37.26 30.811l-2.187-1.158a2138.126 2138.126 0 01-8.173 4.3 4.493 4.493 0 01-3.806-.002c-.052-.02-4.734-2.485-8.167-4.298l-2.188 1.158c-.434.18-.739.616-.739 1.126 0 .507.3.941.73 1.125v.024l11.196 5.897.011-.004c.32.167.678.271 1.063.271.385 0 .743-.104 1.064-.271l.012.004 11.196-5.897v-.024A1.22 1.22 0 0038 31.937c0-.51-.305-.945-.74-1.126z"/>
  </g>
</svg>
