<svg xmlns="http://www.w3.org/2000/svg" viewBox="0 0 50 51"><g fill="#333F48"><path d="M29.095 21.667a.68.68 0 00-.666.692V35.45a.68.68 0 00.666.693.68.68 0 00.667-.693V22.36a.68.68 0 00-.667-.693zm-8.19 0a.68.68 0 00-.667.692V35.45a.68.68 0 00.667.693.68.68 0 00.666-.693V22.36a.68.68 0 00-.666-.693z"/><path d="M14.965 19.79v17.035c0 1.007.37 1.952 1.016 2.63a3.41 3.41 0 002.472 1.069h13.094a3.409 3.409 0 002.472-1.068c.646-.679 1.016-1.624 1.016-2.631V19.79a2.641 2.641 0 00-.679-5.194h-3.543v-.865a2.715 2.715 0 00-2.74-2.73h-6.146a2.72 2.72 0 00-2.74 2.73v.865h-3.543a2.641 2.641 0 10-.678 5.194zm16.582 19.35H18.453c-1.183 0-2.103-1.016-2.103-2.316V19.85h17.3v16.975c0 1.3-.92 2.316-2.103 2.316zM20.57 13.731a1.33 1.33 0 011.356-1.348h6.146a1.333 1.333 0 011.356 1.348v.865H20.57v-.865zm-4.927 2.247h18.712a1.245 1.245 0 110 2.49H15.644a1.245 1.245 0 110-2.49z"/><path d="M24.905 21.667a.68.68 0 00-.667.692V35.45a.68.68 0 00.667.693.68.68 0 00.666-.693V22.36a.68.68 0 00-.666-.693z"/></g></svg>