<svg xmlns="http://www.w3.org/2000/svg" viewBox="0 0 25 25"><g fill="none" fill-rule="evenodd"><circle cx="12.5" cy="12.5" r="12.5" fill="#F6BE00"/><path fill="#333F48" fill-rule="nonzero" d="M18.75 9.167c.23 0 .417-.187.417-.417v-2.5a.417.417 0 00-.417-.417h-2.5a.417.417 0 00-.417.417v.833H9.167V6.25a.417.417 0 00-.417-.417h-2.5a.417.417 0 00-.417.417v2.5c0 .23.187.417.417.417h.833v6.666H6.25a.417.417 0 00-.417.417v2.5c0 .23.187.417.417.417h2.5c.23 0 .417-.187.417-.417v-.833h6.666v.833c0 .23.187.417.417.417h2.5c.23 0 .417-.187.417-.417v-2.5a.417.417 0 00-.417-.417h-.833V9.167h.833zm-2.083-2.5h1.666v1.666h-1.666V6.667zm-10 0h1.666v1.666H6.667V6.667zm1.666 11.666H6.667v-1.666h1.666v1.666zm10 0h-1.666v-1.666h1.666v1.666zm-1.25-2.5h-.833a.417.417 0 00-.417.417v.833H9.167v-.833a.417.417 0 00-.417-.417h-.833V9.167h.833c.23 0 .417-.187.417-.417v-.833h6.666v.833c0 .23.187.417.417.417h.833v6.666z"/></g></svg>