<svg xmlns="http://www.w3.org/2000/svg" viewBox="0 0 25 25"><path d="M.424 23.287l-.396 1.091a.46.46 0 00.108.486c.127.127.316.17.485.108l1.093-.395a.35.35 0 01.046-.014l8.24-8.24-.661-.662L8.678 15l-8.24 8.24c-.003.016-.01.032-.014.047zm16.445-3.062a.448.448 0 000-.633L5.409 8.127a.454.454 0 00-.631 0l-.647.644a.446.446 0 000 .632L15.59 20.87a.45.45 0 00.633 0l.645-.644zm6.649-11.359c.186.179.48.179.665 0l.68-.679a.473.473 0 000-.666L17.482.134a.481.481 0 00-.667 0l-.678.678a.476.476 0 000 .667l7.38 7.388zM16.84 3C15.64 4.163 11.4 8.13 8 9.607L15.392 17C16.87 13.6 20.838 9.358 22 8.158L16.84 3zm-3 4.941c-.386.269-.765.517-1.13.738a.452.452 0 01-.469-.774c.346-.21.71-.448 1.079-.705a.451.451 0 01.71.332.458.458 0 01-.192.41h.002zm1.494-1.119a.452.452 0 11-.563-.707c.57-.456 1.15-.95 1.718-1.462a.452.452 0 11.606.671 37.897 37.897 0 01-1.76 1.498z" fill="#F6BE00"/></svg>