<svg viewBox="0 0 50 50">
  <path d="m 0.84836876,46.574011 -0.79198517,2.181964 a 0.91998278,0.91998481 0 0 0 0.21599595,0.971983 c 0.25399525,0.253996 0.63198817,0.339995 0.96998186,0.215997 l 2.1859591,-0.789987 a 0.6999869,0.69998845 0 0 1 0.091998,-0.028 L 20.00001,32.64624 18.678035,31.322262 17.35606,30.000284 0.87636824,46.480012 c -0.006,0.032 -0.0199996,0.064 -0.0279995,0.094 z M 33.737753,40.450112 a 0.89598323,0.89598521 0 0 0 0,-1.265979 L 10.818182,16.254511 a 0.907983,0.90798501 0 0 0 -1.2619762,0 L 8.26223,17.54249 a 0.8919833,0.89198528 0 0 0 0,1.263979 L 31.179801,41.74009 a 0.89998315,0.89998515 0 0 0 1.265976,0 l 1.289976,-1.287978 z M 47.035504,17.732487 c 0.371993,0.357994 0.959982,0.357994 1.329975,0 l 1.359975,-1.357978 a 0.94598229,0.94598439 0 0 0 0,-1.331978 L 34.96373,0.26877495 a 0.96198199,0.96198412 0 0 0 -1.333975,0 L 32.27378,1.624752 a 0.95198218,0.95198429 0 0 0 0,1.333978 L 47.033504,17.734486 Z M 33.679754,6.00068 C 31.279799,8.326642 22.799958,16.260511 16.000085,19.214462 L 30.783808,34.000218 C 33.739753,27.20033 41.675604,18.71647 43.999561,16.31651 Z m -5.999888,9.881837 c -0.771985,0.537991 -1.529971,1.033983 -2.259957,1.475976 a 0.90498986,0.90499186 0 0 1 -0.937983,-1.547975 c 0.691987,-0.419993 1.419974,-0.895985 2.15796,-1.409976 a 0.90198312,0.90198511 0 0 1 1.419973,0.663989 0.91598285,0.91598488 0 0 1 -0.383992,0.819986 h 0.004 z m 2.987945,-2.237963 a 0.90398308,0.90398508 0 1 1 -1.125979,-1.413977 c 1.139978,-0.911985 2.299957,-1.899968 3.435935,-2.923951 a 0.90412771,0.90412971 0 1 1 1.211978,1.341978 75.792581,75.792749 0 0 1 -3.519934,2.99595 z" fill="{currentColor}" />
</svg>
