<svg xmlns="http://www.w3.org/2000/svg" viewBox="0 0 50 51"><g fill="none" fill-rule="evenodd"><path fill="currentColor" fill-rule="nonzero" d="M42.43 40.68l-6.586-6.585a15.49 15.49 0 003.267-9.54C39.11 15.965 32.146 9 23.555 9 14.965 9 8 15.965 8 24.555s6.965 15.556 15.555 15.556a15.49 15.49 0 009.54-3.267l6.585 6.586a1.943 1.943 0 102.75-2.75zm-18.875-4.458c-6.443 0-11.666-5.223-11.666-11.667 0-6.443 5.223-11.666 11.666-11.666 6.444 0 11.667 5.223 11.667 11.666 0 6.444-5.223 11.667-11.667 11.667z"/><path stroke="#A2AAAD" stroke-width=".1" d="M23.321 21l.679.393-.321.607-.679-.394zm3.001 2l.678.393-.322.607-.678-.393zm-2.923 1l.601.317-.398.683-.602-.317z"/><g fill="currentColor"><path d="M21.602 28.349a.262.262 0 00.253-.458.263.263 0 00-.255.458h.001zm-.38.686a1.048 1.048 0 01-.407-1.423 1.044 1.044 0 111.827 1.014c-.28.506-.915.69-1.42.41v-.001z"/><path d="M19.545 28.746a.393.393 0 01.753-.217 1.484 1.484 0 001.841 1.024.392.392 0 11.216.754 2.27 2.27 0 01-2.81-1.561z"/><path d="M18.416 29.07a.392.392 0 11.753-.216c.194.681.65 1.256 1.27 1.599a2.65 2.65 0 002.025.231.392.392 0 01.216.755 3.43 3.43 0 01-2.622-.3 3.441 3.441 0 01-1.642-2.069zm.417-12.017l4.684 2.602c.127.07.172.23.102.356l-1.235 2.233a.261.261 0 01-.355.102l-4.683-2.602a.261.261 0 01-.102-.356l1.235-2.233a.26.26 0 01.354-.102zm-.126.23l-1.235 2.232 4.684 2.602 1.235-2.233-4.684-2.602z"/><path d="M18.833 17.053l4.684 2.602c.127.07.172.23.102.356l-1.235 2.233a.261.261 0 01-.355.102l-4.683-2.602a.261.261 0 01-.102-.356l1.235-2.233a.26.26 0 01.354-.102zm-.126.23l-1.235 2.232 4.684 2.602 1.235-2.233-4.684-2.602zm9.259 4.843l4.684 2.602c.127.07.172.23.102.356l-1.235 2.233a.261.261 0 01-.355.102l-4.684-2.602a.261.261 0 01-.101-.356l1.234-2.233a.26.26 0 01.355-.102zm-.126.23l-1.235 2.232 4.684 2.602 1.235-2.233-4.684-2.602z"/><path d="M27.966 22.126l4.684 2.602c.127.07.172.23.102.356l-1.235 2.233a.261.261 0 01-.355.102l-4.684-2.602a.261.261 0 01-.101-.356l1.234-2.233a.26.26 0 01.355-.102zm-.126.23l-1.235 2.232 4.684 2.602 1.235-2.233-4.684-2.602zM26.676 19.2a1.41 1.41 0 01.548 1.913l-1.752 3.168a.32.32 0 01-.435.125l-1.897-1.054a.322.322 0 01-.125-.436l1.752-3.167a1.403 1.403 0 011.91-.55zm-3.016 5.455c1.092.606 1.343 1.443.753 2.51l-3.275-1.82c.59-1.066 1.43-1.297 2.522-.69z"/></g></g></svg>