<svg xmlns="http://www.w3.org/2000/svg" viewBox="0 0 50 51"><path fill="#333F48" d="M38.156 23.125h-1.73a8.45 8.45 0 00-7.551-7.55v-1.731a.844.844 0 00-.844-.844H22.97a.844.844 0 00-.844.844v1.73a8.45 8.45 0 00-7.55 7.551h-1.731a.844.844 0 00-.844.844v5.062c0 .466.378.844.844.844h1.73a8.451 8.451 0 007.551 7.55v1.731c0 .466.378.844.844.844h5.062a.844.844 0 00.844-.844v-1.73a8.451 8.451 0 007.55-7.551h1.731a.844.844 0 00.844-.844V23.97a.844.844 0 00-.844-.844zm-14.343-8.438h3.375v3.376h-3.375v-3.375zM13.688 24.813h3.374v3.375h-3.375v-3.375zm13.5 13.5h-3.375v-3.376h3.375v3.376zm1.687-2.59v-1.63a.844.844 0 00-.844-.843H22.97a.844.844 0 00-.844.844v1.629a6.757 6.757 0 01-5.848-5.848h1.63a.844.844 0 00.843-.844V23.97a.844.844 0 00-.844-.844h-1.629a6.757 6.757 0 015.848-5.848v1.63c0 .465.378.843.844.843h5.062a.844.844 0 00.844-.844v-1.629a6.756 6.756 0 015.848 5.848h-1.63a.844.844 0 00-.843.844v5.062c0 .466.378.844.844.844h1.629a6.757 6.757 0 01-5.848 5.848zm8.438-7.535h-3.376v-3.375h3.376v3.375z"/></svg>