<svg xmlns="http://www.w3.org/2000/svg" xmlns:xlink="http://www.w3.org/1999/xlink" viewBox="0 0 50 51"><defs><path id="a" d="M.024.025h7.218v7.224H.024z"/><path id="c" d="M0 .012h7.612V9.39H0z"/></defs><g fill="none" fill-rule="evenodd"><path stroke="#333F48" d="M24.293 41.707a.999.999 0 001.414 0C26.127 41.287 36 31.296 36 21c0-6.065-4.935-11-11-11s-11 4.935-11 11c0 10.296 9.873 20.287 10.293 20.707z"/><path fill="#F6BE00" d="M25.074 23.887a.907.907 0 11.001-1.813.907.907 0 010 1.813z"/><path fill="#FCBA12" d="M28.207 24.976a.373.373 0 11-.723.181.373.373 0 01.723-.18"/><g transform="translate(21.441 19.344)"><mask id="b" fill="#fff"><use xlink:href="#a"/></mask><path fill="#F6BE00" d="M5.839 6.115A3.318 3.318 0 01.316 3.637 3.318 3.318 0 013.633.317 3.318 3.318 0 016.62 5.08c.095.032.18.085.25.153A3.61 3.61 0 003.633.025 3.61 3.61 0 00.025 3.637a3.61 3.61 0 006.032 2.677.685.685 0 01-.217-.2" mask="url(#b)"/></g><path fill="#787C82" d="M27.046 17.517a.373.373 0 11.049-.743.373.373 0 01-.05.743z"/><g transform="translate(18.813 16.625)"><mask id="d" fill="#fff"><use xlink:href="#c"/></mask><path fill="#787C82" d="M7.612.177A6.205 6.205 0 000 5.861c.012 1.525.445 2.51 1.18 3.528a5.926 5.926 0 01-.594-5.086A5.93 5.93 0 017.53.442a.73.73 0 01.08-.265" mask="url(#d)"/></g><path fill="#787C82" d="M27.785 17.296a.728.728 0 01-.107.255 5.898 5.898 0 012.17 1.874h.333a6.174 6.174 0 00-2.396-2.13"/><path fill="#A0AAB1" d="M20.907 21.435a.373.373 0 11-.743-.048.373.373 0 01.743.048m-.455.685l.007-.031a.68.68 0 01-.21-.059c-.002.017-.007.034-.01.051a4.892 4.892 0 00-.064 1.32c.184 1.184.633 1.9 1.323 2.608a4.66 4.66 0 01-1.046-3.888m5.475-3.951a4.88 4.88 0 00-5.234 2.576c.073.017.14.045.201.083a4.663 4.663 0 014.993-2.445 4.63 4.63 0 012.177 1.042h.325a4.848 4.848 0 00-2.462-1.255"/></g></svg>