<svg xmlns="http://www.w3.org/2000/svg" viewBox="0 0 50 51"><g fill="none" fill-rule="evenodd"><path fill="#333F48" d="M35.965 16.467L24.377 35.754l-4.5-2.704 11.588-19.286z"/><path fill="#333F48" stroke="#333F48" d="M35.45 16.596L24.249 35.239l-3.857-2.317 11.202-18.644z"/><path fill="#333F48" d="M20.468 32.968l3.7 2.223c-.414.428-1.181 1.2-2.002 1.926-2.251 1.992-2.74 1.737-2.745 1.734-.004-.002-.457-.312.267-3.224.264-1.063.593-2.097.78-2.66"/><path fill="#333F48" d="M19.228 39.173c-1.125-.676 1.035-6.766 1.035-6.766l4.5 2.704s-4.41 4.738-5.535 4.062m.44-.728c.298-.11 1.021-.493 2.49-1.823a37.068 37.068 0 001.41-1.354l-2.89-1.736a38.17 38.17 0 00-.545 1.865c-.5 1.915-.506 2.732-.465 3.048"/><path fill="#333F48" stroke="#333F48" d="M36.416 14.989l-.772 1.285a1.125 1.125 0 01-1.544.386l-1.928-1.16a1.124 1.124 0 01-.386-1.543l.773-1.286a1.126 1.126 0 011.544-.385l1.928 1.158c.533.32.705 1.012.385 1.545z"/><path stroke="#333F48" d="M14.265 39.541c.82-.82.833-1.546 1.292-1.167.376.314.733.652 1.069 1.01.306.315.792.6 1.083.504.258-.04.495-.162.68-.346.141-.17.294-.327.458-.473a.703.703 0 01.584-.22c.194.03.15-.222.278 0"/></g></svg>