<svg width="24" height="24" viewBox="0 0 24 24" fill="none" xmlns="http://www.w3.org/2000/svg">
<path d="M12 24C18.6274 24 24 18.6274 24 12C24 5.37258 18.6274 0 12 0C5.37258 0 0 5.37258 0 12C0 18.6274 5.37258 24 12 24Z" fill="#F50057"/>
<path d="M12 12C13.3255 12 14.4 10.9255 14.4 9.6C14.4 8.27452 13.3255 7.2 12 7.2C10.6745 7.2 9.6 8.27452 9.6 9.6C9.6 10.9255 10.6745 12 12 12Z" fill="white"/>
<path d="M8.8 17.6C10.1255 17.6 11.2 16.5255 11.2 15.2C11.2 13.8745 10.1255 12.8 8.8 12.8C7.47452 12.8 6.4 13.8745 6.4 15.2C6.4 16.5255 7.47452 17.6 8.8 17.6Z" fill="white"/>
<path d="M15.2 17.6C16.5255 17.6 17.6 16.5255 17.6 15.2C17.6 13.8745 16.5255 12.8 15.2 12.8C13.8745 12.8 12.8 13.8745 12.8 15.2C12.8 16.5255 13.8745 17.6 15.2 17.6Z" fill="white"/>
</svg>
