<svg viewBox="0 0 30 30" 
  xmlns="http://www.w3.org/2000/svg">
  <path d="M24.194 28.818H1.935M1.935 1.54797V28.149V1.54797Z" stroke="currentColor" stroke-width="2" stroke-linecap="square"/>
  <path fill-rule="evenodd" clip-rule="evenodd" d="M22.305 9.20098C21.382 8.01998 19.522 7.92598 18.159 8.99098C16.795 10.056 16.437 11.883 17.36 13.064C18.283 14.245 20.143 14.34 21.506 13.274C22.869 12.21 23.227 10.382 22.305 9.20098ZM17.985 12.575C17.296 11.693 17.564 10.328 18.582 9.53298C19.6 8.73698 20.989 8.80798 21.679 9.68998C22.368 10.572 22.1 11.937 21.082 12.732C20.064 13.528 18.675 13.458 17.986 12.575H17.985ZM17.883 20.791L18.377 18.998C22.27 16.444 26.777 12.203 26.513 6.36498C26.509 6.27998 26.506 6.21298 26.506 6.16398C26.506 6.01498 26.412 5.89398 26.268 5.85898C26.22 5.84698 26.156 5.82698 26.074 5.80298C20.474 4.13398 15.269 7.48298 11.848 10.642L9.988 10.687C9.858 10.69 9.728 10.76 9.647 10.87L5.209 16.937C5.135 17.039 5.111 17.164 5.146 17.271C5.181 17.378 5.27 17.454 5.386 17.477L7.439 17.874L6.748 18.414C6.575 18.549 6.53 18.78 6.647 18.93L9.076 22.039C9.193 22.189 9.428 22.2 9.601 22.065L10.292 21.525L10.18 23.614C10.176 23.694 10.2 23.768 10.245 23.826C10.266 23.854 10.292 23.877 10.322 23.896C10.418 23.956 10.545 23.963 10.662 23.916L17.622 21.078C17.749 21.027 17.848 20.918 17.882 20.791H17.883ZM7.485 18.712L8.179 18.17L10.185 20.737L9.491 21.279L7.485 18.712V18.712ZM10.964 23.042L11.087 20.732C11.088 20.707 11.084 20.684 11.08 20.662C11.08 20.655 11.08 20.647 11.078 20.639C11.068 20.599 11.051 20.563 11.028 20.53C11.025 20.527 11.025 20.523 11.022 20.52L8.593 17.41C8.591 17.407 8.586 17.406 8.583 17.403C8.558 17.373 8.527 17.346 8.49 17.327L8.47 17.32C8.448 17.311 8.427 17.301 8.403 17.296L6.132 16.857L10.114 11.413L11.924 11.368C12.027 11.366 12.13 11.323 12.209 11.248C15.459 8.21198 20.449 4.92398 25.759 6.50298C26.006 12.037 21.609 16.083 17.876 18.502C17.785 18.561 17.718 18.65 17.69 18.749L17.21 20.494L10.964 23.041V23.042ZM7.28 21.376L6.023 22.357C5.851 22.492 5.616 22.48 5.499 22.331C5.382 22.181 5.427 21.951 5.599 21.815L6.856 20.834C7.029 20.699 7.264 20.711 7.381 20.86C7.498 21.01 7.453 21.24 7.28 21.376V21.376ZM6.432 20.291L3.924 22.251C3.751 22.386 3.516 22.374 3.399 22.224C3.283 22.074 3.328 21.844 3.501 21.709L6.009 19.749C6.182 19.614 6.417 19.626 6.533 19.775C6.65 19.925 6.605 20.155 6.433 20.291H6.432ZM8.127 22.46L5.619 24.42C5.446 24.555 5.211 24.543 5.094 24.393C4.977 24.243 5.023 24.013 5.195 23.878L7.704 21.918C7.876 21.783 8.111 21.795 8.228 21.945C8.345 22.094 8.3 22.325 8.128 22.46H8.127Z" fill="currentColor"/>
</svg>
