<svg viewBox="0 0 30 30" fill="none" 
  xmlns="http://www.w3.org/2000/svg">
  <path d="M24.8303 1H4.16967C2.97139 1 2 1.95266 2 3.12782V26.8722C2 28.0473 2.97139 29 4.16967 29H24.8303C26.0286 29 27 28.0473 27 26.8722V3.12782C27 1.95266 26.0286 1 24.8303 1Z" stroke="currentColor" stroke-width="1.5"/>
  <path d="M2.27121 24.5752H20.9108M2.71491 5.85994H14.2532H2.71491ZM2.27121 9.77726H13.8095H2.27121ZM2.27121 14.1297H10.2599H2.27121ZM2.27121 17.6119H20.9108H2.27121ZM2.27121 21.093H16.4728H2.27121Z" stroke="currentColor" stroke-linecap="square"/>
  <path d="M21.6008 9.77832C23.5618 9.77832 25.1515 8.2193 25.1515 6.29614C25.1515 4.37299 23.5618 2.81396 21.6008 2.81396C19.6398 2.81396 18.0501 4.37299 18.0501 6.29614C18.0501 8.2193 19.6398 9.77832 21.6008 9.77832Z" fill="currentColor"/>
  <path d="M19.8249 11.1976V15.0011L21.6008 13.2594L23.3756 15.0011V11.1976C22.2322 11.6253 20.9683 11.6253 19.8249 11.1976V11.1976Z" fill="currentColor"/>
</svg>
